<?xml version="1.0" encoding="UTF-8"?>
<svg xmlns="http://www.w3.org/2000/svg" version="1.1" width="500" height="500" viewBox="0 0 500 500"><rect x="0" y="0" width="500" height="500" fill="#ffffff"/><g transform="scale(15.152)"><g transform="translate(0,0)"><path fill-rule="evenodd" d="M8 0.25L8 2.75A0.25 0.25 0 0 0 8.25 3L9.75 3A0.25 0.25 0 0 1 10 3.25L10 3.75A0.25 0.25 0 0 1 9.75 4L9.25 4A0.25 0.25 0 0 0 9 4.25L9 4.75A0.25 0.25 0 0 1 8.75 5L8.25 5A0.25 0.25 0 0 0 8 5.25L8 8.75A0.25 0.25 0 0 0 8.25 9L8.75 9A0.25 0.25 0 0 1 9 9.25L9 10.75A0.25 0.25 0 0 1 8.75 11L8.25 11A0.25 0.25 0 0 1 8 10.75L8 10.25A0.25 0.25 0 0 0 7.75 10L6.25 10A0.25 0.25 0 0 1 6 9.75L6 9.25A0.25 0.25 0 0 1 6.25 9L6.75 9A0.25 0.25 0 0 0 7 8.75L7 8.25A0.25 0.25 0 0 0 6.75 8L6.25 8A0.25 0.25 0 0 0 6 8.25L6 8.75A0.25 0.25 0 0 1 5.75 9L5.25 9A0.25 0.25 0 0 1 5 8.75L5 8.25A0.25 0.25 0 0 0 4.75 8L2.25 8A0.25 0.25 0 0 0 2 8.25L2 8.75A0.25 0.25 0 0 0 2.25 9L3.75 9A0.25 0.25 0 0 1 4 9.25L4 9.75A0.25 0.25 0 0 1 3.75 10L1.25 10A0.25 0.25 0 0 0 1 10.25L1 10.75A0.25 0.25 0 0 0 1.25 11L1.75 11A0.25 0.25 0 0 1 2 11.25L2 11.75A0.25 0.25 0 0 1 1.75 12L1.25 12A0.25 0.25 0 0 0 1 12.25L1 12.75A0.25 0.25 0 0 1 0.75 13L0.25 13A0.25 0.25 0 0 0 0 13.25L0 14.75A0.25 0.25 0 0 0 0.25 15L0.75 15A0.25 0.25 0 0 1 1 15.25L1 15.75A0.25 0.25 0 0 1 0.75 16L0.25 16A0.25 0.25 0 0 0 0 16.25L0 16.75A0.25 0.25 0 0 0 0.25 17L0.75 17A0.25 0.25 0 0 0 1 16.75L1 16.25A0.25 0.25 0 0 1 1.25 16L1.75 16A0.25 0.25 0 0 1 2 16.25L2 17.75A0.25 0.25 0 0 1 1.75 18L0.25 18A0.25 0.25 0 0 0 0 18.25L0 18.75A0.25 0.25 0 0 0 0.25 19L0.75 19A0.25 0.25 0 0 1 1 19.25L1 19.75A0.25 0.25 0 0 0 1.25 20L1.75 20A0.25 0.25 0 0 1 2 20.25L2 20.75A0.25 0.25 0 0 1 1.75 21L0.25 21A0.25 0.25 0 0 0 0 21.25L0 24.75A0.25 0.25 0 0 0 0.25 25L0.75 25A0.25 0.25 0 0 0 1 24.75L1 22.25A0.25 0.25 0 0 1 1.25 22L1.75 22A0.25 0.25 0 0 1 2 22.25L2 23.75A0.25 0.25 0 0 0 2.25 24L2.75 24A0.25 0.25 0 0 1 3 24.25L3 24.75A0.25 0.25 0 0 0 3.25 25L3.75 25A0.25 0.25 0 0 0 4 24.75L4 24.25A0.25 0.25 0 0 1 4.25 24L4.75 24A0.25 0.25 0 0 1 5 24.25L5 24.75A0.25 0.25 0 0 0 5.25 25L6.75 25A0.25 0.25 0 0 0 7 24.75L7 24.25A0.25 0.25 0 0 0 6.75 24L5.25 24A0.25 0.25 0 0 1 5 23.75L5 23.25A0.25 0.25 0 0 1 5.25 23L6.75 23A0.25 0.25 0 0 0 7 22.75L7 22.25A0.25 0.25 0 0 1 7.25 22L7.75 22A0.25 0.25 0 0 0 8 21.75L8 21.25A0.25 0.25 0 0 0 7.75 21L7.25 21A0.25 0.25 0 0 1 7 20.75L7 20.25A0.25 0.25 0 0 0 6.75 20L6.25 20A0.25 0.25 0 0 0 6 20.25L6 20.75A0.25 0.25 0 0 0 6.25 21L6.75 21A0.25 0.25 0 0 1 7 21.25L7 21.75A0.25 0.25 0 0 1 6.75 22L5.25 22A0.25 0.25 0 0 1 5 21.75L5 21.25A0.25 0.25 0 0 0 4.75 21L3.25 21A0.25 0.25 0 0 1 3 20.75L3 20.25A0.25 0.25 0 0 0 2.75 20L2.25 20A0.25 0.25 0 0 1 2 19.75L2 19.25A0.25 0.25 0 0 1 2.25 19L3.75 19A0.25 0.25 0 0 0 4 18.75L4 18.25A0.25 0.25 0 0 1 4.25 18L4.75 18A0.25 0.25 0 0 0 5 17.75L5 17.25A0.25 0.25 0 0 0 4.75 17L4.25 17A0.25 0.25 0 0 1 4 16.75L4 16.25A0.25 0.25 0 0 1 4.25 16L5.75 16A0.25 0.25 0 0 1 6 16.25L6 16.75A0.25 0.25 0 0 0 6.25 17L6.75 17A0.25 0.25 0 0 1 7 17.25L7 17.75A0.25 0.25 0 0 1 6.75 18L6.25 18A0.25 0.25 0 0 0 6 18.25L6 18.75A0.25 0.25 0 0 0 6.25 19L6.75 19A0.25 0.25 0 0 0 7 18.75L7 18.25A0.25 0.25 0 0 1 7.25 18L7.75 18A0.25 0.25 0 0 1 8 18.25L8 19.75A0.25 0.25 0 0 0 8.25 20L9.75 20A0.25 0.25 0 0 1 10 20.25L10 21.75A0.25 0.25 0 0 1 9.75 22L9.25 22A0.25 0.25 0 0 0 9 22.25L9 23.75A0.25 0.25 0 0 0 9.25 24L10.75 24A0.25 0.25 0 0 1 11 24.25L11 24.75A0.25 0.25 0 0 1 10.75 25L10.25 25A0.25 0.25 0 0 0 10 25.25L10 25.75A0.25 0.25 0 0 1 9.75 26L9.25 26A0.25 0.25 0 0 1 9 25.75L9 25.25A0.25 0.25 0 0 0 8.75 25L8.25 25A0.25 0.25 0 0 0 8 25.25L8 25.75A0.25 0.25 0 0 0 8.25 26L8.75 26A0.25 0.25 0 0 1 9 26.25L9 27.75A0.25 0.25 0 0 1 8.75 28L8.25 28A0.25 0.25 0 0 0 8 28.25L8 30.75A0.25 0.25 0 0 0 8.25 31L8.75 31A0.25 0.25 0 0 1 9 31.25L9 32.75A0.25 0.25 0 0 0 9.25 33L12.75 33A0.25 0.25 0 0 0 13 32.75L13 32.25A0.25 0.25 0 0 1 13.25 32L13.75 32A0.25 0.25 0 0 1 14 32.25L14 32.75A0.25 0.25 0 0 0 14.25 33L14.75 33A0.25 0.25 0 0 0 15 32.75L15 32.25A0.25 0.25 0 0 1 15.25 32L15.75 32A0.25 0.25 0 0 1 16 32.25L16 32.75A0.25 0.25 0 0 0 16.25 33L18.75 33A0.25 0.25 0 0 0 19 32.75L19 32.25A0.25 0.25 0 0 0 18.75 32L17.25 32A0.25 0.25 0 0 1 17 31.75L17 31.25A0.25 0.25 0 0 0 16.75 31L15.25 31A0.25 0.25 0 0 0 15 31.25L15 31.75A0.25 0.25 0 0 1 14.75 32L14.25 32A0.25 0.25 0 0 1 14 31.75L14 30.25A0.25 0.25 0 0 1 14.25 30L16.75 30A0.25 0.25 0 0 0 17 29.75L17 29.25A0.25 0.25 0 0 1 17.25 29L17.75 29A0.25 0.25 0 0 1 18 29.25L18 30.75A0.25 0.25 0 0 0 18.25 31L18.75 31A0.25 0.25 0 0 0 19 30.75L19 29.25A0.25 0.25 0 0 0 18.75 29L18.25 29A0.25 0.25 0 0 1 18 28.75L18 28.25A0.25 0.25 0 0 0 17.75 28L17.25 28A0.25 0.25 0 0 1 17 27.75L17 27.25A0.25 0.25 0 0 1 17.25 27L19.75 27A0.25 0.25 0 0 1 20 27.25L20 29.75A0.25 0.25 0 0 0 20.25 30L20.75 30A0.25 0.25 0 0 1 21 30.25L21 31.75A0.25 0.25 0 0 0 21.25 32L22.75 32A0.25 0.25 0 0 1 23 32.25L23 32.75A0.25 0.25 0 0 0 23.25 33L24.75 33A0.25 0.25 0 0 0 25 32.75L25 32.25A0.25 0.25 0 0 0 24.75 32L23.25 32A0.25 0.25 0 0 1 23 31.75L23 31.25A0.25 0.25 0 0 1 23.25 31L23.75 31A0.25 0.25 0 0 0 24 30.75L24 29.25A0.25 0.25 0 0 1 24.25 29L27.75 29A0.25 0.25 0 0 1 28 29.25L28 29.75A0.25 0.25 0 0 0 28.25 30L29.75 30A0.25 0.25 0 0 1 30 30.25L30 30.75A0.25 0.25 0 0 1 29.75 31L29.25 31A0.25 0.25 0 0 0 29 31.25L29 32.75A0.25 0.25 0 0 0 29.25 33L31.75 33A0.25 0.25 0 0 0 32 32.75L32 32.25A0.25 0.25 0 0 0 31.75 32L31.25 32A0.25 0.25 0 0 1 31 31.75L31 30.25A0.25 0.25 0 0 0 30.75 30L30.25 30A0.25 0.25 0 0 1 30 29.75L30 28.25A0.25 0.25 0 0 1 30.25 28L30.75 28A0.25 0.25 0 0 1 31 28.25L31 28.75A0.25 0.25 0 0 0 31.25 29L31.75 29A0.25 0.25 0 0 1 32 29.25L32 29.75A0.25 0.25 0 0 0 32.25 30L32.75 30A0.25 0.25 0 0 0 33 29.75L33 28.25A0.25 0.25 0 0 0 32.75 28L31.25 28A0.25 0.25 0 0 1 31 27.75L31 27.25A0.25 0.25 0 0 1 31.25 27L31.75 27A0.25 0.25 0 0 0 32 26.75L32 26.25A0.25 0.25 0 0 1 32.25 26L32.75 26A0.25 0.25 0 0 0 33 25.75L33 23.25A0.25 0.25 0 0 0 32.75 23L32.25 23A0.25 0.25 0 0 0 32 23.25L32 25.75A0.25 0.25 0 0 1 31.75 26L31.25 26A0.25 0.25 0 0 1 31 25.75L31 25.25A0.25 0.25 0 0 0 30.75 25L30.25 25A0.25 0.25 0 0 0 30 25.25L30 27.75A0.25 0.25 0 0 1 29.75 28L29.25 28A0.25 0.25 0 0 1 29 27.75L29 24.25A0.25 0.25 0 0 1 29.25 24L30.75 24A0.25 0.25 0 0 0 31 23.75L31 23.25A0.25 0.25 0 0 0 30.75 23L30.25 23A0.25 0.25 0 0 1 30 22.75L30 22.25A0.25 0.25 0 0 1 30.25 22L32.75 22A0.25 0.25 0 0 0 33 21.75L33 21.25A0.25 0.25 0 0 0 32.75 21L32.25 21A0.25 0.25 0 0 1 32 20.75L32 20.25A0.25 0.25 0 0 1 32.25 20L32.75 20A0.25 0.25 0 0 0 33 19.75L33 19.25A0.25 0.25 0 0 0 32.75 19L32.25 19A0.25 0.25 0 0 1 32 18.75L32 18.25A0.25 0.25 0 0 0 31.75 18L30.25 18A0.25 0.25 0 0 0 30 18.25L30 18.75A0.25 0.25 0 0 1 29.75 19L29.25 19A0.25 0.25 0 0 0 29 19.25L29 19.75A0.25 0.25 0 0 1 28.75 20L28.25 20A0.25 0.25 0 0 1 28 19.75L28 17.25A0.25 0.25 0 0 1 28.25 17L28.75 17A0.25 0.25 0 0 0 29 16.75L29 16.25A0.25 0.25 0 0 1 29.25 16L30.75 16A0.25 0.25 0 0 0 31 15.75L31 15.25A0.25 0.25 0 0 1 31.25 15L31.75 15A0.25 0.25 0 0 1 32 15.25L32 15.75A0.25 0.25 0 0 0 32.25 16L32.75 16A0.25 0.25 0 0 0 33 15.75L33 15.25A0.25 0.25 0 0 0 32.75 15L32.25 15A0.25 0.25 0 0 1 32 14.75L32 14.25A0.25 0.25 0 0 1 32.25 14L32.75 14A0.25 0.25 0 0 0 33 13.75L33 11.25A0.25 0.25 0 0 0 32.75 11L32.25 11A0.25 0.25 0 0 1 32 10.75L32 10.25A0.25 0.25 0 0 1 32.25 10L32.75 10A0.25 0.25 0 0 0 33 9.75L33 8.25A0.25 0.25 0 0 0 32.75 8L30.25 8A0.25 0.25 0 0 0 30 8.25L30 8.75A0.25 0.25 0 0 0 30.25 9L31.75 9A0.25 0.25 0 0 1 32 9.25L32 9.75A0.25 0.25 0 0 1 31.75 10L30.25 10A0.25 0.25 0 0 0 30 10.25L30 11.75A0.25 0.25 0 0 1 29.75 12L28.25 12A0.25 0.25 0 0 0 28 12.25L28 12.75A0.25 0.25 0 0 0 28.25 13L28.75 13A0.25 0.25 0 0 1 29 13.25L29 15.75A0.25 0.25 0 0 1 28.75 16L28.25 16A0.25 0.25 0 0 0 28 16.25L28 16.75A0.25 0.25 0 0 1 27.75 17L26.25 17A0.25 0.25 0 0 0 26 17.25L26 17.75A0.25 0.25 0 0 0 26.25 18L26.75 18A0.25 0.25 0 0 1 27 18.25L27 20.75A0.25 0.25 0 0 0 27.25 21L29.75 21A0.25 0.25 0 0 1 30 21.25L30 21.75A0.25 0.25 0 0 1 29.75 22L29.25 22A0.25 0.25 0 0 0 29 22.25L29 23.75A0.25 0.25 0 0 1 28.75 24L28.25 24A0.25 0.25 0 0 1 28 23.75L28 23.25A0.25 0.25 0 0 0 27.75 23L27.25 23A0.25 0.25 0 0 0 27 23.25L27 23.75A0.25 0.25 0 0 1 26.75 24L24.25 24A0.25 0.25 0 0 0 24 24.25L24 24.75A0.25 0.25 0 0 1 23.75 25L23.25 25A0.25 0.25 0 0 1 23 24.75L23 23.25A0.25 0.25 0 0 0 22.75 23L22.25 23A0.25 0.25 0 0 1 22 22.75L22 22.25A0.25 0.25 0 0 1 22.25 22L22.75 22A0.25 0.25 0 0 0 23 21.75L23 21.25A0.25 0.25 0 0 1 23.25 21L25.75 21A0.25 0.25 0 0 0 26 20.75L26 19.25A0.25 0.25 0 0 0 25.75 19L25.25 19A0.25 0.25 0 0 1 25 18.75L25 16.25A0.25 0.25 0 0 0 24.75 16L24.25 16A0.25 0.25 0 0 1 24 15.75L24 15.25A0.25 0.25 0 0 0 23.75 15L23.25 15A0.25 0.25 0 0 1 23 14.75L23 14.25A0.25 0.25 0 0 1 23.25 14L23.75 14A0.25 0.25 0 0 0 24 13.75L24 13.25A0.25 0.25 0 0 0 23.75 13L23.25 13A0.25 0.25 0 0 1 23 12.75L23 12.25A0.25 0.25 0 0 1 23.25 12L24.75 12A0.25 0.25 0 0 1 25 12.25L25 12.75A0.25 0.25 0 0 0 25.25 13L25.75 13A0.25 0.25 0 0 1 26 13.25L26 13.75A0.25 0.25 0 0 0 26.25 14L26.75 14A0.25 0.25 0 0 1 27 14.25L27 14.75A0.25 0.25 0 0 0 27.25 15L27.75 15A0.25 0.25 0 0 0 28 14.75L28 14.25A0.25 0.25 0 0 0 27.75 14L27.25 14A0.25 0.25 0 0 1 27 13.75L27 13.25A0.25 0.25 0 0 0 26.75 13L26.25 13A0.25 0.25 0 0 1 26 12.75L26 12.25A0.25 0.25 0 0 0 25.75 12L25.25 12A0.25 0.25 0 0 1 25 11.75L25 11.25A0.25 0.25 0 0 1 25.25 11L27.75 11A0.25 0.25 0 0 0 28 10.75L28 10.25A0.25 0.25 0 0 0 27.75 10L27.25 10A0.25 0.25 0 0 1 27 9.75L27 9.25A0.25 0.25 0 0 1 27.25 9L27.75 9A0.25 0.25 0 0 0 28 8.75L28 8.25A0.25 0.25 0 0 0 27.75 8L24.25 8A0.25 0.25 0 0 1 24 7.75L24 7.25A0.25 0.25 0 0 1 24.25 7L24.75 7A0.25 0.25 0 0 0 25 6.75L25 6.25A0.25 0.25 0 0 0 24.75 6L24.25 6A0.25 0.25 0 0 0 24 6.25L24 6.75A0.25 0.25 0 0 1 23.75 7L23.25 7A0.25 0.25 0 0 1 23 6.75L23 5.25A0.25 0.25 0 0 1 23.25 5L23.75 5A0.25 0.25 0 0 0 24 4.75L24 2.25A0.25 0.25 0 0 0 23.75 2L21.25 2A0.25 0.25 0 0 1 21 1.75L21 1.25A0.25 0.25 0 0 1 21.25 1L21.75 1A0.25 0.25 0 0 0 22 0.75L22 0.25A0.25 0.25 0 0 0 21.75 0L17.25 0A0.25 0.25 0 0 0 17 0.25L17 2.75A0.25 0.25 0 0 1 16.75 3L16.25 3A0.25 0.25 0 0 0 16 3.25L16 3.75A0.25 0.25 0 0 0 16.25 4L17.75 4A0.25 0.25 0 0 1 18 4.25L18 4.75A0.25 0.25 0 0 0 18.25 5L18.75 5A0.25 0.25 0 0 1 19 5.25L19 5.75A0.25 0.25 0 0 1 18.75 6L18.25 6A0.25 0.25 0 0 0 18 6.25L18 7.75A0.25 0.25 0 0 0 18.25 8L18.75 8A0.25 0.25 0 0 1 19 8.25L19 8.75A0.25 0.25 0 0 1 18.75 9L18.25 9A0.25 0.25 0 0 0 18 9.25L18 9.75A0.25 0.25 0 0 1 17.75 10L17.25 10A0.25 0.25 0 0 0 17 10.25L17 11.75A0.25 0.25 0 0 0 17.25 12L17.75 12A0.25 0.25 0 0 0 18 11.75L18 11.25A0.25 0.25 0 0 1 18.25 11L18.75 11A0.25 0.25 0 0 1 19 11.25L19 13.75A0.25 0.25 0 0 1 18.75 14L18.25 14A0.25 0.25 0 0 1 18 13.75L18 13.25A0.25 0.25 0 0 0 17.75 13L14.25 13A0.25 0.25 0 0 1 14 12.75L14 10.25A0.25 0.25 0 0 1 14.25 10L14.75 10A0.25 0.25 0 0 0 15 9.75L15 9.25A0.25 0.25 0 0 1 15.25 9L15.75 9A0.25 0.25 0 0 0 16 8.75L16 8.25A0.25 0.25 0 0 1 16.25 8L16.75 8A0.25 0.25 0 0 0 17 7.75L17 5.25A0.25 0.25 0 0 0 16.75 5L16.25 5A0.25 0.25 0 0 0 16 5.25L16 7.75A0.25 0.25 0 0 1 15.75 8L15.25 8A0.25 0.25 0 0 1 15 7.75L15 6.25A0.25 0.25 0 0 0 14.75 6L14.25 6A0.25 0.25 0 0 0 14 6.25L14 8.75A0.25 0.25 0 0 1 13.75 9L13.25 9A0.25 0.25 0 0 1 13 8.75L13 3.25A0.25 0.25 0 0 0 12.75 3L12.25 3A0.25 0.25 0 0 0 12 3.25L12 4.75A0.25 0.25 0 0 1 11.75 5L11.25 5A0.25 0.25 0 0 1 11 4.75L11 2.25A0.25 0.25 0 0 1 11.25 2L11.75 2A0.25 0.25 0 0 0 12 1.75L12 1.25A0.25 0.25 0 0 1 12.25 1L12.75 1A0.25 0.25 0 0 1 13 1.25L13 1.75A0.25 0.25 0 0 0 13.25 2L13.75 2A0.25 0.25 0 0 1 14 2.25L14 3.75A0.25 0.25 0 0 0 14.25 4L14.75 4A0.25 0.25 0 0 0 15 3.75L15 1.25A0.25 0.25 0 0 1 15.25 1L15.75 1A0.25 0.25 0 0 0 16 0.75L16 0.25A0.25 0.25 0 0 0 15.75 0L14.25 0A0.25 0.25 0 0 0 14 0.25L14 0.75A0.25 0.25 0 0 1 13.75 1L13.25 1A0.25 0.25 0 0 1 13 0.75L13 0.25A0.25 0.25 0 0 0 12.75 0L12.25 0A0.25 0.25 0 0 0 12 0.25L12 0.75A0.25 0.25 0 0 1 11.75 1L11.25 1A0.25 0.25 0 0 0 11 1.25L11 1.75A0.25 0.25 0 0 1 10.75 2L9.25 2A0.25 0.25 0 0 1 9 1.75L9 0.25A0.25 0.25 0 0 0 8.75 0L8.25 0A0.25 0.25 0 0 0 8 0.25ZM23 0.25L23 0.75A0.25 0.25 0 0 0 23.25 1L24.75 1A0.25 0.25 0 0 0 25 0.75L25 0.25A0.25 0.25 0 0 0 24.75 0L23.25 0A0.25 0.25 0 0 0 23 0.25ZM18 2.25L18 2.75A0.25 0.25 0 0 0 18.25 3L18.75 3A0.25 0.25 0 0 1 19 3.25L19 4.75A0.25 0.25 0 0 0 19.25 5L20.75 5A0.25 0.25 0 0 0 21 4.75L21 4.25A0.25 0.25 0 0 1 21.25 4L21.75 4A0.25 0.25 0 0 0 22 3.75L22 3.25A0.25 0.25 0 0 0 21.75 3L21.25 3A0.25 0.25 0 0 0 21 3.25L21 3.75A0.25 0.25 0 0 1 20.75 4L20.25 4A0.25 0.25 0 0 1 20 3.75L20 2.25A0.25 0.25 0 0 0 19.75 2L18.25 2A0.25 0.25 0 0 0 18 2.25ZM10 5.25L10 5.75A0.25 0.25 0 0 1 9.75 6L9.25 6A0.25 0.25 0 0 0 9 6.25L9 8.75A0.25 0.25 0 0 0 9.25 9L9.75 9A0.25 0.25 0 0 1 10 9.25L10 9.75A0.25 0.25 0 0 0 10.25 10L11.75 10A0.25 0.25 0 0 1 12 10.25L12 10.75A0.25 0.25 0 0 0 12.25 11L12.75 11A0.25 0.25 0 0 0 13 10.75L13 9.25A0.25 0.25 0 0 0 12.75 9L12.25 9A0.25 0.25 0 0 1 12 8.75L12 8.25A0.25 0.25 0 0 0 11.75 8L11.25 8A0.25 0.25 0 0 1 11 7.75L11 7.25A0.25 0.25 0 0 1 11.25 7L11.75 7A0.25 0.25 0 0 0 12 6.75L12 6.25A0.25 0.25 0 0 0 11.75 6L11.25 6A0.25 0.25 0 0 1 11 5.75L11 5.25A0.25 0.25 0 0 0 10.75 5L10.25 5A0.25 0.25 0 0 0 10 5.25ZM10 6.25L10 6.75A0.25 0.25 0 0 0 10.25 7L10.75 7A0.25 0.25 0 0 0 11 6.75L11 6.25A0.25 0.25 0 0 0 10.75 6L10.25 6A0.25 0.25 0 0 0 10 6.25ZM19 6.25L19 6.75A0.25 0.25 0 0 0 19.25 7L19.75 7A0.25 0.25 0 0 1 20 7.25L20 8.75A0.25 0.25 0 0 1 19.75 9L19.25 9A0.25 0.25 0 0 0 19 9.25L19 10.75A0.25 0.25 0 0 0 19.25 11L19.75 11A0.25 0.25 0 0 1 20 11.25L20 11.75A0.25 0.25 0 0 0 20.25 12L20.75 12A0.25 0.25 0 0 0 21 11.75L21 11.25A0.25 0.25 0 0 1 21.25 11L21.75 11A0.25 0.25 0 0 0 22 10.75L22 10.25A0.25 0.25 0 0 1 22.25 10L22.75 10A0.25 0.25 0 0 1 23 10.25L23 10.75A0.25 0.25 0 0 0 23.25 11L24.75 11A0.25 0.25 0 0 0 25 10.75L25 9.25A0.25 0.25 0 0 0 24.75 9L24.25 9A0.25 0.25 0 0 0 24 9.25L24 9.75A0.25 0.25 0 0 1 23.75 10L23.25 10A0.25 0.25 0 0 1 23 9.75L23 9.25A0.25 0.25 0 0 0 22.75 9L22.25 9A0.25 0.25 0 0 1 22 8.75L22 8.25A0.25 0.25 0 0 1 22.25 8L22.75 8A0.25 0.25 0 0 0 23 7.75L23 7.25A0.25 0.25 0 0 0 22.75 7L22.25 7A0.25 0.25 0 0 1 22 6.75L22 6.25A0.25 0.25 0 0 0 21.75 6L21.25 6A0.25 0.25 0 0 0 21 6.25L21 6.75A0.25 0.25 0 0 1 20.75 7L20.25 7A0.25 0.25 0 0 1 20 6.75L20 6.25A0.25 0.25 0 0 0 19.75 6L19.25 6A0.25 0.25 0 0 0 19 6.25ZM21 7.25L21 7.75A0.25 0.25 0 0 0 21.25 8L21.75 8A0.25 0.25 0 0 0 22 7.75L22 7.25A0.25 0.25 0 0 0 21.75 7L21.25 7A0.25 0.25 0 0 0 21 7.25ZM10 8.25L10 8.75A0.25 0.25 0 0 0 10.25 9L10.75 9A0.25 0.25 0 0 0 11 8.75L11 8.25A0.25 0.25 0 0 0 10.75 8L10.25 8A0.25 0.25 0 0 0 10 8.25ZM21 9.25L21 9.75A0.25 0.25 0 0 1 20.75 10L20.25 10A0.25 0.25 0 0 0 20 10.25L20 10.75A0.25 0.25 0 0 0 20.25 11L20.75 11A0.25 0.25 0 0 0 21 10.75L21 10.25A0.25 0.25 0 0 1 21.25 10L21.75 10A0.25 0.25 0 0 0 22 9.75L22 9.25A0.25 0.25 0 0 0 21.75 9L21.25 9A0.25 0.25 0 0 0 21 9.25ZM4 11.25L4 11.75A0.25 0.25 0 0 1 3.75 12L2.25 12A0.25 0.25 0 0 0 2 12.25L2 12.75A0.25 0.25 0 0 1 1.75 13L1.25 13A0.25 0.25 0 0 0 1 13.25L1 13.75A0.25 0.25 0 0 0 1.25 14L3.75 14A0.25 0.25 0 0 0 4 13.75L4 12.25A0.25 0.25 0 0 1 4.25 12L4.75 12A0.25 0.25 0 0 1 5 12.25L5 14.75A0.25 0.25 0 0 0 5.25 15L5.75 15A0.25 0.25 0 0 1 6 15.25L6 15.75A0.25 0.25 0 0 0 6.25 16L6.75 16A0.25 0.25 0 0 0 7 15.75L7 15.25A0.25 0.25 0 0 0 6.75 15L6.25 15A0.25 0.25 0 0 1 6 14.75L6 14.25A0.25 0.25 0 0 1 6.25 14L8.75 14A0.25 0.25 0 0 0 9 13.75L9 12.25A0.25 0.25 0 0 0 8.75 12L8.25 12A0.25 0.25 0 0 0 8 12.25L8 12.75A0.25 0.25 0 0 1 7.75 13L6.25 13A0.25 0.25 0 0 1 6 12.75L6 12.25A0.25 0.25 0 0 1 6.25 12L6.75 12A0.25 0.25 0 0 0 7 11.75L7 11.25A0.25 0.25 0 0 0 6.75 11L4.25 11A0.25 0.25 0 0 0 4 11.25ZM11 12.25L11 13.75A0.25 0.25 0 0 1 10.75 14L10.25 14A0.25 0.25 0 0 0 10 14.25L10 14.75A0.25 0.25 0 0 0 10.25 15L10.75 15A0.25 0.25 0 0 1 11 15.25L11 16.75A0.25 0.25 0 0 1 10.75 17L10.25 17A0.25 0.25 0 0 0 10 17.25L10 17.75A0.25 0.25 0 0 1 9.75 18L9.25 18A0.25 0.25 0 0 0 9 18.25L9 18.75A0.25 0.25 0 0 0 9.25 19L10.75 19A0.25 0.25 0 0 0 11 18.75L11 17.25A0.25 0.25 0 0 1 11.25 17L11.75 17A0.25 0.25 0 0 1 12 17.25L12 20.75A0.25 0.25 0 0 1 11.75 21L11.25 21A0.25 0.25 0 0 0 11 21.25L11 21.75A0.25 0.25 0 0 0 11.25 22L11.75 22A0.25 0.25 0 0 0 12 21.75L12 21.25A0.25 0.25 0 0 1 12.25 21L14.75 21A0.25 0.25 0 0 1 15 21.25L15 21.75A0.25 0.25 0 0 1 14.75 22L14.25 22A0.25 0.25 0 0 0 14 22.25L14 22.75A0.25 0.25 0 0 1 13.75 23L13.25 23A0.25 0.25 0 0 0 13 23.25L13 24.75A0.25 0.25 0 0 1 12.75 25L11.25 25A0.25 0.25 0 0 0 11 25.25L11 25.75A0.25 0.25 0 0 0 11.25 26L11.75 26A0.25 0.25 0 0 1 12 26.25L12 26.75A0.25 0.25 0 0 0 12.25 27L12.75 27A0.25 0.25 0 0 0 13 26.75L13 25.25A0.25 0.25 0 0 1 13.25 25L15.75 25A0.25 0.25 0 0 1 16 25.25L16 25.75A0.25 0.25 0 0 0 16.25 26L19.75 26A0.25 0.25 0 0 0 20 25.75L20 24.25A0.25 0.25 0 0 1 20.25 24L20.75 24A0.25 0.25 0 0 1 21 24.25L21 26.75A0.25 0.25 0 0 0 21.25 27L21.75 27A0.25 0.25 0 0 0 22 26.75L22 24.25A0.25 0.25 0 0 0 21.75 24L21.25 24A0.25 0.25 0 0 1 21 23.75L21 22.25A0.25 0.25 0 0 1 21.25 22L21.75 22A0.25 0.25 0 0 0 22 21.75L22 21.25A0.25 0.25 0 0 1 22.25 21L22.75 21A0.25 0.25 0 0 0 23 20.75L23 19.25A0.25 0.25 0 0 1 23.25 19L23.75 19A0.25 0.25 0 0 0 24 18.75L24 18.25A0.25 0.25 0 0 0 23.75 18L23.25 18A0.25 0.25 0 0 1 23 17.75L23 17.25A0.25 0.25 0 0 0 22.75 17L22.25 17A0.25 0.25 0 0 1 22 16.75L22 16.25A0.25 0.25 0 0 0 21.75 16L21.25 16A0.25 0.25 0 0 1 21 15.75L21 15.25A0.25 0.25 0 0 1 21.25 15L21.75 15A0.25 0.25 0 0 0 22 14.75L22 14.25A0.25 0.25 0 0 1 22.25 14L22.75 14A0.25 0.25 0 0 0 23 13.75L23 13.25A0.25 0.25 0 0 0 22.75 13L20.25 13A0.25 0.25 0 0 0 20 13.25L20 13.75A0.25 0.25 0 0 1 19.75 14L19.25 14A0.25 0.25 0 0 0 19 14.25L19 14.75A0.25 0.25 0 0 1 18.75 15L18.25 15A0.25 0.25 0 0 1 18 14.75L18 14.25A0.25 0.25 0 0 0 17.75 14L17.25 14A0.25 0.25 0 0 0 17 14.25L17 14.75A0.25 0.25 0 0 1 16.75 15L16.25 15A0.25 0.25 0 0 1 16 14.75L16 14.25A0.25 0.25 0 0 0 15.75 14L14.25 14A0.25 0.25 0 0 1 14 13.75L14 13.25A0.25 0.25 0 0 0 13.75 13L13.25 13A0.25 0.25 0 0 0 13 13.25L13 13.75A0.25 0.25 0 0 1 12.75 14L12.25 14A0.25 0.25 0 0 1 12 13.75L12 12.25A0.25 0.25 0 0 0 11.75 12L11.25 12A0.25 0.25 0 0 0 11 12.25ZM30 12.25L30 13.75A0.25 0.25 0 0 0 30.25 14L31.75 14A0.25 0.25 0 0 0 32 13.75L32 13.25A0.25 0.25 0 0 0 31.75 13L31.25 13A0.25 0.25 0 0 1 31 12.75L31 12.25A0.25 0.25 0 0 0 30.75 12L30.25 12A0.25 0.25 0 0 0 30 12.25ZM13 14.25L13 14.75A0.25 0.25 0 0 1 12.75 15L12.25 15A0.25 0.25 0 0 0 12 15.25L12 16.75A0.25 0.25 0 0 0 12.25 17L12.75 17A0.25 0.25 0 0 0 13 16.75L13 16.25A0.25 0.25 0 0 1 13.25 16L13.75 16A0.25 0.25 0 0 1 14 16.25L14 16.75A0.25 0.25 0 0 0 14.25 17L14.75 17A0.25 0.25 0 0 0 15 16.75L15 16.25A0.25 0.25 0 0 1 15.25 16L15.75 16A0.25 0.25 0 0 0 16 15.75L16 15.25A0.25 0.25 0 0 0 15.75 15L14.25 15A0.25 0.25 0 0 1 14 14.75L14 14.25A0.25 0.25 0 0 0 13.75 14L13.25 14A0.25 0.25 0 0 0 13 14.25ZM2 15.25L2 15.75A0.25 0.25 0 0 0 2.25 16L3.75 16A0.25 0.25 0 0 0 4 15.75L4 15.25A0.25 0.25 0 0 0 3.75 15L2.25 15A0.25 0.25 0 0 0 2 15.25ZM8 15.25L8 16.75A0.25 0.25 0 0 0 8.25 17L8.75 17A0.25 0.25 0 0 0 9 16.75L9 15.25A0.25 0.25 0 0 0 8.75 15L8.25 15A0.25 0.25 0 0 0 8 15.25ZM17 15.25L17 15.75A0.25 0.25 0 0 0 17.25 16L17.75 16A0.25 0.25 0 0 1 18 16.25L18 16.75A0.25 0.25 0 0 1 17.75 17L16.25 17A0.25 0.25 0 0 0 16 17.25L16 17.75A0.25 0.25 0 0 1 15.75 18L15.25 18A0.25 0.25 0 0 0 15 18.25L15 18.75A0.25 0.25 0 0 1 14.75 19L14.25 19A0.25 0.25 0 0 0 14 19.25L14 19.75A0.25 0.25 0 0 0 14.25 20L14.75 20A0.25 0.25 0 0 0 15 19.75L15 19.25A0.25 0.25 0 0 1 15.25 19L15.75 19A0.25 0.25 0 0 0 16 18.75L16 18.25A0.25 0.25 0 0 1 16.25 18L17.75 18A0.25 0.25 0 0 1 18 18.25L18 18.75A0.25 0.25 0 0 1 17.75 19L17.25 19A0.25 0.25 0 0 0 17 19.25L17 19.75A0.25 0.25 0 0 0 17.25 20L17.75 20A0.25 0.25 0 0 1 18 20.25L18 20.75A0.25 0.25 0 0 1 17.75 21L16.25 21A0.25 0.25 0 0 0 16 21.25L16 24.75A0.25 0.25 0 0 0 16.25 25L16.75 25A0.25 0.25 0 0 0 17 24.75L17 23.25A0.25 0.25 0 0 1 17.25 23L17.75 23A0.25 0.25 0 0 0 18 22.75L18 21.25A0.25 0.25 0 0 1 18.25 21L18.75 21A0.25 0.25 0 0 0 19 20.75L19 20.25A0.25 0.25 0 0 0 18.75 20L18.25 20A0.25 0.25 0 0 1 18 19.75L18 19.25A0.25 0.25 0 0 1 18.25 19L18.75 19A0.25 0.25 0 0 0 19 18.75L19 18.25A0.25 0.25 0 0 0 18.75 18L18.25 18A0.25 0.25 0 0 1 18 17.75L18 17.25A0.25 0.25 0 0 1 18.25 17L19.75 17A0.25 0.25 0 0 0 20 16.75L20 15.25A0.25 0.25 0 0 0 19.75 15L19.25 15A0.25 0.25 0 0 0 19 15.25L19 15.75A0.25 0.25 0 0 1 18.75 16L18.25 16A0.25 0.25 0 0 1 18 15.75L18 15.25A0.25 0.25 0 0 0 17.75 15L17.25 15A0.25 0.25 0 0 0 17 15.25ZM3 17.25L3 17.75A0.25 0.25 0 0 0 3.25 18L3.75 18A0.25 0.25 0 0 0 4 17.75L4 17.25A0.25 0.25 0 0 0 3.75 17L3.25 17A0.25 0.25 0 0 0 3 17.25ZM21 17.25L21 19.75A0.25 0.25 0 0 1 20.75 20L20.25 20A0.25 0.25 0 0 0 20 20.25L20 20.75A0.25 0.25 0 0 0 20.25 21L20.75 21A0.25 0.25 0 0 0 21 20.75L21 20.25A0.25 0.25 0 0 1 21.25 20L21.75 20A0.25 0.25 0 0 0 22 19.75L22 19.25A0.25 0.25 0 0 1 22.25 19L22.75 19A0.25 0.25 0 0 0 23 18.75L23 18.25A0.25 0.25 0 0 0 22.75 18L22.25 18A0.25 0.25 0 0 1 22 17.75L22 17.25A0.25 0.25 0 0 0 21.75 17L21.25 17A0.25 0.25 0 0 0 21 17.25ZM30 20.25L30 20.75A0.25 0.25 0 0 0 30.25 21L30.75 21A0.25 0.25 0 0 0 31 20.75L31 20.25A0.25 0.25 0 0 0 30.75 20L30.25 20A0.25 0.25 0 0 0 30 20.25ZM4 22.25L4 22.75A0.25 0.25 0 0 0 4.25 23L4.75 23A0.25 0.25 0 0 0 5 22.75L5 22.25A0.25 0.25 0 0 0 4.75 22L4.25 22A0.25 0.25 0 0 0 4 22.25ZM19 22.25L19 23.75A0.25 0.25 0 0 0 19.25 24L19.75 24A0.25 0.25 0 0 0 20 23.75L20 22.25A0.25 0.25 0 0 0 19.75 22L19.25 22A0.25 0.25 0 0 0 19 22.25ZM11 23.25L11 23.75A0.25 0.25 0 0 0 11.25 24L11.75 24A0.25 0.25 0 0 0 12 23.75L12 23.25A0.25 0.25 0 0 0 11.75 23L11.25 23A0.25 0.25 0 0 0 11 23.25ZM25 25.25L25 27.75A0.25 0.25 0 0 0 25.25 28L27.75 28A0.25 0.25 0 0 0 28 27.75L28 25.25A0.25 0.25 0 0 0 27.75 25L25.25 25A0.25 0.25 0 0 0 25 25.25ZM14 26.25L14 26.75A0.25 0.25 0 0 0 14.25 27L14.75 27A0.25 0.25 0 0 0 15 26.75L15 26.25A0.25 0.25 0 0 0 14.75 26L14.25 26A0.25 0.25 0 0 0 14 26.25ZM26 26.25L26 26.75A0.25 0.25 0 0 0 26.25 27L26.75 27A0.25 0.25 0 0 0 27 26.75L27 26.25A0.25 0.25 0 0 0 26.75 26L26.25 26A0.25 0.25 0 0 0 26 26.25ZM10 27.25L10 27.75A0.25 0.25 0 0 1 9.75 28L9.25 28A0.25 0.25 0 0 0 9 28.25L9 28.75A0.25 0.25 0 0 0 9.25 29L9.75 29A0.25 0.25 0 0 0 10 28.75L10 28.25A0.25 0.25 0 0 1 10.25 28L10.75 28A0.25 0.25 0 0 1 11 28.25L11 28.75A0.25 0.25 0 0 0 11.25 29L11.75 29A0.25 0.25 0 0 1 12 29.25L12 29.75A0.25 0.25 0 0 1 11.75 30L9.25 30A0.25 0.25 0 0 0 9 30.25L9 30.75A0.25 0.25 0 0 0 9.25 31L9.75 31A0.25 0.25 0 0 1 10 31.25L10 31.75A0.25 0.25 0 0 0 10.25 32L12.75 32A0.25 0.25 0 0 0 13 31.75L13 30.25A0.25 0.25 0 0 1 13.25 30L13.75 30A0.25 0.25 0 0 0 14 29.75L14 29.25A0.25 0.25 0 0 1 14.25 29L16.75 29A0.25 0.25 0 0 0 17 28.75L17 28.25A0.25 0.25 0 0 0 16.75 28L14.25 28A0.25 0.25 0 0 0 14 28.25L14 28.75A0.25 0.25 0 0 1 13.75 29L12.25 29A0.25 0.25 0 0 1 12 28.75L12 28.25A0.25 0.25 0 0 0 11.75 28L11.25 28A0.25 0.25 0 0 1 11 27.75L11 27.25A0.25 0.25 0 0 0 10.75 27L10.25 27A0.25 0.25 0 0 0 10 27.25ZM23 27.25L23 27.75A0.25 0.25 0 0 1 22.75 28L22.25 28A0.25 0.25 0 0 0 22 28.25L22 30.75A0.25 0.25 0 0 0 22.25 31L22.75 31A0.25 0.25 0 0 0 23 30.75L23 29.25A0.25 0.25 0 0 1 23.25 29L23.75 29A0.25 0.25 0 0 0 24 28.75L24 27.25A0.25 0.25 0 0 0 23.75 27L23.25 27A0.25 0.25 0 0 0 23 27.25ZM25 30.25L25 30.75A0.25 0.25 0 0 0 25.25 31L25.75 31A0.25 0.25 0 0 1 26 31.25L26 31.75A0.25 0.25 0 0 0 26.25 32L27.75 32A0.25 0.25 0 0 0 28 31.75L28 31.25A0.25 0.25 0 0 0 27.75 31L27.25 31A0.25 0.25 0 0 1 27 30.75L27 30.25A0.25 0.25 0 0 0 26.75 30L25.25 30A0.25 0.25 0 0 0 25 30.25ZM0 0.25L0 6.75A0.25 0.25 0 0 0 0.25 7L6.75 7A0.25 0.25 0 0 0 7 6.75L7 0.25A0.25 0.25 0 0 0 6.75 0L0.25 0A0.25 0.25 0 0 0 0 0.25ZM1 1.25L1 5.75A0.25 0.25 0 0 0 1.25 6L5.75 6A0.25 0.25 0 0 0 6 5.75L6 1.25A0.25 0.25 0 0 0 5.75 1L1.25 1A0.25 0.25 0 0 0 1 1.25ZM2 2.25L2 4.75A0.25 0.25 0 0 0 2.25 5L4.75 5A0.25 0.25 0 0 0 5 4.75L5 2.25A0.25 0.25 0 0 0 4.75 2L2.25 2A0.25 0.25 0 0 0 2 2.25ZM26 0.25L26 6.75A0.25 0.25 0 0 0 26.25 7L32.75 7A0.25 0.25 0 0 0 33 6.75L33 0.25A0.25 0.25 0 0 0 32.75 0L26.25 0A0.25 0.25 0 0 0 26 0.25ZM27 1.25L27 5.75A0.25 0.25 0 0 0 27.25 6L31.75 6A0.25 0.25 0 0 0 32 5.75L32 1.25A0.25 0.25 0 0 0 31.75 1L27.25 1A0.25 0.25 0 0 0 27 1.25ZM28 2.25L28 4.75A0.25 0.25 0 0 0 28.25 5L30.75 5A0.25 0.25 0 0 0 31 4.75L31 2.25A0.25 0.25 0 0 0 30.75 2L28.25 2A0.25 0.25 0 0 0 28 2.25ZM0 26.25L0 32.75A0.25 0.25 0 0 0 0.25 33L6.75 33A0.25 0.25 0 0 0 7 32.75L7 26.25A0.25 0.25 0 0 0 6.75 26L0.25 26A0.25 0.25 0 0 0 0 26.25ZM1 27.25L1 31.75A0.25 0.25 0 0 0 1.25 32L5.75 32A0.25 0.25 0 0 0 6 31.75L6 27.25A0.25 0.25 0 0 0 5.75 27L1.25 27A0.25 0.25 0 0 0 1 27.25ZM2 28.25L2 30.75A0.25 0.25 0 0 0 2.25 31L4.75 31A0.25 0.25 0 0 0 5 30.75L5 28.25A0.25 0.25 0 0 0 4.75 28L2.25 28A0.25 0.25 0 0 0 2 28.25Z" fill="#000000"/></g></g></svg>
