<?xml version="1.0" encoding="UTF-8"?>
<svg xmlns="http://www.w3.org/2000/svg" version="1.1" width="500" height="500" viewBox="0 0 500 500"><rect x="0" y="0" width="500" height="500" fill="#ffffff"/><g transform="scale(15.152)"><g transform="translate(0,0)"><path fill-rule="evenodd" d="M10 0.25L10 0.75A0.25 0.25 0 0 1 9.75 1L9.25 1A0.25 0.25 0 0 0 9 1.25L9 1.75A0.25 0.25 0 0 1 8.75 2L8.25 2A0.25 0.25 0 0 0 8 2.25L8 3.75A0.25 0.25 0 0 0 8.25 4L9.75 4A0.25 0.25 0 0 1 10 4.25L10 6.75A0.25 0.25 0 0 0 10.25 7L10.75 7A0.25 0.25 0 0 0 11 6.75L11 5.25A0.25 0.25 0 0 1 11.25 5L11.75 5A0.25 0.25 0 0 1 12 5.25L12 7.75A0.25 0.25 0 0 1 11.75 8L11.25 8A0.25 0.25 0 0 0 11 8.25L11 8.75A0.25 0.25 0 0 0 11.25 9L11.75 9A0.25 0.25 0 0 1 12 9.25L12 9.75A0.25 0.25 0 0 0 12.25 10L12.75 10A0.25 0.25 0 0 1 13 10.25L13 11.75A0.25 0.25 0 0 1 12.75 12L12.25 12A0.25 0.25 0 0 0 12 12.25L12 13.75A0.25 0.25 0 0 0 12.25 14L14.75 14A0.25 0.25 0 0 0 15 13.75L15 12.25A0.25 0.25 0 0 0 14.75 12L14.25 12A0.25 0.25 0 0 1 14 11.75L14 8.25A0.25 0.25 0 0 1 14.25 8L14.75 8A0.25 0.25 0 0 1 15 8.25L15 8.75A0.25 0.25 0 0 0 15.25 9L16.75 9A0.25 0.25 0 0 1 17 9.25L17 10.75A0.25 0.25 0 0 1 16.75 11L16.25 11A0.25 0.25 0 0 1 16 10.75L16 10.25A0.25 0.25 0 0 0 15.75 10L15.25 10A0.25 0.25 0 0 0 15 10.25L15 10.75A0.25 0.25 0 0 0 15.25 11L15.75 11A0.25 0.25 0 0 1 16 11.25L16 13.75A0.25 0.25 0 0 0 16.25 14L17.75 14A0.25 0.25 0 0 1 18 14.25L18 14.75A0.25 0.25 0 0 1 17.75 15L16.25 15A0.25 0.25 0 0 0 16 15.25L16 15.75A0.25 0.25 0 0 0 16.25 16L16.75 16A0.25 0.25 0 0 1 17 16.25L17 16.75A0.25 0.25 0 0 0 17.25 17L20.75 17A0.25 0.25 0 0 0 21 16.75L21 15.25A0.25 0.25 0 0 0 20.75 15L20.25 15A0.25 0.25 0 0 1 20 14.75L20 14.25A0.25 0.25 0 0 1 20.25 14L21.75 14A0.25 0.25 0 0 0 22 13.75L22 13.25A0.25 0.25 0 0 0 21.75 13L20.25 13A0.25 0.25 0 0 0 20 13.25L20 13.75A0.25 0.25 0 0 1 19.75 14L19.25 14A0.25 0.25 0 0 1 19 13.75L19 11.25A0.25 0.25 0 0 1 19.25 11L20.75 11A0.25 0.25 0 0 0 21 10.75L21 6.25A0.25 0.25 0 0 1 21.25 6L21.75 6A0.25 0.25 0 0 1 22 6.25L22 8.75A0.25 0.25 0 0 0 22.25 9L22.75 9A0.25 0.25 0 0 1 23 9.25L23 9.75A0.25 0.25 0 0 1 22.75 10L22.25 10A0.25 0.25 0 0 0 22 10.25L22 11.75A0.25 0.25 0 0 0 22.25 12L22.75 12A0.25 0.25 0 0 1 23 12.25L23 13.75A0.25 0.25 0 0 0 23.25 14L23.75 14A0.25 0.25 0 0 0 24 13.75L24 12.25A0.25 0.25 0 0 1 24.25 12L24.75 12A0.25 0.25 0 0 0 25 11.75L25 11.25A0.25 0.25 0 0 1 25.25 11L25.75 11A0.25 0.25 0 0 0 26 10.75L26 9.25A0.25 0.25 0 0 0 25.75 9L25.25 9A0.25 0.25 0 0 1 25 8.75L25 6.25A0.25 0.25 0 0 0 24.75 6L24.25 6A0.25 0.25 0 0 1 24 5.75L24 5.25A0.25 0.25 0 0 1 24.25 5L24.75 5A0.25 0.25 0 0 0 25 4.75L25 4.25A0.25 0.25 0 0 0 24.75 4L24.25 4A0.25 0.25 0 0 1 24 3.75L24 2.25A0.25 0.25 0 0 0 23.75 2L23.25 2A0.25 0.25 0 0 0 23 2.25L23 3.75A0.25 0.25 0 0 1 22.75 4L22.25 4A0.25 0.25 0 0 1 22 3.75L22 1.25A0.25 0.25 0 0 1 22.25 1L22.75 1A0.25 0.25 0 0 0 23 0.75L23 0.25A0.25 0.25 0 0 0 22.75 0L21.25 0A0.25 0.25 0 0 0 21 0.25L21 1.75A0.25 0.25 0 0 1 20.75 2L19.25 2A0.25 0.25 0 0 1 19 1.75L19 0.25A0.25 0.25 0 0 0 18.75 0L18.25 0A0.25 0.25 0 0 0 18 0.25L18 0.75A0.25 0.25 0 0 1 17.75 1L17.25 1A0.25 0.25 0 0 1 17 0.75L17 0.25A0.25 0.25 0 0 0 16.75 0L15.25 0A0.25 0.25 0 0 0 15 0.25L15 1.75A0.25 0.25 0 0 1 14.75 2L13.25 2A0.25 0.25 0 0 0 13 2.25L13 2.75A0.25 0.25 0 0 1 12.75 3L12.25 3A0.25 0.25 0 0 0 12 3.25L12 3.75A0.25 0.25 0 0 1 11.75 4L10.25 4A0.25 0.25 0 0 1 10 3.75L10 1.25A0.25 0.25 0 0 1 10.25 1L10.75 1A0.25 0.25 0 0 1 11 1.25L11 1.75A0.25 0.25 0 0 0 11.25 2L11.75 2A0.25 0.25 0 0 0 12 1.75L12 1.25A0.25 0.25 0 0 1 12.25 1L13.75 1A0.25 0.25 0 0 0 14 0.75L14 0.25A0.25 0.25 0 0 0 13.75 0L10.25 0A0.25 0.25 0 0 0 10 0.25ZM24 0.25L24 0.75A0.25 0.25 0 0 0 24.25 1L24.75 1A0.25 0.25 0 0 0 25 0.75L25 0.25A0.25 0.25 0 0 0 24.75 0L24.25 0A0.25 0.25 0 0 0 24 0.25ZM16 1.25L16 1.75A0.25 0.25 0 0 1 15.75 2L15.25 2A0.25 0.25 0 0 0 15 2.25L15 2.75A0.25 0.25 0 0 1 14.75 3L13.25 3A0.25 0.25 0 0 0 13 3.25L13 6.75A0.25 0.25 0 0 0 13.25 7L13.75 7A0.25 0.25 0 0 0 14 6.75L14 6.25A0.25 0.25 0 0 1 14.25 6L14.75 6A0.25 0.25 0 0 1 15 6.25L15 7.75A0.25 0.25 0 0 0 15.25 8L15.75 8A0.25 0.25 0 0 0 16 7.75L16 6.25A0.25 0.25 0 0 0 15.75 6L15.25 6A0.25 0.25 0 0 1 15 5.75L15 5.25A0.25 0.25 0 0 1 15.25 5L15.75 5A0.25 0.25 0 0 0 16 4.75L16 4.25A0.25 0.25 0 0 0 15.75 4L15.25 4A0.25 0.25 0 0 1 15 3.75L15 3.25A0.25 0.25 0 0 1 15.25 3L15.75 3A0.25 0.25 0 0 0 16 2.75L16 2.25A0.25 0.25 0 0 1 16.25 2L16.75 2A0.25 0.25 0 0 0 17 1.75L17 1.25A0.25 0.25 0 0 0 16.75 1L16.25 1A0.25 0.25 0 0 0 16 1.25ZM18 2.25L18 2.75A0.25 0.25 0 0 0 18.25 3L18.75 3A0.25 0.25 0 0 1 19 3.25L19 4.75A0.25 0.25 0 0 1 18.75 5L17.25 5A0.25 0.25 0 0 0 17 5.25L17 7.75A0.25 0.25 0 0 0 17.25 8L17.75 8A0.25 0.25 0 0 1 18 8.25L18 9.75A0.25 0.25 0 0 0 18.25 10L19.75 10A0.25 0.25 0 0 0 20 9.75L20 8.25A0.25 0.25 0 0 0 19.75 8L18.25 8A0.25 0.25 0 0 1 18 7.75L18 6.25A0.25 0.25 0 0 1 18.25 6L18.75 6A0.25 0.25 0 0 1 19 6.25L19 6.75A0.25 0.25 0 0 0 19.25 7L19.75 7A0.25 0.25 0 0 0 20 6.75L20 6.25A0.25 0.25 0 0 0 19.75 6L19.25 6A0.25 0.25 0 0 1 19 5.75L19 5.25A0.25 0.25 0 0 1 19.25 5L19.75 5A0.25 0.25 0 0 0 20 4.75L20 4.25A0.25 0.25 0 0 1 20.25 4L20.75 4A0.25 0.25 0 0 0 21 3.75L21 3.25A0.25 0.25 0 0 0 20.75 3L19.25 3A0.25 0.25 0 0 1 19 2.75L19 2.25A0.25 0.25 0 0 0 18.75 2L18.25 2A0.25 0.25 0 0 0 18 2.25ZM14 4.25L14 4.75A0.25 0.25 0 0 0 14.25 5L14.75 5A0.25 0.25 0 0 0 15 4.75L15 4.25A0.25 0.25 0 0 0 14.75 4L14.25 4A0.25 0.25 0 0 0 14 4.25ZM23 4.25L23 4.75A0.25 0.25 0 0 1 22.75 5L22.25 5A0.25 0.25 0 0 0 22 5.25L22 5.75A0.25 0.25 0 0 0 22.25 6L22.75 6A0.25 0.25 0 0 1 23 6.25L23 6.75A0.25 0.25 0 0 0 23.25 7L23.75 7A0.25 0.25 0 0 0 24 6.75L24 6.25A0.25 0.25 0 0 0 23.75 6L23.25 6A0.25 0.25 0 0 1 23 5.75L23 5.25A0.25 0.25 0 0 1 23.25 5L23.75 5A0.25 0.25 0 0 0 24 4.75L24 4.25A0.25 0.25 0 0 0 23.75 4L23.25 4A0.25 0.25 0 0 0 23 4.25ZM8 6.25L8 6.75A0.25 0.25 0 0 0 8.25 7L8.75 7A0.25 0.25 0 0 0 9 6.75L9 6.25A0.25 0.25 0 0 0 8.75 6L8.25 6A0.25 0.25 0 0 0 8 6.25ZM3 8.25L3 8.75A0.25 0.25 0 0 1 2.75 9L2.25 9A0.25 0.25 0 0 0 2 9.25L2 9.75A0.25 0.25 0 0 1 1.75 10L1.25 10A0.25 0.25 0 0 0 1 10.25L1 10.75A0.25 0.25 0 0 0 1.25 11L1.75 11A0.25 0.25 0 0 1 2 11.25L2 12.75A0.25 0.25 0 0 1 1.75 13L0.25 13A0.25 0.25 0 0 0 0 13.25L0 13.75A0.25 0.25 0 0 0 0.25 14L0.75 14A0.25 0.25 0 0 1 1 14.25L1 14.75A0.25 0.25 0 0 1 0.75 15L0.25 15A0.25 0.25 0 0 0 0 15.25L0 24.75A0.25 0.25 0 0 0 0.25 25L4.75 25A0.25 0.25 0 0 0 5 24.75L5 24.25A0.25 0.25 0 0 1 5.25 24L5.75 24A0.25 0.25 0 0 1 6 24.25L6 24.75A0.25 0.25 0 0 0 6.25 25L7.75 25A0.25 0.25 0 0 1 8 25.25L8 26.75A0.25 0.25 0 0 0 8.25 27L8.75 27A0.25 0.25 0 0 0 9 26.75L9 24.25A0.25 0.25 0 0 0 8.75 24L6.25 24A0.25 0.25 0 0 1 6 23.75L6 23.25A0.25 0.25 0 0 1 6.25 23L6.75 23A0.25 0.25 0 0 0 7 22.75L7 22.25A0.25 0.25 0 0 1 7.25 22L7.75 22A0.25 0.25 0 0 1 8 22.25L8 22.75A0.25 0.25 0 0 0 8.25 23L8.75 23A0.25 0.25 0 0 0 9 22.75L9 21.25A0.25 0.25 0 0 0 8.75 21L8.25 21A0.25 0.25 0 0 1 8 20.75L8 19.25A0.25 0.25 0 0 1 8.25 19L8.75 19A0.25 0.25 0 0 0 9 18.75L9 18.25A0.25 0.25 0 0 0 8.75 18L5.25 18A0.25 0.25 0 0 0 5 18.25L5 18.75A0.25 0.25 0 0 1 4.75 19L4.25 19A0.25 0.25 0 0 1 4 18.75L4 17.25A0.25 0.25 0 0 1 4.25 17L9.75 17A0.25 0.25 0 0 1 10 17.25L10 19.75A0.25 0.25 0 0 0 10.25 20L10.75 20A0.25 0.25 0 0 1 11 20.25L11 20.75A0.25 0.25 0 0 0 11.25 21L13.75 21A0.25 0.25 0 0 0 14 20.75L14 19.25A0.25 0.25 0 0 1 14.25 19L14.75 19A0.25 0.25 0 0 1 15 19.25L15 19.75A0.25 0.25 0 0 0 15.25 20L15.75 20A0.25 0.25 0 0 0 16 19.75L16 19.25A0.25 0.25 0 0 1 16.25 19L16.75 19A0.25 0.25 0 0 1 17 19.25L17 19.75A0.25 0.25 0 0 0 17.25 20L17.75 20A0.25 0.25 0 0 1 18 20.25L18 20.75A0.25 0.25 0 0 0 18.25 21L18.75 21A0.25 0.25 0 0 1 19 21.25L19 21.75A0.25 0.25 0 0 1 18.75 22L18.25 22A0.25 0.25 0 0 0 18 22.25L18 22.75A0.25 0.25 0 0 0 18.25 23L18.75 23A0.25 0.25 0 0 1 19 23.25L19 23.75A0.25 0.25 0 0 1 18.75 24L16.25 24A0.25 0.25 0 0 0 16 24.25L16 26.75A0.25 0.25 0 0 1 15.75 27L15.25 27A0.25 0.25 0 0 1 15 26.75L15 25.25A0.25 0.25 0 0 0 14.75 25L13.25 25A0.25 0.25 0 0 1 13 24.75L13 23.25A0.25 0.25 0 0 1 13.25 23L13.75 23A0.25 0.25 0 0 0 14 22.75L14 22.25A0.25 0.25 0 0 0 13.75 22L10.25 22A0.25 0.25 0 0 0 10 22.25L10 22.75A0.25 0.25 0 0 0 10.25 23L11.75 23A0.25 0.25 0 0 1 12 23.25L12 25.75A0.25 0.25 0 0 0 12.25 26L13.75 26A0.25 0.25 0 0 1 14 26.25L14 27.75A0.25 0.25 0 0 1 13.75 28L13.25 28A0.25 0.25 0 0 1 13 27.75L13 27.25A0.25 0.25 0 0 0 12.75 27L11.25 27A0.25 0.25 0 0 0 11 27.25L11 27.75A0.25 0.25 0 0 0 11.25 28L11.75 28A0.25 0.25 0 0 1 12 28.25L12 28.75A0.25 0.25 0 0 0 12.25 29L13.75 29A0.25 0.25 0 0 1 14 29.25L14 31.75A0.25 0.25 0 0 1 13.75 32L11.25 32A0.25 0.25 0 0 0 11 32.25L11 32.75A0.25 0.25 0 0 0 11.25 33L14.75 33A0.25 0.25 0 0 0 15 32.75L15 29.25A0.25 0.25 0 0 1 15.25 29L15.75 29A0.25 0.25 0 0 0 16 28.75L16 28.25A0.25 0.25 0 0 1 16.25 28L16.75 28A0.25 0.25 0 0 1 17 28.25L17 29.75A0.25 0.25 0 0 1 16.75 30L16.25 30A0.25 0.25 0 0 0 16 30.25L16 31.75A0.25 0.25 0 0 0 16.25 32L16.75 32A0.25 0.25 0 0 1 17 32.25L17 32.75A0.25 0.25 0 0 0 17.25 33L19.75 33A0.25 0.25 0 0 0 20 32.75L20 32.25A0.25 0.25 0 0 1 20.25 32L20.75 32A0.25 0.25 0 0 0 21 31.75L21 31.25A0.25 0.25 0 0 1 21.25 31L21.75 31A0.25 0.25 0 0 1 22 31.25L22 32.75A0.25 0.25 0 0 0 22.25 33L25.75 33A0.25 0.25 0 0 0 26 32.75L26 31.25A0.25 0.25 0 0 0 25.75 31L25.25 31A0.25 0.25 0 0 0 25 31.25L25 31.75A0.25 0.25 0 0 1 24.75 32L23.25 32A0.25 0.25 0 0 1 23 31.75L23 29.25A0.25 0.25 0 0 1 23.25 29L26.75 29A0.25 0.25 0 0 1 27 29.25L27 29.75A0.25 0.25 0 0 0 27.25 30L27.75 30A0.25 0.25 0 0 1 28 30.25L28 30.75A0.25 0.25 0 0 0 28.25 31L28.75 31A0.25 0.25 0 0 0 29 30.75L29 30.25A0.25 0.25 0 0 0 28.75 30L28.25 30A0.25 0.25 0 0 1 28 29.75L28 29.25A0.25 0.25 0 0 1 28.25 29L28.75 29A0.25 0.25 0 0 0 29 28.75L29 25.25A0.25 0.25 0 0 1 29.25 25L29.75 25A0.25 0.25 0 0 1 30 25.25L30 27.75A0.25 0.25 0 0 0 30.25 28L30.75 28A0.25 0.25 0 0 1 31 28.25L31 28.75A0.25 0.25 0 0 0 31.25 29L31.75 29A0.25 0.25 0 0 1 32 29.25L32 29.75A0.25 0.25 0 0 1 31.75 30L31.25 30A0.25 0.25 0 0 0 31 30.25L31 30.75A0.25 0.25 0 0 1 30.75 31L30.25 31A0.25 0.25 0 0 0 30 31.25L30 31.75A0.25 0.25 0 0 1 29.75 32L28.25 32A0.25 0.25 0 0 0 28 32.25L28 32.75A0.25 0.25 0 0 0 28.25 33L29.75 33A0.25 0.25 0 0 0 30 32.75L30 32.25A0.25 0.25 0 0 1 30.25 32L32.75 32A0.25 0.25 0 0 0 33 31.75L33 29.25A0.25 0.25 0 0 0 32.75 29L32.25 29A0.25 0.25 0 0 1 32 28.75L32 28.25A0.25 0.25 0 0 1 32.25 28L32.75 28A0.25 0.25 0 0 0 33 27.75L33 27.25A0.25 0.25 0 0 0 32.75 27L32.25 27A0.25 0.25 0 0 0 32 27.25L32 27.75A0.25 0.25 0 0 1 31.75 28L31.25 28A0.25 0.25 0 0 1 31 27.75L31 26.25A0.25 0.25 0 0 1 31.25 26L31.75 26A0.25 0.25 0 0 0 32 25.75L32 24.25A0.25 0.25 0 0 1 32.25 24L32.75 24A0.25 0.25 0 0 0 33 23.75L33 22.25A0.25 0.25 0 0 0 32.75 22L32.25 22A0.25 0.25 0 0 1 32 21.75L32 21.25A0.25 0.25 0 0 1 32.25 21L32.75 21A0.25 0.25 0 0 0 33 20.75L33 20.25A0.25 0.25 0 0 0 32.75 20L32.25 20A0.25 0.25 0 0 0 32 20.25L32 20.75A0.25 0.25 0 0 1 31.75 21L30.25 21A0.25 0.25 0 0 1 30 20.75L30 20.25A0.25 0.25 0 0 1 30.25 20L30.75 20A0.25 0.25 0 0 0 31 19.75L31 19.25A0.25 0.25 0 0 1 31.25 19L32.75 19A0.25 0.25 0 0 0 33 18.75L33 16.25A0.25 0.25 0 0 0 32.75 16L32.25 16A0.25 0.25 0 0 0 32 16.25L32 16.75A0.25 0.25 0 0 1 31.75 17L31.25 17A0.25 0.25 0 0 1 31 16.75L31 14.25A0.25 0.25 0 0 1 31.25 14L31.75 14A0.25 0.25 0 0 0 32 13.75L32 13.25A0.25 0.25 0 0 0 31.75 13L30.25 13A0.25 0.25 0 0 0 30 13.25L30 13.75A0.25 0.25 0 0 1 29.75 14L28.25 14A0.25 0.25 0 0 1 28 13.75L28 12.25A0.25 0.25 0 0 1 28.25 12L32.75 12A0.25 0.25 0 0 0 33 11.75L33 10.25A0.25 0.25 0 0 0 32.75 10L29.25 10A0.25 0.25 0 0 1 29 9.75L29 9.25A0.25 0.25 0 0 1 29.25 9L30.75 9A0.25 0.25 0 0 0 31 8.75L31 8.25A0.25 0.25 0 0 0 30.75 8L29.25 8A0.25 0.25 0 0 0 29 8.25L29 8.75A0.25 0.25 0 0 1 28.75 9L27.25 9A0.25 0.25 0 0 0 27 9.25L27 11.75A0.25 0.25 0 0 1 26.75 12L26.25 12A0.25 0.25 0 0 0 26 12.25L26 12.75A0.25 0.25 0 0 1 25.75 13L25.25 13A0.25 0.25 0 0 0 25 13.25L25 14.75A0.25 0.25 0 0 0 25.25 15L25.75 15A0.25 0.25 0 0 1 26 15.25L26 17.75A0.25 0.25 0 0 1 25.75 18L25.25 18A0.25 0.25 0 0 1 25 17.75L25 16.25A0.25 0.25 0 0 0 24.75 16L24.25 16A0.25 0.25 0 0 1 24 15.75L24 15.25A0.25 0.25 0 0 0 23.75 15L23.25 15A0.25 0.25 0 0 0 23 15.25L23 15.75A0.25 0.25 0 0 1 22.75 16L22.25 16A0.25 0.25 0 0 0 22 16.25L22 17.75A0.25 0.25 0 0 1 21.75 18L16.25 18A0.25 0.25 0 0 1 16 17.75L16 17.25A0.25 0.25 0 0 0 15.75 17L15.25 17A0.25 0.25 0 0 0 15 17.25L15 17.75A0.25 0.25 0 0 1 14.75 18L13.25 18A0.25 0.25 0 0 0 13 18.25L13 19.75A0.25 0.25 0 0 1 12.75 20L12.25 20A0.25 0.25 0 0 1 12 19.75L12 19.25A0.25 0.25 0 0 0 11.75 19L11.25 19A0.25 0.25 0 0 1 11 18.75L11 17.25A0.25 0.25 0 0 1 11.25 17L12.75 17A0.25 0.25 0 0 0 13 16.75L13 16.25A0.25 0.25 0 0 1 13.25 16L13.75 16A0.25 0.25 0 0 0 14 15.75L14 15.25A0.25 0.25 0 0 0 13.75 15L12.25 15A0.25 0.25 0 0 0 12 15.25L12 15.75A0.25 0.25 0 0 1 11.75 16L9.25 16A0.25 0.25 0 0 1 9 15.75L9 15.25A0.25 0.25 0 0 1 9.25 15L10.75 15A0.25 0.25 0 0 0 11 14.75L11 14.25A0.25 0.25 0 0 0 10.75 14L9.25 14A0.25 0.25 0 0 0 9 14.25L9 14.75A0.25 0.25 0 0 1 8.75 15L8.25 15A0.25 0.25 0 0 0 8 15.25L8 15.75A0.25 0.25 0 0 1 7.75 16L6.25 16A0.25 0.25 0 0 1 6 15.75L6 15.25A0.25 0.25 0 0 1 6.25 15L6.75 15A0.25 0.25 0 0 0 7 14.75L7 14.25A0.25 0.25 0 0 1 7.25 14L7.75 14A0.25 0.25 0 0 0 8 13.75L8 13.25A0.25 0.25 0 0 0 7.75 13L7.25 13A0.25 0.25 0 0 1 7 12.75L7 12.25A0.25 0.25 0 0 1 7.25 12L8.75 12A0.25 0.25 0 0 1 9 12.25L9 12.75A0.25 0.25 0 0 0 9.25 13L10.75 13A0.25 0.25 0 0 0 11 12.75L11 12.25A0.25 0.25 0 0 0 10.75 12L9.25 12A0.25 0.25 0 0 1 9 11.75L9 10.25A0.25 0.25 0 0 1 9.25 10L9.75 10A0.25 0.25 0 0 0 10 9.75L10 8.25A0.25 0.25 0 0 0 9.75 8L9.25 8A0.25 0.25 0 0 0 9 8.25L9 8.75A0.25 0.25 0 0 1 8.75 9L8.25 9A0.25 0.25 0 0 1 8 8.75L8 8.25A0.25 0.25 0 0 0 7.75 8L6.25 8A0.25 0.25 0 0 0 6 8.25L6 8.75A0.25 0.25 0 0 1 5.75 9L5.25 9A0.25 0.25 0 0 1 5 8.75L5 8.25A0.25 0.25 0 0 0 4.75 8L3.25 8A0.25 0.25 0 0 0 3 8.25ZM12 8.25L12 8.75A0.25 0.25 0 0 0 12.25 9L12.75 9A0.25 0.25 0 0 0 13 8.75L13 8.25A0.25 0.25 0 0 0 12.75 8L12.25 8A0.25 0.25 0 0 0 12 8.25ZM23 8.25L23 8.75A0.25 0.25 0 0 0 23.25 9L23.75 9A0.25 0.25 0 0 1 24 9.25L24 10.75A0.25 0.25 0 0 1 23.75 11L23.25 11A0.25 0.25 0 0 0 23 11.25L23 11.75A0.25 0.25 0 0 0 23.25 12L23.75 12A0.25 0.25 0 0 0 24 11.75L24 11.25A0.25 0.25 0 0 1 24.25 11L24.75 11A0.25 0.25 0 0 0 25 10.75L25 9.25A0.25 0.25 0 0 0 24.75 9L24.25 9A0.25 0.25 0 0 1 24 8.75L24 8.25A0.25 0.25 0 0 0 23.75 8L23.25 8A0.25 0.25 0 0 0 23 8.25ZM4 9.25L4 9.75A0.25 0.25 0 0 0 4.25 10L4.75 10A0.25 0.25 0 0 1 5 10.25L5 10.75A0.25 0.25 0 0 0 5.25 11L5.75 11A0.25 0.25 0 0 1 6 11.25L6 11.75A0.25 0.25 0 0 0 6.25 12L6.75 12A0.25 0.25 0 0 0 7 11.75L7 11.25A0.25 0.25 0 0 0 6.75 11L6.25 11A0.25 0.25 0 0 1 6 10.75L6 10.25A0.25 0.25 0 0 1 6.25 10L7.75 10A0.25 0.25 0 0 0 8 9.75L8 9.25A0.25 0.25 0 0 0 7.75 9L6.25 9A0.25 0.25 0 0 0 6 9.25L6 9.75A0.25 0.25 0 0 1 5.75 10L5.25 10A0.25 0.25 0 0 1 5 9.75L5 9.25A0.25 0.25 0 0 0 4.75 9L4.25 9A0.25 0.25 0 0 0 4 9.25ZM2 10.25L2 10.75A0.25 0.25 0 0 0 2.25 11L2.75 11A0.25 0.25 0 0 1 3 11.25L3 13.75A0.25 0.25 0 0 0 3.25 14L3.75 14A0.25 0.25 0 0 1 4 14.25L4 14.75A0.25 0.25 0 0 1 3.75 15L3.25 15A0.25 0.25 0 0 0 3 15.25L3 15.75A0.25 0.25 0 0 0 3.25 16L3.75 16A0.25 0.25 0 0 0 4 15.75L4 15.25A0.25 0.25 0 0 1 4.25 15L5.75 15A0.25 0.25 0 0 0 6 14.75L6 14.25A0.25 0.25 0 0 1 6.25 14L6.75 14A0.25 0.25 0 0 0 7 13.75L7 13.25A0.25 0.25 0 0 0 6.75 13L5.25 13A0.25 0.25 0 0 1 5 12.75L5 12.25A0.25 0.25 0 0 0 4.75 12L4.25 12A0.25 0.25 0 0 1 4 11.75L4 11.25A0.25 0.25 0 0 0 3.75 11L3.25 11A0.25 0.25 0 0 1 3 10.75L3 10.25A0.25 0.25 0 0 0 2.75 10L2.25 10A0.25 0.25 0 0 0 2 10.25ZM28 10.25L28 10.75A0.25 0.25 0 0 0 28.25 11L28.75 11A0.25 0.25 0 0 0 29 10.75L29 10.25A0.25 0.25 0 0 0 28.75 10L28.25 10A0.25 0.25 0 0 0 28 10.25ZM17 11.25L17 11.75A0.25 0.25 0 0 0 17.25 12L17.75 12A0.25 0.25 0 0 0 18 11.75L18 11.25A0.25 0.25 0 0 0 17.75 11L17.25 11A0.25 0.25 0 0 0 17 11.25ZM13 12.25L13 12.75A0.25 0.25 0 0 0 13.25 13L13.75 13A0.25 0.25 0 0 0 14 12.75L14 12.25A0.25 0.25 0 0 0 13.75 12L13.25 12A0.25 0.25 0 0 0 13 12.25ZM4 13.25L4 13.75A0.25 0.25 0 0 0 4.25 14L4.75 14A0.25 0.25 0 0 0 5 13.75L5 13.25A0.25 0.25 0 0 0 4.75 13L4.25 13A0.25 0.25 0 0 0 4 13.25ZM26 13.25L26 14.75A0.25 0.25 0 0 0 26.25 15L26.75 15A0.25 0.25 0 0 1 27 15.25L27 17.75A0.25 0.25 0 0 1 26.75 18L26.25 18A0.25 0.25 0 0 0 26 18.25L26 18.75A0.25 0.25 0 0 1 25.75 19L25.25 19A0.25 0.25 0 0 0 25 19.25L25 19.75A0.25 0.25 0 0 0 25.25 20L25.75 20A0.25 0.25 0 0 1 26 20.25L26 21.75A0.25 0.25 0 0 1 25.75 22L25.25 22A0.25 0.25 0 0 1 25 21.75L25 21.25A0.25 0.25 0 0 0 24.75 21L24.25 21A0.25 0.25 0 0 0 24 21.25L24 21.75A0.25 0.25 0 0 0 24.25 22L24.75 22A0.25 0.25 0 0 1 25 22.25L25 22.75A0.25 0.25 0 0 1 24.75 23L24.25 23A0.25 0.25 0 0 0 24 23.25L24 23.75A0.25 0.25 0 0 0 24.25 24L27.75 24A0.25 0.25 0 0 0 28 23.75L28 23.25A0.25 0.25 0 0 1 28.25 23L28.75 23A0.25 0.25 0 0 1 29 23.25L29 23.75A0.25 0.25 0 0 0 29.25 24L29.75 24A0.25 0.25 0 0 1 30 24.25L30 24.75A0.25 0.25 0 0 0 30.25 25L30.75 25A0.25 0.25 0 0 0 31 24.75L31 24.25A0.25 0.25 0 0 1 31.25 24L31.75 24A0.25 0.25 0 0 0 32 23.75L32 22.25A0.25 0.25 0 0 0 31.75 22L30.25 22A0.25 0.25 0 0 1 30 21.75L30 21.25A0.25 0.25 0 0 0 29.75 21L29.25 21A0.25 0.25 0 0 1 29 20.75L29 19.25A0.25 0.25 0 0 0 28.75 19L27.25 19A0.25 0.25 0 0 1 27 18.75L27 18.25A0.25 0.25 0 0 1 27.25 18L27.75 18A0.25 0.25 0 0 0 28 17.75L28 15.25A0.25 0.25 0 0 0 27.75 15L27.25 15A0.25 0.25 0 0 1 27 14.75L27 13.25A0.25 0.25 0 0 0 26.75 13L26.25 13A0.25 0.25 0 0 0 26 13.25ZM18 15.25L18 15.75A0.25 0.25 0 0 0 18.25 16L18.75 16A0.25 0.25 0 0 0 19 15.75L19 15.25A0.25 0.25 0 0 0 18.75 15L18.25 15A0.25 0.25 0 0 0 18 15.25ZM1 16.25L1 17.75A0.25 0.25 0 0 0 1.25 18L2.75 18A0.25 0.25 0 0 0 3 17.75L3 17.25A0.25 0.25 0 0 0 2.75 17L2.25 17A0.25 0.25 0 0 1 2 16.75L2 16.25A0.25 0.25 0 0 0 1.75 16L1.25 16A0.25 0.25 0 0 0 1 16.25ZM23 16.25L23 17.75A0.25 0.25 0 0 1 22.75 18L22.25 18A0.25 0.25 0 0 0 22 18.25L22 18.75A0.25 0.25 0 0 1 21.75 19L21.25 19A0.25 0.25 0 0 0 21 19.25L21 20.75A0.25 0.25 0 0 1 20.75 21L20.25 21A0.25 0.25 0 0 0 20 21.25L20 21.75A0.25 0.25 0 0 0 20.25 22L22.75 22A0.25 0.25 0 0 0 23 21.75L23 21.25A0.25 0.25 0 0 0 22.75 21L22.25 21A0.25 0.25 0 0 1 22 20.75L22 20.25A0.25 0.25 0 0 1 22.25 20L22.75 20A0.25 0.25 0 0 0 23 19.75L23 18.25A0.25 0.25 0 0 1 23.25 18L23.75 18A0.25 0.25 0 0 0 24 17.75L24 16.25A0.25 0.25 0 0 0 23.75 16L23.25 16A0.25 0.25 0 0 0 23 16.25ZM30 17.25L30 17.75A0.25 0.25 0 0 0 30.25 18L30.75 18A0.25 0.25 0 0 0 31 17.75L31 17.25A0.25 0.25 0 0 0 30.75 17L30.25 17A0.25 0.25 0 0 0 30 17.25ZM1 19.25L1 20.75A0.25 0.25 0 0 0 1.25 21L1.75 21A0.25 0.25 0 0 1 2 21.25L2 21.75A0.25 0.25 0 0 1 1.75 22L1.25 22A0.25 0.25 0 0 0 1 22.25L1 23.75A0.25 0.25 0 0 0 1.25 24L1.75 24A0.25 0.25 0 0 0 2 23.75L2 23.25A0.25 0.25 0 0 1 2.25 23L2.75 23A0.25 0.25 0 0 1 3 23.25L3 23.75A0.25 0.25 0 0 0 3.25 24L4.75 24A0.25 0.25 0 0 0 5 23.75L5 23.25A0.25 0.25 0 0 1 5.25 23L5.75 23A0.25 0.25 0 0 0 6 22.75L6 22.25A0.25 0.25 0 0 1 6.25 22L6.75 22A0.25 0.25 0 0 0 7 21.75L7 21.25A0.25 0.25 0 0 0 6.75 21L6.25 21A0.25 0.25 0 0 1 6 20.75L6 20.25A0.25 0.25 0 0 1 6.25 20L6.75 20A0.25 0.25 0 0 0 7 19.75L7 19.25A0.25 0.25 0 0 0 6.75 19L5.25 19A0.25 0.25 0 0 0 5 19.25L5 20.75A0.25 0.25 0 0 1 4.75 21L4.25 21A0.25 0.25 0 0 1 4 20.75L4 20.25A0.25 0.25 0 0 0 3.75 20L3.25 20A0.25 0.25 0 0 0 3 20.25L3 20.75A0.25 0.25 0 0 1 2.75 21L2.25 21A0.25 0.25 0 0 1 2 20.75L2 19.25A0.25 0.25 0 0 0 1.75 19L1.25 19A0.25 0.25 0 0 0 1 19.25ZM18 19.25L18 19.75A0.25 0.25 0 0 0 18.25 20L18.75 20A0.25 0.25 0 0 0 19 19.75L19 19.25A0.25 0.25 0 0 0 18.75 19L18.25 19A0.25 0.25 0 0 0 18 19.25ZM26 19.25L26 19.75A0.25 0.25 0 0 0 26.25 20L26.75 20A0.25 0.25 0 0 1 27 20.25L27 21.75A0.25 0.25 0 0 1 26.75 22L26.25 22A0.25 0.25 0 0 0 26 22.25L26 22.75A0.25 0.25 0 0 0 26.25 23L26.75 23A0.25 0.25 0 0 0 27 22.75L27 22.25A0.25 0.25 0 0 1 27.25 22L28.75 22A0.25 0.25 0 0 0 29 21.75L29 21.25A0.25 0.25 0 0 0 28.75 21L28.25 21A0.25 0.25 0 0 1 28 20.75L28 20.25A0.25 0.25 0 0 0 27.75 20L27.25 20A0.25 0.25 0 0 1 27 19.75L27 19.25A0.25 0.25 0 0 0 26.75 19L26.25 19A0.25 0.25 0 0 0 26 19.25ZM16 21.25L16 21.75A0.25 0.25 0 0 1 15.75 22L15.25 22A0.25 0.25 0 0 0 15 22.25L15 22.75A0.25 0.25 0 0 0 15.25 23L15.75 23A0.25 0.25 0 0 0 16 22.75L16 22.25A0.25 0.25 0 0 1 16.25 22L16.75 22A0.25 0.25 0 0 0 17 21.75L17 21.25A0.25 0.25 0 0 0 16.75 21L16.25 21A0.25 0.25 0 0 0 16 21.25ZM3 22.25L3 22.75A0.25 0.25 0 0 0 3.25 23L3.75 23A0.25 0.25 0 0 0 4 22.75L4 22.25A0.25 0.25 0 0 0 3.75 22L3.25 22A0.25 0.25 0 0 0 3 22.25ZM21 23.25L21 23.75A0.25 0.25 0 0 1 20.75 24L20.25 24A0.25 0.25 0 0 0 20 24.25L20 24.75A0.25 0.25 0 0 0 20.25 25L20.75 25A0.25 0.25 0 0 1 21 25.25L21 25.75A0.25 0.25 0 0 1 20.75 26L20.25 26A0.25 0.25 0 0 0 20 26.25L20 27.75A0.25 0.25 0 0 1 19.75 28L19.25 28A0.25 0.25 0 0 0 19 28.25L19 28.75A0.25 0.25 0 0 1 18.75 29L18.25 29A0.25 0.25 0 0 0 18 29.25L18 29.75A0.25 0.25 0 0 0 18.25 30L19.75 30A0.25 0.25 0 0 0 20 29.75L20 29.25A0.25 0.25 0 0 1 20.25 29L20.75 29A0.25 0.25 0 0 1 21 29.25L21 29.75A0.25 0.25 0 0 0 21.25 30L21.75 30A0.25 0.25 0 0 0 22 29.75L22 29.25A0.25 0.25 0 0 1 22.25 29L22.75 29A0.25 0.25 0 0 0 23 28.75L23 28.25A0.25 0.25 0 0 1 23.25 28L23.75 28A0.25 0.25 0 0 0 24 27.75L24 27.25A0.25 0.25 0 0 0 23.75 27L23.25 27A0.25 0.25 0 0 1 23 26.75L23 23.25A0.25 0.25 0 0 0 22.75 23L21.25 23A0.25 0.25 0 0 0 21 23.25ZM30 23.25L30 23.75A0.25 0.25 0 0 0 30.25 24L30.75 24A0.25 0.25 0 0 0 31 23.75L31 23.25A0.25 0.25 0 0 0 30.75 23L30.25 23A0.25 0.25 0 0 0 30 23.25ZM10 24.25L10 24.75A0.25 0.25 0 0 0 10.25 25L10.75 25A0.25 0.25 0 0 0 11 24.75L11 24.25A0.25 0.25 0 0 0 10.75 24L10.25 24A0.25 0.25 0 0 0 10 24.25ZM21 24.25L21 24.75A0.25 0.25 0 0 0 21.25 25L21.75 25A0.25 0.25 0 0 0 22 24.75L22 24.25A0.25 0.25 0 0 0 21.75 24L21.25 24A0.25 0.25 0 0 0 21 24.25ZM17 25.25L17 25.75A0.25 0.25 0 0 0 17.25 26L17.75 26A0.25 0.25 0 0 1 18 26.25L18 26.75A0.25 0.25 0 0 0 18.25 27L18.75 27A0.25 0.25 0 0 0 19 26.75L19 25.25A0.25 0.25 0 0 0 18.75 25L17.25 25A0.25 0.25 0 0 0 17 25.25ZM25 25.25L25 27.75A0.25 0.25 0 0 0 25.25 28L27.75 28A0.25 0.25 0 0 0 28 27.75L28 25.25A0.25 0.25 0 0 0 27.75 25L25.25 25A0.25 0.25 0 0 0 25 25.25ZM21 26.25L21 26.75A0.25 0.25 0 0 0 21.25 27L21.75 27A0.25 0.25 0 0 0 22 26.75L22 26.25A0.25 0.25 0 0 0 21.75 26L21.25 26A0.25 0.25 0 0 0 21 26.25ZM26 26.25L26 26.75A0.25 0.25 0 0 0 26.25 27L26.75 27A0.25 0.25 0 0 0 27 26.75L27 26.25A0.25 0.25 0 0 0 26.75 26L26.25 26A0.25 0.25 0 0 0 26 26.25ZM8 28.25L8 29.75A0.25 0.25 0 0 0 8.25 30L8.75 30A0.25 0.25 0 0 0 9 29.75L9 28.25A0.25 0.25 0 0 0 8.75 28L8.25 28A0.25 0.25 0 0 0 8 28.25ZM14 28.25L14 28.75A0.25 0.25 0 0 0 14.25 29L14.75 29A0.25 0.25 0 0 0 15 28.75L15 28.25A0.25 0.25 0 0 0 14.75 28L14.25 28A0.25 0.25 0 0 0 14 28.25ZM21 28.25L21 28.75A0.25 0.25 0 0 0 21.25 29L21.75 29A0.25 0.25 0 0 0 22 28.75L22 28.25A0.25 0.25 0 0 0 21.75 28L21.25 28A0.25 0.25 0 0 0 21 28.25ZM10 29.25L10 30.75A0.25 0.25 0 0 0 10.25 31L11.75 31A0.25 0.25 0 0 0 12 30.75L12 30.25A0.25 0.25 0 0 0 11.75 30L11.25 30A0.25 0.25 0 0 1 11 29.75L11 29.25A0.25 0.25 0 0 0 10.75 29L10.25 29A0.25 0.25 0 0 0 10 29.25ZM17 31.25L17 31.75A0.25 0.25 0 0 0 17.25 32L18.75 32A0.25 0.25 0 0 0 19 31.75L19 31.25A0.25 0.25 0 0 0 18.75 31L17.25 31A0.25 0.25 0 0 0 17 31.25ZM9 32.25L9 32.75A0.25 0.25 0 0 0 9.25 33L9.75 33A0.25 0.25 0 0 0 10 32.75L10 32.25A0.25 0.25 0 0 0 9.75 32L9.25 32A0.25 0.25 0 0 0 9 32.25ZM0 0.25L0 6.75A0.25 0.25 0 0 0 0.25 7L6.75 7A0.25 0.25 0 0 0 7 6.75L7 0.25A0.25 0.25 0 0 0 6.75 0L0.25 0A0.25 0.25 0 0 0 0 0.25ZM1 1.25L1 5.75A0.25 0.25 0 0 0 1.25 6L5.75 6A0.25 0.25 0 0 0 6 5.75L6 1.25A0.25 0.25 0 0 0 5.75 1L1.25 1A0.25 0.25 0 0 0 1 1.25ZM2 2.25L2 4.75A0.25 0.25 0 0 0 2.25 5L4.75 5A0.25 0.25 0 0 0 5 4.75L5 2.25A0.25 0.25 0 0 0 4.75 2L2.25 2A0.25 0.25 0 0 0 2 2.25ZM26 0.25L26 6.75A0.25 0.25 0 0 0 26.25 7L32.75 7A0.25 0.25 0 0 0 33 6.75L33 0.25A0.25 0.25 0 0 0 32.75 0L26.25 0A0.25 0.25 0 0 0 26 0.25ZM27 1.25L27 5.75A0.25 0.25 0 0 0 27.25 6L31.75 6A0.25 0.25 0 0 0 32 5.75L32 1.25A0.25 0.25 0 0 0 31.75 1L27.25 1A0.25 0.25 0 0 0 27 1.25ZM28 2.25L28 4.75A0.25 0.25 0 0 0 28.25 5L30.75 5A0.25 0.25 0 0 0 31 4.75L31 2.25A0.25 0.25 0 0 0 30.75 2L28.25 2A0.25 0.25 0 0 0 28 2.25ZM0 26.25L0 32.75A0.25 0.25 0 0 0 0.25 33L6.75 33A0.25 0.25 0 0 0 7 32.75L7 26.25A0.25 0.25 0 0 0 6.75 26L0.25 26A0.25 0.25 0 0 0 0 26.25ZM1 27.25L1 31.75A0.25 0.25 0 0 0 1.25 32L5.75 32A0.25 0.25 0 0 0 6 31.75L6 27.25A0.25 0.25 0 0 0 5.75 27L1.25 27A0.25 0.25 0 0 0 1 27.25ZM2 28.25L2 30.75A0.25 0.25 0 0 0 2.25 31L4.75 31A0.25 0.25 0 0 0 5 30.75L5 28.25A0.25 0.25 0 0 0 4.75 28L2.25 28A0.25 0.25 0 0 0 2 28.25Z" fill="#000000"/></g></g></svg>
