<?xml version="1.0" encoding="UTF-8"?>
<svg xmlns="http://www.w3.org/2000/svg" version="1.1" width="500" height="500" viewBox="0 0 500 500"><rect x="0" y="0" width="500" height="500" fill="#ffffff"/><g transform="scale(13.514)"><g transform="translate(0,0)"><path fill-rule="evenodd" d="M8 0.25L8 0.75A0.25 0.25 0 0 0 8.25 1L11.75 1A0.25 0.25 0 0 0 12 0.75L12 0.25A0.25 0.25 0 0 0 11.75 0L8.25 0A0.25 0.25 0 0 0 8 0.25ZM14 0.25L14 1.75A0.25 0.25 0 0 1 13.75 2L12.25 2A0.25 0.25 0 0 0 12 2.25L12 2.75A0.25 0.25 0 0 1 11.75 3L10.25 3A0.25 0.25 0 0 0 10 3.25L10 3.75A0.25 0.25 0 0 1 9.75 4L8.25 4A0.25 0.25 0 0 0 8 4.25L8 4.75A0.25 0.25 0 0 0 8.25 5L8.75 5A0.25 0.25 0 0 1 9 5.25L9 5.75A0.25 0.25 0 0 1 8.75 6L8.25 6A0.25 0.25 0 0 0 8 6.25L8 7.75A0.25 0.25 0 0 0 8.25 8L8.75 8A0.25 0.25 0 0 0 9 7.75L9 6.25A0.25 0.25 0 0 1 9.25 6L9.75 6A0.25 0.25 0 0 1 10 6.25L10 6.75A0.25 0.25 0 0 0 10.25 7L10.75 7A0.25 0.25 0 0 1 11 7.25L11 7.75A0.25 0.25 0 0 1 10.75 8L10.25 8A0.25 0.25 0 0 0 10 8.25L10 8.75A0.25 0.25 0 0 0 10.25 9L10.75 9A0.25 0.25 0 0 1 11 9.25L11 10.75A0.25 0.25 0 0 1 10.75 11L10.25 11A0.25 0.25 0 0 0 10 11.25L10 11.75A0.25 0.25 0 0 1 9.75 12L9.25 12A0.25 0.25 0 0 1 9 11.75L9 11.25A0.25 0.25 0 0 0 8.75 11L8.25 11A0.25 0.25 0 0 0 8 11.25L8 11.75A0.25 0.25 0 0 1 7.75 12L5.25 12A0.25 0.25 0 0 1 5 11.75L5 11.25A0.25 0.25 0 0 1 5.25 11L6.75 11A0.25 0.25 0 0 0 7 10.75L7 10.25A0.25 0.25 0 0 0 6.75 10L6.25 10A0.25 0.25 0 0 1 6 9.75L6 9.25A0.25 0.25 0 0 1 6.25 9L6.75 9A0.25 0.25 0 0 0 7 8.75L7 8.25A0.25 0.25 0 0 0 6.75 8L5.25 8A0.25 0.25 0 0 0 5 8.25L5 8.75A0.25 0.25 0 0 1 4.75 9L2.25 9A0.25 0.25 0 0 0 2 9.25L2 9.75A0.25 0.25 0 0 0 2.25 10L2.75 10A0.25 0.25 0 0 1 3 10.25L3 10.75A0.25 0.25 0 0 0 3.25 11L3.75 11A0.25 0.25 0 0 1 4 11.25L4 12.75A0.25 0.25 0 0 1 3.75 13L3.25 13A0.25 0.25 0 0 1 3 12.75L3 12.25A0.25 0.25 0 0 0 2.75 12L2.25 12A0.25 0.25 0 0 1 2 11.75L2 11.25A0.25 0.25 0 0 0 1.75 11L1.25 11A0.25 0.25 0 0 1 1 10.75L1 10.25A0.25 0.25 0 0 0 0.75 10L0.25 10A0.25 0.25 0 0 0 0 10.25L0 14.75A0.25 0.25 0 0 0 0.25 15L0.75 15A0.25 0.25 0 0 1 1 15.25L1 15.75A0.25 0.25 0 0 0 1.25 16L1.75 16A0.25 0.25 0 0 0 2 15.75L2 15.25A0.25 0.25 0 0 1 2.25 15L2.75 15A0.25 0.25 0 0 1 3 15.25L3 15.75A0.25 0.25 0 0 0 3.25 16L3.75 16A0.25 0.25 0 0 1 4 16.25L4 16.75A0.25 0.25 0 0 1 3.75 17L3.25 17A0.25 0.25 0 0 0 3 17.25L3 17.75A0.25 0.25 0 0 1 2.75 18L2.25 18A0.25 0.25 0 0 1 2 17.75L2 17.25A0.25 0.25 0 0 0 1.75 17L1.25 17A0.25 0.25 0 0 0 1 17.25L1 18.75A0.25 0.25 0 0 1 0.75 19L0.25 19A0.25 0.25 0 0 0 0 19.25L0 20.75A0.25 0.25 0 0 0 0.25 21L0.75 21A0.25 0.25 0 0 0 1 20.75L1 20.25A0.25 0.25 0 0 1 1.25 20L2.75 20A0.25 0.25 0 0 0 3 19.75L3 19.25A0.25 0.25 0 0 1 3.25 19L4.75 19A0.25 0.25 0 0 0 5 18.75L5 18.25A0.25 0.25 0 0 1 5.25 18L5.75 18A0.25 0.25 0 0 1 6 18.25L6 18.75A0.25 0.25 0 0 0 6.25 19L7.75 19A0.25 0.25 0 0 0 8 18.75L8 18.25A0.25 0.25 0 0 1 8.25 18L8.75 18A0.25 0.25 0 0 0 9 17.75L9 17.25A0.25 0.25 0 0 0 8.75 17L8.25 17A0.25 0.25 0 0 1 8 16.75L8 16.25A0.25 0.25 0 0 0 7.75 16L6.25 16A0.25 0.25 0 0 0 6 16.25L6 16.75A0.25 0.25 0 0 1 5.75 17L5.25 17A0.25 0.25 0 0 1 5 16.75L5 14.25A0.25 0.25 0 0 0 4.75 14L4.25 14A0.25 0.25 0 0 1 4 13.75L4 13.25A0.25 0.25 0 0 1 4.25 13L7.75 13A0.25 0.25 0 0 1 8 13.25L8 14.75A0.25 0.25 0 0 0 8.25 15L9.75 15A0.25 0.25 0 0 0 10 14.75L10 13.25A0.25 0.25 0 0 1 10.25 13L11.75 13A0.25 0.25 0 0 1 12 13.25L12 13.75A0.25 0.25 0 0 1 11.75 14L11.25 14A0.25 0.25 0 0 0 11 14.25L11 14.75A0.25 0.25 0 0 0 11.25 15L11.75 15A0.25 0.25 0 0 0 12 14.75L12 14.25A0.25 0.25 0 0 1 12.25 14L14.75 14A0.25 0.25 0 0 1 15 14.25L15 14.75A0.25 0.25 0 0 1 14.75 15L14.25 15A0.25 0.25 0 0 0 14 15.25L14 15.75A0.25 0.25 0 0 1 13.75 16L12.25 16A0.25 0.25 0 0 0 12 16.25L12 17.75A0.25 0.25 0 0 0 12.25 18L12.75 18A0.25 0.25 0 0 1 13 18.25L13 19.75A0.25 0.25 0 0 1 12.75 20L11.25 20A0.25 0.25 0 0 1 11 19.75L11 16.25A0.25 0.25 0 0 0 10.75 16L10.25 16A0.25 0.25 0 0 0 10 16.25L10 18.75A0.25 0.25 0 0 1 9.75 19L9.25 19A0.25 0.25 0 0 0 9 19.25L9 19.75A0.25 0.25 0 0 1 8.75 20L6.25 20A0.25 0.25 0 0 0 6 20.25L6 20.75A0.25 0.25 0 0 1 5.75 21L5.25 21A0.25 0.25 0 0 1 5 20.75L5 20.25A0.25 0.25 0 0 0 4.75 20L4.25 20A0.25 0.25 0 0 0 4 20.25L4 20.75A0.25 0.25 0 0 0 4.25 21L4.75 21A0.25 0.25 0 0 1 5 21.25L5 22.75A0.25 0.25 0 0 1 4.75 23L4.25 23A0.25 0.25 0 0 1 4 22.75L4 22.25A0.25 0.25 0 0 0 3.75 22L2.25 22A0.25 0.25 0 0 0 2 22.25L2 22.75A0.25 0.25 0 0 1 1.75 23L0.25 23A0.25 0.25 0 0 0 0 23.25L0 23.75A0.25 0.25 0 0 0 0.25 24L1.75 24A0.25 0.25 0 0 1 2 24.25L2 24.75A0.25 0.25 0 0 1 1.75 25L0.25 25A0.25 0.25 0 0 0 0 25.25L0 28.75A0.25 0.25 0 0 0 0.25 29L0.75 29A0.25 0.25 0 0 0 1 28.75L1 26.25A0.25 0.25 0 0 1 1.25 26L2.75 26A0.25 0.25 0 0 1 3 26.25L3 26.75A0.25 0.25 0 0 1 2.75 27L2.25 27A0.25 0.25 0 0 0 2 27.25L2 27.75A0.25 0.25 0 0 0 2.25 28L2.75 28A0.25 0.25 0 0 1 3 28.25L3 28.75A0.25 0.25 0 0 0 3.25 29L3.75 29A0.25 0.25 0 0 0 4 28.75L4 28.25A0.25 0.25 0 0 0 3.75 28L3.25 28A0.25 0.25 0 0 1 3 27.75L3 27.25A0.25 0.25 0 0 1 3.25 27L4.75 27A0.25 0.25 0 0 1 5 27.25L5 27.75A0.25 0.25 0 0 0 5.25 28L5.75 28A0.25 0.25 0 0 1 6 28.25L6 28.75A0.25 0.25 0 0 0 6.25 29L6.75 29A0.25 0.25 0 0 0 7 28.75L7 28.25A0.25 0.25 0 0 1 7.25 28L7.75 28A0.25 0.25 0 0 0 8 27.75L8 27.25A0.25 0.25 0 0 0 7.75 27L7.25 27A0.25 0.25 0 0 1 7 26.75L7 26.25A0.25 0.25 0 0 0 6.75 26L5.25 26A0.25 0.25 0 0 1 5 25.75L5 25.25A0.25 0.25 0 0 1 5.25 25L6.75 25A0.25 0.25 0 0 0 7 24.75L7 24.25A0.25 0.25 0 0 1 7.25 24L7.75 24A0.25 0.25 0 0 0 8 23.75L8 23.25A0.25 0.25 0 0 1 8.25 23L8.75 23A0.25 0.25 0 0 0 9 22.75L9 20.25A0.25 0.25 0 0 1 9.25 20L9.75 20A0.25 0.25 0 0 1 10 20.25L10 24.75A0.25 0.25 0 0 0 10.25 25L10.75 25A0.25 0.25 0 0 1 11 25.25L11 26.75A0.25 0.25 0 0 1 10.75 27L10.25 27A0.25 0.25 0 0 0 10 27.25L10 27.75A0.25 0.25 0 0 1 9.75 28L9.25 28A0.25 0.25 0 0 0 9 28.25L9 28.75A0.25 0.25 0 0 1 8.75 29L8.25 29A0.25 0.25 0 0 0 8 29.25L8 29.75A0.25 0.25 0 0 0 8.25 30L9.75 30A0.25 0.25 0 0 0 10 29.75L10 29.25A0.25 0.25 0 0 1 10.25 29L10.75 29A0.25 0.25 0 0 0 11 28.75L11 27.25A0.25 0.25 0 0 1 11.25 27L13.75 27A0.25 0.25 0 0 1 14 27.25L14 27.75A0.25 0.25 0 0 1 13.75 28L13.25 28A0.25 0.25 0 0 0 13 28.25L13 28.75A0.25 0.25 0 0 1 12.75 29L12.25 29A0.25 0.25 0 0 0 12 29.25L12 29.75A0.25 0.25 0 0 1 11.75 30L11.25 30A0.25 0.25 0 0 0 11 30.25L11 30.75A0.25 0.25 0 0 1 10.75 31L10.25 31A0.25 0.25 0 0 0 10 31.25L10 31.75A0.25 0.25 0 0 1 9.75 32L9.25 32A0.25 0.25 0 0 1 9 31.75L9 31.25A0.25 0.25 0 0 0 8.75 31L8.25 31A0.25 0.25 0 0 0 8 31.25L8 31.75A0.25 0.25 0 0 0 8.25 32L8.75 32A0.25 0.25 0 0 1 9 32.25L9 34.75A0.25 0.25 0 0 0 9.25 35L9.75 35A0.25 0.25 0 0 0 10 34.75L10 34.25A0.25 0.25 0 0 1 10.25 34L10.75 34A0.25 0.25 0 0 1 11 34.25L11 35.75A0.25 0.25 0 0 1 10.75 36L10.25 36A0.25 0.25 0 0 0 10 36.25L10 36.75A0.25 0.25 0 0 0 10.25 37L10.75 37A0.25 0.25 0 0 0 11 36.75L11 36.25A0.25 0.25 0 0 1 11.25 36L11.75 36A0.25 0.25 0 0 1 12 36.25L12 36.75A0.25 0.25 0 0 0 12.25 37L12.75 37A0.25 0.25 0 0 0 13 36.75L13 36.25A0.25 0.25 0 0 1 13.25 36L14.75 36A0.25 0.25 0 0 1 15 36.25L15 36.75A0.25 0.25 0 0 0 15.25 37L15.75 37A0.25 0.25 0 0 0 16 36.75L16 36.25A0.25 0.25 0 0 0 15.75 36L15.25 36A0.25 0.25 0 0 1 15 35.75L15 35.25A0.25 0.25 0 0 1 15.25 35L15.75 35A0.25 0.25 0 0 0 16 34.75L16 34.25A0.25 0.25 0 0 0 15.75 34L15.25 34A0.25 0.25 0 0 1 15 33.75L15 32.25A0.25 0.25 0 0 1 15.25 32L15.75 32A0.25 0.25 0 0 1 16 32.25L16 32.75A0.25 0.25 0 0 0 16.25 33L16.75 33A0.25 0.25 0 0 1 17 33.25L17 35.75A0.25 0.25 0 0 0 17.25 36L17.75 36A0.25 0.25 0 0 1 18 36.25L18 36.75A0.25 0.25 0 0 0 18.25 37L21.75 37A0.25 0.25 0 0 0 22 36.75L22 36.25A0.25 0.25 0 0 1 22.25 36L23.75 36A0.25 0.25 0 0 0 24 35.75L24 35.25A0.25 0.25 0 0 1 24.25 35L24.75 35A0.25 0.25 0 0 0 25 34.75L25 34.25A0.25 0.25 0 0 1 25.25 34L25.75 34A0.25 0.25 0 0 1 26 34.25L26 35.75A0.25 0.25 0 0 0 26.25 36L26.75 36A0.25 0.25 0 0 0 27 35.75L27 34.25A0.25 0.25 0 0 1 27.25 34L27.75 34A0.25 0.25 0 0 1 28 34.25L28 36.75A0.25 0.25 0 0 0 28.25 37L28.75 37A0.25 0.25 0 0 0 29 36.75L29 35.25A0.25 0.25 0 0 1 29.25 35L29.75 35A0.25 0.25 0 0 1 30 35.25L30 35.75A0.25 0.25 0 0 0 30.25 36L30.75 36A0.25 0.25 0 0 0 31 35.75L31 35.25A0.25 0.25 0 0 1 31.25 35L31.75 35A0.25 0.25 0 0 1 32 35.25L32 35.75A0.25 0.25 0 0 0 32.25 36L33.75 36A0.25 0.25 0 0 0 34 35.75L34 34.25A0.25 0.25 0 0 1 34.25 34L34.75 34A0.25 0.25 0 0 0 35 33.75L35 33.25A0.25 0.25 0 0 1 35.25 33L35.75 33A0.25 0.25 0 0 0 36 32.75L36 32.25A0.25 0.25 0 0 1 36.25 32L36.75 32A0.25 0.25 0 0 0 37 31.75L37 30.25A0.25 0.25 0 0 0 36.75 30L36.25 30A0.25 0.25 0 0 0 36 30.25L36 31.75A0.25 0.25 0 0 1 35.75 32L34.25 32A0.25 0.25 0 0 1 34 31.75L34 31.25A0.25 0.25 0 0 1 34.25 31L34.75 31A0.25 0.25 0 0 0 35 30.75L35 30.25A0.25 0.25 0 0 0 34.75 30L34.25 30A0.25 0.25 0 0 1 34 29.75L34 29.25A0.25 0.25 0 0 1 34.25 29L34.75 29A0.25 0.25 0 0 0 35 28.75L35 27.25A0.25 0.25 0 0 0 34.75 27L34.25 27A0.25 0.25 0 0 1 34 26.75L34 24.25A0.25 0.25 0 0 0 33.75 24L32.25 24A0.25 0.25 0 0 1 32 23.75L32 23.25A0.25 0.25 0 0 0 31.75 23L31.25 23A0.25 0.25 0 0 1 31 22.75L31 22.25A0.25 0.25 0 0 1 31.25 22L32.75 22A0.25 0.25 0 0 0 33 21.75L33 20.25A0.25 0.25 0 0 1 33.25 20L33.75 20A0.25 0.25 0 0 1 34 20.25L34 21.75A0.25 0.25 0 0 0 34.25 22L35.75 22A0.25 0.25 0 0 1 36 22.25L36 22.75A0.25 0.25 0 0 0 36.25 23L36.75 23A0.25 0.25 0 0 0 37 22.75L37 22.25A0.25 0.25 0 0 0 36.75 22L36.25 22A0.25 0.25 0 0 1 36 21.75L36 21.25A0.25 0.25 0 0 0 35.75 21L35.25 21A0.25 0.25 0 0 1 35 20.75L35 20.25A0.25 0.25 0 0 0 34.75 20L34.25 20A0.25 0.25 0 0 1 34 19.75L34 19.25A0.25 0.25 0 0 1 34.25 19L34.75 19A0.25 0.25 0 0 0 35 18.75L35 18.25A0.25 0.25 0 0 0 34.75 18L34.25 18A0.25 0.25 0 0 0 34 18.25L34 18.75A0.25 0.25 0 0 1 33.75 19L33.25 19A0.25 0.25 0 0 1 33 18.75L33 18.25A0.25 0.25 0 0 0 32.75 18L31.25 18A0.25 0.25 0 0 0 31 18.25L31 18.75A0.25 0.25 0 0 0 31.25 19L32.75 19A0.25 0.25 0 0 1 33 19.25L33 19.75A0.25 0.25 0 0 1 32.75 20L30.25 20A0.25 0.25 0 0 1 30 19.75L30 19.25A0.25 0.25 0 0 0 29.75 19L29.25 19A0.25 0.25 0 0 1 29 18.75L29 18.25A0.25 0.25 0 0 1 29.25 18L29.75 18A0.25 0.25 0 0 0 30 17.75L30 17.25A0.25 0.25 0 0 1 30.25 17L30.75 17A0.25 0.25 0 0 0 31 16.75L31 16.25A0.25 0.25 0 0 0 30.75 16L29.25 16A0.25 0.25 0 0 0 29 16.25L29 16.75A0.25 0.25 0 0 1 28.75 17L27.25 17A0.25 0.25 0 0 1 27 16.75L27 16.25A0.25 0.25 0 0 1 27.25 16L27.75 16A0.25 0.25 0 0 0 28 15.75L28 15.25A0.25 0.25 0 0 1 28.25 15L29.75 15A0.25 0.25 0 0 0 30 14.75L30 13.25A0.25 0.25 0 0 1 30.25 13L30.75 13A0.25 0.25 0 0 1 31 13.25L31 14.75A0.25 0.25 0 0 0 31.25 15L31.75 15A0.25 0.25 0 0 1 32 15.25L32 16.75A0.25 0.25 0 0 0 32.25 17L32.75 17A0.25 0.25 0 0 0 33 16.75L33 16.25A0.25 0.25 0 0 1 33.25 16L33.75 16A0.25 0.25 0 0 1 34 16.25L34 16.75A0.25 0.25 0 0 0 34.25 17L34.75 17A0.25 0.25 0 0 0 35 16.75L35 16.25A0.25 0.25 0 0 1 35.25 16L35.75 16A0.25 0.25 0 0 1 36 16.25L36 16.75A0.25 0.25 0 0 0 36.25 17L36.75 17A0.25 0.25 0 0 0 37 16.75L37 16.25A0.25 0.25 0 0 0 36.75 16L36.25 16A0.25 0.25 0 0 1 36 15.75L36 15.25A0.25 0.25 0 0 1 36.25 15L36.75 15A0.25 0.25 0 0 0 37 14.75L37 14.25A0.25 0.25 0 0 0 36.75 14L35.25 14A0.25 0.25 0 0 1 35 13.75L35 13.25A0.25 0.25 0 0 1 35.25 13L36.75 13A0.25 0.25 0 0 0 37 12.75L37 10.25A0.25 0.25 0 0 0 36.75 10L36.25 10A0.25 0.25 0 0 1 36 9.75L36 9.25A0.25 0.25 0 0 1 36.25 9L36.75 9A0.25 0.25 0 0 0 37 8.75L37 8.25A0.25 0.25 0 0 0 36.75 8L36.25 8A0.25 0.25 0 0 0 36 8.25L36 8.75A0.25 0.25 0 0 1 35.75 9L35.25 9A0.25 0.25 0 0 1 35 8.75L35 8.25A0.25 0.25 0 0 0 34.75 8L34.25 8A0.25 0.25 0 0 0 34 8.25L34 8.75A0.25 0.25 0 0 1 33.75 9L33.25 9A0.25 0.25 0 0 1 33 8.75L33 8.25A0.25 0.25 0 0 0 32.75 8L32.25 8A0.25 0.25 0 0 0 32 8.25L32 11.75A0.25 0.25 0 0 1 31.75 12L31.25 12A0.25 0.25 0 0 1 31 11.75L31 10.25A0.25 0.25 0 0 0 30.75 10L30.25 10A0.25 0.25 0 0 1 30 9.75L30 9.25A0.25 0.25 0 0 1 30.25 9L30.75 9A0.25 0.25 0 0 0 31 8.75L31 8.25A0.25 0.25 0 0 0 30.75 8L30.25 8A0.25 0.25 0 0 0 30 8.25L30 8.75A0.25 0.25 0 0 1 29.75 9L28.25 9A0.25 0.25 0 0 0 28 9.25L28 9.75A0.25 0.25 0 0 1 27.75 10L27.25 10A0.25 0.25 0 0 1 27 9.75L27 8.25A0.25 0.25 0 0 1 27.25 8L28.75 8A0.25 0.25 0 0 0 29 7.75L29 5.25A0.25 0.25 0 0 0 28.75 5L28.25 5A0.25 0.25 0 0 0 28 5.25L28 6.75A0.25 0.25 0 0 1 27.75 7L27.25 7A0.25 0.25 0 0 1 27 6.75L27 5.25A0.25 0.25 0 0 0 26.75 5L26.25 5A0.25 0.25 0 0 1 26 4.75L26 4.25A0.25 0.25 0 0 0 25.75 4L25.25 4A0.25 0.25 0 0 1 25 3.75L25 3.25A0.25 0.25 0 0 0 24.75 3L23.25 3A0.25 0.25 0 0 1 23 2.75L23 2.25A0.25 0.25 0 0 1 23.25 2L23.75 2A0.25 0.25 0 0 0 24 1.75L24 0.25A0.25 0.25 0 0 0 23.75 0L23.25 0A0.25 0.25 0 0 0 23 0.25L23 0.75A0.25 0.25 0 0 1 22.75 1L22.25 1A0.25 0.25 0 0 1 22 0.75L22 0.25A0.25 0.25 0 0 0 21.75 0L21.25 0A0.25 0.25 0 0 0 21 0.25L21 0.75A0.25 0.25 0 0 0 21.25 1L21.75 1A0.25 0.25 0 0 1 22 1.25L22 1.75A0.25 0.25 0 0 1 21.75 2L21.25 2A0.25 0.25 0 0 0 21 2.25L21 2.75A0.25 0.25 0 0 0 21.25 3L22.75 3A0.25 0.25 0 0 1 23 3.25L23 3.75A0.25 0.25 0 0 1 22.75 4L22.25 4A0.25 0.25 0 0 0 22 4.25L22 4.75A0.25 0.25 0 0 1 21.75 5L21.25 5A0.25 0.25 0 0 1 21 4.75L21 4.25A0.25 0.25 0 0 0 20.75 4L20.25 4A0.25 0.25 0 0 1 20 3.75L20 3.25A0.25 0.25 0 0 0 19.75 3L18.25 3A0.25 0.25 0 0 1 18 2.75L18 0.25A0.25 0.25 0 0 0 17.75 0L16.25 0A0.25 0.25 0 0 0 16 0.25L16 0.75A0.25 0.25 0 0 1 15.75 1L15.25 1A0.25 0.25 0 0 1 15 0.75L15 0.25A0.25 0.25 0 0 0 14.75 0L14.25 0A0.25 0.25 0 0 0 14 0.25ZM26 0.25L26 0.75A0.25 0.25 0 0 0 26.25 1L26.75 1A0.25 0.25 0 0 0 27 0.75L27 0.25A0.25 0.25 0 0 0 26.75 0L26.25 0A0.25 0.25 0 0 0 26 0.25ZM28 1.25L28 1.75A0.25 0.25 0 0 1 27.75 2L27.25 2A0.25 0.25 0 0 0 27 2.25L27 2.75A0.25 0.25 0 0 0 27.25 3L27.75 3A0.25 0.25 0 0 1 28 3.25L28 3.75A0.25 0.25 0 0 0 28.25 4L28.75 4A0.25 0.25 0 0 0 29 3.75L29 3.25A0.25 0.25 0 0 0 28.75 3L28.25 3A0.25 0.25 0 0 1 28 2.75L28 2.25A0.25 0.25 0 0 1 28.25 2L28.75 2A0.25 0.25 0 0 0 29 1.75L29 1.25A0.25 0.25 0 0 0 28.75 1L28.25 1A0.25 0.25 0 0 0 28 1.25ZM8 2.25L8 2.75A0.25 0.25 0 0 0 8.25 3L8.75 3A0.25 0.25 0 0 0 9 2.75L9 2.25A0.25 0.25 0 0 0 8.75 2L8.25 2A0.25 0.25 0 0 0 8 2.25ZM15 2.25L15 2.75A0.25 0.25 0 0 1 14.75 3L14.25 3A0.25 0.25 0 0 0 14 3.25L14 3.75A0.25 0.25 0 0 1 13.75 4L13.25 4A0.25 0.25 0 0 1 13 3.75L13 3.25A0.25 0.25 0 0 0 12.75 3L12.25 3A0.25 0.25 0 0 0 12 3.25L12 3.75A0.25 0.25 0 0 0 12.25 4L12.75 4A0.25 0.25 0 0 1 13 4.25L13 4.75A0.25 0.25 0 0 1 12.75 5L12.25 5A0.25 0.25 0 0 0 12 5.25L12 5.75A0.25 0.25 0 0 1 11.75 6L11.25 6A0.25 0.25 0 0 0 11 6.25L11 6.75A0.25 0.25 0 0 0 11.25 7L11.75 7A0.25 0.25 0 0 0 12 6.75L12 6.25A0.25 0.25 0 0 1 12.25 6L12.75 6A0.25 0.25 0 0 1 13 6.25L13 6.75A0.25 0.25 0 0 0 13.25 7L13.75 7A0.25 0.25 0 0 0 14 6.75L14 6.25A0.25 0.25 0 0 0 13.75 6L13.25 6A0.25 0.25 0 0 1 13 5.75L13 5.25A0.25 0.25 0 0 1 13.25 5L13.75 5A0.25 0.25 0 0 0 14 4.75L14 4.25A0.25 0.25 0 0 1 14.25 4L15.75 4A0.25 0.25 0 0 1 16 4.25L16 5.75A0.25 0.25 0 0 1 15.75 6L15.25 6A0.25 0.25 0 0 0 15 6.25L15 7.75A0.25 0.25 0 0 1 14.75 8L14.25 8A0.25 0.25 0 0 0 14 8.25L14 8.75A0.25 0.25 0 0 0 14.25 9L14.75 9A0.25 0.25 0 0 1 15 9.25L15 9.75A0.25 0.25 0 0 1 14.75 10L14.25 10A0.25 0.25 0 0 0 14 10.25L14 10.75A0.25 0.25 0 0 0 14.25 11L14.75 11A0.25 0.25 0 0 0 15 10.75L15 10.25A0.25 0.25 0 0 1 15.25 10L15.75 10A0.25 0.25 0 0 1 16 10.25L16 11.75A0.25 0.25 0 0 0 16.25 12L17.75 12A0.25 0.25 0 0 0 18 11.75L18 11.25A0.25 0.25 0 0 1 18.25 11L18.75 11A0.25 0.25 0 0 1 19 11.25L19 12.75A0.25 0.25 0 0 0 19.25 13L19.75 13A0.25 0.25 0 0 1 20 13.25L20 13.75A0.25 0.25 0 0 1 19.75 14L18.25 14A0.25 0.25 0 0 1 18 13.75L18 13.25A0.25 0.25 0 0 0 17.75 13L16.25 13A0.25 0.25 0 0 0 16 13.25L16 14.75A0.25 0.25 0 0 0 16.25 15L16.75 15A0.25 0.25 0 0 1 17 15.25L17 15.75A0.25 0.25 0 0 0 17.25 16L19.75 16A0.25 0.25 0 0 1 20 16.25L20 16.75A0.25 0.25 0 0 0 20.25 17L21.75 17A0.25 0.25 0 0 0 22 16.75L22 16.25A0.25 0.25 0 0 1 22.25 16L22.75 16A0.25 0.25 0 0 1 23 16.25L23 16.75A0.25 0.25 0 0 0 23.25 17L23.75 17A0.25 0.25 0 0 0 24 16.75L24 16.25A0.25 0.25 0 0 1 24.25 16L25.75 16A0.25 0.25 0 0 0 26 15.75L26 15.25A0.25 0.25 0 0 1 26.25 15L26.75 15A0.25 0.25 0 0 0 27 14.75L27 12.25A0.25 0.25 0 0 0 26.75 12L26.25 12A0.25 0.25 0 0 1 26 11.75L26 11.25A0.25 0.25 0 0 0 25.75 11L25.25 11A0.25 0.25 0 0 1 25 10.75L25 9.25A0.25 0.25 0 0 1 25.25 9L25.75 9A0.25 0.25 0 0 0 26 8.75L26 8.25A0.25 0.25 0 0 1 26.25 8L26.75 8A0.25 0.25 0 0 0 27 7.75L27 7.25A0.25 0.25 0 0 0 26.75 7L26.25 7A0.25 0.25 0 0 1 26 6.75L26 6.25A0.25 0.25 0 0 0 25.75 6L25.25 6A0.25 0.25 0 0 0 25 6.25L25 6.75A0.25 0.25 0 0 0 25.25 7L25.75 7A0.25 0.25 0 0 1 26 7.25L26 7.75A0.25 0.25 0 0 1 25.75 8L25.25 8A0.25 0.25 0 0 0 25 8.25L25 8.75A0.25 0.25 0 0 1 24.75 9L24.25 9A0.25 0.25 0 0 1 24 8.75L24 8.25A0.25 0.25 0 0 0 23.75 8L23.25 8A0.25 0.25 0 0 0 23 8.25L23 8.75A0.25 0.25 0 0 1 22.75 9L22.25 9A0.25 0.25 0 0 1 22 8.75L22 8.25A0.25 0.25 0 0 0 21.75 8L21.25 8A0.25 0.25 0 0 1 21 7.75L21 7.25A0.25 0.25 0 0 1 21.25 7L21.75 7A0.25 0.25 0 0 0 22 6.75L22 6.25A0.25 0.25 0 0 1 22.25 6L22.75 6A0.25 0.25 0 0 1 23 6.25L23 6.75A0.25 0.25 0 0 0 23.25 7L23.75 7A0.25 0.25 0 0 0 24 6.75L24 6.25A0.25 0.25 0 0 0 23.75 6L23.25 6A0.25 0.25 0 0 1 23 5.75L23 5.25A0.25 0.25 0 0 1 23.25 5L24.75 5A0.25 0.25 0 0 0 25 4.75L25 4.25A0.25 0.25 0 0 0 24.75 4L23.25 4A0.25 0.25 0 0 0 23 4.25L23 4.75A0.25 0.25 0 0 1 22.75 5L22.25 5A0.25 0.25 0 0 0 22 5.25L22 5.75A0.25 0.25 0 0 1 21.75 6L21.25 6A0.25 0.25 0 0 1 21 5.75L21 5.25A0.25 0.25 0 0 0 20.75 5L19.25 5A0.25 0.25 0 0 0 19 5.25L19 6.75A0.25 0.25 0 0 0 19.25 7L19.75 7A0.25 0.25 0 0 1 20 7.25L20 7.75A0.25 0.25 0 0 0 20.25 8L20.75 8A0.25 0.25 0 0 1 21 8.25L21 8.75A0.25 0.25 0 0 0 21.25 9L21.75 9A0.25 0.25 0 0 1 22 9.25L22 9.75A0.25 0.25 0 0 1 21.75 10L21.25 10A0.25 0.25 0 0 0 21 10.25L21 11.75A0.25 0.25 0 0 1 20.75 12L20.25 12A0.25 0.25 0 0 1 20 11.75L20 11.25A0.25 0.25 0 0 0 19.75 11L19.25 11A0.25 0.25 0 0 1 19 10.75L19 10.25A0.25 0.25 0 0 1 19.25 10L19.75 10A0.25 0.25 0 0 0 20 9.75L20 9.25A0.25 0.25 0 0 0 19.75 9L19.25 9A0.25 0.25 0 0 1 19 8.75L19 8.25A0.25 0.25 0 0 0 18.75 8L18.25 8A0.25 0.25 0 0 0 18 8.25L18 8.75A0.25 0.25 0 0 0 18.25 9L18.75 9A0.25 0.25 0 0 1 19 9.25L19 9.75A0.25 0.25 0 0 1 18.75 10L18.25 10A0.25 0.25 0 0 0 18 10.25L18 10.75A0.25 0.25 0 0 1 17.75 11L17.25 11A0.25 0.25 0 0 1 17 10.75L17 7.25A0.25 0.25 0 0 1 17.25 7L17.75 7A0.25 0.25 0 0 0 18 6.75L18 3.25A0.25 0.25 0 0 0 17.75 3L17.25 3A0.25 0.25 0 0 0 17 3.25L17 3.75A0.25 0.25 0 0 1 16.75 4L16.25 4A0.25 0.25 0 0 1 16 3.75L16 2.25A0.25 0.25 0 0 0 15.75 2L15.25 2A0.25 0.25 0 0 0 15 2.25ZM10 4.25L10 4.75A0.25 0.25 0 0 0 10.25 5L10.75 5A0.25 0.25 0 0 0 11 4.75L11 4.25A0.25 0.25 0 0 0 10.75 4L10.25 4A0.25 0.25 0 0 0 10 4.25ZM16 6.25L16 6.75A0.25 0.25 0 0 0 16.25 7L16.75 7A0.25 0.25 0 0 0 17 6.75L17 6.25A0.25 0.25 0 0 0 16.75 6L16.25 6A0.25 0.25 0 0 0 16 6.25ZM20 6.25L20 6.75A0.25 0.25 0 0 0 20.25 7L20.75 7A0.25 0.25 0 0 0 21 6.75L21 6.25A0.25 0.25 0 0 0 20.75 6L20.25 6A0.25 0.25 0 0 0 20 6.25ZM15 8.25L15 8.75A0.25 0.25 0 0 0 15.25 9L15.75 9A0.25 0.25 0 0 0 16 8.75L16 8.25A0.25 0.25 0 0 0 15.75 8L15.25 8A0.25 0.25 0 0 0 15 8.25ZM23 9.25L23 11.75A0.25 0.25 0 0 0 23.25 12L23.75 12A0.25 0.25 0 0 1 24 12.25L24 12.75A0.25 0.25 0 0 1 23.75 13L23.25 13A0.25 0.25 0 0 0 23 13.25L23 13.75A0.25 0.25 0 0 1 22.75 14L22.25 14A0.25 0.25 0 0 0 22 14.25L22 14.75A0.25 0.25 0 0 1 21.75 15L20.25 15A0.25 0.25 0 0 0 20 15.25L20 15.75A0.25 0.25 0 0 0 20.25 16L21.75 16A0.25 0.25 0 0 0 22 15.75L22 15.25A0.25 0.25 0 0 1 22.25 15L23.75 15A0.25 0.25 0 0 0 24 14.75L24 14.25A0.25 0.25 0 0 1 24.25 14L25.75 14A0.25 0.25 0 0 0 26 13.75L26 13.25A0.25 0.25 0 0 0 25.75 13L25.25 13A0.25 0.25 0 0 1 25 12.75L25 12.25A0.25 0.25 0 0 0 24.75 12L24.25 12A0.25 0.25 0 0 1 24 11.75L24 9.25A0.25 0.25 0 0 0 23.75 9L23.25 9A0.25 0.25 0 0 0 23 9.25ZM12 10.25L12 10.75A0.25 0.25 0 0 0 12.25 11L12.75 11A0.25 0.25 0 0 0 13 10.75L13 10.25A0.25 0.25 0 0 0 12.75 10L12.25 10A0.25 0.25 0 0 0 12 10.25ZM28 10.25L28 13.75A0.25 0.25 0 0 0 28.25 14L28.75 14A0.25 0.25 0 0 0 29 13.75L29 13.25A0.25 0.25 0 0 1 29.25 13L29.75 13A0.25 0.25 0 0 0 30 12.75L30 10.25A0.25 0.25 0 0 0 29.75 10L28.25 10A0.25 0.25 0 0 0 28 10.25ZM33 10.25L33 10.75A0.25 0.25 0 0 0 33.25 11L33.75 11A0.25 0.25 0 0 1 34 11.25L34 11.75A0.25 0.25 0 0 1 33.75 12L32.25 12A0.25 0.25 0 0 0 32 12.25L32 13.75A0.25 0.25 0 0 0 32.25 14L33.75 14A0.25 0.25 0 0 1 34 14.25L34 14.75A0.25 0.25 0 0 0 34.25 15L34.75 15A0.25 0.25 0 0 0 35 14.75L35 14.25A0.25 0.25 0 0 0 34.75 14L34.25 14A0.25 0.25 0 0 1 34 13.75L34 12.25A0.25 0.25 0 0 1 34.25 12L35.75 12A0.25 0.25 0 0 0 36 11.75L36 10.25A0.25 0.25 0 0 0 35.75 10L35.25 10A0.25 0.25 0 0 0 35 10.25L35 10.75A0.25 0.25 0 0 1 34.75 11L34.25 11A0.25 0.25 0 0 1 34 10.75L34 10.25A0.25 0.25 0 0 0 33.75 10L33.25 10A0.25 0.25 0 0 0 33 10.25ZM13 12.25L13 12.75A0.25 0.25 0 0 0 13.25 13L13.75 13A0.25 0.25 0 0 0 14 12.75L14 12.25A0.25 0.25 0 0 0 13.75 12L13.25 12A0.25 0.25 0 0 0 13 12.25ZM21 12.25L21 12.75A0.25 0.25 0 0 0 21.25 13L21.75 13A0.25 0.25 0 0 0 22 12.75L22 12.25A0.25 0.25 0 0 0 21.75 12L21.25 12A0.25 0.25 0 0 0 21 12.25ZM1 14.25L1 14.75A0.25 0.25 0 0 0 1.25 15L1.75 15A0.25 0.25 0 0 0 2 14.75L2 14.25A0.25 0.25 0 0 0 1.75 14L1.25 14A0.25 0.25 0 0 0 1 14.25ZM6 14.25L6 14.75A0.25 0.25 0 0 0 6.25 15L6.75 15A0.25 0.25 0 0 0 7 14.75L7 14.25A0.25 0.25 0 0 0 6.75 14L6.25 14A0.25 0.25 0 0 0 6 14.25ZM17 14.25L17 14.75A0.25 0.25 0 0 0 17.25 15L17.75 15A0.25 0.25 0 0 0 18 14.75L18 14.25A0.25 0.25 0 0 0 17.75 14L17.25 14A0.25 0.25 0 0 0 17 14.25ZM15 16.25L15 16.75A0.25 0.25 0 0 1 14.75 17L14.25 17A0.25 0.25 0 0 0 14 17.25L14 19.75A0.25 0.25 0 0 1 13.75 20L13.25 20A0.25 0.25 0 0 0 13 20.25L13 20.75A0.25 0.25 0 0 1 12.75 21L12.25 21A0.25 0.25 0 0 0 12 21.25L12 21.75A0.25 0.25 0 0 1 11.75 22L11.25 22A0.25 0.25 0 0 0 11 22.25L11 24.75A0.25 0.25 0 0 0 11.25 25L11.75 25A0.25 0.25 0 0 0 12 24.75L12 24.25A0.25 0.25 0 0 1 12.25 24L12.75 24A0.25 0.25 0 0 0 13 23.75L13 23.25A0.25 0.25 0 0 1 13.25 23L13.75 23A0.25 0.25 0 0 0 14 22.75L14 20.25A0.25 0.25 0 0 1 14.25 20L14.75 20A0.25 0.25 0 0 1 15 20.25L15 20.75A0.25 0.25 0 0 0 15.25 21L15.75 21A0.25 0.25 0 0 0 16 20.75L16 20.25A0.25 0.25 0 0 0 15.75 20L15.25 20A0.25 0.25 0 0 1 15 19.75L15 17.25A0.25 0.25 0 0 1 15.25 17L15.75 17A0.25 0.25 0 0 1 16 17.25L16 18.75A0.25 0.25 0 0 0 16.25 19L16.75 19A0.25 0.25 0 0 1 17 19.25L17 19.75A0.25 0.25 0 0 0 17.25 20L18.75 20A0.25 0.25 0 0 1 19 20.25L19 20.75A0.25 0.25 0 0 1 18.75 21L18.25 21A0.25 0.25 0 0 0 18 21.25L18 22.75A0.25 0.25 0 0 1 17.75 23L17.25 23A0.25 0.25 0 0 1 17 22.75L17 22.25A0.25 0.25 0 0 0 16.75 22L16.25 22A0.25 0.25 0 0 0 16 22.25L16 22.75A0.25 0.25 0 0 1 15.75 23L15.25 23A0.25 0.25 0 0 0 15 23.25L15 23.75A0.25 0.25 0 0 1 14.75 24L14.25 24A0.25 0.25 0 0 0 14 24.25L14 24.75A0.25 0.25 0 0 1 13.75 25L13.25 25A0.25 0.25 0 0 0 13 25.25L13 25.75A0.25 0.25 0 0 0 13.25 26L13.75 26A0.25 0.25 0 0 1 14 26.25L14 26.75A0.25 0.25 0 0 0 14.25 27L15.75 27A0.25 0.25 0 0 1 16 27.25L16 29.75A0.25 0.25 0 0 1 15.75 30L15.25 30A0.25 0.25 0 0 1 15 29.75L15 28.25A0.25 0.25 0 0 0 14.75 28L14.25 28A0.25 0.25 0 0 0 14 28.25L14 28.75A0.25 0.25 0 0 1 13.75 29L13.25 29A0.25 0.25 0 0 0 13 29.25L13 29.75A0.25 0.25 0 0 1 12.75 30L12.25 30A0.25 0.25 0 0 0 12 30.25L12 31.75A0.25 0.25 0 0 1 11.75 32L11.25 32A0.25 0.25 0 0 0 11 32.25L11 32.75A0.25 0.25 0 0 0 11.25 33L11.75 33A0.25 0.25 0 0 1 12 33.25L12 33.75A0.25 0.25 0 0 0 12.25 34L12.75 34A0.25 0.25 0 0 1 13 34.25L13 34.75A0.25 0.25 0 0 1 12.75 35L12.25 35A0.25 0.25 0 0 0 12 35.25L12 35.75A0.25 0.25 0 0 0 12.25 36L12.75 36A0.25 0.25 0 0 0 13 35.75L13 35.25A0.25 0.25 0 0 1 13.25 35L14.75 35A0.25 0.25 0 0 0 15 34.75L15 34.25A0.25 0.25 0 0 0 14.75 34L13.25 34A0.25 0.25 0 0 1 13 33.75L13 30.25A0.25 0.25 0 0 1 13.25 30L14.75 30A0.25 0.25 0 0 1 15 30.25L15 30.75A0.25 0.25 0 0 1 14.75 31L14.25 31A0.25 0.25 0 0 0 14 31.25L14 31.75A0.25 0.25 0 0 0 14.25 32L14.75 32A0.25 0.25 0 0 0 15 31.75L15 31.25A0.25 0.25 0 0 1 15.25 31L15.75 31A0.25 0.25 0 0 1 16 31.25L16 31.75A0.25 0.25 0 0 0 16.25 32L16.75 32A0.25 0.25 0 0 0 17 31.75L17 31.25A0.25 0.25 0 0 1 17.25 31L17.75 31A0.25 0.25 0 0 0 18 30.75L18 28.25A0.25 0.25 0 0 1 18.25 28L18.75 28A0.25 0.25 0 0 1 19 28.25L19 28.75A0.25 0.25 0 0 0 19.25 29L19.75 29A0.25 0.25 0 0 1 20 29.25L20 29.75A0.25 0.25 0 0 1 19.75 30L19.25 30A0.25 0.25 0 0 0 19 30.25L19 32.75A0.25 0.25 0 0 0 19.25 33L19.75 33A0.25 0.25 0 0 1 20 33.25L20 33.75A0.25 0.25 0 0 1 19.75 34L18.25 34A0.25 0.25 0 0 0 18 34.25L18 35.75A0.25 0.25 0 0 0 18.25 36L18.75 36A0.25 0.25 0 0 0 19 35.75L19 35.25A0.25 0.25 0 0 1 19.25 35L19.75 35A0.25 0.25 0 0 1 20 35.25L20 35.75A0.25 0.25 0 0 0 20.25 36L21.75 36A0.25 0.25 0 0 0 22 35.75L22 35.25A0.25 0.25 0 0 1 22.25 35L22.75 35A0.25 0.25 0 0 0 23 34.75L23 34.25A0.25 0.25 0 0 1 23.25 34L24.75 34A0.25 0.25 0 0 0 25 33.75L25 33.25A0.25 0.25 0 0 0 24.75 33L24.25 33A0.25 0.25 0 0 1 24 32.75L24 31.25A0.25 0.25 0 0 1 24.25 31L24.75 31A0.25 0.25 0 0 1 25 31.25L25 31.75A0.25 0.25 0 0 0 25.25 32L25.75 32A0.25 0.25 0 0 0 26 31.75L26 31.25A0.25 0.25 0 0 0 25.75 31L25.25 31A0.25 0.25 0 0 1 25 30.75L25 30.25A0.25 0.25 0 0 1 25.25 30L26.75 30A0.25 0.25 0 0 1 27 30.25L27 31.75A0.25 0.25 0 0 0 27.25 32L27.75 32A0.25 0.25 0 0 0 28 31.75L28 28.25A0.25 0.25 0 0 1 28.25 28L28.75 28A0.25 0.25 0 0 0 29 27.75L29 27.25A0.25 0.25 0 0 1 29.25 27L29.75 27A0.25 0.25 0 0 1 30 27.25L30 27.75A0.25 0.25 0 0 0 30.25 28L31.75 28A0.25 0.25 0 0 0 32 27.75L32 27.25A0.25 0.25 0 0 1 32.25 27L32.75 27A0.25 0.25 0 0 0 33 26.75L33 25.25A0.25 0.25 0 0 0 32.75 25L32.25 25A0.25 0.25 0 0 0 32 25.25L32 26.75A0.25 0.25 0 0 1 31.75 27L30.25 27A0.25 0.25 0 0 1 30 26.75L30 24.25A0.25 0.25 0 0 1 30.25 24L30.75 24A0.25 0.25 0 0 0 31 23.75L31 23.25A0.25 0.25 0 0 0 30.75 23L30.25 23A0.25 0.25 0 0 1 30 22.75L30 22.25A0.25 0.25 0 0 1 30.25 22L30.75 22A0.25 0.25 0 0 0 31 21.75L31 21.25A0.25 0.25 0 0 0 30.75 21L29.25 21A0.25 0.25 0 0 1 29 20.75L29 19.25A0.25 0.25 0 0 0 28.75 19L27.25 19A0.25 0.25 0 0 1 27 18.75L27 17.25A0.25 0.25 0 0 0 26.75 17L25.25 17A0.25 0.25 0 0 0 25 17.25L25 17.75A0.25 0.25 0 0 1 24.75 18L24.25 18A0.25 0.25 0 0 0 24 18.25L24 18.75A0.25 0.25 0 0 0 24.25 19L24.75 19A0.25 0.25 0 0 1 25 19.25L25 19.75A0.25 0.25 0 0 1 24.75 20L23.25 20A0.25 0.25 0 0 0 23 20.25L23 20.75A0.25 0.25 0 0 1 22.75 21L21.25 21A0.25 0.25 0 0 1 21 20.75L21 20.25A0.25 0.25 0 0 1 21.25 20L21.75 20A0.25 0.25 0 0 0 22 19.75L22 18.25A0.25 0.25 0 0 0 21.75 18L21.25 18A0.25 0.25 0 0 0 21 18.25L21 19.75A0.25 0.25 0 0 1 20.75 20L20.25 20A0.25 0.25 0 0 1 20 19.75L20 19.25A0.25 0.25 0 0 0 19.75 19L19.25 19A0.25 0.25 0 0 1 19 18.75L19 18.25A0.25 0.25 0 0 0 18.75 18L18.25 18A0.25 0.25 0 0 0 18 18.25L18 18.75A0.25 0.25 0 0 1 17.75 19L17.25 19A0.25 0.25 0 0 1 17 18.75L17 17.25A0.25 0.25 0 0 0 16.75 17L16.25 17A0.25 0.25 0 0 1 16 16.75L16 16.25A0.25 0.25 0 0 0 15.75 16L15.25 16A0.25 0.25 0 0 0 15 16.25ZM6 17.25L6 17.75A0.25 0.25 0 0 0 6.25 18L7.75 18A0.25 0.25 0 0 0 8 17.75L8 17.25A0.25 0.25 0 0 0 7.75 17L6.25 17A0.25 0.25 0 0 0 6 17.25ZM25 18.25L25 18.75A0.25 0.25 0 0 0 25.25 19L25.75 19A0.25 0.25 0 0 0 26 18.75L26 18.25A0.25 0.25 0 0 0 25.75 18L25.25 18A0.25 0.25 0 0 0 25 18.25ZM36 18.25L36 19.75A0.25 0.25 0 0 0 36.25 20L36.75 20A0.25 0.25 0 0 0 37 19.75L37 18.25A0.25 0.25 0 0 0 36.75 18L36.25 18A0.25 0.25 0 0 0 36 18.25ZM26 20.25L26 21.75A0.25 0.25 0 0 0 26.25 22L26.75 22A0.25 0.25 0 0 1 27 22.25L27 22.75A0.25 0.25 0 0 1 26.75 23L26.25 23A0.25 0.25 0 0 0 26 23.25L26 23.75A0.25 0.25 0 0 1 25.75 24L25.25 24A0.25 0.25 0 0 0 25 24.25L25 24.75A0.25 0.25 0 0 1 24.75 25L24.25 25A0.25 0.25 0 0 0 24 25.25L24 25.75A0.25 0.25 0 0 0 24.25 26L25.75 26A0.25 0.25 0 0 1 26 26.25L26 27.75A0.25 0.25 0 0 1 25.75 28L25.25 28A0.25 0.25 0 0 1 25 27.75L25 27.25A0.25 0.25 0 0 0 24.75 27L24.25 27A0.25 0.25 0 0 0 24 27.25L24 27.75A0.25 0.25 0 0 0 24.25 28L24.75 28A0.25 0.25 0 0 1 25 28.25L25 28.75A0.25 0.25 0 0 0 25.25 29L26.75 29A0.25 0.25 0 0 0 27 28.75L27 28.25A0.25 0.25 0 0 1 27.25 28L27.75 28A0.25 0.25 0 0 0 28 27.75L28 27.25A0.25 0.25 0 0 1 28.25 27L28.75 27A0.25 0.25 0 0 0 29 26.75L29 25.25A0.25 0.25 0 0 0 28.75 25L27.25 25A0.25 0.25 0 0 1 27 24.75L27 24.25A0.25 0.25 0 0 1 27.25 24L27.75 24A0.25 0.25 0 0 0 28 23.75L28 22.25A0.25 0.25 0 0 1 28.25 22L28.75 22A0.25 0.25 0 0 0 29 21.75L29 21.25A0.25 0.25 0 0 0 28.75 21L27.25 21A0.25 0.25 0 0 1 27 20.75L27 20.25A0.25 0.25 0 0 0 26.75 20L26.25 20A0.25 0.25 0 0 0 26 20.25ZM6 21.25L6 21.75A0.25 0.25 0 0 0 6.25 22L6.75 22A0.25 0.25 0 0 1 7 22.25L7 22.75A0.25 0.25 0 0 1 6.75 23L5.25 23A0.25 0.25 0 0 0 5 23.25L5 23.75A0.25 0.25 0 0 0 5.25 24L6.75 24A0.25 0.25 0 0 0 7 23.75L7 23.25A0.25 0.25 0 0 1 7.25 23L7.75 23A0.25 0.25 0 0 0 8 22.75L8 21.25A0.25 0.25 0 0 0 7.75 21L6.25 21A0.25 0.25 0 0 0 6 21.25ZM19 21.25L19 22.75A0.25 0.25 0 0 1 18.75 23L18.25 23A0.25 0.25 0 0 0 18 23.25L18 25.75A0.25 0.25 0 0 1 17.75 26L16.25 26A0.25 0.25 0 0 1 16 25.75L16 25.25A0.25 0.25 0 0 0 15.75 25L14.25 25A0.25 0.25 0 0 0 14 25.25L14 25.75A0.25 0.25 0 0 0 14.25 26L15.75 26A0.25 0.25 0 0 1 16 26.25L16 26.75A0.25 0.25 0 0 0 16.25 27L17.75 27A0.25 0.25 0 0 0 18 26.75L18 26.25A0.25 0.25 0 0 1 18.25 26L18.75 26A0.25 0.25 0 0 0 19 25.75L19 23.25A0.25 0.25 0 0 1 19.25 23L21.75 23A0.25 0.25 0 0 1 22 23.25L22 23.75A0.25 0.25 0 0 1 21.75 24L21.25 24A0.25 0.25 0 0 0 21 24.25L21 27.75A0.25 0.25 0 0 1 20.75 28L20.25 28A0.25 0.25 0 0 0 20 28.25L20 28.75A0.25 0.25 0 0 0 20.25 29L20.75 29A0.25 0.25 0 0 0 21 28.75L21 28.25A0.25 0.25 0 0 1 21.25 28L22.75 28A0.25 0.25 0 0 0 23 27.75L23 24.25A0.25 0.25 0 0 1 23.25 24L23.75 24A0.25 0.25 0 0 0 24 23.75L24 21.25A0.25 0.25 0 0 0 23.75 21L23.25 21A0.25 0.25 0 0 0 23 21.25L23 22.75A0.25 0.25 0 0 1 22.75 23L22.25 23A0.25 0.25 0 0 1 22 22.75L22 22.25A0.25 0.25 0 0 0 21.75 22L20.25 22A0.25 0.25 0 0 1 20 21.75L20 21.25A0.25 0.25 0 0 0 19.75 21L19.25 21A0.25 0.25 0 0 0 19 21.25ZM16 23.25L16 23.75A0.25 0.25 0 0 0 16.25 24L16.75 24A0.25 0.25 0 0 0 17 23.75L17 23.25A0.25 0.25 0 0 0 16.75 23L16.25 23A0.25 0.25 0 0 0 16 23.25ZM29 23.25L29 23.75A0.25 0.25 0 0 0 29.25 24L29.75 24A0.25 0.25 0 0 0 30 23.75L30 23.25A0.25 0.25 0 0 0 29.75 23L29.25 23A0.25 0.25 0 0 0 29 23.25ZM3 24.25L3 24.75A0.25 0.25 0 0 0 3.25 25L3.75 25A0.25 0.25 0 0 0 4 24.75L4 24.25A0.25 0.25 0 0 0 3.75 24L3.25 24A0.25 0.25 0 0 0 3 24.25ZM35 24.25L35 25.75A0.25 0.25 0 0 0 35.25 26L35.75 26A0.25 0.25 0 0 1 36 26.25L36 26.75A0.25 0.25 0 0 0 36.25 27L36.75 27A0.25 0.25 0 0 0 37 26.75L37 26.25A0.25 0.25 0 0 0 36.75 26L36.25 26A0.25 0.25 0 0 1 36 25.75L36 25.25A0.25 0.25 0 0 1 36.25 25L36.75 25A0.25 0.25 0 0 0 37 24.75L37 24.25A0.25 0.25 0 0 0 36.75 24L35.25 24A0.25 0.25 0 0 0 35 24.25ZM8 25.25L8 25.75A0.25 0.25 0 0 0 8.25 26L8.75 26A0.25 0.25 0 0 0 9 25.75L9 25.25A0.25 0.25 0 0 0 8.75 25L8.25 25A0.25 0.25 0 0 0 8 25.25ZM6 27.25L6 27.75A0.25 0.25 0 0 0 6.25 28L6.75 28A0.25 0.25 0 0 0 7 27.75L7 27.25A0.25 0.25 0 0 0 6.75 27L6.25 27A0.25 0.25 0 0 0 6 27.25ZM36 28.25L36 28.75A0.25 0.25 0 0 0 36.25 29L36.75 29A0.25 0.25 0 0 0 37 28.75L37 28.25A0.25 0.25 0 0 0 36.75 28L36.25 28A0.25 0.25 0 0 0 36 28.25ZM23 29.25L23 30.75A0.25 0.25 0 0 0 23.25 31L23.75 31A0.25 0.25 0 0 0 24 30.75L24 29.25A0.25 0.25 0 0 0 23.75 29L23.25 29A0.25 0.25 0 0 0 23 29.25ZM29 29.25L29 31.75A0.25 0.25 0 0 0 29.25 32L31.75 32A0.25 0.25 0 0 0 32 31.75L32 29.25A0.25 0.25 0 0 0 31.75 29L29.25 29A0.25 0.25 0 0 0 29 29.25ZM30 30.25L30 30.75A0.25 0.25 0 0 0 30.25 31L30.75 31A0.25 0.25 0 0 0 31 30.75L31 30.25A0.25 0.25 0 0 0 30.75 30L30.25 30A0.25 0.25 0 0 0 30 30.25ZM20 31.25L20 31.75A0.25 0.25 0 0 0 20.25 32L20.75 32A0.25 0.25 0 0 1 21 32.25L21 32.75A0.25 0.25 0 0 0 21.25 33L21.75 33A0.25 0.25 0 0 1 22 33.25L22 33.75A0.25 0.25 0 0 0 22.25 34L22.75 34A0.25 0.25 0 0 0 23 33.75L23 33.25A0.25 0.25 0 0 0 22.75 33L22.25 33A0.25 0.25 0 0 1 22 32.75L22 32.25A0.25 0.25 0 0 0 21.75 32L21.25 32A0.25 0.25 0 0 1 21 31.75L21 31.25A0.25 0.25 0 0 0 20.75 31L20.25 31A0.25 0.25 0 0 0 20 31.25ZM33 32.25L33 32.75A0.25 0.25 0 0 1 32.75 33L31.25 33A0.25 0.25 0 0 0 31 33.25L31 33.75A0.25 0.25 0 0 1 30.75 34L30.25 34A0.25 0.25 0 0 1 30 33.75L30 33.25A0.25 0.25 0 0 0 29.75 33L29.25 33A0.25 0.25 0 0 0 29 33.25L29 33.75A0.25 0.25 0 0 0 29.25 34L29.75 34A0.25 0.25 0 0 1 30 34.25L30 34.75A0.25 0.25 0 0 0 30.25 35L30.75 35A0.25 0.25 0 0 0 31 34.75L31 34.25A0.25 0.25 0 0 1 31.25 34L31.75 34A0.25 0.25 0 0 1 32 34.25L32 34.75A0.25 0.25 0 0 0 32.25 35L32.75 35A0.25 0.25 0 0 0 33 34.75L33 34.25A0.25 0.25 0 0 1 33.25 34L33.75 34A0.25 0.25 0 0 0 34 33.75L34 32.25A0.25 0.25 0 0 0 33.75 32L33.25 32A0.25 0.25 0 0 0 33 32.25ZM20 34.25L20 34.75A0.25 0.25 0 0 0 20.25 35L20.75 35A0.25 0.25 0 0 0 21 34.75L21 34.25A0.25 0.25 0 0 0 20.75 34L20.25 34A0.25 0.25 0 0 0 20 34.25ZM36 34.25L36 36.75A0.25 0.25 0 0 0 36.25 37L36.75 37A0.25 0.25 0 0 0 37 36.75L37 34.25A0.25 0.25 0 0 0 36.75 34L36.25 34A0.25 0.25 0 0 0 36 34.25ZM0 0.25L0 6.75A0.25 0.25 0 0 0 0.25 7L6.75 7A0.25 0.25 0 0 0 7 6.75L7 0.25A0.25 0.25 0 0 0 6.75 0L0.25 0A0.25 0.25 0 0 0 0 0.25ZM1 1.25L1 5.75A0.25 0.25 0 0 0 1.25 6L5.75 6A0.25 0.25 0 0 0 6 5.75L6 1.25A0.25 0.25 0 0 0 5.75 1L1.25 1A0.25 0.25 0 0 0 1 1.25ZM2 2.25L2 4.75A0.25 0.25 0 0 0 2.25 5L4.75 5A0.25 0.25 0 0 0 5 4.75L5 2.25A0.25 0.25 0 0 0 4.75 2L2.25 2A0.25 0.25 0 0 0 2 2.25ZM30 0.25L30 6.75A0.25 0.25 0 0 0 30.25 7L36.75 7A0.25 0.25 0 0 0 37 6.75L37 0.25A0.25 0.25 0 0 0 36.75 0L30.25 0A0.25 0.25 0 0 0 30 0.25ZM31 1.25L31 5.75A0.25 0.25 0 0 0 31.25 6L35.75 6A0.25 0.25 0 0 0 36 5.75L36 1.25A0.25 0.25 0 0 0 35.75 1L31.25 1A0.25 0.25 0 0 0 31 1.25ZM32 2.25L32 4.75A0.25 0.25 0 0 0 32.25 5L34.75 5A0.25 0.25 0 0 0 35 4.75L35 2.25A0.25 0.25 0 0 0 34.75 2L32.25 2A0.25 0.25 0 0 0 32 2.25ZM0 30.25L0 36.75A0.25 0.25 0 0 0 0.25 37L6.75 37A0.25 0.25 0 0 0 7 36.75L7 30.25A0.25 0.25 0 0 0 6.75 30L0.25 30A0.25 0.25 0 0 0 0 30.25ZM1 31.25L1 35.75A0.25 0.25 0 0 0 1.25 36L5.75 36A0.25 0.25 0 0 0 6 35.75L6 31.25A0.25 0.25 0 0 0 5.75 31L1.25 31A0.25 0.25 0 0 0 1 31.25ZM2 32.25L2 34.75A0.25 0.25 0 0 0 2.25 35L4.75 35A0.25 0.25 0 0 0 5 34.75L5 32.25A0.25 0.25 0 0 0 4.75 32L2.25 32A0.25 0.25 0 0 0 2 32.25Z" fill="#000000"/></g></g></svg>
