<?xml version="1.0" encoding="UTF-8"?>
<svg xmlns="http://www.w3.org/2000/svg" version="1.1" width="500" height="500" viewBox="0 0 500 500"><rect x="0" y="0" width="500" height="500" fill="#ffffff"/><g transform="scale(13.514)"><g transform="translate(0,0)"><path fill-rule="evenodd" d="M8 0.25L8 1.75A0.25 0.25 0 0 0 8.25 2L8.75 2A0.25 0.25 0 0 1 9 2.25L9 2.75A0.25 0.25 0 0 1 8.75 3L8.25 3A0.25 0.25 0 0 0 8 3.25L8 6.75A0.25 0.25 0 0 0 8.25 7L8.75 7A0.25 0.25 0 0 1 9 7.25L9 8.75A0.25 0.25 0 0 1 8.75 9L7.25 9A0.25 0.25 0 0 1 7 8.75L7 8.25A0.25 0.25 0 0 0 6.75 8L6.25 8A0.25 0.25 0 0 0 6 8.25L6 8.75A0.25 0.25 0 0 0 6.25 9L6.75 9A0.25 0.25 0 0 1 7 9.25L7 9.75A0.25 0.25 0 0 1 6.75 10L6.25 10A0.25 0.25 0 0 0 6 10.25L6 10.75A0.25 0.25 0 0 1 5.75 11L5.25 11A0.25 0.25 0 0 1 5 10.75L5 9.25A0.25 0.25 0 0 0 4.75 9L4.25 9A0.25 0.25 0 0 1 4 8.75L4 8.25A0.25 0.25 0 0 0 3.75 8L3.25 8A0.25 0.25 0 0 0 3 8.25L3 8.75A0.25 0.25 0 0 1 2.75 9L2.25 9A0.25 0.25 0 0 0 2 9.25L2 9.75A0.25 0.25 0 0 1 1.75 10L1.25 10A0.25 0.25 0 0 1 1 9.75L1 9.25A0.25 0.25 0 0 0 0.75 9L0.25 9A0.25 0.25 0 0 0 0 9.25L0 10.75A0.25 0.25 0 0 0 0.25 11L2.75 11A0.25 0.25 0 0 1 3 11.25L3 12.75A0.25 0.25 0 0 0 3.25 13L3.75 13A0.25 0.25 0 0 1 4 13.25L4 14.75A0.25 0.25 0 0 1 3.75 15L3.25 15A0.25 0.25 0 0 1 3 14.75L3 14.25A0.25 0.25 0 0 0 2.75 14L2.25 14A0.25 0.25 0 0 1 2 13.75L2 13.25A0.25 0.25 0 0 0 1.75 13L1.25 13A0.25 0.25 0 0 1 1 12.75L1 12.25A0.25 0.25 0 0 0 0.75 12L0.25 12A0.25 0.25 0 0 0 0 12.25L0 12.75A0.25 0.25 0 0 0 0.25 13L0.75 13A0.25 0.25 0 0 1 1 13.25L1 13.75A0.25 0.25 0 0 1 0.75 14L0.25 14A0.25 0.25 0 0 0 0 14.25L0 15.75A0.25 0.25 0 0 0 0.25 16L0.75 16A0.25 0.25 0 0 1 1 16.25L1 16.75A0.25 0.25 0 0 0 1.25 17L1.75 17A0.25 0.25 0 0 1 2 17.25L2 17.75A0.25 0.25 0 0 1 1.75 18L1.25 18A0.25 0.25 0 0 0 1 18.25L1 18.75A0.25 0.25 0 0 1 0.75 19L0.25 19A0.25 0.25 0 0 0 0 19.25L0 21.75A0.25 0.25 0 0 0 0.25 22L0.75 22A0.25 0.25 0 0 1 1 22.25L1 22.75A0.25 0.25 0 0 0 1.25 23L1.75 23A0.25 0.25 0 0 0 2 22.75L2 22.25A0.25 0.25 0 0 1 2.25 22L4.75 22A0.25 0.25 0 0 1 5 22.25L5 22.75A0.25 0.25 0 0 1 4.75 23L4.25 23A0.25 0.25 0 0 0 4 23.25L4 23.75A0.25 0.25 0 0 1 3.75 24L2.25 24A0.25 0.25 0 0 0 2 24.25L2 24.75A0.25 0.25 0 0 0 2.25 25L4.75 25A0.25 0.25 0 0 1 5 25.25L5 25.75A0.25 0.25 0 0 1 4.75 26L2.25 26A0.25 0.25 0 0 0 2 26.25L2 26.75A0.25 0.25 0 0 1 1.75 27L1.25 27A0.25 0.25 0 0 1 1 26.75L1 26.25A0.25 0.25 0 0 0 0.75 26L0.25 26A0.25 0.25 0 0 0 0 26.25L0 26.75A0.25 0.25 0 0 0 0.25 27L0.75 27A0.25 0.25 0 0 1 1 27.25L1 27.75A0.25 0.25 0 0 1 0.75 28L0.25 28A0.25 0.25 0 0 0 0 28.25L0 28.75A0.25 0.25 0 0 0 0.25 29L1.75 29A0.25 0.25 0 0 0 2 28.75L2 27.25A0.25 0.25 0 0 1 2.25 27L2.75 27A0.25 0.25 0 0 1 3 27.25L3 28.75A0.25 0.25 0 0 0 3.25 29L3.75 29A0.25 0.25 0 0 0 4 28.75L4 27.25A0.25 0.25 0 0 1 4.25 27L4.75 27A0.25 0.25 0 0 0 5 26.75L5 26.25A0.25 0.25 0 0 1 5.25 26L5.75 26A0.25 0.25 0 0 1 6 26.25L6 26.75A0.25 0.25 0 0 0 6.25 27L6.75 27A0.25 0.25 0 0 0 7 26.75L7 26.25A0.25 0.25 0 0 0 6.75 26L6.25 26A0.25 0.25 0 0 1 6 25.75L6 25.25A0.25 0.25 0 0 1 6.25 25L7.75 25A0.25 0.25 0 0 1 8 25.25L8 25.75A0.25 0.25 0 0 0 8.25 26L8.75 26A0.25 0.25 0 0 1 9 26.25L9 26.75A0.25 0.25 0 0 1 8.75 27L8.25 27A0.25 0.25 0 0 0 8 27.25L8 27.75A0.25 0.25 0 0 1 7.75 28L5.25 28A0.25 0.25 0 0 0 5 28.25L5 28.75A0.25 0.25 0 0 0 5.25 29L7.75 29A0.25 0.25 0 0 1 8 29.25L8 29.75A0.25 0.25 0 0 0 8.25 30L8.75 30A0.25 0.25 0 0 1 9 30.25L9 31.75A0.25 0.25 0 0 0 9.25 32L9.75 32A0.25 0.25 0 0 1 10 32.25L10 32.75A0.25 0.25 0 0 0 10.25 33L10.75 33A0.25 0.25 0 0 1 11 33.25L11 34.75A0.25 0.25 0 0 0 11.25 35L11.75 35A0.25 0.25 0 0 1 12 35.25L12 35.75A0.25 0.25 0 0 1 11.75 36L10.25 36A0.25 0.25 0 0 1 10 35.75L10 35.25A0.25 0.25 0 0 0 9.75 35L9.25 35A0.25 0.25 0 0 0 9 35.25L9 36.75A0.25 0.25 0 0 0 9.25 37L11.75 37A0.25 0.25 0 0 0 12 36.75L12 36.25A0.25 0.25 0 0 1 12.25 36L12.75 36A0.25 0.25 0 0 1 13 36.25L13 36.75A0.25 0.25 0 0 0 13.25 37L14.75 37A0.25 0.25 0 0 0 15 36.75L15 36.25A0.25 0.25 0 0 1 15.25 36L15.75 36A0.25 0.25 0 0 0 16 35.75L16 35.25A0.25 0.25 0 0 0 15.75 35L14.25 35A0.25 0.25 0 0 1 14 34.75L14 34.25A0.25 0.25 0 0 0 13.75 34L13.25 34A0.25 0.25 0 0 1 13 33.75L13 33.25A0.25 0.25 0 0 1 13.25 33L14.75 33A0.25 0.25 0 0 1 15 33.25L15 33.75A0.25 0.25 0 0 0 15.25 34L16.75 34A0.25 0.25 0 0 1 17 34.25L17 36.75A0.25 0.25 0 0 0 17.25 37L19.75 37A0.25 0.25 0 0 0 20 36.75L20 36.25A0.25 0.25 0 0 0 19.75 36L19.25 36A0.25 0.25 0 0 1 19 35.75L19 35.25A0.25 0.25 0 0 0 18.75 35L18.25 35A0.25 0.25 0 0 1 18 34.75L18 34.25A0.25 0.25 0 0 1 18.25 34L18.75 34A0.25 0.25 0 0 0 19 33.75L19 33.25A0.25 0.25 0 0 0 18.75 33L18.25 33A0.25 0.25 0 0 1 18 32.75L18 32.25A0.25 0.25 0 0 1 18.25 32L18.75 32A0.25 0.25 0 0 0 19 31.75L19 31.25A0.25 0.25 0 0 1 19.25 31L19.75 31A0.25 0.25 0 0 1 20 31.25L20 33.75A0.25 0.25 0 0 0 20.25 34L20.75 34A0.25 0.25 0 0 1 21 34.25L21 36.75A0.25 0.25 0 0 0 21.25 37L23.75 37A0.25 0.25 0 0 0 24 36.75L24 36.25A0.25 0.25 0 0 1 24.25 36L24.75 36A0.25 0.25 0 0 1 25 36.25L25 36.75A0.25 0.25 0 0 0 25.25 37L25.75 37A0.25 0.25 0 0 0 26 36.75L26 35.25A0.25 0.25 0 0 1 26.25 35L26.75 35A0.25 0.25 0 0 1 27 35.25L27 36.75A0.25 0.25 0 0 0 27.25 37L29.75 37A0.25 0.25 0 0 0 30 36.75L30 36.25A0.25 0.25 0 0 0 29.75 36L29.25 36A0.25 0.25 0 0 1 29 35.75L29 35.25A0.25 0.25 0 0 1 29.25 35L29.75 35A0.25 0.25 0 0 0 30 34.75L30 33.25A0.25 0.25 0 0 1 30.25 33L30.75 33A0.25 0.25 0 0 1 31 33.25L31 33.75A0.25 0.25 0 0 0 31.25 34L31.75 34A0.25 0.25 0 0 1 32 34.25L32 34.75A0.25 0.25 0 0 1 31.75 35L31.25 35A0.25 0.25 0 0 0 31 35.25L31 36.75A0.25 0.25 0 0 0 31.25 37L31.75 37A0.25 0.25 0 0 0 32 36.75L32 35.25A0.25 0.25 0 0 1 32.25 35L32.75 35A0.25 0.25 0 0 0 33 34.75L33 34.25A0.25 0.25 0 0 1 33.25 34L33.75 34A0.25 0.25 0 0 0 34 33.75L34 32.25A0.25 0.25 0 0 1 34.25 32L35.75 32A0.25 0.25 0 0 0 36 31.75L36 31.25A0.25 0.25 0 0 1 36.25 31L36.75 31A0.25 0.25 0 0 0 37 30.75L37 24.25A0.25 0.25 0 0 0 36.75 24L36.25 24A0.25 0.25 0 0 1 36 23.75L36 23.25A0.25 0.25 0 0 1 36.25 23L36.75 23A0.25 0.25 0 0 0 37 22.75L37 22.25A0.25 0.25 0 0 0 36.75 22L35.25 22A0.25 0.25 0 0 0 35 22.25L35 24.75A0.25 0.25 0 0 1 34.75 25L34.25 25A0.25 0.25 0 0 0 34 25.25L34 25.75A0.25 0.25 0 0 0 34.25 26L34.75 26A0.25 0.25 0 0 1 35 26.25L35 27.75A0.25 0.25 0 0 1 34.75 28L31.25 28A0.25 0.25 0 0 1 31 27.75L31 27.25A0.25 0.25 0 0 1 31.25 27L32.75 27A0.25 0.25 0 0 0 33 26.75L33 26.25A0.25 0.25 0 0 0 32.75 26L31.25 26A0.25 0.25 0 0 1 31 25.75L31 25.25A0.25 0.25 0 0 1 31.25 25L31.75 25A0.25 0.25 0 0 0 32 24.75L32 24.25A0.25 0.25 0 0 1 32.25 24L33.75 24A0.25 0.25 0 0 0 34 23.75L34 20.25A0.25 0.25 0 0 1 34.25 20L34.75 20A0.25 0.25 0 0 1 35 20.25L35 20.75A0.25 0.25 0 0 0 35.25 21L35.75 21A0.25 0.25 0 0 0 36 20.75L36 19.25A0.25 0.25 0 0 1 36.25 19L36.75 19A0.25 0.25 0 0 0 37 18.75L37 12.25A0.25 0.25 0 0 0 36.75 12L36.25 12A0.25 0.25 0 0 0 36 12.25L36 12.75A0.25 0.25 0 0 1 35.75 13L35.25 13A0.25 0.25 0 0 0 35 13.25L35 13.75A0.25 0.25 0 0 1 34.75 14L34.25 14A0.25 0.25 0 0 1 34 13.75L34 13.25A0.25 0.25 0 0 0 33.75 13L33.25 13A0.25 0.25 0 0 0 33 13.25L33 13.75A0.25 0.25 0 0 1 32.75 14L32.25 14A0.25 0.25 0 0 1 32 13.75L32 13.25A0.25 0.25 0 0 0 31.75 13L31.25 13A0.25 0.25 0 0 1 31 12.75L31 12.25A0.25 0.25 0 0 0 30.75 12L29.25 12A0.25 0.25 0 0 0 29 12.25L29 12.75A0.25 0.25 0 0 1 28.75 13L28.25 13A0.25 0.25 0 0 0 28 13.25L28 13.75A0.25 0.25 0 0 0 28.25 14L28.75 14A0.25 0.25 0 0 0 29 13.75L29 13.25A0.25 0.25 0 0 1 29.25 13L29.75 13A0.25 0.25 0 0 1 30 13.25L30 13.75A0.25 0.25 0 0 0 30.25 14L30.75 14A0.25 0.25 0 0 1 31 14.25L31 14.75A0.25 0.25 0 0 1 30.75 15L28.25 15A0.25 0.25 0 0 0 28 15.25L28 15.75A0.25 0.25 0 0 1 27.75 16L27.25 16A0.25 0.25 0 0 0 27 16.25L27 16.75A0.25 0.25 0 0 1 26.75 17L25.25 17A0.25 0.25 0 0 1 25 16.75L25 16.25A0.25 0.25 0 0 1 25.25 16L25.75 16A0.25 0.25 0 0 0 26 15.75L26 15.25A0.25 0.25 0 0 0 25.75 15L25.25 15A0.25 0.25 0 0 1 25 14.75L25 14.25A0.25 0.25 0 0 1 25.25 14L25.75 14A0.25 0.25 0 0 0 26 13.75L26 11.25A0.25 0.25 0 0 0 25.75 11L25.25 11A0.25 0.25 0 0 1 25 10.75L25 10.25A0.25 0.25 0 0 0 24.75 10L24.25 10A0.25 0.25 0 0 0 24 10.25L24 11.75A0.25 0.25 0 0 0 24.25 12L24.75 12A0.25 0.25 0 0 1 25 12.25L25 13.75A0.25 0.25 0 0 1 24.75 14L23.25 14A0.25 0.25 0 0 1 23 13.75L23 13.25A0.25 0.25 0 0 0 22.75 13L21.25 13A0.25 0.25 0 0 0 21 13.25L21 14.75A0.25 0.25 0 0 0 21.25 15L21.75 15A0.25 0.25 0 0 1 22 15.25L22 15.75A0.25 0.25 0 0 1 21.75 16L20.25 16A0.25 0.25 0 0 1 20 15.75L20 15.25A0.25 0.25 0 0 0 19.75 15L18.25 15A0.25 0.25 0 0 0 18 15.25L18 15.75A0.25 0.25 0 0 1 17.75 16L16.25 16A0.25 0.25 0 0 0 16 16.25L16 16.75A0.25 0.25 0 0 0 16.25 17L16.75 17A0.25 0.25 0 0 1 17 17.25L17 17.75A0.25 0.25 0 0 0 17.25 18L18.75 18A0.25 0.25 0 0 1 19 18.25L19 18.75A0.25 0.25 0 0 1 18.75 19L17.25 19A0.25 0.25 0 0 0 17 19.25L17 19.75A0.25 0.25 0 0 0 17.25 20L17.75 20A0.25 0.25 0 0 1 18 20.25L18 21.75A0.25 0.25 0 0 1 17.75 22L17.25 22A0.25 0.25 0 0 0 17 22.25L17 22.75A0.25 0.25 0 0 1 16.75 23L15.25 23A0.25 0.25 0 0 1 15 22.75L15 21.25A0.25 0.25 0 0 1 15.25 21L15.75 21A0.25 0.25 0 0 0 16 20.75L16 20.25A0.25 0.25 0 0 0 15.75 20L15.25 20A0.25 0.25 0 0 1 15 19.75L15 17.25A0.25 0.25 0 0 0 14.75 17L13.25 17A0.25 0.25 0 0 1 13 16.75L13 16.25A0.25 0.25 0 0 1 13.25 16L13.75 16A0.25 0.25 0 0 0 14 15.75L14 15.25A0.25 0.25 0 0 0 13.75 15L10.25 15A0.25 0.25 0 0 1 10 14.75L10 14.25A0.25 0.25 0 0 1 10.25 14L11.75 14A0.25 0.25 0 0 0 12 13.75L12 13.25A0.25 0.25 0 0 1 12.25 13L12.75 13A0.25 0.25 0 0 1 13 13.25L13 13.75A0.25 0.25 0 0 0 13.25 14L14.75 14A0.25 0.25 0 0 1 15 14.25L15 14.75A0.25 0.25 0 0 0 15.25 15L16.75 15A0.25 0.25 0 0 0 17 14.75L17 14.25A0.25 0.25 0 0 0 16.75 14L16.25 14A0.25 0.25 0 0 1 16 13.75L16 10.25A0.25 0.25 0 0 0 15.75 10L14.25 10A0.25 0.25 0 0 0 14 10.25L14 10.75A0.25 0.25 0 0 0 14.25 11L14.75 11A0.25 0.25 0 0 1 15 11.25L15 11.75A0.25 0.25 0 0 1 14.75 12L12.25 12A0.25 0.25 0 0 1 12 11.75L12 10.25A0.25 0.25 0 0 0 11.75 10L11.25 10A0.25 0.25 0 0 1 11 9.75L11 9.25A0.25 0.25 0 0 0 10.75 9L10.25 9A0.25 0.25 0 0 1 10 8.75L10 8.25A0.25 0.25 0 0 1 10.25 8L11.75 8A0.25 0.25 0 0 1 12 8.25L12 8.75A0.25 0.25 0 0 0 12.25 9L12.75 9A0.25 0.25 0 0 0 13 8.75L13 8.25A0.25 0.25 0 0 1 13.25 8L15.75 8A0.25 0.25 0 0 1 16 8.25L16 8.75A0.25 0.25 0 0 0 16.25 9L16.75 9A0.25 0.25 0 0 0 17 8.75L17 6.25A0.25 0.25 0 0 0 16.75 6L16.25 6A0.25 0.25 0 0 0 16 6.25L16 6.75A0.25 0.25 0 0 1 15.75 7L15.25 7A0.25 0.25 0 0 1 15 6.75L15 6.25A0.25 0.25 0 0 0 14.75 6L14.25 6A0.25 0.25 0 0 0 14 6.25L14 6.75A0.25 0.25 0 0 1 13.75 7L13.25 7A0.25 0.25 0 0 1 13 6.75L13 6.25A0.25 0.25 0 0 0 12.75 6L12.25 6A0.25 0.25 0 0 0 12 6.25L12 6.75A0.25 0.25 0 0 1 11.75 7L11.25 7A0.25 0.25 0 0 1 11 6.75L11 5.25A0.25 0.25 0 0 1 11.25 5L11.75 5A0.25 0.25 0 0 0 12 4.75L12 4.25A0.25 0.25 0 0 0 11.75 4L11.25 4A0.25 0.25 0 0 0 11 4.25L11 4.75A0.25 0.25 0 0 1 10.75 5L10.25 5A0.25 0.25 0 0 0 10 5.25L10 6.75A0.25 0.25 0 0 1 9.75 7L9.25 7A0.25 0.25 0 0 1 9 6.75L9 4.25A0.25 0.25 0 0 1 9.25 4L9.75 4A0.25 0.25 0 0 0 10 3.75L10 3.25A0.25 0.25 0 0 1 10.25 3L11.75 3A0.25 0.25 0 0 0 12 2.75L12 2.25A0.25 0.25 0 0 0 11.75 2L11.25 2A0.25 0.25 0 0 1 11 1.75L11 1.25A0.25 0.25 0 0 1 11.25 1L16.75 1A0.25 0.25 0 0 0 17 0.75L17 0.25A0.25 0.25 0 0 0 16.75 0L11.25 0A0.25 0.25 0 0 0 11 0.25L11 0.75A0.25 0.25 0 0 1 10.75 1L9.25 1A0.25 0.25 0 0 1 9 0.75L9 0.25A0.25 0.25 0 0 0 8.75 0L8.25 0A0.25 0.25 0 0 0 8 0.25ZM19 0.25L19 0.75A0.25 0.25 0 0 1 18.75 1L18.25 1A0.25 0.25 0 0 0 18 1.25L18 1.75A0.25 0.25 0 0 0 18.25 2L18.75 2A0.25 0.25 0 0 1 19 2.25L19 3.75A0.25 0.25 0 0 1 18.75 4L18.25 4A0.25 0.25 0 0 1 18 3.75L18 3.25A0.25 0.25 0 0 0 17.75 3L17.25 3A0.25 0.25 0 0 0 17 3.25L17 3.75A0.25 0.25 0 0 0 17.25 4L17.75 4A0.25 0.25 0 0 1 18 4.25L18 4.75A0.25 0.25 0 0 0 18.25 5L18.75 5A0.25 0.25 0 0 1 19 5.25L19 5.75A0.25 0.25 0 0 1 18.75 6L18.25 6A0.25 0.25 0 0 0 18 6.25L18 6.75A0.25 0.25 0 0 0 18.25 7L18.75 7A0.25 0.25 0 0 1 19 7.25L19 7.75A0.25 0.25 0 0 0 19.25 8L19.75 8A0.25 0.25 0 0 1 20 8.25L20 8.75A0.25 0.25 0 0 1 19.75 9L19.25 9A0.25 0.25 0 0 0 19 9.25L19 9.75A0.25 0.25 0 0 0 19.25 10L19.75 10A0.25 0.25 0 0 0 20 9.75L20 9.25A0.25 0.25 0 0 1 20.25 9L21.75 9A0.25 0.25 0 0 0 22 8.75L22 8.25A0.25 0.25 0 0 1 22.25 8L22.75 8A0.25 0.25 0 0 1 23 8.25L23 8.75A0.25 0.25 0 0 0 23.25 9L24.75 9A0.25 0.25 0 0 0 25 8.75L25 8.25A0.25 0.25 0 0 1 25.25 8L25.75 8A0.25 0.25 0 0 1 26 8.25L26 8.75A0.25 0.25 0 0 0 26.25 9L26.75 9A0.25 0.25 0 0 1 27 9.25L27 9.75A0.25 0.25 0 0 0 27.25 10L27.75 10A0.25 0.25 0 0 0 28 9.75L28 9.25A0.25 0.25 0 0 1 28.25 9L28.75 9A0.25 0.25 0 0 1 29 9.25L29 9.75A0.25 0.25 0 0 0 29.25 10L29.75 10A0.25 0.25 0 0 1 30 10.25L30 10.75A0.25 0.25 0 0 0 30.25 11L30.75 11A0.25 0.25 0 0 0 31 10.75L31 10.25A0.25 0.25 0 0 0 30.75 10L30.25 10A0.25 0.25 0 0 1 30 9.75L30 9.25A0.25 0.25 0 0 0 29.75 9L29.25 9A0.25 0.25 0 0 1 29 8.75L29 8.25A0.25 0.25 0 0 0 28.75 8L26.25 8A0.25 0.25 0 0 1 26 7.75L26 7.25A0.25 0.25 0 0 1 26.25 7L26.75 7A0.25 0.25 0 0 0 27 6.75L27 6.25A0.25 0.25 0 0 1 27.25 6L27.75 6A0.25 0.25 0 0 1 28 6.25L28 6.75A0.25 0.25 0 0 0 28.25 7L28.75 7A0.25 0.25 0 0 0 29 6.75L29 5.25A0.25 0.25 0 0 0 28.75 5L28.25 5A0.25 0.25 0 0 1 28 4.75L28 3.25A0.25 0.25 0 0 1 28.25 3L28.75 3A0.25 0.25 0 0 0 29 2.75L29 2.25A0.25 0.25 0 0 0 28.75 2L28.25 2A0.25 0.25 0 0 1 28 1.75L28 0.25A0.25 0.25 0 0 0 27.75 0L25.25 0A0.25 0.25 0 0 0 25 0.25L25 0.75A0.25 0.25 0 0 1 24.75 1L24.25 1A0.25 0.25 0 0 0 24 1.25L24 1.75A0.25 0.25 0 0 1 23.75 2L23.25 2A0.25 0.25 0 0 0 23 2.25L23 2.75A0.25 0.25 0 0 1 22.75 3L22.25 3A0.25 0.25 0 0 1 22 2.75L22 1.25A0.25 0.25 0 0 0 21.75 1L21.25 1A0.25 0.25 0 0 1 21 0.75L21 0.25A0.25 0.25 0 0 0 20.75 0L19.25 0A0.25 0.25 0 0 0 19 0.25ZM20 1.25L20 3.75A0.25 0.25 0 0 1 19.75 4L19.25 4A0.25 0.25 0 0 0 19 4.25L19 4.75A0.25 0.25 0 0 0 19.25 5L21.75 5A0.25 0.25 0 0 1 22 5.25L22 5.75A0.25 0.25 0 0 1 21.75 6L21.25 6A0.25 0.25 0 0 0 21 6.25L21 6.75A0.25 0.25 0 0 1 20.75 7L20.25 7A0.25 0.25 0 0 1 20 6.75L20 6.25A0.25 0.25 0 0 0 19.75 6L19.25 6A0.25 0.25 0 0 0 19 6.25L19 6.75A0.25 0.25 0 0 0 19.25 7L19.75 7A0.25 0.25 0 0 1 20 7.25L20 7.75A0.25 0.25 0 0 0 20.25 8L20.75 8A0.25 0.25 0 0 0 21 7.75L21 7.25A0.25 0.25 0 0 1 21.25 7L21.75 7A0.25 0.25 0 0 0 22 6.75L22 6.25A0.25 0.25 0 0 1 22.25 6L22.75 6A0.25 0.25 0 0 1 23 6.25L23 7.75A0.25 0.25 0 0 0 23.25 8L24.75 8A0.25 0.25 0 0 0 25 7.75L25 7.25A0.25 0.25 0 0 1 25.25 7L25.75 7A0.25 0.25 0 0 0 26 6.75L26 6.25A0.25 0.25 0 0 1 26.25 6L26.75 6A0.25 0.25 0 0 0 27 5.75L27 4.25A0.25 0.25 0 0 0 26.75 4L25.25 4A0.25 0.25 0 0 1 25 3.75L25 3.25A0.25 0.25 0 0 1 25.25 3L25.75 3A0.25 0.25 0 0 0 26 2.75L26 2.25A0.25 0.25 0 0 1 26.25 2L26.75 2A0.25 0.25 0 0 1 27 2.25L27 2.75A0.25 0.25 0 0 0 27.25 3L27.75 3A0.25 0.25 0 0 0 28 2.75L28 2.25A0.25 0.25 0 0 0 27.75 2L27.25 2A0.25 0.25 0 0 1 27 1.75L27 1.25A0.25 0.25 0 0 0 26.75 1L25.25 1A0.25 0.25 0 0 0 25 1.25L25 1.75A0.25 0.25 0 0 1 24.75 2L24.25 2A0.25 0.25 0 0 0 24 2.25L24 2.75A0.25 0.25 0 0 1 23.75 3L23.25 3A0.25 0.25 0 0 0 23 3.25L23 3.75A0.25 0.25 0 0 1 22.75 4L21.25 4A0.25 0.25 0 0 1 21 3.75L21 1.25A0.25 0.25 0 0 0 20.75 1L20.25 1A0.25 0.25 0 0 0 20 1.25ZM13 2.25L13 2.75A0.25 0.25 0 0 0 13.25 3L13.75 3A0.25 0.25 0 0 1 14 3.25L14 3.75A0.25 0.25 0 0 1 13.75 4L13.25 4A0.25 0.25 0 0 0 13 4.25L13 4.75A0.25 0.25 0 0 0 13.25 5L13.75 5A0.25 0.25 0 0 0 14 4.75L14 4.25A0.25 0.25 0 0 1 14.25 4L15.75 4A0.25 0.25 0 0 0 16 3.75L16 2.25A0.25 0.25 0 0 0 15.75 2L15.25 2A0.25 0.25 0 0 0 15 2.25L15 2.75A0.25 0.25 0 0 1 14.75 3L14.25 3A0.25 0.25 0 0 1 14 2.75L14 2.25A0.25 0.25 0 0 0 13.75 2L13.25 2A0.25 0.25 0 0 0 13 2.25ZM23 5.25L23 5.75A0.25 0.25 0 0 0 23.25 6L23.75 6A0.25 0.25 0 0 1 24 6.25L24 6.75A0.25 0.25 0 0 0 24.25 7L24.75 7A0.25 0.25 0 0 0 25 6.75L25 6.25A0.25 0.25 0 0 0 24.75 6L24.25 6A0.25 0.25 0 0 1 24 5.75L24 5.25A0.25 0.25 0 0 0 23.75 5L23.25 5A0.25 0.25 0 0 0 23 5.25ZM31 8.25L31 8.75A0.25 0.25 0 0 0 31.25 9L32.75 9A0.25 0.25 0 0 1 33 9.25L33 9.75A0.25 0.25 0 0 1 32.75 10L32.25 10A0.25 0.25 0 0 0 32 10.25L32 11.75A0.25 0.25 0 0 0 32.25 12L32.75 12A0.25 0.25 0 0 0 33 11.75L33 11.25A0.25 0.25 0 0 1 33.25 11L34.75 11A0.25 0.25 0 0 0 35 10.75L35 10.25A0.25 0.25 0 0 0 34.75 10L34.25 10A0.25 0.25 0 0 1 34 9.75L34 8.25A0.25 0.25 0 0 0 33.75 8L31.25 8A0.25 0.25 0 0 0 31 8.25ZM35 8.25L35 8.75A0.25 0.25 0 0 0 35.25 9L35.75 9A0.25 0.25 0 0 1 36 9.25L36 10.75A0.25 0.25 0 0 0 36.25 11L36.75 11A0.25 0.25 0 0 0 37 10.75L37 8.25A0.25 0.25 0 0 0 36.75 8L35.25 8A0.25 0.25 0 0 0 35 8.25ZM3 10.25L3 10.75A0.25 0.25 0 0 0 3.25 11L3.75 11A0.25 0.25 0 0 1 4 11.25L4 11.75A0.25 0.25 0 0 0 4.25 12L4.75 12A0.25 0.25 0 0 0 5 11.75L5 11.25A0.25 0.25 0 0 0 4.75 11L4.25 11A0.25 0.25 0 0 1 4 10.75L4 10.25A0.25 0.25 0 0 0 3.75 10L3.25 10A0.25 0.25 0 0 0 3 10.25ZM9 10.25L9 10.75A0.25 0.25 0 0 1 8.75 11L8.25 11A0.25 0.25 0 0 0 8 11.25L8 11.75A0.25 0.25 0 0 1 7.75 12L7.25 12A0.25 0.25 0 0 1 7 11.75L7 11.25A0.25 0.25 0 0 0 6.75 11L6.25 11A0.25 0.25 0 0 0 6 11.25L6 11.75A0.25 0.25 0 0 0 6.25 12L6.75 12A0.25 0.25 0 0 1 7 12.25L7 12.75A0.25 0.25 0 0 1 6.75 13L6.25 13A0.25 0.25 0 0 0 6 13.25L6 13.75A0.25 0.25 0 0 1 5.75 14L5.25 14A0.25 0.25 0 0 0 5 14.25L5 14.75A0.25 0.25 0 0 1 4.75 15L4.25 15A0.25 0.25 0 0 0 4 15.25L4 16.75A0.25 0.25 0 0 1 3.75 17L3.25 17A0.25 0.25 0 0 1 3 16.75L3 16.25A0.25 0.25 0 0 0 2.75 16L2.25 16A0.25 0.25 0 0 1 2 15.75L2 14.25A0.25 0.25 0 0 0 1.75 14L1.25 14A0.25 0.25 0 0 0 1 14.25L1 15.75A0.25 0.25 0 0 0 1.25 16L1.75 16A0.25 0.25 0 0 1 2 16.25L2 16.75A0.25 0.25 0 0 0 2.25 17L2.75 17A0.25 0.25 0 0 1 3 17.25L3 18.75A0.25 0.25 0 0 0 3.25 19L3.75 19A0.25 0.25 0 0 0 4 18.75L4 17.25A0.25 0.25 0 0 1 4.25 17L5.75 17A0.25 0.25 0 0 1 6 17.25L6 17.75A0.25 0.25 0 0 0 6.25 18L7.75 18A0.25 0.25 0 0 0 8 17.75L8 16.25A0.25 0.25 0 0 0 7.75 16L7.25 16A0.25 0.25 0 0 1 7 15.75L7 15.25A0.25 0.25 0 0 1 7.25 15L7.75 15A0.25 0.25 0 0 0 8 14.75L8 12.25A0.25 0.25 0 0 1 8.25 12L8.75 12A0.25 0.25 0 0 1 9 12.25L9 12.75A0.25 0.25 0 0 0 9.25 13L11.75 13A0.25 0.25 0 0 0 12 12.75L12 12.25A0.25 0.25 0 0 0 11.75 12L10.25 12A0.25 0.25 0 0 1 10 11.75L10 11.25A0.25 0.25 0 0 1 10.25 11L10.75 11A0.25 0.25 0 0 0 11 10.75L11 10.25A0.25 0.25 0 0 0 10.75 10L9.25 10A0.25 0.25 0 0 0 9 10.25ZM21 10.25L21 11.75A0.25 0.25 0 0 0 21.25 12L21.75 12A0.25 0.25 0 0 0 22 11.75L22 10.25A0.25 0.25 0 0 0 21.75 10L21.25 10A0.25 0.25 0 0 0 21 10.25ZM17 11.25L17 11.75A0.25 0.25 0 0 0 17.25 12L18.75 12A0.25 0.25 0 0 1 19 12.25L19 12.75A0.25 0.25 0 0 1 18.75 13L18.25 13A0.25 0.25 0 0 0 18 13.25L18 13.75A0.25 0.25 0 0 0 18.25 14L19.75 14A0.25 0.25 0 0 0 20 13.75L20 11.25A0.25 0.25 0 0 0 19.75 11L17.25 11A0.25 0.25 0 0 0 17 11.25ZM27 11.25L27 11.75A0.25 0.25 0 0 0 27.25 12L27.75 12A0.25 0.25 0 0 0 28 11.75L28 11.25A0.25 0.25 0 0 0 27.75 11L27.25 11A0.25 0.25 0 0 0 27 11.25ZM6 14.25L6 14.75A0.25 0.25 0 0 1 5.75 15L5.25 15A0.25 0.25 0 0 0 5 15.25L5 15.75A0.25 0.25 0 0 0 5.25 16L5.75 16A0.25 0.25 0 0 1 6 16.25L6 16.75A0.25 0.25 0 0 0 6.25 17L6.75 17A0.25 0.25 0 0 0 7 16.75L7 16.25A0.25 0.25 0 0 0 6.75 16L6.25 16A0.25 0.25 0 0 1 6 15.75L6 15.25A0.25 0.25 0 0 1 6.25 15L6.75 15A0.25 0.25 0 0 0 7 14.75L7 14.25A0.25 0.25 0 0 0 6.75 14L6.25 14A0.25 0.25 0 0 0 6 14.25ZM22 14.25L22 14.75A0.25 0.25 0 0 0 22.25 15L22.75 15A0.25 0.25 0 0 1 23 15.25L23 15.75A0.25 0.25 0 0 0 23.25 16L24.75 16A0.25 0.25 0 0 0 25 15.75L25 15.25A0.25 0.25 0 0 0 24.75 15L23.25 15A0.25 0.25 0 0 1 23 14.75L23 14.25A0.25 0.25 0 0 0 22.75 14L22.25 14A0.25 0.25 0 0 0 22 14.25ZM33 14.25L33 14.75A0.25 0.25 0 0 1 32.75 15L32.25 15A0.25 0.25 0 0 0 32 15.25L32 16.75A0.25 0.25 0 0 0 32.25 17L32.75 17A0.25 0.25 0 0 0 33 16.75L33 16.25A0.25 0.25 0 0 1 33.25 16L34.75 16A0.25 0.25 0 0 1 35 16.25L35 16.75A0.25 0.25 0 0 1 34.75 17L34.25 17A0.25 0.25 0 0 0 34 17.25L34 17.75A0.25 0.25 0 0 0 34.25 18L35.75 18A0.25 0.25 0 0 0 36 17.75L36 14.25A0.25 0.25 0 0 0 35.75 14L35.25 14A0.25 0.25 0 0 0 35 14.25L35 14.75A0.25 0.25 0 0 1 34.75 15L34.25 15A0.25 0.25 0 0 1 34 14.75L34 14.25A0.25 0.25 0 0 0 33.75 14L33.25 14A0.25 0.25 0 0 0 33 14.25ZM9 15.25L9 15.75A0.25 0.25 0 0 0 9.25 16L9.75 16A0.25 0.25 0 0 1 10 16.25L10 17.75A0.25 0.25 0 0 0 10.25 18L11.75 18A0.25 0.25 0 0 0 12 17.75L12 16.25A0.25 0.25 0 0 0 11.75 16L10.25 16A0.25 0.25 0 0 1 10 15.75L10 15.25A0.25 0.25 0 0 0 9.75 15L9.25 15A0.25 0.25 0 0 0 9 15.25ZM18 16.25L18 16.75A0.25 0.25 0 0 0 18.25 17L19.75 17A0.25 0.25 0 0 1 20 17.25L20 18.75A0.25 0.25 0 0 1 19.75 19L19.25 19A0.25 0.25 0 0 0 19 19.25L19 21.75A0.25 0.25 0 0 1 18.75 22L18.25 22A0.25 0.25 0 0 0 18 22.25L18 22.75A0.25 0.25 0 0 1 17.75 23L17.25 23A0.25 0.25 0 0 0 17 23.25L17 23.75A0.25 0.25 0 0 1 16.75 24L16.25 24A0.25 0.25 0 0 0 16 24.25L16 24.75A0.25 0.25 0 0 0 16.25 25L16.75 25A0.25 0.25 0 0 0 17 24.75L17 24.25A0.25 0.25 0 0 1 17.25 24L19.75 24A0.25 0.25 0 0 1 20 24.25L20 24.75A0.25 0.25 0 0 1 19.75 25L18.25 25A0.25 0.25 0 0 0 18 25.25L18 25.75A0.25 0.25 0 0 1 17.75 26L16.25 26A0.25 0.25 0 0 0 16 26.25L16 26.75A0.25 0.25 0 0 0 16.25 27L16.75 27A0.25 0.25 0 0 1 17 27.25L17 27.75A0.25 0.25 0 0 1 16.75 28L16.25 28A0.25 0.25 0 0 0 16 28.25L16 28.75A0.25 0.25 0 0 0 16.25 29L16.75 29A0.25 0.25 0 0 1 17 29.25L17 29.75A0.25 0.25 0 0 0 17.25 30L19.75 30A0.25 0.25 0 0 1 20 30.25L20 30.75A0.25 0.25 0 0 0 20.25 31L20.75 31A0.25 0.25 0 0 0 21 30.75L21 30.25A0.25 0.25 0 0 0 20.75 30L20.25 30A0.25 0.25 0 0 1 20 29.75L20 29.25A0.25 0.25 0 0 1 20.25 29L20.75 29A0.25 0.25 0 0 0 21 28.75L21 28.25A0.25 0.25 0 0 1 21.25 28L21.75 28A0.25 0.25 0 0 1 22 28.25L22 30.75A0.25 0.25 0 0 0 22.25 31L22.75 31A0.25 0.25 0 0 1 23 31.25L23 31.75A0.25 0.25 0 0 0 23.25 32L25.75 32A0.25 0.25 0 0 0 26 31.75L26 30.25A0.25 0.25 0 0 0 25.75 30L25.25 30A0.25 0.25 0 0 0 25 30.25L25 30.75A0.25 0.25 0 0 1 24.75 31L24.25 31A0.25 0.25 0 0 1 24 30.75L24 28.25A0.25 0.25 0 0 1 24.25 28L24.75 28A0.25 0.25 0 0 1 25 28.25L25 28.75A0.25 0.25 0 0 0 25.25 29L26.75 29A0.25 0.25 0 0 0 27 28.75L27 28.25A0.25 0.25 0 0 1 27.25 28L27.75 28A0.25 0.25 0 0 0 28 27.75L28 26.25A0.25 0.25 0 0 1 28.25 26L28.75 26A0.25 0.25 0 0 0 29 25.75L29 23.25A0.25 0.25 0 0 1 29.25 23L29.75 23A0.25 0.25 0 0 1 30 23.25L30 23.75A0.25 0.25 0 0 0 30.25 24L31.75 24A0.25 0.25 0 0 0 32 23.75L32 23.25A0.25 0.25 0 0 0 31.75 23L31.25 23A0.25 0.25 0 0 1 31 22.75L31 22.25A0.25 0.25 0 0 1 31.25 22L32.75 22A0.25 0.25 0 0 0 33 21.75L33 21.25A0.25 0.25 0 0 0 32.75 21L31.25 21A0.25 0.25 0 0 0 31 21.25L31 21.75A0.25 0.25 0 0 1 30.75 22L29.25 22A0.25 0.25 0 0 1 29 21.75L29 21.25A0.25 0.25 0 0 1 29.25 21L29.75 21A0.25 0.25 0 0 0 30 20.75L30 19.25A0.25 0.25 0 0 1 30.25 19L30.75 19A0.25 0.25 0 0 1 31 19.25L31 19.75A0.25 0.25 0 0 0 31.25 20L33.75 20A0.25 0.25 0 0 0 34 19.75L34 19.25A0.25 0.25 0 0 0 33.75 19L32.25 19A0.25 0.25 0 0 1 32 18.75L32 18.25A0.25 0.25 0 0 0 31.75 18L30.25 18A0.25 0.25 0 0 0 30 18.25L30 18.75A0.25 0.25 0 0 1 29.75 19L29.25 19A0.25 0.25 0 0 0 29 19.25L29 20.75A0.25 0.25 0 0 1 28.75 21L26.25 21A0.25 0.25 0 0 1 26 20.75L26 19.25A0.25 0.25 0 0 1 26.25 19L27.75 19A0.25 0.25 0 0 0 28 18.75L28 17.25A0.25 0.25 0 0 1 28.25 17L28.75 17A0.25 0.25 0 0 0 29 16.75L29 16.25A0.25 0.25 0 0 0 28.75 16L28.25 16A0.25 0.25 0 0 0 28 16.25L28 16.75A0.25 0.25 0 0 1 27.75 17L27.25 17A0.25 0.25 0 0 0 27 17.25L27 17.75A0.25 0.25 0 0 1 26.75 18L26.25 18A0.25 0.25 0 0 0 26 18.25L26 18.75A0.25 0.25 0 0 1 25.75 19L25.25 19A0.25 0.25 0 0 1 25 18.75L25 17.25A0.25 0.25 0 0 0 24.75 17L24.25 17A0.25 0.25 0 0 0 24 17.25L24 17.75A0.25 0.25 0 0 1 23.75 18L23.25 18A0.25 0.25 0 0 0 23 18.25L23 19.75A0.25 0.25 0 0 1 22.75 20L21.25 20A0.25 0.25 0 0 1 21 19.75L21 17.25A0.25 0.25 0 0 0 20.75 17L20.25 17A0.25 0.25 0 0 1 20 16.75L20 16.25A0.25 0.25 0 0 0 19.75 16L18.25 16A0.25 0.25 0 0 0 18 16.25ZM13 18.25L13 19.75A0.25 0.25 0 0 0 13.25 20L13.75 20A0.25 0.25 0 0 0 14 19.75L14 18.25A0.25 0.25 0 0 0 13.75 18L13.25 18A0.25 0.25 0 0 0 13 18.25ZM1 19.25L1 19.75A0.25 0.25 0 0 0 1.25 20L1.75 20A0.25 0.25 0 0 1 2 20.25L2 20.75A0.25 0.25 0 0 0 2.25 21L2.75 21A0.25 0.25 0 0 0 3 20.75L3 20.25A0.25 0.25 0 0 0 2.75 20L2.25 20A0.25 0.25 0 0 1 2 19.75L2 19.25A0.25 0.25 0 0 0 1.75 19L1.25 19A0.25 0.25 0 0 0 1 19.25ZM6 19.25L6 19.75A0.25 0.25 0 0 0 6.25 20L6.75 20A0.25 0.25 0 0 1 7 20.25L7 20.75A0.25 0.25 0 0 1 6.75 21L5.25 21A0.25 0.25 0 0 1 5 20.75L5 20.25A0.25 0.25 0 0 0 4.75 20L4.25 20A0.25 0.25 0 0 0 4 20.25L4 20.75A0.25 0.25 0 0 0 4.25 21L4.75 21A0.25 0.25 0 0 1 5 21.25L5 21.75A0.25 0.25 0 0 0 5.25 22L6.75 22A0.25 0.25 0 0 1 7 22.25L7 22.75A0.25 0.25 0 0 1 6.75 23L5.25 23A0.25 0.25 0 0 0 5 23.25L5 24.75A0.25 0.25 0 0 0 5.25 25L5.75 25A0.25 0.25 0 0 0 6 24.75L6 24.25A0.25 0.25 0 0 1 6.25 24L7.75 24A0.25 0.25 0 0 1 8 24.25L8 24.75A0.25 0.25 0 0 0 8.25 25L8.75 25A0.25 0.25 0 0 0 9 24.75L9 21.25A0.25 0.25 0 0 0 8.75 21L8.25 21A0.25 0.25 0 0 1 8 20.75L8 19.25A0.25 0.25 0 0 0 7.75 19L6.25 19A0.25 0.25 0 0 0 6 19.25ZM9 19.25L9 19.75A0.25 0.25 0 0 0 9.25 20L9.75 20A0.25 0.25 0 0 1 10 20.25L10 21.75A0.25 0.25 0 0 0 10.25 22L10.75 22A0.25 0.25 0 0 1 11 22.25L11 22.75A0.25 0.25 0 0 0 11.25 23L11.75 23A0.25 0.25 0 0 1 12 23.25L12 23.75A0.25 0.25 0 0 1 11.75 24L11.25 24A0.25 0.25 0 0 0 11 24.25L11 25.75A0.25 0.25 0 0 1 10.75 26L10.25 26A0.25 0.25 0 0 0 10 26.25L10 26.75A0.25 0.25 0 0 1 9.75 27L9.25 27A0.25 0.25 0 0 0 9 27.25L9 27.75A0.25 0.25 0 0 0 9.25 28L10.75 28A0.25 0.25 0 0 1 11 28.25L11 29.75A0.25 0.25 0 0 1 10.75 30L10.25 30A0.25 0.25 0 0 1 10 29.75L10 29.25A0.25 0.25 0 0 0 9.75 29L9.25 29A0.25 0.25 0 0 0 9 29.25L9 29.75A0.25 0.25 0 0 0 9.25 30L9.75 30A0.25 0.25 0 0 1 10 30.25L10 31.75A0.25 0.25 0 0 0 10.25 32L11.75 32A0.25 0.25 0 0 1 12 32.25L12 32.75A0.25 0.25 0 0 0 12.25 33L12.75 33A0.25 0.25 0 0 0 13 32.75L13 32.25A0.25 0.25 0 0 0 12.75 32L12.25 32A0.25 0.25 0 0 1 12 31.75L12 31.25A0.25 0.25 0 0 1 12.25 31L13.75 31A0.25 0.25 0 0 1 14 31.25L14 31.75A0.25 0.25 0 0 0 14.25 32L14.75 32A0.25 0.25 0 0 1 15 32.25L15 32.75A0.25 0.25 0 0 0 15.25 33L16.75 33A0.25 0.25 0 0 1 17 33.25L17 33.75A0.25 0.25 0 0 0 17.25 34L17.75 34A0.25 0.25 0 0 0 18 33.75L18 33.25A0.25 0.25 0 0 0 17.75 33L17.25 33A0.25 0.25 0 0 1 17 32.75L17 32.25A0.25 0.25 0 0 1 17.25 32L17.75 32A0.25 0.25 0 0 0 18 31.75L18 31.25A0.25 0.25 0 0 0 17.75 31L16.25 31A0.25 0.25 0 0 1 16 30.75L16 30.25A0.25 0.25 0 0 0 15.75 30L15.25 30A0.25 0.25 0 0 0 15 30.25L15 30.75A0.25 0.25 0 0 1 14.75 31L14.25 31A0.25 0.25 0 0 1 14 30.75L14 30.25A0.25 0.25 0 0 0 13.75 30L13.25 30A0.25 0.25 0 0 1 13 29.75L13 29.25A0.25 0.25 0 0 1 13.25 29L13.75 29A0.25 0.25 0 0 0 14 28.75L14 28.25A0.25 0.25 0 0 1 14.25 28L14.75 28A0.25 0.25 0 0 0 15 27.75L15 25.25A0.25 0.25 0 0 0 14.75 25L14.25 25A0.25 0.25 0 0 1 14 24.75L14 24.25A0.25 0.25 0 0 1 14.25 24L14.75 24A0.25 0.25 0 0 0 15 23.75L15 23.25A0.25 0.25 0 0 0 14.75 23L14.25 23A0.25 0.25 0 0 1 14 22.75L14 21.25A0.25 0.25 0 0 0 13.75 21L12.25 21A0.25 0.25 0 0 1 12 20.75L12 19.25A0.25 0.25 0 0 0 11.75 19L9.25 19A0.25 0.25 0 0 0 9 19.25ZM23 20.25L23 20.75A0.25 0.25 0 0 0 23.25 21L23.75 21A0.25 0.25 0 0 1 24 21.25L24 21.75A0.25 0.25 0 0 1 23.75 22L22.25 22A0.25 0.25 0 0 1 22 21.75L22 21.25A0.25 0.25 0 0 0 21.75 21L21.25 21A0.25 0.25 0 0 0 21 21.25L21 22.75A0.25 0.25 0 0 1 20.75 23L20.25 23A0.25 0.25 0 0 1 20 22.75L20 22.25A0.25 0.25 0 0 0 19.75 22L19.25 22A0.25 0.25 0 0 0 19 22.25L19 22.75A0.25 0.25 0 0 0 19.25 23L19.75 23A0.25 0.25 0 0 1 20 23.25L20 23.75A0.25 0.25 0 0 0 20.25 24L21.75 24A0.25 0.25 0 0 1 22 24.25L22 25.75A0.25 0.25 0 0 0 22.25 26L22.75 26A0.25 0.25 0 0 1 23 26.25L23 27.75A0.25 0.25 0 0 0 23.25 28L23.75 28A0.25 0.25 0 0 0 24 27.75L24 24.25A0.25 0.25 0 0 1 24.25 24L25.75 24A0.25 0.25 0 0 1 26 24.25L26 24.75A0.25 0.25 0 0 1 25.75 25L25.25 25A0.25 0.25 0 0 0 25 25.25L25 25.75A0.25 0.25 0 0 0 25.25 26L25.75 26A0.25 0.25 0 0 1 26 26.25L26 26.75A0.25 0.25 0 0 1 25.75 27L25.25 27A0.25 0.25 0 0 0 25 27.25L25 27.75A0.25 0.25 0 0 0 25.25 28L25.75 28A0.25 0.25 0 0 0 26 27.75L26 27.25A0.25 0.25 0 0 1 26.25 27L26.75 27A0.25 0.25 0 0 0 27 26.75L27 26.25A0.25 0.25 0 0 1 27.25 26L27.75 26A0.25 0.25 0 0 0 28 25.75L28 24.25A0.25 0.25 0 0 0 27.75 24L26.25 24A0.25 0.25 0 0 1 26 23.75L26 23.25A0.25 0.25 0 0 1 26.25 23L26.75 23A0.25 0.25 0 0 0 27 22.75L27 22.25A0.25 0.25 0 0 0 26.75 22L26.25 22A0.25 0.25 0 0 1 26 21.75L26 21.25A0.25 0.25 0 0 0 25.75 21L24.25 21A0.25 0.25 0 0 1 24 20.75L24 20.25A0.25 0.25 0 0 0 23.75 20L23.25 20A0.25 0.25 0 0 0 23 20.25ZM24 22.25L24 22.75A0.25 0.25 0 0 0 24.25 23L24.75 23A0.25 0.25 0 0 0 25 22.75L25 22.25A0.25 0.25 0 0 0 24.75 22L24.25 22A0.25 0.25 0 0 0 24 22.25ZM13 23.25L13 23.75A0.25 0.25 0 0 1 12.75 24L12.25 24A0.25 0.25 0 0 0 12 24.25L12 24.75A0.25 0.25 0 0 0 12.25 25L12.75 25A0.25 0.25 0 0 0 13 24.75L13 24.25A0.25 0.25 0 0 1 13.25 24L13.75 24A0.25 0.25 0 0 0 14 23.75L14 23.25A0.25 0.25 0 0 0 13.75 23L13.25 23A0.25 0.25 0 0 0 13 23.25ZM22 23.25L22 23.75A0.25 0.25 0 0 0 22.25 24L22.75 24A0.25 0.25 0 0 0 23 23.75L23 23.25A0.25 0.25 0 0 0 22.75 23L22.25 23A0.25 0.25 0 0 0 22 23.25ZM0 24.25L0 24.75A0.25 0.25 0 0 0 0.25 25L0.75 25A0.25 0.25 0 0 0 1 24.75L1 24.25A0.25 0.25 0 0 0 0.75 24L0.25 24A0.25 0.25 0 0 0 0 24.25ZM35 25.25L35 25.75A0.25 0.25 0 0 0 35.25 26L35.75 26A0.25 0.25 0 0 0 36 25.75L36 25.25A0.25 0.25 0 0 0 35.75 25L35.25 25A0.25 0.25 0 0 0 35 25.25ZM12 26.25L12 26.75A0.25 0.25 0 0 1 11.75 27L11.25 27A0.25 0.25 0 0 0 11 27.25L11 27.75A0.25 0.25 0 0 0 11.25 28L13.75 28A0.25 0.25 0 0 0 14 27.75L14 26.25A0.25 0.25 0 0 0 13.75 26L12.25 26A0.25 0.25 0 0 0 12 26.25ZM18 27.25L18 28.75A0.25 0.25 0 0 0 18.25 29L19.75 29A0.25 0.25 0 0 0 20 28.75L20 28.25A0.25 0.25 0 0 1 20.25 28L20.75 28A0.25 0.25 0 0 0 21 27.75L21 27.25A0.25 0.25 0 0 0 20.75 27L18.25 27A0.25 0.25 0 0 0 18 27.25ZM29 27.25L29 27.75A0.25 0.25 0 0 0 29.25 28L29.75 28A0.25 0.25 0 0 0 30 27.75L30 27.25A0.25 0.25 0 0 0 29.75 27L29.25 27A0.25 0.25 0 0 0 29 27.25ZM35 28.25L35 28.75A0.25 0.25 0 0 1 34.75 29L33.25 29A0.25 0.25 0 0 0 33 29.25L33 31.75A0.25 0.25 0 0 0 33.25 32L33.75 32A0.25 0.25 0 0 0 34 31.75L34 30.25A0.25 0.25 0 0 1 34.25 30L35.75 30A0.25 0.25 0 0 0 36 29.75L36 28.25A0.25 0.25 0 0 0 35.75 28L35.25 28A0.25 0.25 0 0 0 35 28.25ZM29 29.25L29 31.75A0.25 0.25 0 0 0 29.25 32L31.75 32A0.25 0.25 0 0 0 32 31.75L32 29.25A0.25 0.25 0 0 0 31.75 29L29.25 29A0.25 0.25 0 0 0 29 29.25ZM30 30.25L30 30.75A0.25 0.25 0 0 0 30.25 31L30.75 31A0.25 0.25 0 0 0 31 30.75L31 30.25A0.25 0.25 0 0 0 30.75 30L30.25 30A0.25 0.25 0 0 0 30 30.25ZM15 31.25L15 31.75A0.25 0.25 0 0 0 15.25 32L15.75 32A0.25 0.25 0 0 0 16 31.75L16 31.25A0.25 0.25 0 0 0 15.75 31L15.25 31A0.25 0.25 0 0 0 15 31.25ZM21 32.25L21 33.75A0.25 0.25 0 0 0 21.25 34L22.75 34A0.25 0.25 0 0 0 23 33.75L23 33.25A0.25 0.25 0 0 0 22.75 33L22.25 33A0.25 0.25 0 0 1 22 32.75L22 32.25A0.25 0.25 0 0 0 21.75 32L21.25 32A0.25 0.25 0 0 0 21 32.25ZM27 32.25L27 32.75A0.25 0.25 0 0 1 26.75 33L26.25 33A0.25 0.25 0 0 0 26 33.25L26 33.75A0.25 0.25 0 0 0 26.25 34L28.75 34A0.25 0.25 0 0 0 29 33.75L29 33.25A0.25 0.25 0 0 0 28.75 33L28.25 33A0.25 0.25 0 0 1 28 32.75L28 32.25A0.25 0.25 0 0 0 27.75 32L27.25 32A0.25 0.25 0 0 0 27 32.25ZM8 33.25L8 33.75A0.25 0.25 0 0 0 8.25 34L8.75 34A0.25 0.25 0 0 0 9 33.75L9 33.25A0.25 0.25 0 0 0 8.75 33L8.25 33A0.25 0.25 0 0 0 8 33.25ZM35 33.25L35 33.75A0.25 0.25 0 0 0 35.25 34L35.75 34A0.25 0.25 0 0 1 36 34.25L36 34.75A0.25 0.25 0 0 0 36.25 35L36.75 35A0.25 0.25 0 0 0 37 34.75L37 33.25A0.25 0.25 0 0 0 36.75 33L35.25 33A0.25 0.25 0 0 0 35 33.25ZM22 35.25L22 35.75A0.25 0.25 0 0 0 22.25 36L22.75 36A0.25 0.25 0 0 0 23 35.75L23 35.25A0.25 0.25 0 0 0 22.75 35L22.25 35A0.25 0.25 0 0 0 22 35.25ZM33 36.25L33 36.75A0.25 0.25 0 0 0 33.25 37L33.75 37A0.25 0.25 0 0 0 34 36.75L34 36.25A0.25 0.25 0 0 0 33.75 36L33.25 36A0.25 0.25 0 0 0 33 36.25ZM35 36.25L35 36.75A0.25 0.25 0 0 0 35.25 37L36.75 37A0.25 0.25 0 0 0 37 36.75L37 36.25A0.25 0.25 0 0 0 36.75 36L35.25 36A0.25 0.25 0 0 0 35 36.25ZM0 0.25L0 6.75A0.25 0.25 0 0 0 0.25 7L6.75 7A0.25 0.25 0 0 0 7 6.75L7 0.25A0.25 0.25 0 0 0 6.75 0L0.25 0A0.25 0.25 0 0 0 0 0.25ZM1 1.25L1 5.75A0.25 0.25 0 0 0 1.25 6L5.75 6A0.25 0.25 0 0 0 6 5.75L6 1.25A0.25 0.25 0 0 0 5.75 1L1.25 1A0.25 0.25 0 0 0 1 1.25ZM2 2.25L2 4.75A0.25 0.25 0 0 0 2.25 5L4.75 5A0.25 0.25 0 0 0 5 4.75L5 2.25A0.25 0.25 0 0 0 4.75 2L2.25 2A0.25 0.25 0 0 0 2 2.25ZM30 0.25L30 6.75A0.25 0.25 0 0 0 30.25 7L36.75 7A0.25 0.25 0 0 0 37 6.75L37 0.25A0.25 0.25 0 0 0 36.75 0L30.25 0A0.25 0.25 0 0 0 30 0.25ZM31 1.25L31 5.75A0.25 0.25 0 0 0 31.25 6L35.75 6A0.25 0.25 0 0 0 36 5.75L36 1.25A0.25 0.25 0 0 0 35.75 1L31.25 1A0.25 0.25 0 0 0 31 1.25ZM32 2.25L32 4.75A0.25 0.25 0 0 0 32.25 5L34.75 5A0.25 0.25 0 0 0 35 4.75L35 2.25A0.25 0.25 0 0 0 34.75 2L32.25 2A0.25 0.25 0 0 0 32 2.25ZM0 30.25L0 36.75A0.25 0.25 0 0 0 0.25 37L6.75 37A0.25 0.25 0 0 0 7 36.75L7 30.25A0.25 0.25 0 0 0 6.75 30L0.25 30A0.25 0.25 0 0 0 0 30.25ZM1 31.25L1 35.75A0.25 0.25 0 0 0 1.25 36L5.75 36A0.25 0.25 0 0 0 6 35.75L6 31.25A0.25 0.25 0 0 0 5.75 31L1.25 31A0.25 0.25 0 0 0 1 31.25ZM2 32.25L2 34.75A0.25 0.25 0 0 0 2.25 35L4.75 35A0.25 0.25 0 0 0 5 34.75L5 32.25A0.25 0.25 0 0 0 4.75 32L2.25 32A0.25 0.25 0 0 0 2 32.25Z" fill="#000000"/></g></g></svg>
