<?xml version="1.0" encoding="UTF-8"?>
<svg xmlns="http://www.w3.org/2000/svg" version="1.1" width="500" height="500" viewBox="0 0 500 500"><rect x="0" y="0" width="500" height="500" fill="#ffffff"/><g transform="scale(13.514)"><g transform="translate(0,0)"><path fill-rule="evenodd" d="M9 0.25L9 0.75A0.25 0.25 0 0 0 9.25 1L10.75 1A0.25 0.25 0 0 1 11 1.25L11 1.75A0.25 0.25 0 0 1 10.75 2L10.25 2A0.25 0.25 0 0 0 10 2.25L10 3.75A0.25 0.25 0 0 1 9.75 4L9.25 4A0.25 0.25 0 0 1 9 3.75L9 2.25A0.25 0.25 0 0 0 8.75 2L8.25 2A0.25 0.25 0 0 0 8 2.25L8 3.75A0.25 0.25 0 0 0 8.25 4L8.75 4A0.25 0.25 0 0 1 9 4.25L9 5.75A0.25 0.25 0 0 1 8.75 6L8.25 6A0.25 0.25 0 0 0 8 6.25L8 6.75A0.25 0.25 0 0 0 8.25 7L8.75 7A0.25 0.25 0 0 0 9 6.75L9 6.25A0.25 0.25 0 0 1 9.25 6L9.75 6A0.25 0.25 0 0 1 10 6.25L10 6.75A0.25 0.25 0 0 0 10.25 7L10.75 7A0.25 0.25 0 0 0 11 6.75L11 6.25A0.25 0.25 0 0 0 10.75 6L10.25 6A0.25 0.25 0 0 1 10 5.75L10 4.25A0.25 0.25 0 0 1 10.25 4L11.75 4A0.25 0.25 0 0 1 12 4.25L12 6.75A0.25 0.25 0 0 0 12.25 7L12.75 7A0.25 0.25 0 0 1 13 7.25L13 7.75A0.25 0.25 0 0 1 12.75 8L11.25 8A0.25 0.25 0 0 0 11 8.25L11 9.75A0.25 0.25 0 0 1 10.75 10L10.25 10A0.25 0.25 0 0 0 10 10.25L10 10.75A0.25 0.25 0 0 1 9.75 11L9.25 11A0.25 0.25 0 0 1 9 10.75L9 10.25A0.25 0.25 0 0 0 8.75 10L8.25 10A0.25 0.25 0 0 0 8 10.25L8 11.75A0.25 0.25 0 0 1 7.75 12L4.25 12A0.25 0.25 0 0 1 4 11.75L4 11.25A0.25 0.25 0 0 0 3.75 11L3.25 11A0.25 0.25 0 0 1 3 10.75L3 9.25A0.25 0.25 0 0 1 3.25 9L3.75 9A0.25 0.25 0 0 1 4 9.25L4 9.75A0.25 0.25 0 0 0 4.25 10L4.75 10A0.25 0.25 0 0 1 5 10.25L5 10.75A0.25 0.25 0 0 0 5.25 11L6.75 11A0.25 0.25 0 0 0 7 10.75L7 10.25A0.25 0.25 0 0 0 6.75 10L6.25 10A0.25 0.25 0 0 1 6 9.75L6 9.25A0.25 0.25 0 0 1 6.25 9L7.75 9A0.25 0.25 0 0 0 8 8.75L8 8.25A0.25 0.25 0 0 0 7.75 8L6.25 8A0.25 0.25 0 0 0 6 8.25L6 8.75A0.25 0.25 0 0 1 5.75 9L5.25 9A0.25 0.25 0 0 1 5 8.75L5 8.25A0.25 0.25 0 0 0 4.75 8L3.25 8A0.25 0.25 0 0 0 3 8.25L3 8.75A0.25 0.25 0 0 1 2.75 9L1.25 9A0.25 0.25 0 0 0 1 9.25L1 9.75A0.25 0.25 0 0 1 0.75 10L0.25 10A0.25 0.25 0 0 0 0 10.25L0 14.75A0.25 0.25 0 0 0 0.25 15L0.75 15A0.25 0.25 0 0 1 1 15.25L1 15.75A0.25 0.25 0 0 0 1.25 16L1.75 16A0.25 0.25 0 0 1 2 16.25L2 16.75A0.25 0.25 0 0 1 1.75 17L0.25 17A0.25 0.25 0 0 0 0 17.25L0 21.75A0.25 0.25 0 0 0 0.25 22L0.75 22A0.25 0.25 0 0 0 1 21.75L1 18.25A0.25 0.25 0 0 1 1.25 18L1.75 18A0.25 0.25 0 0 1 2 18.25L2 18.75A0.25 0.25 0 0 0 2.25 19L4.75 19A0.25 0.25 0 0 0 5 18.75L5 18.25A0.25 0.25 0 0 0 4.75 18L4.25 18A0.25 0.25 0 0 1 4 17.75L4 17.25A0.25 0.25 0 0 0 3.75 17L3.25 17A0.25 0.25 0 0 1 3 16.75L3 16.25A0.25 0.25 0 0 1 3.25 16L3.75 16A0.25 0.25 0 0 0 4 15.75L4 15.25A0.25 0.25 0 0 1 4.25 15L4.75 15A0.25 0.25 0 0 1 5 15.25L5 15.75A0.25 0.25 0 0 0 5.25 16L5.75 16A0.25 0.25 0 0 1 6 16.25L6 16.75A0.25 0.25 0 0 0 6.25 17L7.75 17A0.25 0.25 0 0 0 8 16.75L8 16.25A0.25 0.25 0 0 0 7.75 16L6.25 16A0.25 0.25 0 0 1 6 15.75L6 15.25A0.25 0.25 0 0 1 6.25 15L9.75 15A0.25 0.25 0 0 1 10 15.25L10 15.75A0.25 0.25 0 0 1 9.75 16L9.25 16A0.25 0.25 0 0 0 9 16.25L9 16.75A0.25 0.25 0 0 0 9.25 17L11.75 17A0.25 0.25 0 0 1 12 17.25L12 17.75A0.25 0.25 0 0 1 11.75 18L10.25 18A0.25 0.25 0 0 0 10 18.25L10 18.75A0.25 0.25 0 0 1 9.75 19L9.25 19A0.25 0.25 0 0 1 9 18.75L9 18.25A0.25 0.25 0 0 0 8.75 18L6.25 18A0.25 0.25 0 0 0 6 18.25L6 18.75A0.25 0.25 0 0 0 6.25 19L6.75 19A0.25 0.25 0 0 1 7 19.25L7 19.75A0.25 0.25 0 0 1 6.75 20L6.25 20A0.25 0.25 0 0 0 6 20.25L6 20.75A0.25 0.25 0 0 1 5.75 21L5.25 21A0.25 0.25 0 0 0 5 21.25L5 21.75A0.25 0.25 0 0 0 5.25 22L5.75 22A0.25 0.25 0 0 1 6 22.25L6 22.75A0.25 0.25 0 0 1 5.75 23L5.25 23A0.25 0.25 0 0 0 5 23.25L5 23.75A0.25 0.25 0 0 1 4.75 24L4.25 24A0.25 0.25 0 0 1 4 23.75L4 22.25A0.25 0.25 0 0 0 3.75 22L3.25 22A0.25 0.25 0 0 0 3 22.25L3 22.75A0.25 0.25 0 0 1 2.75 23L2.25 23A0.25 0.25 0 0 0 2 23.25L2 25.75A0.25 0.25 0 0 1 1.75 26L1.25 26A0.25 0.25 0 0 1 1 25.75L1 23.25A0.25 0.25 0 0 0 0.75 23L0.25 23A0.25 0.25 0 0 0 0 23.25L0 28.75A0.25 0.25 0 0 0 0.25 29L0.75 29A0.25 0.25 0 0 0 1 28.75L1 27.25A0.25 0.25 0 0 1 1.25 27L3.75 27A0.25 0.25 0 0 0 4 26.75L4 26.25A0.25 0.25 0 0 1 4.25 26L4.75 26A0.25 0.25 0 0 0 5 25.75L5 25.25A0.25 0.25 0 0 1 5.25 25L6.75 25A0.25 0.25 0 0 1 7 25.25L7 25.75A0.25 0.25 0 0 1 6.75 26L6.25 26A0.25 0.25 0 0 0 6 26.25L6 26.75A0.25 0.25 0 0 0 6.25 27L6.75 27A0.25 0.25 0 0 1 7 27.25L7 27.75A0.25 0.25 0 0 1 6.75 28L5.25 28A0.25 0.25 0 0 0 5 28.25L5 28.75A0.25 0.25 0 0 0 5.25 29L6.75 29A0.25 0.25 0 0 0 7 28.75L7 28.25A0.25 0.25 0 0 1 7.25 28L7.75 28A0.25 0.25 0 0 1 8 28.25L8 30.75A0.25 0.25 0 0 0 8.25 31L8.75 31A0.25 0.25 0 0 1 9 31.25L9 31.75A0.25 0.25 0 0 1 8.75 32L8.25 32A0.25 0.25 0 0 0 8 32.25L8 33.75A0.25 0.25 0 0 0 8.25 34L8.75 34A0.25 0.25 0 0 1 9 34.25L9 34.75A0.25 0.25 0 0 0 9.25 35L9.75 35A0.25 0.25 0 0 1 10 35.25L10 36.75A0.25 0.25 0 0 0 10.25 37L10.75 37A0.25 0.25 0 0 0 11 36.75L11 35.25A0.25 0.25 0 0 0 10.75 35L10.25 35A0.25 0.25 0 0 1 10 34.75L10 34.25A0.25 0.25 0 0 1 10.25 34L10.75 34A0.25 0.25 0 0 0 11 33.75L11 33.25A0.25 0.25 0 0 0 10.75 33L9.25 33A0.25 0.25 0 0 1 9 32.75L9 32.25A0.25 0.25 0 0 1 9.25 32L9.75 32A0.25 0.25 0 0 0 10 31.75L10 31.25A0.25 0.25 0 0 0 9.75 31L9.25 31A0.25 0.25 0 0 1 9 30.75L9 28.25A0.25 0.25 0 0 0 8.75 28L8.25 28A0.25 0.25 0 0 1 8 27.75L8 24.25A0.25 0.25 0 0 1 8.25 24L8.75 24A0.25 0.25 0 0 0 9 23.75L9 22.25A0.25 0.25 0 0 0 8.75 22L8.25 22A0.25 0.25 0 0 1 8 21.75L8 21.25A0.25 0.25 0 0 1 8.25 21L8.75 21A0.25 0.25 0 0 0 9 20.75L9 20.25A0.25 0.25 0 0 1 9.25 20L10.75 20A0.25 0.25 0 0 1 11 20.25L11 20.75A0.25 0.25 0 0 1 10.75 21L10.25 21A0.25 0.25 0 0 0 10 21.25L10 22.75A0.25 0.25 0 0 0 10.25 23L10.75 23A0.25 0.25 0 0 1 11 23.25L11 23.75A0.25 0.25 0 0 1 10.75 24L10.25 24A0.25 0.25 0 0 0 10 24.25L10 24.75A0.25 0.25 0 0 0 10.25 25L10.75 25A0.25 0.25 0 0 1 11 25.25L11 26.75A0.25 0.25 0 0 0 11.25 27L12.75 27A0.25 0.25 0 0 0 13 26.75L13 26.25A0.25 0.25 0 0 1 13.25 26L13.75 26A0.25 0.25 0 0 0 14 25.75L14 25.25A0.25 0.25 0 0 1 14.25 25L14.75 25A0.25 0.25 0 0 1 15 25.25L15 25.75A0.25 0.25 0 0 0 15.25 26L15.75 26A0.25 0.25 0 0 1 16 26.25L16 26.75A0.25 0.25 0 0 1 15.75 27L14.25 27A0.25 0.25 0 0 0 14 27.25L14 27.75A0.25 0.25 0 0 1 13.75 28L13.25 28A0.25 0.25 0 0 0 13 28.25L13 28.75A0.25 0.25 0 0 1 12.75 29L12.25 29A0.25 0.25 0 0 1 12 28.75L12 28.25A0.25 0.25 0 0 0 11.75 28L10.25 28A0.25 0.25 0 0 0 10 28.25L10 28.75A0.25 0.25 0 0 0 10.25 29L10.75 29A0.25 0.25 0 0 1 11 29.25L11 31.75A0.25 0.25 0 0 0 11.25 32L11.75 32A0.25 0.25 0 0 0 12 31.75L12 30.25A0.25 0.25 0 0 1 12.25 30L12.75 30A0.25 0.25 0 0 1 13 30.25L13 30.75A0.25 0.25 0 0 0 13.25 31L13.75 31A0.25 0.25 0 0 1 14 31.25L14 33.75A0.25 0.25 0 0 0 14.25 34L14.75 34A0.25 0.25 0 0 1 15 34.25L15 34.75A0.25 0.25 0 0 0 15.25 35L15.75 35A0.25 0.25 0 0 1 16 35.25L16 35.75A0.25 0.25 0 0 1 15.75 36L15.25 36A0.25 0.25 0 0 0 15 36.25L15 36.75A0.25 0.25 0 0 0 15.25 37L15.75 37A0.25 0.25 0 0 0 16 36.75L16 36.25A0.25 0.25 0 0 1 16.25 36L16.75 36A0.25 0.25 0 0 0 17 35.75L17 35.25A0.25 0.25 0 0 0 16.75 35L16.25 35A0.25 0.25 0 0 1 16 34.75L16 34.25A0.25 0.25 0 0 0 15.75 34L15.25 34A0.25 0.25 0 0 1 15 33.75L15 33.25A0.25 0.25 0 0 1 15.25 33L15.75 33A0.25 0.25 0 0 0 16 32.75L16 32.25A0.25 0.25 0 0 1 16.25 32L16.75 32A0.25 0.25 0 0 0 17 31.75L17 31.25A0.25 0.25 0 0 0 16.75 31L16.25 31A0.25 0.25 0 0 1 16 30.75L16 30.25A0.25 0.25 0 0 1 16.25 30L16.75 30A0.25 0.25 0 0 0 17 29.75L17 29.25A0.25 0.25 0 0 1 17.25 29L17.75 29A0.25 0.25 0 0 0 18 28.75L18 26.25A0.25 0.25 0 0 1 18.25 26L18.75 26A0.25 0.25 0 0 1 19 26.25L19 26.75A0.25 0.25 0 0 0 19.25 27L19.75 27A0.25 0.25 0 0 0 20 26.75L20 26.25A0.25 0.25 0 0 1 20.25 26L20.75 26A0.25 0.25 0 0 1 21 26.25L21 27.75A0.25 0.25 0 0 0 21.25 28L22.75 28A0.25 0.25 0 0 1 23 28.25L23 28.75A0.25 0.25 0 0 1 22.75 29L22.25 29A0.25 0.25 0 0 0 22 29.25L22 29.75A0.25 0.25 0 0 0 22.25 30L22.75 30A0.25 0.25 0 0 1 23 30.25L23 31.75A0.25 0.25 0 0 1 22.75 32L21.25 32A0.25 0.25 0 0 0 21 32.25L21 32.75A0.25 0.25 0 0 0 21.25 33L21.75 33A0.25 0.25 0 0 1 22 33.25L22 34.75A0.25 0.25 0 0 0 22.25 35L22.75 35A0.25 0.25 0 0 0 23 34.75L23 33.25A0.25 0.25 0 0 1 23.25 33L24.75 33A0.25 0.25 0 0 1 25 33.25L25 33.75A0.25 0.25 0 0 1 24.75 34L24.25 34A0.25 0.25 0 0 0 24 34.25L24 34.75A0.25 0.25 0 0 0 24.25 35L24.75 35A0.25 0.25 0 0 0 25 34.75L25 34.25A0.25 0.25 0 0 1 25.25 34L25.75 34A0.25 0.25 0 0 1 26 34.25L26 35.75A0.25 0.25 0 0 0 26.25 36L26.75 36A0.25 0.25 0 0 0 27 35.75L27 34.25A0.25 0.25 0 0 1 27.25 34L27.75 34A0.25 0.25 0 0 1 28 34.25L28 34.75A0.25 0.25 0 0 0 28.25 35L28.75 35A0.25 0.25 0 0 1 29 35.25L29 35.75A0.25 0.25 0 0 1 28.75 36L28.25 36A0.25 0.25 0 0 0 28 36.25L28 36.75A0.25 0.25 0 0 0 28.25 37L28.75 37A0.25 0.25 0 0 0 29 36.75L29 36.25A0.25 0.25 0 0 1 29.25 36L30.75 36A0.25 0.25 0 0 0 31 35.75L31 35.25A0.25 0.25 0 0 1 31.25 35L31.75 35A0.25 0.25 0 0 1 32 35.25L32 35.75A0.25 0.25 0 0 0 32.25 36L35.75 36A0.25 0.25 0 0 1 36 36.25L36 36.75A0.25 0.25 0 0 0 36.25 37L36.75 37A0.25 0.25 0 0 0 37 36.75L37 34.25A0.25 0.25 0 0 0 36.75 34L35.25 34A0.25 0.25 0 0 1 35 33.75L35 33.25A0.25 0.25 0 0 1 35.25 33L35.75 33A0.25 0.25 0 0 0 36 32.75L36 32.25A0.25 0.25 0 0 1 36.25 32L36.75 32A0.25 0.25 0 0 0 37 31.75L37 30.25A0.25 0.25 0 0 0 36.75 30L36.25 30A0.25 0.25 0 0 1 36 29.75L36 29.25A0.25 0.25 0 0 1 36.25 29L36.75 29A0.25 0.25 0 0 0 37 28.75L37 28.25A0.25 0.25 0 0 0 36.75 28L35.25 28A0.25 0.25 0 0 1 35 27.75L35 26.25A0.25 0.25 0 0 1 35.25 26L35.75 26A0.25 0.25 0 0 1 36 26.25L36 26.75A0.25 0.25 0 0 0 36.25 27L36.75 27A0.25 0.25 0 0 0 37 26.75L37 26.25A0.25 0.25 0 0 0 36.75 26L36.25 26A0.25 0.25 0 0 1 36 25.75L36 25.25A0.25 0.25 0 0 1 36.25 25L36.75 25A0.25 0.25 0 0 0 37 24.75L37 22.25A0.25 0.25 0 0 0 36.75 22L36.25 22A0.25 0.25 0 0 1 36 21.75L36 21.25A0.25 0.25 0 0 0 35.75 21L34.25 21A0.25 0.25 0 0 0 34 21.25L34 21.75A0.25 0.25 0 0 0 34.25 22L35.75 22A0.25 0.25 0 0 1 36 22.25L36 23.75A0.25 0.25 0 0 1 35.75 24L35.25 24A0.25 0.25 0 0 1 35 23.75L35 23.25A0.25 0.25 0 0 0 34.75 23L34.25 23A0.25 0.25 0 0 0 34 23.25L34 23.75A0.25 0.25 0 0 1 33.75 24L32.25 24A0.25 0.25 0 0 1 32 23.75L32 23.25A0.25 0.25 0 0 1 32.25 23L32.75 23A0.25 0.25 0 0 0 33 22.75L33 20.25A0.25 0.25 0 0 1 33.25 20L33.75 20A0.25 0.25 0 0 0 34 19.75L34 19.25A0.25 0.25 0 0 1 34.25 19L34.75 19A0.25 0.25 0 0 0 35 18.75L35 18.25A0.25 0.25 0 0 1 35.25 18L35.75 18A0.25 0.25 0 0 1 36 18.25L36 19.75A0.25 0.25 0 0 0 36.25 20L36.75 20A0.25 0.25 0 0 0 37 19.75L37 18.25A0.25 0.25 0 0 0 36.75 18L36.25 18A0.25 0.25 0 0 1 36 17.75L36 17.25A0.25 0.25 0 0 1 36.25 17L36.75 17A0.25 0.25 0 0 0 37 16.75L37 16.25A0.25 0.25 0 0 0 36.75 16L36.25 16A0.25 0.25 0 0 1 36 15.75L36 15.25A0.25 0.25 0 0 1 36.25 15L36.75 15A0.25 0.25 0 0 0 37 14.75L37 14.25A0.25 0.25 0 0 0 36.75 14L35.25 14A0.25 0.25 0 0 1 35 13.75L35 13.25A0.25 0.25 0 0 1 35.25 13L36.75 13A0.25 0.25 0 0 0 37 12.75L37 10.25A0.25 0.25 0 0 0 36.75 10L36.25 10A0.25 0.25 0 0 1 36 9.75L36 9.25A0.25 0.25 0 0 0 35.75 9L35.25 9A0.25 0.25 0 0 1 35 8.75L35 8.25A0.25 0.25 0 0 0 34.75 8L33.25 8A0.25 0.25 0 0 0 33 8.25L33 8.75A0.25 0.25 0 0 1 32.75 9L29.25 9A0.25 0.25 0 0 1 29 8.75L29 6.25A0.25 0.25 0 0 0 28.75 6L28.25 6A0.25 0.25 0 0 0 28 6.25L28 6.75A0.25 0.25 0 0 1 27.75 7L27.25 7A0.25 0.25 0 0 1 27 6.75L27 4.25A0.25 0.25 0 0 0 26.75 4L25.25 4A0.25 0.25 0 0 1 25 3.75L25 3.25A0.25 0.25 0 0 1 25.25 3L27.75 3A0.25 0.25 0 0 1 28 3.25L28 3.75A0.25 0.25 0 0 0 28.25 4L28.75 4A0.25 0.25 0 0 0 29 3.75L29 1.25A0.25 0.25 0 0 0 28.75 1L28.25 1A0.25 0.25 0 0 0 28 1.25L28 1.75A0.25 0.25 0 0 1 27.75 2L27.25 2A0.25 0.25 0 0 1 27 1.75L27 0.25A0.25 0.25 0 0 0 26.75 0L25.25 0A0.25 0.25 0 0 0 25 0.25L25 2.75A0.25 0.25 0 0 1 24.75 3L22.25 3A0.25 0.25 0 0 1 22 2.75L22 2.25A0.25 0.25 0 0 1 22.25 2L23.75 2A0.25 0.25 0 0 0 24 1.75L24 0.25A0.25 0.25 0 0 0 23.75 0L23.25 0A0.25 0.25 0 0 0 23 0.25L23 0.75A0.25 0.25 0 0 1 22.75 1L22.25 1A0.25 0.25 0 0 1 22 0.75L22 0.25A0.25 0.25 0 0 0 21.75 0L21.25 0A0.25 0.25 0 0 0 21 0.25L21 0.75A0.25 0.25 0 0 1 20.75 1L19.25 1A0.25 0.25 0 0 1 19 0.75L19 0.25A0.25 0.25 0 0 0 18.75 0L16.25 0A0.25 0.25 0 0 0 16 0.25L16 0.75A0.25 0.25 0 0 1 15.75 1L15.25 1A0.25 0.25 0 0 1 15 0.75L15 0.25A0.25 0.25 0 0 0 14.75 0L13.25 0A0.25 0.25 0 0 0 13 0.25L13 0.75A0.25 0.25 0 0 1 12.75 1L11.25 1A0.25 0.25 0 0 1 11 0.75L11 0.25A0.25 0.25 0 0 0 10.75 0L9.25 0A0.25 0.25 0 0 0 9 0.25ZM13 1.25L13 3.75A0.25 0.25 0 0 0 13.25 4L13.75 4A0.25 0.25 0 0 1 14 4.25L14 4.75A0.25 0.25 0 0 1 13.75 5L13.25 5A0.25 0.25 0 0 0 13 5.25L13 6.75A0.25 0.25 0 0 0 13.25 7L13.75 7A0.25 0.25 0 0 1 14 7.25L14 7.75A0.25 0.25 0 0 1 13.75 8L13.25 8A0.25 0.25 0 0 0 13 8.25L13 8.75A0.25 0.25 0 0 0 13.25 9L13.75 9A0.25 0.25 0 0 0 14 8.75L14 8.25A0.25 0.25 0 0 1 14.25 8L15.75 8A0.25 0.25 0 0 1 16 8.25L16 9.75A0.25 0.25 0 0 1 15.75 10L15.25 10A0.25 0.25 0 0 0 15 10.25L15 11.75A0.25 0.25 0 0 0 15.25 12L15.75 12A0.25 0.25 0 0 1 16 12.25L16 12.75A0.25 0.25 0 0 1 15.75 13L14.25 13A0.25 0.25 0 0 1 14 12.75L14 12.25A0.25 0.25 0 0 0 13.75 12L13.25 12A0.25 0.25 0 0 0 13 12.25L13 13.75A0.25 0.25 0 0 1 12.75 14L12.25 14A0.25 0.25 0 0 1 12 13.75L12 13.25A0.25 0.25 0 0 0 11.75 13L11.25 13A0.25 0.25 0 0 1 11 12.75L11 12.25A0.25 0.25 0 0 1 11.25 12L11.75 12A0.25 0.25 0 0 0 12 11.75L12 11.25A0.25 0.25 0 0 1 12.25 11L12.75 11A0.25 0.25 0 0 0 13 10.75L13 10.25A0.25 0.25 0 0 0 12.75 10L11.25 10A0.25 0.25 0 0 0 11 10.25L11 11.75A0.25 0.25 0 0 1 10.75 12L10.25 12A0.25 0.25 0 0 0 10 12.25L10 14.75A0.25 0.25 0 0 0 10.25 15L10.75 15A0.25 0.25 0 0 1 11 15.25L11 15.75A0.25 0.25 0 0 0 11.25 16L11.75 16A0.25 0.25 0 0 1 12 16.25L12 16.75A0.25 0.25 0 0 0 12.25 17L12.75 17A0.25 0.25 0 0 0 13 16.75L13 16.25A0.25 0.25 0 0 1 13.25 16L13.75 16A0.25 0.25 0 0 1 14 16.25L14 17.75A0.25 0.25 0 0 0 14.25 18L14.75 18A0.25 0.25 0 0 0 15 17.75L15 17.25A0.25 0.25 0 0 1 15.25 17L15.75 17A0.25 0.25 0 0 0 16 16.75L16 16.25A0.25 0.25 0 0 1 16.25 16L16.75 16A0.25 0.25 0 0 1 17 16.25L17 17.75A0.25 0.25 0 0 1 16.75 18L16.25 18A0.25 0.25 0 0 0 16 18.25L16 18.75A0.25 0.25 0 0 0 16.25 19L16.75 19A0.25 0.25 0 0 1 17 19.25L17 19.75A0.25 0.25 0 0 1 16.75 20L15.25 20A0.25 0.25 0 0 1 15 19.75L15 19.25A0.25 0.25 0 0 0 14.75 19L13.25 19A0.25 0.25 0 0 0 13 19.25L13 19.75A0.25 0.25 0 0 1 12.75 20L12.25 20A0.25 0.25 0 0 0 12 20.25L12 21.75A0.25 0.25 0 0 1 11.75 22L11.25 22A0.25 0.25 0 0 0 11 22.25L11 22.75A0.25 0.25 0 0 0 11.25 23L12.75 23A0.25 0.25 0 0 1 13 23.25L13 23.75A0.25 0.25 0 0 0 13.25 24L14.75 24A0.25 0.25 0 0 1 15 24.25L15 24.75A0.25 0.25 0 0 0 15.25 25L15.75 25A0.25 0.25 0 0 1 16 25.25L16 25.75A0.25 0.25 0 0 0 16.25 26L17.75 26A0.25 0.25 0 0 0 18 25.75L18 24.25A0.25 0.25 0 0 0 17.75 24L17.25 24A0.25 0.25 0 0 1 17 23.75L17 23.25A0.25 0.25 0 0 1 17.25 23L18.75 23A0.25 0.25 0 0 1 19 23.25L19 23.75A0.25 0.25 0 0 0 19.25 24L19.75 24A0.25 0.25 0 0 1 20 24.25L20 24.75A0.25 0.25 0 0 0 20.25 25L20.75 25A0.25 0.25 0 0 0 21 24.75L21 22.25A0.25 0.25 0 0 1 21.25 22L21.75 22A0.25 0.25 0 0 0 22 21.75L22 21.25A0.25 0.25 0 0 1 22.25 21L23.75 21A0.25 0.25 0 0 1 24 21.25L24 21.75A0.25 0.25 0 0 1 23.75 22L23.25 22A0.25 0.25 0 0 0 23 22.25L23 22.75A0.25 0.25 0 0 1 22.75 23L22.25 23A0.25 0.25 0 0 0 22 23.25L22 23.75A0.25 0.25 0 0 0 22.25 24L22.75 24A0.25 0.25 0 0 1 23 24.25L23 24.75A0.25 0.25 0 0 1 22.75 25L22.25 25A0.25 0.25 0 0 0 22 25.25L22 26.75A0.25 0.25 0 0 0 22.25 27L22.75 27A0.25 0.25 0 0 1 23 27.25L23 27.75A0.25 0.25 0 0 0 23.25 28L23.75 28A0.25 0.25 0 0 1 24 28.25L24 31.75A0.25 0.25 0 0 0 24.25 32L24.75 32A0.25 0.25 0 0 1 25 32.25L25 32.75A0.25 0.25 0 0 0 25.25 33L25.75 33A0.25 0.25 0 0 0 26 32.75L26 32.25A0.25 0.25 0 0 1 26.25 32L27.75 32A0.25 0.25 0 0 0 28 31.75L28 29.25A0.25 0.25 0 0 0 27.75 29L27.25 29A0.25 0.25 0 0 1 27 28.75L27 28.25A0.25 0.25 0 0 0 26.75 28L26.25 28A0.25 0.25 0 0 1 26 27.75L26 27.25A0.25 0.25 0 0 0 25.75 27L25.25 27A0.25 0.25 0 0 1 25 26.75L25 26.25A0.25 0.25 0 0 1 25.25 26L26.75 26A0.25 0.25 0 0 0 27 25.75L27 25.25A0.25 0.25 0 0 1 27.25 25L29.75 25A0.25 0.25 0 0 1 30 25.25L30 25.75A0.25 0.25 0 0 1 29.75 26L28.25 26A0.25 0.25 0 0 0 28 26.25L28 27.75A0.25 0.25 0 0 0 28.25 28L28.75 28A0.25 0.25 0 0 0 29 27.75L29 27.25A0.25 0.25 0 0 1 29.25 27L29.75 27A0.25 0.25 0 0 1 30 27.25L30 27.75A0.25 0.25 0 0 0 30.25 28L30.75 28A0.25 0.25 0 0 0 31 27.75L31 27.25A0.25 0.25 0 0 1 31.25 27L31.75 27A0.25 0.25 0 0 0 32 26.75L32 25.25A0.25 0.25 0 0 0 31.75 25L30.25 25A0.25 0.25 0 0 1 30 24.75L30 24.25A0.25 0.25 0 0 0 29.75 24L27.25 24A0.25 0.25 0 0 0 27 24.25L27 24.75A0.25 0.25 0 0 1 26.75 25L25.25 25A0.25 0.25 0 0 1 25 24.75L25 24.25A0.25 0.25 0 0 1 25.25 24L25.75 24A0.25 0.25 0 0 0 26 23.75L26 22.25A0.25 0.25 0 0 1 26.25 22L26.75 22A0.25 0.25 0 0 0 27 21.75L27 21.25A0.25 0.25 0 0 1 27.25 21L27.75 21A0.25 0.25 0 0 0 28 20.75L28 20.25A0.25 0.25 0 0 1 28.25 20L28.75 20A0.25 0.25 0 0 0 29 19.75L29 19.25A0.25 0.25 0 0 1 29.25 19L29.75 19A0.25 0.25 0 0 1 30 19.25L30 19.75A0.25 0.25 0 0 0 30.25 20L30.75 20A0.25 0.25 0 0 1 31 20.25L31 20.75A0.25 0.25 0 0 1 30.75 21L29.25 21A0.25 0.25 0 0 0 29 21.25L29 21.75A0.25 0.25 0 0 1 28.75 22L28.25 22A0.25 0.25 0 0 0 28 22.25L28 22.75A0.25 0.25 0 0 0 28.25 23L28.75 23A0.25 0.25 0 0 0 29 22.75L29 22.25A0.25 0.25 0 0 1 29.25 22L29.75 22A0.25 0.25 0 0 1 30 22.25L30 22.75A0.25 0.25 0 0 0 30.25 23L31.75 23A0.25 0.25 0 0 0 32 22.75L32 22.25A0.25 0.25 0 0 0 31.75 22L31.25 22A0.25 0.25 0 0 1 31 21.75L31 21.25A0.25 0.25 0 0 1 31.25 21L31.75 21A0.25 0.25 0 0 0 32 20.75L32 20.25A0.25 0.25 0 0 0 31.75 20L31.25 20A0.25 0.25 0 0 1 31 19.75L31 18.25A0.25 0.25 0 0 1 31.25 18L32.75 18A0.25 0.25 0 0 1 33 18.25L33 18.75A0.25 0.25 0 0 0 33.25 19L33.75 19A0.25 0.25 0 0 0 34 18.75L34 16.25A0.25 0.25 0 0 0 33.75 16L32.25 16A0.25 0.25 0 0 1 32 15.75L32 13.25A0.25 0.25 0 0 1 32.25 13L32.75 13A0.25 0.25 0 0 1 33 13.25L33 13.75A0.25 0.25 0 0 0 33.25 14L33.75 14A0.25 0.25 0 0 0 34 13.75L34 13.25A0.25 0.25 0 0 1 34.25 13L34.75 13A0.25 0.25 0 0 0 35 12.75L35 12.25A0.25 0.25 0 0 0 34.75 12L34.25 12A0.25 0.25 0 0 0 34 12.25L34 12.75A0.25 0.25 0 0 1 33.75 13L33.25 13A0.25 0.25 0 0 1 33 12.75L33 11.25A0.25 0.25 0 0 1 33.25 11L34.75 11A0.25 0.25 0 0 0 35 10.75L35 10.25A0.25 0.25 0 0 0 34.75 10L32.25 10A0.25 0.25 0 0 0 32 10.25L32 10.75A0.25 0.25 0 0 1 31.75 11L31.25 11A0.25 0.25 0 0 0 31 11.25L31 11.75A0.25 0.25 0 0 0 31.25 12L31.75 12A0.25 0.25 0 0 1 32 12.25L32 12.75A0.25 0.25 0 0 1 31.75 13L30.25 13A0.25 0.25 0 0 1 30 12.75L30 12.25A0.25 0.25 0 0 0 29.75 12L29.25 12A0.25 0.25 0 0 0 29 12.25L29 12.75A0.25 0.25 0 0 0 29.25 13L29.75 13A0.25 0.25 0 0 1 30 13.25L30 14.75A0.25 0.25 0 0 1 29.75 15L29.25 15A0.25 0.25 0 0 1 29 14.75L29 14.25A0.25 0.25 0 0 0 28.75 14L28.25 14A0.25 0.25 0 0 1 28 13.75L28 13.25A0.25 0.25 0 0 0 27.75 13L27.25 13A0.25 0.25 0 0 1 27 12.75L27 12.25A0.25 0.25 0 0 1 27.25 12L27.75 12A0.25 0.25 0 0 0 28 11.75L28 11.25A0.25 0.25 0 0 1 28.25 11L28.75 11A0.25 0.25 0 0 0 29 10.75L29 10.25A0.25 0.25 0 0 0 28.75 10L28.25 10A0.25 0.25 0 0 1 28 9.75L28 8.25A0.25 0.25 0 0 0 27.75 8L27.25 8A0.25 0.25 0 0 0 27 8.25L27 9.75A0.25 0.25 0 0 1 26.75 10L26.25 10A0.25 0.25 0 0 0 26 10.25L26 10.75A0.25 0.25 0 0 1 25.75 11L25.25 11A0.25 0.25 0 0 1 25 10.75L25 10.25A0.25 0.25 0 0 0 24.75 10L23.25 10A0.25 0.25 0 0 1 23 9.75L23 9.25A0.25 0.25 0 0 1 23.25 9L23.75 9A0.25 0.25 0 0 0 24 8.75L24 8.25A0.25 0.25 0 0 0 23.75 8L23.25 8A0.25 0.25 0 0 1 23 7.75L23 7.25A0.25 0.25 0 0 1 23.25 7L23.75 7A0.25 0.25 0 0 0 24 6.75L24 5.25A0.25 0.25 0 0 1 24.25 5L24.75 5A0.25 0.25 0 0 0 25 4.75L25 4.25A0.25 0.25 0 0 0 24.75 4L24.25 4A0.25 0.25 0 0 0 24 4.25L24 4.75A0.25 0.25 0 0 1 23.75 5L22.25 5A0.25 0.25 0 0 0 22 5.25L22 5.75A0.25 0.25 0 0 1 21.75 6L21.25 6A0.25 0.25 0 0 1 21 5.75L21 5.25A0.25 0.25 0 0 0 20.75 5L19.25 5A0.25 0.25 0 0 0 19 5.25L19 7.75A0.25 0.25 0 0 1 18.75 8L18.25 8A0.25 0.25 0 0 0 18 8.25L18 8.75A0.25 0.25 0 0 0 18.25 9L18.75 9A0.25 0.25 0 0 1 19 9.25L19 9.75A0.25 0.25 0 0 0 19.25 10L19.75 10A0.25 0.25 0 0 1 20 10.25L20 10.75A0.25 0.25 0 0 1 19.75 11L18.25 11A0.25 0.25 0 0 1 18 10.75L18 10.25A0.25 0.25 0 0 0 17.75 10L17.25 10A0.25 0.25 0 0 1 17 9.75L17 7.25A0.25 0.25 0 0 1 17.25 7L17.75 7A0.25 0.25 0 0 0 18 6.75L18 6.25A0.25 0.25 0 0 0 17.75 6L17.25 6A0.25 0.25 0 0 0 17 6.25L17 6.75A0.25 0.25 0 0 1 16.75 7L16.25 7A0.25 0.25 0 0 1 16 6.75L16 6.25A0.25 0.25 0 0 0 15.75 6L15.25 6A0.25 0.25 0 0 0 15 6.25L15 6.75A0.25 0.25 0 0 1 14.75 7L14.25 7A0.25 0.25 0 0 1 14 6.75L14 5.25A0.25 0.25 0 0 1 14.25 5L14.75 5A0.25 0.25 0 0 0 15 4.75L15 4.25A0.25 0.25 0 0 1 15.25 4L15.75 4A0.25 0.25 0 0 1 16 4.25L16 4.75A0.25 0.25 0 0 0 16.25 5L16.75 5A0.25 0.25 0 0 0 17 4.75L17 4.25A0.25 0.25 0 0 1 17.25 4L17.75 4A0.25 0.25 0 0 0 18 3.75L18 3.25A0.25 0.25 0 0 1 18.25 3L18.75 3A0.25 0.25 0 0 1 19 3.25L19 3.75A0.25 0.25 0 0 0 19.25 4L19.75 4A0.25 0.25 0 0 0 20 3.75L20 3.25A0.25 0.25 0 0 0 19.75 3L19.25 3A0.25 0.25 0 0 1 19 2.75L19 1.25A0.25 0.25 0 0 0 18.75 1L18.25 1A0.25 0.25 0 0 0 18 1.25L18 2.75A0.25 0.25 0 0 1 17.75 3L17.25 3A0.25 0.25 0 0 1 17 2.75L17 2.25A0.25 0.25 0 0 0 16.75 2L15.25 2A0.25 0.25 0 0 1 15 1.75L15 1.25A0.25 0.25 0 0 0 14.75 1L13.25 1A0.25 0.25 0 0 0 13 1.25ZM11 2.25L11 2.75A0.25 0.25 0 0 0 11.25 3L11.75 3A0.25 0.25 0 0 0 12 2.75L12 2.25A0.25 0.25 0 0 0 11.75 2L11.25 2A0.25 0.25 0 0 0 11 2.25ZM14 3.25L14 3.75A0.25 0.25 0 0 0 14.25 4L14.75 4A0.25 0.25 0 0 0 15 3.75L15 3.25A0.25 0.25 0 0 0 14.75 3L14.25 3A0.25 0.25 0 0 0 14 3.25ZM16 3.25L16 3.75A0.25 0.25 0 0 0 16.25 4L16.75 4A0.25 0.25 0 0 0 17 3.75L17 3.25A0.25 0.25 0 0 0 16.75 3L16.25 3A0.25 0.25 0 0 0 16 3.25ZM20 6.25L20 6.75A0.25 0.25 0 0 0 20.25 7L20.75 7A0.25 0.25 0 0 0 21 6.75L21 6.25A0.25 0.25 0 0 0 20.75 6L20.25 6A0.25 0.25 0 0 0 20 6.25ZM22 6.25L22 6.75A0.25 0.25 0 0 0 22.25 7L22.75 7A0.25 0.25 0 0 0 23 6.75L23 6.25A0.25 0.25 0 0 0 22.75 6L22.25 6A0.25 0.25 0 0 0 22 6.25ZM25 6.25L25 7.75A0.25 0.25 0 0 0 25.25 8L25.75 8A0.25 0.25 0 0 0 26 7.75L26 6.25A0.25 0.25 0 0 0 25.75 6L25.25 6A0.25 0.25 0 0 0 25 6.25ZM20 8.25L20 9.75A0.25 0.25 0 0 0 20.25 10L21.75 10A0.25 0.25 0 0 0 22 9.75L22 9.25A0.25 0.25 0 0 1 22.25 9L22.75 9A0.25 0.25 0 0 0 23 8.75L23 8.25A0.25 0.25 0 0 0 22.75 8L22.25 8A0.25 0.25 0 0 0 22 8.25L22 8.75A0.25 0.25 0 0 1 21.75 9L21.25 9A0.25 0.25 0 0 1 21 8.75L21 8.25A0.25 0.25 0 0 0 20.75 8L20.25 8A0.25 0.25 0 0 0 20 8.25ZM1 10.25L1 10.75A0.25 0.25 0 0 0 1.25 11L1.75 11A0.25 0.25 0 0 1 2 11.25L2 12.75A0.25 0.25 0 0 1 1.75 13L1.25 13A0.25 0.25 0 0 0 1 13.25L1 13.75A0.25 0.25 0 0 0 1.25 14L1.75 14A0.25 0.25 0 0 1 2 14.25L2 15.75A0.25 0.25 0 0 0 2.25 16L2.75 16A0.25 0.25 0 0 0 3 15.75L3 13.25A0.25 0.25 0 0 1 3.25 13L3.75 13A0.25 0.25 0 0 0 4 12.75L4 12.25A0.25 0.25 0 0 0 3.75 12L3.25 12A0.25 0.25 0 0 1 3 11.75L3 11.25A0.25 0.25 0 0 0 2.75 11L2.25 11A0.25 0.25 0 0 1 2 10.75L2 10.25A0.25 0.25 0 0 0 1.75 10L1.25 10A0.25 0.25 0 0 0 1 10.25ZM27 10.25L27 10.75A0.25 0.25 0 0 1 26.75 11L26.25 11A0.25 0.25 0 0 0 26 11.25L26 11.75A0.25 0.25 0 0 0 26.25 12L26.75 12A0.25 0.25 0 0 0 27 11.75L27 11.25A0.25 0.25 0 0 1 27.25 11L27.75 11A0.25 0.25 0 0 0 28 10.75L28 10.25A0.25 0.25 0 0 0 27.75 10L27.25 10A0.25 0.25 0 0 0 27 10.25ZM16 11.25L16 11.75A0.25 0.25 0 0 0 16.25 12L16.75 12A0.25 0.25 0 0 0 17 11.75L17 11.25A0.25 0.25 0 0 0 16.75 11L16.25 11A0.25 0.25 0 0 0 16 11.25ZM20 11.25L20 11.75A0.25 0.25 0 0 0 20.25 12L20.75 12A0.25 0.25 0 0 1 21 12.25L21 12.75A0.25 0.25 0 0 1 20.75 13L20.25 13A0.25 0.25 0 0 0 20 13.25L20 13.75A0.25 0.25 0 0 1 19.75 14L16.25 14A0.25 0.25 0 0 0 16 14.25L16 14.75A0.25 0.25 0 0 1 15.75 15L14.25 15A0.25 0.25 0 0 1 14 14.75L14 14.25A0.25 0.25 0 0 0 13.75 14L13.25 14A0.25 0.25 0 0 0 13 14.25L13 14.75A0.25 0.25 0 0 0 13.25 15L13.75 15A0.25 0.25 0 0 1 14 15.25L14 15.75A0.25 0.25 0 0 0 14.25 16L15.75 16A0.25 0.25 0 0 0 16 15.75L16 15.25A0.25 0.25 0 0 1 16.25 15L16.75 15A0.25 0.25 0 0 1 17 15.25L17 15.75A0.25 0.25 0 0 0 17.25 16L17.75 16A0.25 0.25 0 0 1 18 16.25L18 16.75A0.25 0.25 0 0 0 18.25 17L19.75 17A0.25 0.25 0 0 1 20 17.25L20 17.75A0.25 0.25 0 0 1 19.75 18L19.25 18A0.25 0.25 0 0 0 19 18.25L19 18.75A0.25 0.25 0 0 0 19.25 19L20.75 19A0.25 0.25 0 0 1 21 19.25L21 19.75A0.25 0.25 0 0 1 20.75 20L17.25 20A0.25 0.25 0 0 0 17 20.25L17 20.75A0.25 0.25 0 0 1 16.75 21L14.25 21A0.25 0.25 0 0 1 14 20.75L14 20.25A0.25 0.25 0 0 0 13.75 20L13.25 20A0.25 0.25 0 0 0 13 20.25L13 20.75A0.25 0.25 0 0 0 13.25 21L13.75 21A0.25 0.25 0 0 1 14 21.25L14 22.75A0.25 0.25 0 0 0 14.25 23L15.75 23A0.25 0.25 0 0 0 16 22.75L16 22.25A0.25 0.25 0 0 1 16.25 22L17.75 22A0.25 0.25 0 0 0 18 21.75L18 21.25A0.25 0.25 0 0 1 18.25 21L18.75 21A0.25 0.25 0 0 1 19 21.25L19 22.75A0.25 0.25 0 0 0 19.25 23L19.75 23A0.25 0.25 0 0 0 20 22.75L20 21.25A0.25 0.25 0 0 1 20.25 21L21.75 21A0.25 0.25 0 0 0 22 20.75L22 19.25A0.25 0.25 0 0 1 22.25 19L22.75 19A0.25 0.25 0 0 1 23 19.25L23 19.75A0.25 0.25 0 0 0 23.25 20L24.75 20A0.25 0.25 0 0 1 25 20.25L25 20.75A0.25 0.25 0 0 0 25.25 21L26.75 21A0.25 0.25 0 0 0 27 20.75L27 19.25A0.25 0.25 0 0 1 27.25 19L28.75 19A0.25 0.25 0 0 0 29 18.75L29 18.25A0.25 0.25 0 0 0 28.75 18L28.25 18A0.25 0.25 0 0 1 28 17.75L28 17.25A0.25 0.25 0 0 0 27.75 17L27.25 17A0.25 0.25 0 0 0 27 17.25L27 18.75A0.25 0.25 0 0 1 26.75 19L24.25 19A0.25 0.25 0 0 1 24 18.75L24 18.25A0.25 0.25 0 0 1 24.25 18L24.75 18A0.25 0.25 0 0 0 25 17.75L25 17.25A0.25 0.25 0 0 1 25.25 17L25.75 17A0.25 0.25 0 0 0 26 16.75L26 16.25A0.25 0.25 0 0 1 26.25 16L27.75 16A0.25 0.25 0 0 0 28 15.75L28 14.25A0.25 0.25 0 0 0 27.75 14L27.25 14A0.25 0.25 0 0 1 27 13.75L27 13.25A0.25 0.25 0 0 0 26.75 13L26.25 13A0.25 0.25 0 0 0 26 13.25L26 13.75A0.25 0.25 0 0 1 25.75 14L25.25 14A0.25 0.25 0 0 0 25 14.25L25 14.75A0.25 0.25 0 0 1 24.75 15L23.25 15A0.25 0.25 0 0 0 23 15.25L23 15.75A0.25 0.25 0 0 1 22.75 16L22.25 16A0.25 0.25 0 0 1 22 15.75L22 15.25A0.25 0.25 0 0 0 21.75 15L20.25 15A0.25 0.25 0 0 1 20 14.75L20 14.25A0.25 0.25 0 0 1 20.25 14L20.75 14A0.25 0.25 0 0 0 21 13.75L21 13.25A0.25 0.25 0 0 1 21.25 13L21.75 13A0.25 0.25 0 0 0 22 12.75L22 12.25A0.25 0.25 0 0 1 22.25 12L22.75 12A0.25 0.25 0 0 1 23 12.25L23 13.75A0.25 0.25 0 0 0 23.25 14L23.75 14A0.25 0.25 0 0 0 24 13.75L24 13.25A0.25 0.25 0 0 1 24.25 13L24.75 13A0.25 0.25 0 0 0 25 12.75L25 11.25A0.25 0.25 0 0 0 24.75 11L22.25 11A0.25 0.25 0 0 0 22 11.25L22 11.75A0.25 0.25 0 0 1 21.75 12L21.25 12A0.25 0.25 0 0 1 21 11.75L21 11.25A0.25 0.25 0 0 0 20.75 11L20.25 11A0.25 0.25 0 0 0 20 11.25ZM18 12.25L18 12.75A0.25 0.25 0 0 0 18.25 13L18.75 13A0.25 0.25 0 0 0 19 12.75L19 12.25A0.25 0.25 0 0 0 18.75 12L18.25 12A0.25 0.25 0 0 0 18 12.25ZM5 13.25L5 13.75A0.25 0.25 0 0 0 5.25 14L6.75 14A0.25 0.25 0 0 0 7 13.75L7 13.25A0.25 0.25 0 0 0 6.75 13L5.25 13A0.25 0.25 0 0 0 5 13.25ZM8 13.25L8 13.75A0.25 0.25 0 0 0 8.25 14L8.75 14A0.25 0.25 0 0 0 9 13.75L9 13.25A0.25 0.25 0 0 0 8.75 13L8.25 13A0.25 0.25 0 0 0 8 13.25ZM11 14.25L11 14.75A0.25 0.25 0 0 0 11.25 15L11.75 15A0.25 0.25 0 0 0 12 14.75L12 14.25A0.25 0.25 0 0 0 11.75 14L11.25 14A0.25 0.25 0 0 0 11 14.25ZM26 14.25L26 14.75A0.25 0.25 0 0 1 25.75 15L25.25 15A0.25 0.25 0 0 0 25 15.25L25 15.75A0.25 0.25 0 0 0 25.25 16L25.75 16A0.25 0.25 0 0 0 26 15.75L26 15.25A0.25 0.25 0 0 1 26.25 15L26.75 15A0.25 0.25 0 0 0 27 14.75L27 14.25A0.25 0.25 0 0 0 26.75 14L26.25 14A0.25 0.25 0 0 0 26 14.25ZM19 15.25L19 15.75A0.25 0.25 0 0 0 19.25 16L19.75 16A0.25 0.25 0 0 1 20 16.25L20 16.75A0.25 0.25 0 0 0 20.25 17L21.75 17A0.25 0.25 0 0 1 22 17.25L22 17.75A0.25 0.25 0 0 1 21.75 18L21.25 18A0.25 0.25 0 0 0 21 18.25L21 18.75A0.25 0.25 0 0 0 21.25 19L21.75 19A0.25 0.25 0 0 0 22 18.75L22 18.25A0.25 0.25 0 0 1 22.25 18L23.75 18A0.25 0.25 0 0 0 24 17.75L24 17.25A0.25 0.25 0 0 0 23.75 17L22.25 17A0.25 0.25 0 0 1 22 16.75L22 16.25A0.25 0.25 0 0 0 21.75 16L20.25 16A0.25 0.25 0 0 1 20 15.75L20 15.25A0.25 0.25 0 0 0 19.75 15L19.25 15A0.25 0.25 0 0 0 19 15.25ZM30 16.25L30 16.75A0.25 0.25 0 0 0 30.25 17L30.75 17A0.25 0.25 0 0 0 31 16.75L31 16.25A0.25 0.25 0 0 0 30.75 16L30.25 16A0.25 0.25 0 0 0 30 16.25ZM2 17.25L2 17.75A0.25 0.25 0 0 0 2.25 18L2.75 18A0.25 0.25 0 0 0 3 17.75L3 17.25A0.25 0.25 0 0 0 2.75 17L2.25 17A0.25 0.25 0 0 0 2 17.25ZM17 18.25L17 18.75A0.25 0.25 0 0 0 17.25 19L17.75 19A0.25 0.25 0 0 0 18 18.75L18 18.25A0.25 0.25 0 0 0 17.75 18L17.25 18A0.25 0.25 0 0 0 17 18.25ZM8 19.25L8 19.75A0.25 0.25 0 0 1 7.75 20L7.25 20A0.25 0.25 0 0 0 7 20.25L7 20.75A0.25 0.25 0 0 1 6.75 21L6.25 21A0.25 0.25 0 0 0 6 21.25L6 21.75A0.25 0.25 0 0 0 6.25 22L6.75 22A0.25 0.25 0 0 0 7 21.75L7 21.25A0.25 0.25 0 0 1 7.25 21L7.75 21A0.25 0.25 0 0 0 8 20.75L8 20.25A0.25 0.25 0 0 1 8.25 20L8.75 20A0.25 0.25 0 0 0 9 19.75L9 19.25A0.25 0.25 0 0 0 8.75 19L8.25 19A0.25 0.25 0 0 0 8 19.25ZM6 23.25L6 23.75A0.25 0.25 0 0 0 6.25 24L6.75 24A0.25 0.25 0 0 0 7 23.75L7 23.25A0.25 0.25 0 0 0 6.75 23L6.25 23A0.25 0.25 0 0 0 6 23.25ZM3 24.25L3 25.75A0.25 0.25 0 0 0 3.25 26L3.75 26A0.25 0.25 0 0 0 4 25.75L4 24.25A0.25 0.25 0 0 0 3.75 24L3.25 24A0.25 0.25 0 0 0 3 24.25ZM11 24.25L11 24.75A0.25 0.25 0 0 0 11.25 25L11.75 25A0.25 0.25 0 0 0 12 24.75L12 24.25A0.25 0.25 0 0 0 11.75 24L11.25 24A0.25 0.25 0 0 0 11 24.25ZM34 24.25L34 24.75A0.25 0.25 0 0 1 33.75 25L33.25 25A0.25 0.25 0 0 0 33 25.25L33 26.75A0.25 0.25 0 0 0 33.25 27L33.75 27A0.25 0.25 0 0 0 34 26.75L34 26.25A0.25 0.25 0 0 1 34.25 26L34.75 26A0.25 0.25 0 0 0 35 25.75L35 24.25A0.25 0.25 0 0 0 34.75 24L34.25 24A0.25 0.25 0 0 0 34 24.25ZM24 25.25L24 25.75A0.25 0.25 0 0 0 24.25 26L24.75 26A0.25 0.25 0 0 0 25 25.75L25 25.25A0.25 0.25 0 0 0 24.75 25L24.25 25A0.25 0.25 0 0 0 24 25.25ZM30 26.25L30 26.75A0.25 0.25 0 0 0 30.25 27L30.75 27A0.25 0.25 0 0 0 31 26.75L31 26.25A0.25 0.25 0 0 0 30.75 26L30.25 26A0.25 0.25 0 0 0 30 26.25ZM16 27.25L16 28.75A0.25 0.25 0 0 0 16.25 29L16.75 29A0.25 0.25 0 0 0 17 28.75L17 27.25A0.25 0.25 0 0 0 16.75 27L16.25 27A0.25 0.25 0 0 0 16 27.25ZM24 27.25L24 27.75A0.25 0.25 0 0 0 24.25 28L24.75 28A0.25 0.25 0 0 1 25 28.25L25 28.75A0.25 0.25 0 0 0 25.25 29L25.75 29A0.25 0.25 0 0 0 26 28.75L26 28.25A0.25 0.25 0 0 0 25.75 28L25.25 28A0.25 0.25 0 0 1 25 27.75L25 27.25A0.25 0.25 0 0 0 24.75 27L24.25 27A0.25 0.25 0 0 0 24 27.25ZM2 28.25L2 28.75A0.25 0.25 0 0 0 2.25 29L3.75 29A0.25 0.25 0 0 0 4 28.75L4 28.25A0.25 0.25 0 0 0 3.75 28L2.25 28A0.25 0.25 0 0 0 2 28.25ZM33 28.25L33 28.75A0.25 0.25 0 0 0 33.25 29L33.75 29A0.25 0.25 0 0 0 34 28.75L34 28.25A0.25 0.25 0 0 0 33.75 28L33.25 28A0.25 0.25 0 0 0 33 28.25ZM13 29.25L13 29.75A0.25 0.25 0 0 0 13.25 30L14.75 30A0.25 0.25 0 0 0 15 29.75L15 29.25A0.25 0.25 0 0 0 14.75 29L13.25 29A0.25 0.25 0 0 0 13 29.25ZM19 29.25L19 29.75A0.25 0.25 0 0 1 18.75 30L18.25 30A0.25 0.25 0 0 0 18 30.25L18 31.75A0.25 0.25 0 0 0 18.25 32L18.75 32A0.25 0.25 0 0 1 19 32.25L19 33.75A0.25 0.25 0 0 0 19.25 34L19.75 34A0.25 0.25 0 0 1 20 34.25L20 34.75A0.25 0.25 0 0 1 19.75 35L19.25 35A0.25 0.25 0 0 0 19 35.25L19 35.75A0.25 0.25 0 0 1 18.75 36L18.25 36A0.25 0.25 0 0 0 18 36.25L18 36.75A0.25 0.25 0 0 0 18.25 37L19.75 37A0.25 0.25 0 0 0 20 36.75L20 36.25A0.25 0.25 0 0 1 20.25 36L20.75 36A0.25 0.25 0 0 1 21 36.25L21 36.75A0.25 0.25 0 0 0 21.25 37L21.75 37A0.25 0.25 0 0 0 22 36.75L22 36.25A0.25 0.25 0 0 0 21.75 36L21.25 36A0.25 0.25 0 0 1 21 35.75L21 34.25A0.25 0.25 0 0 0 20.75 34L20.25 34A0.25 0.25 0 0 1 20 33.75L20 31.25A0.25 0.25 0 0 0 19.75 31L19.25 31A0.25 0.25 0 0 1 19 30.75L19 30.25A0.25 0.25 0 0 1 19.25 30L19.75 30A0.25 0.25 0 0 0 20 29.75L20 29.25A0.25 0.25 0 0 0 19.75 29L19.25 29A0.25 0.25 0 0 0 19 29.25ZM29 29.25L29 31.75A0.25 0.25 0 0 0 29.25 32L31.75 32A0.25 0.25 0 0 0 32 31.75L32 29.25A0.25 0.25 0 0 0 31.75 29L29.25 29A0.25 0.25 0 0 0 29 29.25ZM25 30.25L25 31.75A0.25 0.25 0 0 0 25.25 32L25.75 32A0.25 0.25 0 0 0 26 31.75L26 31.25A0.25 0.25 0 0 1 26.25 31L26.75 31A0.25 0.25 0 0 0 27 30.75L27 30.25A0.25 0.25 0 0 0 26.75 30L25.25 30A0.25 0.25 0 0 0 25 30.25ZM30 30.25L30 30.75A0.25 0.25 0 0 0 30.25 31L30.75 31A0.25 0.25 0 0 0 31 30.75L31 30.25A0.25 0.25 0 0 0 30.75 30L30.25 30A0.25 0.25 0 0 0 30 30.25ZM35 30.25L35 30.75A0.25 0.25 0 0 1 34.75 31L34.25 31A0.25 0.25 0 0 0 34 31.25L34 31.75A0.25 0.25 0 0 1 33.75 32L33.25 32A0.25 0.25 0 0 0 33 32.25L33 32.75A0.25 0.25 0 0 1 32.75 33L31.25 33A0.25 0.25 0 0 0 31 33.25L31 33.75A0.25 0.25 0 0 1 30.75 34L30.25 34A0.25 0.25 0 0 1 30 33.75L30 33.25A0.25 0.25 0 0 0 29.75 33L29.25 33A0.25 0.25 0 0 0 29 33.25L29 34.75A0.25 0.25 0 0 0 29.25 35L30.75 35A0.25 0.25 0 0 0 31 34.75L31 34.25A0.25 0.25 0 0 1 31.25 34L33.75 34A0.25 0.25 0 0 1 34 34.25L34 34.75A0.25 0.25 0 0 0 34.25 35L34.75 35A0.25 0.25 0 0 0 35 34.75L35 34.25A0.25 0.25 0 0 0 34.75 34L34.25 34A0.25 0.25 0 0 1 34 33.75L34 33.25A0.25 0.25 0 0 1 34.25 33L34.75 33A0.25 0.25 0 0 0 35 32.75L35 32.25A0.25 0.25 0 0 1 35.25 32L35.75 32A0.25 0.25 0 0 0 36 31.75L36 30.25A0.25 0.25 0 0 0 35.75 30L35.25 30A0.25 0.25 0 0 0 35 30.25ZM12 33.25L12 33.75A0.25 0.25 0 0 0 12.25 34L12.75 34A0.25 0.25 0 0 0 13 33.75L13 33.25A0.25 0.25 0 0 0 12.75 33L12.25 33A0.25 0.25 0 0 0 12 33.25ZM17 33.25L17 33.75A0.25 0.25 0 0 0 17.25 34L17.75 34A0.25 0.25 0 0 0 18 33.75L18 33.25A0.25 0.25 0 0 0 17.75 33L17.25 33A0.25 0.25 0 0 0 17 33.25ZM13 35.25L13 35.75A0.25 0.25 0 0 0 13.25 36L13.75 36A0.25 0.25 0 0 0 14 35.75L14 35.25A0.25 0.25 0 0 0 13.75 35L13.25 35A0.25 0.25 0 0 0 13 35.25ZM24 36.25L24 36.75A0.25 0.25 0 0 0 24.25 37L24.75 37A0.25 0.25 0 0 0 25 36.75L25 36.25A0.25 0.25 0 0 0 24.75 36L24.25 36A0.25 0.25 0 0 0 24 36.25ZM0 0.25L0 6.75A0.25 0.25 0 0 0 0.25 7L6.75 7A0.25 0.25 0 0 0 7 6.75L7 0.25A0.25 0.25 0 0 0 6.75 0L0.25 0A0.25 0.25 0 0 0 0 0.25ZM1 1.25L1 5.75A0.25 0.25 0 0 0 1.25 6L5.75 6A0.25 0.25 0 0 0 6 5.75L6 1.25A0.25 0.25 0 0 0 5.75 1L1.25 1A0.25 0.25 0 0 0 1 1.25ZM2 2.25L2 4.75A0.25 0.25 0 0 0 2.25 5L4.75 5A0.25 0.25 0 0 0 5 4.75L5 2.25A0.25 0.25 0 0 0 4.75 2L2.25 2A0.25 0.25 0 0 0 2 2.25ZM30 0.25L30 6.75A0.25 0.25 0 0 0 30.25 7L36.75 7A0.25 0.25 0 0 0 37 6.75L37 0.25A0.25 0.25 0 0 0 36.75 0L30.25 0A0.25 0.25 0 0 0 30 0.25ZM31 1.25L31 5.75A0.25 0.25 0 0 0 31.25 6L35.75 6A0.25 0.25 0 0 0 36 5.75L36 1.25A0.25 0.25 0 0 0 35.75 1L31.25 1A0.25 0.25 0 0 0 31 1.25ZM32 2.25L32 4.75A0.25 0.25 0 0 0 32.25 5L34.75 5A0.25 0.25 0 0 0 35 4.75L35 2.25A0.25 0.25 0 0 0 34.75 2L32.25 2A0.25 0.25 0 0 0 32 2.25ZM0 30.25L0 36.75A0.25 0.25 0 0 0 0.25 37L6.75 37A0.25 0.25 0 0 0 7 36.75L7 30.25A0.25 0.25 0 0 0 6.75 30L0.25 30A0.25 0.25 0 0 0 0 30.25ZM1 31.25L1 35.75A0.25 0.25 0 0 0 1.25 36L5.75 36A0.25 0.25 0 0 0 6 35.75L6 31.25A0.25 0.25 0 0 0 5.75 31L1.25 31A0.25 0.25 0 0 0 1 31.25ZM2 32.25L2 34.75A0.25 0.25 0 0 0 2.25 35L4.75 35A0.25 0.25 0 0 0 5 34.75L5 32.25A0.25 0.25 0 0 0 4.75 32L2.25 32A0.25 0.25 0 0 0 2 32.25Z" fill="#000000"/></g></g></svg>
