<?xml version="1.0" encoding="UTF-8"?>
<svg xmlns="http://www.w3.org/2000/svg" version="1.1" width="500" height="500" viewBox="0 0 500 500"><rect x="0" y="0" width="500" height="500" fill="#ffffff"/><g transform="scale(13.514)"><g transform="translate(0,0)"><path fill-rule="evenodd" d="M9 0.25L9 0.75A0.25 0.25 0 0 0 9.25 1L10.75 1A0.25 0.25 0 0 1 11 1.25L11 1.75A0.25 0.25 0 0 1 10.75 2L9.25 2A0.25 0.25 0 0 0 9 2.25L9 3.75A0.25 0.25 0 0 1 8.75 4L8.25 4A0.25 0.25 0 0 0 8 4.25L8 4.75A0.25 0.25 0 0 0 8.25 5L8.75 5A0.25 0.25 0 0 1 9 5.25L9 5.75A0.25 0.25 0 0 1 8.75 6L8.25 6A0.25 0.25 0 0 0 8 6.25L8 7.75A0.25 0.25 0 0 1 7.75 8L6.25 8A0.25 0.25 0 0 0 6 8.25L6 8.75A0.25 0.25 0 0 1 5.75 9L5.25 9A0.25 0.25 0 0 0 5 9.25L5 9.75A0.25 0.25 0 0 0 5.25 10L5.75 10A0.25 0.25 0 0 1 6 10.25L6 10.75A0.25 0.25 0 0 1 5.75 11L4.25 11A0.25 0.25 0 0 1 4 10.75L4 10.25A0.25 0.25 0 0 0 3.75 10L3.25 10A0.25 0.25 0 0 1 3 9.75L3 9.25A0.25 0.25 0 0 1 3.25 9L3.75 9A0.25 0.25 0 0 0 4 8.75L4 8.25A0.25 0.25 0 0 0 3.75 8L2.25 8A0.25 0.25 0 0 0 2 8.25L2 9.75A0.25 0.25 0 0 0 2.25 10L2.75 10A0.25 0.25 0 0 1 3 10.25L3 10.75A0.25 0.25 0 0 1 2.75 11L2.25 11A0.25 0.25 0 0 0 2 11.25L2 11.75A0.25 0.25 0 0 0 2.25 12L3.75 12A0.25 0.25 0 0 1 4 12.25L4 13.75A0.25 0.25 0 0 1 3.75 14L3.25 14A0.25 0.25 0 0 1 3 13.75L3 13.25A0.25 0.25 0 0 0 2.75 13L1.25 13A0.25 0.25 0 0 1 1 12.75L1 12.25A0.25 0.25 0 0 0 0.75 12L0.25 12A0.25 0.25 0 0 0 0 12.25L0 12.75A0.25 0.25 0 0 0 0.25 13L0.75 13A0.25 0.25 0 0 1 1 13.25L1 15.75A0.25 0.25 0 0 1 0.75 16L0.25 16A0.25 0.25 0 0 0 0 16.25L0 19.75A0.25 0.25 0 0 0 0.25 20L0.75 20A0.25 0.25 0 0 1 1 20.25L1 20.75A0.25 0.25 0 0 1 0.75 21L0.25 21A0.25 0.25 0 0 0 0 21.25L0 24.75A0.25 0.25 0 0 0 0.25 25L0.75 25A0.25 0.25 0 0 1 1 25.25L1 26.75A0.25 0.25 0 0 1 0.75 27L0.25 27A0.25 0.25 0 0 0 0 27.25L0 27.75A0.25 0.25 0 0 0 0.25 28L0.75 28A0.25 0.25 0 0 0 1 27.75L1 27.25A0.25 0.25 0 0 1 1.25 27L1.75 27A0.25 0.25 0 0 0 2 26.75L2 26.25A0.25 0.25 0 0 1 2.25 26L2.75 26A0.25 0.25 0 0 0 3 25.75L3 25.25A0.25 0.25 0 0 0 2.75 25L1.25 25A0.25 0.25 0 0 1 1 24.75L1 24.25A0.25 0.25 0 0 1 1.25 24L3.75 24A0.25 0.25 0 0 0 4 23.75L4 23.25A0.25 0.25 0 0 0 3.75 23L1.25 23A0.25 0.25 0 0 1 1 22.75L1 21.25A0.25 0.25 0 0 1 1.25 21L1.75 21A0.25 0.25 0 0 1 2 21.25L2 21.75A0.25 0.25 0 0 0 2.25 22L5.75 22A0.25 0.25 0 0 1 6 22.25L6 22.75A0.25 0.25 0 0 0 6.25 23L6.75 23A0.25 0.25 0 0 1 7 23.25L7 23.75A0.25 0.25 0 0 1 6.75 24L6.25 24A0.25 0.25 0 0 0 6 24.25L6 24.75A0.25 0.25 0 0 1 5.75 25L4.25 25A0.25 0.25 0 0 0 4 25.25L4 25.75A0.25 0.25 0 0 0 4.25 26L4.75 26A0.25 0.25 0 0 1 5 26.25L5 26.75A0.25 0.25 0 0 0 5.25 27L6.75 27A0.25 0.25 0 0 1 7 27.25L7 27.75A0.25 0.25 0 0 1 6.75 28L6.25 28A0.25 0.25 0 0 0 6 28.25L6 28.75A0.25 0.25 0 0 0 6.25 29L6.75 29A0.25 0.25 0 0 0 7 28.75L7 28.25A0.25 0.25 0 0 1 7.25 28L7.75 28A0.25 0.25 0 0 1 8 28.25L8 30.75A0.25 0.25 0 0 0 8.25 31L8.75 31A0.25 0.25 0 0 1 9 31.25L9 32.75A0.25 0.25 0 0 1 8.75 33L8.25 33A0.25 0.25 0 0 0 8 33.25L8 34.75A0.25 0.25 0 0 0 8.25 35L8.75 35A0.25 0.25 0 0 0 9 34.75L9 33.25A0.25 0.25 0 0 1 9.25 33L9.75 33A0.25 0.25 0 0 0 10 32.75L10 32.25A0.25 0.25 0 0 1 10.25 32L10.75 32A0.25 0.25 0 0 0 11 31.75L11 29.25A0.25 0.25 0 0 1 11.25 29L12.75 29A0.25 0.25 0 0 1 13 29.25L13 29.75A0.25 0.25 0 0 0 13.25 30L13.75 30A0.25 0.25 0 0 0 14 29.75L14 29.25A0.25 0.25 0 0 1 14.25 29L15.75 29A0.25 0.25 0 0 1 16 29.25L16 30.75A0.25 0.25 0 0 1 15.75 31L12.25 31A0.25 0.25 0 0 0 12 31.25L12 33.75A0.25 0.25 0 0 1 11.75 34L11.25 34A0.25 0.25 0 0 0 11 34.25L11 34.75A0.25 0.25 0 0 1 10.75 35L10.25 35A0.25 0.25 0 0 0 10 35.25L10 35.75A0.25 0.25 0 0 0 10.25 36L10.75 36A0.25 0.25 0 0 1 11 36.25L11 36.75A0.25 0.25 0 0 0 11.25 37L13.75 37A0.25 0.25 0 0 0 14 36.75L14 36.25A0.25 0.25 0 0 1 14.25 36L14.75 36A0.25 0.25 0 0 1 15 36.25L15 36.75A0.25 0.25 0 0 0 15.25 37L18.75 37A0.25 0.25 0 0 0 19 36.75L19 36.25A0.25 0.25 0 0 1 19.25 36L19.75 36A0.25 0.25 0 0 1 20 36.25L20 36.75A0.25 0.25 0 0 0 20.25 37L21.75 37A0.25 0.25 0 0 0 22 36.75L22 36.25A0.25 0.25 0 0 0 21.75 36L21.25 36A0.25 0.25 0 0 1 21 35.75L21 35.25A0.25 0.25 0 0 1 21.25 35L21.75 35A0.25 0.25 0 0 0 22 34.75L22 34.25A0.25 0.25 0 0 0 21.75 34L21.25 34A0.25 0.25 0 0 1 21 33.75L21 32.25A0.25 0.25 0 0 0 20.75 32L19.25 32A0.25 0.25 0 0 0 19 32.25L19 32.75A0.25 0.25 0 0 1 18.75 33L15.25 33A0.25 0.25 0 0 1 15 32.75L15 32.25A0.25 0.25 0 0 1 15.25 32L16.75 32A0.25 0.25 0 0 0 17 31.75L17 31.25A0.25 0.25 0 0 1 17.25 31L20.75 31A0.25 0.25 0 0 0 21 30.75L21 30.25A0.25 0.25 0 0 0 20.75 30L17.25 30A0.25 0.25 0 0 1 17 29.75L17 29.25A0.25 0.25 0 0 1 17.25 29L18.75 29A0.25 0.25 0 0 0 19 28.75L19 27.25A0.25 0.25 0 0 1 19.25 27L19.75 27A0.25 0.25 0 0 1 20 27.25L20 27.75A0.25 0.25 0 0 0 20.25 28L20.75 28A0.25 0.25 0 0 1 21 28.25L21 28.75A0.25 0.25 0 0 0 21.25 29L21.75 29A0.25 0.25 0 0 1 22 29.25L22 30.75A0.25 0.25 0 0 0 22.25 31L22.75 31A0.25 0.25 0 0 0 23 30.75L23 29.25A0.25 0.25 0 0 1 23.25 29L23.75 29A0.25 0.25 0 0 1 24 29.25L24 29.75A0.25 0.25 0 0 0 24.25 30L25.75 30A0.25 0.25 0 0 0 26 29.75L26 28.25A0.25 0.25 0 0 0 25.75 28L25.25 28A0.25 0.25 0 0 1 25 27.75L25 27.25A0.25 0.25 0 0 1 25.25 27L26.75 27A0.25 0.25 0 0 0 27 26.75L27 26.25A0.25 0.25 0 0 1 27.25 26L27.75 26A0.25 0.25 0 0 0 28 25.75L28 25.25A0.25 0.25 0 0 1 28.25 25L28.75 25A0.25 0.25 0 0 0 29 24.75L29 24.25A0.25 0.25 0 0 1 29.25 24L29.75 24A0.25 0.25 0 0 1 30 24.25L30 25.75A0.25 0.25 0 0 0 30.25 26L32.75 26A0.25 0.25 0 0 1 33 26.25L33 26.75A0.25 0.25 0 0 0 33.25 27L33.75 27A0.25 0.25 0 0 0 34 26.75L34 26.25A0.25 0.25 0 0 0 33.75 26L33.25 26A0.25 0.25 0 0 1 33 25.75L33 25.25A0.25 0.25 0 0 1 33.25 25L35.75 25A0.25 0.25 0 0 1 36 25.25L36 25.75A0.25 0.25 0 0 0 36.25 26L36.75 26A0.25 0.25 0 0 0 37 25.75L37 25.25A0.25 0.25 0 0 0 36.75 25L36.25 25A0.25 0.25 0 0 1 36 24.75L36 24.25A0.25 0.25 0 0 1 36.25 24L36.75 24A0.25 0.25 0 0 0 37 23.75L37 23.25A0.25 0.25 0 0 0 36.75 23L36.25 23A0.25 0.25 0 0 0 36 23.25L36 23.75A0.25 0.25 0 0 1 35.75 24L35.25 24A0.25 0.25 0 0 1 35 23.75L35 23.25A0.25 0.25 0 0 0 34.75 23L34.25 23A0.25 0.25 0 0 1 34 22.75L34 19.25A0.25 0.25 0 0 0 33.75 19L32.25 19A0.25 0.25 0 0 0 32 19.25L32 20.75A0.25 0.25 0 0 1 31.75 21L31.25 21A0.25 0.25 0 0 0 31 21.25L31 21.75A0.25 0.25 0 0 1 30.75 22L29.25 22A0.25 0.25 0 0 0 29 22.25L29 22.75A0.25 0.25 0 0 1 28.75 23L27.25 23A0.25 0.25 0 0 1 27 22.75L27 22.25A0.25 0.25 0 0 0 26.75 22L26.25 22A0.25 0.25 0 0 0 26 22.25L26 22.75A0.25 0.25 0 0 1 25.75 23L25.25 23A0.25 0.25 0 0 1 25 22.75L25 22.25A0.25 0.25 0 0 0 24.75 22L24.25 22A0.25 0.25 0 0 1 24 21.75L24 21.25A0.25 0.25 0 0 1 24.25 21L29.75 21A0.25 0.25 0 0 0 30 20.75L30 20.25A0.25 0.25 0 0 1 30.25 20L30.75 20A0.25 0.25 0 0 0 31 19.75L31 19.25A0.25 0.25 0 0 0 30.75 19L30.25 19A0.25 0.25 0 0 1 30 18.75L30 18.25A0.25 0.25 0 0 1 30.25 18L31.75 18A0.25 0.25 0 0 0 32 17.75L32 17.25A0.25 0.25 0 0 0 31.75 17L29.25 17A0.25 0.25 0 0 0 29 17.25L29 18.75A0.25 0.25 0 0 0 29.25 19L29.75 19A0.25 0.25 0 0 1 30 19.25L30 19.75A0.25 0.25 0 0 1 29.75 20L27.25 20A0.25 0.25 0 0 1 27 19.75L27 19.25A0.25 0.25 0 0 1 27.25 19L27.75 19A0.25 0.25 0 0 0 28 18.75L28 16.25A0.25 0.25 0 0 1 28.25 16L28.75 16A0.25 0.25 0 0 0 29 15.75L29 15.25A0.25 0.25 0 0 1 29.25 15L30.75 15A0.25 0.25 0 0 0 31 14.75L31 14.25A0.25 0.25 0 0 1 31.25 14L31.75 14A0.25 0.25 0 0 1 32 14.25L32 14.75A0.25 0.25 0 0 0 32.25 15L32.75 15A0.25 0.25 0 0 0 33 14.75L33 12.25A0.25 0.25 0 0 1 33.25 12L34.75 12A0.25 0.25 0 0 0 35 11.75L35 11.25A0.25 0.25 0 0 1 35.25 11L35.75 11A0.25 0.25 0 0 0 36 10.75L36 9.25A0.25 0.25 0 0 0 35.75 9L33.25 9A0.25 0.25 0 0 1 33 8.75L33 8.25A0.25 0.25 0 0 0 32.75 8L32.25 8A0.25 0.25 0 0 0 32 8.25L32 8.75A0.25 0.25 0 0 1 31.75 9L31.25 9A0.25 0.25 0 0 1 31 8.75L31 8.25A0.25 0.25 0 0 0 30.75 8L29.25 8A0.25 0.25 0 0 1 29 7.75L29 6.25A0.25 0.25 0 0 0 28.75 6L28.25 6A0.25 0.25 0 0 0 28 6.25L28 6.75A0.25 0.25 0 0 1 27.75 7L27.25 7A0.25 0.25 0 0 1 27 6.75L27 5.25A0.25 0.25 0 0 1 27.25 5L27.75 5A0.25 0.25 0 0 0 28 4.75L28 3.25A0.25 0.25 0 0 1 28.25 3L28.75 3A0.25 0.25 0 0 0 29 2.75L29 0.25A0.25 0.25 0 0 0 28.75 0L28.25 0A0.25 0.25 0 0 0 28 0.25L28 2.75A0.25 0.25 0 0 1 27.75 3L26.25 3A0.25 0.25 0 0 1 26 2.75L26 2.25A0.25 0.25 0 0 1 26.25 2L26.75 2A0.25 0.25 0 0 0 27 1.75L27 1.25A0.25 0.25 0 0 0 26.75 1L24.25 1A0.25 0.25 0 0 0 24 1.25L24 2.75A0.25 0.25 0 0 1 23.75 3L23.25 3A0.25 0.25 0 0 1 23 2.75L23 2.25A0.25 0.25 0 0 0 22.75 2L22.25 2A0.25 0.25 0 0 1 22 1.75L22 1.25A0.25 0.25 0 0 1 22.25 1L22.75 1A0.25 0.25 0 0 0 23 0.75L23 0.25A0.25 0.25 0 0 0 22.75 0L22.25 0A0.25 0.25 0 0 0 22 0.25L22 0.75A0.25 0.25 0 0 1 21.75 1L21.25 1A0.25 0.25 0 0 0 21 1.25L21 3.75A0.25 0.25 0 0 1 20.75 4L20.25 4A0.25 0.25 0 0 0 20 4.25L20 4.75A0.25 0.25 0 0 1 19.75 5L19.25 5A0.25 0.25 0 0 0 19 5.25L19 5.75A0.25 0.25 0 0 1 18.75 6L18.25 6A0.25 0.25 0 0 0 18 6.25L18 6.75A0.25 0.25 0 0 0 18.25 7L18.75 7A0.25 0.25 0 0 0 19 6.75L19 6.25A0.25 0.25 0 0 1 19.25 6L19.75 6A0.25 0.25 0 0 1 20 6.25L20 6.75A0.25 0.25 0 0 0 20.25 7L20.75 7A0.25 0.25 0 0 1 21 7.25L21 7.75A0.25 0.25 0 0 1 20.75 8L16.25 8A0.25 0.25 0 0 0 16 8.25L16 8.75A0.25 0.25 0 0 0 16.25 9L16.75 9A0.25 0.25 0 0 1 17 9.25L17 10.75A0.25 0.25 0 0 1 16.75 11L16.25 11A0.25 0.25 0 0 1 16 10.75L16 10.25A0.25 0.25 0 0 0 15.75 10L15.25 10A0.25 0.25 0 0 1 15 9.75L15 9.25A0.25 0.25 0 0 0 14.75 9L12.25 9A0.25 0.25 0 0 1 12 8.75L12 8.25A0.25 0.25 0 0 0 11.75 8L11.25 8A0.25 0.25 0 0 0 11 8.25L11 8.75A0.25 0.25 0 0 1 10.75 9L10.25 9A0.25 0.25 0 0 1 10 8.75L10 8.25A0.25 0.25 0 0 0 9.75 8L9.25 8A0.25 0.25 0 0 1 9 7.75L9 6.25A0.25 0.25 0 0 1 9.25 6L9.75 6A0.25 0.25 0 0 1 10 6.25L10 6.75A0.25 0.25 0 0 0 10.25 7L10.75 7A0.25 0.25 0 0 0 11 6.75L11 6.25A0.25 0.25 0 0 0 10.75 6L10.25 6A0.25 0.25 0 0 1 10 5.75L10 5.25A0.25 0.25 0 0 0 9.75 5L9.25 5A0.25 0.25 0 0 1 9 4.75L9 4.25A0.25 0.25 0 0 1 9.25 4L9.75 4A0.25 0.25 0 0 0 10 3.75L10 3.25A0.25 0.25 0 0 1 10.25 3L11.75 3A0.25 0.25 0 0 1 12 3.25L12 4.75A0.25 0.25 0 0 0 12.25 5L12.75 5A0.25 0.25 0 0 1 13 5.25L13 5.75A0.25 0.25 0 0 1 12.75 6L12.25 6A0.25 0.25 0 0 0 12 6.25L12 6.75A0.25 0.25 0 0 0 12.25 7L12.75 7A0.25 0.25 0 0 0 13 6.75L13 6.25A0.25 0.25 0 0 1 13.25 6L13.75 6A0.25 0.25 0 0 1 14 6.25L14 7.75A0.25 0.25 0 0 0 14.25 8L14.75 8A0.25 0.25 0 0 0 15 7.75L15 6.25A0.25 0.25 0 0 1 15.25 6L15.75 6A0.25 0.25 0 0 1 16 6.25L16 6.75A0.25 0.25 0 0 0 16.25 7L16.75 7A0.25 0.25 0 0 0 17 6.75L17 5.25A0.25 0.25 0 0 1 17.25 5L17.75 5A0.25 0.25 0 0 0 18 4.75L18 4.25A0.25 0.25 0 0 1 18.25 4L18.75 4A0.25 0.25 0 0 0 19 3.75L19 2.25A0.25 0.25 0 0 1 19.25 2L19.75 2A0.25 0.25 0 0 0 20 1.75L20 1.25A0.25 0.25 0 0 0 19.75 1L19.25 1A0.25 0.25 0 0 1 19 0.75L19 0.25A0.25 0.25 0 0 0 18.75 0L18.25 0A0.25 0.25 0 0 0 18 0.25L18 1.75A0.25 0.25 0 0 1 17.75 2L17.25 2A0.25 0.25 0 0 1 17 1.75L17 1.25A0.25 0.25 0 0 0 16.75 1L15.25 1A0.25 0.25 0 0 0 15 1.25L15 1.75A0.25 0.25 0 0 1 14.75 2L14.25 2A0.25 0.25 0 0 0 14 2.25L14 2.75A0.25 0.25 0 0 0 14.25 3L14.75 3A0.25 0.25 0 0 1 15 3.25L15 3.75A0.25 0.25 0 0 0 15.25 4L15.75 4A0.25 0.25 0 0 0 16 3.75L16 2.25A0.25 0.25 0 0 1 16.25 2L16.75 2A0.25 0.25 0 0 1 17 2.25L17 2.75A0.25 0.25 0 0 0 17.25 3L17.75 3A0.25 0.25 0 0 1 18 3.25L18 3.75A0.25 0.25 0 0 1 17.75 4L17.25 4A0.25 0.25 0 0 0 17 4.25L17 4.75A0.25 0.25 0 0 1 16.75 5L15.25 5A0.25 0.25 0 0 0 15 5.25L15 5.75A0.25 0.25 0 0 1 14.75 6L14.25 6A0.25 0.25 0 0 1 14 5.75L14 5.25A0.25 0.25 0 0 0 13.75 5L13.25 5A0.25 0.25 0 0 1 13 4.75L13 1.25A0.25 0.25 0 0 1 13.25 1L13.75 1A0.25 0.25 0 0 0 14 0.75L14 0.25A0.25 0.25 0 0 0 13.75 0L13.25 0A0.25 0.25 0 0 0 13 0.25L13 0.75A0.25 0.25 0 0 1 12.75 1L12.25 1A0.25 0.25 0 0 1 12 0.75L12 0.25A0.25 0.25 0 0 0 11.75 0L9.25 0A0.25 0.25 0 0 0 9 0.25ZM22 3.25L22 3.75A0.25 0.25 0 0 0 22.25 4L22.75 4A0.25 0.25 0 0 0 23 3.75L23 3.25A0.25 0.25 0 0 0 22.75 3L22.25 3A0.25 0.25 0 0 0 22 3.25ZM26 4.25L26 4.75A0.25 0.25 0 0 1 25.75 5L24.25 5A0.25 0.25 0 0 0 24 5.25L24 5.75A0.25 0.25 0 0 1 23.75 6L23.25 6A0.25 0.25 0 0 1 23 5.75L23 5.25A0.25 0.25 0 0 0 22.75 5L22.25 5A0.25 0.25 0 0 0 22 5.25L22 5.75A0.25 0.25 0 0 1 21.75 6L21.25 6A0.25 0.25 0 0 1 21 5.75L21 5.25A0.25 0.25 0 0 0 20.75 5L20.25 5A0.25 0.25 0 0 0 20 5.25L20 5.75A0.25 0.25 0 0 0 20.25 6L20.75 6A0.25 0.25 0 0 1 21 6.25L21 6.75A0.25 0.25 0 0 0 21.25 7L21.75 7A0.25 0.25 0 0 1 22 7.25L22 7.75A0.25 0.25 0 0 0 22.25 8L22.75 8A0.25 0.25 0 0 1 23 8.25L23 9.75A0.25 0.25 0 0 1 22.75 10L22.25 10A0.25 0.25 0 0 1 22 9.75L22 9.25A0.25 0.25 0 0 0 21.75 9L19.25 9A0.25 0.25 0 0 0 19 9.25L19 9.75A0.25 0.25 0 0 1 18.75 10L18.25 10A0.25 0.25 0 0 0 18 10.25L18 11.75A0.25 0.25 0 0 0 18.25 12L18.75 12A0.25 0.25 0 0 0 19 11.75L19 10.25A0.25 0.25 0 0 1 19.25 10L19.75 10A0.25 0.25 0 0 1 20 10.25L20 10.75A0.25 0.25 0 0 0 20.25 11L20.75 11A0.25 0.25 0 0 1 21 11.25L21 11.75A0.25 0.25 0 0 0 21.25 12L21.75 12A0.25 0.25 0 0 0 22 11.75L22 11.25A0.25 0.25 0 0 1 22.25 11L22.75 11A0.25 0.25 0 0 1 23 11.25L23 11.75A0.25 0.25 0 0 0 23.25 12L23.75 12A0.25 0.25 0 0 1 24 12.25L24 12.75A0.25 0.25 0 0 0 24.25 13L24.75 13A0.25 0.25 0 0 0 25 12.75L25 10.25A0.25 0.25 0 0 0 24.75 10L24.25 10A0.25 0.25 0 0 1 24 9.75L24 8.25A0.25 0.25 0 0 1 24.25 8L24.75 8A0.25 0.25 0 0 0 25 7.75L25 7.25A0.25 0.25 0 0 1 25.25 7L25.75 7A0.25 0.25 0 0 0 26 6.75L26 5.25A0.25 0.25 0 0 1 26.25 5L26.75 5A0.25 0.25 0 0 0 27 4.75L27 4.25A0.25 0.25 0 0 0 26.75 4L26.25 4A0.25 0.25 0 0 0 26 4.25ZM22 6.25L22 6.75A0.25 0.25 0 0 0 22.25 7L22.75 7A0.25 0.25 0 0 0 23 6.75L23 6.25A0.25 0.25 0 0 0 22.75 6L22.25 6A0.25 0.25 0 0 0 22 6.25ZM24 6.25L24 6.75A0.25 0.25 0 0 0 24.25 7L24.75 7A0.25 0.25 0 0 0 25 6.75L25 6.25A0.25 0.25 0 0 0 24.75 6L24.25 6A0.25 0.25 0 0 0 24 6.25ZM6 9.25L6 9.75A0.25 0.25 0 0 0 6.25 10L6.75 10A0.25 0.25 0 0 1 7 10.25L7 10.75A0.25 0.25 0 0 1 6.75 11L6.25 11A0.25 0.25 0 0 0 6 11.25L6 11.75A0.25 0.25 0 0 0 6.25 12L6.75 12A0.25 0.25 0 0 1 7 12.25L7 12.75A0.25 0.25 0 0 1 6.75 13L5.25 13A0.25 0.25 0 0 0 5 13.25L5 13.75A0.25 0.25 0 0 1 4.75 14L4.25 14A0.25 0.25 0 0 0 4 14.25L4 14.75A0.25 0.25 0 0 1 3.75 15L3.25 15A0.25 0.25 0 0 1 3 14.75L3 14.25A0.25 0.25 0 0 0 2.75 14L2.25 14A0.25 0.25 0 0 0 2 14.25L2 15.75A0.25 0.25 0 0 1 1.75 16L1.25 16A0.25 0.25 0 0 0 1 16.25L1 17.75A0.25 0.25 0 0 0 1.25 18L1.75 18A0.25 0.25 0 0 1 2 18.25L2 20.75A0.25 0.25 0 0 0 2.25 21L2.75 21A0.25 0.25 0 0 0 3 20.75L3 20.25A0.25 0.25 0 0 1 3.25 20L3.75 20A0.25 0.25 0 0 1 4 20.25L4 20.75A0.25 0.25 0 0 0 4.25 21L5.75 21A0.25 0.25 0 0 1 6 21.25L6 21.75A0.25 0.25 0 0 0 6.25 22L6.75 22A0.25 0.25 0 0 1 7 22.25L7 22.75A0.25 0.25 0 0 0 7.25 23L7.75 23A0.25 0.25 0 0 0 8 22.75L8 21.25A0.25 0.25 0 0 1 8.25 21L8.75 21A0.25 0.25 0 0 0 9 20.75L9 19.25A0.25 0.25 0 0 1 9.25 19L10.75 19A0.25 0.25 0 0 1 11 19.25L11 19.75A0.25 0.25 0 0 1 10.75 20L10.25 20A0.25 0.25 0 0 0 10 20.25L10 21.75A0.25 0.25 0 0 0 10.25 22L10.75 22A0.25 0.25 0 0 1 11 22.25L11 22.75A0.25 0.25 0 0 1 10.75 23L9.25 23A0.25 0.25 0 0 0 9 23.25L9 24.75A0.25 0.25 0 0 1 8.75 25L8.25 25A0.25 0.25 0 0 1 8 24.75L8 24.25A0.25 0.25 0 0 0 7.75 24L7.25 24A0.25 0.25 0 0 0 7 24.25L7 24.75A0.25 0.25 0 0 1 6.75 25L6.25 25A0.25 0.25 0 0 0 6 25.25L6 25.75A0.25 0.25 0 0 0 6.25 26L7.75 26A0.25 0.25 0 0 1 8 26.25L8 26.75A0.25 0.25 0 0 0 8.25 27L8.75 27A0.25 0.25 0 0 0 9 26.75L9 25.25A0.25 0.25 0 0 1 9.25 25L9.75 25A0.25 0.25 0 0 1 10 25.25L10 25.75A0.25 0.25 0 0 0 10.25 26L11.75 26A0.25 0.25 0 0 1 12 26.25L12 26.75A0.25 0.25 0 0 1 11.75 27L11.25 27A0.25 0.25 0 0 0 11 27.25L11 27.75A0.25 0.25 0 0 1 10.75 28L9.25 28A0.25 0.25 0 0 0 9 28.25L9 29.75A0.25 0.25 0 0 0 9.25 30L9.75 30A0.25 0.25 0 0 0 10 29.75L10 29.25A0.25 0.25 0 0 1 10.25 29L10.75 29A0.25 0.25 0 0 0 11 28.75L11 28.25A0.25 0.25 0 0 1 11.25 28L14.75 28A0.25 0.25 0 0 0 15 27.75L15 27.25A0.25 0.25 0 0 1 15.25 27L15.75 27A0.25 0.25 0 0 0 16 26.75L16 26.25A0.25 0.25 0 0 1 16.25 26L16.75 26A0.25 0.25 0 0 0 17 25.75L17 24.25A0.25 0.25 0 0 1 17.25 24L18.75 24A0.25 0.25 0 0 1 19 24.25L19 24.75A0.25 0.25 0 0 1 18.75 25L18.25 25A0.25 0.25 0 0 0 18 25.25L18 25.75A0.25 0.25 0 0 0 18.25 26L19.75 26A0.25 0.25 0 0 1 20 26.25L20 26.75A0.25 0.25 0 0 0 20.25 27L20.75 27A0.25 0.25 0 0 1 21 27.25L21 27.75A0.25 0.25 0 0 0 21.25 28L21.75 28A0.25 0.25 0 0 1 22 28.25L22 28.75A0.25 0.25 0 0 0 22.25 29L22.75 29A0.25 0.25 0 0 0 23 28.75L23 28.25A0.25 0.25 0 0 1 23.25 28L23.75 28A0.25 0.25 0 0 1 24 28.25L24 28.75A0.25 0.25 0 0 0 24.25 29L24.75 29A0.25 0.25 0 0 0 25 28.75L25 28.25A0.25 0.25 0 0 0 24.75 28L24.25 28A0.25 0.25 0 0 1 24 27.75L24 26.25A0.25 0.25 0 0 1 24.25 26L24.75 26A0.25 0.25 0 0 0 25 25.75L25 25.25A0.25 0.25 0 0 1 25.25 25L25.75 25A0.25 0.25 0 0 1 26 25.25L26 25.75A0.25 0.25 0 0 0 26.25 26L26.75 26A0.25 0.25 0 0 0 27 25.75L27 25.25A0.25 0.25 0 0 1 27.25 25L27.75 25A0.25 0.25 0 0 0 28 24.75L28 24.25A0.25 0.25 0 0 0 27.75 24L24.25 24A0.25 0.25 0 0 0 24 24.25L24 25.75A0.25 0.25 0 0 1 23.75 26L23.25 26A0.25 0.25 0 0 1 23 25.75L23 25.25A0.25 0.25 0 0 0 22.75 25L22.25 25A0.25 0.25 0 0 0 22 25.25L22 25.75A0.25 0.25 0 0 1 21.75 26L20.25 26A0.25 0.25 0 0 1 20 25.75L20 24.25A0.25 0.25 0 0 0 19.75 24L19.25 24A0.25 0.25 0 0 1 19 23.75L19 23.25A0.25 0.25 0 0 1 19.25 23L20.75 23A0.25 0.25 0 0 1 21 23.25L21 23.75A0.25 0.25 0 0 0 21.25 24L21.75 24A0.25 0.25 0 0 0 22 23.75L22 22.25A0.25 0.25 0 0 0 21.75 22L21.25 22A0.25 0.25 0 0 1 21 21.75L21 21.25A0.25 0.25 0 0 0 20.75 21L20.25 21A0.25 0.25 0 0 1 20 20.75L20 20.25A0.25 0.25 0 0 0 19.75 20L18.25 20A0.25 0.25 0 0 0 18 20.25L18 21.75A0.25 0.25 0 0 1 17.75 22L17.25 22A0.25 0.25 0 0 1 17 21.75L17 20.25A0.25 0.25 0 0 0 16.75 20L16.25 20A0.25 0.25 0 0 0 16 20.25L16 20.75A0.25 0.25 0 0 1 15.75 21L15.25 21A0.25 0.25 0 0 1 15 20.75L15 20.25A0.25 0.25 0 0 0 14.75 20L14.25 20A0.25 0.25 0 0 0 14 20.25L14 20.75A0.25 0.25 0 0 1 13.75 21L13.25 21A0.25 0.25 0 0 0 13 21.25L13 21.75A0.25 0.25 0 0 1 12.75 22L11.25 22A0.25 0.25 0 0 1 11 21.75L11 20.25A0.25 0.25 0 0 1 11.25 20L12.75 20A0.25 0.25 0 0 0 13 19.75L13 19.25A0.25 0.25 0 0 1 13.25 19L14.75 19A0.25 0.25 0 0 0 15 18.75L15 17.25A0.25 0.25 0 0 1 15.25 17L15.75 17A0.25 0.25 0 0 0 16 16.75L16 14.25A0.25 0.25 0 0 1 16.25 14L17.75 14A0.25 0.25 0 0 1 18 14.25L18 14.75A0.25 0.25 0 0 0 18.25 15L18.75 15A0.25 0.25 0 0 1 19 15.25L19 15.75A0.25 0.25 0 0 0 19.25 16L21.75 16A0.25 0.25 0 0 0 22 15.75L22 15.25A0.25 0.25 0 0 1 22.25 15L23.75 15A0.25 0.25 0 0 1 24 15.25L24 15.75A0.25 0.25 0 0 1 23.75 16L23.25 16A0.25 0.25 0 0 0 23 16.25L23 16.75A0.25 0.25 0 0 1 22.75 17L22.25 17A0.25 0.25 0 0 0 22 17.25L22 17.75A0.25 0.25 0 0 1 21.75 18L20.25 18A0.25 0.25 0 0 0 20 18.25L20 18.75A0.25 0.25 0 0 0 20.25 19L21.75 19A0.25 0.25 0 0 0 22 18.75L22 18.25A0.25 0.25 0 0 1 22.25 18L22.75 18A0.25 0.25 0 0 1 23 18.25L23 19.75A0.25 0.25 0 0 1 22.75 20L22.25 20A0.25 0.25 0 0 0 22 20.25L22 20.75A0.25 0.25 0 0 0 22.25 21L23.75 21A0.25 0.25 0 0 0 24 20.75L24 20.25A0.25 0.25 0 0 1 24.25 20L25.75 20A0.25 0.25 0 0 0 26 19.75L26 19.25A0.25 0.25 0 0 1 26.25 19L26.75 19A0.25 0.25 0 0 0 27 18.75L27 16.25A0.25 0.25 0 0 1 27.25 16L27.75 16A0.25 0.25 0 0 0 28 15.75L28 15.25A0.25 0.25 0 0 1 28.25 15L28.75 15A0.25 0.25 0 0 0 29 14.75L29 14.25A0.25 0.25 0 0 1 29.25 14L29.75 14A0.25 0.25 0 0 0 30 13.75L30 13.25A0.25 0.25 0 0 0 29.75 13L29.25 13A0.25 0.25 0 0 1 29 12.75L29 12.25A0.25 0.25 0 0 1 29.25 12L30.75 12A0.25 0.25 0 0 1 31 12.25L31 12.75A0.25 0.25 0 0 0 31.25 13L31.75 13A0.25 0.25 0 0 0 32 12.75L32 12.25A0.25 0.25 0 0 1 32.25 12L32.75 12A0.25 0.25 0 0 0 33 11.75L33 11.25A0.25 0.25 0 0 1 33.25 11L34.75 11A0.25 0.25 0 0 0 35 10.75L35 10.25A0.25 0.25 0 0 0 34.75 10L33.25 10A0.25 0.25 0 0 1 33 9.75L33 9.25A0.25 0.25 0 0 0 32.75 9L32.25 9A0.25 0.25 0 0 0 32 9.25L32 11.75A0.25 0.25 0 0 1 31.75 12L31.25 12A0.25 0.25 0 0 1 31 11.75L31 9.25A0.25 0.25 0 0 0 30.75 9L28.25 9A0.25 0.25 0 0 0 28 9.25L28 9.75A0.25 0.25 0 0 1 27.75 10L27.25 10A0.25 0.25 0 0 1 27 9.75L27 9.25A0.25 0.25 0 0 0 26.75 9L26.25 9A0.25 0.25 0 0 0 26 9.25L26 10.75A0.25 0.25 0 0 0 26.25 11L27.75 11A0.25 0.25 0 0 1 28 11.25L28 12.75A0.25 0.25 0 0 0 28.25 13L28.75 13A0.25 0.25 0 0 1 29 13.25L29 13.75A0.25 0.25 0 0 1 28.75 14L26.25 14A0.25 0.25 0 0 0 26 14.25L26 14.75A0.25 0.25 0 0 1 25.75 15L24.25 15A0.25 0.25 0 0 1 24 14.75L24 14.25A0.25 0.25 0 0 0 23.75 14L23.25 14A0.25 0.25 0 0 1 23 13.75L23 13.25A0.25 0.25 0 0 0 22.75 13L21.25 13A0.25 0.25 0 0 0 21 13.25L21 13.75A0.25 0.25 0 0 1 20.75 14L20.25 14A0.25 0.25 0 0 0 20 14.25L20 14.75A0.25 0.25 0 0 1 19.75 15L19.25 15A0.25 0.25 0 0 1 19 14.75L19 13.25A0.25 0.25 0 0 0 18.75 13L16.25 13A0.25 0.25 0 0 1 16 12.75L16 11.25A0.25 0.25 0 0 0 15.75 11L15.25 11A0.25 0.25 0 0 0 15 11.25L15 11.75A0.25 0.25 0 0 1 14.75 12L14.25 12A0.25 0.25 0 0 1 14 11.75L14 11.25A0.25 0.25 0 0 0 13.75 11L12.25 11A0.25 0.25 0 0 1 12 10.75L12 10.25A0.25 0.25 0 0 0 11.75 10L11.25 10A0.25 0.25 0 0 0 11 10.25L11 10.75A0.25 0.25 0 0 1 10.75 11L10.25 11A0.25 0.25 0 0 0 10 11.25L10 11.75A0.25 0.25 0 0 0 10.25 12L10.75 12A0.25 0.25 0 0 1 11 12.25L11 12.75A0.25 0.25 0 0 0 11.25 13L11.75 13A0.25 0.25 0 0 1 12 13.25L12 13.75A0.25 0.25 0 0 0 12.25 14L12.75 14A0.25 0.25 0 0 0 13 13.75L13 13.25A0.25 0.25 0 0 0 12.75 13L12.25 13A0.25 0.25 0 0 1 12 12.75L12 12.25A0.25 0.25 0 0 1 12.25 12L13.75 12A0.25 0.25 0 0 1 14 12.25L14 14.75A0.25 0.25 0 0 1 13.75 15L11.25 15A0.25 0.25 0 0 0 11 15.25L11 15.75A0.25 0.25 0 0 0 11.25 16L11.75 16A0.25 0.25 0 0 1 12 16.25L12 16.75A0.25 0.25 0 0 0 12.25 17L12.75 17A0.25 0.25 0 0 0 13 16.75L13 16.25A0.25 0.25 0 0 1 13.25 16L13.75 16A0.25 0.25 0 0 1 14 16.25L14 17.75A0.25 0.25 0 0 1 13.75 18L13.25 18A0.25 0.25 0 0 0 13 18.25L13 18.75A0.25 0.25 0 0 1 12.75 19L11.25 19A0.25 0.25 0 0 1 11 18.75L11 18.25A0.25 0.25 0 0 0 10.75 18L10.25 18A0.25 0.25 0 0 1 10 17.75L10 17.25A0.25 0.25 0 0 0 9.75 17L9.25 17A0.25 0.25 0 0 0 9 17.25L9 17.75A0.25 0.25 0 0 1 8.75 18L7.25 18A0.25 0.25 0 0 1 7 17.75L7 17.25A0.25 0.25 0 0 0 6.75 17L6.25 17A0.25 0.25 0 0 1 6 16.75L6 16.25A0.25 0.25 0 0 1 6.25 16L7.75 16A0.25 0.25 0 0 0 8 15.75L8 15.25A0.25 0.25 0 0 0 7.75 15L5.25 15A0.25 0.25 0 0 1 5 14.75L5 14.25A0.25 0.25 0 0 1 5.25 14L8.75 14A0.25 0.25 0 0 1 9 14.25L9 14.75A0.25 0.25 0 0 0 9.25 15L9.75 15A0.25 0.25 0 0 0 10 14.75L10 13.25A0.25 0.25 0 0 0 9.75 13L9.25 13A0.25 0.25 0 0 1 9 12.75L9 12.25A0.25 0.25 0 0 0 8.75 12L7.25 12A0.25 0.25 0 0 1 7 11.75L7 11.25A0.25 0.25 0 0 1 7.25 11L7.75 11A0.25 0.25 0 0 0 8 10.75L8 9.25A0.25 0.25 0 0 0 7.75 9L6.25 9A0.25 0.25 0 0 0 6 9.25ZM9 9.25L9 9.75A0.25 0.25 0 0 0 9.25 10L9.75 10A0.25 0.25 0 0 0 10 9.75L10 9.25A0.25 0.25 0 0 0 9.75 9L9.25 9A0.25 0.25 0 0 0 9 9.25ZM21 10.25L21 10.75A0.25 0.25 0 0 0 21.25 11L21.75 11A0.25 0.25 0 0 0 22 10.75L22 10.25A0.25 0.25 0 0 0 21.75 10L21.25 10A0.25 0.25 0 0 0 21 10.25ZM23 10.25L23 10.75A0.25 0.25 0 0 0 23.25 11L23.75 11A0.25 0.25 0 0 0 24 10.75L24 10.25A0.25 0.25 0 0 0 23.75 10L23.25 10A0.25 0.25 0 0 0 23 10.25ZM28 10.25L28 10.75A0.25 0.25 0 0 0 28.25 11L29.75 11A0.25 0.25 0 0 0 30 10.75L30 10.25A0.25 0.25 0 0 0 29.75 10L28.25 10A0.25 0.25 0 0 0 28 10.25ZM11 11.25L11 11.75A0.25 0.25 0 0 0 11.25 12L11.75 12A0.25 0.25 0 0 0 12 11.75L12 11.25A0.25 0.25 0 0 0 11.75 11L11.25 11A0.25 0.25 0 0 0 11 11.25ZM36 12.25L36 12.75A0.25 0.25 0 0 1 35.75 13L34.25 13A0.25 0.25 0 0 0 34 13.25L34 14.75A0.25 0.25 0 0 0 34.25 15L34.75 15A0.25 0.25 0 0 1 35 15.25L35 15.75A0.25 0.25 0 0 1 34.75 16L33.25 16A0.25 0.25 0 0 0 33 16.25L33 16.75A0.25 0.25 0 0 0 33.25 17L33.75 17A0.25 0.25 0 0 1 34 17.25L34 17.75A0.25 0.25 0 0 0 34.25 18L34.75 18A0.25 0.25 0 0 1 35 18.25L35 19.75A0.25 0.25 0 0 0 35.25 20L35.75 20A0.25 0.25 0 0 1 36 20.25L36 20.75A0.25 0.25 0 0 0 36.25 21L36.75 21A0.25 0.25 0 0 0 37 20.75L37 20.25A0.25 0.25 0 0 0 36.75 20L36.25 20A0.25 0.25 0 0 1 36 19.75L36 19.25A0.25 0.25 0 0 1 36.25 19L36.75 19A0.25 0.25 0 0 0 37 18.75L37 17.25A0.25 0.25 0 0 0 36.75 17L36.25 17A0.25 0.25 0 0 1 36 16.75L36 14.25A0.25 0.25 0 0 1 36.25 14L36.75 14A0.25 0.25 0 0 0 37 13.75L37 12.25A0.25 0.25 0 0 0 36.75 12L36.25 12A0.25 0.25 0 0 0 36 12.25ZM21 14.25L21 14.75A0.25 0.25 0 0 0 21.25 15L21.75 15A0.25 0.25 0 0 0 22 14.75L22 14.25A0.25 0.25 0 0 0 21.75 14L21.25 14A0.25 0.25 0 0 0 21 14.25ZM4 15.25L4 15.75A0.25 0.25 0 0 1 3.75 16L2.25 16A0.25 0.25 0 0 0 2 16.25L2 16.75A0.25 0.25 0 0 0 2.25 17L2.75 17A0.25 0.25 0 0 1 3 17.25L3 18.75A0.25 0.25 0 0 0 3.25 19L3.75 19A0.25 0.25 0 0 0 4 18.75L4 17.25A0.25 0.25 0 0 1 4.25 17L4.75 17A0.25 0.25 0 0 0 5 16.75L5 15.25A0.25 0.25 0 0 0 4.75 15L4.25 15A0.25 0.25 0 0 0 4 15.25ZM17 16.25L17 16.75A0.25 0.25 0 0 0 17.25 17L17.75 17A0.25 0.25 0 0 1 18 17.25L18 17.75A0.25 0.25 0 0 1 17.75 18L17.25 18A0.25 0.25 0 0 0 17 18.25L17 18.75A0.25 0.25 0 0 0 17.25 19L18.75 19A0.25 0.25 0 0 0 19 18.75L19 17.25A0.25 0.25 0 0 0 18.75 17L18.25 17A0.25 0.25 0 0 1 18 16.75L18 16.25A0.25 0.25 0 0 0 17.75 16L17.25 16A0.25 0.25 0 0 0 17 16.25ZM25 16.25L25 18.75A0.25 0.25 0 0 0 25.25 19L25.75 19A0.25 0.25 0 0 0 26 18.75L26 16.25A0.25 0.25 0 0 0 25.75 16L25.25 16A0.25 0.25 0 0 0 25 16.25ZM23 17.25L23 17.75A0.25 0.25 0 0 0 23.25 18L23.75 18A0.25 0.25 0 0 0 24 17.75L24 17.25A0.25 0.25 0 0 0 23.75 17L23.25 17A0.25 0.25 0 0 0 23 17.25ZM35 17.25L35 17.75A0.25 0.25 0 0 0 35.25 18L35.75 18A0.25 0.25 0 0 0 36 17.75L36 17.25A0.25 0.25 0 0 0 35.75 17L35.25 17A0.25 0.25 0 0 0 35 17.25ZM5 18.25L5 19.75A0.25 0.25 0 0 0 5.25 20L5.75 20A0.25 0.25 0 0 1 6 20.25L6 20.75A0.25 0.25 0 0 0 6.25 21L7.75 21A0.25 0.25 0 0 0 8 20.75L8 20.25A0.25 0.25 0 0 0 7.75 20L6.25 20A0.25 0.25 0 0 1 6 19.75L6 19.25A0.25 0.25 0 0 1 6.25 19L6.75 19A0.25 0.25 0 0 0 7 18.75L7 18.25A0.25 0.25 0 0 0 6.75 18L5.25 18A0.25 0.25 0 0 0 5 18.25ZM32 21.25L32 21.75A0.25 0.25 0 0 1 31.75 22L31.25 22A0.25 0.25 0 0 0 31 22.25L31 23.75A0.25 0.25 0 0 0 31.25 24L31.75 24A0.25 0.25 0 0 1 32 24.25L32 24.75A0.25 0.25 0 0 0 32.25 25L32.75 25A0.25 0.25 0 0 0 33 24.75L33 24.25A0.25 0.25 0 0 1 33.25 24L33.75 24A0.25 0.25 0 0 0 34 23.75L34 23.25A0.25 0.25 0 0 0 33.75 23L32.25 23A0.25 0.25 0 0 1 32 22.75L32 22.25A0.25 0.25 0 0 1 32.25 22L32.75 22A0.25 0.25 0 0 0 33 21.75L33 21.25A0.25 0.25 0 0 0 32.75 21L32.25 21A0.25 0.25 0 0 0 32 21.25ZM13 22.25L13 22.75A0.25 0.25 0 0 1 12.75 23L11.25 23A0.25 0.25 0 0 0 11 23.25L11 24.75A0.25 0.25 0 0 0 11.25 25L12.75 25A0.25 0.25 0 0 0 13 24.75L13 23.25A0.25 0.25 0 0 1 13.25 23L14.75 23A0.25 0.25 0 0 0 15 22.75L15 22.25A0.25 0.25 0 0 0 14.75 22L13.25 22A0.25 0.25 0 0 0 13 22.25ZM18 22.25L18 22.75A0.25 0.25 0 0 0 18.25 23L18.75 23A0.25 0.25 0 0 0 19 22.75L19 22.25A0.25 0.25 0 0 0 18.75 22L18.25 22A0.25 0.25 0 0 0 18 22.25ZM23 22.25L23 22.75A0.25 0.25 0 0 0 23.25 23L23.75 23A0.25 0.25 0 0 0 24 22.75L24 22.25A0.25 0.25 0 0 0 23.75 22L23.25 22A0.25 0.25 0 0 0 23 22.25ZM14 25.25L14 25.75A0.25 0.25 0 0 0 14.25 26L15.75 26A0.25 0.25 0 0 0 16 25.75L16 25.25A0.25 0.25 0 0 0 15.75 25L14.25 25A0.25 0.25 0 0 0 14 25.25ZM17 27.25L17 27.75A0.25 0.25 0 0 0 17.25 28L17.75 28A0.25 0.25 0 0 0 18 27.75L18 27.25A0.25 0.25 0 0 0 17.75 27L17.25 27A0.25 0.25 0 0 0 17 27.25ZM28 27.25L28 32.75A0.25 0.25 0 0 0 28.25 33L29.75 33A0.25 0.25 0 0 1 30 33.25L30 34.75A0.25 0.25 0 0 0 30.25 35L30.75 35A0.25 0.25 0 0 1 31 35.25L31 36.75A0.25 0.25 0 0 0 31.25 37L32.75 37A0.25 0.25 0 0 0 33 36.75L33 36.25A0.25 0.25 0 0 1 33.25 36L33.75 36A0.25 0.25 0 0 1 34 36.25L34 36.75A0.25 0.25 0 0 0 34.25 37L36.75 37A0.25 0.25 0 0 0 37 36.75L37 36.25A0.25 0.25 0 0 0 36.75 36L35.25 36A0.25 0.25 0 0 1 35 35.75L35 35.25A0.25 0.25 0 0 1 35.25 35L35.75 35A0.25 0.25 0 0 0 36 34.75L36 34.25A0.25 0.25 0 0 0 35.75 34L35.25 34A0.25 0.25 0 0 0 35 34.25L35 34.75A0.25 0.25 0 0 1 34.75 35L33.25 35A0.25 0.25 0 0 1 33 34.75L33 34.25A0.25 0.25 0 0 1 33.25 34L33.75 34A0.25 0.25 0 0 0 34 33.75L34 30.25A0.25 0.25 0 0 1 34.25 30L34.75 30A0.25 0.25 0 0 1 35 30.25L35 32.75A0.25 0.25 0 0 0 35.25 33L36.75 33A0.25 0.25 0 0 0 37 32.75L37 32.25A0.25 0.25 0 0 0 36.75 32L36.25 32A0.25 0.25 0 0 1 36 31.75L36 31.25A0.25 0.25 0 0 1 36.25 31L36.75 31A0.25 0.25 0 0 0 37 30.75L37 29.25A0.25 0.25 0 0 0 36.75 29L36.25 29A0.25 0.25 0 0 1 36 28.75L36 28.25A0.25 0.25 0 0 0 35.75 28L35.25 28A0.25 0.25 0 0 0 35 28.25L35 28.75A0.25 0.25 0 0 1 34.75 29L33.25 29A0.25 0.25 0 0 1 33 28.75L33 28.25A0.25 0.25 0 0 0 32.75 28L32.25 28A0.25 0.25 0 0 1 32 27.75L32 27.25A0.25 0.25 0 0 0 31.75 27L31.25 27A0.25 0.25 0 0 0 31 27.25L31 27.75A0.25 0.25 0 0 1 30.75 28L30.25 28A0.25 0.25 0 0 1 30 27.75L30 27.25A0.25 0.25 0 0 0 29.75 27L28.25 27A0.25 0.25 0 0 0 28 27.25ZM2 28.25L2 28.75A0.25 0.25 0 0 0 2.25 29L4.75 29A0.25 0.25 0 0 0 5 28.75L5 28.25A0.25 0.25 0 0 0 4.75 28L2.25 28A0.25 0.25 0 0 0 2 28.25ZM29 29.25L29 31.75A0.25 0.25 0 0 0 29.25 32L31.75 32A0.25 0.25 0 0 0 32 31.75L32 29.25A0.25 0.25 0 0 0 31.75 29L29.25 29A0.25 0.25 0 0 0 29 29.25ZM35 29.25L35 29.75A0.25 0.25 0 0 0 35.25 30L35.75 30A0.25 0.25 0 0 0 36 29.75L36 29.25A0.25 0.25 0 0 0 35.75 29L35.25 29A0.25 0.25 0 0 0 35 29.25ZM30 30.25L30 30.75A0.25 0.25 0 0 0 30.25 31L30.75 31A0.25 0.25 0 0 0 31 30.75L31 30.25A0.25 0.25 0 0 0 30.75 30L30.25 30A0.25 0.25 0 0 0 30 30.25ZM24 31.25L24 31.75A0.25 0.25 0 0 0 24.25 32L24.75 32A0.25 0.25 0 0 0 25 31.75L25 31.25A0.25 0.25 0 0 0 24.75 31L24.25 31A0.25 0.25 0 0 0 24 31.25ZM13 32.25L13 32.75A0.25 0.25 0 0 0 13.25 33L13.75 33A0.25 0.25 0 0 1 14 33.25L14 33.75A0.25 0.25 0 0 1 13.75 34L13.25 34A0.25 0.25 0 0 0 13 34.25L13 34.75A0.25 0.25 0 0 1 12.75 35L12.25 35A0.25 0.25 0 0 0 12 35.25L12 35.75A0.25 0.25 0 0 0 12.25 36L13.75 36A0.25 0.25 0 0 0 14 35.75L14 34.25A0.25 0.25 0 0 1 14.25 34L14.75 34A0.25 0.25 0 0 1 15 34.25L15 35.75A0.25 0.25 0 0 0 15.25 36L15.75 36A0.25 0.25 0 0 0 16 35.75L16 35.25A0.25 0.25 0 0 1 16.25 35L17.75 35A0.25 0.25 0 0 0 18 34.75L18 34.25A0.25 0.25 0 0 0 17.75 34L15.25 34A0.25 0.25 0 0 1 15 33.75L15 33.25A0.25 0.25 0 0 0 14.75 33L14.25 33A0.25 0.25 0 0 1 14 32.75L14 32.25A0.25 0.25 0 0 0 13.75 32L13.25 32A0.25 0.25 0 0 0 13 32.25ZM22 32.25L22 32.75A0.25 0.25 0 0 0 22.25 33L22.75 33A0.25 0.25 0 0 0 23 32.75L23 32.25A0.25 0.25 0 0 0 22.75 32L22.25 32A0.25 0.25 0 0 0 22 32.25ZM26 32.25L26 32.75A0.25 0.25 0 0 1 25.75 33L25.25 33A0.25 0.25 0 0 0 25 33.25L25 33.75A0.25 0.25 0 0 0 25.25 34L25.75 34A0.25 0.25 0 0 1 26 34.25L26 34.75A0.25 0.25 0 0 1 25.75 35L23.25 35A0.25 0.25 0 0 0 23 35.25L23 36.75A0.25 0.25 0 0 0 23.25 37L24.75 37A0.25 0.25 0 0 0 25 36.75L25 36.25A0.25 0.25 0 0 1 25.25 36L25.75 36A0.25 0.25 0 0 1 26 36.25L26 36.75A0.25 0.25 0 0 0 26.25 37L26.75 37A0.25 0.25 0 0 0 27 36.75L27 36.25A0.25 0.25 0 0 0 26.75 36L26.25 36A0.25 0.25 0 0 1 26 35.75L26 35.25A0.25 0.25 0 0 1 26.25 35L28.75 35A0.25 0.25 0 0 0 29 34.75L29 34.25A0.25 0.25 0 0 0 28.75 34L26.25 34A0.25 0.25 0 0 1 26 33.75L26 33.25A0.25 0.25 0 0 1 26.25 33L26.75 33A0.25 0.25 0 0 0 27 32.75L27 32.25A0.25 0.25 0 0 0 26.75 32L26.25 32A0.25 0.25 0 0 0 26 32.25ZM31 33.25L31 33.75A0.25 0.25 0 0 0 31.25 34L31.75 34A0.25 0.25 0 0 0 32 33.75L32 33.25A0.25 0.25 0 0 0 31.75 33L31.25 33A0.25 0.25 0 0 0 31 33.25ZM19 34.25L19 34.75A0.25 0.25 0 0 0 19.25 35L19.75 35A0.25 0.25 0 0 0 20 34.75L20 34.25A0.25 0.25 0 0 0 19.75 34L19.25 34A0.25 0.25 0 0 0 19 34.25ZM29 36.25L29 36.75A0.25 0.25 0 0 0 29.25 37L29.75 37A0.25 0.25 0 0 0 30 36.75L30 36.25A0.25 0.25 0 0 0 29.75 36L29.25 36A0.25 0.25 0 0 0 29 36.25ZM0 0.25L0 6.75A0.25 0.25 0 0 0 0.25 7L6.75 7A0.25 0.25 0 0 0 7 6.75L7 0.25A0.25 0.25 0 0 0 6.75 0L0.25 0A0.25 0.25 0 0 0 0 0.25ZM1 1.25L1 5.75A0.25 0.25 0 0 0 1.25 6L5.75 6A0.25 0.25 0 0 0 6 5.75L6 1.25A0.25 0.25 0 0 0 5.75 1L1.25 1A0.25 0.25 0 0 0 1 1.25ZM2 2.25L2 4.75A0.25 0.25 0 0 0 2.25 5L4.75 5A0.25 0.25 0 0 0 5 4.75L5 2.25A0.25 0.25 0 0 0 4.75 2L2.25 2A0.25 0.25 0 0 0 2 2.25ZM30 0.25L30 6.75A0.25 0.25 0 0 0 30.25 7L36.75 7A0.25 0.25 0 0 0 37 6.75L37 0.25A0.25 0.25 0 0 0 36.75 0L30.25 0A0.25 0.25 0 0 0 30 0.25ZM31 1.25L31 5.75A0.25 0.25 0 0 0 31.25 6L35.75 6A0.25 0.25 0 0 0 36 5.75L36 1.25A0.25 0.25 0 0 0 35.75 1L31.25 1A0.25 0.25 0 0 0 31 1.25ZM32 2.25L32 4.75A0.25 0.25 0 0 0 32.25 5L34.75 5A0.25 0.25 0 0 0 35 4.75L35 2.25A0.25 0.25 0 0 0 34.75 2L32.25 2A0.25 0.25 0 0 0 32 2.25ZM0 30.25L0 36.75A0.25 0.25 0 0 0 0.25 37L6.75 37A0.25 0.25 0 0 0 7 36.75L7 30.25A0.25 0.25 0 0 0 6.75 30L0.25 30A0.25 0.25 0 0 0 0 30.25ZM1 31.25L1 35.75A0.25 0.25 0 0 0 1.25 36L5.75 36A0.25 0.25 0 0 0 6 35.75L6 31.25A0.25 0.25 0 0 0 5.75 31L1.25 31A0.25 0.25 0 0 0 1 31.25ZM2 32.25L2 34.75A0.25 0.25 0 0 0 2.25 35L4.75 35A0.25 0.25 0 0 0 5 34.75L5 32.25A0.25 0.25 0 0 0 4.75 32L2.25 32A0.25 0.25 0 0 0 2 32.25Z" fill="#000000"/></g></g></svg>
