<?xml version="1.0" encoding="UTF-8"?>
<svg xmlns="http://www.w3.org/2000/svg" version="1.1" width="500" height="500" viewBox="0 0 500 500"><rect x="0" y="0" width="500" height="500" fill="#ffffff"/><g transform="scale(13.514)"><g transform="translate(0,0)"><path fill-rule="evenodd" d="M8 0.25L8 0.75A0.25 0.25 0 0 0 8.25 1L10.75 1A0.25 0.25 0 0 1 11 1.25L11 1.75A0.25 0.25 0 0 0 11.25 2L12.75 2A0.25 0.25 0 0 1 13 2.25L13 2.75A0.25 0.25 0 0 1 12.75 3L12.25 3A0.25 0.25 0 0 0 12 3.25L12 4.75A0.25 0.25 0 0 1 11.75 5L10.25 5A0.25 0.25 0 0 1 10 4.75L10 4.25A0.25 0.25 0 0 1 10.25 4L10.75 4A0.25 0.25 0 0 0 11 3.75L11 3.25A0.25 0.25 0 0 0 10.75 3L10.25 3A0.25 0.25 0 0 0 10 3.25L10 3.75A0.25 0.25 0 0 1 9.75 4L8.25 4A0.25 0.25 0 0 0 8 4.25L8 4.75A0.25 0.25 0 0 0 8.25 5L8.75 5A0.25 0.25 0 0 1 9 5.25L9 5.75A0.25 0.25 0 0 1 8.75 6L8.25 6A0.25 0.25 0 0 0 8 6.25L8 7.75A0.25 0.25 0 0 0 8.25 8L8.75 8A0.25 0.25 0 0 0 9 7.75L9 6.25A0.25 0.25 0 0 1 9.25 6L9.75 6A0.25 0.25 0 0 1 10 6.25L10 6.75A0.25 0.25 0 0 0 10.25 7L10.75 7A0.25 0.25 0 0 0 11 6.75L11 6.25A0.25 0.25 0 0 1 11.25 6L11.75 6A0.25 0.25 0 0 1 12 6.25L12 6.75A0.25 0.25 0 0 0 12.25 7L12.75 7A0.25 0.25 0 0 1 13 7.25L13 7.75A0.25 0.25 0 0 1 12.75 8L10.25 8A0.25 0.25 0 0 0 10 8.25L10 8.75A0.25 0.25 0 0 1 9.75 9L9.25 9A0.25 0.25 0 0 0 9 9.25L9 10.75A0.25 0.25 0 0 1 8.75 11L8.25 11A0.25 0.25 0 0 0 8 11.25L8 11.75A0.25 0.25 0 0 1 7.75 12L6.25 12A0.25 0.25 0 0 1 6 11.75L6 11.25A0.25 0.25 0 0 1 6.25 11L6.75 11A0.25 0.25 0 0 0 7 10.75L7 10.25A0.25 0.25 0 0 0 6.75 10L6.25 10A0.25 0.25 0 0 1 6 9.75L6 9.25A0.25 0.25 0 0 1 6.25 9L6.75 9A0.25 0.25 0 0 0 7 8.75L7 8.25A0.25 0.25 0 0 0 6.75 8L5.25 8A0.25 0.25 0 0 0 5 8.25L5 9.75A0.25 0.25 0 0 1 4.75 10L4.25 10A0.25 0.25 0 0 1 4 9.75L4 9.25A0.25 0.25 0 0 0 3.75 9L1.25 9A0.25 0.25 0 0 0 1 9.25L1 9.75A0.25 0.25 0 0 1 0.75 10L0.25 10A0.25 0.25 0 0 0 0 10.25L0 14.75A0.25 0.25 0 0 0 0.25 15L0.75 15A0.25 0.25 0 0 1 1 15.25L1 15.75A0.25 0.25 0 0 0 1.25 16L1.75 16A0.25 0.25 0 0 1 2 16.25L2 16.75A0.25 0.25 0 0 1 1.75 17L1.25 17A0.25 0.25 0 0 0 1 17.25L1 17.75A0.25 0.25 0 0 1 0.75 18L0.25 18A0.25 0.25 0 0 0 0 18.25L0 19.75A0.25 0.25 0 0 0 0.25 20L2.75 20A0.25 0.25 0 0 0 3 19.75L3 19.25A0.25 0.25 0 0 1 3.25 19L4.75 19A0.25 0.25 0 0 0 5 18.75L5 17.25A0.25 0.25 0 0 1 5.25 17L6.75 17A0.25 0.25 0 0 1 7 17.25L7 17.75A0.25 0.25 0 0 1 6.75 18L6.25 18A0.25 0.25 0 0 0 6 18.25L6 18.75A0.25 0.25 0 0 0 6.25 19L6.75 19A0.25 0.25 0 0 0 7 18.75L7 18.25A0.25 0.25 0 0 1 7.25 18L8.75 18A0.25 0.25 0 0 0 9 17.75L9 17.25A0.25 0.25 0 0 0 8.75 17L8.25 17A0.25 0.25 0 0 1 8 16.75L8 16.25A0.25 0.25 0 0 0 7.75 16L4.25 16A0.25 0.25 0 0 0 4 16.25L4 16.75A0.25 0.25 0 0 1 3.75 17L3.25 17A0.25 0.25 0 0 1 3 16.75L3 15.25A0.25 0.25 0 0 1 3.25 15L6.75 15A0.25 0.25 0 0 0 7 14.75L7 14.25A0.25 0.25 0 0 0 6.75 14L3.25 14A0.25 0.25 0 0 0 3 14.25L3 14.75A0.25 0.25 0 0 1 2.75 15L1.25 15A0.25 0.25 0 0 1 1 14.75L1 14.25A0.25 0.25 0 0 1 1.25 14L1.75 14A0.25 0.25 0 0 0 2 13.75L2 12.25A0.25 0.25 0 0 1 2.25 12L4.75 12A0.25 0.25 0 0 1 5 12.25L5 12.75A0.25 0.25 0 0 0 5.25 13L7.75 13A0.25 0.25 0 0 1 8 13.25L8 14.75A0.25 0.25 0 0 0 8.25 15L9.75 15A0.25 0.25 0 0 0 10 14.75L10 14.25A0.25 0.25 0 0 1 10.25 14L10.75 14A0.25 0.25 0 0 1 11 14.25L11 14.75A0.25 0.25 0 0 0 11.25 15L11.75 15A0.25 0.25 0 0 0 12 14.75L12 14.25A0.25 0.25 0 0 1 12.25 14L14.75 14A0.25 0.25 0 0 0 15 13.75L15 13.25A0.25 0.25 0 0 1 15.25 13L15.75 13A0.25 0.25 0 0 1 16 13.25L16 13.75A0.25 0.25 0 0 0 16.25 14L16.75 14A0.25 0.25 0 0 1 17 14.25L17 14.75A0.25 0.25 0 0 0 17.25 15L17.75 15A0.25 0.25 0 0 1 18 15.25L18 15.75A0.25 0.25 0 0 0 18.25 16L18.75 16A0.25 0.25 0 0 1 19 16.25L19 16.75A0.25 0.25 0 0 1 18.75 17L17.25 17A0.25 0.25 0 0 1 17 16.75L17 16.25A0.25 0.25 0 0 0 16.75 16L16.25 16A0.25 0.25 0 0 1 16 15.75L16 15.25A0.25 0.25 0 0 0 15.75 15L14.25 15A0.25 0.25 0 0 0 14 15.25L14 15.75A0.25 0.25 0 0 1 13.75 16L12.25 16A0.25 0.25 0 0 0 12 16.25L12 16.75A0.25 0.25 0 0 0 12.25 17L14.75 17A0.25 0.25 0 0 1 15 17.25L15 18.75A0.25 0.25 0 0 1 14.75 19L13.25 19A0.25 0.25 0 0 1 13 18.75L13 18.25A0.25 0.25 0 0 0 12.75 18L12.25 18A0.25 0.25 0 0 0 12 18.25L12 19.75A0.25 0.25 0 0 1 11.75 20L11.25 20A0.25 0.25 0 0 1 11 19.75L11 18.25A0.25 0.25 0 0 0 10.75 18L10.25 18A0.25 0.25 0 0 0 10 18.25L10 18.75A0.25 0.25 0 0 1 9.75 19L9.25 19A0.25 0.25 0 0 0 9 19.25L9 19.75A0.25 0.25 0 0 1 8.75 20L8.25 20A0.25 0.25 0 0 0 8 20.25L8 20.75A0.25 0.25 0 0 0 8.25 21L8.75 21A0.25 0.25 0 0 0 9 20.75L9 20.25A0.25 0.25 0 0 1 9.25 20L9.75 20A0.25 0.25 0 0 1 10 20.25L10 24.75A0.25 0.25 0 0 0 10.25 25L10.75 25A0.25 0.25 0 0 1 11 25.25L11 26.75A0.25 0.25 0 0 0 11.25 27L13.75 27A0.25 0.25 0 0 1 14 27.25L14 27.75A0.25 0.25 0 0 1 13.75 28L13.25 28A0.25 0.25 0 0 0 13 28.25L13 28.75A0.25 0.25 0 0 1 12.75 29L12.25 29A0.25 0.25 0 0 0 12 29.25L12 29.75A0.25 0.25 0 0 1 11.75 30L11.25 30A0.25 0.25 0 0 1 11 29.75L11 28.25A0.25 0.25 0 0 0 10.75 28L10.25 28A0.25 0.25 0 0 1 10 27.75L10 26.25A0.25 0.25 0 0 0 9.75 26L9.25 26A0.25 0.25 0 0 1 9 25.75L9 25.25A0.25 0.25 0 0 0 8.75 25L8.25 25A0.25 0.25 0 0 0 8 25.25L8 25.75A0.25 0.25 0 0 0 8.25 26L8.75 26A0.25 0.25 0 0 1 9 26.25L9 28.75A0.25 0.25 0 0 1 8.75 29L8.25 29A0.25 0.25 0 0 0 8 29.25L8 29.75A0.25 0.25 0 0 0 8.25 30L9.75 30A0.25 0.25 0 0 1 10 30.25L10 30.75A0.25 0.25 0 0 1 9.75 31L8.25 31A0.25 0.25 0 0 0 8 31.25L8 31.75A0.25 0.25 0 0 0 8.25 32L9.75 32A0.25 0.25 0 0 1 10 32.25L10 32.75A0.25 0.25 0 0 1 9.75 33L9.25 33A0.25 0.25 0 0 0 9 33.25L9 34.75A0.25 0.25 0 0 0 9.25 35L9.75 35A0.25 0.25 0 0 0 10 34.75L10 34.25A0.25 0.25 0 0 1 10.25 34L10.75 34A0.25 0.25 0 0 1 11 34.25L11 35.75A0.25 0.25 0 0 1 10.75 36L10.25 36A0.25 0.25 0 0 0 10 36.25L10 36.75A0.25 0.25 0 0 0 10.25 37L15.75 37A0.25 0.25 0 0 0 16 36.75L16 36.25A0.25 0.25 0 0 0 15.75 36L15.25 36A0.25 0.25 0 0 1 15 35.75L15 35.25A0.25 0.25 0 0 1 15.25 35L15.75 35A0.25 0.25 0 0 0 16 34.75L16 34.25A0.25 0.25 0 0 0 15.75 34L15.25 34A0.25 0.25 0 0 1 15 33.75L15 33.25A0.25 0.25 0 0 1 15.25 33L16.75 33A0.25 0.25 0 0 1 17 33.25L17 35.75A0.25 0.25 0 0 0 17.25 36L17.75 36A0.25 0.25 0 0 1 18 36.25L18 36.75A0.25 0.25 0 0 0 18.25 37L18.75 37A0.25 0.25 0 0 0 19 36.75L19 36.25A0.25 0.25 0 0 0 18.75 36L18.25 36A0.25 0.25 0 0 1 18 35.75L18 33.25A0.25 0.25 0 0 1 18.25 33L18.75 33A0.25 0.25 0 0 1 19 33.25L19 34.75A0.25 0.25 0 0 0 19.25 35L19.75 35A0.25 0.25 0 0 1 20 35.25L20 36.75A0.25 0.25 0 0 0 20.25 37L22.75 37A0.25 0.25 0 0 0 23 36.75L23 36.25A0.25 0.25 0 0 1 23.25 36L23.75 36A0.25 0.25 0 0 1 24 36.25L24 36.75A0.25 0.25 0 0 0 24.25 37L25.75 37A0.25 0.25 0 0 0 26 36.75L26 36.25A0.25 0.25 0 0 1 26.25 36L26.75 36A0.25 0.25 0 0 0 27 35.75L27 35.25A0.25 0.25 0 0 0 26.75 35L26.25 35A0.25 0.25 0 0 1 26 34.75L26 34.25A0.25 0.25 0 0 1 26.25 34L27.75 34A0.25 0.25 0 0 1 28 34.25L28 36.75A0.25 0.25 0 0 0 28.25 37L28.75 37A0.25 0.25 0 0 0 29 36.75L29 35.25A0.25 0.25 0 0 1 29.25 35L29.75 35A0.25 0.25 0 0 1 30 35.25L30 35.75A0.25 0.25 0 0 0 30.25 36L30.75 36A0.25 0.25 0 0 0 31 35.75L31 35.25A0.25 0.25 0 0 1 31.25 35L31.75 35A0.25 0.25 0 0 1 32 35.25L32 35.75A0.25 0.25 0 0 0 32.25 36L33.75 36A0.25 0.25 0 0 0 34 35.75L34 34.25A0.25 0.25 0 0 1 34.25 34L34.75 34A0.25 0.25 0 0 0 35 33.75L35 33.25A0.25 0.25 0 0 1 35.25 33L35.75 33A0.25 0.25 0 0 0 36 32.75L36 32.25A0.25 0.25 0 0 1 36.25 32L36.75 32A0.25 0.25 0 0 0 37 31.75L37 30.25A0.25 0.25 0 0 0 36.75 30L36.25 30A0.25 0.25 0 0 0 36 30.25L36 31.75A0.25 0.25 0 0 1 35.75 32L34.25 32A0.25 0.25 0 0 1 34 31.75L34 31.25A0.25 0.25 0 0 1 34.25 31L34.75 31A0.25 0.25 0 0 0 35 30.75L35 30.25A0.25 0.25 0 0 0 34.75 30L34.25 30A0.25 0.25 0 0 1 34 29.75L34 29.25A0.25 0.25 0 0 1 34.25 29L34.75 29A0.25 0.25 0 0 0 35 28.75L35 27.25A0.25 0.25 0 0 0 34.75 27L34.25 27A0.25 0.25 0 0 1 34 26.75L34 26.25A0.25 0.25 0 0 0 33.75 26L32.25 26A0.25 0.25 0 0 1 32 25.75L32 25.25A0.25 0.25 0 0 1 32.25 25L33.75 25A0.25 0.25 0 0 0 34 24.75L34 24.25A0.25 0.25 0 0 0 33.75 24L32.25 24A0.25 0.25 0 0 1 32 23.75L32 23.25A0.25 0.25 0 0 0 31.75 23L31.25 23A0.25 0.25 0 0 1 31 22.75L31 22.25A0.25 0.25 0 0 1 31.25 22L32.75 22A0.25 0.25 0 0 0 33 21.75L33 20.25A0.25 0.25 0 0 1 33.25 20L33.75 20A0.25 0.25 0 0 1 34 20.25L34 21.75A0.25 0.25 0 0 0 34.25 22L34.75 22A0.25 0.25 0 0 1 35 22.25L35 22.75A0.25 0.25 0 0 0 35.25 23L35.75 23A0.25 0.25 0 0 1 36 23.25L36 23.75A0.25 0.25 0 0 1 35.75 24L35.25 24A0.25 0.25 0 0 0 35 24.25L35 25.75A0.25 0.25 0 0 0 35.25 26L35.75 26A0.25 0.25 0 0 1 36 26.25L36 26.75A0.25 0.25 0 0 0 36.25 27L36.75 27A0.25 0.25 0 0 0 37 26.75L37 26.25A0.25 0.25 0 0 0 36.75 26L36.25 26A0.25 0.25 0 0 1 36 25.75L36 25.25A0.25 0.25 0 0 1 36.25 25L36.75 25A0.25 0.25 0 0 0 37 24.75L37 22.25A0.25 0.25 0 0 0 36.75 22L35.25 22A0.25 0.25 0 0 1 35 21.75L35 20.25A0.25 0.25 0 0 0 34.75 20L34.25 20A0.25 0.25 0 0 1 34 19.75L34 19.25A0.25 0.25 0 0 1 34.25 19L34.75 19A0.25 0.25 0 0 0 35 18.75L35 18.25A0.25 0.25 0 0 0 34.75 18L34.25 18A0.25 0.25 0 0 0 34 18.25L34 18.75A0.25 0.25 0 0 1 33.75 19L33.25 19A0.25 0.25 0 0 1 33 18.75L33 18.25A0.25 0.25 0 0 0 32.75 18L31.25 18A0.25 0.25 0 0 0 31 18.25L31 18.75A0.25 0.25 0 0 0 31.25 19L32.75 19A0.25 0.25 0 0 1 33 19.25L33 19.75A0.25 0.25 0 0 1 32.75 20L30.25 20A0.25 0.25 0 0 1 30 19.75L30 19.25A0.25 0.25 0 0 0 29.75 19L29.25 19A0.25 0.25 0 0 1 29 18.75L29 18.25A0.25 0.25 0 0 1 29.25 18L29.75 18A0.25 0.25 0 0 0 30 17.75L30 17.25A0.25 0.25 0 0 1 30.25 17L30.75 17A0.25 0.25 0 0 0 31 16.75L31 16.25A0.25 0.25 0 0 0 30.75 16L29.25 16A0.25 0.25 0 0 0 29 16.25L29 16.75A0.25 0.25 0 0 1 28.75 17L27.25 17A0.25 0.25 0 0 1 27 16.75L27 16.25A0.25 0.25 0 0 1 27.25 16L27.75 16A0.25 0.25 0 0 0 28 15.75L28 15.25A0.25 0.25 0 0 1 28.25 15L29.75 15A0.25 0.25 0 0 0 30 14.75L30 13.25A0.25 0.25 0 0 1 30.25 13L30.75 13A0.25 0.25 0 0 1 31 13.25L31 14.75A0.25 0.25 0 0 0 31.25 15L31.75 15A0.25 0.25 0 0 1 32 15.25L32 16.75A0.25 0.25 0 0 0 32.25 17L32.75 17A0.25 0.25 0 0 0 33 16.75L33 16.25A0.25 0.25 0 0 1 33.25 16L33.75 16A0.25 0.25 0 0 1 34 16.25L34 16.75A0.25 0.25 0 0 0 34.25 17L34.75 17A0.25 0.25 0 0 0 35 16.75L35 16.25A0.25 0.25 0 0 1 35.25 16L35.75 16A0.25 0.25 0 0 1 36 16.25L36 16.75A0.25 0.25 0 0 0 36.25 17L36.75 17A0.25 0.25 0 0 0 37 16.75L37 16.25A0.25 0.25 0 0 0 36.75 16L36.25 16A0.25 0.25 0 0 1 36 15.75L36 15.25A0.25 0.25 0 0 1 36.25 15L36.75 15A0.25 0.25 0 0 0 37 14.75L37 14.25A0.25 0.25 0 0 0 36.75 14L35.25 14A0.25 0.25 0 0 1 35 13.75L35 13.25A0.25 0.25 0 0 1 35.25 13L36.75 13A0.25 0.25 0 0 0 37 12.75L37 10.25A0.25 0.25 0 0 0 36.75 10L36.25 10A0.25 0.25 0 0 1 36 9.75L36 9.25A0.25 0.25 0 0 1 36.25 9L36.75 9A0.25 0.25 0 0 0 37 8.75L37 8.25A0.25 0.25 0 0 0 36.75 8L36.25 8A0.25 0.25 0 0 0 36 8.25L36 8.75A0.25 0.25 0 0 1 35.75 9L35.25 9A0.25 0.25 0 0 1 35 8.75L35 8.25A0.25 0.25 0 0 0 34.75 8L34.25 8A0.25 0.25 0 0 0 34 8.25L34 8.75A0.25 0.25 0 0 0 34.25 9L34.75 9A0.25 0.25 0 0 1 35 9.25L35 9.75A0.25 0.25 0 0 0 35.25 10L35.75 10A0.25 0.25 0 0 1 36 10.25L36 11.75A0.25 0.25 0 0 1 35.75 12L35.25 12A0.25 0.25 0 0 0 35 12.25L35 12.75A0.25 0.25 0 0 1 34.75 13L34.25 13A0.25 0.25 0 0 0 34 13.25L34 13.75A0.25 0.25 0 0 1 33.75 14L32.25 14A0.25 0.25 0 0 1 32 13.75L32 12.25A0.25 0.25 0 0 0 31.75 12L31.25 12A0.25 0.25 0 0 1 31 11.75L31 10.25A0.25 0.25 0 0 1 31.25 10L32.75 10A0.25 0.25 0 0 0 33 9.75L33 8.25A0.25 0.25 0 0 0 32.75 8L32.25 8A0.25 0.25 0 0 0 32 8.25L32 8.75A0.25 0.25 0 0 1 31.75 9L31.25 9A0.25 0.25 0 0 1 31 8.75L31 8.25A0.25 0.25 0 0 0 30.75 8L30.25 8A0.25 0.25 0 0 0 30 8.25L30 8.75A0.25 0.25 0 0 1 29.75 9L28.25 9A0.25 0.25 0 0 0 28 9.25L28 9.75A0.25 0.25 0 0 1 27.75 10L27.25 10A0.25 0.25 0 0 1 27 9.75L27 8.25A0.25 0.25 0 0 1 27.25 8L28.75 8A0.25 0.25 0 0 0 29 7.75L29 5.25A0.25 0.25 0 0 0 28.75 5L28.25 5A0.25 0.25 0 0 0 28 5.25L28 6.75A0.25 0.25 0 0 1 27.75 7L27.25 7A0.25 0.25 0 0 1 27 6.75L27 5.25A0.25 0.25 0 0 0 26.75 5L26.25 5A0.25 0.25 0 0 1 26 4.75L26 3.25A0.25 0.25 0 0 1 26.25 3L27.75 3A0.25 0.25 0 0 1 28 3.25L28 3.75A0.25 0.25 0 0 0 28.25 4L28.75 4A0.25 0.25 0 0 0 29 3.75L29 3.25A0.25 0.25 0 0 0 28.75 3L28.25 3A0.25 0.25 0 0 1 28 2.75L28 2.25A0.25 0.25 0 0 1 28.25 2L28.75 2A0.25 0.25 0 0 0 29 1.75L29 1.25A0.25 0.25 0 0 0 28.75 1L28.25 1A0.25 0.25 0 0 0 28 1.25L28 1.75A0.25 0.25 0 0 1 27.75 2L26.25 2A0.25 0.25 0 0 1 26 1.75L26 1.25A0.25 0.25 0 0 1 26.25 1L26.75 1A0.25 0.25 0 0 0 27 0.75L27 0.25A0.25 0.25 0 0 0 26.75 0L25.25 0A0.25 0.25 0 0 0 25 0.25L25 1.75A0.25 0.25 0 0 0 25.25 2L25.75 2A0.25 0.25 0 0 1 26 2.25L26 2.75A0.25 0.25 0 0 1 25.75 3L23.25 3A0.25 0.25 0 0 1 23 2.75L23 2.25A0.25 0.25 0 0 1 23.25 2L23.75 2A0.25 0.25 0 0 0 24 1.75L24 0.25A0.25 0.25 0 0 0 23.75 0L23.25 0A0.25 0.25 0 0 0 23 0.25L23 1.75A0.25 0.25 0 0 1 22.75 2L21.25 2A0.25 0.25 0 0 0 21 2.25L21 3.75A0.25 0.25 0 0 1 20.75 4L20.25 4A0.25 0.25 0 0 1 20 3.75L20 2.25A0.25 0.25 0 0 0 19.75 2L19.25 2A0.25 0.25 0 0 0 19 2.25L19 2.75A0.25 0.25 0 0 1 18.75 3L18.25 3A0.25 0.25 0 0 1 18 2.75L18 0.25A0.25 0.25 0 0 0 17.75 0L16.25 0A0.25 0.25 0 0 0 16 0.25L16 0.75A0.25 0.25 0 0 1 15.75 1L15.25 1A0.25 0.25 0 0 1 15 0.75L15 0.25A0.25 0.25 0 0 0 14.75 0L13.25 0A0.25 0.25 0 0 0 13 0.25L13 0.75A0.25 0.25 0 0 1 12.75 1L12.25 1A0.25 0.25 0 0 1 12 0.75L12 0.25A0.25 0.25 0 0 0 11.75 0L8.25 0A0.25 0.25 0 0 0 8 0.25ZM21 0.25L21 0.75A0.25 0.25 0 0 0 21.25 1L21.75 1A0.25 0.25 0 0 0 22 0.75L22 0.25A0.25 0.25 0 0 0 21.75 0L21.25 0A0.25 0.25 0 0 0 21 0.25ZM14 1.25L14 2.75A0.25 0.25 0 0 0 14.25 3L14.75 3A0.25 0.25 0 0 1 15 3.25L15 3.75A0.25 0.25 0 0 0 15.25 4L15.75 4A0.25 0.25 0 0 1 16 4.25L16 5.75A0.25 0.25 0 0 1 15.75 6L15.25 6A0.25 0.25 0 0 1 15 5.75L15 5.25A0.25 0.25 0 0 0 14.75 5L14.25 5A0.25 0.25 0 0 1 14 4.75L14 4.25A0.25 0.25 0 0 0 13.75 4L13.25 4A0.25 0.25 0 0 0 13 4.25L13 4.75A0.25 0.25 0 0 1 12.75 5L12.25 5A0.25 0.25 0 0 0 12 5.25L12 5.75A0.25 0.25 0 0 0 12.25 6L12.75 6A0.25 0.25 0 0 1 13 6.25L13 6.75A0.25 0.25 0 0 0 13.25 7L13.75 7A0.25 0.25 0 0 1 14 7.25L14 10.75A0.25 0.25 0 0 0 14.25 11L14.75 11A0.25 0.25 0 0 0 15 10.75L15 10.25A0.25 0.25 0 0 1 15.25 10L16.75 10A0.25 0.25 0 0 1 17 10.25L17 10.75A0.25 0.25 0 0 1 16.75 11L16.25 11A0.25 0.25 0 0 0 16 11.25L16 11.75A0.25 0.25 0 0 0 16.25 12L16.75 12A0.25 0.25 0 0 1 17 12.25L17 12.75A0.25 0.25 0 0 0 17.25 13L19.75 13A0.25 0.25 0 0 1 20 13.25L20 13.75A0.25 0.25 0 0 1 19.75 14L18.25 14A0.25 0.25 0 0 0 18 14.25L18 14.75A0.25 0.25 0 0 0 18.25 15L18.75 15A0.25 0.25 0 0 1 19 15.25L19 15.75A0.25 0.25 0 0 0 19.25 16L19.75 16A0.25 0.25 0 0 1 20 16.25L20 16.75A0.25 0.25 0 0 1 19.75 17L19.25 17A0.25 0.25 0 0 0 19 17.25L19 17.75A0.25 0.25 0 0 1 18.75 18L18.25 18A0.25 0.25 0 0 0 18 18.25L18 18.75A0.25 0.25 0 0 1 17.75 19L17.25 19A0.25 0.25 0 0 1 17 18.75L17 17.25A0.25 0.25 0 0 0 16.75 17L16.25 17A0.25 0.25 0 0 0 16 17.25L16 18.75A0.25 0.25 0 0 0 16.25 19L16.75 19A0.25 0.25 0 0 1 17 19.25L17 19.75A0.25 0.25 0 0 0 17.25 20L18.75 20A0.25 0.25 0 0 1 19 20.25L19 20.75A0.25 0.25 0 0 1 18.75 21L18.25 21A0.25 0.25 0 0 0 18 21.25L18 22.75A0.25 0.25 0 0 1 17.75 23L17.25 23A0.25 0.25 0 0 1 17 22.75L17 22.25A0.25 0.25 0 0 0 16.75 22L16.25 22A0.25 0.25 0 0 0 16 22.25L16 22.75A0.25 0.25 0 0 1 15.75 23L15.25 23A0.25 0.25 0 0 1 15 22.75L15 22.25A0.25 0.25 0 0 0 14.75 22L14.25 22A0.25 0.25 0 0 0 14 22.25L14 22.75A0.25 0.25 0 0 1 13.75 23L13.25 23A0.25 0.25 0 0 1 13 22.75L13 21.25A0.25 0.25 0 0 1 13.25 21L13.75 21A0.25 0.25 0 0 0 14 20.75L14 20.25A0.25 0.25 0 0 0 13.75 20L13.25 20A0.25 0.25 0 0 0 13 20.25L13 20.75A0.25 0.25 0 0 1 12.75 21L12.25 21A0.25 0.25 0 0 0 12 21.25L12 22.75A0.25 0.25 0 0 1 11.75 23L11.25 23A0.25 0.25 0 0 0 11 23.25L11 24.75A0.25 0.25 0 0 0 11.25 25L11.75 25A0.25 0.25 0 0 0 12 24.75L12 23.25A0.25 0.25 0 0 1 12.25 23L12.75 23A0.25 0.25 0 0 1 13 23.25L13 23.75A0.25 0.25 0 0 0 13.25 24L14.75 24A0.25 0.25 0 0 1 15 24.25L15 25.75A0.25 0.25 0 0 1 14.75 26L14.25 26A0.25 0.25 0 0 1 14 25.75L14 25.25A0.25 0.25 0 0 0 13.75 25L13.25 25A0.25 0.25 0 0 0 13 25.25L13 25.75A0.25 0.25 0 0 0 13.25 26L13.75 26A0.25 0.25 0 0 1 14 26.25L14 26.75A0.25 0.25 0 0 0 14.25 27L14.75 27A0.25 0.25 0 0 1 15 27.25L15 27.75A0.25 0.25 0 0 1 14.75 28L14.25 28A0.25 0.25 0 0 0 14 28.25L14 28.75A0.25 0.25 0 0 1 13.75 29L13.25 29A0.25 0.25 0 0 0 13 29.25L13 29.75A0.25 0.25 0 0 1 12.75 30L12.25 30A0.25 0.25 0 0 0 12 30.25L12 31.75A0.25 0.25 0 0 1 11.75 32L11.25 32A0.25 0.25 0 0 1 11 31.75L11 31.25A0.25 0.25 0 0 0 10.75 31L10.25 31A0.25 0.25 0 0 0 10 31.25L10 31.75A0.25 0.25 0 0 0 10.25 32L10.75 32A0.25 0.25 0 0 1 11 32.25L11 32.75A0.25 0.25 0 0 0 11.25 33L11.75 33A0.25 0.25 0 0 1 12 33.25L12 33.75A0.25 0.25 0 0 0 12.25 34L12.75 34A0.25 0.25 0 0 0 13 33.75L13 33.25A0.25 0.25 0 0 0 12.75 33L12.25 33A0.25 0.25 0 0 1 12 32.75L12 32.25A0.25 0.25 0 0 1 12.25 32L12.75 32A0.25 0.25 0 0 0 13 31.75L13 30.25A0.25 0.25 0 0 1 13.25 30L14.75 30A0.25 0.25 0 0 1 15 30.25L15 30.75A0.25 0.25 0 0 1 14.75 31L14.25 31A0.25 0.25 0 0 0 14 31.25L14 31.75A0.25 0.25 0 0 0 14.25 32L14.75 32A0.25 0.25 0 0 0 15 31.75L15 31.25A0.25 0.25 0 0 1 15.25 31L15.75 31A0.25 0.25 0 0 1 16 31.25L16 31.75A0.25 0.25 0 0 0 16.25 32L17.75 32A0.25 0.25 0 0 0 18 31.75L18 30.25A0.25 0.25 0 0 1 18.25 30L18.75 30A0.25 0.25 0 0 1 19 30.25L19 32.75A0.25 0.25 0 0 0 19.25 33L19.75 33A0.25 0.25 0 0 1 20 33.25L20 34.75A0.25 0.25 0 0 0 20.25 35L20.75 35A0.25 0.25 0 0 1 21 35.25L21 35.75A0.25 0.25 0 0 0 21.25 36L21.75 36A0.25 0.25 0 0 0 22 35.75L22 35.25A0.25 0.25 0 0 1 22.25 35L22.75 35A0.25 0.25 0 0 0 23 34.75L23 34.25A0.25 0.25 0 0 1 23.25 34L25.75 34A0.25 0.25 0 0 0 26 33.75L26 33.25A0.25 0.25 0 0 0 25.75 33L23.25 33A0.25 0.25 0 0 1 23 32.75L23 29.25A0.25 0.25 0 0 1 23.25 29L23.75 29A0.25 0.25 0 0 1 24 29.25L24 29.75A0.25 0.25 0 0 0 24.25 30L26.75 30A0.25 0.25 0 0 1 27 30.25L27 31.75A0.25 0.25 0 0 0 27.25 32L27.75 32A0.25 0.25 0 0 0 28 31.75L28 27.25A0.25 0.25 0 0 0 27.75 27L27.25 27A0.25 0.25 0 0 0 27 27.25L27 28.75A0.25 0.25 0 0 1 26.75 29L25.25 29A0.25 0.25 0 0 1 25 28.75L25 28.25A0.25 0.25 0 0 1 25.25 28L25.75 28A0.25 0.25 0 0 0 26 27.75L26 26.25A0.25 0.25 0 0 0 25.75 26L24.25 26A0.25 0.25 0 0 1 24 25.75L24 25.25A0.25 0.25 0 0 1 24.25 25L24.75 25A0.25 0.25 0 0 0 25 24.75L25 24.25A0.25 0.25 0 0 1 25.25 24L25.75 24A0.25 0.25 0 0 0 26 23.75L26 23.25A0.25 0.25 0 0 1 26.25 23L26.75 23A0.25 0.25 0 0 0 27 22.75L27 22.25A0.25 0.25 0 0 0 26.75 22L26.25 22A0.25 0.25 0 0 1 26 21.75L26 19.25A0.25 0.25 0 0 0 25.75 19L25.25 19A0.25 0.25 0 0 1 25 18.75L25 18.25A0.25 0.25 0 0 1 25.25 18L26.75 18A0.25 0.25 0 0 0 27 17.75L27 17.25A0.25 0.25 0 0 0 26.75 17L25.25 17A0.25 0.25 0 0 0 25 17.25L25 17.75A0.25 0.25 0 0 1 24.75 18L24.25 18A0.25 0.25 0 0 0 24 18.25L24 18.75A0.25 0.25 0 0 0 24.25 19L24.75 19A0.25 0.25 0 0 1 25 19.25L25 19.75A0.25 0.25 0 0 1 24.75 20L22.25 20A0.25 0.25 0 0 0 22 20.25L22 20.75A0.25 0.25 0 0 0 22.25 21L23.75 21A0.25 0.25 0 0 1 24 21.25L24 23.75A0.25 0.25 0 0 1 23.75 24L23.25 24A0.25 0.25 0 0 1 23 23.75L23 22.25A0.25 0.25 0 0 0 22.75 22L21.25 22A0.25 0.25 0 0 0 21 22.25L21 22.75A0.25 0.25 0 0 0 21.25 23L21.75 23A0.25 0.25 0 0 1 22 23.25L22 24.75A0.25 0.25 0 0 0 22.25 25L22.75 25A0.25 0.25 0 0 1 23 25.25L23 27.75A0.25 0.25 0 0 1 22.75 28L21.25 28A0.25 0.25 0 0 1 21 27.75L21 24.25A0.25 0.25 0 0 0 20.75 24L19.25 24A0.25 0.25 0 0 0 19 24.25L19 26.75A0.25 0.25 0 0 1 18.75 27L18.25 27A0.25 0.25 0 0 1 18 26.75L18 23.25A0.25 0.25 0 0 1 18.25 23L19.75 23A0.25 0.25 0 0 0 20 22.75L20 21.25A0.25 0.25 0 0 1 20.25 21L20.75 21A0.25 0.25 0 0 0 21 20.75L21 19.25A0.25 0.25 0 0 1 21.25 19L21.75 19A0.25 0.25 0 0 0 22 18.75L22 16.25A0.25 0.25 0 0 1 22.25 16L23.75 16A0.25 0.25 0 0 0 24 15.75L24 15.25A0.25 0.25 0 0 0 23.75 15L22.25 15A0.25 0.25 0 0 1 22 14.75L22 14.25A0.25 0.25 0 0 1 22.25 14L23.75 14A0.25 0.25 0 0 0 24 13.75L24 13.25A0.25 0.25 0 0 0 23.75 13L23.25 13A0.25 0.25 0 0 1 23 12.75L23 10.25A0.25 0.25 0 0 1 23.25 10L23.75 10A0.25 0.25 0 0 0 24 9.75L24 8.25A0.25 0.25 0 0 0 23.75 8L22.25 8A0.25 0.25 0 0 0 22 8.25L22 8.75A0.25 0.25 0 0 0 22.25 9L22.75 9A0.25 0.25 0 0 1 23 9.25L23 9.75A0.25 0.25 0 0 1 22.75 10L21.25 10A0.25 0.25 0 0 0 21 10.25L21 11.75A0.25 0.25 0 0 1 20.75 12L20.25 12A0.25 0.25 0 0 1 20 11.75L20 11.25A0.25 0.25 0 0 0 19.75 11L19.25 11A0.25 0.25 0 0 1 19 10.75L19 10.25A0.25 0.25 0 0 1 19.25 10L19.75 10A0.25 0.25 0 0 0 20 9.75L20 9.25A0.25 0.25 0 0 0 19.75 9L19.25 9A0.25 0.25 0 0 1 19 8.75L19 8.25A0.25 0.25 0 0 1 19.25 8L19.75 8A0.25 0.25 0 0 0 20 7.75L20 6.25A0.25 0.25 0 0 1 20.25 6L20.75 6A0.25 0.25 0 0 1 21 6.25L21 6.75A0.25 0.25 0 0 0 21.25 7L21.75 7A0.25 0.25 0 0 0 22 6.75L22 5.25A0.25 0.25 0 0 1 22.25 5L24.75 5A0.25 0.25 0 0 0 25 4.75L25 4.25A0.25 0.25 0 0 0 24.75 4L23.25 4A0.25 0.25 0 0 1 23 3.75L23 3.25A0.25 0.25 0 0 0 22.75 3L22.25 3A0.25 0.25 0 0 0 22 3.25L22 4.75A0.25 0.25 0 0 1 21.75 5L20.25 5A0.25 0.25 0 0 0 20 5.25L20 5.75A0.25 0.25 0 0 1 19.75 6L19.25 6A0.25 0.25 0 0 0 19 6.25L19 7.75A0.25 0.25 0 0 1 18.75 8L18.25 8A0.25 0.25 0 0 0 18 8.25L18 8.75A0.25 0.25 0 0 0 18.25 9L18.75 9A0.25 0.25 0 0 1 19 9.25L19 9.75A0.25 0.25 0 0 1 18.75 10L17.25 10A0.25 0.25 0 0 1 17 9.75L17 7.25A0.25 0.25 0 0 1 17.25 7L17.75 7A0.25 0.25 0 0 0 18 6.75L18 3.25A0.25 0.25 0 0 0 17.75 3L17.25 3A0.25 0.25 0 0 0 17 3.25L17 3.75A0.25 0.25 0 0 1 16.75 4L16.25 4A0.25 0.25 0 0 1 16 3.75L16 2.25A0.25 0.25 0 0 0 15.75 2L15.25 2A0.25 0.25 0 0 1 15 1.75L15 1.25A0.25 0.25 0 0 0 14.75 1L14.25 1A0.25 0.25 0 0 0 14 1.25ZM8 2.25L8 2.75A0.25 0.25 0 0 0 8.25 3L8.75 3A0.25 0.25 0 0 0 9 2.75L9 2.25A0.25 0.25 0 0 0 8.75 2L8.25 2A0.25 0.25 0 0 0 8 2.25ZM14 6.25L14 6.75A0.25 0.25 0 0 0 14.25 7L14.75 7A0.25 0.25 0 0 0 15 6.75L15 6.25A0.25 0.25 0 0 0 14.75 6L14.25 6A0.25 0.25 0 0 0 14 6.25ZM16 6.25L16 6.75A0.25 0.25 0 0 0 16.25 7L16.75 7A0.25 0.25 0 0 0 17 6.75L17 6.25A0.25 0.25 0 0 0 16.75 6L16.25 6A0.25 0.25 0 0 0 16 6.25ZM23 6.25L23 6.75A0.25 0.25 0 0 0 23.25 7L23.75 7A0.25 0.25 0 0 0 24 6.75L24 6.25A0.25 0.25 0 0 0 23.75 6L23.25 6A0.25 0.25 0 0 0 23 6.25ZM25 6.25L25 6.75A0.25 0.25 0 0 0 25.25 7L25.75 7A0.25 0.25 0 0 1 26 7.25L26 7.75A0.25 0.25 0 0 1 25.75 8L25.25 8A0.25 0.25 0 0 0 25 8.25L25 8.75A0.25 0.25 0 0 0 25.25 9L25.75 9A0.25 0.25 0 0 0 26 8.75L26 8.25A0.25 0.25 0 0 1 26.25 8L26.75 8A0.25 0.25 0 0 0 27 7.75L27 7.25A0.25 0.25 0 0 0 26.75 7L26.25 7A0.25 0.25 0 0 1 26 6.75L26 6.25A0.25 0.25 0 0 0 25.75 6L25.25 6A0.25 0.25 0 0 0 25 6.25ZM15 8.25L15 8.75A0.25 0.25 0 0 0 15.25 9L15.75 9A0.25 0.25 0 0 0 16 8.75L16 8.25A0.25 0.25 0 0 0 15.75 8L15.25 8A0.25 0.25 0 0 0 15 8.25ZM10 9.25L10 10.75A0.25 0.25 0 0 1 9.75 11L9.25 11A0.25 0.25 0 0 0 9 11.25L9 12.75A0.25 0.25 0 0 0 9.25 13L10.75 13A0.25 0.25 0 0 1 11 13.25L11 13.75A0.25 0.25 0 0 0 11.25 14L11.75 14A0.25 0.25 0 0 0 12 13.75L12 13.25A0.25 0.25 0 0 0 11.75 13L11.25 13A0.25 0.25 0 0 1 11 12.75L11 9.25A0.25 0.25 0 0 0 10.75 9L10.25 9A0.25 0.25 0 0 0 10 9.25ZM30 9.25L30 9.75A0.25 0.25 0 0 1 29.75 10L28.25 10A0.25 0.25 0 0 0 28 10.25L28 10.75A0.25 0.25 0 0 0 28.25 11L28.75 11A0.25 0.25 0 0 1 29 11.25L29 11.75A0.25 0.25 0 0 1 28.75 12L28.25 12A0.25 0.25 0 0 0 28 12.25L28 12.75A0.25 0.25 0 0 0 28.25 13L29.75 13A0.25 0.25 0 0 0 30 12.75L30 10.25A0.25 0.25 0 0 1 30.25 10L30.75 10A0.25 0.25 0 0 0 31 9.75L31 9.25A0.25 0.25 0 0 0 30.75 9L30.25 9A0.25 0.25 0 0 0 30 9.25ZM1 10.25L1 10.75A0.25 0.25 0 0 0 1.25 11L2.75 11A0.25 0.25 0 0 0 3 10.75L3 10.25A0.25 0.25 0 0 0 2.75 10L1.25 10A0.25 0.25 0 0 0 1 10.25ZM5 10.25L5 10.75A0.25 0.25 0 0 0 5.25 11L5.75 11A0.25 0.25 0 0 0 6 10.75L6 10.25A0.25 0.25 0 0 0 5.75 10L5.25 10A0.25 0.25 0 0 0 5 10.25ZM12 10.25L12 10.75A0.25 0.25 0 0 0 12.25 11L12.75 11A0.25 0.25 0 0 0 13 10.75L13 10.25A0.25 0.25 0 0 0 12.75 10L12.25 10A0.25 0.25 0 0 0 12 10.25ZM17 11.25L17 11.75A0.25 0.25 0 0 0 17.25 12L18.75 12A0.25 0.25 0 0 0 19 11.75L19 11.25A0.25 0.25 0 0 0 18.75 11L17.25 11A0.25 0.25 0 0 0 17 11.25ZM24 11.25L24 11.75A0.25 0.25 0 0 0 24.25 12L24.75 12A0.25 0.25 0 0 1 25 12.25L25 12.75A0.25 0.25 0 0 0 25.25 13L25.75 13A0.25 0.25 0 0 1 26 13.25L26 13.75A0.25 0.25 0 0 1 25.75 14L25.25 14A0.25 0.25 0 0 0 25 14.25L25 15.75A0.25 0.25 0 0 0 25.25 16L25.75 16A0.25 0.25 0 0 0 26 15.75L26 15.25A0.25 0.25 0 0 1 26.25 15L26.75 15A0.25 0.25 0 0 0 27 14.75L27 12.25A0.25 0.25 0 0 0 26.75 12L26.25 12A0.25 0.25 0 0 1 26 11.75L26 11.25A0.25 0.25 0 0 0 25.75 11L24.25 11A0.25 0.25 0 0 0 24 11.25ZM33 11.25L33 11.75A0.25 0.25 0 0 0 33.25 12L33.75 12A0.25 0.25 0 0 0 34 11.75L34 11.25A0.25 0.25 0 0 0 33.75 11L33.25 11A0.25 0.25 0 0 0 33 11.25ZM13 12.25L13 12.75A0.25 0.25 0 0 0 13.25 13L13.75 13A0.25 0.25 0 0 0 14 12.75L14 12.25A0.25 0.25 0 0 0 13.75 12L13.25 12A0.25 0.25 0 0 0 13 12.25ZM21 12.25L21 12.75A0.25 0.25 0 0 0 21.25 13L21.75 13A0.25 0.25 0 0 0 22 12.75L22 12.25A0.25 0.25 0 0 0 21.75 12L21.25 12A0.25 0.25 0 0 0 21 12.25ZM34 14.25L34 14.75A0.25 0.25 0 0 0 34.25 15L34.75 15A0.25 0.25 0 0 0 35 14.75L35 14.25A0.25 0.25 0 0 0 34.75 14L34.25 14A0.25 0.25 0 0 0 34 14.25ZM20 15.25L20 15.75A0.25 0.25 0 0 0 20.25 16L21.75 16A0.25 0.25 0 0 0 22 15.75L22 15.25A0.25 0.25 0 0 0 21.75 15L20.25 15A0.25 0.25 0 0 0 20 15.25ZM10 16.25L10 16.75A0.25 0.25 0 0 0 10.25 17L10.75 17A0.25 0.25 0 0 0 11 16.75L11 16.25A0.25 0.25 0 0 0 10.75 16L10.25 16A0.25 0.25 0 0 0 10 16.25ZM2 17.25L2 17.75A0.25 0.25 0 0 0 2.25 18L2.75 18A0.25 0.25 0 0 0 3 17.75L3 17.25A0.25 0.25 0 0 0 2.75 17L2.25 17A0.25 0.25 0 0 0 2 17.25ZM20 18.25L20 18.75A0.25 0.25 0 0 0 20.25 19L20.75 19A0.25 0.25 0 0 0 21 18.75L21 18.25A0.25 0.25 0 0 0 20.75 18L20.25 18A0.25 0.25 0 0 0 20 18.25ZM36 18.25L36 19.75A0.25 0.25 0 0 0 36.25 20L36.75 20A0.25 0.25 0 0 0 37 19.75L37 18.25A0.25 0.25 0 0 0 36.75 18L36.25 18A0.25 0.25 0 0 0 36 18.25ZM27 19.25L27 20.75A0.25 0.25 0 0 0 27.25 21L28.75 21A0.25 0.25 0 0 1 29 21.25L29 21.75A0.25 0.25 0 0 1 28.75 22L28.25 22A0.25 0.25 0 0 0 28 22.25L28 23.75A0.25 0.25 0 0 1 27.75 24L27.25 24A0.25 0.25 0 0 0 27 24.25L27 25.75A0.25 0.25 0 0 0 27.25 26L27.75 26A0.25 0.25 0 0 0 28 25.75L28 24.25A0.25 0.25 0 0 1 28.25 24L29.75 24A0.25 0.25 0 0 0 30 23.75L30 23.25A0.25 0.25 0 0 0 29.75 23L29.25 23A0.25 0.25 0 0 1 29 22.75L29 22.25A0.25 0.25 0 0 1 29.25 22L30.75 22A0.25 0.25 0 0 0 31 21.75L31 21.25A0.25 0.25 0 0 0 30.75 21L29.25 21A0.25 0.25 0 0 1 29 20.75L29 19.25A0.25 0.25 0 0 0 28.75 19L27.25 19A0.25 0.25 0 0 0 27 19.25ZM4 20.25L4 20.75A0.25 0.25 0 0 0 4.25 21L4.75 21A0.25 0.25 0 0 1 5 21.25L5 22.75A0.25 0.25 0 0 1 4.75 23L4.25 23A0.25 0.25 0 0 1 4 22.75L4 22.25A0.25 0.25 0 0 0 3.75 22L2.25 22A0.25 0.25 0 0 1 2 21.75L2 21.25A0.25 0.25 0 0 0 1.75 21L0.25 21A0.25 0.25 0 0 0 0 21.25L0 22.75A0.25 0.25 0 0 0 0.25 23L0.75 23A0.25 0.25 0 0 1 1 23.25L1 23.75A0.25 0.25 0 0 1 0.75 24L0.25 24A0.25 0.25 0 0 0 0 24.25L0 28.75A0.25 0.25 0 0 0 0.25 29L0.75 29A0.25 0.25 0 0 0 1 28.75L1 24.25A0.25 0.25 0 0 1 1.25 24L1.75 24A0.25 0.25 0 0 1 2 24.25L2 24.75A0.25 0.25 0 0 0 2.25 25L3.75 25A0.25 0.25 0 0 1 4 25.25L4 25.75A0.25 0.25 0 0 1 3.75 26L3.25 26A0.25 0.25 0 0 0 3 26.25L3 27.75A0.25 0.25 0 0 0 3.25 28L4.75 28A0.25 0.25 0 0 1 5 28.25L5 28.75A0.25 0.25 0 0 0 5.25 29L6.75 29A0.25 0.25 0 0 0 7 28.75L7 28.25A0.25 0.25 0 0 1 7.25 28L7.75 28A0.25 0.25 0 0 0 8 27.75L8 27.25A0.25 0.25 0 0 0 7.75 27L7.25 27A0.25 0.25 0 0 1 7 26.75L7 26.25A0.25 0.25 0 0 0 6.75 26L6.25 26A0.25 0.25 0 0 0 6 26.25L6 26.75A0.25 0.25 0 0 0 6.25 27L6.75 27A0.25 0.25 0 0 1 7 27.25L7 27.75A0.25 0.25 0 0 1 6.75 28L5.25 28A0.25 0.25 0 0 1 5 27.75L5 27.25A0.25 0.25 0 0 0 4.75 27L4.25 27A0.25 0.25 0 0 1 4 26.75L4 26.25A0.25 0.25 0 0 1 4.25 26L4.75 26A0.25 0.25 0 0 0 5 25.75L5 25.25A0.25 0.25 0 0 1 5.25 25L6.75 25A0.25 0.25 0 0 0 7 24.75L7 24.25A0.25 0.25 0 0 1 7.25 24L7.75 24A0.25 0.25 0 0 0 8 23.75L8 23.25A0.25 0.25 0 0 1 8.25 23L8.75 23A0.25 0.25 0 0 0 9 22.75L9 22.25A0.25 0.25 0 0 0 8.75 22L6.25 22A0.25 0.25 0 0 1 6 21.75L6 21.25A0.25 0.25 0 0 1 6.25 21L6.75 21A0.25 0.25 0 0 0 7 20.75L7 20.25A0.25 0.25 0 0 0 6.75 20L6.25 20A0.25 0.25 0 0 0 6 20.25L6 20.75A0.25 0.25 0 0 1 5.75 21L5.25 21A0.25 0.25 0 0 1 5 20.75L5 20.25A0.25 0.25 0 0 0 4.75 20L4.25 20A0.25 0.25 0 0 0 4 20.25ZM15 20.25L15 20.75A0.25 0.25 0 0 0 15.25 21L15.75 21A0.25 0.25 0 0 0 16 20.75L16 20.25A0.25 0.25 0 0 0 15.75 20L15.25 20A0.25 0.25 0 0 0 15 20.25ZM5 23.25L5 23.75A0.25 0.25 0 0 0 5.25 24L6.75 24A0.25 0.25 0 0 0 7 23.75L7 23.25A0.25 0.25 0 0 0 6.75 23L5.25 23A0.25 0.25 0 0 0 5 23.25ZM16 23.25L16 24.75A0.25 0.25 0 0 0 16.25 25L16.75 25A0.25 0.25 0 0 0 17 24.75L17 23.25A0.25 0.25 0 0 0 16.75 23L16.25 23A0.25 0.25 0 0 0 16 23.25ZM31 24.25L31 24.75A0.25 0.25 0 0 1 30.75 25L30.25 25A0.25 0.25 0 0 0 30 25.25L30 25.75A0.25 0.25 0 0 1 29.75 26L29.25 26A0.25 0.25 0 0 0 29 26.25L29 26.75A0.25 0.25 0 0 0 29.25 27L29.75 27A0.25 0.25 0 0 1 30 27.25L30 27.75A0.25 0.25 0 0 0 30.25 28L32.75 28A0.25 0.25 0 0 1 33 28.25L33 28.75A0.25 0.25 0 0 0 33.25 29L33.75 29A0.25 0.25 0 0 0 34 28.75L34 28.25A0.25 0.25 0 0 0 33.75 28L33.25 28A0.25 0.25 0 0 1 33 27.75L33 27.25A0.25 0.25 0 0 0 32.75 27L32.25 27A0.25 0.25 0 0 1 32 26.75L32 26.25A0.25 0.25 0 0 0 31.75 26L31.25 26A0.25 0.25 0 0 1 31 25.75L31 25.25A0.25 0.25 0 0 1 31.25 25L31.75 25A0.25 0.25 0 0 0 32 24.75L32 24.25A0.25 0.25 0 0 0 31.75 24L31.25 24A0.25 0.25 0 0 0 31 24.25ZM16 26.25L16 26.75A0.25 0.25 0 0 0 16.25 27L16.75 27A0.25 0.25 0 0 0 17 26.75L17 26.25A0.25 0.25 0 0 0 16.75 26L16.25 26A0.25 0.25 0 0 0 16 26.25ZM30 26.25L30 26.75A0.25 0.25 0 0 0 30.25 27L30.75 27A0.25 0.25 0 0 0 31 26.75L31 26.25A0.25 0.25 0 0 0 30.75 26L30.25 26A0.25 0.25 0 0 0 30 26.25ZM24 27.25L24 27.75A0.25 0.25 0 0 0 24.25 28L24.75 28A0.25 0.25 0 0 0 25 27.75L25 27.25A0.25 0.25 0 0 0 24.75 27L24.25 27A0.25 0.25 0 0 0 24 27.25ZM16 28.25L16 29.75A0.25 0.25 0 0 0 16.25 30L17.75 30A0.25 0.25 0 0 0 18 29.75L18 29.25A0.25 0.25 0 0 0 17.75 29L17.25 29A0.25 0.25 0 0 1 17 28.75L17 28.25A0.25 0.25 0 0 0 16.75 28L16.25 28A0.25 0.25 0 0 0 16 28.25ZM20 28.25L20 28.75A0.25 0.25 0 0 1 19.75 29L19.25 29A0.25 0.25 0 0 0 19 29.25L19 29.75A0.25 0.25 0 0 0 19.25 30L19.75 30A0.25 0.25 0 0 0 20 29.75L20 29.25A0.25 0.25 0 0 1 20.25 29L20.75 29A0.25 0.25 0 0 0 21 28.75L21 28.25A0.25 0.25 0 0 0 20.75 28L20.25 28A0.25 0.25 0 0 0 20 28.25ZM36 28.25L36 28.75A0.25 0.25 0 0 0 36.25 29L36.75 29A0.25 0.25 0 0 0 37 28.75L37 28.25A0.25 0.25 0 0 0 36.75 28L36.25 28A0.25 0.25 0 0 0 36 28.25ZM29 29.25L29 31.75A0.25 0.25 0 0 0 29.25 32L31.75 32A0.25 0.25 0 0 0 32 31.75L32 29.25A0.25 0.25 0 0 0 31.75 29L29.25 29A0.25 0.25 0 0 0 29 29.25ZM30 30.25L30 30.75A0.25 0.25 0 0 0 30.25 31L30.75 31A0.25 0.25 0 0 0 31 30.75L31 30.25A0.25 0.25 0 0 0 30.75 30L30.25 30A0.25 0.25 0 0 0 30 30.25ZM20 31.25L20 32.75A0.25 0.25 0 0 0 20.25 33L21.75 33A0.25 0.25 0 0 1 22 33.25L22 33.75A0.25 0.25 0 0 0 22.25 34L22.75 34A0.25 0.25 0 0 0 23 33.75L23 33.25A0.25 0.25 0 0 0 22.75 33L22.25 33A0.25 0.25 0 0 1 22 32.75L22 32.25A0.25 0.25 0 0 0 21.75 32L21.25 32A0.25 0.25 0 0 1 21 31.75L21 31.25A0.25 0.25 0 0 0 20.75 31L20.25 31A0.25 0.25 0 0 0 20 31.25ZM24 31.25L24 31.75A0.25 0.25 0 0 0 24.25 32L25.75 32A0.25 0.25 0 0 0 26 31.75L26 31.25A0.25 0.25 0 0 0 25.75 31L24.25 31A0.25 0.25 0 0 0 24 31.25ZM33 32.25L33 32.75A0.25 0.25 0 0 1 32.75 33L31.25 33A0.25 0.25 0 0 0 31 33.25L31 33.75A0.25 0.25 0 0 1 30.75 34L30.25 34A0.25 0.25 0 0 1 30 33.75L30 33.25A0.25 0.25 0 0 0 29.75 33L29.25 33A0.25 0.25 0 0 0 29 33.25L29 33.75A0.25 0.25 0 0 0 29.25 34L29.75 34A0.25 0.25 0 0 1 30 34.25L30 34.75A0.25 0.25 0 0 0 30.25 35L30.75 35A0.25 0.25 0 0 0 31 34.75L31 34.25A0.25 0.25 0 0 1 31.25 34L31.75 34A0.25 0.25 0 0 1 32 34.25L32 34.75A0.25 0.25 0 0 0 32.25 35L32.75 35A0.25 0.25 0 0 0 33 34.75L33 34.25A0.25 0.25 0 0 1 33.25 34L33.75 34A0.25 0.25 0 0 0 34 33.75L34 32.25A0.25 0.25 0 0 0 33.75 32L33.25 32A0.25 0.25 0 0 0 33 32.25ZM36 34.25L36 36.75A0.25 0.25 0 0 0 36.25 37L36.75 37A0.25 0.25 0 0 0 37 36.75L37 34.25A0.25 0.25 0 0 0 36.75 34L36.25 34A0.25 0.25 0 0 0 36 34.25ZM24 35.25L24 35.75A0.25 0.25 0 0 0 24.25 36L25.75 36A0.25 0.25 0 0 0 26 35.75L26 35.25A0.25 0.25 0 0 0 25.75 35L24.25 35A0.25 0.25 0 0 0 24 35.25ZM0 0.25L0 6.75A0.25 0.25 0 0 0 0.25 7L6.75 7A0.25 0.25 0 0 0 7 6.75L7 0.25A0.25 0.25 0 0 0 6.75 0L0.25 0A0.25 0.25 0 0 0 0 0.25ZM1 1.25L1 5.75A0.25 0.25 0 0 0 1.25 6L5.75 6A0.25 0.25 0 0 0 6 5.75L6 1.25A0.25 0.25 0 0 0 5.75 1L1.25 1A0.25 0.25 0 0 0 1 1.25ZM2 2.25L2 4.75A0.25 0.25 0 0 0 2.25 5L4.75 5A0.25 0.25 0 0 0 5 4.75L5 2.25A0.25 0.25 0 0 0 4.75 2L2.25 2A0.25 0.25 0 0 0 2 2.25ZM30 0.25L30 6.75A0.25 0.25 0 0 0 30.25 7L36.75 7A0.25 0.25 0 0 0 37 6.75L37 0.25A0.25 0.25 0 0 0 36.75 0L30.25 0A0.25 0.25 0 0 0 30 0.25ZM31 1.25L31 5.75A0.25 0.25 0 0 0 31.25 6L35.75 6A0.25 0.25 0 0 0 36 5.75L36 1.25A0.25 0.25 0 0 0 35.75 1L31.25 1A0.25 0.25 0 0 0 31 1.25ZM32 2.25L32 4.75A0.25 0.25 0 0 0 32.25 5L34.75 5A0.25 0.25 0 0 0 35 4.75L35 2.25A0.25 0.25 0 0 0 34.75 2L32.25 2A0.25 0.25 0 0 0 32 2.25ZM0 30.25L0 36.75A0.25 0.25 0 0 0 0.25 37L6.75 37A0.25 0.25 0 0 0 7 36.75L7 30.25A0.25 0.25 0 0 0 6.75 30L0.25 30A0.25 0.25 0 0 0 0 30.25ZM1 31.25L1 35.75A0.25 0.25 0 0 0 1.25 36L5.75 36A0.25 0.25 0 0 0 6 35.75L6 31.25A0.25 0.25 0 0 0 5.75 31L1.25 31A0.25 0.25 0 0 0 1 31.25ZM2 32.25L2 34.75A0.25 0.25 0 0 0 2.25 35L4.75 35A0.25 0.25 0 0 0 5 34.75L5 32.25A0.25 0.25 0 0 0 4.75 32L2.25 32A0.25 0.25 0 0 0 2 32.25Z" fill="#000000"/></g></g></svg>
