<?xml version="1.0" encoding="UTF-8"?>
<svg xmlns="http://www.w3.org/2000/svg" version="1.1" width="500" height="500" viewBox="0 0 500 500"><rect x="0" y="0" width="500" height="500" fill="#ffffff"/><g transform="scale(13.514)"><g transform="translate(0,0)"><path fill-rule="evenodd" d="M8 0.25L8 2.75A0.25 0.25 0 0 0 8.25 3L8.75 3A0.25 0.25 0 0 1 9 3.25L9 4.75A0.25 0.25 0 0 1 8.75 5L8.25 5A0.25 0.25 0 0 0 8 5.25L8 9.75A0.25 0.25 0 0 0 8.25 10L8.75 10A0.25 0.25 0 0 0 9 9.75L9 8.25A0.25 0.25 0 0 1 9.25 8L9.75 8A0.25 0.25 0 0 1 10 8.25L10 9.75A0.25 0.25 0 0 0 10.25 10L10.75 10A0.25 0.25 0 0 1 11 10.25L11 10.75A0.25 0.25 0 0 1 10.75 11L10.25 11A0.25 0.25 0 0 0 10 11.25L10 11.75A0.25 0.25 0 0 1 9.75 12L9.25 12A0.25 0.25 0 0 1 9 11.75L9 11.25A0.25 0.25 0 0 0 8.75 11L8.25 11A0.25 0.25 0 0 0 8 11.25L8 11.75A0.25 0.25 0 0 0 8.25 12L8.75 12A0.25 0.25 0 0 1 9 12.25L9 12.75A0.25 0.25 0 0 1 8.75 13L8.25 13A0.25 0.25 0 0 0 8 13.25L8 15.75A0.25 0.25 0 0 1 7.75 16L6.25 16A0.25 0.25 0 0 0 6 16.25L6 16.75A0.25 0.25 0 0 0 6.25 17L7.75 17A0.25 0.25 0 0 1 8 17.25L8 17.75A0.25 0.25 0 0 1 7.75 18L5.25 18A0.25 0.25 0 0 1 5 17.75L5 15.25A0.25 0.25 0 0 0 4.75 15L4.25 15A0.25 0.25 0 0 0 4 15.25L4 17.75A0.25 0.25 0 0 1 3.75 18L3.25 18A0.25 0.25 0 0 0 3 18.25L3 18.75A0.25 0.25 0 0 1 2.75 19L2.25 19A0.25 0.25 0 0 1 2 18.75L2 17.25A0.25 0.25 0 0 1 2.25 17L2.75 17A0.25 0.25 0 0 0 3 16.75L3 14.25A0.25 0.25 0 0 1 3.25 14L5.75 14A0.25 0.25 0 0 1 6 14.25L6 14.75A0.25 0.25 0 0 0 6.25 15L6.75 15A0.25 0.25 0 0 0 7 14.75L7 14.25A0.25 0.25 0 0 0 6.75 14L6.25 14A0.25 0.25 0 0 1 6 13.75L6 13.25A0.25 0.25 0 0 1 6.25 13L6.75 13A0.25 0.25 0 0 0 7 12.75L7 12.25A0.25 0.25 0 0 0 6.75 12L6.25 12A0.25 0.25 0 0 1 6 11.75L6 11.25A0.25 0.25 0 0 1 6.25 11L6.75 11A0.25 0.25 0 0 0 7 10.75L7 10.25A0.25 0.25 0 0 0 6.75 10L6.25 10A0.25 0.25 0 0 1 6 9.75L6 9.25A0.25 0.25 0 0 1 6.25 9L6.75 9A0.25 0.25 0 0 0 7 8.75L7 8.25A0.25 0.25 0 0 0 6.75 8L6.25 8A0.25 0.25 0 0 0 6 8.25L6 8.75A0.25 0.25 0 0 1 5.75 9L5.25 9A0.25 0.25 0 0 1 5 8.75L5 8.25A0.25 0.25 0 0 0 4.75 8L2.25 8A0.25 0.25 0 0 0 2 8.25L2 9.75A0.25 0.25 0 0 0 2.25 10L3.75 10A0.25 0.25 0 0 1 4 10.25L4 10.75A0.25 0.25 0 0 1 3.75 11L3.25 11A0.25 0.25 0 0 0 3 11.25L3 12.75A0.25 0.25 0 0 1 2.75 13L1.25 13A0.25 0.25 0 0 1 1 12.75L1 12.25A0.25 0.25 0 0 1 1.25 12L1.75 12A0.25 0.25 0 0 0 2 11.75L2 11.25A0.25 0.25 0 0 0 1.75 11L1.25 11A0.25 0.25 0 0 1 1 10.75L1 10.25A0.25 0.25 0 0 0 0.75 10L0.25 10A0.25 0.25 0 0 0 0 10.25L0 14.75A0.25 0.25 0 0 0 0.25 15L0.75 15A0.25 0.25 0 0 1 1 15.25L1 15.75A0.25 0.25 0 0 0 1.25 16L1.75 16A0.25 0.25 0 0 1 2 16.25L2 16.75A0.25 0.25 0 0 1 1.75 17L0.25 17A0.25 0.25 0 0 0 0 17.25L0 17.75A0.25 0.25 0 0 0 0.25 18L0.75 18A0.25 0.25 0 0 1 1 18.25L1 18.75A0.25 0.25 0 0 1 0.75 19L0.25 19A0.25 0.25 0 0 0 0 19.25L0 23.75A0.25 0.25 0 0 0 0.25 24L0.75 24A0.25 0.25 0 0 1 1 24.25L1 24.75A0.25 0.25 0 0 1 0.75 25L0.25 25A0.25 0.25 0 0 0 0 25.25L0 28.75A0.25 0.25 0 0 0 0.25 29L0.75 29A0.25 0.25 0 0 0 1 28.75L1 25.25A0.25 0.25 0 0 1 1.25 25L1.75 25A0.25 0.25 0 0 1 2 25.25L2 26.75A0.25 0.25 0 0 0 2.25 27L3.75 27A0.25 0.25 0 0 1 4 27.25L4 28.75A0.25 0.25 0 0 0 4.25 29L4.75 29A0.25 0.25 0 0 0 5 28.75L5 26.25A0.25 0.25 0 0 0 4.75 26L3.25 26A0.25 0.25 0 0 1 3 25.75L3 25.25A0.25 0.25 0 0 0 2.75 25L2.25 25A0.25 0.25 0 0 1 2 24.75L2 24.25A0.25 0.25 0 0 1 2.25 24L2.75 24A0.25 0.25 0 0 0 3 23.75L3 23.25A0.25 0.25 0 0 1 3.25 23L3.75 23A0.25 0.25 0 0 1 4 23.25L4 23.75A0.25 0.25 0 0 0 4.25 24L4.75 24A0.25 0.25 0 0 0 5 23.75L5 23.25A0.25 0.25 0 0 1 5.25 23L6.75 23A0.25 0.25 0 0 1 7 23.25L7 23.75A0.25 0.25 0 0 1 6.75 24L6.25 24A0.25 0.25 0 0 0 6 24.25L6 24.75A0.25 0.25 0 0 0 6.25 25L6.75 25A0.25 0.25 0 0 0 7 24.75L7 24.25A0.25 0.25 0 0 1 7.25 24L7.75 24A0.25 0.25 0 0 1 8 24.25L8 25.75A0.25 0.25 0 0 0 8.25 26L8.75 26A0.25 0.25 0 0 1 9 26.25L9 26.75A0.25 0.25 0 0 1 8.75 27L7.25 27A0.25 0.25 0 0 1 7 26.75L7 26.25A0.25 0.25 0 0 0 6.75 26L6.25 26A0.25 0.25 0 0 0 6 26.25L6 26.75A0.25 0.25 0 0 0 6.25 27L6.75 27A0.25 0.25 0 0 1 7 27.25L7 27.75A0.25 0.25 0 0 1 6.75 28L6.25 28A0.25 0.25 0 0 0 6 28.25L6 28.75A0.25 0.25 0 0 0 6.25 29L6.75 29A0.25 0.25 0 0 0 7 28.75L7 28.25A0.25 0.25 0 0 1 7.25 28L9.75 28A0.25 0.25 0 0 1 10 28.25L10 28.75A0.25 0.25 0 0 1 9.75 29L8.25 29A0.25 0.25 0 0 0 8 29.25L8 29.75A0.25 0.25 0 0 0 8.25 30L9.75 30A0.25 0.25 0 0 1 10 30.25L10 33.75A0.25 0.25 0 0 1 9.75 34L9.25 34A0.25 0.25 0 0 1 9 33.75L9 32.25A0.25 0.25 0 0 0 8.75 32L8.25 32A0.25 0.25 0 0 0 8 32.25L8 34.75A0.25 0.25 0 0 0 8.25 35L8.75 35A0.25 0.25 0 0 1 9 35.25L9 35.75A0.25 0.25 0 0 0 9.25 36L9.75 36A0.25 0.25 0 0 0 10 35.75L10 34.25A0.25 0.25 0 0 1 10.25 34L10.75 34A0.25 0.25 0 0 1 11 34.25L11 35.75A0.25 0.25 0 0 0 11.25 36L13.75 36A0.25 0.25 0 0 0 14 35.75L14 35.25A0.25 0.25 0 0 0 13.75 35L12.25 35A0.25 0.25 0 0 1 12 34.75L12 34.25A0.25 0.25 0 0 1 12.25 34L13.75 34A0.25 0.25 0 0 0 14 33.75L14 33.25A0.25 0.25 0 0 1 14.25 33L14.75 33A0.25 0.25 0 0 1 15 33.25L15 36.75A0.25 0.25 0 0 0 15.25 37L19.75 37A0.25 0.25 0 0 0 20 36.75L20 36.25A0.25 0.25 0 0 0 19.75 36L18.25 36A0.25 0.25 0 0 1 18 35.75L18 34.25A0.25 0.25 0 0 1 18.25 34L18.75 34A0.25 0.25 0 0 0 19 33.75L19 31.25A0.25 0.25 0 0 1 19.25 31L19.75 31A0.25 0.25 0 0 1 20 31.25L20 31.75A0.25 0.25 0 0 0 20.25 32L20.75 32A0.25 0.25 0 0 1 21 32.25L21 32.75A0.25 0.25 0 0 1 20.75 33L20.25 33A0.25 0.25 0 0 0 20 33.25L20 34.75A0.25 0.25 0 0 0 20.25 35L21.75 35A0.25 0.25 0 0 0 22 34.75L22 31.25A0.25 0.25 0 0 1 22.25 31L22.75 31A0.25 0.25 0 0 1 23 31.25L23 32.75A0.25 0.25 0 0 0 23.25 33L29.75 33A0.25 0.25 0 0 1 30 33.25L30 33.75A0.25 0.25 0 0 1 29.75 34L28.25 34A0.25 0.25 0 0 0 28 34.25L28 34.75A0.25 0.25 0 0 1 27.75 35L27.25 35A0.25 0.25 0 0 1 27 34.75L27 34.25A0.25 0.25 0 0 0 26.75 34L26.25 34A0.25 0.25 0 0 0 26 34.25L26 35.75A0.25 0.25 0 0 1 25.75 36L24.25 36A0.25 0.25 0 0 1 24 35.75L24 35.25A0.25 0.25 0 0 1 24.25 35L24.75 35A0.25 0.25 0 0 0 25 34.75L25 34.25A0.25 0.25 0 0 0 24.75 34L23.25 34A0.25 0.25 0 0 0 23 34.25L23 35.75A0.25 0.25 0 0 1 22.75 36L22.25 36A0.25 0.25 0 0 0 22 36.25L22 36.75A0.25 0.25 0 0 0 22.25 37L26.75 37A0.25 0.25 0 0 0 27 36.75L27 36.25A0.25 0.25 0 0 1 27.25 36L28.75 36A0.25 0.25 0 0 1 29 36.25L29 36.75A0.25 0.25 0 0 0 29.25 37L29.75 37A0.25 0.25 0 0 0 30 36.75L30 36.25A0.25 0.25 0 0 1 30.25 36L30.75 36A0.25 0.25 0 0 1 31 36.25L31 36.75A0.25 0.25 0 0 0 31.25 37L32.75 37A0.25 0.25 0 0 0 33 36.75L33 35.25A0.25 0.25 0 0 1 33.25 35L33.75 35A0.25 0.25 0 0 0 34 34.75L34 33.25A0.25 0.25 0 0 1 34.25 33L35.75 33A0.25 0.25 0 0 0 36 32.75L36 32.25A0.25 0.25 0 0 1 36.25 32L36.75 32A0.25 0.25 0 0 0 37 31.75L37 30.25A0.25 0.25 0 0 0 36.75 30L35.25 30A0.25 0.25 0 0 0 35 30.25L35 30.75A0.25 0.25 0 0 0 35.25 31L35.75 31A0.25 0.25 0 0 1 36 31.25L36 31.75A0.25 0.25 0 0 1 35.75 32L34.25 32A0.25 0.25 0 0 0 34 32.25L34 32.75A0.25 0.25 0 0 1 33.75 33L33.25 33A0.25 0.25 0 0 1 33 32.75L33 31.25A0.25 0.25 0 0 1 33.25 31L33.75 31A0.25 0.25 0 0 0 34 30.75L34 30.25A0.25 0.25 0 0 0 33.75 30L33.25 30A0.25 0.25 0 0 1 33 29.75L33 29.25A0.25 0.25 0 0 1 33.25 29L34.75 29A0.25 0.25 0 0 0 35 28.75L35 28.25A0.25 0.25 0 0 0 34.75 28L32.25 28A0.25 0.25 0 0 1 32 27.75L32 25.25A0.25 0.25 0 0 1 32.25 25L34.75 25A0.25 0.25 0 0 1 35 25.25L35 25.75A0.25 0.25 0 0 1 34.75 26L34.25 26A0.25 0.25 0 0 0 34 26.25L34 26.75A0.25 0.25 0 0 0 34.25 27L34.75 27A0.25 0.25 0 0 0 35 26.75L35 26.25A0.25 0.25 0 0 1 35.25 26L35.75 26A0.25 0.25 0 0 1 36 26.25L36 26.75A0.25 0.25 0 0 0 36.25 27L36.75 27A0.25 0.25 0 0 0 37 26.75L37 26.25A0.25 0.25 0 0 0 36.75 26L36.25 26A0.25 0.25 0 0 1 36 25.75L36 25.25A0.25 0.25 0 0 1 36.25 25L36.75 25A0.25 0.25 0 0 0 37 24.75L37 22.25A0.25 0.25 0 0 0 36.75 22L36.25 22A0.25 0.25 0 0 1 36 21.75L36 21.25A0.25 0.25 0 0 0 35.75 21L35.25 21A0.25 0.25 0 0 1 35 20.75L35 20.25A0.25 0.25 0 0 0 34.75 20L34.25 20A0.25 0.25 0 0 0 34 20.25L34 20.75A0.25 0.25 0 0 1 33.75 21L33.25 21A0.25 0.25 0 0 1 33 20.75L33 20.25A0.25 0.25 0 0 0 32.75 20L30.25 20A0.25 0.25 0 0 1 30 19.75L30 17.25A0.25 0.25 0 0 1 30.25 17L30.75 17A0.25 0.25 0 0 0 31 16.75L31 16.25A0.25 0.25 0 0 0 30.75 16L29.25 16A0.25 0.25 0 0 1 29 15.75L29 15.25A0.25 0.25 0 0 1 29.25 15L29.75 15A0.25 0.25 0 0 0 30 14.75L30 13.25A0.25 0.25 0 0 1 30.25 13L30.75 13A0.25 0.25 0 0 1 31 13.25L31 14.75A0.25 0.25 0 0 0 31.25 15L33.75 15A0.25 0.25 0 0 0 34 14.75L34 14.25A0.25 0.25 0 0 1 34.25 14L34.75 14A0.25 0.25 0 0 1 35 14.25L35 15.75A0.25 0.25 0 0 1 34.75 16L34.25 16A0.25 0.25 0 0 0 34 16.25L34 16.75A0.25 0.25 0 0 1 33.75 17L33.25 17A0.25 0.25 0 0 1 33 16.75L33 16.25A0.25 0.25 0 0 0 32.75 16L32.25 16A0.25 0.25 0 0 0 32 16.25L32 16.75A0.25 0.25 0 0 0 32.25 17L32.75 17A0.25 0.25 0 0 1 33 17.25L33 17.75A0.25 0.25 0 0 0 33.25 18L33.75 18A0.25 0.25 0 0 0 34 17.75L34 17.25A0.25 0.25 0 0 1 34.25 17L34.75 17A0.25 0.25 0 0 0 35 16.75L35 16.25A0.25 0.25 0 0 1 35.25 16L35.75 16A0.25 0.25 0 0 1 36 16.25L36 16.75A0.25 0.25 0 0 0 36.25 17L36.75 17A0.25 0.25 0 0 0 37 16.75L37 16.25A0.25 0.25 0 0 0 36.75 16L36.25 16A0.25 0.25 0 0 1 36 15.75L36 15.25A0.25 0.25 0 0 1 36.25 15L36.75 15A0.25 0.25 0 0 0 37 14.75L37 14.25A0.25 0.25 0 0 0 36.75 14L35.25 14A0.25 0.25 0 0 1 35 13.75L35 12.25A0.25 0.25 0 0 0 34.75 12L34.25 12A0.25 0.25 0 0 0 34 12.25L34 12.75A0.25 0.25 0 0 1 33.75 13L33.25 13A0.25 0.25 0 0 1 33 12.75L33 12.25A0.25 0.25 0 0 0 32.75 12L32.25 12A0.25 0.25 0 0 1 32 11.75L32 11.25A0.25 0.25 0 0 1 32.25 11L32.75 11A0.25 0.25 0 0 0 33 10.75L33 10.25A0.25 0.25 0 0 1 33.25 10L33.75 10A0.25 0.25 0 0 0 34 9.75L34 9.25A0.25 0.25 0 0 1 34.25 9L34.75 9A0.25 0.25 0 0 1 35 9.25L35 9.75A0.25 0.25 0 0 0 35.25 10L35.75 10A0.25 0.25 0 0 1 36 10.25L36 12.75A0.25 0.25 0 0 0 36.25 13L36.75 13A0.25 0.25 0 0 0 37 12.75L37 10.25A0.25 0.25 0 0 0 36.75 10L36.25 10A0.25 0.25 0 0 1 36 9.75L36 9.25A0.25 0.25 0 0 1 36.25 9L36.75 9A0.25 0.25 0 0 0 37 8.75L37 8.25A0.25 0.25 0 0 0 36.75 8L34.25 8A0.25 0.25 0 0 0 34 8.25L34 8.75A0.25 0.25 0 0 1 33.75 9L33.25 9A0.25 0.25 0 0 0 33 9.25L33 9.75A0.25 0.25 0 0 1 32.75 10L32.25 10A0.25 0.25 0 0 1 32 9.75L32 8.25A0.25 0.25 0 0 0 31.75 8L29.25 8A0.25 0.25 0 0 1 29 7.75L29 5.25A0.25 0.25 0 0 0 28.75 5L27.25 5A0.25 0.25 0 0 1 27 4.75L27 4.25A0.25 0.25 0 0 1 27.25 4L27.75 4A0.25 0.25 0 0 0 28 3.75L28 2.25A0.25 0.25 0 0 1 28.25 2L28.75 2A0.25 0.25 0 0 0 29 1.75L29 0.25A0.25 0.25 0 0 0 28.75 0L28.25 0A0.25 0.25 0 0 0 28 0.25L28 0.75A0.25 0.25 0 0 1 27.75 1L27.25 1A0.25 0.25 0 0 0 27 1.25L27 1.75A0.25 0.25 0 0 1 26.75 2L26.25 2A0.25 0.25 0 0 0 26 2.25L26 2.75A0.25 0.25 0 0 1 25.75 3L23.25 3A0.25 0.25 0 0 1 23 2.75L23 2.25A0.25 0.25 0 0 1 23.25 2L23.75 2A0.25 0.25 0 0 0 24 1.75L24 1.25A0.25 0.25 0 0 0 23.75 1L23.25 1A0.25 0.25 0 0 1 23 0.75L23 0.25A0.25 0.25 0 0 0 22.75 0L22.25 0A0.25 0.25 0 0 0 22 0.25L22 0.75A0.25 0.25 0 0 0 22.25 1L22.75 1A0.25 0.25 0 0 1 23 1.25L23 1.75A0.25 0.25 0 0 1 22.75 2L21.25 2A0.25 0.25 0 0 0 21 2.25L21 4.75A0.25 0.25 0 0 1 20.75 5L19.25 5A0.25 0.25 0 0 1 19 4.75L19 3.25A0.25 0.25 0 0 1 19.25 3L19.75 3A0.25 0.25 0 0 0 20 2.75L20 2.25A0.25 0.25 0 0 0 19.75 2L19.25 2A0.25 0.25 0 0 0 19 2.25L19 2.75A0.25 0.25 0 0 1 18.75 3L18.25 3A0.25 0.25 0 0 1 18 2.75L18 1.25A0.25 0.25 0 0 1 18.25 1L18.75 1A0.25 0.25 0 0 0 19 0.75L19 0.25A0.25 0.25 0 0 0 18.75 0L18.25 0A0.25 0.25 0 0 0 18 0.25L18 0.75A0.25 0.25 0 0 1 17.75 1L16.25 1A0.25 0.25 0 0 0 16 1.25L16 2.75A0.25 0.25 0 0 1 15.75 3L15.25 3A0.25 0.25 0 0 1 15 2.75L15 1.25A0.25 0.25 0 0 0 14.75 1L14.25 1A0.25 0.25 0 0 0 14 1.25L14 2.75A0.25 0.25 0 0 0 14.25 3L14.75 3A0.25 0.25 0 0 1 15 3.25L15 3.75A0.25 0.25 0 0 1 14.75 4L13.25 4A0.25 0.25 0 0 1 13 3.75L13 1.25A0.25 0.25 0 0 0 12.75 1L12.25 1A0.25 0.25 0 0 1 12 0.75L12 0.25A0.25 0.25 0 0 0 11.75 0L11.25 0A0.25 0.25 0 0 0 11 0.25L11 1.75A0.25 0.25 0 0 0 11.25 2L11.75 2A0.25 0.25 0 0 1 12 2.25L12 3.75A0.25 0.25 0 0 1 11.75 4L11.25 4A0.25 0.25 0 0 0 11 4.25L11 4.75A0.25 0.25 0 0 1 10.75 5L10.25 5A0.25 0.25 0 0 1 10 4.75L10 3.25A0.25 0.25 0 0 0 9.75 3L9.25 3A0.25 0.25 0 0 1 9 2.75L9 2.25A0.25 0.25 0 0 1 9.25 2L9.75 2A0.25 0.25 0 0 0 10 1.75L10 0.25A0.25 0.25 0 0 0 9.75 0L8.25 0A0.25 0.25 0 0 0 8 0.25ZM20 0.25L20 0.75A0.25 0.25 0 0 0 20.25 1L20.75 1A0.25 0.25 0 0 0 21 0.75L21 0.25A0.25 0.25 0 0 0 20.75 0L20.25 0A0.25 0.25 0 0 0 20 0.25ZM25 0.25L25 0.75A0.25 0.25 0 0 0 25.25 1L25.75 1A0.25 0.25 0 0 0 26 0.75L26 0.25A0.25 0.25 0 0 0 25.75 0L25.25 0A0.25 0.25 0 0 0 25 0.25ZM16 3.25L16 4.75A0.25 0.25 0 0 1 15.75 5L15.25 5A0.25 0.25 0 0 0 15 5.25L15 6.75A0.25 0.25 0 0 0 15.25 7L15.75 7A0.25 0.25 0 0 1 16 7.25L16 7.75A0.25 0.25 0 0 0 16.25 8L16.75 8A0.25 0.25 0 0 0 17 7.75L17 7.25A0.25 0.25 0 0 1 17.25 7L17.75 7A0.25 0.25 0 0 0 18 6.75L18 3.25A0.25 0.25 0 0 0 17.75 3L16.25 3A0.25 0.25 0 0 0 16 3.25ZM26 3.25L26 3.75A0.25 0.25 0 0 0 26.25 4L26.75 4A0.25 0.25 0 0 0 27 3.75L27 3.25A0.25 0.25 0 0 0 26.75 3L26.25 3A0.25 0.25 0 0 0 26 3.25ZM22 4.25L22 4.75A0.25 0.25 0 0 0 22.25 5L24.75 5A0.25 0.25 0 0 0 25 4.75L25 4.25A0.25 0.25 0 0 0 24.75 4L22.25 4A0.25 0.25 0 0 0 22 4.25ZM9 5.25L9 6.75A0.25 0.25 0 0 0 9.25 7L9.75 7A0.25 0.25 0 0 1 10 7.25L10 7.75A0.25 0.25 0 0 0 10.25 8L10.75 8A0.25 0.25 0 0 1 11 8.25L11 8.75A0.25 0.25 0 0 0 11.25 9L11.75 9A0.25 0.25 0 0 0 12 8.75L12 8.25A0.25 0.25 0 0 1 12.25 8L12.75 8A0.25 0.25 0 0 1 13 8.25L13 8.75A0.25 0.25 0 0 0 13.25 9L13.75 9A0.25 0.25 0 0 1 14 9.25L14 10.75A0.25 0.25 0 0 0 14.25 11L14.75 11A0.25 0.25 0 0 1 15 11.25L15 11.75A0.25 0.25 0 0 1 14.75 12L14.25 12A0.25 0.25 0 0 0 14 12.25L14 12.75A0.25 0.25 0 0 0 14.25 13L14.75 13A0.25 0.25 0 0 0 15 12.75L15 12.25A0.25 0.25 0 0 1 15.25 12L16.75 12A0.25 0.25 0 0 1 17 12.25L17 12.75A0.25 0.25 0 0 1 16.75 13L16.25 13A0.25 0.25 0 0 0 16 13.25L16 13.75A0.25 0.25 0 0 0 16.25 14L16.75 14A0.25 0.25 0 0 1 17 14.25L17 14.75A0.25 0.25 0 0 1 16.75 15L16.25 15A0.25 0.25 0 0 0 16 15.25L16 15.75A0.25 0.25 0 0 0 16.25 16L17.75 16A0.25 0.25 0 0 0 18 15.75L18 14.25A0.25 0.25 0 0 0 17.75 14L17.25 14A0.25 0.25 0 0 1 17 13.75L17 13.25A0.25 0.25 0 0 1 17.25 13L17.75 13A0.25 0.25 0 0 0 18 12.75L18 12.25A0.25 0.25 0 0 1 18.25 12L19.75 12A0.25 0.25 0 0 0 20 11.75L20 11.25A0.25 0.25 0 0 0 19.75 11L17.25 11A0.25 0.25 0 0 1 17 10.75L17 10.25A0.25 0.25 0 0 1 17.25 10L17.75 10A0.25 0.25 0 0 0 18 9.75L18 9.25A0.25 0.25 0 0 1 18.25 9L18.75 9A0.25 0.25 0 0 1 19 9.25L19 9.75A0.25 0.25 0 0 0 19.25 10L20.75 10A0.25 0.25 0 0 1 21 10.25L21 10.75A0.25 0.25 0 0 0 21.25 11L21.75 11A0.25 0.25 0 0 1 22 11.25L22 11.75A0.25 0.25 0 0 0 22.25 12L22.75 12A0.25 0.25 0 0 0 23 11.75L23 11.25A0.25 0.25 0 0 1 23.25 11L24.75 11A0.25 0.25 0 0 1 25 11.25L25 11.75A0.25 0.25 0 0 0 25.25 12L25.75 12A0.25 0.25 0 0 0 26 11.75L26 11.25A0.25 0.25 0 0 0 25.75 11L25.25 11A0.25 0.25 0 0 1 25 10.75L25 10.25A0.25 0.25 0 0 0 24.75 10L24.25 10A0.25 0.25 0 0 1 24 9.75L24 8.25A0.25 0.25 0 0 0 23.75 8L23.25 8A0.25 0.25 0 0 1 23 7.75L23 7.25A0.25 0.25 0 0 1 23.25 7L23.75 7A0.25 0.25 0 0 0 24 6.75L24 6.25A0.25 0.25 0 0 0 23.75 6L23.25 6A0.25 0.25 0 0 0 23 6.25L23 6.75A0.25 0.25 0 0 1 22.75 7L22.25 7A0.25 0.25 0 0 1 22 6.75L22 6.25A0.25 0.25 0 0 0 21.75 6L21.25 6A0.25 0.25 0 0 0 21 6.25L21 6.75A0.25 0.25 0 0 1 20.75 7L20.25 7A0.25 0.25 0 0 1 20 6.75L20 6.25A0.25 0.25 0 0 0 19.75 6L19.25 6A0.25 0.25 0 0 0 19 6.25L19 7.75A0.25 0.25 0 0 1 18.75 8L18.25 8A0.25 0.25 0 0 0 18 8.25L18 8.75A0.25 0.25 0 0 1 17.75 9L17.25 9A0.25 0.25 0 0 0 17 9.25L17 9.75A0.25 0.25 0 0 1 16.75 10L16.25 10A0.25 0.25 0 0 1 16 9.75L16 9.25A0.25 0.25 0 0 0 15.75 9L15.25 9A0.25 0.25 0 0 1 15 8.75L15 8.25A0.25 0.25 0 0 0 14.75 8L14.25 8A0.25 0.25 0 0 1 14 7.75L14 6.25A0.25 0.25 0 0 0 13.75 6L13.25 6A0.25 0.25 0 0 0 13 6.25L13 6.75A0.25 0.25 0 0 1 12.75 7L12.25 7A0.25 0.25 0 0 1 12 6.75L12 6.25A0.25 0.25 0 0 0 11.75 6L11.25 6A0.25 0.25 0 0 0 11 6.25L11 6.75A0.25 0.25 0 0 1 10.75 7L10.25 7A0.25 0.25 0 0 1 10 6.75L10 5.25A0.25 0.25 0 0 0 9.75 5L9.25 5A0.25 0.25 0 0 0 9 5.25ZM16 6.25L16 6.75A0.25 0.25 0 0 0 16.25 7L16.75 7A0.25 0.25 0 0 0 17 6.75L17 6.25A0.25 0.25 0 0 0 16.75 6L16.25 6A0.25 0.25 0 0 0 16 6.25ZM25 6.25L25 6.75A0.25 0.25 0 0 0 25.25 7L25.75 7A0.25 0.25 0 0 1 26 7.25L26 7.75A0.25 0.25 0 0 1 25.75 8L25.25 8A0.25 0.25 0 0 0 25 8.25L25 8.75A0.25 0.25 0 0 0 25.25 9L25.75 9A0.25 0.25 0 0 1 26 9.25L26 9.75A0.25 0.25 0 0 0 26.25 10L26.75 10A0.25 0.25 0 0 0 27 9.75L27 9.25A0.25 0.25 0 0 1 27.25 9L27.75 9A0.25 0.25 0 0 1 28 9.25L28 10.75A0.25 0.25 0 0 1 27.75 11L27.25 11A0.25 0.25 0 0 0 27 11.25L27 11.75A0.25 0.25 0 0 0 27.25 12L27.75 12A0.25 0.25 0 0 1 28 12.25L28 12.75A0.25 0.25 0 0 0 28.25 13L28.75 13A0.25 0.25 0 0 0 29 12.75L29 12.25A0.25 0.25 0 0 1 29.25 12L29.75 12A0.25 0.25 0 0 0 30 11.75L30 9.25A0.25 0.25 0 0 0 29.75 9L29.25 9A0.25 0.25 0 0 1 29 8.75L29 8.25A0.25 0.25 0 0 0 28.75 8L28.25 8A0.25 0.25 0 0 1 28 7.75L28 6.25A0.25 0.25 0 0 0 27.75 6L27.25 6A0.25 0.25 0 0 0 27 6.25L27 6.75A0.25 0.25 0 0 1 26.75 7L26.25 7A0.25 0.25 0 0 1 26 6.75L26 6.25A0.25 0.25 0 0 0 25.75 6L25.25 6A0.25 0.25 0 0 0 25 6.25ZM21 7.25L21 7.75A0.25 0.25 0 0 1 20.75 8L19.25 8A0.25 0.25 0 0 0 19 8.25L19 8.75A0.25 0.25 0 0 0 19.25 9L20.75 9A0.25 0.25 0 0 0 21 8.75L21 8.25A0.25 0.25 0 0 1 21.25 8L21.75 8A0.25 0.25 0 0 0 22 7.75L22 7.25A0.25 0.25 0 0 0 21.75 7L21.25 7A0.25 0.25 0 0 0 21 7.25ZM26 8.25L26 8.75A0.25 0.25 0 0 0 26.25 9L26.75 9A0.25 0.25 0 0 0 27 8.75L27 8.25A0.25 0.25 0 0 0 26.75 8L26.25 8A0.25 0.25 0 0 0 26 8.25ZM22 9.25L22 9.75A0.25 0.25 0 0 0 22.25 10L22.75 10A0.25 0.25 0 0 0 23 9.75L23 9.25A0.25 0.25 0 0 0 22.75 9L22.25 9A0.25 0.25 0 0 0 22 9.25ZM12 10.25L12 10.75A0.25 0.25 0 0 0 12.25 11L12.75 11A0.25 0.25 0 0 0 13 10.75L13 10.25A0.25 0.25 0 0 0 12.75 10L12.25 10A0.25 0.25 0 0 0 12 10.25ZM31 10.25L31 10.75A0.25 0.25 0 0 0 31.25 11L31.75 11A0.25 0.25 0 0 0 32 10.75L32 10.25A0.25 0.25 0 0 0 31.75 10L31.25 10A0.25 0.25 0 0 0 31 10.25ZM28 11.25L28 11.75A0.25 0.25 0 0 0 28.25 12L28.75 12A0.25 0.25 0 0 0 29 11.75L29 11.25A0.25 0.25 0 0 0 28.75 11L28.25 11A0.25 0.25 0 0 0 28 11.25ZM4 12.25L4 12.75A0.25 0.25 0 0 0 4.25 13L5.75 13A0.25 0.25 0 0 0 6 12.75L6 12.25A0.25 0.25 0 0 0 5.75 12L4.25 12A0.25 0.25 0 0 0 4 12.25ZM10 12.25L10 12.75A0.25 0.25 0 0 1 9.75 13L9.25 13A0.25 0.25 0 0 0 9 13.25L9 16.75A0.25 0.25 0 0 0 9.25 17L10.75 17A0.25 0.25 0 0 1 11 17.25L11 17.75A0.25 0.25 0 0 1 10.75 18L9.25 18A0.25 0.25 0 0 0 9 18.25L9 19.75A0.25 0.25 0 0 1 8.75 20L7.25 20A0.25 0.25 0 0 1 7 19.75L7 19.25A0.25 0.25 0 0 0 6.75 19L5.25 19A0.25 0.25 0 0 1 5 18.75L5 18.25A0.25 0.25 0 0 0 4.75 18L4.25 18A0.25 0.25 0 0 0 4 18.25L4 19.75A0.25 0.25 0 0 1 3.75 20L2.25 20A0.25 0.25 0 0 0 2 20.25L2 20.75A0.25 0.25 0 0 1 1.75 21L1.25 21A0.25 0.25 0 0 0 1 21.25L1 21.75A0.25 0.25 0 0 0 1.25 22L1.75 22A0.25 0.25 0 0 0 2 21.75L2 21.25A0.25 0.25 0 0 1 2.25 21L3.75 21A0.25 0.25 0 0 0 4 20.75L4 20.25A0.25 0.25 0 0 1 4.25 20L4.75 20A0.25 0.25 0 0 1 5 20.25L5 20.75A0.25 0.25 0 0 0 5.25 21L5.75 21A0.25 0.25 0 0 1 6 21.25L6 21.75A0.25 0.25 0 0 0 6.25 22L7.75 22A0.25 0.25 0 0 1 8 22.25L8 23.75A0.25 0.25 0 0 0 8.25 24L8.75 24A0.25 0.25 0 0 1 9 24.25L9 24.75A0.25 0.25 0 0 0 9.25 25L9.75 25A0.25 0.25 0 0 1 10 25.25L10 27.75A0.25 0.25 0 0 0 10.25 28L10.75 28A0.25 0.25 0 0 1 11 28.25L11 30.75A0.25 0.25 0 0 0 11.25 31L11.75 31A0.25 0.25 0 0 1 12 31.25L12 31.75A0.25 0.25 0 0 1 11.75 32L11.25 32A0.25 0.25 0 0 0 11 32.25L11 33.75A0.25 0.25 0 0 0 11.25 34L11.75 34A0.25 0.25 0 0 0 12 33.75L12 33.25A0.25 0.25 0 0 1 12.25 33L12.75 33A0.25 0.25 0 0 0 13 32.75L13 31.25A0.25 0.25 0 0 1 13.25 31L13.75 31A0.25 0.25 0 0 1 14 31.25L14 31.75A0.25 0.25 0 0 0 14.25 32L14.75 32A0.25 0.25 0 0 1 15 32.25L15 32.75A0.25 0.25 0 0 0 15.25 33L15.75 33A0.25 0.25 0 0 0 16 32.75L16 32.25A0.25 0.25 0 0 0 15.75 32L15.25 32A0.25 0.25 0 0 1 15 31.75L15 31.25A0.25 0.25 0 0 1 15.25 31L15.75 31A0.25 0.25 0 0 0 16 30.75L16 30.25A0.25 0.25 0 0 1 16.25 30L16.75 30A0.25 0.25 0 0 0 17 29.75L17 29.25A0.25 0.25 0 0 1 17.25 29L19.75 29A0.25 0.25 0 0 1 20 29.25L20 29.75A0.25 0.25 0 0 0 20.25 30L20.75 30A0.25 0.25 0 0 1 21 30.25L21 30.75A0.25 0.25 0 0 0 21.25 31L21.75 31A0.25 0.25 0 0 0 22 30.75L22 30.25A0.25 0.25 0 0 1 22.25 30L22.75 30A0.25 0.25 0 0 1 23 30.25L23 30.75A0.25 0.25 0 0 0 23.25 31L23.75 31A0.25 0.25 0 0 1 24 31.25L24 31.75A0.25 0.25 0 0 0 24.25 32L25.75 32A0.25 0.25 0 0 0 26 31.75L26 31.25A0.25 0.25 0 0 1 26.25 31L27.75 31A0.25 0.25 0 0 0 28 30.75L28 30.25A0.25 0.25 0 0 0 27.75 30L27.25 30A0.25 0.25 0 0 1 27 29.75L27 29.25A0.25 0.25 0 0 0 26.75 29L24.25 29A0.25 0.25 0 0 1 24 28.75L24 27.25A0.25 0.25 0 0 1 24.25 27L24.75 27A0.25 0.25 0 0 1 25 27.25L25 27.75A0.25 0.25 0 0 0 25.25 28L26.75 28A0.25 0.25 0 0 0 27 27.75L27 27.25A0.25 0.25 0 0 0 26.75 27L26.25 27A0.25 0.25 0 0 1 26 26.75L26 26.25A0.25 0.25 0 0 0 25.75 26L24.25 26A0.25 0.25 0 0 1 24 25.75L24 25.25A0.25 0.25 0 0 1 24.25 25L26.75 25A0.25 0.25 0 0 1 27 25.25L27 25.75A0.25 0.25 0 0 0 27.25 26L28.75 26A0.25 0.25 0 0 1 29 26.25L29 26.75A0.25 0.25 0 0 0 29.25 27L29.75 27A0.25 0.25 0 0 1 30 27.25L30 27.75A0.25 0.25 0 0 0 30.25 28L30.75 28A0.25 0.25 0 0 0 31 27.75L31 27.25A0.25 0.25 0 0 0 30.75 27L30.25 27A0.25 0.25 0 0 1 30 26.75L30 26.25A0.25 0.25 0 0 1 30.25 26L30.75 26A0.25 0.25 0 0 0 31 25.75L31 25.25A0.25 0.25 0 0 1 31.25 25L31.75 25A0.25 0.25 0 0 0 32 24.75L32 24.25A0.25 0.25 0 0 1 32.25 24L32.75 24A0.25 0.25 0 0 0 33 23.75L33 23.25A0.25 0.25 0 0 1 33.25 23L33.75 23A0.25 0.25 0 0 1 34 23.25L34 23.75A0.25 0.25 0 0 0 34.25 24L35.75 24A0.25 0.25 0 0 0 36 23.75L36 23.25A0.25 0.25 0 0 0 35.75 23L35.25 23A0.25 0.25 0 0 1 35 22.75L35 21.25A0.25 0.25 0 0 0 34.75 21L34.25 21A0.25 0.25 0 0 0 34 21.25L34 21.75A0.25 0.25 0 0 1 33.75 22L33.25 22A0.25 0.25 0 0 1 33 21.75L33 21.25A0.25 0.25 0 0 0 32.75 21L32.25 21A0.25 0.25 0 0 0 32 21.25L32 21.75A0.25 0.25 0 0 1 31.75 22L31.25 22A0.25 0.25 0 0 1 31 21.75L31 21.25A0.25 0.25 0 0 0 30.75 21L29.25 21A0.25 0.25 0 0 1 29 20.75L29 18.25A0.25 0.25 0 0 0 28.75 18L28.25 18A0.25 0.25 0 0 1 28 17.75L28 17.25A0.25 0.25 0 0 1 28.25 17L28.75 17A0.25 0.25 0 0 0 29 16.75L29 16.25A0.25 0.25 0 0 0 28.75 16L28.25 16A0.25 0.25 0 0 1 28 15.75L28 15.25A0.25 0.25 0 0 0 27.75 15L27.25 15A0.25 0.25 0 0 1 27 14.75L27 13.25A0.25 0.25 0 0 0 26.75 13L26.25 13A0.25 0.25 0 0 0 26 13.25L26 13.75A0.25 0.25 0 0 1 25.75 14L25.25 14A0.25 0.25 0 0 0 25 14.25L25 15.75A0.25 0.25 0 0 0 25.25 16L26.75 16A0.25 0.25 0 0 1 27 16.25L27 16.75A0.25 0.25 0 0 1 26.75 17L25.25 17A0.25 0.25 0 0 0 25 17.25L25 17.75A0.25 0.25 0 0 1 24.75 18L23.25 18A0.25 0.25 0 0 0 23 18.25L23 18.75A0.25 0.25 0 0 1 22.75 19L22.25 19A0.25 0.25 0 0 0 22 19.25L22 19.75A0.25 0.25 0 0 1 21.75 20L21.25 20A0.25 0.25 0 0 1 21 19.75L21 18.25A0.25 0.25 0 0 0 20.75 18L20.25 18A0.25 0.25 0 0 1 20 17.75L20 17.25A0.25 0.25 0 0 1 20.25 17L21.75 17A0.25 0.25 0 0 0 22 16.75L22 14.25A0.25 0.25 0 0 1 22.25 14L22.75 14A0.25 0.25 0 0 1 23 14.25L23 16.75A0.25 0.25 0 0 0 23.25 17L23.75 17A0.25 0.25 0 0 0 24 16.75L24 13.25A0.25 0.25 0 0 0 23.75 13L22.25 13A0.25 0.25 0 0 0 22 13.25L22 13.75A0.25 0.25 0 0 1 21.75 14L21.25 14A0.25 0.25 0 0 1 21 13.75L21 13.25A0.25 0.25 0 0 0 20.75 13L20.25 13A0.25 0.25 0 0 0 20 13.25L20 13.75A0.25 0.25 0 0 1 19.75 14L19.25 14A0.25 0.25 0 0 0 19 14.25L19 15.75A0.25 0.25 0 0 0 19.25 16L19.75 16A0.25 0.25 0 0 1 20 16.25L20 16.75A0.25 0.25 0 0 1 19.75 17L19.25 17A0.25 0.25 0 0 0 19 17.25L19 17.75A0.25 0.25 0 0 1 18.75 18L17.25 18A0.25 0.25 0 0 1 17 17.75L17 17.25A0.25 0.25 0 0 0 16.75 17L14.25 17A0.25 0.25 0 0 0 14 17.25L14 17.75A0.25 0.25 0 0 0 14.25 18L16.75 18A0.25 0.25 0 0 1 17 18.25L17 19.75A0.25 0.25 0 0 0 17.25 20L18.75 20A0.25 0.25 0 0 0 19 19.75L19 18.25A0.25 0.25 0 0 1 19.25 18L19.75 18A0.25 0.25 0 0 1 20 18.25L20 21.75A0.25 0.25 0 0 1 19.75 22L19.25 22A0.25 0.25 0 0 1 19 21.75L19 21.25A0.25 0.25 0 0 0 18.75 21L18.25 21A0.25 0.25 0 0 0 18 21.25L18 22.75A0.25 0.25 0 0 1 17.75 23L17.25 23A0.25 0.25 0 0 1 17 22.75L17 21.25A0.25 0.25 0 0 0 16.75 21L16.25 21A0.25 0.25 0 0 1 16 20.75L16 19.25A0.25 0.25 0 0 0 15.75 19L15.25 19A0.25 0.25 0 0 0 15 19.25L15 19.75A0.25 0.25 0 0 1 14.75 20L14.25 20A0.25 0.25 0 0 1 14 19.75L14 19.25A0.25 0.25 0 0 0 13.75 19L13.25 19A0.25 0.25 0 0 1 13 18.75L13 18.25A0.25 0.25 0 0 0 12.75 18L12.25 18A0.25 0.25 0 0 1 12 17.75L12 17.25A0.25 0.25 0 0 1 12.25 17L12.75 17A0.25 0.25 0 0 0 13 16.75L13 16.25A0.25 0.25 0 0 1 13.25 16L14.75 16A0.25 0.25 0 0 0 15 15.75L15 14.25A0.25 0.25 0 0 0 14.75 14L12.25 14A0.25 0.25 0 0 1 12 13.75L12 12.25A0.25 0.25 0 0 0 11.75 12L10.25 12A0.25 0.25 0 0 0 10 12.25ZM31 12.25L31 12.75A0.25 0.25 0 0 0 31.25 13L31.75 13A0.25 0.25 0 0 1 32 13.25L32 13.75A0.25 0.25 0 0 0 32.25 14L32.75 14A0.25 0.25 0 0 0 33 13.75L33 13.25A0.25 0.25 0 0 0 32.75 13L32.25 13A0.25 0.25 0 0 1 32 12.75L32 12.25A0.25 0.25 0 0 0 31.75 12L31.25 12A0.25 0.25 0 0 0 31 12.25ZM10 13.25L10 15.75A0.25 0.25 0 0 0 10.25 16L10.75 16A0.25 0.25 0 0 0 11 15.75L11 15.25A0.25 0.25 0 0 1 11.25 15L11.75 15A0.25 0.25 0 0 0 12 14.75L12 14.25A0.25 0.25 0 0 0 11.75 14L11.25 14A0.25 0.25 0 0 1 11 13.75L11 13.25A0.25 0.25 0 0 0 10.75 13L10.25 13A0.25 0.25 0 0 0 10 13.25ZM1 14.25L1 14.75A0.25 0.25 0 0 0 1.25 15L1.75 15A0.25 0.25 0 0 0 2 14.75L2 14.25A0.25 0.25 0 0 0 1.75 14L1.25 14A0.25 0.25 0 0 0 1 14.25ZM25 18.25L25 18.75A0.25 0.25 0 0 1 24.75 19L23.25 19A0.25 0.25 0 0 0 23 19.25L23 19.75A0.25 0.25 0 0 0 23.25 20L24.75 20A0.25 0.25 0 0 1 25 20.25L25 20.75A0.25 0.25 0 0 0 25.25 21L25.75 21A0.25 0.25 0 0 1 26 21.25L26 21.75A0.25 0.25 0 0 0 26.25 22L26.75 22A0.25 0.25 0 0 1 27 22.25L27 22.75A0.25 0.25 0 0 1 26.75 23L26.25 23A0.25 0.25 0 0 0 26 23.25L26 23.75A0.25 0.25 0 0 0 26.25 24L26.75 24A0.25 0.25 0 0 0 27 23.75L27 23.25A0.25 0.25 0 0 1 27.25 23L27.75 23A0.25 0.25 0 0 0 28 22.75L28 22.25A0.25 0.25 0 0 0 27.75 22L27.25 22A0.25 0.25 0 0 1 27 21.75L27 20.25A0.25 0.25 0 0 1 27.25 20L27.75 20A0.25 0.25 0 0 0 28 19.75L28 18.25A0.25 0.25 0 0 0 27.75 18L27.25 18A0.25 0.25 0 0 0 27 18.25L27 18.75A0.25 0.25 0 0 1 26.75 19L26.25 19A0.25 0.25 0 0 1 26 18.75L26 18.25A0.25 0.25 0 0 0 25.75 18L25.25 18A0.25 0.25 0 0 0 25 18.25ZM35 18.25L35 18.75A0.25 0.25 0 0 0 35.25 19L35.75 19A0.25 0.25 0 0 1 36 19.25L36 19.75A0.25 0.25 0 0 0 36.25 20L36.75 20A0.25 0.25 0 0 0 37 19.75L37 18.25A0.25 0.25 0 0 0 36.75 18L35.25 18A0.25 0.25 0 0 0 35 18.25ZM10 19.25L10 20.75A0.25 0.25 0 0 1 9.75 21L8.25 21A0.25 0.25 0 0 0 8 21.25L8 21.75A0.25 0.25 0 0 0 8.25 22L9.75 22A0.25 0.25 0 0 1 10 22.25L10 22.75A0.25 0.25 0 0 1 9.75 23L9.25 23A0.25 0.25 0 0 0 9 23.25L9 23.75A0.25 0.25 0 0 0 9.25 24L11.75 24A0.25 0.25 0 0 1 12 24.25L12 24.75A0.25 0.25 0 0 1 11.75 25L11.25 25A0.25 0.25 0 0 0 11 25.25L11 26.75A0.25 0.25 0 0 0 11.25 27L13.75 27A0.25 0.25 0 0 0 14 26.75L14 26.25A0.25 0.25 0 0 1 14.25 26L17.75 26A0.25 0.25 0 0 1 18 26.25L18 26.75A0.25 0.25 0 0 1 17.75 27L17.25 27A0.25 0.25 0 0 0 17 27.25L17 27.75A0.25 0.25 0 0 0 17.25 28L17.75 28A0.25 0.25 0 0 0 18 27.75L18 27.25A0.25 0.25 0 0 1 18.25 27L18.75 27A0.25 0.25 0 0 0 19 26.75L19 25.25A0.25 0.25 0 0 1 19.25 25L20.75 25A0.25 0.25 0 0 0 21 24.75L21 23.25A0.25 0.25 0 0 1 21.25 23L21.75 23A0.25 0.25 0 0 0 22 22.75L22 22.25A0.25 0.25 0 0 1 22.25 22L22.75 22A0.25 0.25 0 0 1 23 22.25L23 23.75A0.25 0.25 0 0 1 22.75 24L22.25 24A0.25 0.25 0 0 0 22 24.25L22 25.75A0.25 0.25 0 0 1 21.75 26L21.25 26A0.25 0.25 0 0 0 21 26.25L21 26.75A0.25 0.25 0 0 1 20.75 27L20.25 27A0.25 0.25 0 0 0 20 27.25L20 28.75A0.25 0.25 0 0 0 20.25 29L20.75 29A0.25 0.25 0 0 1 21 29.25L21 29.75A0.25 0.25 0 0 0 21.25 30L21.75 30A0.25 0.25 0 0 0 22 29.75L22 29.25A0.25 0.25 0 0 0 21.75 29L21.25 29A0.25 0.25 0 0 1 21 28.75L21 27.25A0.25 0.25 0 0 1 21.25 27L22.75 27A0.25 0.25 0 0 0 23 26.75L23 25.25A0.25 0.25 0 0 1 23.25 25L23.75 25A0.25 0.25 0 0 0 24 24.75L24 21.25A0.25 0.25 0 0 0 23.75 21L22.25 21A0.25 0.25 0 0 0 22 21.25L22 21.75A0.25 0.25 0 0 1 21.75 22L20.25 22A0.25 0.25 0 0 0 20 22.25L20 22.75A0.25 0.25 0 0 1 19.75 23L18.25 23A0.25 0.25 0 0 0 18 23.25L18 23.75A0.25 0.25 0 0 1 17.75 24L17.25 24A0.25 0.25 0 0 1 17 23.75L17 23.25A0.25 0.25 0 0 0 16.75 23L16.25 23A0.25 0.25 0 0 1 16 22.75L16 22.25A0.25 0.25 0 0 0 15.75 22L15.25 22A0.25 0.25 0 0 1 15 21.75L15 21.25A0.25 0.25 0 0 0 14.75 21L14.25 21A0.25 0.25 0 0 1 14 20.75L14 20.25A0.25 0.25 0 0 0 13.75 20L13.25 20A0.25 0.25 0 0 1 13 19.75L13 19.25A0.25 0.25 0 0 0 12.75 19L12.25 19A0.25 0.25 0 0 0 12 19.25L12 19.75A0.25 0.25 0 0 1 11.75 20L11.25 20A0.25 0.25 0 0 1 11 19.75L11 19.25A0.25 0.25 0 0 0 10.75 19L10.25 19A0.25 0.25 0 0 0 10 19.25ZM25 19.25L25 19.75A0.25 0.25 0 0 0 25.25 20L25.75 20A0.25 0.25 0 0 0 26 19.75L26 19.25A0.25 0.25 0 0 0 25.75 19L25.25 19A0.25 0.25 0 0 0 25 19.25ZM6 20.25L6 20.75A0.25 0.25 0 0 0 6.25 21L6.75 21A0.25 0.25 0 0 0 7 20.75L7 20.25A0.25 0.25 0 0 0 6.75 20L6.25 20A0.25 0.25 0 0 0 6 20.25ZM12 20.25L12 20.75A0.25 0.25 0 0 1 11.75 21L10.25 21A0.25 0.25 0 0 0 10 21.25L10 21.75A0.25 0.25 0 0 0 10.25 22L11.75 22A0.25 0.25 0 0 1 12 22.25L12 23.75A0.25 0.25 0 0 0 12.25 24L12.75 24A0.25 0.25 0 0 0 13 23.75L13 23.25A0.25 0.25 0 0 1 13.25 23L14.75 23A0.25 0.25 0 0 0 15 22.75L15 22.25A0.25 0.25 0 0 0 14.75 22L14.25 22A0.25 0.25 0 0 1 14 21.75L14 21.25A0.25 0.25 0 0 0 13.75 21L13.25 21A0.25 0.25 0 0 1 13 20.75L13 20.25A0.25 0.25 0 0 0 12.75 20L12.25 20A0.25 0.25 0 0 0 12 20.25ZM4 22.25L4 22.75A0.25 0.25 0 0 0 4.25 23L4.75 23A0.25 0.25 0 0 0 5 22.75L5 22.25A0.25 0.25 0 0 0 4.75 22L4.25 22A0.25 0.25 0 0 0 4 22.25ZM29 22.25L29 22.75A0.25 0.25 0 0 0 29.25 23L29.75 23A0.25 0.25 0 0 1 30 23.25L30 23.75A0.25 0.25 0 0 1 29.75 24L28.25 24A0.25 0.25 0 0 0 28 24.25L28 24.75A0.25 0.25 0 0 0 28.25 25L28.75 25A0.25 0.25 0 0 1 29 25.25L29 25.75A0.25 0.25 0 0 0 29.25 26L29.75 26A0.25 0.25 0 0 0 30 25.75L30 25.25A0.25 0.25 0 0 1 30.25 25L30.75 25A0.25 0.25 0 0 0 31 24.75L31 24.25A0.25 0.25 0 0 1 31.25 24L31.75 24A0.25 0.25 0 0 0 32 23.75L32 23.25A0.25 0.25 0 0 0 31.75 23L31.25 23A0.25 0.25 0 0 1 31 22.75L31 22.25A0.25 0.25 0 0 0 30.75 22L29.25 22A0.25 0.25 0 0 0 29 22.25ZM1 23.25L1 23.75A0.25 0.25 0 0 0 1.25 24L1.75 24A0.25 0.25 0 0 0 2 23.75L2 23.25A0.25 0.25 0 0 0 1.75 23L1.25 23A0.25 0.25 0 0 0 1 23.25ZM15 24.25L15 24.75A0.25 0.25 0 0 0 15.25 25L16.75 25A0.25 0.25 0 0 0 17 24.75L17 24.25A0.25 0.25 0 0 0 16.75 24L15.25 24A0.25 0.25 0 0 0 15 24.25ZM13 25.25L13 25.75A0.25 0.25 0 0 0 13.25 26L13.75 26A0.25 0.25 0 0 0 14 25.75L14 25.25A0.25 0.25 0 0 0 13.75 25L13.25 25A0.25 0.25 0 0 0 13 25.25ZM2 28.25L2 28.75A0.25 0.25 0 0 0 2.25 29L2.75 29A0.25 0.25 0 0 0 3 28.75L3 28.25A0.25 0.25 0 0 0 2.75 28L2.25 28A0.25 0.25 0 0 0 2 28.25ZM13 28.25L13 28.75A0.25 0.25 0 0 1 12.75 29L12.25 29A0.25 0.25 0 0 0 12 29.25L12 29.75A0.25 0.25 0 0 0 12.25 30L12.75 30A0.25 0.25 0 0 0 13 29.75L13 29.25A0.25 0.25 0 0 1 13.25 29L13.75 29A0.25 0.25 0 0 0 14 28.75L14 28.25A0.25 0.25 0 0 0 13.75 28L13.25 28A0.25 0.25 0 0 0 13 28.25ZM36 28.25L36 28.75A0.25 0.25 0 0 0 36.25 29L36.75 29A0.25 0.25 0 0 0 37 28.75L37 28.25A0.25 0.25 0 0 0 36.75 28L36.25 28A0.25 0.25 0 0 0 36 28.25ZM23 29.25L23 29.75A0.25 0.25 0 0 0 23.25 30L23.75 30A0.25 0.25 0 0 1 24 30.25L24 30.75A0.25 0.25 0 0 0 24.25 31L24.75 31A0.25 0.25 0 0 0 25 30.75L25 30.25A0.25 0.25 0 0 0 24.75 30L24.25 30A0.25 0.25 0 0 1 24 29.75L24 29.25A0.25 0.25 0 0 0 23.75 29L23.25 29A0.25 0.25 0 0 0 23 29.25ZM29 29.25L29 31.75A0.25 0.25 0 0 0 29.25 32L31.75 32A0.25 0.25 0 0 0 32 31.75L32 29.25A0.25 0.25 0 0 0 31.75 29L29.25 29A0.25 0.25 0 0 0 29 29.25ZM30 30.25L30 30.75A0.25 0.25 0 0 0 30.25 31L30.75 31A0.25 0.25 0 0 0 31 30.75L31 30.25A0.25 0.25 0 0 0 30.75 30L30.25 30A0.25 0.25 0 0 0 30 30.25ZM17 31.25L17 32.75A0.25 0.25 0 0 0 17.25 33L17.75 33A0.25 0.25 0 0 0 18 32.75L18 31.25A0.25 0.25 0 0 0 17.75 31L17.25 31A0.25 0.25 0 0 0 17 31.25ZM31 33.25L31 33.75A0.25 0.25 0 0 1 30.75 34L30.25 34A0.25 0.25 0 0 0 30 34.25L30 34.75A0.25 0.25 0 0 1 29.75 35L29.25 35A0.25 0.25 0 0 0 29 35.25L29 35.75A0.25 0.25 0 0 0 29.25 36L29.75 36A0.25 0.25 0 0 0 30 35.75L30 35.25A0.25 0.25 0 0 1 30.25 35L30.75 35A0.25 0.25 0 0 1 31 35.25L31 35.75A0.25 0.25 0 0 0 31.25 36L31.75 36A0.25 0.25 0 0 0 32 35.75L32 35.25A0.25 0.25 0 0 1 32.25 35L32.75 35A0.25 0.25 0 0 0 33 34.75L33 34.25A0.25 0.25 0 0 0 32.75 34L32.25 34A0.25 0.25 0 0 1 32 33.75L32 33.25A0.25 0.25 0 0 0 31.75 33L31.25 33A0.25 0.25 0 0 0 31 33.25ZM16 34.25L16 35.75A0.25 0.25 0 0 0 16.25 36L16.75 36A0.25 0.25 0 0 0 17 35.75L17 34.25A0.25 0.25 0 0 0 16.75 34L16.25 34A0.25 0.25 0 0 0 16 34.25ZM31 34.25L31 34.75A0.25 0.25 0 0 0 31.25 35L31.75 35A0.25 0.25 0 0 0 32 34.75L32 34.25A0.25 0.25 0 0 0 31.75 34L31.25 34A0.25 0.25 0 0 0 31 34.25ZM36 34.25L36 35.75A0.25 0.25 0 0 1 35.75 36L34.25 36A0.25 0.25 0 0 0 34 36.25L34 36.75A0.25 0.25 0 0 0 34.25 37L36.75 37A0.25 0.25 0 0 0 37 36.75L37 34.25A0.25 0.25 0 0 0 36.75 34L36.25 34A0.25 0.25 0 0 0 36 34.25ZM0 0.25L0 6.75A0.25 0.25 0 0 0 0.25 7L6.75 7A0.25 0.25 0 0 0 7 6.75L7 0.25A0.25 0.25 0 0 0 6.75 0L0.25 0A0.25 0.25 0 0 0 0 0.25ZM1 1.25L1 5.75A0.25 0.25 0 0 0 1.25 6L5.75 6A0.25 0.25 0 0 0 6 5.75L6 1.25A0.25 0.25 0 0 0 5.75 1L1.25 1A0.25 0.25 0 0 0 1 1.25ZM2 2.25L2 4.75A0.25 0.25 0 0 0 2.25 5L4.75 5A0.25 0.25 0 0 0 5 4.75L5 2.25A0.25 0.25 0 0 0 4.75 2L2.25 2A0.25 0.25 0 0 0 2 2.25ZM30 0.25L30 6.75A0.25 0.25 0 0 0 30.25 7L36.75 7A0.25 0.25 0 0 0 37 6.75L37 0.25A0.25 0.25 0 0 0 36.75 0L30.25 0A0.25 0.25 0 0 0 30 0.25ZM31 1.25L31 5.75A0.25 0.25 0 0 0 31.25 6L35.75 6A0.25 0.25 0 0 0 36 5.75L36 1.25A0.25 0.25 0 0 0 35.75 1L31.25 1A0.25 0.25 0 0 0 31 1.25ZM32 2.25L32 4.75A0.25 0.25 0 0 0 32.25 5L34.75 5A0.25 0.25 0 0 0 35 4.75L35 2.25A0.25 0.25 0 0 0 34.75 2L32.25 2A0.25 0.25 0 0 0 32 2.25ZM0 30.25L0 36.75A0.25 0.25 0 0 0 0.25 37L6.75 37A0.25 0.25 0 0 0 7 36.75L7 30.25A0.25 0.25 0 0 0 6.75 30L0.25 30A0.25 0.25 0 0 0 0 30.25ZM1 31.25L1 35.75A0.25 0.25 0 0 0 1.25 36L5.75 36A0.25 0.25 0 0 0 6 35.75L6 31.25A0.25 0.25 0 0 0 5.75 31L1.25 31A0.25 0.25 0 0 0 1 31.25ZM2 32.25L2 34.75A0.25 0.25 0 0 0 2.25 35L4.75 35A0.25 0.25 0 0 0 5 34.75L5 32.25A0.25 0.25 0 0 0 4.75 32L2.25 32A0.25 0.25 0 0 0 2 32.25Z" fill="#000000"/></g></g></svg>
