<?xml version="1.0" encoding="UTF-8"?>
<svg xmlns="http://www.w3.org/2000/svg" version="1.1" width="500" height="500" viewBox="0 0 500 500"><rect x="0" y="0" width="500" height="500" fill="#ffffff"/><g transform="scale(15.152)"><g transform="translate(0,0)"><path fill-rule="evenodd" d="M10 0.25L10 0.75A0.25 0.25 0 0 1 9.75 1L8.25 1A0.25 0.25 0 0 0 8 1.25L8 6.75A0.25 0.25 0 0 0 8.25 7L8.75 7A0.25 0.25 0 0 1 9 7.25L9 7.75A0.25 0.25 0 0 1 8.75 8L5.25 8A0.25 0.25 0 0 0 5 8.25L5 8.75A0.25 0.25 0 0 1 4.75 9L3.25 9A0.25 0.25 0 0 1 3 8.75L3 8.25A0.25 0.25 0 0 0 2.75 8L2.25 8A0.25 0.25 0 0 0 2 8.25L2 8.75A0.25 0.25 0 0 0 2.25 9L2.75 9A0.25 0.25 0 0 1 3 9.25L3 10.75A0.25 0.25 0 0 1 2.75 11L2.25 11A0.25 0.25 0 0 0 2 11.25L2 14.75A0.25 0.25 0 0 1 1.75 15L1.25 15A0.25 0.25 0 0 1 1 14.75L1 13.25A0.25 0.25 0 0 0 0.75 13L0.25 13A0.25 0.25 0 0 0 0 13.25L0 14.75A0.25 0.25 0 0 0 0.25 15L0.75 15A0.25 0.25 0 0 1 1 15.25L1 15.75A0.25 0.25 0 0 1 0.75 16L0.25 16A0.25 0.25 0 0 0 0 16.25L0 16.75A0.25 0.25 0 0 0 0.25 17L0.75 17A0.25 0.25 0 0 1 1 17.25L1 17.75A0.25 0.25 0 0 0 1.25 18L1.75 18A0.25 0.25 0 0 1 2 18.25L2 18.75A0.25 0.25 0 0 1 1.75 19L0.25 19A0.25 0.25 0 0 0 0 19.25L0 20.75A0.25 0.25 0 0 0 0.25 21L0.75 21A0.25 0.25 0 0 1 1 21.25L1 21.75A0.25 0.25 0 0 1 0.75 22L0.25 22A0.25 0.25 0 0 0 0 22.25L0 22.75A0.25 0.25 0 0 0 0.25 23L1.75 23A0.25 0.25 0 0 1 2 23.25L2 23.75A0.25 0.25 0 0 1 1.75 24L0.25 24A0.25 0.25 0 0 0 0 24.25L0 24.75A0.25 0.25 0 0 0 0.25 25L4.75 25A0.25 0.25 0 0 0 5 24.75L5 22.25A0.25 0.25 0 0 1 5.25 22L5.75 22A0.25 0.25 0 0 1 6 22.25L6 22.75A0.25 0.25 0 0 0 6.25 23L8.75 23A0.25 0.25 0 0 1 9 23.25L9 23.75A0.25 0.25 0 0 1 8.75 24L6.25 24A0.25 0.25 0 0 0 6 24.25L6 24.75A0.25 0.25 0 0 0 6.25 25L7.75 25A0.25 0.25 0 0 1 8 25.25L8 27.75A0.25 0.25 0 0 0 8.25 28L9.75 28A0.25 0.25 0 0 1 10 28.25L10 30.75A0.25 0.25 0 0 0 10.25 31L11.75 31A0.25 0.25 0 0 1 12 31.25L12 32.75A0.25 0.25 0 0 0 12.25 33L13.75 33A0.25 0.25 0 0 0 14 32.75L14 31.25A0.25 0.25 0 0 1 14.25 31L14.75 31A0.25 0.25 0 0 0 15 30.75L15 29.25A0.25 0.25 0 0 0 14.75 29L14.25 29A0.25 0.25 0 0 1 14 28.75L14 28.25A0.25 0.25 0 0 0 13.75 28L12.25 28A0.25 0.25 0 0 1 12 27.75L12 27.25A0.25 0.25 0 0 0 11.75 27L11.25 27A0.25 0.25 0 0 0 11 27.25L11 27.75A0.25 0.25 0 0 1 10.75 28L10.25 28A0.25 0.25 0 0 1 10 27.75L10 24.25A0.25 0.25 0 0 1 10.25 24L10.75 24A0.25 0.25 0 0 1 11 24.25L11 25.75A0.25 0.25 0 0 0 11.25 26L11.75 26A0.25 0.25 0 0 0 12 25.75L12 24.25A0.25 0.25 0 0 0 11.75 24L11.25 24A0.25 0.25 0 0 1 11 23.75L11 23.25A0.25 0.25 0 0 0 10.75 23L9.25 23A0.25 0.25 0 0 1 9 22.75L9 22.25A0.25 0.25 0 0 0 8.75 22L8.25 22A0.25 0.25 0 0 1 8 21.75L8 21.25A0.25 0.25 0 0 1 8.25 21L8.75 21A0.25 0.25 0 0 0 9 20.75L9 19.25A0.25 0.25 0 0 0 8.75 19L7.25 19A0.25 0.25 0 0 1 7 18.75L7 18.25A0.25 0.25 0 0 1 7.25 18L8.75 18A0.25 0.25 0 0 0 9 17.75L9 17.25A0.25 0.25 0 0 1 9.25 17L9.75 17A0.25 0.25 0 0 0 10 16.75L10 16.25A0.25 0.25 0 0 1 10.25 16L10.75 16A0.25 0.25 0 0 1 11 16.25L11 17.75A0.25 0.25 0 0 1 10.75 18L10.25 18A0.25 0.25 0 0 0 10 18.25L10 19.75A0.25 0.25 0 0 0 10.25 20L11.75 20A0.25 0.25 0 0 1 12 20.25L12 20.75A0.25 0.25 0 0 1 11.75 21L10.25 21A0.25 0.25 0 0 0 10 21.25L10 21.75A0.25 0.25 0 0 0 10.25 22L11.75 22A0.25 0.25 0 0 1 12 22.25L12 22.75A0.25 0.25 0 0 0 12.25 23L12.75 23A0.25 0.25 0 0 1 13 23.25L13 23.75A0.25 0.25 0 0 0 13.25 24L14.75 24A0.25 0.25 0 0 1 15 24.25L15 25.75A0.25 0.25 0 0 0 15.25 26L20.75 26A0.25 0.25 0 0 0 21 25.75L21 22.25A0.25 0.25 0 0 1 21.25 22L22.75 22A0.25 0.25 0 0 1 23 22.25L23 23.75A0.25 0.25 0 0 0 23.25 24L23.75 24A0.25 0.25 0 0 1 24 24.25L24 26.75A0.25 0.25 0 0 1 23.75 27L23.25 27A0.25 0.25 0 0 0 23 27.25L23 27.75A0.25 0.25 0 0 1 22.75 28L21.25 28A0.25 0.25 0 0 0 21 28.25L21 28.75A0.25 0.25 0 0 1 20.75 29L20.25 29A0.25 0.25 0 0 1 20 28.75L20 27.25A0.25 0.25 0 0 0 19.75 27L19.25 27A0.25 0.25 0 0 0 19 27.25L19 28.75A0.25 0.25 0 0 1 18.75 29L18.25 29A0.25 0.25 0 0 0 18 29.25L18 29.75A0.25 0.25 0 0 1 17.75 30L17.25 30A0.25 0.25 0 0 1 17 29.75L17 28.25A0.25 0.25 0 0 1 17.25 28L17.75 28A0.25 0.25 0 0 0 18 27.75L18 27.25A0.25 0.25 0 0 0 17.75 27L17.25 27A0.25 0.25 0 0 0 17 27.25L17 27.75A0.25 0.25 0 0 1 16.75 28L16.25 28A0.25 0.25 0 0 1 16 27.75L16 27.25A0.25 0.25 0 0 0 15.75 27L15.25 27A0.25 0.25 0 0 0 15 27.25L15 27.75A0.25 0.25 0 0 0 15.25 28L15.75 28A0.25 0.25 0 0 1 16 28.25L16 31.75A0.25 0.25 0 0 0 16.25 32L16.75 32A0.25 0.25 0 0 0 17 31.75L17 31.25A0.25 0.25 0 0 1 17.25 31L17.75 31A0.25 0.25 0 0 1 18 31.25L18 32.75A0.25 0.25 0 0 0 18.25 33L20.75 33A0.25 0.25 0 0 0 21 32.75L21 32.25A0.25 0.25 0 0 0 20.75 32L19.25 32A0.25 0.25 0 0 1 19 31.75L19 31.25A0.25 0.25 0 0 1 19.25 31L21.75 31A0.25 0.25 0 0 1 22 31.25L22 32.75A0.25 0.25 0 0 0 22.25 33L22.75 33A0.25 0.25 0 0 0 23 32.75L23 30.25A0.25 0.25 0 0 1 23.25 30L24.75 30A0.25 0.25 0 0 0 25 29.75L25 29.25A0.25 0.25 0 0 1 25.25 29L26.75 29A0.25 0.25 0 0 1 27 29.25L27 29.75A0.25 0.25 0 0 0 27.25 30L27.75 30A0.25 0.25 0 0 1 28 30.25L28 30.75A0.25 0.25 0 0 0 28.25 31L28.75 31A0.25 0.25 0 0 1 29 31.25L29 31.75A0.25 0.25 0 0 1 28.75 32L28.25 32A0.25 0.25 0 0 0 28 32.25L28 32.75A0.25 0.25 0 0 0 28.25 33L29.75 33A0.25 0.25 0 0 0 30 32.75L30 31.25A0.25 0.25 0 0 1 30.25 31L32.75 31A0.25 0.25 0 0 0 33 30.75L33 29.25A0.25 0.25 0 0 0 32.75 29L32.25 29A0.25 0.25 0 0 0 32 29.25L32 29.75A0.25 0.25 0 0 1 31.75 30L30.25 30A0.25 0.25 0 0 1 30 29.75L30 29.25A0.25 0.25 0 0 0 29.75 29L29.25 29A0.25 0.25 0 0 1 29 28.75L29 27.25A0.25 0.25 0 0 1 29.25 27L30.75 27A0.25 0.25 0 0 0 31 26.75L31 26.25A0.25 0.25 0 0 0 30.75 26L29.25 26A0.25 0.25 0 0 1 29 25.75L29 25.25A0.25 0.25 0 0 1 29.25 25L29.75 25A0.25 0.25 0 0 0 30 24.75L30 23.25A0.25 0.25 0 0 0 29.75 23L29.25 23A0.25 0.25 0 0 1 29 22.75L29 22.25A0.25 0.25 0 0 0 28.75 22L28.25 22A0.25 0.25 0 0 1 28 21.75L28 20.25A0.25 0.25 0 0 0 27.75 20L27.25 20A0.25 0.25 0 0 1 27 19.75L27 19.25A0.25 0.25 0 0 1 27.25 19L28.75 19A0.25 0.25 0 0 1 29 19.25L29 19.75A0.25 0.25 0 0 0 29.25 20L29.75 20A0.25 0.25 0 0 0 30 19.75L30 19.25A0.25 0.25 0 0 1 30.25 19L30.75 19A0.25 0.25 0 0 0 31 18.75L31 18.25A0.25 0.25 0 0 1 31.25 18L31.75 18A0.25 0.25 0 0 1 32 18.25L32 19.75A0.25 0.25 0 0 1 31.75 20L31.25 20A0.25 0.25 0 0 0 31 20.25L31 22.75A0.25 0.25 0 0 0 31.25 23L31.75 23A0.25 0.25 0 0 1 32 23.25L32 23.75A0.25 0.25 0 0 1 31.75 24L31.25 24A0.25 0.25 0 0 0 31 24.25L31 24.75A0.25 0.25 0 0 0 31.25 25L31.75 25A0.25 0.25 0 0 1 32 25.25L32 26.75A0.25 0.25 0 0 0 32.25 27L32.75 27A0.25 0.25 0 0 0 33 26.75L33 25.25A0.25 0.25 0 0 0 32.75 25L32.25 25A0.25 0.25 0 0 1 32 24.75L32 24.25A0.25 0.25 0 0 1 32.25 24L32.75 24A0.25 0.25 0 0 0 33 23.75L33 13.25A0.25 0.25 0 0 0 32.75 13L32.25 13A0.25 0.25 0 0 0 32 13.25L32 15.75A0.25 0.25 0 0 1 31.75 16L30.25 16A0.25 0.25 0 0 1 30 15.75L30 15.25A0.25 0.25 0 0 1 30.25 15L30.75 15A0.25 0.25 0 0 0 31 14.75L31 13.25A0.25 0.25 0 0 0 30.75 13L30.25 13A0.25 0.25 0 0 0 30 13.25L30 13.75A0.25 0.25 0 0 1 29.75 14L28.25 14A0.25 0.25 0 0 1 28 13.75L28 13.25A0.25 0.25 0 0 0 27.75 13L27.25 13A0.25 0.25 0 0 1 27 12.75L27 12.25A0.25 0.25 0 0 1 27.25 12L27.75 12A0.25 0.25 0 0 0 28 11.75L28 11.25A0.25 0.25 0 0 1 28.25 11L30.75 11A0.25 0.25 0 0 1 31 11.25L31 11.75A0.25 0.25 0 0 0 31.25 12L32.75 12A0.25 0.25 0 0 0 33 11.75L33 9.25A0.25 0.25 0 0 0 32.75 9L32.25 9A0.25 0.25 0 0 1 32 8.75L32 8.25A0.25 0.25 0 0 0 31.75 8L27.25 8A0.25 0.25 0 0 0 27 8.25L27 8.75A0.25 0.25 0 0 1 26.75 9L26.25 9A0.25 0.25 0 0 1 26 8.75L26 8.25A0.25 0.25 0 0 0 25.75 8L25.25 8A0.25 0.25 0 0 1 25 7.75L25 6.25A0.25 0.25 0 0 0 24.75 6L24.25 6A0.25 0.25 0 0 0 24 6.25L24 6.75A0.25 0.25 0 0 1 23.75 7L23.25 7A0.25 0.25 0 0 1 23 6.75L23 5.25A0.25 0.25 0 0 0 22.75 5L22.25 5A0.25 0.25 0 0 1 22 4.75L22 4.25A0.25 0.25 0 0 1 22.25 4L24.75 4A0.25 0.25 0 0 0 25 3.75L25 3.25A0.25 0.25 0 0 0 24.75 3L22.25 3A0.25 0.25 0 0 1 22 2.75L22 1.25A0.25 0.25 0 0 1 22.25 1L22.75 1A0.25 0.25 0 0 0 23 0.75L23 0.25A0.25 0.25 0 0 0 22.75 0L21.25 0A0.25 0.25 0 0 0 21 0.25L21 0.75A0.25 0.25 0 0 1 20.75 1L19.25 1A0.25 0.25 0 0 1 19 0.75L19 0.25A0.25 0.25 0 0 0 18.75 0L18.25 0A0.25 0.25 0 0 0 18 0.25L18 0.75A0.25 0.25 0 0 1 17.75 1L17.25 1A0.25 0.25 0 0 1 17 0.75L17 0.25A0.25 0.25 0 0 0 16.75 0L15.25 0A0.25 0.25 0 0 0 15 0.25L15 0.75A0.25 0.25 0 0 1 14.75 1L14.25 1A0.25 0.25 0 0 1 14 0.75L14 0.25A0.25 0.25 0 0 0 13.75 0L10.25 0A0.25 0.25 0 0 0 10 0.25ZM24 0.25L24 1.75A0.25 0.25 0 0 0 24.25 2L24.75 2A0.25 0.25 0 0 0 25 1.75L25 0.25A0.25 0.25 0 0 0 24.75 0L24.25 0A0.25 0.25 0 0 0 24 0.25ZM10 1.25L10 2.75A0.25 0.25 0 0 0 10.25 3L10.75 3A0.25 0.25 0 0 1 11 3.25L11 3.75A0.25 0.25 0 0 1 10.75 4L9.25 4A0.25 0.25 0 0 0 9 4.25L9 6.75A0.25 0.25 0 0 0 9.25 7L9.75 7A0.25 0.25 0 0 0 10 6.75L10 6.25A0.25 0.25 0 0 1 10.25 6L10.75 6A0.25 0.25 0 0 1 11 6.25L11 6.75A0.25 0.25 0 0 0 11.25 7L11.75 7A0.25 0.25 0 0 0 12 6.75L12 5.25A0.25 0.25 0 0 1 12.25 5L12.75 5A0.25 0.25 0 0 1 13 5.25L13 7.75A0.25 0.25 0 0 1 12.75 8L12.25 8A0.25 0.25 0 0 0 12 8.25L12 10.75A0.25 0.25 0 0 1 11.75 11L11.25 11A0.25 0.25 0 0 0 11 11.25L11 13.75A0.25 0.25 0 0 0 11.25 14L11.75 14A0.25 0.25 0 0 1 12 14.25L12 14.75A0.25 0.25 0 0 1 11.75 15L11.25 15A0.25 0.25 0 0 0 11 15.25L11 15.75A0.25 0.25 0 0 0 11.25 16L12.75 16A0.25 0.25 0 0 0 13 15.75L13 15.25A0.25 0.25 0 0 1 13.25 15L13.75 15A0.25 0.25 0 0 0 14 14.75L14 13.25A0.25 0.25 0 0 0 13.75 13L12.25 13A0.25 0.25 0 0 1 12 12.75L12 12.25A0.25 0.25 0 0 1 12.25 12L12.75 12A0.25 0.25 0 0 0 13 11.75L13 11.25A0.25 0.25 0 0 1 13.25 11L13.75 11A0.25 0.25 0 0 1 14 11.25L14 11.75A0.25 0.25 0 0 0 14.25 12L14.75 12A0.25 0.25 0 0 0 15 11.75L15 11.25A0.25 0.25 0 0 1 15.25 11L15.75 11A0.25 0.25 0 0 1 16 11.25L16 11.75A0.25 0.25 0 0 0 16.25 12L16.75 12A0.25 0.25 0 0 1 17 12.25L17 12.75A0.25 0.25 0 0 0 17.25 13L17.75 13A0.25 0.25 0 0 1 18 13.25L18 13.75A0.25 0.25 0 0 0 18.25 14L18.75 14A0.25 0.25 0 0 0 19 13.75L19 13.25A0.25 0.25 0 0 0 18.75 13L18.25 13A0.25 0.25 0 0 1 18 12.75L18 12.25A0.25 0.25 0 0 1 18.25 12L19.75 12A0.25 0.25 0 0 1 20 12.25L20 13.75A0.25 0.25 0 0 0 20.25 14L20.75 14A0.25 0.25 0 0 1 21 14.25L21 14.75A0.25 0.25 0 0 1 20.75 15L20.25 15A0.25 0.25 0 0 0 20 15.25L20 15.75A0.25 0.25 0 0 1 19.75 16L19.25 16A0.25 0.25 0 0 0 19 16.25L19 17.75A0.25 0.25 0 0 0 19.25 18L21.75 18A0.25 0.25 0 0 1 22 18.25L22 18.75A0.25 0.25 0 0 1 21.75 19L19.25 19A0.25 0.25 0 0 0 19 19.25L19 19.75A0.25 0.25 0 0 0 19.25 20L19.75 20A0.25 0.25 0 0 1 20 20.25L20 20.75A0.25 0.25 0 0 0 20.25 21L21.75 21A0.25 0.25 0 0 0 22 20.75L22 20.25A0.25 0.25 0 0 1 22.25 20L22.75 20A0.25 0.25 0 0 1 23 20.25L23 20.75A0.25 0.25 0 0 0 23.25 21L23.75 21A0.25 0.25 0 0 0 24 20.75L24 20.25A0.25 0.25 0 0 1 24.25 20L24.75 20A0.25 0.25 0 0 1 25 20.25L25 21.75A0.25 0.25 0 0 0 25.25 22L25.75 22A0.25 0.25 0 0 0 26 21.75L26 20.25A0.25 0.25 0 0 0 25.75 20L25.25 20A0.25 0.25 0 0 1 25 19.75L25 19.25A0.25 0.25 0 0 0 24.75 19L24.25 19A0.25 0.25 0 0 0 24 19.25L24 19.75A0.25 0.25 0 0 1 23.75 20L23.25 20A0.25 0.25 0 0 1 23 19.75L23 17.25A0.25 0.25 0 0 1 23.25 17L23.75 17A0.25 0.25 0 0 1 24 17.25L24 17.75A0.25 0.25 0 0 0 24.25 18L25.75 18A0.25 0.25 0 0 0 26 17.75L26 17.25A0.25 0.25 0 0 0 25.75 17L24.25 17A0.25 0.25 0 0 1 24 16.75L24 16.25A0.25 0.25 0 0 0 23.75 16L22.25 16A0.25 0.25 0 0 1 22 15.75L22 15.25A0.25 0.25 0 0 1 22.25 15L22.75 15A0.25 0.25 0 0 0 23 14.75L23 14.25A0.25 0.25 0 0 0 22.75 14L21.25 14A0.25 0.25 0 0 1 21 13.75L21 13.25A0.25 0.25 0 0 1 21.25 13L21.75 13A0.25 0.25 0 0 0 22 12.75L22 12.25A0.25 0.25 0 0 1 22.25 12L22.75 12A0.25 0.25 0 0 1 23 12.25L23 12.75A0.25 0.25 0 0 0 23.25 13L24.75 13A0.25 0.25 0 0 1 25 13.25L25 13.75A0.25 0.25 0 0 1 24.75 14L24.25 14A0.25 0.25 0 0 0 24 14.25L24 14.75A0.25 0.25 0 0 0 24.25 15L24.75 15A0.25 0.25 0 0 1 25 15.25L25 15.75A0.25 0.25 0 0 0 25.25 16L26.75 16A0.25 0.25 0 0 1 27 16.25L27 17.75A0.25 0.25 0 0 0 27.25 18L29.75 18A0.25 0.25 0 0 0 30 17.75L30 17.25A0.25 0.25 0 0 0 29.75 17L29.25 17A0.25 0.25 0 0 1 29 16.75L29 15.25A0.25 0.25 0 0 0 28.75 15L28.25 15A0.25 0.25 0 0 1 28 14.75L28 14.25A0.25 0.25 0 0 0 27.75 14L27.25 14A0.25 0.25 0 0 0 27 14.25L27 14.75A0.25 0.25 0 0 1 26.75 15L25.25 15A0.25 0.25 0 0 1 25 14.75L25 14.25A0.25 0.25 0 0 1 25.25 14L25.75 14A0.25 0.25 0 0 0 26 13.75L26 12.25A0.25 0.25 0 0 1 26.25 12L26.75 12A0.25 0.25 0 0 0 27 11.75L27 10.25A0.25 0.25 0 0 0 26.75 10L24.25 10A0.25 0.25 0 0 0 24 10.25L24 10.75A0.25 0.25 0 0 1 23.75 11L21.25 11A0.25 0.25 0 0 1 21 10.75L21 10.25A0.25 0.25 0 0 1 21.25 10L22.75 10A0.25 0.25 0 0 0 23 9.75L23 9.25A0.25 0.25 0 0 1 23.25 9L24.75 9A0.25 0.25 0 0 0 25 8.75L25 8.25A0.25 0.25 0 0 0 24.75 8L22.25 8A0.25 0.25 0 0 1 22 7.75L22 6.25A0.25 0.25 0 0 0 21.75 6L21.25 6A0.25 0.25 0 0 0 21 6.25L21 6.75A0.25 0.25 0 0 1 20.75 7L20.25 7A0.25 0.25 0 0 1 20 6.75L20 5.25A0.25 0.25 0 0 1 20.25 5L20.75 5A0.25 0.25 0 0 0 21 4.75L21 2.25A0.25 0.25 0 0 0 20.75 2L20.25 2A0.25 0.25 0 0 0 20 2.25L20 2.75A0.25 0.25 0 0 1 19.75 3L19.25 3A0.25 0.25 0 0 1 19 2.75L19 1.25A0.25 0.25 0 0 0 18.75 1L18.25 1A0.25 0.25 0 0 0 18 1.25L18 1.75A0.25 0.25 0 0 1 17.75 2L17.25 2A0.25 0.25 0 0 1 17 1.75L17 1.25A0.25 0.25 0 0 0 16.75 1L16.25 1A0.25 0.25 0 0 0 16 1.25L16 1.75A0.25 0.25 0 0 1 15.75 2L14.25 2A0.25 0.25 0 0 0 14 2.25L14 2.75A0.25 0.25 0 0 1 13.75 3L13.25 3A0.25 0.25 0 0 1 13 2.75L13 2.25A0.25 0.25 0 0 0 12.75 2L12.25 2A0.25 0.25 0 0 0 12 2.25L12 2.75A0.25 0.25 0 0 1 11.75 3L11.25 3A0.25 0.25 0 0 1 11 2.75L11 1.25A0.25 0.25 0 0 0 10.75 1L10.25 1A0.25 0.25 0 0 0 10 1.25ZM16 2.25L16 2.75A0.25 0.25 0 0 1 15.75 3L14.25 3A0.25 0.25 0 0 0 14 3.25L14 3.75A0.25 0.25 0 0 1 13.75 4L13.25 4A0.25 0.25 0 0 0 13 4.25L13 4.75A0.25 0.25 0 0 0 13.25 5L14.75 5A0.25 0.25 0 0 1 15 5.25L15 5.75A0.25 0.25 0 0 1 14.75 6L14.25 6A0.25 0.25 0 0 0 14 6.25L14 6.75A0.25 0.25 0 0 0 14.25 7L14.75 7A0.25 0.25 0 0 0 15 6.75L15 6.25A0.25 0.25 0 0 1 15.25 6L15.75 6A0.25 0.25 0 0 1 16 6.25L16 7.75A0.25 0.25 0 0 0 16.25 8L16.75 8A0.25 0.25 0 0 0 17 7.75L17 5.25A0.25 0.25 0 0 0 16.75 5L16.25 5A0.25 0.25 0 0 1 16 4.75L16 4.25A0.25 0.25 0 0 1 16.25 4L17.75 4A0.25 0.25 0 0 1 18 4.25L18 10.75A0.25 0.25 0 0 0 18.25 11L19.75 11A0.25 0.25 0 0 1 20 11.25L20 11.75A0.25 0.25 0 0 0 20.25 12L20.75 12A0.25 0.25 0 0 0 21 11.75L21 11.25A0.25 0.25 0 0 0 20.75 11L20.25 11A0.25 0.25 0 0 1 20 10.75L20 10.25A0.25 0.25 0 0 1 20.25 10L20.75 10A0.25 0.25 0 0 0 21 9.75L21 9.25A0.25 0.25 0 0 1 21.25 9L21.75 9A0.25 0.25 0 0 0 22 8.75L22 8.25A0.25 0.25 0 0 0 21.75 8L21.25 8A0.25 0.25 0 0 0 21 8.25L21 8.75A0.25 0.25 0 0 1 20.75 9L20.25 9A0.25 0.25 0 0 0 20 9.25L20 9.75A0.25 0.25 0 0 1 19.75 10L19.25 10A0.25 0.25 0 0 1 19 9.75L19 8.25A0.25 0.25 0 0 1 19.25 8L19.75 8A0.25 0.25 0 0 0 20 7.75L20 7.25A0.25 0.25 0 0 0 19.75 7L19.25 7A0.25 0.25 0 0 1 19 6.75L19 5.25A0.25 0.25 0 0 1 19.25 5L19.75 5A0.25 0.25 0 0 0 20 4.75L20 4.25A0.25 0.25 0 0 0 19.75 4L18.25 4A0.25 0.25 0 0 1 18 3.75L18 3.25A0.25 0.25 0 0 0 17.75 3L17.25 3A0.25 0.25 0 0 1 17 2.75L17 2.25A0.25 0.25 0 0 0 16.75 2L16.25 2A0.25 0.25 0 0 0 16 2.25ZM11 4.25L11 4.75A0.25 0.25 0 0 0 11.25 5L11.75 5A0.25 0.25 0 0 0 12 4.75L12 4.25A0.25 0.25 0 0 0 11.75 4L11.25 4A0.25 0.25 0 0 0 11 4.25ZM9 8.25L9 8.75A0.25 0.25 0 0 1 8.75 9L6.25 9A0.25 0.25 0 0 0 6 9.25L6 9.75A0.25 0.25 0 0 1 5.75 10L4.25 10A0.25 0.25 0 0 0 4 10.25L4 10.75A0.25 0.25 0 0 1 3.75 11L3.25 11A0.25 0.25 0 0 0 3 11.25L3 11.75A0.25 0.25 0 0 0 3.25 12L3.75 12A0.25 0.25 0 0 1 4 12.25L4 12.75A0.25 0.25 0 0 1 3.75 13L3.25 13A0.25 0.25 0 0 0 3 13.25L3 13.75A0.25 0.25 0 0 0 3.25 14L4.75 14A0.25 0.25 0 0 1 5 14.25L5 15.75A0.25 0.25 0 0 1 4.75 16L3.25 16A0.25 0.25 0 0 0 3 16.25L3 16.75A0.25 0.25 0 0 1 2.75 17L2.25 17A0.25 0.25 0 0 1 2 16.75L2 16.25A0.25 0.25 0 0 0 1.75 16L1.25 16A0.25 0.25 0 0 0 1 16.25L1 16.75A0.25 0.25 0 0 0 1.25 17L1.75 17A0.25 0.25 0 0 1 2 17.25L2 17.75A0.25 0.25 0 0 0 2.25 18L2.75 18A0.25 0.25 0 0 1 3 18.25L3 18.75A0.25 0.25 0 0 1 2.75 19L2.25 19A0.25 0.25 0 0 0 2 19.25L2 19.75A0.25 0.25 0 0 0 2.25 20L2.75 20A0.25 0.25 0 0 1 3 20.25L3 21.75A0.25 0.25 0 0 1 2.75 22L2.25 22A0.25 0.25 0 0 0 2 22.25L2 22.75A0.25 0.25 0 0 0 2.25 23L2.75 23A0.25 0.25 0 0 1 3 23.25L3 23.75A0.25 0.25 0 0 0 3.25 24L3.75 24A0.25 0.25 0 0 0 4 23.75L4 23.25A0.25 0.25 0 0 0 3.75 23L3.25 23A0.25 0.25 0 0 1 3 22.75L3 22.25A0.25 0.25 0 0 1 3.25 22L3.75 22A0.25 0.25 0 0 0 4 21.75L4 21.25A0.25 0.25 0 0 1 4.25 21L4.75 21A0.25 0.25 0 0 0 5 20.75L5 20.25A0.25 0.25 0 0 0 4.75 20L3.25 20A0.25 0.25 0 0 1 3 19.75L3 19.25A0.25 0.25 0 0 1 3.25 19L4.75 19A0.25 0.25 0 0 0 5 18.75L5 18.25A0.25 0.25 0 0 0 4.75 18L4.25 18A0.25 0.25 0 0 1 4 17.75L4 17.25A0.25 0.25 0 0 1 4.25 17L5.75 17A0.25 0.25 0 0 1 6 17.25L6 17.75A0.25 0.25 0 0 0 6.25 18L6.75 18A0.25 0.25 0 0 0 7 17.75L7 17.25A0.25 0.25 0 0 1 7.25 17L8.75 17A0.25 0.25 0 0 0 9 16.75L9 16.25A0.25 0.25 0 0 1 9.25 16L9.75 16A0.25 0.25 0 0 0 10 15.75L10 15.25A0.25 0.25 0 0 0 9.75 15L9.25 15A0.25 0.25 0 0 0 9 15.25L9 15.75A0.25 0.25 0 0 1 8.75 16L7.25 16A0.25 0.25 0 0 1 7 15.75L7 15.25A0.25 0.25 0 0 1 7.25 15L7.75 15A0.25 0.25 0 0 0 8 14.75L8 14.25A0.25 0.25 0 0 1 8.25 14L9.75 14A0.25 0.25 0 0 0 10 13.75L10 12.25A0.25 0.25 0 0 0 9.75 12L9.25 12A0.25 0.25 0 0 0 9 12.25L9 12.75A0.25 0.25 0 0 1 8.75 13L8.25 13A0.25 0.25 0 0 1 8 12.75L8 12.25A0.25 0.25 0 0 0 7.75 12L7.25 12A0.25 0.25 0 0 1 7 11.75L7 11.25A0.25 0.25 0 0 1 7.25 11L7.75 11A0.25 0.25 0 0 0 8 10.75L8 10.25A0.25 0.25 0 0 1 8.25 10L8.75 10A0.25 0.25 0 0 1 9 10.25L9 10.75A0.25 0.25 0 0 0 9.25 11L9.75 11A0.25 0.25 0 0 0 10 10.75L10 8.25A0.25 0.25 0 0 0 9.75 8L9.25 8A0.25 0.25 0 0 0 9 8.25ZM13 8.25L13 8.75A0.25 0.25 0 0 0 13.25 9L13.75 9A0.25 0.25 0 0 0 14 8.75L14 8.25A0.25 0.25 0 0 0 13.75 8L13.25 8A0.25 0.25 0 0 0 13 8.25ZM0 9.25L0 9.75A0.25 0.25 0 0 0 0.25 10L0.75 10A0.25 0.25 0 0 0 1 9.75L1 9.25A0.25 0.25 0 0 0 0.75 9L0.25 9A0.25 0.25 0 0 0 0 9.25ZM15 9.25L15 9.75A0.25 0.25 0 0 1 14.75 10L14.25 10A0.25 0.25 0 0 0 14 10.25L14 10.75A0.25 0.25 0 0 0 14.25 11L14.75 11A0.25 0.25 0 0 0 15 10.75L15 10.25A0.25 0.25 0 0 1 15.25 10L15.75 10A0.25 0.25 0 0 1 16 10.25L16 10.75A0.25 0.25 0 0 0 16.25 11L16.75 11A0.25 0.25 0 0 0 17 10.75L17 9.25A0.25 0.25 0 0 0 16.75 9L15.25 9A0.25 0.25 0 0 0 15 9.25ZM28 9.25L28 9.75A0.25 0.25 0 0 0 28.25 10L29.75 10A0.25 0.25 0 0 0 30 9.75L30 9.25A0.25 0.25 0 0 0 29.75 9L28.25 9A0.25 0.25 0 0 0 28 9.25ZM31 9.25L31 10.75A0.25 0.25 0 0 0 31.25 11L31.75 11A0.25 0.25 0 0 0 32 10.75L32 9.25A0.25 0.25 0 0 0 31.75 9L31.25 9A0.25 0.25 0 0 0 31 9.25ZM6 10.25L6 10.75A0.25 0.25 0 0 0 6.25 11L6.75 11A0.25 0.25 0 0 0 7 10.75L7 10.25A0.25 0.25 0 0 0 6.75 10L6.25 10A0.25 0.25 0 0 0 6 10.25ZM0 11.25L0 11.75A0.25 0.25 0 0 0 0.25 12L0.75 12A0.25 0.25 0 0 0 1 11.75L1 11.25A0.25 0.25 0 0 0 0.75 11L0.25 11A0.25 0.25 0 0 0 0 11.25ZM5 12.25L5 12.75A0.25 0.25 0 0 0 5.25 13L6.75 13A0.25 0.25 0 0 1 7 13.25L7 13.75A0.25 0.25 0 0 1 6.75 14L6.25 14A0.25 0.25 0 0 0 6 14.25L6 14.75A0.25 0.25 0 0 0 6.25 15L6.75 15A0.25 0.25 0 0 0 7 14.75L7 14.25A0.25 0.25 0 0 1 7.25 14L7.75 14A0.25 0.25 0 0 0 8 13.75L8 13.25A0.25 0.25 0 0 0 7.75 13L7.25 13A0.25 0.25 0 0 1 7 12.75L7 12.25A0.25 0.25 0 0 0 6.75 12L5.25 12A0.25 0.25 0 0 0 5 12.25ZM15 13.25L15 15.75A0.25 0.25 0 0 1 14.75 16L14.25 16A0.25 0.25 0 0 0 14 16.25L14 16.75A0.25 0.25 0 0 1 13.75 17L13.25 17A0.25 0.25 0 0 0 13 17.25L13 17.75A0.25 0.25 0 0 1 12.75 18L11.25 18A0.25 0.25 0 0 0 11 18.25L11 18.75A0.25 0.25 0 0 0 11.25 19L12.75 19A0.25 0.25 0 0 1 13 19.25L13 19.75A0.25 0.25 0 0 0 13.25 20L13.75 20A0.25 0.25 0 0 0 14 19.75L14 19.25A0.25 0.25 0 0 0 13.75 19L13.25 19A0.25 0.25 0 0 1 13 18.75L13 18.25A0.25 0.25 0 0 1 13.25 18L14.75 18A0.25 0.25 0 0 0 15 17.75L15 17.25A0.25 0.25 0 0 1 15.25 17L15.75 17A0.25 0.25 0 0 0 16 16.75L16 16.25A0.25 0.25 0 0 1 16.25 16L16.75 16A0.25 0.25 0 0 0 17 15.75L17 14.25A0.25 0.25 0 0 0 16.75 14L16.25 14A0.25 0.25 0 0 1 16 13.75L16 13.25A0.25 0.25 0 0 0 15.75 13L15.25 13A0.25 0.25 0 0 0 15 13.25ZM27 15.25L27 15.75A0.25 0.25 0 0 0 27.25 16L27.75 16A0.25 0.25 0 0 0 28 15.75L28 15.25A0.25 0.25 0 0 0 27.75 15L27.25 15A0.25 0.25 0 0 0 27 15.25ZM6 16.25L6 16.75A0.25 0.25 0 0 0 6.25 17L6.75 17A0.25 0.25 0 0 0 7 16.75L7 16.25A0.25 0.25 0 0 0 6.75 16L6.25 16A0.25 0.25 0 0 0 6 16.25ZM20 16.25L20 16.75A0.25 0.25 0 0 0 20.25 17L20.75 17A0.25 0.25 0 0 0 21 16.75L21 16.25A0.25 0.25 0 0 0 20.75 16L20.25 16A0.25 0.25 0 0 0 20 16.25ZM6 19.25L6 19.75A0.25 0.25 0 0 0 6.25 20L6.75 20A0.25 0.25 0 0 0 7 19.75L7 19.25A0.25 0.25 0 0 0 6.75 19L6.25 19A0.25 0.25 0 0 0 6 19.25ZM16 19.25L16 19.75A0.25 0.25 0 0 1 15.75 20L15.25 20A0.25 0.25 0 0 0 15 20.25L15 21.75A0.25 0.25 0 0 1 14.75 22L14.25 22A0.25 0.25 0 0 0 14 22.25L14 22.75A0.25 0.25 0 0 0 14.25 23L14.75 23A0.25 0.25 0 0 1 15 23.25L15 23.75A0.25 0.25 0 0 0 15.25 24L15.75 24A0.25 0.25 0 0 0 16 23.75L16 23.25A0.25 0.25 0 0 0 15.75 23L15.25 23A0.25 0.25 0 0 1 15 22.75L15 22.25A0.25 0.25 0 0 1 15.25 22L15.75 22A0.25 0.25 0 0 0 16 21.75L16 21.25A0.25 0.25 0 0 1 16.25 21L16.75 21A0.25 0.25 0 0 0 17 20.75L17 19.25A0.25 0.25 0 0 0 16.75 19L16.25 19A0.25 0.25 0 0 0 16 19.25ZM6 21.25L6 21.75A0.25 0.25 0 0 0 6.25 22L6.75 22A0.25 0.25 0 0 0 7 21.75L7 21.25A0.25 0.25 0 0 0 6.75 21L6.25 21A0.25 0.25 0 0 0 6 21.25ZM12 21.25L12 21.75A0.25 0.25 0 0 0 12.25 22L12.75 22A0.25 0.25 0 0 0 13 21.75L13 21.25A0.25 0.25 0 0 0 12.75 21L12.25 21A0.25 0.25 0 0 0 12 21.25ZM18 22.25L18 22.75A0.25 0.25 0 0 0 18.25 23L18.75 23A0.25 0.25 0 0 1 19 23.25L19 23.75A0.25 0.25 0 0 0 19.25 24L19.75 24A0.25 0.25 0 0 0 20 23.75L20 22.25A0.25 0.25 0 0 0 19.75 22L18.25 22A0.25 0.25 0 0 0 18 22.25ZM27 22.25L27 22.75A0.25 0.25 0 0 1 26.75 23L24.25 23A0.25 0.25 0 0 0 24 23.25L24 23.75A0.25 0.25 0 0 0 24.25 24L28.75 24A0.25 0.25 0 0 0 29 23.75L29 23.25A0.25 0.25 0 0 0 28.75 23L28.25 23A0.25 0.25 0 0 1 28 22.75L28 22.25A0.25 0.25 0 0 0 27.75 22L27.25 22A0.25 0.25 0 0 0 27 22.25ZM13 25.25L13 25.75A0.25 0.25 0 0 0 13.25 26L13.75 26A0.25 0.25 0 0 0 14 25.75L14 25.25A0.25 0.25 0 0 0 13.75 25L13.25 25A0.25 0.25 0 0 0 13 25.25ZM25 25.25L25 27.75A0.25 0.25 0 0 0 25.25 28L27.75 28A0.25 0.25 0 0 0 28 27.75L28 25.25A0.25 0.25 0 0 0 27.75 25L25.25 25A0.25 0.25 0 0 0 25 25.25ZM26 26.25L26 26.75A0.25 0.25 0 0 0 26.25 27L26.75 27A0.25 0.25 0 0 0 27 26.75L27 26.25A0.25 0.25 0 0 0 26.75 26L26.25 26A0.25 0.25 0 0 0 26 26.25ZM13 29.25L13 29.75A0.25 0.25 0 0 1 12.75 30L12.25 30A0.25 0.25 0 0 0 12 30.25L12 30.75A0.25 0.25 0 0 0 12.25 31L13.75 31A0.25 0.25 0 0 0 14 30.75L14 29.25A0.25 0.25 0 0 0 13.75 29L13.25 29A0.25 0.25 0 0 0 13 29.25ZM19 29.25L19 29.75A0.25 0.25 0 0 0 19.25 30L19.75 30A0.25 0.25 0 0 0 20 29.75L20 29.25A0.25 0.25 0 0 0 19.75 29L19.25 29A0.25 0.25 0 0 0 19 29.25ZM21 29.25L21 29.75A0.25 0.25 0 0 0 21.25 30L22.75 30A0.25 0.25 0 0 0 23 29.75L23 29.25A0.25 0.25 0 0 0 22.75 29L21.25 29A0.25 0.25 0 0 0 21 29.25ZM8 30.25L8 30.75A0.25 0.25 0 0 0 8.25 31L8.75 31A0.25 0.25 0 0 0 9 30.75L9 30.25A0.25 0.25 0 0 0 8.75 30L8.25 30A0.25 0.25 0 0 0 8 30.25ZM24 31.25L24 32.75A0.25 0.25 0 0 0 24.25 33L26.75 33A0.25 0.25 0 0 0 27 32.75L27 31.25A0.25 0.25 0 0 0 26.75 31L26.25 31A0.25 0.25 0 0 0 26 31.25L26 31.75A0.25 0.25 0 0 1 25.75 32L25.25 32A0.25 0.25 0 0 1 25 31.75L25 31.25A0.25 0.25 0 0 0 24.75 31L24.25 31A0.25 0.25 0 0 0 24 31.25ZM9 32.25L9 32.75A0.25 0.25 0 0 0 9.25 33L9.75 33A0.25 0.25 0 0 0 10 32.75L10 32.25A0.25 0.25 0 0 0 9.75 32L9.25 32A0.25 0.25 0 0 0 9 32.25ZM32 32.25L32 32.75A0.25 0.25 0 0 0 32.25 33L32.75 33A0.25 0.25 0 0 0 33 32.75L33 32.25A0.25 0.25 0 0 0 32.75 32L32.25 32A0.25 0.25 0 0 0 32 32.25ZM0 0.25L0 6.75A0.25 0.25 0 0 0 0.25 7L6.75 7A0.25 0.25 0 0 0 7 6.75L7 0.25A0.25 0.25 0 0 0 6.75 0L0.25 0A0.25 0.25 0 0 0 0 0.25ZM1 1.25L1 5.75A0.25 0.25 0 0 0 1.25 6L5.75 6A0.25 0.25 0 0 0 6 5.75L6 1.25A0.25 0.25 0 0 0 5.75 1L1.25 1A0.25 0.25 0 0 0 1 1.25ZM2 2.25L2 4.75A0.25 0.25 0 0 0 2.25 5L4.75 5A0.25 0.25 0 0 0 5 4.75L5 2.25A0.25 0.25 0 0 0 4.75 2L2.25 2A0.25 0.25 0 0 0 2 2.25ZM26 0.25L26 6.75A0.25 0.25 0 0 0 26.25 7L32.75 7A0.25 0.25 0 0 0 33 6.75L33 0.25A0.25 0.25 0 0 0 32.75 0L26.25 0A0.25 0.25 0 0 0 26 0.25ZM27 1.25L27 5.75A0.25 0.25 0 0 0 27.25 6L31.75 6A0.25 0.25 0 0 0 32 5.75L32 1.25A0.25 0.25 0 0 0 31.75 1L27.25 1A0.25 0.25 0 0 0 27 1.25ZM28 2.25L28 4.75A0.25 0.25 0 0 0 28.25 5L30.75 5A0.25 0.25 0 0 0 31 4.75L31 2.25A0.25 0.25 0 0 0 30.75 2L28.25 2A0.25 0.25 0 0 0 28 2.25ZM0 26.25L0 32.75A0.25 0.25 0 0 0 0.25 33L6.75 33A0.25 0.25 0 0 0 7 32.75L7 26.25A0.25 0.25 0 0 0 6.75 26L0.25 26A0.25 0.25 0 0 0 0 26.25ZM1 27.25L1 31.75A0.25 0.25 0 0 0 1.25 32L5.75 32A0.25 0.25 0 0 0 6 31.75L6 27.25A0.25 0.25 0 0 0 5.75 27L1.25 27A0.25 0.25 0 0 0 1 27.25ZM2 28.25L2 30.75A0.25 0.25 0 0 0 2.25 31L4.75 31A0.25 0.25 0 0 0 5 30.75L5 28.25A0.25 0.25 0 0 0 4.75 28L2.25 28A0.25 0.25 0 0 0 2 28.25Z" fill="#000000"/></g></g></svg>
