<?xml version="1.0" encoding="UTF-8"?>
<svg xmlns="http://www.w3.org/2000/svg" version="1.1" width="500" height="500" viewBox="0 0 500 500"><rect x="0" y="0" width="500" height="500" fill="#ffffff"/><g transform="scale(13.514)"><g transform="translate(0,0)"><path fill-rule="evenodd" d="M8 0.25L8 2.75A0.25 0.25 0 0 0 8.25 3L8.75 3A0.25 0.25 0 0 1 9 3.25L9 4.75A0.25 0.25 0 0 1 8.75 5L8.25 5A0.25 0.25 0 0 0 8 5.25L8 9.75A0.25 0.25 0 0 0 8.25 10L8.75 10A0.25 0.25 0 0 0 9 9.75L9 8.25A0.25 0.25 0 0 1 9.25 8L9.75 8A0.25 0.25 0 0 1 10 8.25L10 9.75A0.25 0.25 0 0 0 10.25 10L10.75 10A0.25 0.25 0 0 1 11 10.25L11 10.75A0.25 0.25 0 0 1 10.75 11L8.25 11A0.25 0.25 0 0 0 8 11.25L8 11.75A0.25 0.25 0 0 0 8.25 12L9.75 12A0.25 0.25 0 0 1 10 12.25L10 12.75A0.25 0.25 0 0 0 10.25 13L10.75 13A0.25 0.25 0 0 0 11 12.75L11 12.25A0.25 0.25 0 0 1 11.25 12L11.75 12A0.25 0.25 0 0 1 12 12.25L12 13.75A0.25 0.25 0 0 1 11.75 14L9.25 14A0.25 0.25 0 0 1 9 13.75L9 13.25A0.25 0.25 0 0 0 8.75 13L8.25 13A0.25 0.25 0 0 0 8 13.25L8 15.75A0.25 0.25 0 0 1 7.75 16L6.25 16A0.25 0.25 0 0 0 6 16.25L6 16.75A0.25 0.25 0 0 0 6.25 17L6.75 17A0.25 0.25 0 0 1 7 17.25L7 17.75A0.25 0.25 0 0 1 6.75 18L5.25 18A0.25 0.25 0 0 1 5 17.75L5 16.25A0.25 0.25 0 0 0 4.75 16L4.25 16A0.25 0.25 0 0 1 4 15.75L4 15.25A0.25 0.25 0 0 1 4.25 15L4.75 15A0.25 0.25 0 0 0 5 14.75L5 14.25A0.25 0.25 0 0 1 5.25 14L5.75 14A0.25 0.25 0 0 1 6 14.25L6 14.75A0.25 0.25 0 0 0 6.25 15L6.75 15A0.25 0.25 0 0 0 7 14.75L7 14.25A0.25 0.25 0 0 0 6.75 14L6.25 14A0.25 0.25 0 0 1 6 13.75L6 13.25A0.25 0.25 0 0 1 6.25 13L6.75 13A0.25 0.25 0 0 0 7 12.75L7 12.25A0.25 0.25 0 0 0 6.75 12L6.25 12A0.25 0.25 0 0 0 6 12.25L6 12.75A0.25 0.25 0 0 1 5.75 13L5.25 13A0.25 0.25 0 0 1 5 12.75L5 12.25A0.25 0.25 0 0 0 4.75 12L4.25 12A0.25 0.25 0 0 1 4 11.75L4 11.25A0.25 0.25 0 0 1 4.25 11L4.75 11A0.25 0.25 0 0 0 5 10.75L5 10.25A0.25 0.25 0 0 1 5.25 10L5.75 10A0.25 0.25 0 0 1 6 10.25L6 10.75A0.25 0.25 0 0 0 6.25 11L6.75 11A0.25 0.25 0 0 0 7 10.75L7 10.25A0.25 0.25 0 0 0 6.75 10L6.25 10A0.25 0.25 0 0 1 6 9.75L6 9.25A0.25 0.25 0 0 1 6.25 9L6.75 9A0.25 0.25 0 0 0 7 8.75L7 8.25A0.25 0.25 0 0 0 6.75 8L6.25 8A0.25 0.25 0 0 0 6 8.25L6 8.75A0.25 0.25 0 0 1 5.75 9L5.25 9A0.25 0.25 0 0 1 5 8.75L5 8.25A0.25 0.25 0 0 0 4.75 8L2.25 8A0.25 0.25 0 0 0 2 8.25L2 10.75A0.25 0.25 0 0 1 1.75 11L1.25 11A0.25 0.25 0 0 1 1 10.75L1 10.25A0.25 0.25 0 0 0 0.75 10L0.25 10A0.25 0.25 0 0 0 0 10.25L0 14.75A0.25 0.25 0 0 0 0.25 15L0.75 15A0.25 0.25 0 0 1 1 15.25L1 15.75A0.25 0.25 0 0 0 1.25 16L1.75 16A0.25 0.25 0 0 1 2 16.25L2 16.75A0.25 0.25 0 0 1 1.75 17L1.25 17A0.25 0.25 0 0 0 1 17.25L1 17.75A0.25 0.25 0 0 1 0.75 18L0.25 18A0.25 0.25 0 0 0 0 18.25L0 18.75A0.25 0.25 0 0 0 0.25 19L0.75 19A0.25 0.25 0 0 1 1 19.25L1 19.75A0.25 0.25 0 0 1 0.75 20L0.25 20A0.25 0.25 0 0 0 0 20.25L0 20.75A0.25 0.25 0 0 0 0.25 21L1.75 21A0.25 0.25 0 0 1 2 21.25L2 23.75A0.25 0.25 0 0 0 2.25 24L2.75 24A0.25 0.25 0 0 0 3 23.75L3 23.25A0.25 0.25 0 0 1 3.25 23L3.75 23A0.25 0.25 0 0 1 4 23.25L4 23.75A0.25 0.25 0 0 0 4.25 24L4.75 24A0.25 0.25 0 0 0 5 23.75L5 23.25A0.25 0.25 0 0 1 5.25 23L6.75 23A0.25 0.25 0 0 1 7 23.25L7 23.75A0.25 0.25 0 0 1 6.75 24L6.25 24A0.25 0.25 0 0 0 6 24.25L6 24.75A0.25 0.25 0 0 0 6.25 25L6.75 25A0.25 0.25 0 0 0 7 24.75L7 24.25A0.25 0.25 0 0 1 7.25 24L7.75 24A0.25 0.25 0 0 1 8 24.25L8 25.75A0.25 0.25 0 0 0 8.25 26L8.75 26A0.25 0.25 0 0 1 9 26.25L9 26.75A0.25 0.25 0 0 1 8.75 27L7.25 27A0.25 0.25 0 0 1 7 26.75L7 26.25A0.25 0.25 0 0 0 6.75 26L4.25 26A0.25 0.25 0 0 1 4 25.75L4 25.25A0.25 0.25 0 0 0 3.75 25L2.25 25A0.25 0.25 0 0 0 2 25.25L2 25.75A0.25 0.25 0 0 0 2.25 26L3.75 26A0.25 0.25 0 0 1 4 26.25L4 26.75A0.25 0.25 0 0 1 3.75 27L3.25 27A0.25 0.25 0 0 0 3 27.25L3 27.75A0.25 0.25 0 0 1 2.75 28L2.25 28A0.25 0.25 0 0 0 2 28.25L2 28.75A0.25 0.25 0 0 0 2.25 29L2.75 29A0.25 0.25 0 0 0 3 28.75L3 28.25A0.25 0.25 0 0 1 3.25 28L3.75 28A0.25 0.25 0 0 0 4 27.75L4 27.25A0.25 0.25 0 0 1 4.25 27L4.75 27A0.25 0.25 0 0 1 5 27.25L5 27.75A0.25 0.25 0 0 0 5.25 28L5.75 28A0.25 0.25 0 0 1 6 28.25L6 28.75A0.25 0.25 0 0 0 6.25 29L6.75 29A0.25 0.25 0 0 0 7 28.75L7 28.25A0.25 0.25 0 0 1 7.25 28L9.75 28A0.25 0.25 0 0 0 10 27.75L10 26.25A0.25 0.25 0 0 0 9.75 26L9.25 26A0.25 0.25 0 0 1 9 25.75L9 24.25A0.25 0.25 0 0 1 9.25 24L11.75 24A0.25 0.25 0 0 1 12 24.25L12 24.75A0.25 0.25 0 0 1 11.75 25L11.25 25A0.25 0.25 0 0 0 11 25.25L11 26.75A0.25 0.25 0 0 0 11.25 27L13.75 27A0.25 0.25 0 0 0 14 26.75L14 26.25A0.25 0.25 0 0 1 14.25 26L14.75 26A0.25 0.25 0 0 1 15 26.25L15 26.75A0.25 0.25 0 0 0 15.25 27L15.75 27A0.25 0.25 0 0 1 16 27.25L16 27.75A0.25 0.25 0 0 1 15.75 28L15.25 28A0.25 0.25 0 0 0 15 28.25L15 30.75A0.25 0.25 0 0 0 15.25 31L15.75 31A0.25 0.25 0 0 1 16 31.25L16 32.75A0.25 0.25 0 0 1 15.75 33L15.25 33A0.25 0.25 0 0 1 15 32.75L15 32.25A0.25 0.25 0 0 0 14.75 32L14.25 32A0.25 0.25 0 0 1 14 31.75L14 31.25A0.25 0.25 0 0 0 13.75 31L13.25 31A0.25 0.25 0 0 0 13 31.25L13 32.75A0.25 0.25 0 0 0 13.25 33L14.75 33A0.25 0.25 0 0 1 15 33.25L15 34.75A0.25 0.25 0 0 1 14.75 35L14.25 35A0.25 0.25 0 0 0 14 35.25L14 35.75A0.25 0.25 0 0 1 13.75 36L13.25 36A0.25 0.25 0 0 1 13 35.75L13 34.25A0.25 0.25 0 0 0 12.75 34L11.25 34A0.25 0.25 0 0 1 11 33.75L11 33.25A0.25 0.25 0 0 0 10.75 33L10.25 33A0.25 0.25 0 0 1 10 32.75L10 32.25A0.25 0.25 0 0 1 10.25 32L11.75 32A0.25 0.25 0 0 0 12 31.75L12 31.25A0.25 0.25 0 0 0 11.75 31L11.25 31A0.25 0.25 0 0 1 11 30.75L11 30.25A0.25 0.25 0 0 0 10.75 30L9.25 30A0.25 0.25 0 0 1 9 29.75L9 29.25A0.25 0.25 0 0 0 8.75 29L8.25 29A0.25 0.25 0 0 0 8 29.25L8 29.75A0.25 0.25 0 0 0 8.25 30L8.75 30A0.25 0.25 0 0 1 9 30.25L9 30.75A0.25 0.25 0 0 0 9.25 31L9.75 31A0.25 0.25 0 0 1 10 31.25L10 31.75A0.25 0.25 0 0 1 9.75 32L8.25 32A0.25 0.25 0 0 0 8 32.25L8 34.75A0.25 0.25 0 0 0 8.25 35L8.75 35A0.25 0.25 0 0 1 9 35.25L9 35.75A0.25 0.25 0 0 0 9.25 36L9.75 36A0.25 0.25 0 0 0 10 35.75L10 34.25A0.25 0.25 0 0 1 10.25 34L10.75 34A0.25 0.25 0 0 1 11 34.25L11 34.75A0.25 0.25 0 0 0 11.25 35L11.75 35A0.25 0.25 0 0 1 12 35.25L12 35.75A0.25 0.25 0 0 0 12.25 36L12.75 36A0.25 0.25 0 0 1 13 36.25L13 36.75A0.25 0.25 0 0 0 13.25 37L13.75 37A0.25 0.25 0 0 0 14 36.75L14 36.25A0.25 0.25 0 0 1 14.25 36L14.75 36A0.25 0.25 0 0 1 15 36.25L15 36.75A0.25 0.25 0 0 0 15.25 37L19.75 37A0.25 0.25 0 0 0 20 36.75L20 35.25A0.25 0.25 0 0 1 20.25 35L20.75 35A0.25 0.25 0 0 1 21 35.25L21 35.75A0.25 0.25 0 0 0 21.25 36L21.75 36A0.25 0.25 0 0 1 22 36.25L22 36.75A0.25 0.25 0 0 0 22.25 37L26.75 37A0.25 0.25 0 0 0 27 36.75L27 36.25A0.25 0.25 0 0 1 27.25 36L28.75 36A0.25 0.25 0 0 1 29 36.25L29 36.75A0.25 0.25 0 0 0 29.25 37L29.75 37A0.25 0.25 0 0 0 30 36.75L30 36.25A0.25 0.25 0 0 1 30.25 36L30.75 36A0.25 0.25 0 0 1 31 36.25L31 36.75A0.25 0.25 0 0 0 31.25 37L32.75 37A0.25 0.25 0 0 0 33 36.75L33 35.25A0.25 0.25 0 0 1 33.25 35L33.75 35A0.25 0.25 0 0 0 34 34.75L34 33.25A0.25 0.25 0 0 1 34.25 33L35.75 33A0.25 0.25 0 0 0 36 32.75L36 32.25A0.25 0.25 0 0 1 36.25 32L36.75 32A0.25 0.25 0 0 0 37 31.75L37 30.25A0.25 0.25 0 0 0 36.75 30L35.25 30A0.25 0.25 0 0 0 35 30.25L35 30.75A0.25 0.25 0 0 0 35.25 31L35.75 31A0.25 0.25 0 0 1 36 31.25L36 31.75A0.25 0.25 0 0 1 35.75 32L34.25 32A0.25 0.25 0 0 0 34 32.25L34 32.75A0.25 0.25 0 0 1 33.75 33L33.25 33A0.25 0.25 0 0 1 33 32.75L33 31.25A0.25 0.25 0 0 1 33.25 31L33.75 31A0.25 0.25 0 0 0 34 30.75L34 30.25A0.25 0.25 0 0 0 33.75 30L33.25 30A0.25 0.25 0 0 1 33 29.75L33 28.25A0.25 0.25 0 0 0 32.75 28L30.25 28A0.25 0.25 0 0 1 30 27.75L30 27.25A0.25 0.25 0 0 1 30.25 27L32.75 27A0.25 0.25 0 0 0 33 26.75L33 26.25A0.25 0.25 0 0 0 32.75 26L32.25 26A0.25 0.25 0 0 1 32 25.75L32 23.25A0.25 0.25 0 0 0 31.75 23L31.25 23A0.25 0.25 0 0 0 31 23.25L31 23.75A0.25 0.25 0 0 1 30.75 24L30.25 24A0.25 0.25 0 0 1 30 23.75L30 22.25A0.25 0.25 0 0 0 29.75 22L29.25 22A0.25 0.25 0 0 0 29 22.25L29 24.75A0.25 0.25 0 0 1 28.75 25L24.25 25A0.25 0.25 0 0 1 24 24.75L24 21.25A0.25 0.25 0 0 0 23.75 21L23.25 21A0.25 0.25 0 0 1 23 20.75L23 20.25A0.25 0.25 0 0 1 23.25 20L24.75 20A0.25 0.25 0 0 0 25 19.75L25 19.25A0.25 0.25 0 0 0 24.75 19L22.25 19A0.25 0.25 0 0 0 22 19.25L22 20.75A0.25 0.25 0 0 0 22.25 21L22.75 21A0.25 0.25 0 0 1 23 21.25L23 22.75A0.25 0.25 0 0 1 22.75 23L22.25 23A0.25 0.25 0 0 1 22 22.75L22 22.25A0.25 0.25 0 0 0 21.75 22L20.25 22A0.25 0.25 0 0 0 20 22.25L20 22.75A0.25 0.25 0 0 0 20.25 23L20.75 23A0.25 0.25 0 0 1 21 23.25L21 23.75A0.25 0.25 0 0 1 20.75 24L20.25 24A0.25 0.25 0 0 0 20 24.25L20 24.75A0.25 0.25 0 0 0 20.25 25L20.75 25A0.25 0.25 0 0 0 21 24.75L21 24.25A0.25 0.25 0 0 1 21.25 24L22.75 24A0.25 0.25 0 0 1 23 24.25L23 24.75A0.25 0.25 0 0 1 22.75 25L22.25 25A0.25 0.25 0 0 0 22 25.25L22 25.75A0.25 0.25 0 0 1 21.75 26L21.25 26A0.25 0.25 0 0 0 21 26.25L21 26.75A0.25 0.25 0 0 1 20.75 27L20.25 27A0.25 0.25 0 0 0 20 27.25L20 28.75A0.25 0.25 0 0 1 19.75 29L19.25 29A0.25 0.25 0 0 1 19 28.75L19 28.25A0.25 0.25 0 0 0 18.75 28L18.25 28A0.25 0.25 0 0 1 18 27.75L18 27.25A0.25 0.25 0 0 1 18.25 27L18.75 27A0.25 0.25 0 0 0 19 26.75L19 23.25A0.25 0.25 0 0 0 18.75 23L18.25 23A0.25 0.25 0 0 1 18 22.75L18 21.25A0.25 0.25 0 0 1 18.25 21L19.75 21A0.25 0.25 0 0 0 20 20.75L20 20.25A0.25 0.25 0 0 0 19.75 20L17.25 20A0.25 0.25 0 0 1 17 19.75L17 18.25A0.25 0.25 0 0 1 17.25 18L17.75 18A0.25 0.25 0 0 0 18 17.75L18 17.25A0.25 0.25 0 0 0 17.75 17L17.25 17A0.25 0.25 0 0 1 17 16.75L17 16.25A0.25 0.25 0 0 1 17.25 16L18.75 16A0.25 0.25 0 0 1 19 16.25L19 18.75A0.25 0.25 0 0 0 19.25 19L20.75 19A0.25 0.25 0 0 0 21 18.75L21 18.25A0.25 0.25 0 0 1 21.25 18L24.75 18A0.25 0.25 0 0 0 25 17.75L25 17.25A0.25 0.25 0 0 1 25.25 17L26.75 17A0.25 0.25 0 0 0 27 16.75L27 16.25A0.25 0.25 0 0 0 26.75 16L24.25 16A0.25 0.25 0 0 1 24 15.75L24 15.25A0.25 0.25 0 0 1 24.25 15L24.75 15A0.25 0.25 0 0 0 25 14.75L25 14.25A0.25 0.25 0 0 1 25.25 14L25.75 14A0.25 0.25 0 0 0 26 13.75L26 13.25A0.25 0.25 0 0 1 26.25 13L27.75 13A0.25 0.25 0 0 1 28 13.25L28 13.75A0.25 0.25 0 0 1 27.75 14L27.25 14A0.25 0.25 0 0 0 27 14.25L27 14.75A0.25 0.25 0 0 0 27.25 15L27.75 15A0.25 0.25 0 0 1 28 15.25L28 15.75A0.25 0.25 0 0 0 28.25 16L28.75 16A0.25 0.25 0 0 1 29 16.25L29 16.75A0.25 0.25 0 0 1 28.75 17L28.25 17A0.25 0.25 0 0 0 28 17.25L28 17.75A0.25 0.25 0 0 1 27.75 18L27.25 18A0.25 0.25 0 0 0 27 18.25L27 18.75A0.25 0.25 0 0 1 26.75 19L26.25 19A0.25 0.25 0 0 0 26 19.25L26 21.75A0.25 0.25 0 0 0 26.25 22L26.75 22A0.25 0.25 0 0 1 27 22.25L27 22.75A0.25 0.25 0 0 1 26.75 23L26.25 23A0.25 0.25 0 0 0 26 23.25L26 23.75A0.25 0.25 0 0 0 26.25 24L26.75 24A0.25 0.25 0 0 0 27 23.75L27 23.25A0.25 0.25 0 0 1 27.25 23L27.75 23A0.25 0.25 0 0 0 28 22.75L28 22.25A0.25 0.25 0 0 0 27.75 22L27.25 22A0.25 0.25 0 0 1 27 21.75L27 20.25A0.25 0.25 0 0 1 27.25 20L27.75 20A0.25 0.25 0 0 0 28 19.75L28 18.25A0.25 0.25 0 0 1 28.25 18L28.75 18A0.25 0.25 0 0 1 29 18.25L29 20.75A0.25 0.25 0 0 0 29.25 21L30.75 21A0.25 0.25 0 0 1 31 21.25L31 21.75A0.25 0.25 0 0 0 31.25 22L31.75 22A0.25 0.25 0 0 0 32 21.75L32 21.25A0.25 0.25 0 0 1 32.25 21L32.75 21A0.25 0.25 0 0 1 33 21.25L33 21.75A0.25 0.25 0 0 0 33.25 22L33.75 22A0.25 0.25 0 0 0 34 21.75L34 21.25A0.25 0.25 0 0 1 34.25 21L34.75 21A0.25 0.25 0 0 0 35 20.75L35 20.25A0.25 0.25 0 0 0 34.75 20L34.25 20A0.25 0.25 0 0 0 34 20.25L34 20.75A0.25 0.25 0 0 1 33.75 21L33.25 21A0.25 0.25 0 0 1 33 20.75L33 20.25A0.25 0.25 0 0 0 32.75 20L30.25 20A0.25 0.25 0 0 1 30 19.75L30 17.25A0.25 0.25 0 0 1 30.25 17L30.75 17A0.25 0.25 0 0 0 31 16.75L31 16.25A0.25 0.25 0 0 0 30.75 16L29.25 16A0.25 0.25 0 0 1 29 15.75L29 15.25A0.25 0.25 0 0 1 29.25 15L29.75 15A0.25 0.25 0 0 0 30 14.75L30 13.25A0.25 0.25 0 0 1 30.25 13L30.75 13A0.25 0.25 0 0 1 31 13.25L31 14.75A0.25 0.25 0 0 0 31.25 15L33.75 15A0.25 0.25 0 0 0 34 14.75L34 14.25A0.25 0.25 0 0 1 34.25 14L34.75 14A0.25 0.25 0 0 1 35 14.25L35 15.75A0.25 0.25 0 0 1 34.75 16L34.25 16A0.25 0.25 0 0 0 34 16.25L34 16.75A0.25 0.25 0 0 1 33.75 17L33.25 17A0.25 0.25 0 0 1 33 16.75L33 16.25A0.25 0.25 0 0 0 32.75 16L32.25 16A0.25 0.25 0 0 0 32 16.25L32 16.75A0.25 0.25 0 0 0 32.25 17L32.75 17A0.25 0.25 0 0 1 33 17.25L33 17.75A0.25 0.25 0 0 0 33.25 18L33.75 18A0.25 0.25 0 0 0 34 17.75L34 17.25A0.25 0.25 0 0 1 34.25 17L34.75 17A0.25 0.25 0 0 0 35 16.75L35 16.25A0.25 0.25 0 0 1 35.25 16L35.75 16A0.25 0.25 0 0 1 36 16.25L36 16.75A0.25 0.25 0 0 0 36.25 17L36.75 17A0.25 0.25 0 0 0 37 16.75L37 16.25A0.25 0.25 0 0 0 36.75 16L36.25 16A0.25 0.25 0 0 1 36 15.75L36 15.25A0.25 0.25 0 0 1 36.25 15L36.75 15A0.25 0.25 0 0 0 37 14.75L37 14.25A0.25 0.25 0 0 0 36.75 14L35.25 14A0.25 0.25 0 0 1 35 13.75L35 13.25A0.25 0.25 0 0 0 34.75 13L33.25 13A0.25 0.25 0 0 1 33 12.75L33 11.25A0.25 0.25 0 0 1 33.25 11L34.75 11A0.25 0.25 0 0 0 35 10.75L35 10.25A0.25 0.25 0 0 1 35.25 10L35.75 10A0.25 0.25 0 0 1 36 10.25L36 12.75A0.25 0.25 0 0 0 36.25 13L36.75 13A0.25 0.25 0 0 0 37 12.75L37 10.25A0.25 0.25 0 0 0 36.75 10L36.25 10A0.25 0.25 0 0 1 36 9.75L36 9.25A0.25 0.25 0 0 1 36.25 9L36.75 9A0.25 0.25 0 0 0 37 8.75L37 8.25A0.25 0.25 0 0 0 36.75 8L34.25 8A0.25 0.25 0 0 0 34 8.25L34 8.75A0.25 0.25 0 0 1 33.75 9L33.25 9A0.25 0.25 0 0 0 33 9.25L33 10.75A0.25 0.25 0 0 1 32.75 11L32.25 11A0.25 0.25 0 0 1 32 10.75L32 8.25A0.25 0.25 0 0 0 31.75 8L29.25 8A0.25 0.25 0 0 1 29 7.75L29 5.25A0.25 0.25 0 0 0 28.75 5L27.25 5A0.25 0.25 0 0 1 27 4.75L27 4.25A0.25 0.25 0 0 1 27.25 4L27.75 4A0.25 0.25 0 0 0 28 3.75L28 2.25A0.25 0.25 0 0 1 28.25 2L28.75 2A0.25 0.25 0 0 0 29 1.75L29 0.25A0.25 0.25 0 0 0 28.75 0L28.25 0A0.25 0.25 0 0 0 28 0.25L28 0.75A0.25 0.25 0 0 1 27.75 1L27.25 1A0.25 0.25 0 0 0 27 1.25L27 3.75A0.25 0.25 0 0 1 26.75 4L26.25 4A0.25 0.25 0 0 1 26 3.75L26 3.25A0.25 0.25 0 0 0 25.75 3L21.25 3A0.25 0.25 0 0 1 21 2.75L21 2.25A0.25 0.25 0 0 0 20.75 2L20.25 2A0.25 0.25 0 0 1 20 1.75L20 0.25A0.25 0.25 0 0 0 19.75 0L18.25 0A0.25 0.25 0 0 0 18 0.25L18 0.75A0.25 0.25 0 0 1 17.75 1L16.25 1A0.25 0.25 0 0 0 16 1.25L16 2.75A0.25 0.25 0 0 1 15.75 3L14.25 3A0.25 0.25 0 0 1 14 2.75L14 2.25A0.25 0.25 0 0 1 14.25 2L14.75 2A0.25 0.25 0 0 0 15 1.75L15 1.25A0.25 0.25 0 0 0 14.75 1L14.25 1A0.25 0.25 0 0 1 14 0.75L14 0.25A0.25 0.25 0 0 0 13.75 0L13.25 0A0.25 0.25 0 0 0 13 0.25L13 1.75A0.25 0.25 0 0 1 12.75 2L12.25 2A0.25 0.25 0 0 0 12 2.25L12 2.75A0.25 0.25 0 0 1 11.75 3L11.25 3A0.25 0.25 0 0 0 11 3.25L11 3.75A0.25 0.25 0 0 0 11.25 4L13.75 4A0.25 0.25 0 0 1 14 4.25L14 7.75A0.25 0.25 0 0 0 14.25 8L14.75 8A0.25 0.25 0 0 1 15 8.25L15 8.75A0.25 0.25 0 0 1 14.75 9L13.25 9A0.25 0.25 0 0 1 13 8.75L13 6.25A0.25 0.25 0 0 0 12.75 6L12.25 6A0.25 0.25 0 0 0 12 6.25L12 6.75A0.25 0.25 0 0 1 11.75 7L11.25 7A0.25 0.25 0 0 1 11 6.75L11 5.25A0.25 0.25 0 0 0 10.75 5L10.25 5A0.25 0.25 0 0 1 10 4.75L10 3.25A0.25 0.25 0 0 0 9.75 3L9.25 3A0.25 0.25 0 0 1 9 2.75L9 2.25A0.25 0.25 0 0 1 9.25 2L9.75 2A0.25 0.25 0 0 0 10 1.75L10 0.25A0.25 0.25 0 0 0 9.75 0L8.25 0A0.25 0.25 0 0 0 8 0.25ZM11 0.25L11 0.75A0.25 0.25 0 0 0 11.25 1L11.75 1A0.25 0.25 0 0 0 12 0.75L12 0.25A0.25 0.25 0 0 0 11.75 0L11.25 0A0.25 0.25 0 0 0 11 0.25ZM22 0.25L22 0.75A0.25 0.25 0 0 0 22.25 1L22.75 1A0.25 0.25 0 0 1 23 1.25L23 1.75A0.25 0.25 0 0 0 23.25 2L23.75 2A0.25 0.25 0 0 0 24 1.75L24 1.25A0.25 0.25 0 0 0 23.75 1L23.25 1A0.25 0.25 0 0 1 23 0.75L23 0.25A0.25 0.25 0 0 0 22.75 0L22.25 0A0.25 0.25 0 0 0 22 0.25ZM25 0.25L25 1.75A0.25 0.25 0 0 0 25.25 2L25.75 2A0.25 0.25 0 0 0 26 1.75L26 0.25A0.25 0.25 0 0 0 25.75 0L25.25 0A0.25 0.25 0 0 0 25 0.25ZM18 1.25L18 2.75A0.25 0.25 0 0 1 17.75 3L16.25 3A0.25 0.25 0 0 0 16 3.25L16 4.75A0.25 0.25 0 0 1 15.75 5L15.25 5A0.25 0.25 0 0 0 15 5.25L15 6.75A0.25 0.25 0 0 0 15.25 7L15.75 7A0.25 0.25 0 0 1 16 7.25L16 8.75A0.25 0.25 0 0 0 16.25 9L16.75 9A0.25 0.25 0 0 1 17 9.25L17 9.75A0.25 0.25 0 0 0 17.25 10L17.75 10A0.25 0.25 0 0 0 18 9.75L18 9.25A0.25 0.25 0 0 1 18.25 9L18.75 9A0.25 0.25 0 0 1 19 9.25L19 9.75A0.25 0.25 0 0 0 19.25 10L20.75 10A0.25 0.25 0 0 1 21 10.25L21 10.75A0.25 0.25 0 0 0 21.25 11L21.75 11A0.25 0.25 0 0 1 22 11.25L22 11.75A0.25 0.25 0 0 0 22.25 12L22.75 12A0.25 0.25 0 0 1 23 12.25L23 12.75A0.25 0.25 0 0 1 22.75 13L22.25 13A0.25 0.25 0 0 0 22 13.25L22 13.75A0.25 0.25 0 0 1 21.75 14L21.25 14A0.25 0.25 0 0 1 21 13.75L21 13.25A0.25 0.25 0 0 0 20.75 13L20.25 13A0.25 0.25 0 0 0 20 13.25L20 13.75A0.25 0.25 0 0 1 19.75 14L19.25 14A0.25 0.25 0 0 1 19 13.75L19 12.25A0.25 0.25 0 0 1 19.25 12L19.75 12A0.25 0.25 0 0 0 20 11.75L20 11.25A0.25 0.25 0 0 0 19.75 11L18.25 11A0.25 0.25 0 0 0 18 11.25L18 11.75A0.25 0.25 0 0 1 17.75 12L17.25 12A0.25 0.25 0 0 1 17 11.75L17 11.25A0.25 0.25 0 0 0 16.75 11L16.25 11A0.25 0.25 0 0 1 16 10.75L16 10.25A0.25 0.25 0 0 0 15.75 10L14.25 10A0.25 0.25 0 0 0 14 10.25L14 10.75A0.25 0.25 0 0 0 14.25 11L14.75 11A0.25 0.25 0 0 1 15 11.25L15 11.75A0.25 0.25 0 0 1 14.75 12L14.25 12A0.25 0.25 0 0 0 14 12.25L14 12.75A0.25 0.25 0 0 0 14.25 13L15.75 13A0.25 0.25 0 0 0 16 12.75L16 12.25A0.25 0.25 0 0 1 16.25 12L16.75 12A0.25 0.25 0 0 1 17 12.25L17 13.75A0.25 0.25 0 0 1 16.75 14L12.25 14A0.25 0.25 0 0 0 12 14.25L12 14.75A0.25 0.25 0 0 1 11.75 15L9.25 15A0.25 0.25 0 0 0 9 15.25L9 15.75A0.25 0.25 0 0 0 9.25 16L10.75 16A0.25 0.25 0 0 1 11 16.25L11 16.75A0.25 0.25 0 0 1 10.75 17L10.25 17A0.25 0.25 0 0 0 10 17.25L10 17.75A0.25 0.25 0 0 1 9.75 18L9.25 18A0.25 0.25 0 0 1 9 17.75L9 17.25A0.25 0.25 0 0 0 8.75 17L8.25 17A0.25 0.25 0 0 0 8 17.25L8 17.75A0.25 0.25 0 0 1 7.75 18L7.25 18A0.25 0.25 0 0 0 7 18.25L7 18.75A0.25 0.25 0 0 1 6.75 19L5.25 19A0.25 0.25 0 0 1 5 18.75L5 18.25A0.25 0.25 0 0 0 4.75 18L4.25 18A0.25 0.25 0 0 1 4 17.75L4 16.25A0.25 0.25 0 0 0 3.75 16L3.25 16A0.25 0.25 0 0 1 3 15.75L3 15.25A0.25 0.25 0 0 1 3.25 15L3.75 15A0.25 0.25 0 0 0 4 14.75L4 14.25A0.25 0.25 0 0 0 3.75 14L3.25 14A0.25 0.25 0 0 1 3 13.75L3 13.25A0.25 0.25 0 0 1 3.25 13L3.75 13A0.25 0.25 0 0 0 4 12.75L4 12.25A0.25 0.25 0 0 0 3.75 12L1.25 12A0.25 0.25 0 0 0 1 12.25L1 12.75A0.25 0.25 0 0 0 1.25 13L1.75 13A0.25 0.25 0 0 1 2 13.25L2 13.75A0.25 0.25 0 0 1 1.75 14L1.25 14A0.25 0.25 0 0 0 1 14.25L1 14.75A0.25 0.25 0 0 0 1.25 15L1.75 15A0.25 0.25 0 0 1 2 15.25L2 15.75A0.25 0.25 0 0 0 2.25 16L2.75 16A0.25 0.25 0 0 1 3 16.25L3 16.75A0.25 0.25 0 0 1 2.75 17L2.25 17A0.25 0.25 0 0 0 2 17.25L2 17.75A0.25 0.25 0 0 1 1.75 18L1.25 18A0.25 0.25 0 0 0 1 18.25L1 18.75A0.25 0.25 0 0 0 1.25 19L2.75 19A0.25 0.25 0 0 0 3 18.75L3 18.25A0.25 0.25 0 0 1 3.25 18L3.75 18A0.25 0.25 0 0 1 4 18.25L4 19.75A0.25 0.25 0 0 1 3.75 20L2.25 20A0.25 0.25 0 0 0 2 20.25L2 20.75A0.25 0.25 0 0 0 2.25 21L3.75 21A0.25 0.25 0 0 0 4 20.75L4 20.25A0.25 0.25 0 0 1 4.25 20L4.75 20A0.25 0.25 0 0 1 5 20.25L5 20.75A0.25 0.25 0 0 0 5.25 21L5.75 21A0.25 0.25 0 0 1 6 21.25L6 21.75A0.25 0.25 0 0 0 6.25 22L6.75 22A0.25 0.25 0 0 1 7 22.25L7 22.75A0.25 0.25 0 0 0 7.25 23L7.75 23A0.25 0.25 0 0 1 8 23.25L8 23.75A0.25 0.25 0 0 0 8.25 24L8.75 24A0.25 0.25 0 0 0 9 23.75L9 23.25A0.25 0.25 0 0 1 9.25 23L9.75 23A0.25 0.25 0 0 0 10 22.75L10 22.25A0.25 0.25 0 0 1 10.25 22L11.75 22A0.25 0.25 0 0 1 12 22.25L12 22.75A0.25 0.25 0 0 0 12.25 23L12.75 23A0.25 0.25 0 0 1 13 23.25L13 23.75A0.25 0.25 0 0 0 13.25 24L13.75 24A0.25 0.25 0 0 0 14 23.75L14 19.25A0.25 0.25 0 0 1 14.25 19L14.75 19A0.25 0.25 0 0 1 15 19.25L15 21.75A0.25 0.25 0 0 0 15.25 22L15.75 22A0.25 0.25 0 0 1 16 22.25L16 22.75A0.25 0.25 0 0 0 16.25 23L16.75 23A0.25 0.25 0 0 1 17 23.25L17 23.75A0.25 0.25 0 0 0 17.25 24L17.75 24A0.25 0.25 0 0 0 18 23.75L18 23.25A0.25 0.25 0 0 0 17.75 23L17.25 23A0.25 0.25 0 0 1 17 22.75L17 21.25A0.25 0.25 0 0 0 16.75 21L16.25 21A0.25 0.25 0 0 1 16 20.75L16 19.25A0.25 0.25 0 0 0 15.75 19L15.25 19A0.25 0.25 0 0 1 15 18.75L15 18.25A0.25 0.25 0 0 1 15.25 18L16.75 18A0.25 0.25 0 0 0 17 17.75L17 17.25A0.25 0.25 0 0 0 16.75 17L13.25 17A0.25 0.25 0 0 0 13 17.25L13 17.75A0.25 0.25 0 0 1 12.75 18L12.25 18A0.25 0.25 0 0 0 12 18.25L12 18.75A0.25 0.25 0 0 1 11.75 19L11.25 19A0.25 0.25 0 0 1 11 18.75L11 17.25A0.25 0.25 0 0 1 11.25 17L11.75 17A0.25 0.25 0 0 0 12 16.75L12 16.25A0.25 0.25 0 0 1 12.25 16L16.75 16A0.25 0.25 0 0 0 17 15.75L17 15.25A0.25 0.25 0 0 1 17.25 15L17.75 15A0.25 0.25 0 0 0 18 14.75L18 14.25A0.25 0.25 0 0 1 18.25 14L18.75 14A0.25 0.25 0 0 1 19 14.25L19 15.75A0.25 0.25 0 0 0 19.25 16L20.75 16A0.25 0.25 0 0 1 21 16.25L21 16.75A0.25 0.25 0 0 0 21.25 17L21.75 17A0.25 0.25 0 0 0 22 16.75L22 14.25A0.25 0.25 0 0 1 22.25 14L24.75 14A0.25 0.25 0 0 0 25 13.75L25 12.25A0.25 0.25 0 0 1 25.25 12L25.75 12A0.25 0.25 0 0 0 26 11.75L26 11.25A0.25 0.25 0 0 0 25.75 11L25.25 11A0.25 0.25 0 0 0 25 11.25L25 11.75A0.25 0.25 0 0 1 24.75 12L23.25 12A0.25 0.25 0 0 1 23 11.75L23 10.25A0.25 0.25 0 0 0 22.75 10L22.25 10A0.25 0.25 0 0 1 22 9.75L22 9.25A0.25 0.25 0 0 1 22.25 9L23.75 9A0.25 0.25 0 0 1 24 9.25L24 9.75A0.25 0.25 0 0 0 24.25 10L24.75 10A0.25 0.25 0 0 0 25 9.75L25 9.25A0.25 0.25 0 0 1 25.25 9L25.75 9A0.25 0.25 0 0 1 26 9.25L26 9.75A0.25 0.25 0 0 0 26.25 10L26.75 10A0.25 0.25 0 0 0 27 9.75L27 9.25A0.25 0.25 0 0 1 27.25 9L27.75 9A0.25 0.25 0 0 1 28 9.25L28 10.75A0.25 0.25 0 0 1 27.75 11L27.25 11A0.25 0.25 0 0 0 27 11.25L27 11.75A0.25 0.25 0 0 0 27.25 12L27.75 12A0.25 0.25 0 0 1 28 12.25L28 12.75A0.25 0.25 0 0 0 28.25 13L28.75 13A0.25 0.25 0 0 0 29 12.75L29 12.25A0.25 0.25 0 0 1 29.25 12L29.75 12A0.25 0.25 0 0 0 30 11.75L30 10.25A0.25 0.25 0 0 1 30.25 10L30.75 10A0.25 0.25 0 0 0 31 9.75L31 9.25A0.25 0.25 0 0 0 30.75 9L29.25 9A0.25 0.25 0 0 1 29 8.75L29 8.25A0.25 0.25 0 0 0 28.75 8L28.25 8A0.25 0.25 0 0 1 28 7.75L28 6.25A0.25 0.25 0 0 0 27.75 6L27.25 6A0.25 0.25 0 0 0 27 6.25L27 6.75A0.25 0.25 0 0 1 26.75 7L26.25 7A0.25 0.25 0 0 1 26 6.75L26 6.25A0.25 0.25 0 0 0 25.75 6L25.25 6A0.25 0.25 0 0 0 25 6.25L25 6.75A0.25 0.25 0 0 0 25.25 7L25.75 7A0.25 0.25 0 0 1 26 7.25L26 7.75A0.25 0.25 0 0 1 25.75 8L22.25 8A0.25 0.25 0 0 1 22 7.75L22 6.25A0.25 0.25 0 0 0 21.75 6L21.25 6A0.25 0.25 0 0 1 21 5.75L21 5.25A0.25 0.25 0 0 1 21.25 5L21.75 5A0.25 0.25 0 0 0 22 4.75L22 4.25A0.25 0.25 0 0 0 21.75 4L21.25 4A0.25 0.25 0 0 0 21 4.25L21 4.75A0.25 0.25 0 0 1 20.75 5L20.25 5A0.25 0.25 0 0 1 20 4.75L20 4.25A0.25 0.25 0 0 0 19.75 4L19.25 4A0.25 0.25 0 0 0 19 4.25L19 6.75A0.25 0.25 0 0 0 19.25 7L19.75 7A0.25 0.25 0 0 0 20 6.75L20 6.25A0.25 0.25 0 0 1 20.25 6L20.75 6A0.25 0.25 0 0 1 21 6.25L21 7.75A0.25 0.25 0 0 0 21.25 8L21.75 8A0.25 0.25 0 0 1 22 8.25L22 8.75A0.25 0.25 0 0 1 21.75 9L20.25 9A0.25 0.25 0 0 1 20 8.75L20 8.25A0.25 0.25 0 0 0 19.75 8L18.25 8A0.25 0.25 0 0 0 18 8.25L18 8.75A0.25 0.25 0 0 1 17.75 9L17.25 9A0.25 0.25 0 0 1 17 8.75L17 7.25A0.25 0.25 0 0 1 17.25 7L17.75 7A0.25 0.25 0 0 0 18 6.75L18 3.25A0.25 0.25 0 0 1 18.25 3L19.75 3A0.25 0.25 0 0 0 20 2.75L20 2.25A0.25 0.25 0 0 0 19.75 2L19.25 2A0.25 0.25 0 0 1 19 1.75L19 1.25A0.25 0.25 0 0 0 18.75 1L18.25 1A0.25 0.25 0 0 0 18 1.25ZM23 4.25L23 4.75A0.25 0.25 0 0 0 23.25 5L24.75 5A0.25 0.25 0 0 0 25 4.75L25 4.25A0.25 0.25 0 0 0 24.75 4L23.25 4A0.25 0.25 0 0 0 23 4.25ZM9 5.25L9 6.75A0.25 0.25 0 0 0 9.25 7L9.75 7A0.25 0.25 0 0 1 10 7.25L10 7.75A0.25 0.25 0 0 0 10.25 8L10.75 8A0.25 0.25 0 0 1 11 8.25L11 8.75A0.25 0.25 0 0 0 11.25 9L11.75 9A0.25 0.25 0 0 0 12 8.75L12 8.25A0.25 0.25 0 0 0 11.75 8L11.25 8A0.25 0.25 0 0 1 11 7.75L11 7.25A0.25 0.25 0 0 0 10.75 7L10.25 7A0.25 0.25 0 0 1 10 6.75L10 5.25A0.25 0.25 0 0 0 9.75 5L9.25 5A0.25 0.25 0 0 0 9 5.25ZM16 6.25L16 6.75A0.25 0.25 0 0 0 16.25 7L16.75 7A0.25 0.25 0 0 0 17 6.75L17 6.25A0.25 0.25 0 0 0 16.75 6L16.25 6A0.25 0.25 0 0 0 16 6.25ZM23 6.25L23 6.75A0.25 0.25 0 0 0 23.25 7L23.75 7A0.25 0.25 0 0 0 24 6.75L24 6.25A0.25 0.25 0 0 0 23.75 6L23.25 6A0.25 0.25 0 0 0 23 6.25ZM26 8.25L26 8.75A0.25 0.25 0 0 0 26.25 9L26.75 9A0.25 0.25 0 0 0 27 8.75L27 8.25A0.25 0.25 0 0 0 26.75 8L26.25 8A0.25 0.25 0 0 0 26 8.25ZM3 9.25L3 9.75A0.25 0.25 0 0 0 3.25 10L4.75 10A0.25 0.25 0 0 0 5 9.75L5 9.25A0.25 0.25 0 0 0 4.75 9L3.25 9A0.25 0.25 0 0 0 3 9.25ZM12 10.25L12 10.75A0.25 0.25 0 0 0 12.25 11L12.75 11A0.25 0.25 0 0 0 13 10.75L13 10.25A0.25 0.25 0 0 0 12.75 10L12.25 10A0.25 0.25 0 0 0 12 10.25ZM28 11.25L28 11.75A0.25 0.25 0 0 0 28.25 12L28.75 12A0.25 0.25 0 0 0 29 11.75L29 11.25A0.25 0.25 0 0 0 28.75 11L28.25 11A0.25 0.25 0 0 0 28 11.25ZM31 11.25L31 12.75A0.25 0.25 0 0 0 31.25 13L31.75 13A0.25 0.25 0 0 1 32 13.25L32 13.75A0.25 0.25 0 0 0 32.25 14L32.75 14A0.25 0.25 0 0 0 33 13.75L33 13.25A0.25 0.25 0 0 0 32.75 13L32.25 13A0.25 0.25 0 0 1 32 12.75L32 11.25A0.25 0.25 0 0 0 31.75 11L31.25 11A0.25 0.25 0 0 0 31 11.25ZM2 14.25L2 14.75A0.25 0.25 0 0 0 2.25 15L2.75 15A0.25 0.25 0 0 0 3 14.75L3 14.25A0.25 0.25 0 0 0 2.75 14L2.25 14A0.25 0.25 0 0 0 2 14.25ZM13 18.25L13 18.75A0.25 0.25 0 0 1 12.75 19L12.25 19A0.25 0.25 0 0 0 12 19.25L12 21.75A0.25 0.25 0 0 0 12.25 22L12.75 22A0.25 0.25 0 0 0 13 21.75L13 19.25A0.25 0.25 0 0 1 13.25 19L13.75 19A0.25 0.25 0 0 0 14 18.75L14 18.25A0.25 0.25 0 0 0 13.75 18L13.25 18A0.25 0.25 0 0 0 13 18.25ZM35 18.25L35 18.75A0.25 0.25 0 0 0 35.25 19L35.75 19A0.25 0.25 0 0 1 36 19.25L36 19.75A0.25 0.25 0 0 0 36.25 20L36.75 20A0.25 0.25 0 0 0 37 19.75L37 18.25A0.25 0.25 0 0 0 36.75 18L35.25 18A0.25 0.25 0 0 0 35 18.25ZM8 19.25L8 19.75A0.25 0.25 0 0 1 7.75 20L6.25 20A0.25 0.25 0 0 0 6 20.25L6 20.75A0.25 0.25 0 0 0 6.25 21L6.75 21A0.25 0.25 0 0 1 7 21.25L7 21.75A0.25 0.25 0 0 0 7.25 22L7.75 22A0.25 0.25 0 0 0 8 21.75L8 20.25A0.25 0.25 0 0 1 8.25 20L8.75 20A0.25 0.25 0 0 0 9 19.75L9 19.25A0.25 0.25 0 0 0 8.75 19L8.25 19A0.25 0.25 0 0 0 8 19.25ZM10 19.25L10 20.75A0.25 0.25 0 0 1 9.75 21L9.25 21A0.25 0.25 0 0 0 9 21.25L9 21.75A0.25 0.25 0 0 0 9.25 22L9.75 22A0.25 0.25 0 0 0 10 21.75L10 21.25A0.25 0.25 0 0 1 10.25 21L10.75 21A0.25 0.25 0 0 0 11 20.75L11 19.25A0.25 0.25 0 0 0 10.75 19L10.25 19A0.25 0.25 0 0 0 10 19.25ZM36 21.25L36 21.75A0.25 0.25 0 0 1 35.75 22L35.25 22A0.25 0.25 0 0 0 35 22.25L35 23.75A0.25 0.25 0 0 1 34.75 24L34.25 24A0.25 0.25 0 0 1 34 23.75L34 23.25A0.25 0.25 0 0 0 33.75 23L33.25 23A0.25 0.25 0 0 0 33 23.25L33 24.75A0.25 0.25 0 0 0 33.25 25L34.75 25A0.25 0.25 0 0 1 35 25.25L35 25.75A0.25 0.25 0 0 0 35.25 26L35.75 26A0.25 0.25 0 0 1 36 26.25L36 26.75A0.25 0.25 0 0 0 36.25 27L36.75 27A0.25 0.25 0 0 0 37 26.75L37 26.25A0.25 0.25 0 0 0 36.75 26L36.25 26A0.25 0.25 0 0 1 36 25.75L36 25.25A0.25 0.25 0 0 1 36.25 25L36.75 25A0.25 0.25 0 0 0 37 24.75L37 24.25A0.25 0.25 0 0 0 36.75 24L36.25 24A0.25 0.25 0 0 1 36 23.75L36 23.25A0.25 0.25 0 0 1 36.25 23L36.75 23A0.25 0.25 0 0 0 37 22.75L37 21.25A0.25 0.25 0 0 0 36.75 21L36.25 21A0.25 0.25 0 0 0 36 21.25ZM0 22.25L0 23.75A0.25 0.25 0 0 0 0.25 24L0.75 24A0.25 0.25 0 0 0 1 23.75L1 22.25A0.25 0.25 0 0 0 0.75 22L0.25 22A0.25 0.25 0 0 0 0 22.25ZM4 22.25L4 22.75A0.25 0.25 0 0 0 4.25 23L4.75 23A0.25 0.25 0 0 0 5 22.75L5 22.25A0.25 0.25 0 0 0 4.75 22L4.25 22A0.25 0.25 0 0 0 4 22.25ZM15 24.25L15 24.75A0.25 0.25 0 0 0 15.25 25L15.75 25A0.25 0.25 0 0 1 16 25.25L16 26.75A0.25 0.25 0 0 0 16.25 27L17.75 27A0.25 0.25 0 0 0 18 26.75L18 26.25A0.25 0.25 0 0 0 17.75 26L17.25 26A0.25 0.25 0 0 1 17 25.75L17 25.25A0.25 0.25 0 0 0 16.75 25L16.25 25A0.25 0.25 0 0 1 16 24.75L16 24.25A0.25 0.25 0 0 0 15.75 24L15.25 24A0.25 0.25 0 0 0 15 24.25ZM35 24.25L35 24.75A0.25 0.25 0 0 0 35.25 25L35.75 25A0.25 0.25 0 0 0 36 24.75L36 24.25A0.25 0.25 0 0 0 35.75 24L35.25 24A0.25 0.25 0 0 0 35 24.25ZM0 25.25L0 28.75A0.25 0.25 0 0 0 0.25 29L0.75 29A0.25 0.25 0 0 0 1 28.75L1 25.25A0.25 0.25 0 0 0 0.75 25L0.25 25A0.25 0.25 0 0 0 0 25.25ZM13 25.25L13 25.75A0.25 0.25 0 0 0 13.25 26L13.75 26A0.25 0.25 0 0 0 14 25.75L14 25.25A0.25 0.25 0 0 0 13.75 25L13.25 25A0.25 0.25 0 0 0 13 25.25ZM23 25.25L23 26.75A0.25 0.25 0 0 1 22.75 27L21.25 27A0.25 0.25 0 0 0 21 27.25L21 28.75A0.25 0.25 0 0 1 20.75 29L20.25 29A0.25 0.25 0 0 0 20 29.25L20 29.75A0.25 0.25 0 0 0 20.25 30L20.75 30A0.25 0.25 0 0 1 21 30.25L21 30.75A0.25 0.25 0 0 0 21.25 31L21.75 31A0.25 0.25 0 0 1 22 31.25L22 32.75A0.25 0.25 0 0 1 21.75 33L20.25 33A0.25 0.25 0 0 1 20 32.75L20 31.25A0.25 0.25 0 0 0 19.75 31L19.25 31A0.25 0.25 0 0 1 19 30.75L19 30.25A0.25 0.25 0 0 0 18.75 30L18.25 30A0.25 0.25 0 0 1 18 29.75L18 28.25A0.25 0.25 0 0 0 17.75 28L17.25 28A0.25 0.25 0 0 0 17 28.25L17 29.75A0.25 0.25 0 0 1 16.75 30L16.25 30A0.25 0.25 0 0 0 16 30.25L16 30.75A0.25 0.25 0 0 0 16.25 31L17.75 31A0.25 0.25 0 0 1 18 31.25L18 31.75A0.25 0.25 0 0 1 17.75 32L17.25 32A0.25 0.25 0 0 0 17 32.25L17 32.75A0.25 0.25 0 0 0 17.25 33L17.75 33A0.25 0.25 0 0 1 18 33.25L18 35.75A0.25 0.25 0 0 0 18.25 36L18.75 36A0.25 0.25 0 0 0 19 35.75L19 35.25A0.25 0.25 0 0 1 19.25 35L19.75 35A0.25 0.25 0 0 0 20 34.75L20 34.25A0.25 0.25 0 0 1 20.25 34L24.75 34A0.25 0.25 0 0 1 25 34.25L25 34.75A0.25 0.25 0 0 1 24.75 35L24.25 35A0.25 0.25 0 0 0 24 35.25L24 35.75A0.25 0.25 0 0 0 24.25 36L26.75 36A0.25 0.25 0 0 0 27 35.75L27 35.25A0.25 0.25 0 0 1 27.25 35L27.75 35A0.25 0.25 0 0 0 28 34.75L28 34.25A0.25 0.25 0 0 1 28.25 34L29.75 34A0.25 0.25 0 0 1 30 34.25L30 34.75A0.25 0.25 0 0 1 29.75 35L29.25 35A0.25 0.25 0 0 0 29 35.25L29 35.75A0.25 0.25 0 0 0 29.25 36L29.75 36A0.25 0.25 0 0 0 30 35.75L30 35.25A0.25 0.25 0 0 1 30.25 35L30.75 35A0.25 0.25 0 0 1 31 35.25L31 35.75A0.25 0.25 0 0 0 31.25 36L31.75 36A0.25 0.25 0 0 0 32 35.75L32 35.25A0.25 0.25 0 0 1 32.25 35L32.75 35A0.25 0.25 0 0 0 33 34.75L33 34.25A0.25 0.25 0 0 0 32.75 34L32.25 34A0.25 0.25 0 0 1 32 33.75L32 33.25A0.25 0.25 0 0 0 31.75 33L31.25 33A0.25 0.25 0 0 0 31 33.25L31 33.75A0.25 0.25 0 0 1 30.75 34L30.25 34A0.25 0.25 0 0 1 30 33.75L30 33.25A0.25 0.25 0 0 0 29.75 33L26.25 33A0.25 0.25 0 0 0 26 33.25L26 33.75A0.25 0.25 0 0 1 25.75 34L25.25 34A0.25 0.25 0 0 1 25 33.75L25 33.25A0.25 0.25 0 0 0 24.75 33L24.25 33A0.25 0.25 0 0 1 24 32.75L24 32.25A0.25 0.25 0 0 0 23.75 32L23.25 32A0.25 0.25 0 0 1 23 31.75L23 31.25A0.25 0.25 0 0 1 23.25 31L24.75 31A0.25 0.25 0 0 1 25 31.25L25 31.75A0.25 0.25 0 0 0 25.25 32L25.75 32A0.25 0.25 0 0 0 26 31.75L26 31.25A0.25 0.25 0 0 1 26.25 31L27.75 31A0.25 0.25 0 0 0 28 30.75L28 30.25A0.25 0.25 0 0 0 27.75 30L27.25 30A0.25 0.25 0 0 1 27 29.75L27 29.25A0.25 0.25 0 0 0 26.75 29L24.25 29A0.25 0.25 0 0 1 24 28.75L24 27.25A0.25 0.25 0 0 1 24.25 27L24.75 27A0.25 0.25 0 0 1 25 27.25L25 27.75A0.25 0.25 0 0 0 25.25 28L28.75 28A0.25 0.25 0 0 0 29 27.75L29 27.25A0.25 0.25 0 0 1 29.25 27L29.75 27A0.25 0.25 0 0 0 30 26.75L30 26.25A0.25 0.25 0 0 0 29.75 26L29.25 26A0.25 0.25 0 0 0 29 26.25L29 26.75A0.25 0.25 0 0 1 28.75 27L26.25 27A0.25 0.25 0 0 1 26 26.75L26 26.25A0.25 0.25 0 0 0 25.75 26L24.25 26A0.25 0.25 0 0 1 24 25.75L24 25.25A0.25 0.25 0 0 0 23.75 25L23.25 25A0.25 0.25 0 0 0 23 25.25ZM6 27.25L6 27.75A0.25 0.25 0 0 0 6.25 28L6.75 28A0.25 0.25 0 0 0 7 27.75L7 27.25A0.25 0.25 0 0 0 6.75 27L6.25 27A0.25 0.25 0 0 0 6 27.25ZM13 28.25L13 28.75A0.25 0.25 0 0 1 12.75 29L12.25 29A0.25 0.25 0 0 0 12 29.25L12 29.75A0.25 0.25 0 0 0 12.25 30L12.75 30A0.25 0.25 0 0 0 13 29.75L13 29.25A0.25 0.25 0 0 1 13.25 29L13.75 29A0.25 0.25 0 0 0 14 28.75L14 28.25A0.25 0.25 0 0 0 13.75 28L13.25 28A0.25 0.25 0 0 0 13 28.25ZM36 28.25L36 28.75A0.25 0.25 0 0 0 36.25 29L36.75 29A0.25 0.25 0 0 0 37 28.75L37 28.25A0.25 0.25 0 0 0 36.75 28L36.25 28A0.25 0.25 0 0 0 36 28.25ZM21 29.25L21 29.75A0.25 0.25 0 0 0 21.25 30L21.75 30A0.25 0.25 0 0 1 22 30.25L22 30.75A0.25 0.25 0 0 0 22.25 31L22.75 31A0.25 0.25 0 0 0 23 30.75L23 30.25A0.25 0.25 0 0 0 22.75 30L22.25 30A0.25 0.25 0 0 1 22 29.75L22 29.25A0.25 0.25 0 0 0 21.75 29L21.25 29A0.25 0.25 0 0 0 21 29.25ZM29 29.25L29 31.75A0.25 0.25 0 0 0 29.25 32L31.75 32A0.25 0.25 0 0 0 32 31.75L32 29.25A0.25 0.25 0 0 0 31.75 29L29.25 29A0.25 0.25 0 0 0 29 29.25ZM30 30.25L30 30.75A0.25 0.25 0 0 0 30.25 31L30.75 31A0.25 0.25 0 0 0 31 30.75L31 30.25A0.25 0.25 0 0 0 30.75 30L30.25 30A0.25 0.25 0 0 0 30 30.25ZM18 32.25L18 32.75A0.25 0.25 0 0 0 18.25 33L18.75 33A0.25 0.25 0 0 1 19 33.25L19 33.75A0.25 0.25 0 0 0 19.25 34L19.75 34A0.25 0.25 0 0 0 20 33.75L20 33.25A0.25 0.25 0 0 0 19.75 33L19.25 33A0.25 0.25 0 0 1 19 32.75L19 32.25A0.25 0.25 0 0 0 18.75 32L18.25 32A0.25 0.25 0 0 0 18 32.25ZM9 33.25L9 33.75A0.25 0.25 0 0 0 9.25 34L9.75 34A0.25 0.25 0 0 0 10 33.75L10 33.25A0.25 0.25 0 0 0 9.75 33L9.25 33A0.25 0.25 0 0 0 9 33.25ZM16 34.25L16 35.75A0.25 0.25 0 0 0 16.25 36L16.75 36A0.25 0.25 0 0 0 17 35.75L17 34.25A0.25 0.25 0 0 0 16.75 34L16.25 34A0.25 0.25 0 0 0 16 34.25ZM31 34.25L31 34.75A0.25 0.25 0 0 0 31.25 35L31.75 35A0.25 0.25 0 0 0 32 34.75L32 34.25A0.25 0.25 0 0 0 31.75 34L31.25 34A0.25 0.25 0 0 0 31 34.25ZM36 34.25L36 35.75A0.25 0.25 0 0 1 35.75 36L34.25 36A0.25 0.25 0 0 0 34 36.25L34 36.75A0.25 0.25 0 0 0 34.25 37L36.75 37A0.25 0.25 0 0 0 37 36.75L37 34.25A0.25 0.25 0 0 0 36.75 34L36.25 34A0.25 0.25 0 0 0 36 34.25ZM0 0.25L0 6.75A0.25 0.25 0 0 0 0.25 7L6.75 7A0.25 0.25 0 0 0 7 6.75L7 0.25A0.25 0.25 0 0 0 6.75 0L0.25 0A0.25 0.25 0 0 0 0 0.25ZM1 1.25L1 5.75A0.25 0.25 0 0 0 1.25 6L5.75 6A0.25 0.25 0 0 0 6 5.75L6 1.25A0.25 0.25 0 0 0 5.75 1L1.25 1A0.25 0.25 0 0 0 1 1.25ZM2 2.25L2 4.75A0.25 0.25 0 0 0 2.25 5L4.75 5A0.25 0.25 0 0 0 5 4.75L5 2.25A0.25 0.25 0 0 0 4.75 2L2.25 2A0.25 0.25 0 0 0 2 2.25ZM30 0.25L30 6.75A0.25 0.25 0 0 0 30.25 7L36.75 7A0.25 0.25 0 0 0 37 6.75L37 0.25A0.25 0.25 0 0 0 36.75 0L30.25 0A0.25 0.25 0 0 0 30 0.25ZM31 1.25L31 5.75A0.25 0.25 0 0 0 31.25 6L35.75 6A0.25 0.25 0 0 0 36 5.75L36 1.25A0.25 0.25 0 0 0 35.75 1L31.25 1A0.25 0.25 0 0 0 31 1.25ZM32 2.25L32 4.75A0.25 0.25 0 0 0 32.25 5L34.75 5A0.25 0.25 0 0 0 35 4.75L35 2.25A0.25 0.25 0 0 0 34.75 2L32.25 2A0.25 0.25 0 0 0 32 2.25ZM0 30.25L0 36.75A0.25 0.25 0 0 0 0.25 37L6.75 37A0.25 0.25 0 0 0 7 36.75L7 30.25A0.25 0.25 0 0 0 6.75 30L0.25 30A0.25 0.25 0 0 0 0 30.25ZM1 31.25L1 35.75A0.25 0.25 0 0 0 1.25 36L5.75 36A0.25 0.25 0 0 0 6 35.75L6 31.25A0.25 0.25 0 0 0 5.75 31L1.25 31A0.25 0.25 0 0 0 1 31.25ZM2 32.25L2 34.75A0.25 0.25 0 0 0 2.25 35L4.75 35A0.25 0.25 0 0 0 5 34.75L5 32.25A0.25 0.25 0 0 0 4.75 32L2.25 32A0.25 0.25 0 0 0 2 32.25Z" fill="#000000"/></g></g></svg>
