<?xml version="1.0" encoding="UTF-8"?>
<svg xmlns="http://www.w3.org/2000/svg" version="1.1" width="500" height="500" viewBox="0 0 500 500"><rect x="0" y="0" width="500" height="500" fill="#ffffff"/><g transform="scale(15.152)"><g transform="translate(0,0)"><path fill-rule="evenodd" d="M8 0.25L8 0.75A0.25 0.25 0 0 0 8.25 1L8.75 1A0.25 0.25 0 0 1 9 1.25L9 1.75A0.25 0.25 0 0 1 8.75 2L8.25 2A0.25 0.25 0 0 0 8 2.25L8 2.75A0.25 0.25 0 0 0 8.25 3L8.75 3A0.25 0.25 0 0 1 9 3.25L9 3.75A0.25 0.25 0 0 1 8.75 4L8.25 4A0.25 0.25 0 0 0 8 4.25L8 4.75A0.25 0.25 0 0 0 8.25 5L8.75 5A0.25 0.25 0 0 0 9 4.75L9 4.25A0.25 0.25 0 0 1 9.25 4L9.75 4A0.25 0.25 0 0 1 10 4.25L10 6.75A0.25 0.25 0 0 0 10.25 7L10.75 7A0.25 0.25 0 0 0 11 6.75L11 6.25A0.25 0.25 0 0 1 11.25 6L11.75 6A0.25 0.25 0 0 1 12 6.25L12 6.75A0.25 0.25 0 0 0 12.25 7L12.75 7A0.25 0.25 0 0 1 13 7.25L13 7.75A0.25 0.25 0 0 0 13.25 8L13.75 8A0.25 0.25 0 0 0 14 7.75L14 7.25A0.25 0.25 0 0 1 14.25 7L14.75 7A0.25 0.25 0 0 1 15 7.25L15 7.75A0.25 0.25 0 0 0 15.25 8L15.75 8A0.25 0.25 0 0 0 16 7.75L16 7.25A0.25 0.25 0 0 1 16.25 7L16.75 7A0.25 0.25 0 0 1 17 7.25L17 8.75A0.25 0.25 0 0 1 16.75 9L14.25 9A0.25 0.25 0 0 0 14 9.25L14 9.75A0.25 0.25 0 0 1 13.75 10L12.25 10A0.25 0.25 0 0 1 12 9.75L12 9.25A0.25 0.25 0 0 0 11.75 9L11.25 9A0.25 0.25 0 0 1 11 8.75L11 8.25A0.25 0.25 0 0 0 10.75 8L10.25 8A0.25 0.25 0 0 0 10 8.25L10 8.75A0.25 0.25 0 0 1 9.75 9L8.25 9A0.25 0.25 0 0 0 8 9.25L8 9.75A0.25 0.25 0 0 1 7.75 10L6.25 10A0.25 0.25 0 0 1 6 9.75L6 9.25A0.25 0.25 0 0 1 6.25 9L6.75 9A0.25 0.25 0 0 0 7 8.75L7 8.25A0.25 0.25 0 0 0 6.75 8L5.25 8A0.25 0.25 0 0 0 5 8.25L5 9.75A0.25 0.25 0 0 1 4.75 10L4.25 10A0.25 0.25 0 0 1 4 9.75L4 9.25A0.25 0.25 0 0 0 3.75 9L2.25 9A0.25 0.25 0 0 0 2 9.25L2 9.75A0.25 0.25 0 0 1 1.75 10L1.25 10A0.25 0.25 0 0 0 1 10.25L1 10.75A0.25 0.25 0 0 0 1.25 11L1.75 11A0.25 0.25 0 0 1 2 11.25L2 12.75A0.25 0.25 0 0 0 2.25 13L2.75 13A0.25 0.25 0 0 1 3 13.25L3 13.75A0.25 0.25 0 0 1 2.75 14L2.25 14A0.25 0.25 0 0 0 2 14.25L2 14.75A0.25 0.25 0 0 0 2.25 15L2.75 15A0.25 0.25 0 0 1 3 15.25L3 15.75A0.25 0.25 0 0 0 3.25 16L4.75 16A0.25 0.25 0 0 1 5 16.25L5 17.75A0.25 0.25 0 0 1 4.75 18L4.25 18A0.25 0.25 0 0 0 4 18.25L4 20.75A0.25 0.25 0 0 0 4.25 21L4.75 21A0.25 0.25 0 0 0 5 20.75L5 20.25A0.25 0.25 0 0 1 5.25 20L5.75 20A0.25 0.25 0 0 1 6 20.25L6 20.75A0.25 0.25 0 0 0 6.25 21L6.75 21A0.25 0.25 0 0 1 7 21.25L7 21.75A0.25 0.25 0 0 1 6.75 22L5.25 22A0.25 0.25 0 0 0 5 22.25L5 22.75A0.25 0.25 0 0 1 4.75 23L4.25 23A0.25 0.25 0 0 1 4 22.75L4 22.25A0.25 0.25 0 0 0 3.75 22L2.25 22A0.25 0.25 0 0 0 2 22.25L2 23.75A0.25 0.25 0 0 1 1.75 24L1.25 24A0.25 0.25 0 0 1 1 23.75L1 21.25A0.25 0.25 0 0 1 1.25 21L1.75 21A0.25 0.25 0 0 0 2 20.75L2 20.25A0.25 0.25 0 0 1 2.25 20L2.75 20A0.25 0.25 0 0 0 3 19.75L3 19.25A0.25 0.25 0 0 0 2.75 19L1.25 19A0.25 0.25 0 0 1 1 18.75L1 18.25A0.25 0.25 0 0 1 1.25 18L1.75 18A0.25 0.25 0 0 0 2 17.75L2 16.25A0.25 0.25 0 0 0 1.75 16L0.25 16A0.25 0.25 0 0 0 0 16.25L0 16.75A0.25 0.25 0 0 0 0.25 17L0.75 17A0.25 0.25 0 0 1 1 17.25L1 17.75A0.25 0.25 0 0 1 0.75 18L0.25 18A0.25 0.25 0 0 0 0 18.25L0 18.75A0.25 0.25 0 0 0 0.25 19L0.75 19A0.25 0.25 0 0 1 1 19.25L1 20.75A0.25 0.25 0 0 1 0.75 21L0.25 21A0.25 0.25 0 0 0 0 21.25L0 24.75A0.25 0.25 0 0 0 0.25 25L4.75 25A0.25 0.25 0 0 0 5 24.75L5 23.25A0.25 0.25 0 0 1 5.25 23L6.75 23A0.25 0.25 0 0 0 7 22.75L7 22.25A0.25 0.25 0 0 1 7.25 22L8.75 22A0.25 0.25 0 0 1 9 22.25L9 23.75A0.25 0.25 0 0 1 8.75 24L6.25 24A0.25 0.25 0 0 0 6 24.25L6 24.75A0.25 0.25 0 0 0 6.25 25L7.75 25A0.25 0.25 0 0 1 8 25.25L8 25.75A0.25 0.25 0 0 0 8.25 26L9.75 26A0.25 0.25 0 0 1 10 26.25L10 26.75A0.25 0.25 0 0 0 10.25 27L11.75 27A0.25 0.25 0 0 1 12 27.25L12 27.75A0.25 0.25 0 0 1 11.75 28L10.25 28A0.25 0.25 0 0 0 10 28.25L10 30.75A0.25 0.25 0 0 0 10.25 31L11.75 31A0.25 0.25 0 0 0 12 30.75L12 29.25A0.25 0.25 0 0 1 12.25 29L12.75 29A0.25 0.25 0 0 0 13 28.75L13 27.25A0.25 0.25 0 0 1 13.25 27L13.75 27A0.25 0.25 0 0 1 14 27.25L14 30.75A0.25 0.25 0 0 1 13.75 31L13.25 31A0.25 0.25 0 0 0 13 31.25L13 31.75A0.25 0.25 0 0 1 12.75 32L9.25 32A0.25 0.25 0 0 0 9 32.25L9 32.75A0.25 0.25 0 0 0 9.25 33L12.75 33A0.25 0.25 0 0 0 13 32.75L13 32.25A0.25 0.25 0 0 1 13.25 32L13.75 32A0.25 0.25 0 0 1 14 32.25L14 32.75A0.25 0.25 0 0 0 14.25 33L14.75 33A0.25 0.25 0 0 0 15 32.75L15 32.25A0.25 0.25 0 0 0 14.75 32L14.25 32A0.25 0.25 0 0 1 14 31.75L14 31.25A0.25 0.25 0 0 1 14.25 31L14.75 31A0.25 0.25 0 0 0 15 30.75L15 29.25A0.25 0.25 0 0 1 15.25 29L15.75 29A0.25 0.25 0 0 1 16 29.25L16 32.75A0.25 0.25 0 0 0 16.25 33L18.75 33A0.25 0.25 0 0 0 19 32.75L19 32.25A0.25 0.25 0 0 0 18.75 32L17.25 32A0.25 0.25 0 0 1 17 31.75L17 31.25A0.25 0.25 0 0 1 17.25 31L21.75 31A0.25 0.25 0 0 1 22 31.25L22 31.75A0.25 0.25 0 0 0 22.25 32L22.75 32A0.25 0.25 0 0 1 23 32.25L23 32.75A0.25 0.25 0 0 0 23.25 33L24.75 33A0.25 0.25 0 0 0 25 32.75L25 32.25A0.25 0.25 0 0 0 24.75 32L23.25 32A0.25 0.25 0 0 1 23 31.75L23 30.25A0.25 0.25 0 0 1 23.25 30L23.75 30A0.25 0.25 0 0 0 24 29.75L24 29.25A0.25 0.25 0 0 1 24.25 29L26.75 29A0.25 0.25 0 0 1 27 29.25L27 29.75A0.25 0.25 0 0 0 27.25 30L27.75 30A0.25 0.25 0 0 1 28 30.25L28 30.75A0.25 0.25 0 0 0 28.25 31L28.75 31A0.25 0.25 0 0 1 29 31.25L29 32.75A0.25 0.25 0 0 0 29.25 33L29.75 33A0.25 0.25 0 0 0 30 32.75L30 32.25A0.25 0.25 0 0 1 30.25 32L30.75 32A0.25 0.25 0 0 1 31 32.25L31 32.75A0.25 0.25 0 0 0 31.25 33L31.75 33A0.25 0.25 0 0 0 32 32.75L32 32.25A0.25 0.25 0 0 0 31.75 32L31.25 32A0.25 0.25 0 0 1 31 31.75L31 31.25A0.25 0.25 0 0 1 31.25 31L32.75 31A0.25 0.25 0 0 0 33 30.75L33 27.25A0.25 0.25 0 0 0 32.75 27L32.25 27A0.25 0.25 0 0 1 32 26.75L32 26.25A0.25 0.25 0 0 1 32.25 26L32.75 26A0.25 0.25 0 0 0 33 25.75L33 25.25A0.25 0.25 0 0 0 32.75 25L32.25 25A0.25 0.25 0 0 1 32 24.75L32 24.25A0.25 0.25 0 0 1 32.25 24L32.75 24A0.25 0.25 0 0 0 33 23.75L33 23.25A0.25 0.25 0 0 0 32.75 23L32.25 23A0.25 0.25 0 0 0 32 23.25L32 23.75A0.25 0.25 0 0 1 31.75 24L31.25 24A0.25 0.25 0 0 1 31 23.75L31 23.25A0.25 0.25 0 0 0 30.75 23L30.25 23A0.25 0.25 0 0 1 30 22.75L30 22.25A0.25 0.25 0 0 1 30.25 22L31.75 22A0.25 0.25 0 0 0 32 21.75L32 21.25A0.25 0.25 0 0 1 32.25 21L32.75 21A0.25 0.25 0 0 0 33 20.75L33 20.25A0.25 0.25 0 0 0 32.75 20L32.25 20A0.25 0.25 0 0 1 32 19.75L32 19.25A0.25 0.25 0 0 1 32.25 19L32.75 19A0.25 0.25 0 0 0 33 18.75L33 17.25A0.25 0.25 0 0 0 32.75 17L31.25 17A0.25 0.25 0 0 0 31 17.25L31 17.75A0.25 0.25 0 0 1 30.75 18L27.25 18A0.25 0.25 0 0 1 27 17.75L27 17.25A0.25 0.25 0 0 0 26.75 17L26.25 17A0.25 0.25 0 0 0 26 17.25L26 17.75A0.25 0.25 0 0 1 25.75 18L25.25 18A0.25 0.25 0 0 1 25 17.75L25 16.25A0.25 0.25 0 0 0 24.75 16L24.25 16A0.25 0.25 0 0 1 24 15.75L24 15.25A0.25 0.25 0 0 0 23.75 15L23.25 15A0.25 0.25 0 0 1 23 14.75L23 14.25A0.25 0.25 0 0 1 23.25 14L23.75 14A0.25 0.25 0 0 0 24 13.75L24 13.25A0.25 0.25 0 0 0 23.75 13L23.25 13A0.25 0.25 0 0 0 23 13.25L23 13.75A0.25 0.25 0 0 1 22.75 14L22.25 14A0.25 0.25 0 0 1 22 13.75L22 13.25A0.25 0.25 0 0 0 21.75 13L21.25 13A0.25 0.25 0 0 0 21 13.25L21 13.75A0.25 0.25 0 0 0 21.25 14L21.75 14A0.25 0.25 0 0 1 22 14.25L22 14.75A0.25 0.25 0 0 0 22.25 15L22.75 15A0.25 0.25 0 0 1 23 15.25L23 15.75A0.25 0.25 0 0 1 22.75 16L22.25 16A0.25 0.25 0 0 0 22 16.25L22 16.75A0.25 0.25 0 0 0 22.25 17L22.75 17A0.25 0.25 0 0 1 23 17.25L23 21.75A0.25 0.25 0 0 0 23.25 22L23.75 22A0.25 0.25 0 0 0 24 21.75L24 20.25A0.25 0.25 0 0 1 24.25 20L24.75 20A0.25 0.25 0 0 1 25 20.25L25 20.75A0.25 0.25 0 0 0 25.25 21L25.75 21A0.25 0.25 0 0 1 26 21.25L26 21.75A0.25 0.25 0 0 0 26.25 22L28.75 22A0.25 0.25 0 0 1 29 22.25L29 23.75A0.25 0.25 0 0 1 28.75 24L25.25 24A0.25 0.25 0 0 1 25 23.75L25 23.25A0.25 0.25 0 0 0 24.75 23L23.25 23A0.25 0.25 0 0 0 23 23.25L23 24.75A0.25 0.25 0 0 0 23.25 25L23.75 25A0.25 0.25 0 0 1 24 25.25L24 25.75A0.25 0.25 0 0 1 23.75 26L23.25 26A0.25 0.25 0 0 0 23 26.25L23 27.75A0.25 0.25 0 0 0 23.25 28L23.75 28A0.25 0.25 0 0 1 24 28.25L24 28.75A0.25 0.25 0 0 1 23.75 29L23.25 29A0.25 0.25 0 0 0 23 29.25L23 29.75A0.25 0.25 0 0 1 22.75 30L21.25 30A0.25 0.25 0 0 1 21 29.75L21 29.25A0.25 0.25 0 0 1 21.25 29L21.75 29A0.25 0.25 0 0 0 22 28.75L22 28.25A0.25 0.25 0 0 0 21.75 28L21.25 28A0.25 0.25 0 0 1 21 27.75L21 27.25A0.25 0.25 0 0 1 21.25 27L21.75 27A0.25 0.25 0 0 0 22 26.75L22 24.25A0.25 0.25 0 0 0 21.75 24L21.25 24A0.25 0.25 0 0 1 21 23.75L21 22.25A0.25 0.25 0 0 1 21.25 22L21.75 22A0.25 0.25 0 0 0 22 21.75L22 21.25A0.25 0.25 0 0 0 21.75 21L21.25 21A0.25 0.25 0 0 1 21 20.75L21 20.25A0.25 0.25 0 0 0 20.75 20L20.25 20A0.25 0.25 0 0 0 20 20.25L20 22.75A0.25 0.25 0 0 1 19.75 23L19.25 23A0.25 0.25 0 0 1 19 22.75L19 22.25A0.25 0.25 0 0 0 18.75 22L14.25 22A0.25 0.25 0 0 0 14 22.25L14 22.75A0.25 0.25 0 0 0 14.25 23L15.75 23A0.25 0.25 0 0 1 16 23.25L16 23.75A0.25 0.25 0 0 1 15.75 24L14.25 24A0.25 0.25 0 0 0 14 24.25L14 24.75A0.25 0.25 0 0 1 13.75 25L13.25 25A0.25 0.25 0 0 0 13 25.25L13 26.75A0.25 0.25 0 0 1 12.75 27L12.25 27A0.25 0.25 0 0 1 12 26.75L12 26.25A0.25 0.25 0 0 0 11.75 26L11.25 26A0.25 0.25 0 0 1 11 25.75L11 24.25A0.25 0.25 0 0 1 11.25 24L11.75 24A0.25 0.25 0 0 0 12 23.75L12 23.25A0.25 0.25 0 0 1 12.25 23L12.75 23A0.25 0.25 0 0 0 13 22.75L13 20.25A0.25 0.25 0 0 0 12.75 20L12.25 20A0.25 0.25 0 0 1 12 19.75L12 19.25A0.25 0.25 0 0 0 11.75 19L11.25 19A0.25 0.25 0 0 1 11 18.75L11 18.25A0.25 0.25 0 0 1 11.25 18L11.75 18A0.25 0.25 0 0 0 12 17.75L12 17.25A0.25 0.25 0 0 1 12.25 17L12.75 17A0.25 0.25 0 0 0 13 16.75L13 16.25A0.25 0.25 0 0 1 13.25 16L13.75 16A0.25 0.25 0 0 1 14 16.25L14 16.75A0.25 0.25 0 0 0 14.25 17L14.75 17A0.25 0.25 0 0 1 15 17.25L15 17.75A0.25 0.25 0 0 1 14.75 18L13.25 18A0.25 0.25 0 0 0 13 18.25L13 18.75A0.25 0.25 0 0 0 13.25 19L13.75 19A0.25 0.25 0 0 1 14 19.25L14 19.75A0.25 0.25 0 0 0 14.25 20L15.75 20A0.25 0.25 0 0 0 16 19.75L16 19.25A0.25 0.25 0 0 1 16.25 19L16.75 19A0.25 0.25 0 0 1 17 19.25L17 19.75A0.25 0.25 0 0 0 17.25 20L17.75 20A0.25 0.25 0 0 1 18 20.25L18 20.75A0.25 0.25 0 0 0 18.25 21L18.75 21A0.25 0.25 0 0 0 19 20.75L19 20.25A0.25 0.25 0 0 0 18.75 20L18.25 20A0.25 0.25 0 0 1 18 19.75L18 19.25A0.25 0.25 0 0 1 18.25 19L21.75 19A0.25 0.25 0 0 0 22 18.75L22 18.25A0.25 0.25 0 0 0 21.75 18L18.25 18A0.25 0.25 0 0 1 18 17.75L18 17.25A0.25 0.25 0 0 1 18.25 17L19.75 17A0.25 0.25 0 0 0 20 16.75L20 16.25A0.25 0.25 0 0 1 20.25 16L20.75 16A0.25 0.25 0 0 0 21 15.75L21 15.25A0.25 0.25 0 0 0 20.75 15L19.25 15A0.25 0.25 0 0 1 19 14.75L19 14.25A0.25 0.25 0 0 1 19.25 14L19.75 14A0.25 0.25 0 0 0 20 13.75L20 12.25A0.25 0.25 0 0 0 19.75 12L19.25 12A0.25 0.25 0 0 1 19 11.75L19 11.25A0.25 0.25 0 0 0 18.75 11L18.25 11A0.25 0.25 0 0 0 18 11.25L18 12.75A0.25 0.25 0 0 1 17.75 13L17.25 13A0.25 0.25 0 0 1 17 12.75L17 12.25A0.25 0.25 0 0 0 16.75 12L16.25 12A0.25 0.25 0 0 1 16 11.75L16 11.25A0.25 0.25 0 0 1 16.25 11L16.75 11A0.25 0.25 0 0 0 17 10.75L17 9.25A0.25 0.25 0 0 1 17.25 9L17.75 9A0.25 0.25 0 0 0 18 8.75L18 7.25A0.25 0.25 0 0 1 18.25 7L18.75 7A0.25 0.25 0 0 0 19 6.75L19 6.25A0.25 0.25 0 0 1 19.25 6L19.75 6A0.25 0.25 0 0 1 20 6.25L20 6.75A0.25 0.25 0 0 0 20.25 7L20.75 7A0.25 0.25 0 0 0 21 6.75L21 5.25A0.25 0.25 0 0 1 21.25 5L23.75 5A0.25 0.25 0 0 0 24 4.75L24 4.25A0.25 0.25 0 0 1 24.25 4L24.75 4A0.25 0.25 0 0 0 25 3.75L25 3.25A0.25 0.25 0 0 0 24.75 3L24.25 3A0.25 0.25 0 0 1 24 2.75L24 2.25A0.25 0.25 0 0 0 23.75 2L22.25 2A0.25 0.25 0 0 1 22 1.75L22 1.25A0.25 0.25 0 0 1 22.25 1L22.75 1A0.25 0.25 0 0 0 23 0.75L23 0.25A0.25 0.25 0 0 0 22.75 0L21.25 0A0.25 0.25 0 0 0 21 0.25L21 0.75A0.25 0.25 0 0 1 20.75 1L19.25 1A0.25 0.25 0 0 1 19 0.75L19 0.25A0.25 0.25 0 0 0 18.75 0L18.25 0A0.25 0.25 0 0 0 18 0.25L18 0.75A0.25 0.25 0 0 1 17.75 1L17.25 1A0.25 0.25 0 0 1 17 0.75L17 0.25A0.25 0.25 0 0 0 16.75 0L15.25 0A0.25 0.25 0 0 0 15 0.25L15 0.75A0.25 0.25 0 0 1 14.75 1L14.25 1A0.25 0.25 0 0 1 14 0.75L14 0.25A0.25 0.25 0 0 0 13.75 0L10.25 0A0.25 0.25 0 0 0 10 0.25L10 0.75A0.25 0.25 0 0 1 9.75 1L9.25 1A0.25 0.25 0 0 1 9 0.75L9 0.25A0.25 0.25 0 0 0 8.75 0L8.25 0A0.25 0.25 0 0 0 8 0.25ZM24 0.25L24 0.75A0.25 0.25 0 0 0 24.25 1L24.75 1A0.25 0.25 0 0 0 25 0.75L25 0.25A0.25 0.25 0 0 0 24.75 0L24.25 0A0.25 0.25 0 0 0 24 0.25ZM10 1.25L10 1.75A0.25 0.25 0 0 0 10.25 2L10.75 2A0.25 0.25 0 0 1 11 2.25L11 2.75A0.25 0.25 0 0 1 10.75 3L10.25 3A0.25 0.25 0 0 0 10 3.25L10 3.75A0.25 0.25 0 0 0 10.25 4L10.75 4A0.25 0.25 0 0 1 11 4.25L11 4.75A0.25 0.25 0 0 0 11.25 5L12.75 5A0.25 0.25 0 0 1 13 5.25L13 6.75A0.25 0.25 0 0 0 13.25 7L13.75 7A0.25 0.25 0 0 0 14 6.75L14 5.25A0.25 0.25 0 0 1 14.25 5L17.75 5A0.25 0.25 0 0 0 18 4.75L18 4.25A0.25 0.25 0 0 0 17.75 4L17.25 4A0.25 0.25 0 0 1 17 3.75L17 1.25A0.25 0.25 0 0 0 16.75 1L16.25 1A0.25 0.25 0 0 0 16 1.25L16 1.75A0.25 0.25 0 0 1 15.75 2L15.25 2A0.25 0.25 0 0 0 15 2.25L15 2.75A0.25 0.25 0 0 1 14.75 3L14.25 3A0.25 0.25 0 0 1 14 2.75L14 2.25A0.25 0.25 0 0 0 13.75 2L13.25 2A0.25 0.25 0 0 1 13 1.75L13 1.25A0.25 0.25 0 0 0 12.75 1L12.25 1A0.25 0.25 0 0 0 12 1.25L12 1.75A0.25 0.25 0 0 1 11.75 2L11.25 2A0.25 0.25 0 0 1 11 1.75L11 1.25A0.25 0.25 0 0 0 10.75 1L10.25 1A0.25 0.25 0 0 0 10 1.25ZM18 2.25L18 2.75A0.25 0.25 0 0 0 18.25 3L18.75 3A0.25 0.25 0 0 1 19 3.25L19 4.75A0.25 0.25 0 0 0 19.25 5L20.75 5A0.25 0.25 0 0 0 21 4.75L21 4.25A0.25 0.25 0 0 0 20.75 4L20.25 4A0.25 0.25 0 0 1 20 3.75L20 2.25A0.25 0.25 0 0 0 19.75 2L18.25 2A0.25 0.25 0 0 0 18 2.25ZM12 3.25L12 3.75A0.25 0.25 0 0 0 12.25 4L12.75 4A0.25 0.25 0 0 1 13 4.25L13 4.75A0.25 0.25 0 0 0 13.25 5L13.75 5A0.25 0.25 0 0 0 14 4.75L14 4.25A0.25 0.25 0 0 0 13.75 4L13.25 4A0.25 0.25 0 0 1 13 3.75L13 3.25A0.25 0.25 0 0 0 12.75 3L12.25 3A0.25 0.25 0 0 0 12 3.25ZM15 3.25L15 3.75A0.25 0.25 0 0 0 15.25 4L15.75 4A0.25 0.25 0 0 0 16 3.75L16 3.25A0.25 0.25 0 0 0 15.75 3L15.25 3A0.25 0.25 0 0 0 15 3.25ZM22 3.25L22 3.75A0.25 0.25 0 0 0 22.25 4L22.75 4A0.25 0.25 0 0 0 23 3.75L23 3.25A0.25 0.25 0 0 0 22.75 3L22.25 3A0.25 0.25 0 0 0 22 3.25ZM8 6.25L8 7.75A0.25 0.25 0 0 0 8.25 8L8.75 8A0.25 0.25 0 0 0 9 7.75L9 6.25A0.25 0.25 0 0 0 8.75 6L8.25 6A0.25 0.25 0 0 0 8 6.25ZM15 6.25L15 6.75A0.25 0.25 0 0 0 15.25 7L15.75 7A0.25 0.25 0 0 0 16 6.75L16 6.25A0.25 0.25 0 0 0 15.75 6L15.25 6A0.25 0.25 0 0 0 15 6.25ZM17 6.25L17 6.75A0.25 0.25 0 0 0 17.25 7L17.75 7A0.25 0.25 0 0 0 18 6.75L18 6.25A0.25 0.25 0 0 0 17.75 6L17.25 6A0.25 0.25 0 0 0 17 6.25ZM22 6.25L22 8.75A0.25 0.25 0 0 0 22.25 9L22.75 9A0.25 0.25 0 0 1 23 9.25L23 9.75A0.25 0.25 0 0 0 23.25 10L23.75 10A0.25 0.25 0 0 1 24 10.25L24 10.75A0.25 0.25 0 0 0 24.25 11L26.75 11A0.25 0.25 0 0 1 27 11.25L27 11.75A0.25 0.25 0 0 1 26.75 12L26.25 12A0.25 0.25 0 0 0 26 12.25L26 13.75A0.25 0.25 0 0 0 26.25 14L26.75 14A0.25 0.25 0 0 1 27 14.25L27 14.75A0.25 0.25 0 0 1 26.75 15L26.25 15A0.25 0.25 0 0 0 26 15.25L26 15.75A0.25 0.25 0 0 0 26.25 16L27.75 16A0.25 0.25 0 0 1 28 16.25L28 16.75A0.25 0.25 0 0 0 28.25 17L29.75 17A0.25 0.25 0 0 0 30 16.75L30 16.25A0.25 0.25 0 0 1 30.25 16L30.75 16A0.25 0.25 0 0 0 31 15.75L31 15.25A0.25 0.25 0 0 1 31.25 15L31.75 15A0.25 0.25 0 0 0 32 14.75L32 14.25A0.25 0.25 0 0 1 32.25 14L32.75 14A0.25 0.25 0 0 0 33 13.75L33 13.25A0.25 0.25 0 0 0 32.75 13L32.25 13A0.25 0.25 0 0 0 32 13.25L32 13.75A0.25 0.25 0 0 1 31.75 14L31.25 14A0.25 0.25 0 0 1 31 13.75L31 13.25A0.25 0.25 0 0 0 30.75 13L29.25 13A0.25 0.25 0 0 0 29 13.25L29 13.75A0.25 0.25 0 0 0 29.25 14L30.75 14A0.25 0.25 0 0 1 31 14.25L31 14.75A0.25 0.25 0 0 1 30.75 15L28.25 15A0.25 0.25 0 0 1 28 14.75L28 14.25A0.25 0.25 0 0 0 27.75 14L27.25 14A0.25 0.25 0 0 1 27 13.75L27 12.25A0.25 0.25 0 0 1 27.25 12L27.75 12A0.25 0.25 0 0 0 28 11.75L28 10.25A0.25 0.25 0 0 1 28.25 10L28.75 10A0.25 0.25 0 0 0 29 9.75L29 8.25A0.25 0.25 0 0 0 28.75 8L28.25 8A0.25 0.25 0 0 0 28 8.25L28 8.75A0.25 0.25 0 0 1 27.75 9L27.25 9A0.25 0.25 0 0 1 27 8.75L27 8.25A0.25 0.25 0 0 0 26.75 8L26.25 8A0.25 0.25 0 0 0 26 8.25L26 8.75A0.25 0.25 0 0 1 25.75 9L25.25 9A0.25 0.25 0 0 0 25 9.25L25 9.75A0.25 0.25 0 0 1 24.75 10L24.25 10A0.25 0.25 0 0 1 24 9.75L24 9.25A0.25 0.25 0 0 0 23.75 9L23.25 9A0.25 0.25 0 0 1 23 8.75L23 8.25A0.25 0.25 0 0 1 23.25 8L23.75 8A0.25 0.25 0 0 0 24 7.75L24 7.25A0.25 0.25 0 0 1 24.25 7L24.75 7A0.25 0.25 0 0 0 25 6.75L25 6.25A0.25 0.25 0 0 0 24.75 6L24.25 6A0.25 0.25 0 0 0 24 6.25L24 6.75A0.25 0.25 0 0 1 23.75 7L23.25 7A0.25 0.25 0 0 1 23 6.75L23 6.25A0.25 0.25 0 0 0 22.75 6L22.25 6A0.25 0.25 0 0 0 22 6.25ZM19 8.25L19 9.75A0.25 0.25 0 0 0 19.25 10L19.75 10A0.25 0.25 0 0 0 20 9.75L20 9.25A0.25 0.25 0 0 1 20.25 9L20.75 9A0.25 0.25 0 0 0 21 8.75L21 8.25A0.25 0.25 0 0 0 20.75 8L19.25 8A0.25 0.25 0 0 0 19 8.25ZM30 8.25L30 8.75A0.25 0.25 0 0 0 30.25 9L30.75 9A0.25 0.25 0 0 0 31 8.75L31 8.25A0.25 0.25 0 0 0 30.75 8L30.25 8A0.25 0.25 0 0 0 30 8.25ZM32 8.25L32 8.75A0.25 0.25 0 0 0 32.25 9L32.75 9A0.25 0.25 0 0 0 33 8.75L33 8.25A0.25 0.25 0 0 0 32.75 8L32.25 8A0.25 0.25 0 0 0 32 8.25ZM26 9.25L26 9.75A0.25 0.25 0 0 0 26.25 10L26.75 10A0.25 0.25 0 0 0 27 9.75L27 9.25A0.25 0.25 0 0 0 26.75 9L26.25 9A0.25 0.25 0 0 0 26 9.25ZM8 10.25L8 10.75A0.25 0.25 0 0 0 8.25 11L8.75 11A0.25 0.25 0 0 0 9 10.75L9 10.25A0.25 0.25 0 0 0 8.75 10L8.25 10A0.25 0.25 0 0 0 8 10.25ZM10 10.25L10 10.75A0.25 0.25 0 0 0 10.25 11L10.75 11A0.25 0.25 0 0 1 11 11.25L11 13.75A0.25 0.25 0 0 1 10.75 14L10.25 14A0.25 0.25 0 0 1 10 13.75L10 13.25A0.25 0.25 0 0 0 9.75 13L9.25 13A0.25 0.25 0 0 0 9 13.25L9 13.75A0.25 0.25 0 0 1 8.75 14L8.25 14A0.25 0.25 0 0 0 8 14.25L8 14.75A0.25 0.25 0 0 0 8.25 15L8.75 15A0.25 0.25 0 0 1 9 15.25L9 15.75A0.25 0.25 0 0 1 8.75 16L8.25 16A0.25 0.25 0 0 0 8 16.25L8 16.75A0.25 0.25 0 0 1 7.75 17L6.25 17A0.25 0.25 0 0 0 6 17.25L6 17.75A0.25 0.25 0 0 1 5.75 18L5.25 18A0.25 0.25 0 0 0 5 18.25L5 18.75A0.25 0.25 0 0 0 5.25 19L5.75 19A0.25 0.25 0 0 1 6 19.25L6 19.75A0.25 0.25 0 0 0 6.25 20L6.75 20A0.25 0.25 0 0 1 7 20.25L7 20.75A0.25 0.25 0 0 0 7.25 21L8.75 21A0.25 0.25 0 0 1 9 21.25L9 21.75A0.25 0.25 0 0 0 9.25 22L9.75 22A0.25 0.25 0 0 1 10 22.25L10 23.75A0.25 0.25 0 0 1 9.75 24L9.25 24A0.25 0.25 0 0 0 9 24.25L9 24.75A0.25 0.25 0 0 0 9.25 25L9.75 25A0.25 0.25 0 0 0 10 24.75L10 24.25A0.25 0.25 0 0 1 10.25 24L10.75 24A0.25 0.25 0 0 0 11 23.75L11 23.25A0.25 0.25 0 0 1 11.25 23L11.75 23A0.25 0.25 0 0 0 12 22.75L12 22.25A0.25 0.25 0 0 0 11.75 22L11.25 22A0.25 0.25 0 0 1 11 21.75L11 21.25A0.25 0.25 0 0 0 10.75 21L10.25 21A0.25 0.25 0 0 1 10 20.75L10 18.25A0.25 0.25 0 0 1 10.25 18L10.75 18A0.25 0.25 0 0 0 11 17.75L11 17.25A0.25 0.25 0 0 1 11.25 17L11.75 17A0.25 0.25 0 0 0 12 16.75L12 15.25A0.25 0.25 0 0 1 12.25 15L12.75 15A0.25 0.25 0 0 0 13 14.75L13 14.25A0.25 0.25 0 0 1 13.25 14L13.75 14A0.25 0.25 0 0 1 14 14.25L14 15.75A0.25 0.25 0 0 0 14.25 16L14.75 16A0.25 0.25 0 0 1 15 16.25L15 16.75A0.25 0.25 0 0 0 15.25 17L17.75 17A0.25 0.25 0 0 0 18 16.75L18 16.25A0.25 0.25 0 0 1 18.25 16L18.75 16A0.25 0.25 0 0 0 19 15.75L19 15.25A0.25 0.25 0 0 0 18.75 15L18.25 15A0.25 0.25 0 0 1 18 14.75L18 14.25A0.25 0.25 0 0 1 18.25 14L18.75 14A0.25 0.25 0 0 0 19 13.75L19 13.25A0.25 0.25 0 0 0 18.75 13L18.25 13A0.25 0.25 0 0 0 18 13.25L18 13.75A0.25 0.25 0 0 1 17.75 14L17.25 14A0.25 0.25 0 0 0 17 14.25L17 14.75A0.25 0.25 0 0 0 17.25 15L17.75 15A0.25 0.25 0 0 1 18 15.25L18 15.75A0.25 0.25 0 0 1 17.75 16L16.25 16A0.25 0.25 0 0 1 16 15.75L16 13.25A0.25 0.25 0 0 0 15.75 13L15.25 13A0.25 0.25 0 0 1 15 12.75L15 12.25A0.25 0.25 0 0 0 14.75 12L14.25 12A0.25 0.25 0 0 0 14 12.25L14 12.75A0.25 0.25 0 0 1 13.75 13L13.25 13A0.25 0.25 0 0 0 13 13.25L13 13.75A0.25 0.25 0 0 1 12.75 14L12.25 14A0.25 0.25 0 0 1 12 13.75L12 10.25A0.25 0.25 0 0 0 11.75 10L10.25 10A0.25 0.25 0 0 0 10 10.25ZM14 10.25L14 10.75A0.25 0.25 0 0 0 14.25 11L15.75 11A0.25 0.25 0 0 0 16 10.75L16 10.25A0.25 0.25 0 0 0 15.75 10L14.25 10A0.25 0.25 0 0 0 14 10.25ZM21 10.25L21 10.75A0.25 0.25 0 0 0 21.25 11L21.75 11A0.25 0.25 0 0 1 22 11.25L22 11.75A0.25 0.25 0 0 0 22.25 12L22.75 12A0.25 0.25 0 0 0 23 11.75L23 11.25A0.25 0.25 0 0 0 22.75 11L22.25 11A0.25 0.25 0 0 1 22 10.75L22 10.25A0.25 0.25 0 0 0 21.75 10L21.25 10A0.25 0.25 0 0 0 21 10.25ZM30 10.25L30 11.75A0.25 0.25 0 0 0 30.25 12L32.75 12A0.25 0.25 0 0 0 33 11.75L33 11.25A0.25 0.25 0 0 0 32.75 11L32.25 11A0.25 0.25 0 0 1 32 10.75L32 10.25A0.25 0.25 0 0 0 31.75 10L30.25 10A0.25 0.25 0 0 0 30 10.25ZM3 11.25L3 11.75A0.25 0.25 0 0 0 3.25 12L3.75 12A0.25 0.25 0 0 1 4 12.25L4 12.75A0.25 0.25 0 0 0 4.25 13L4.75 13A0.25 0.25 0 0 1 5 13.25L5 13.75A0.25 0.25 0 0 1 4.75 14L4.25 14A0.25 0.25 0 0 0 4 14.25L4 14.75A0.25 0.25 0 0 0 4.25 15L4.75 15A0.25 0.25 0 0 0 5 14.75L5 14.25A0.25 0.25 0 0 1 5.25 14L6.75 14A0.25 0.25 0 0 0 7 13.75L7 13.25A0.25 0.25 0 0 1 7.25 13L7.75 13A0.25 0.25 0 0 0 8 12.75L8 12.25A0.25 0.25 0 0 0 7.75 12L7.25 12A0.25 0.25 0 0 1 7 11.75L7 11.25A0.25 0.25 0 0 0 6.75 11L3.25 11A0.25 0.25 0 0 0 3 11.25ZM5 12.25L5 12.75A0.25 0.25 0 0 0 5.25 13L6.75 13A0.25 0.25 0 0 0 7 12.75L7 12.25A0.25 0.25 0 0 0 6.75 12L5.25 12A0.25 0.25 0 0 0 5 12.25ZM0 13.25L0 13.75A0.25 0.25 0 0 0 0.25 14L0.75 14A0.25 0.25 0 0 0 1 13.75L1 13.25A0.25 0.25 0 0 0 0.75 13L0.25 13A0.25 0.25 0 0 0 0 13.25ZM9 14.25L9 14.75A0.25 0.25 0 0 0 9.25 15L9.75 15A0.25 0.25 0 0 0 10 14.75L10 14.25A0.25 0.25 0 0 0 9.75 14L9.25 14A0.25 0.25 0 0 0 9 14.25ZM6 15.25L6 15.75A0.25 0.25 0 0 0 6.25 16L6.75 16A0.25 0.25 0 0 0 7 15.75L7 15.25A0.25 0.25 0 0 0 6.75 15L6.25 15A0.25 0.25 0 0 0 6 15.25ZM9 16.25L9 16.75A0.25 0.25 0 0 0 9.25 17L10.75 17A0.25 0.25 0 0 0 11 16.75L11 16.25A0.25 0.25 0 0 0 10.75 16L9.25 16A0.25 0.25 0 0 0 9 16.25ZM6 18.25L6 18.75A0.25 0.25 0 0 0 6.25 19L8.75 19A0.25 0.25 0 0 0 9 18.75L9 18.25A0.25 0.25 0 0 0 8.75 18L6.25 18A0.25 0.25 0 0 0 6 18.25ZM26 18.25L26 20.75A0.25 0.25 0 0 0 26.25 21L26.75 21A0.25 0.25 0 0 0 27 20.75L27 20.25A0.25 0.25 0 0 1 27.25 20L28.75 20A0.25 0.25 0 0 0 29 19.75L29 19.25A0.25 0.25 0 0 0 28.75 19L27.25 19A0.25 0.25 0 0 1 27 18.75L27 18.25A0.25 0.25 0 0 0 26.75 18L26.25 18A0.25 0.25 0 0 0 26 18.25ZM31 18.25L31 18.75A0.25 0.25 0 0 0 31.25 19L31.75 19A0.25 0.25 0 0 0 32 18.75L32 18.25A0.25 0.25 0 0 0 31.75 18L31.25 18A0.25 0.25 0 0 0 31 18.25ZM30 20.25L30 20.75A0.25 0.25 0 0 1 29.75 21L29.25 21A0.25 0.25 0 0 0 29 21.25L29 21.75A0.25 0.25 0 0 0 29.25 22L29.75 22A0.25 0.25 0 0 0 30 21.75L30 21.25A0.25 0.25 0 0 1 30.25 21L31.75 21A0.25 0.25 0 0 0 32 20.75L32 20.25A0.25 0.25 0 0 0 31.75 20L30.25 20A0.25 0.25 0 0 0 30 20.25ZM3 23.25L3 23.75A0.25 0.25 0 0 0 3.25 24L3.75 24A0.25 0.25 0 0 0 4 23.75L4 23.25A0.25 0.25 0 0 0 3.75 23L3.25 23A0.25 0.25 0 0 0 3 23.25ZM16 24.25L16 24.75A0.25 0.25 0 0 1 15.75 25L15.25 25A0.25 0.25 0 0 0 15 25.25L15 25.75A0.25 0.25 0 0 1 14.75 26L14.25 26A0.25 0.25 0 0 0 14 26.25L14 26.75A0.25 0.25 0 0 0 14.25 27L14.75 27A0.25 0.25 0 0 1 15 27.25L15 27.75A0.25 0.25 0 0 0 15.25 28L15.75 28A0.25 0.25 0 0 1 16 28.25L16 28.75A0.25 0.25 0 0 0 16.25 29L16.75 29A0.25 0.25 0 0 1 17 29.25L17 29.75A0.25 0.25 0 0 0 17.25 30L19.75 30A0.25 0.25 0 0 0 20 29.75L20 26.25A0.25 0.25 0 0 1 20.25 26L20.75 26A0.25 0.25 0 0 0 21 25.75L21 24.25A0.25 0.25 0 0 0 20.75 24L20.25 24A0.25 0.25 0 0 0 20 24.25L20 25.75A0.25 0.25 0 0 1 19.75 26L19.25 26A0.25 0.25 0 0 1 19 25.75L19 24.25A0.25 0.25 0 0 0 18.75 24L18.25 24A0.25 0.25 0 0 0 18 24.25L18 26.75A0.25 0.25 0 0 0 18.25 27L18.75 27A0.25 0.25 0 0 1 19 27.25L19 27.75A0.25 0.25 0 0 1 18.75 28L16.25 28A0.25 0.25 0 0 1 16 27.75L16 27.25A0.25 0.25 0 0 1 16.25 27L16.75 27A0.25 0.25 0 0 0 17 26.75L17 24.25A0.25 0.25 0 0 0 16.75 24L16.25 24A0.25 0.25 0 0 0 16 24.25ZM30 24.25L30 24.75A0.25 0.25 0 0 1 29.75 25L29.25 25A0.25 0.25 0 0 0 29 25.25L29 27.75A0.25 0.25 0 0 0 29.25 28L29.75 28A0.25 0.25 0 0 1 30 28.25L30 28.75A0.25 0.25 0 0 0 30.25 29L30.75 29A0.25 0.25 0 0 1 31 29.25L31 29.75A0.25 0.25 0 0 0 31.25 30L31.75 30A0.25 0.25 0 0 0 32 29.75L32 29.25A0.25 0.25 0 0 0 31.75 29L31.25 29A0.25 0.25 0 0 1 31 28.75L31 28.25A0.25 0.25 0 0 1 31.25 28L31.75 28A0.25 0.25 0 0 0 32 27.75L32 27.25A0.25 0.25 0 0 0 31.75 27L31.25 27A0.25 0.25 0 0 0 31 27.25L31 27.75A0.25 0.25 0 0 1 30.75 28L30.25 28A0.25 0.25 0 0 1 30 27.75L30 25.25A0.25 0.25 0 0 1 30.25 25L30.75 25A0.25 0.25 0 0 1 31 25.25L31 25.75A0.25 0.25 0 0 0 31.25 26L31.75 26A0.25 0.25 0 0 0 32 25.75L32 25.25A0.25 0.25 0 0 0 31.75 25L31.25 25A0.25 0.25 0 0 1 31 24.75L31 24.25A0.25 0.25 0 0 0 30.75 24L30.25 24A0.25 0.25 0 0 0 30 24.25ZM25 25.25L25 27.75A0.25 0.25 0 0 0 25.25 28L27.75 28A0.25 0.25 0 0 0 28 27.75L28 25.25A0.25 0.25 0 0 0 27.75 25L25.25 25A0.25 0.25 0 0 0 25 25.25ZM15 26.25L15 26.75A0.25 0.25 0 0 0 15.25 27L15.75 27A0.25 0.25 0 0 0 16 26.75L16 26.25A0.25 0.25 0 0 0 15.75 26L15.25 26A0.25 0.25 0 0 0 15 26.25ZM26 26.25L26 26.75A0.25 0.25 0 0 0 26.25 27L26.75 27A0.25 0.25 0 0 0 27 26.75L27 26.25A0.25 0.25 0 0 0 26.75 26L26.25 26A0.25 0.25 0 0 0 26 26.25ZM8 27.25L8 27.75A0.25 0.25 0 0 0 8.25 28L8.75 28A0.25 0.25 0 0 0 9 27.75L9 27.25A0.25 0.25 0 0 0 8.75 27L8.25 27A0.25 0.25 0 0 0 8 27.25ZM29 30.25L29 30.75A0.25 0.25 0 0 0 29.25 31L29.75 31A0.25 0.25 0 0 0 30 30.75L30 30.25A0.25 0.25 0 0 0 29.75 30L29.25 30A0.25 0.25 0 0 0 29 30.25ZM26 31.25L26 31.75A0.25 0.25 0 0 0 26.25 32L26.75 32A0.25 0.25 0 0 0 27 31.75L27 31.25A0.25 0.25 0 0 0 26.75 31L26.25 31A0.25 0.25 0 0 0 26 31.25ZM0 0.25L0 6.75A0.25 0.25 0 0 0 0.25 7L6.75 7A0.25 0.25 0 0 0 7 6.75L7 0.25A0.25 0.25 0 0 0 6.75 0L0.25 0A0.25 0.25 0 0 0 0 0.25ZM1 1.25L1 5.75A0.25 0.25 0 0 0 1.25 6L5.75 6A0.25 0.25 0 0 0 6 5.75L6 1.25A0.25 0.25 0 0 0 5.75 1L1.25 1A0.25 0.25 0 0 0 1 1.25ZM2 2.25L2 4.75A0.25 0.25 0 0 0 2.25 5L4.75 5A0.25 0.25 0 0 0 5 4.75L5 2.25A0.25 0.25 0 0 0 4.75 2L2.25 2A0.25 0.25 0 0 0 2 2.25ZM26 0.25L26 6.75A0.25 0.25 0 0 0 26.25 7L32.75 7A0.25 0.25 0 0 0 33 6.75L33 0.25A0.25 0.25 0 0 0 32.75 0L26.25 0A0.25 0.25 0 0 0 26 0.25ZM27 1.25L27 5.75A0.25 0.25 0 0 0 27.25 6L31.75 6A0.25 0.25 0 0 0 32 5.75L32 1.25A0.25 0.25 0 0 0 31.75 1L27.25 1A0.25 0.25 0 0 0 27 1.25ZM28 2.25L28 4.75A0.25 0.25 0 0 0 28.25 5L30.75 5A0.25 0.25 0 0 0 31 4.75L31 2.25A0.25 0.25 0 0 0 30.75 2L28.25 2A0.25 0.25 0 0 0 28 2.25ZM0 26.25L0 32.75A0.25 0.25 0 0 0 0.25 33L6.75 33A0.25 0.25 0 0 0 7 32.75L7 26.25A0.25 0.25 0 0 0 6.75 26L0.25 26A0.25 0.25 0 0 0 0 26.25ZM1 27.25L1 31.75A0.25 0.25 0 0 0 1.25 32L5.75 32A0.25 0.25 0 0 0 6 31.75L6 27.25A0.25 0.25 0 0 0 5.75 27L1.25 27A0.25 0.25 0 0 0 1 27.25ZM2 28.25L2 30.75A0.25 0.25 0 0 0 2.25 31L4.75 31A0.25 0.25 0 0 0 5 30.75L5 28.25A0.25 0.25 0 0 0 4.75 28L2.25 28A0.25 0.25 0 0 0 2 28.25Z" fill="#000000"/></g></g></svg>
