<?xml version="1.0" encoding="UTF-8"?>
<svg xmlns="http://www.w3.org/2000/svg" version="1.1" width="500" height="500" viewBox="0 0 500 500"><rect x="0" y="0" width="500" height="500" fill="#ffffff"/><g transform="scale(15.152)"><g transform="translate(0,0)"><path fill-rule="evenodd" d="M10 0.25L10 0.75A0.25 0.25 0 0 1 9.75 1L9.25 1A0.25 0.25 0 0 0 9 1.25L9 1.75A0.25 0.25 0 0 1 8.75 2L8.25 2A0.25 0.25 0 0 0 8 2.25L8 3.75A0.25 0.25 0 0 0 8.25 4L9.75 4A0.25 0.25 0 0 1 10 4.25L10 6.75A0.25 0.25 0 0 1 9.75 7L9.25 7A0.25 0.25 0 0 1 9 6.75L9 6.25A0.25 0.25 0 0 0 8.75 6L8.25 6A0.25 0.25 0 0 0 8 6.25L8 6.75A0.25 0.25 0 0 0 8.25 7L8.75 7A0.25 0.25 0 0 1 9 7.25L9 7.75A0.25 0.25 0 0 0 9.25 8L9.75 8A0.25 0.25 0 0 0 10 7.75L10 7.25A0.25 0.25 0 0 1 10.25 7L10.75 7A0.25 0.25 0 0 0 11 6.75L11 6.25A0.25 0.25 0 0 1 11.25 6L11.75 6A0.25 0.25 0 0 1 12 6.25L12 7.75A0.25 0.25 0 0 1 11.75 8L11.25 8A0.25 0.25 0 0 0 11 8.25L11 8.75A0.25 0.25 0 0 1 10.75 9L10.25 9A0.25 0.25 0 0 0 10 9.25L10 9.75A0.25 0.25 0 0 1 9.75 10L9.25 10A0.25 0.25 0 0 1 9 9.75L9 9.25A0.25 0.25 0 0 0 8.75 9L8.25 9A0.25 0.25 0 0 1 8 8.75L8 8.25A0.25 0.25 0 0 0 7.75 8L6.25 8A0.25 0.25 0 0 0 6 8.25L6 8.75A0.25 0.25 0 0 1 5.75 9L5.25 9A0.25 0.25 0 0 1 5 8.75L5 8.25A0.25 0.25 0 0 0 4.75 8L3.25 8A0.25 0.25 0 0 0 3 8.25L3 8.75A0.25 0.25 0 0 1 2.75 9L2.25 9A0.25 0.25 0 0 0 2 9.25L2 9.75A0.25 0.25 0 0 1 1.75 10L1.25 10A0.25 0.25 0 0 0 1 10.25L1 10.75A0.25 0.25 0 0 0 1.25 11L1.75 11A0.25 0.25 0 0 1 2 11.25L2 12.75A0.25 0.25 0 0 1 1.75 13L0.25 13A0.25 0.25 0 0 0 0 13.25L0 13.75A0.25 0.25 0 0 0 0.25 14L0.75 14A0.25 0.25 0 0 1 1 14.25L1 15.75A0.25 0.25 0 0 1 0.75 16L0.25 16A0.25 0.25 0 0 0 0 16.25L0 16.75A0.25 0.25 0 0 0 0.25 17L1.75 17A0.25 0.25 0 0 1 2 17.25L2 17.75A0.25 0.25 0 0 1 1.75 18L1.25 18A0.25 0.25 0 0 0 1 18.25L1 18.75A0.25 0.25 0 0 1 0.75 19L0.25 19A0.25 0.25 0 0 0 0 19.25L0 24.75A0.25 0.25 0 0 0 0.25 25L4.75 25A0.25 0.25 0 0 0 5 24.75L5 24.25A0.25 0.25 0 0 1 5.25 24L5.75 24A0.25 0.25 0 0 1 6 24.25L6 24.75A0.25 0.25 0 0 0 6.25 25L7.75 25A0.25 0.25 0 0 1 8 25.25L8 26.75A0.25 0.25 0 0 0 8.25 27L8.75 27A0.25 0.25 0 0 1 9 27.25L9 27.75A0.25 0.25 0 0 1 8.75 28L8.25 28A0.25 0.25 0 0 0 8 28.25L8 29.75A0.25 0.25 0 0 0 8.25 30L8.75 30A0.25 0.25 0 0 0 9 29.75L9 28.25A0.25 0.25 0 0 1 9.25 28L9.75 28A0.25 0.25 0 0 1 10 28.25L10 30.75A0.25 0.25 0 0 0 10.25 31L11.75 31A0.25 0.25 0 0 0 12 30.75L12 30.25A0.25 0.25 0 0 0 11.75 30L11.25 30A0.25 0.25 0 0 1 11 29.75L11 29.25A0.25 0.25 0 0 1 11.25 29L12.75 29A0.25 0.25 0 0 0 13 28.75L13 28.25A0.25 0.25 0 0 1 13.25 28L13.75 28A0.25 0.25 0 0 0 14 27.75L14 27.25A0.25 0.25 0 0 0 13.75 27L13.25 27A0.25 0.25 0 0 0 13 27.25L13 27.75A0.25 0.25 0 0 1 12.75 28L12.25 28A0.25 0.25 0 0 1 12 27.75L12 26.25A0.25 0.25 0 0 1 12.25 26L15.75 26A0.25 0.25 0 0 1 16 26.25L16 27.75A0.25 0.25 0 0 1 15.75 28L15.25 28A0.25 0.25 0 0 0 15 28.25L15 28.75A0.25 0.25 0 0 0 15.25 29L15.75 29A0.25 0.25 0 0 0 16 28.75L16 28.25A0.25 0.25 0 0 1 16.25 28L17.75 28A0.25 0.25 0 0 1 18 28.25L18 28.75A0.25 0.25 0 0 1 17.75 29L17.25 29A0.25 0.25 0 0 0 17 29.25L17 29.75A0.25 0.25 0 0 1 16.75 30L16.25 30A0.25 0.25 0 0 0 16 30.25L16 31.75A0.25 0.25 0 0 0 16.25 32L16.75 32A0.25 0.25 0 0 1 17 32.25L17 32.75A0.25 0.25 0 0 0 17.25 33L19.75 33A0.25 0.25 0 0 0 20 32.75L20 32.25A0.25 0.25 0 0 1 20.25 32L20.75 32A0.25 0.25 0 0 0 21 31.75L21 31.25A0.25 0.25 0 0 1 21.25 31L21.75 31A0.25 0.25 0 0 1 22 31.25L22 32.75A0.25 0.25 0 0 0 22.25 33L25.75 33A0.25 0.25 0 0 0 26 32.75L26 31.25A0.25 0.25 0 0 0 25.75 31L25.25 31A0.25 0.25 0 0 0 25 31.25L25 31.75A0.25 0.25 0 0 1 24.75 32L23.25 32A0.25 0.25 0 0 1 23 31.75L23 29.25A0.25 0.25 0 0 1 23.25 29L26.75 29A0.25 0.25 0 0 1 27 29.25L27 29.75A0.25 0.25 0 0 0 27.25 30L27.75 30A0.25 0.25 0 0 1 28 30.25L28 30.75A0.25 0.25 0 0 0 28.25 31L28.75 31A0.25 0.25 0 0 1 29 31.25L29 31.75A0.25 0.25 0 0 1 28.75 32L28.25 32A0.25 0.25 0 0 0 28 32.25L28 32.75A0.25 0.25 0 0 0 28.25 33L28.75 33A0.25 0.25 0 0 0 29 32.75L29 32.25A0.25 0.25 0 0 1 29.25 32L29.75 32A0.25 0.25 0 0 1 30 32.25L30 32.75A0.25 0.25 0 0 0 30.25 33L30.75 33A0.25 0.25 0 0 0 31 32.75L31 32.25A0.25 0.25 0 0 1 31.25 32L32.75 32A0.25 0.25 0 0 0 33 31.75L33 29.25A0.25 0.25 0 0 0 32.75 29L32.25 29A0.25 0.25 0 0 1 32 28.75L32 28.25A0.25 0.25 0 0 1 32.25 28L32.75 28A0.25 0.25 0 0 0 33 27.75L33 27.25A0.25 0.25 0 0 0 32.75 27L32.25 27A0.25 0.25 0 0 0 32 27.25L32 27.75A0.25 0.25 0 0 1 31.75 28L31.25 28A0.25 0.25 0 0 1 31 27.75L31 26.25A0.25 0.25 0 0 1 31.25 26L31.75 26A0.25 0.25 0 0 0 32 25.75L32 24.25A0.25 0.25 0 0 1 32.25 24L32.75 24A0.25 0.25 0 0 0 33 23.75L33 22.25A0.25 0.25 0 0 0 32.75 22L32.25 22A0.25 0.25 0 0 1 32 21.75L32 21.25A0.25 0.25 0 0 0 31.75 21L30.25 21A0.25 0.25 0 0 1 30 20.75L30 20.25A0.25 0.25 0 0 1 30.25 20L32.75 20A0.25 0.25 0 0 0 33 19.75L33 16.25A0.25 0.25 0 0 0 32.75 16L32.25 16A0.25 0.25 0 0 0 32 16.25L32 16.75A0.25 0.25 0 0 1 31.75 17L31.25 17A0.25 0.25 0 0 1 31 16.75L31 14.25A0.25 0.25 0 0 1 31.25 14L31.75 14A0.25 0.25 0 0 0 32 13.75L32 13.25A0.25 0.25 0 0 0 31.75 13L30.25 13A0.25 0.25 0 0 0 30 13.25L30 14.75A0.25 0.25 0 0 1 29.75 15L29.25 15A0.25 0.25 0 0 1 29 14.75L29 14.25A0.25 0.25 0 0 0 28.75 14L28.25 14A0.25 0.25 0 0 1 28 13.75L28 12.25A0.25 0.25 0 0 1 28.25 12L32.75 12A0.25 0.25 0 0 0 33 11.75L33 10.25A0.25 0.25 0 0 0 32.75 10L29.25 10A0.25 0.25 0 0 1 29 9.75L29 9.25A0.25 0.25 0 0 1 29.25 9L30.75 9A0.25 0.25 0 0 0 31 8.75L31 8.25A0.25 0.25 0 0 0 30.75 8L29.25 8A0.25 0.25 0 0 0 29 8.25L29 8.75A0.25 0.25 0 0 1 28.75 9L27.25 9A0.25 0.25 0 0 0 27 9.25L27 11.75A0.25 0.25 0 0 1 26.75 12L26.25 12A0.25 0.25 0 0 0 26 12.25L26 12.75A0.25 0.25 0 0 1 25.75 13L25.25 13A0.25 0.25 0 0 0 25 13.25L25 14.75A0.25 0.25 0 0 0 25.25 15L25.75 15A0.25 0.25 0 0 1 26 15.25L26 17.75A0.25 0.25 0 0 0 26.25 18L26.75 18A0.25 0.25 0 0 1 27 18.25L27 18.75A0.25 0.25 0 0 0 27.25 19L28.75 19A0.25 0.25 0 0 1 29 19.25L29 20.75A0.25 0.25 0 0 1 28.75 21L28.25 21A0.25 0.25 0 0 1 28 20.75L28 20.25A0.25 0.25 0 0 0 27.75 20L27.25 20A0.25 0.25 0 0 0 27 20.25L27 21.75A0.25 0.25 0 0 1 26.75 22L26.25 22A0.25 0.25 0 0 1 26 21.75L26 21.25A0.25 0.25 0 0 0 25.75 21L24.25 21A0.25 0.25 0 0 1 24 20.75L24 20.25A0.25 0.25 0 0 1 24.25 20L25.75 20A0.25 0.25 0 0 0 26 19.75L26 19.25A0.25 0.25 0 0 0 25.75 19L25.25 19A0.25 0.25 0 0 1 25 18.75L25 16.25A0.25 0.25 0 0 0 24.75 16L24.25 16A0.25 0.25 0 0 1 24 15.75L24 15.25A0.25 0.25 0 0 0 23.75 15L23.25 15A0.25 0.25 0 0 0 23 15.25L23 15.75A0.25 0.25 0 0 1 22.75 16L22.25 16A0.25 0.25 0 0 0 22 16.25L22 17.75A0.25 0.25 0 0 1 21.75 18L16.25 18A0.25 0.25 0 0 1 16 17.75L16 17.25A0.25 0.25 0 0 0 15.75 17L15.25 17A0.25 0.25 0 0 0 15 17.25L15 17.75A0.25 0.25 0 0 1 14.75 18L13.25 18A0.25 0.25 0 0 0 13 18.25L13 19.75A0.25 0.25 0 0 1 12.75 20L12.25 20A0.25 0.25 0 0 1 12 19.75L12 19.25A0.25 0.25 0 0 0 11.75 19L11.25 19A0.25 0.25 0 0 1 11 18.75L11 17.25A0.25 0.25 0 0 1 11.25 17L12.75 17A0.25 0.25 0 0 0 13 16.75L13 16.25A0.25 0.25 0 0 1 13.25 16L13.75 16A0.25 0.25 0 0 0 14 15.75L14 15.25A0.25 0.25 0 0 0 13.75 15L12.25 15A0.25 0.25 0 0 0 12 15.25L12 15.75A0.25 0.25 0 0 1 11.75 16L9.25 16A0.25 0.25 0 0 0 9 16.25L9 16.75A0.25 0.25 0 0 0 9.25 17L9.75 17A0.25 0.25 0 0 1 10 17.25L10 19.75A0.25 0.25 0 0 0 10.25 20L10.75 20A0.25 0.25 0 0 1 11 20.25L11 20.75A0.25 0.25 0 0 0 11.25 21L11.75 21A0.25 0.25 0 0 1 12 21.25L12 21.75A0.25 0.25 0 0 1 11.75 22L10.25 22A0.25 0.25 0 0 0 10 22.25L10 26.75A0.25 0.25 0 0 1 9.75 27L9.25 27A0.25 0.25 0 0 1 9 26.75L9 24.25A0.25 0.25 0 0 0 8.75 24L6.25 24A0.25 0.25 0 0 1 6 23.75L6 23.25A0.25 0.25 0 0 1 6.25 23L6.75 23A0.25 0.25 0 0 0 7 22.75L7 22.25A0.25 0.25 0 0 1 7.25 22L7.75 22A0.25 0.25 0 0 1 8 22.25L8 22.75A0.25 0.25 0 0 0 8.25 23L8.75 23A0.25 0.25 0 0 0 9 22.75L9 21.25A0.25 0.25 0 0 0 8.75 21L8.25 21A0.25 0.25 0 0 1 8 20.75L8 19.25A0.25 0.25 0 0 0 7.75 19L7.25 19A0.25 0.25 0 0 1 7 18.75L7 18.25A0.25 0.25 0 0 0 6.75 18L6.25 18A0.25 0.25 0 0 0 6 18.25L6 18.75A0.25 0.25 0 0 1 5.75 19L4.25 19A0.25 0.25 0 0 1 4 18.75L4 18.25A0.25 0.25 0 0 1 4.25 18L4.75 18A0.25 0.25 0 0 0 5 17.75L5 17.25A0.25 0.25 0 0 0 4.75 17L4.25 17A0.25 0.25 0 0 0 4 17.25L4 17.75A0.25 0.25 0 0 1 3.75 18L3.25 18A0.25 0.25 0 0 1 3 17.75L3 16.25A0.25 0.25 0 0 1 3.25 16L4.75 16A0.25 0.25 0 0 0 5 15.75L5 15.25A0.25 0.25 0 0 1 5.25 15L6.75 15A0.25 0.25 0 0 1 7 15.25L7 15.75A0.25 0.25 0 0 1 6.75 16L6.25 16A0.25 0.25 0 0 0 6 16.25L6 16.75A0.25 0.25 0 0 0 6.25 17L7.75 17A0.25 0.25 0 0 0 8 16.75L8 15.25A0.25 0.25 0 0 1 8.25 15L10.75 15A0.25 0.25 0 0 0 11 14.75L11 13.25A0.25 0.25 0 0 0 10.75 13L10.25 13A0.25 0.25 0 0 1 10 12.75L10 11.25A0.25 0.25 0 0 1 10.25 11L10.75 11A0.25 0.25 0 0 0 11 10.75L11 10.25A0.25 0.25 0 0 1 11.25 10L11.75 10A0.25 0.25 0 0 1 12 10.25L12 13.75A0.25 0.25 0 0 0 12.25 14L13.75 14A0.25 0.25 0 0 0 14 13.75L14 13.25A0.25 0.25 0 0 1 14.25 13L14.75 13A0.25 0.25 0 0 0 15 12.75L15 12.25A0.25 0.25 0 0 0 14.75 12L13.25 12A0.25 0.25 0 0 1 13 11.75L13 10.25A0.25 0.25 0 0 0 12.75 10L12.25 10A0.25 0.25 0 0 1 12 9.75L12 8.25A0.25 0.25 0 0 1 12.25 8L12.75 8A0.25 0.25 0 0 0 13 7.75L13 6.25A0.25 0.25 0 0 0 12.75 6L12.25 6A0.25 0.25 0 0 1 12 5.75L12 5.25A0.25 0.25 0 0 1 12.25 5L15.75 5A0.25 0.25 0 0 0 16 4.75L16 4.25A0.25 0.25 0 0 1 16.25 4L17.75 4A0.25 0.25 0 0 1 18 4.25L18 4.75A0.25 0.25 0 0 1 17.75 5L17.25 5A0.25 0.25 0 0 0 17 5.25L17 5.75A0.25 0.25 0 0 1 16.75 6L16.25 6A0.25 0.25 0 0 0 16 6.25L16 7.75A0.25 0.25 0 0 1 15.75 8L15.25 8A0.25 0.25 0 0 1 15 7.75L15 6.25A0.25 0.25 0 0 0 14.75 6L14.25 6A0.25 0.25 0 0 0 14 6.25L14 9.75A0.25 0.25 0 0 0 14.25 10L14.75 10A0.25 0.25 0 0 1 15 10.25L15 10.75A0.25 0.25 0 0 0 15.25 11L18.75 11A0.25 0.25 0 0 1 19 11.25L19 11.75A0.25 0.25 0 0 0 19.25 12L19.75 12A0.25 0.25 0 0 0 20 11.75L20 11.25A0.25 0.25 0 0 0 19.75 11L19.25 11A0.25 0.25 0 0 1 19 10.75L19 10.25A0.25 0.25 0 0 1 19.25 10L20.75 10A0.25 0.25 0 0 1 21 10.25L21 10.75A0.25 0.25 0 0 0 21.25 11L21.75 11A0.25 0.25 0 0 0 22 10.75L22 10.25A0.25 0.25 0 0 1 22.25 10L22.75 10A0.25 0.25 0 0 1 23 10.25L23 10.75A0.25 0.25 0 0 0 23.25 11L23.75 11A0.25 0.25 0 0 0 24 10.75L24 10.25A0.25 0.25 0 0 1 24.25 10L24.75 10A0.25 0.25 0 0 1 25 10.25L25 10.75A0.25 0.25 0 0 0 25.25 11L25.75 11A0.25 0.25 0 0 0 26 10.75L26 9.25A0.25 0.25 0 0 0 25.75 9L24.25 9A0.25 0.25 0 0 1 24 8.75L24 8.25A0.25 0.25 0 0 1 24.25 8L24.75 8A0.25 0.25 0 0 0 25 7.75L25 6.25A0.25 0.25 0 0 0 24.75 6L24.25 6A0.25 0.25 0 0 1 24 5.75L24 2.25A0.25 0.25 0 0 0 23.75 2L23.25 2A0.25 0.25 0 0 0 23 2.25L23 3.75A0.25 0.25 0 0 1 22.75 4L22.25 4A0.25 0.25 0 0 1 22 3.75L22 1.25A0.25 0.25 0 0 1 22.25 1L22.75 1A0.25 0.25 0 0 0 23 0.75L23 0.25A0.25 0.25 0 0 0 22.75 0L21.25 0A0.25 0.25 0 0 0 21 0.25L21 1.75A0.25 0.25 0 0 1 20.75 2L19.25 2A0.25 0.25 0 0 1 19 1.75L19 0.25A0.25 0.25 0 0 0 18.75 0L18.25 0A0.25 0.25 0 0 0 18 0.25L18 0.75A0.25 0.25 0 0 1 17.75 1L17.25 1A0.25 0.25 0 0 1 17 0.75L17 0.25A0.25 0.25 0 0 0 16.75 0L15.25 0A0.25 0.25 0 0 0 15 0.25L15 1.75A0.25 0.25 0 0 1 14.75 2L13.25 2A0.25 0.25 0 0 0 13 2.25L13 2.75A0.25 0.25 0 0 0 13.25 3L14.75 3A0.25 0.25 0 0 1 15 3.25L15 3.75A0.25 0.25 0 0 1 14.75 4L12.25 4A0.25 0.25 0 0 0 12 4.25L12 4.75A0.25 0.25 0 0 1 11.75 5L11.25 5A0.25 0.25 0 0 1 11 4.75L11 4.25A0.25 0.25 0 0 0 10.75 4L10.25 4A0.25 0.25 0 0 1 10 3.75L10 1.25A0.25 0.25 0 0 1 10.25 1L10.75 1A0.25 0.25 0 0 1 11 1.25L11 1.75A0.25 0.25 0 0 0 11.25 2L11.75 2A0.25 0.25 0 0 0 12 1.75L12 1.25A0.25 0.25 0 0 1 12.25 1L13.75 1A0.25 0.25 0 0 0 14 0.75L14 0.25A0.25 0.25 0 0 0 13.75 0L10.25 0A0.25 0.25 0 0 0 10 0.25ZM24 0.25L24 0.75A0.25 0.25 0 0 0 24.25 1L24.75 1A0.25 0.25 0 0 0 25 0.75L25 0.25A0.25 0.25 0 0 0 24.75 0L24.25 0A0.25 0.25 0 0 0 24 0.25ZM16 1.25L16 1.75A0.25 0.25 0 0 1 15.75 2L15.25 2A0.25 0.25 0 0 0 15 2.25L15 2.75A0.25 0.25 0 0 0 15.25 3L15.75 3A0.25 0.25 0 0 0 16 2.75L16 2.25A0.25 0.25 0 0 1 16.25 2L16.75 2A0.25 0.25 0 0 0 17 1.75L17 1.25A0.25 0.25 0 0 0 16.75 1L16.25 1A0.25 0.25 0 0 0 16 1.25ZM18 2.25L18 2.75A0.25 0.25 0 0 0 18.25 3L18.75 3A0.25 0.25 0 0 1 19 3.25L19 3.75A0.25 0.25 0 0 0 19.25 4L19.75 4A0.25 0.25 0 0 1 20 4.25L20 5.75A0.25 0.25 0 0 1 19.75 6L19.25 6A0.25 0.25 0 0 1 19 5.75L19 5.25A0.25 0.25 0 0 0 18.75 5L18.25 5A0.25 0.25 0 0 0 18 5.25L18 5.75A0.25 0.25 0 0 1 17.75 6L17.25 6A0.25 0.25 0 0 0 17 6.25L17 7.75A0.25 0.25 0 0 1 16.75 8L16.25 8A0.25 0.25 0 0 0 16 8.25L16 8.75A0.25 0.25 0 0 1 15.75 9L15.25 9A0.25 0.25 0 0 0 15 9.25L15 9.75A0.25 0.25 0 0 0 15.25 10L18.75 10A0.25 0.25 0 0 0 19 9.75L19 9.25A0.25 0.25 0 0 1 19.25 9L19.75 9A0.25 0.25 0 0 0 20 8.75L20 6.25A0.25 0.25 0 0 1 20.25 6L20.75 6A0.25 0.25 0 0 1 21 6.25L21 7.75A0.25 0.25 0 0 0 21.25 8L21.75 8A0.25 0.25 0 0 1 22 8.25L22 8.75A0.25 0.25 0 0 1 21.75 9L21.25 9A0.25 0.25 0 0 0 21 9.25L21 9.75A0.25 0.25 0 0 0 21.25 10L21.75 10A0.25 0.25 0 0 0 22 9.75L22 9.25A0.25 0.25 0 0 1 22.25 9L22.75 9A0.25 0.25 0 0 0 23 8.75L23 8.25A0.25 0.25 0 0 1 23.25 8L23.75 8A0.25 0.25 0 0 0 24 7.75L24 6.25A0.25 0.25 0 0 0 23.75 6L23.25 6A0.25 0.25 0 0 0 23 6.25L23 6.75A0.25 0.25 0 0 1 22.75 7L22.25 7A0.25 0.25 0 0 1 22 6.75L22 4.25A0.25 0.25 0 0 0 21.75 4L20.25 4A0.25 0.25 0 0 1 20 3.75L20 3.25A0.25 0.25 0 0 0 19.75 3L19.25 3A0.25 0.25 0 0 1 19 2.75L19 2.25A0.25 0.25 0 0 0 18.75 2L18.25 2A0.25 0.25 0 0 0 18 2.25ZM18 6.25L18 6.75A0.25 0.25 0 0 0 18.25 7L18.75 7A0.25 0.25 0 0 0 19 6.75L19 6.25A0.25 0.25 0 0 0 18.75 6L18.25 6A0.25 0.25 0 0 0 18 6.25ZM18 8.25L18 8.75A0.25 0.25 0 0 0 18.25 9L18.75 9A0.25 0.25 0 0 0 19 8.75L19 8.25A0.25 0.25 0 0 0 18.75 8L18.25 8A0.25 0.25 0 0 0 18 8.25ZM4 9.25L4 9.75A0.25 0.25 0 0 0 4.25 10L4.75 10A0.25 0.25 0 0 1 5 10.25L5 10.75A0.25 0.25 0 0 0 5.25 11L5.75 11A0.25 0.25 0 0 1 6 11.25L6 11.75A0.25 0.25 0 0 0 6.25 12L6.75 12A0.25 0.25 0 0 1 7 12.25L7 12.75A0.25 0.25 0 0 1 6.75 13L5.25 13A0.25 0.25 0 0 1 5 12.75L5 12.25A0.25 0.25 0 0 0 4.75 12L4.25 12A0.25 0.25 0 0 1 4 11.75L4 11.25A0.25 0.25 0 0 0 3.75 11L3.25 11A0.25 0.25 0 0 1 3 10.75L3 10.25A0.25 0.25 0 0 0 2.75 10L2.25 10A0.25 0.25 0 0 0 2 10.25L2 10.75A0.25 0.25 0 0 0 2.25 11L2.75 11A0.25 0.25 0 0 1 3 11.25L3 12.75A0.25 0.25 0 0 1 2.75 13L2.25 13A0.25 0.25 0 0 0 2 13.25L2 13.75A0.25 0.25 0 0 0 2.25 14L2.75 14A0.25 0.25 0 0 1 3 14.25L3 14.75A0.25 0.25 0 0 1 2.75 15L2.25 15A0.25 0.25 0 0 0 2 15.25L2 15.75A0.25 0.25 0 0 0 2.25 16L2.75 16A0.25 0.25 0 0 0 3 15.75L3 15.25A0.25 0.25 0 0 1 3.25 15L3.75 15A0.25 0.25 0 0 0 4 14.75L4 14.25A0.25 0.25 0 0 1 4.25 14L6.75 14A0.25 0.25 0 0 1 7 14.25L7 14.75A0.25 0.25 0 0 0 7.25 15L7.75 15A0.25 0.25 0 0 0 8 14.75L8 14.25A0.25 0.25 0 0 0 7.75 14L7.25 14A0.25 0.25 0 0 1 7 13.75L7 13.25A0.25 0.25 0 0 1 7.25 13L7.75 13A0.25 0.25 0 0 0 8 12.75L8 12.25A0.25 0.25 0 0 0 7.75 12L7.25 12A0.25 0.25 0 0 1 7 11.75L7 11.25A0.25 0.25 0 0 0 6.75 11L6.25 11A0.25 0.25 0 0 1 6 10.75L6 10.25A0.25 0.25 0 0 1 6.25 10L7.75 10A0.25 0.25 0 0 0 8 9.75L8 9.25A0.25 0.25 0 0 0 7.75 9L6.25 9A0.25 0.25 0 0 0 6 9.25L6 9.75A0.25 0.25 0 0 1 5.75 10L5.25 10A0.25 0.25 0 0 1 5 9.75L5 9.25A0.25 0.25 0 0 0 4.75 9L4.25 9A0.25 0.25 0 0 0 4 9.25ZM28 10.25L28 10.75A0.25 0.25 0 0 0 28.25 11L28.75 11A0.25 0.25 0 0 0 29 10.75L29 10.25A0.25 0.25 0 0 0 28.75 10L28.25 10A0.25 0.25 0 0 0 28 10.25ZM16 12.25L16 13.75A0.25 0.25 0 0 0 16.25 14L17.75 14A0.25 0.25 0 0 1 18 14.25L18 14.75A0.25 0.25 0 0 1 17.75 15L16.25 15A0.25 0.25 0 0 0 16 15.25L16 15.75A0.25 0.25 0 0 0 16.25 16L16.75 16A0.25 0.25 0 0 1 17 16.25L17 16.75A0.25 0.25 0 0 0 17.25 17L20.75 17A0.25 0.25 0 0 0 21 16.75L21 15.25A0.25 0.25 0 0 0 20.75 15L20.25 15A0.25 0.25 0 0 1 20 14.75L20 14.25A0.25 0.25 0 0 1 20.25 14L21.75 14A0.25 0.25 0 0 0 22 13.75L22 12.25A0.25 0.25 0 0 0 21.75 12L21.25 12A0.25 0.25 0 0 0 21 12.25L21 12.75A0.25 0.25 0 0 1 20.75 13L20.25 13A0.25 0.25 0 0 0 20 13.25L20 13.75A0.25 0.25 0 0 1 19.75 14L18.25 14A0.25 0.25 0 0 1 18 13.75L18 13.25A0.25 0.25 0 0 0 17.75 13L17.25 13A0.25 0.25 0 0 1 17 12.75L17 12.25A0.25 0.25 0 0 0 16.75 12L16.25 12A0.25 0.25 0 0 0 16 12.25ZM9 13.25L9 13.75A0.25 0.25 0 0 0 9.25 14L9.75 14A0.25 0.25 0 0 0 10 13.75L10 13.25A0.25 0.25 0 0 0 9.75 13L9.25 13A0.25 0.25 0 0 0 9 13.25ZM23 13.25L23 13.75A0.25 0.25 0 0 0 23.25 14L23.75 14A0.25 0.25 0 0 0 24 13.75L24 13.25A0.25 0.25 0 0 0 23.75 13L23.25 13A0.25 0.25 0 0 0 23 13.25ZM26 13.25L26 14.75A0.25 0.25 0 0 0 26.25 15L26.75 15A0.25 0.25 0 0 1 27 15.25L27 17.75A0.25 0.25 0 0 0 27.25 18L27.75 18A0.25 0.25 0 0 0 28 17.75L28 14.25A0.25 0.25 0 0 0 27.75 14L27.25 14A0.25 0.25 0 0 1 27 13.75L27 13.25A0.25 0.25 0 0 0 26.75 13L26.25 13A0.25 0.25 0 0 0 26 13.25ZM18 15.25L18 15.75A0.25 0.25 0 0 0 18.25 16L18.75 16A0.25 0.25 0 0 0 19 15.75L19 15.25A0.25 0.25 0 0 0 18.75 15L18.25 15A0.25 0.25 0 0 0 18 15.25ZM23 16.25L23 17.75A0.25 0.25 0 0 1 22.75 18L22.25 18A0.25 0.25 0 0 0 22 18.25L22 18.75A0.25 0.25 0 0 1 21.75 19L21.25 19A0.25 0.25 0 0 0 21 19.25L21 20.75A0.25 0.25 0 0 0 21.25 21L21.75 21A0.25 0.25 0 0 1 22 21.25L22 21.75A0.25 0.25 0 0 1 21.75 22L21.25 22A0.25 0.25 0 0 0 21 22.25L21 24.75A0.25 0.25 0 0 1 20.75 25L19.25 25A0.25 0.25 0 0 1 19 24.75L19 24.25A0.25 0.25 0 0 1 19.25 24L19.75 24A0.25 0.25 0 0 0 20 23.75L20 22.25A0.25 0.25 0 0 0 19.75 22L19.25 22A0.25 0.25 0 0 1 19 21.75L19 21.25A0.25 0.25 0 0 0 18.75 21L18.25 21A0.25 0.25 0 0 1 18 20.75L18 20.25A0.25 0.25 0 0 1 18.25 20L18.75 20A0.25 0.25 0 0 0 19 19.75L19 19.25A0.25 0.25 0 0 0 18.75 19L18.25 19A0.25 0.25 0 0 0 18 19.25L18 19.75A0.25 0.25 0 0 1 17.75 20L17.25 20A0.25 0.25 0 0 1 17 19.75L17 19.25A0.25 0.25 0 0 0 16.75 19L16.25 19A0.25 0.25 0 0 0 16 19.25L16 19.75A0.25 0.25 0 0 1 15.75 20L15.25 20A0.25 0.25 0 0 1 15 19.75L15 19.25A0.25 0.25 0 0 0 14.75 19L14.25 19A0.25 0.25 0 0 0 14 19.25L14 20.75A0.25 0.25 0 0 1 13.75 21L13.25 21A0.25 0.25 0 0 0 13 21.25L13 21.75A0.25 0.25 0 0 1 12.75 22L12.25 22A0.25 0.25 0 0 0 12 22.25L12 22.75A0.25 0.25 0 0 1 11.75 23L11.25 23A0.25 0.25 0 0 0 11 23.25L11 23.75A0.25 0.25 0 0 0 11.25 24L11.75 24A0.25 0.25 0 0 1 12 24.25L12 24.75A0.25 0.25 0 0 1 11.75 25L11.25 25A0.25 0.25 0 0 0 11 25.25L11 25.75A0.25 0.25 0 0 0 11.25 26L11.75 26A0.25 0.25 0 0 0 12 25.75L12 25.25A0.25 0.25 0 0 1 12.25 25L13.75 25A0.25 0.25 0 0 0 14 24.75L14 24.25A0.25 0.25 0 0 0 13.75 24L12.25 24A0.25 0.25 0 0 1 12 23.75L12 23.25A0.25 0.25 0 0 1 12.25 23L12.75 23A0.25 0.25 0 0 0 13 22.75L13 22.25A0.25 0.25 0 0 1 13.25 22L13.75 22A0.25 0.25 0 0 1 14 22.25L14 22.75A0.25 0.25 0 0 0 14.25 23L15.75 23A0.25 0.25 0 0 0 16 22.75L16 22.25A0.25 0.25 0 0 0 15.75 22L15.25 22A0.25 0.25 0 0 1 15 21.75L15 21.25A0.25 0.25 0 0 1 15.25 21L15.75 21A0.25 0.25 0 0 0 16 20.75L16 20.25A0.25 0.25 0 0 1 16.25 20L16.75 20A0.25 0.25 0 0 1 17 20.25L17 20.75A0.25 0.25 0 0 0 17.25 21L17.75 21A0.25 0.25 0 0 1 18 21.25L18 21.75A0.25 0.25 0 0 0 18.25 22L18.75 22A0.25 0.25 0 0 1 19 22.25L19 23.75A0.25 0.25 0 0 1 18.75 24L18.25 24A0.25 0.25 0 0 1 18 23.75L18 23.25A0.25 0.25 0 0 0 17.75 23L17.25 23A0.25 0.25 0 0 0 17 23.25L17 23.75A0.25 0.25 0 0 1 16.75 24L15.25 24A0.25 0.25 0 0 0 15 24.25L15 24.75A0.25 0.25 0 0 0 15.25 25L15.75 25A0.25 0.25 0 0 1 16 25.25L16 25.75A0.25 0.25 0 0 0 16.25 26L16.75 26A0.25 0.25 0 0 1 17 26.25L17 26.75A0.25 0.25 0 0 0 17.25 27L18.75 27A0.25 0.25 0 0 0 19 26.75L19 26.25A0.25 0.25 0 0 1 19.25 26L20.75 26A0.25 0.25 0 0 0 21 25.75L21 25.25A0.25 0.25 0 0 1 21.25 25L21.75 25A0.25 0.25 0 0 0 22 24.75L22 23.25A0.25 0.25 0 0 1 22.25 23L22.75 23A0.25 0.25 0 0 1 23 23.25L23 23.75A0.25 0.25 0 0 0 23.25 24L23.75 24A0.25 0.25 0 0 0 24 23.75L24 23.25A0.25 0.25 0 0 1 24.25 23L24.75 23A0.25 0.25 0 0 1 25 23.25L25 23.75A0.25 0.25 0 0 0 25.25 24L27.75 24A0.25 0.25 0 0 0 28 23.75L28 23.25A0.25 0.25 0 0 1 28.25 23L28.75 23A0.25 0.25 0 0 1 29 23.25L29 23.75A0.25 0.25 0 0 0 29.25 24L29.75 24A0.25 0.25 0 0 1 30 24.25L30 24.75A0.25 0.25 0 0 1 29.75 25L29.25 25A0.25 0.25 0 0 0 29 25.25L29 28.75A0.25 0.25 0 0 1 28.75 29L28.25 29A0.25 0.25 0 0 0 28 29.25L28 29.75A0.25 0.25 0 0 0 28.25 30L28.75 30A0.25 0.25 0 0 1 29 30.25L29 30.75A0.25 0.25 0 0 0 29.25 31L30.75 31A0.25 0.25 0 0 0 31 30.75L31 30.25A0.25 0.25 0 0 1 31.25 30L31.75 30A0.25 0.25 0 0 0 32 29.75L32 29.25A0.25 0.25 0 0 0 31.75 29L31.25 29A0.25 0.25 0 0 1 31 28.75L31 28.25A0.25 0.25 0 0 0 30.75 28L30.25 28A0.25 0.25 0 0 1 30 27.75L30 25.25A0.25 0.25 0 0 1 30.25 25L30.75 25A0.25 0.25 0 0 0 31 24.75L31 24.25A0.25 0.25 0 0 1 31.25 24L31.75 24A0.25 0.25 0 0 0 32 23.75L32 22.25A0.25 0.25 0 0 0 31.75 22L30.25 22A0.25 0.25 0 0 1 30 21.75L30 21.25A0.25 0.25 0 0 0 29.75 21L29.25 21A0.25 0.25 0 0 0 29 21.25L29 21.75A0.25 0.25 0 0 1 28.75 22L27.25 22A0.25 0.25 0 0 0 27 22.25L27 22.75A0.25 0.25 0 0 1 26.75 23L26.25 23A0.25 0.25 0 0 1 26 22.75L26 22.25A0.25 0.25 0 0 0 25.75 22L24.25 22A0.25 0.25 0 0 0 24 22.25L24 22.75A0.25 0.25 0 0 1 23.75 23L23.25 23A0.25 0.25 0 0 1 23 22.75L23 21.25A0.25 0.25 0 0 0 22.75 21L22.25 21A0.25 0.25 0 0 1 22 20.75L22 20.25A0.25 0.25 0 0 1 22.25 20L22.75 20A0.25 0.25 0 0 0 23 19.75L23 18.25A0.25 0.25 0 0 1 23.25 18L23.75 18A0.25 0.25 0 0 0 24 17.75L24 16.25A0.25 0.25 0 0 0 23.75 16L23.25 16A0.25 0.25 0 0 0 23 16.25ZM30 17.25L30 17.75A0.25 0.25 0 0 0 30.25 18L30.75 18A0.25 0.25 0 0 1 31 18.25L31 18.75A0.25 0.25 0 0 0 31.25 19L31.75 19A0.25 0.25 0 0 0 32 18.75L32 18.25A0.25 0.25 0 0 0 31.75 18L31.25 18A0.25 0.25 0 0 1 31 17.75L31 17.25A0.25 0.25 0 0 0 30.75 17L30.25 17A0.25 0.25 0 0 0 30 17.25ZM2 18.25L2 20.75A0.25 0.25 0 0 1 1.75 21L1.25 21A0.25 0.25 0 0 0 1 21.25L1 23.75A0.25 0.25 0 0 0 1.25 24L1.75 24A0.25 0.25 0 0 0 2 23.75L2 23.25A0.25 0.25 0 0 1 2.25 23L2.75 23A0.25 0.25 0 0 1 3 23.25L3 23.75A0.25 0.25 0 0 0 3.25 24L4.75 24A0.25 0.25 0 0 0 5 23.75L5 23.25A0.25 0.25 0 0 1 5.25 23L5.75 23A0.25 0.25 0 0 0 6 22.75L6 22.25A0.25 0.25 0 0 1 6.25 22L6.75 22A0.25 0.25 0 0 0 7 21.75L7 21.25A0.25 0.25 0 0 0 6.75 21L6.25 21A0.25 0.25 0 0 1 6 20.75L6 20.25A0.25 0.25 0 0 1 6.25 20L6.75 20A0.25 0.25 0 0 0 7 19.75L7 19.25A0.25 0.25 0 0 0 6.75 19L6.25 19A0.25 0.25 0 0 0 6 19.25L6 19.75A0.25 0.25 0 0 1 5.75 20L5.25 20A0.25 0.25 0 0 0 5 20.25L5 20.75A0.25 0.25 0 0 1 4.75 21L4.25 21A0.25 0.25 0 0 1 4 20.75L4 19.25A0.25 0.25 0 0 0 3.75 19L3.25 19A0.25 0.25 0 0 1 3 18.75L3 18.25A0.25 0.25 0 0 0 2.75 18L2.25 18A0.25 0.25 0 0 0 2 18.25ZM3 22.25L3 22.75A0.25 0.25 0 0 0 3.25 23L3.75 23A0.25 0.25 0 0 0 4 22.75L4 22.25A0.25 0.25 0 0 0 3.75 22L3.25 22A0.25 0.25 0 0 0 3 22.25ZM30 23.25L30 23.75A0.25 0.25 0 0 0 30.25 24L30.75 24A0.25 0.25 0 0 0 31 23.75L31 23.25A0.25 0.25 0 0 0 30.75 23L30.25 23A0.25 0.25 0 0 0 30 23.25ZM18 25.25L18 25.75A0.25 0.25 0 0 0 18.25 26L18.75 26A0.25 0.25 0 0 0 19 25.75L19 25.25A0.25 0.25 0 0 0 18.75 25L18.25 25A0.25 0.25 0 0 0 18 25.25ZM23 25.25L23 25.75A0.25 0.25 0 0 1 22.75 26L22.25 26A0.25 0.25 0 0 0 22 26.25L22 26.75A0.25 0.25 0 0 1 21.75 27L20.25 27A0.25 0.25 0 0 0 20 27.25L20 28.75A0.25 0.25 0 0 1 19.75 29L19.25 29A0.25 0.25 0 0 0 19 29.25L19 29.75A0.25 0.25 0 0 0 19.25 30L19.75 30A0.25 0.25 0 0 0 20 29.75L20 29.25A0.25 0.25 0 0 1 20.25 29L20.75 29A0.25 0.25 0 0 1 21 29.25L21 29.75A0.25 0.25 0 0 0 21.25 30L21.75 30A0.25 0.25 0 0 0 22 29.75L22 29.25A0.25 0.25 0 0 1 22.25 29L22.75 29A0.25 0.25 0 0 0 23 28.75L23 28.25A0.25 0.25 0 0 0 22.75 28L22.25 28A0.25 0.25 0 0 1 22 27.75L22 27.25A0.25 0.25 0 0 1 22.25 27L22.75 27A0.25 0.25 0 0 0 23 26.75L23 26.25A0.25 0.25 0 0 1 23.25 26L23.75 26A0.25 0.25 0 0 0 24 25.75L24 25.25A0.25 0.25 0 0 0 23.75 25L23.25 25A0.25 0.25 0 0 0 23 25.25ZM25 25.25L25 27.75A0.25 0.25 0 0 0 25.25 28L27.75 28A0.25 0.25 0 0 0 28 27.75L28 25.25A0.25 0.25 0 0 0 27.75 25L25.25 25A0.25 0.25 0 0 0 25 25.25ZM26 26.25L26 26.75A0.25 0.25 0 0 0 26.25 27L26.75 27A0.25 0.25 0 0 0 27 26.75L27 26.25A0.25 0.25 0 0 0 26.75 26L26.25 26A0.25 0.25 0 0 0 26 26.25ZM10 27.25L10 27.75A0.25 0.25 0 0 0 10.25 28L10.75 28A0.25 0.25 0 0 0 11 27.75L11 27.25A0.25 0.25 0 0 0 10.75 27L10.25 27A0.25 0.25 0 0 0 10 27.25ZM21 28.25L21 28.75A0.25 0.25 0 0 0 21.25 29L21.75 29A0.25 0.25 0 0 0 22 28.75L22 28.25A0.25 0.25 0 0 0 21.75 28L21.25 28A0.25 0.25 0 0 0 21 28.25ZM30 29.25L30 29.75A0.25 0.25 0 0 0 30.25 30L30.75 30A0.25 0.25 0 0 0 31 29.75L31 29.25A0.25 0.25 0 0 0 30.75 29L30.25 29A0.25 0.25 0 0 0 30 29.25ZM14 30.25L14 31.75A0.25 0.25 0 0 1 13.75 32L11.25 32A0.25 0.25 0 0 0 11 32.25L11 32.75A0.25 0.25 0 0 0 11.25 33L14.75 33A0.25 0.25 0 0 0 15 32.75L15 30.25A0.25 0.25 0 0 0 14.75 30L14.25 30A0.25 0.25 0 0 0 14 30.25ZM17 31.25L17 31.75A0.25 0.25 0 0 0 17.25 32L18.75 32A0.25 0.25 0 0 0 19 31.75L19 31.25A0.25 0.25 0 0 0 18.75 31L17.25 31A0.25 0.25 0 0 0 17 31.25ZM9 32.25L9 32.75A0.25 0.25 0 0 0 9.25 33L9.75 33A0.25 0.25 0 0 0 10 32.75L10 32.25A0.25 0.25 0 0 0 9.75 32L9.25 32A0.25 0.25 0 0 0 9 32.25ZM0 0.25L0 6.75A0.25 0.25 0 0 0 0.25 7L6.75 7A0.25 0.25 0 0 0 7 6.75L7 0.25A0.25 0.25 0 0 0 6.75 0L0.25 0A0.25 0.25 0 0 0 0 0.25ZM1 1.25L1 5.75A0.25 0.25 0 0 0 1.25 6L5.75 6A0.25 0.25 0 0 0 6 5.75L6 1.25A0.25 0.25 0 0 0 5.75 1L1.25 1A0.25 0.25 0 0 0 1 1.25ZM2 2.25L2 4.75A0.25 0.25 0 0 0 2.25 5L4.75 5A0.25 0.25 0 0 0 5 4.75L5 2.25A0.25 0.25 0 0 0 4.75 2L2.25 2A0.25 0.25 0 0 0 2 2.25ZM26 0.25L26 6.75A0.25 0.25 0 0 0 26.25 7L32.75 7A0.25 0.25 0 0 0 33 6.75L33 0.25A0.25 0.25 0 0 0 32.75 0L26.25 0A0.25 0.25 0 0 0 26 0.25ZM27 1.25L27 5.75A0.25 0.25 0 0 0 27.25 6L31.75 6A0.25 0.25 0 0 0 32 5.75L32 1.25A0.25 0.25 0 0 0 31.75 1L27.25 1A0.25 0.25 0 0 0 27 1.25ZM28 2.25L28 4.75A0.25 0.25 0 0 0 28.25 5L30.75 5A0.25 0.25 0 0 0 31 4.75L31 2.25A0.25 0.25 0 0 0 30.75 2L28.25 2A0.25 0.25 0 0 0 28 2.25ZM0 26.25L0 32.75A0.25 0.25 0 0 0 0.25 33L6.75 33A0.25 0.25 0 0 0 7 32.75L7 26.25A0.25 0.25 0 0 0 6.75 26L0.25 26A0.25 0.25 0 0 0 0 26.25ZM1 27.25L1 31.75A0.25 0.25 0 0 0 1.25 32L5.75 32A0.25 0.25 0 0 0 6 31.75L6 27.25A0.25 0.25 0 0 0 5.75 27L1.25 27A0.25 0.25 0 0 0 1 27.25ZM2 28.25L2 30.75A0.25 0.25 0 0 0 2.25 31L4.75 31A0.25 0.25 0 0 0 5 30.75L5 28.25A0.25 0.25 0 0 0 4.75 28L2.25 28A0.25 0.25 0 0 0 2 28.25Z" fill="#000000"/></g></g></svg>
