<?xml version="1.0" encoding="UTF-8"?>
<svg xmlns="http://www.w3.org/2000/svg" version="1.1" width="500" height="500" viewBox="0 0 500 500"><rect x="0" y="0" width="500" height="500" fill="#ffffff"/><g transform="scale(15.152)"><g transform="translate(0,0)"><path fill-rule="evenodd" d="M10 0.25L10 0.75A0.25 0.25 0 0 1 9.75 1L8.25 1A0.25 0.25 0 0 0 8 1.25L8 6.75A0.25 0.25 0 0 0 8.25 7L8.75 7A0.25 0.25 0 0 0 9 6.75L9 5.25A0.25 0.25 0 0 1 9.25 5L9.75 5A0.25 0.25 0 0 0 10 4.75L10 4.25A0.25 0.25 0 0 1 10.25 4L10.75 4A0.25 0.25 0 0 0 11 3.75L11 3.25A0.25 0.25 0 0 1 11.25 3L11.75 3A0.25 0.25 0 0 0 12 2.75L12 2.25A0.25 0.25 0 0 1 12.25 2L12.75 2A0.25 0.25 0 0 1 13 2.25L13 2.75A0.25 0.25 0 0 0 13.25 3L13.75 3A0.25 0.25 0 0 1 14 3.25L14 4.75A0.25 0.25 0 0 1 13.75 5L13.25 5A0.25 0.25 0 0 1 13 4.75L13 4.25A0.25 0.25 0 0 0 12.75 4L12.25 4A0.25 0.25 0 0 0 12 4.25L12 4.75A0.25 0.25 0 0 1 11.75 5L11.25 5A0.25 0.25 0 0 0 11 5.25L11 5.75A0.25 0.25 0 0 1 10.75 6L10.25 6A0.25 0.25 0 0 0 10 6.25L10 7.75A0.25 0.25 0 0 1 9.75 8L5.25 8A0.25 0.25 0 0 0 5 8.25L5 8.75A0.25 0.25 0 0 1 4.75 9L3.25 9A0.25 0.25 0 0 1 3 8.75L3 8.25A0.25 0.25 0 0 0 2.75 8L2.25 8A0.25 0.25 0 0 0 2 8.25L2 8.75A0.25 0.25 0 0 0 2.25 9L2.75 9A0.25 0.25 0 0 1 3 9.25L3 10.75A0.25 0.25 0 0 1 2.75 11L2.25 11A0.25 0.25 0 0 0 2 11.25L2 13.75A0.25 0.25 0 0 0 2.25 14L2.75 14A0.25 0.25 0 0 1 3 14.25L3 14.75A0.25 0.25 0 0 1 2.75 15L2.25 15A0.25 0.25 0 0 0 2 15.25L2 15.75A0.25 0.25 0 0 1 1.75 16L0.25 16A0.25 0.25 0 0 0 0 16.25L0 18.75A0.25 0.25 0 0 0 0.25 19L0.75 19A0.25 0.25 0 0 0 1 18.75L1 18.25A0.25 0.25 0 0 1 1.25 18L1.75 18A0.25 0.25 0 0 0 2 17.75L2 16.25A0.25 0.25 0 0 1 2.25 16L2.75 16A0.25 0.25 0 0 1 3 16.25L3 16.75A0.25 0.25 0 0 0 3.25 17L3.75 17A0.25 0.25 0 0 1 4 17.25L4 17.75A0.25 0.25 0 0 1 3.75 18L3.25 18A0.25 0.25 0 0 0 3 18.25L3 18.75A0.25 0.25 0 0 0 3.25 19L6.75 19A0.25 0.25 0 0 1 7 19.25L7 19.75A0.25 0.25 0 0 1 6.75 20L4.25 20A0.25 0.25 0 0 0 4 20.25L4 21.75A0.25 0.25 0 0 1 3.75 22L3.25 22A0.25 0.25 0 0 1 3 21.75L3 21.25A0.25 0.25 0 0 0 2.75 21L2.25 21A0.25 0.25 0 0 1 2 20.75L2 20.25A0.25 0.25 0 0 0 1.75 20L0.25 20A0.25 0.25 0 0 0 0 20.25L0 20.75A0.25 0.25 0 0 0 0.25 21L0.75 21A0.25 0.25 0 0 1 1 21.25L1 21.75A0.25 0.25 0 0 1 0.75 22L0.25 22A0.25 0.25 0 0 0 0 22.25L0 22.75A0.25 0.25 0 0 0 0.25 23L1.75 23A0.25 0.25 0 0 1 2 23.25L2 23.75A0.25 0.25 0 0 1 1.75 24L0.25 24A0.25 0.25 0 0 0 0 24.25L0 24.75A0.25 0.25 0 0 0 0.25 25L4.75 25A0.25 0.25 0 0 0 5 24.75L5 21.25A0.25 0.25 0 0 1 5.25 21L6.75 21A0.25 0.25 0 0 1 7 21.25L7 21.75A0.25 0.25 0 0 1 6.75 22L6.25 22A0.25 0.25 0 0 0 6 22.25L6 22.75A0.25 0.25 0 0 0 6.25 23L8.75 23A0.25 0.25 0 0 1 9 23.25L9 23.75A0.25 0.25 0 0 1 8.75 24L6.25 24A0.25 0.25 0 0 0 6 24.25L6 24.75A0.25 0.25 0 0 0 6.25 25L7.75 25A0.25 0.25 0 0 1 8 25.25L8 27.75A0.25 0.25 0 0 0 8.25 28L8.75 28A0.25 0.25 0 0 1 9 28.25L9 28.75A0.25 0.25 0 0 0 9.25 29L9.75 29A0.25 0.25 0 0 1 10 29.25L10 30.75A0.25 0.25 0 0 0 10.25 31L11.75 31A0.25 0.25 0 0 1 12 31.25L12 32.75A0.25 0.25 0 0 0 12.25 33L13.75 33A0.25 0.25 0 0 0 14 32.75L14 31.25A0.25 0.25 0 0 1 14.25 31L14.75 31A0.25 0.25 0 0 0 15 30.75L15 30.25A0.25 0.25 0 0 0 14.75 30L14.25 30A0.25 0.25 0 0 0 14 30.25L14 30.75A0.25 0.25 0 0 1 13.75 31L12.25 31A0.25 0.25 0 0 1 12 30.75L12 30.25A0.25 0.25 0 0 1 12.25 30L12.75 30A0.25 0.25 0 0 0 13 29.75L13 28.25A0.25 0.25 0 0 0 12.75 28L12.25 28A0.25 0.25 0 0 1 12 27.75L12 26.25A0.25 0.25 0 0 1 12.25 26L12.75 26A0.25 0.25 0 0 1 13 26.25L13 26.75A0.25 0.25 0 0 0 13.25 27L13.75 27A0.25 0.25 0 0 0 14 26.75L14 26.25A0.25 0.25 0 0 0 13.75 26L13.25 26A0.25 0.25 0 0 1 13 25.75L13 25.25A0.25 0.25 0 0 1 13.25 25L14.75 25A0.25 0.25 0 0 1 15 25.25L15 26.75A0.25 0.25 0 0 0 15.25 27L15.75 27A0.25 0.25 0 0 1 16 27.25L16 31.75A0.25 0.25 0 0 0 16.25 32L16.75 32A0.25 0.25 0 0 0 17 31.75L17 31.25A0.25 0.25 0 0 1 17.25 31L17.75 31A0.25 0.25 0 0 1 18 31.25L18 32.75A0.25 0.25 0 0 0 18.25 33L20.75 33A0.25 0.25 0 0 0 21 32.75L21 32.25A0.25 0.25 0 0 0 20.75 32L19.25 32A0.25 0.25 0 0 1 19 31.75L19 31.25A0.25 0.25 0 0 1 19.25 31L21.75 31A0.25 0.25 0 0 1 22 31.25L22 32.75A0.25 0.25 0 0 0 22.25 33L22.75 33A0.25 0.25 0 0 0 23 32.75L23 30.25A0.25 0.25 0 0 1 23.25 30L24.75 30A0.25 0.25 0 0 0 25 29.75L25 29.25A0.25 0.25 0 0 1 25.25 29L26.75 29A0.25 0.25 0 0 1 27 29.25L27 29.75A0.25 0.25 0 0 0 27.25 30L27.75 30A0.25 0.25 0 0 1 28 30.25L28 30.75A0.25 0.25 0 0 0 28.25 31L28.75 31A0.25 0.25 0 0 1 29 31.25L29 31.75A0.25 0.25 0 0 1 28.75 32L28.25 32A0.25 0.25 0 0 0 28 32.25L28 32.75A0.25 0.25 0 0 0 28.25 33L30.75 33A0.25 0.25 0 0 0 31 32.75L31 32.25A0.25 0.25 0 0 0 30.75 32L30.25 32A0.25 0.25 0 0 1 30 31.75L30 31.25A0.25 0.25 0 0 1 30.25 31L32.75 31A0.25 0.25 0 0 0 33 30.75L33 29.25A0.25 0.25 0 0 0 32.75 29L32.25 29A0.25 0.25 0 0 0 32 29.25L32 29.75A0.25 0.25 0 0 1 31.75 30L29.25 30A0.25 0.25 0 0 1 29 29.75L29 27.25A0.25 0.25 0 0 1 29.25 27L30.75 27A0.25 0.25 0 0 0 31 26.75L31 26.25A0.25 0.25 0 0 0 30.75 26L29.25 26A0.25 0.25 0 0 1 29 25.75L29 25.25A0.25 0.25 0 0 1 29.25 25L29.75 25A0.25 0.25 0 0 0 30 24.75L30 23.25A0.25 0.25 0 0 0 29.75 23L29.25 23A0.25 0.25 0 0 1 29 22.75L29 22.25A0.25 0.25 0 0 0 28.75 22L28.25 22A0.25 0.25 0 0 1 28 21.75L28 20.25A0.25 0.25 0 0 0 27.75 20L27.25 20A0.25 0.25 0 0 1 27 19.75L27 19.25A0.25 0.25 0 0 1 27.25 19L28.75 19A0.25 0.25 0 0 1 29 19.25L29 19.75A0.25 0.25 0 0 0 29.25 20L29.75 20A0.25 0.25 0 0 0 30 19.75L30 19.25A0.25 0.25 0 0 1 30.25 19L30.75 19A0.25 0.25 0 0 0 31 18.75L31 18.25A0.25 0.25 0 0 1 31.25 18L31.75 18A0.25 0.25 0 0 1 32 18.25L32 19.75A0.25 0.25 0 0 1 31.75 20L31.25 20A0.25 0.25 0 0 0 31 20.25L31 22.75A0.25 0.25 0 0 0 31.25 23L31.75 23A0.25 0.25 0 0 1 32 23.25L32 23.75A0.25 0.25 0 0 1 31.75 24L31.25 24A0.25 0.25 0 0 0 31 24.25L31 24.75A0.25 0.25 0 0 0 31.25 25L31.75 25A0.25 0.25 0 0 1 32 25.25L32 26.75A0.25 0.25 0 0 0 32.25 27L32.75 27A0.25 0.25 0 0 0 33 26.75L33 25.25A0.25 0.25 0 0 0 32.75 25L32.25 25A0.25 0.25 0 0 1 32 24.75L32 24.25A0.25 0.25 0 0 1 32.25 24L32.75 24A0.25 0.25 0 0 0 33 23.75L33 21.25A0.25 0.25 0 0 0 32.75 21L32.25 21A0.25 0.25 0 0 1 32 20.75L32 20.25A0.25 0.25 0 0 1 32.25 20L32.75 20A0.25 0.25 0 0 0 33 19.75L33 18.25A0.25 0.25 0 0 0 32.75 18L32.25 18A0.25 0.25 0 0 1 32 17.75L32 17.25A0.25 0.25 0 0 1 32.25 17L32.75 17A0.25 0.25 0 0 0 33 16.75L33 13.25A0.25 0.25 0 0 0 32.75 13L32.25 13A0.25 0.25 0 0 0 32 13.25L32 15.75A0.25 0.25 0 0 1 31.75 16L31.25 16A0.25 0.25 0 0 0 31 16.25L31 16.75A0.25 0.25 0 0 1 30.75 17L30.25 17A0.25 0.25 0 0 0 30 17.25L30 17.75A0.25 0.25 0 0 1 29.75 18L27.25 18A0.25 0.25 0 0 1 27 17.75L27 16.25A0.25 0.25 0 0 0 26.75 16L25.25 16A0.25 0.25 0 0 1 25 15.75L25 15.25A0.25 0.25 0 0 1 25.25 15L26.75 15A0.25 0.25 0 0 0 27 14.75L27 14.25A0.25 0.25 0 0 1 27.25 14L27.75 14A0.25 0.25 0 0 0 28 13.75L28 13.25A0.25 0.25 0 0 1 28.25 13L28.75 13A0.25 0.25 0 0 0 29 12.75L29 12.25A0.25 0.25 0 0 0 28.75 12L28.25 12A0.25 0.25 0 0 1 28 11.75L28 11.25A0.25 0.25 0 0 1 28.25 11L30.75 11A0.25 0.25 0 0 1 31 11.25L31 11.75A0.25 0.25 0 0 0 31.25 12L32.75 12A0.25 0.25 0 0 0 33 11.75L33 9.25A0.25 0.25 0 0 0 32.75 9L32.25 9A0.25 0.25 0 0 1 32 8.75L32 8.25A0.25 0.25 0 0 0 31.75 8L27.25 8A0.25 0.25 0 0 0 27 8.25L27 8.75A0.25 0.25 0 0 1 26.75 9L26.25 9A0.25 0.25 0 0 1 26 8.75L26 8.25A0.25 0.25 0 0 0 25.75 8L25.25 8A0.25 0.25 0 0 1 25 7.75L25 5.25A0.25 0.25 0 0 0 24.75 5L24.25 5A0.25 0.25 0 0 0 24 5.25L24 7.75A0.25 0.25 0 0 1 23.75 8L23.25 8A0.25 0.25 0 0 1 23 7.75L23 6.25A0.25 0.25 0 0 0 22.75 6L22.25 6A0.25 0.25 0 0 0 22 6.25L22 7.75A0.25 0.25 0 0 1 21.75 8L21.25 8A0.25 0.25 0 0 1 21 7.75L21 5.25A0.25 0.25 0 0 1 21.25 5L21.75 5A0.25 0.25 0 0 0 22 4.75L22 4.25A0.25 0.25 0 0 1 22.25 4L24.75 4A0.25 0.25 0 0 0 25 3.75L25 3.25A0.25 0.25 0 0 0 24.75 3L22.25 3A0.25 0.25 0 0 1 22 2.75L22 1.25A0.25 0.25 0 0 1 22.25 1L22.75 1A0.25 0.25 0 0 0 23 0.75L23 0.25A0.25 0.25 0 0 0 22.75 0L21.25 0A0.25 0.25 0 0 0 21 0.25L21 0.75A0.25 0.25 0 0 1 20.75 1L19.25 1A0.25 0.25 0 0 1 19 0.75L19 0.25A0.25 0.25 0 0 0 18.75 0L18.25 0A0.25 0.25 0 0 0 18 0.25L18 0.75A0.25 0.25 0 0 1 17.75 1L17.25 1A0.25 0.25 0 0 1 17 0.75L17 0.25A0.25 0.25 0 0 0 16.75 0L15.25 0A0.25 0.25 0 0 0 15 0.25L15 0.75A0.25 0.25 0 0 1 14.75 1L14.25 1A0.25 0.25 0 0 1 14 0.75L14 0.25A0.25 0.25 0 0 0 13.75 0L10.25 0A0.25 0.25 0 0 0 10 0.25ZM24 0.25L24 1.75A0.25 0.25 0 0 0 24.25 2L24.75 2A0.25 0.25 0 0 0 25 1.75L25 0.25A0.25 0.25 0 0 0 24.75 0L24.25 0A0.25 0.25 0 0 0 24 0.25ZM10 1.25L10 2.75A0.25 0.25 0 0 0 10.25 3L10.75 3A0.25 0.25 0 0 0 11 2.75L11 1.25A0.25 0.25 0 0 0 10.75 1L10.25 1A0.25 0.25 0 0 0 10 1.25ZM16 1.25L16 1.75A0.25 0.25 0 0 1 15.75 2L14.25 2A0.25 0.25 0 0 0 14 2.25L14 2.75A0.25 0.25 0 0 0 14.25 3L15.75 3A0.25 0.25 0 0 1 16 3.25L16 3.75A0.25 0.25 0 0 0 16.25 4L16.75 4A0.25 0.25 0 0 1 17 4.25L17 4.75A0.25 0.25 0 0 1 16.75 5L16.25 5A0.25 0.25 0 0 0 16 5.25L16 5.75A0.25 0.25 0 0 1 15.75 6L15.25 6A0.25 0.25 0 0 0 15 6.25L15 6.75A0.25 0.25 0 0 0 15.25 7L15.75 7A0.25 0.25 0 0 0 16 6.75L16 6.25A0.25 0.25 0 0 1 16.25 6L16.75 6A0.25 0.25 0 0 1 17 6.25L17 7.75A0.25 0.25 0 0 0 17.25 8L17.75 8A0.25 0.25 0 0 0 18 7.75L18 6.25A0.25 0.25 0 0 1 18.25 6L18.75 6A0.25 0.25 0 0 1 19 6.25L19 7.75A0.25 0.25 0 0 0 19.25 8L19.75 8A0.25 0.25 0 0 1 20 8.25L20 8.75A0.25 0.25 0 0 1 19.75 9L19.25 9A0.25 0.25 0 0 0 19 9.25L19 9.75A0.25 0.25 0 0 0 19.25 10L19.75 10A0.25 0.25 0 0 1 20 10.25L20 13.75A0.25 0.25 0 0 0 20.25 14L20.75 14A0.25 0.25 0 0 1 21 14.25L21 14.75A0.25 0.25 0 0 1 20.75 15L20.25 15A0.25 0.25 0 0 0 20 15.25L20 15.75A0.25 0.25 0 0 1 19.75 16L19.25 16A0.25 0.25 0 0 0 19 16.25L19 17.75A0.25 0.25 0 0 0 19.25 18L21.75 18A0.25 0.25 0 0 1 22 18.25L22 18.75A0.25 0.25 0 0 1 21.75 19L19.25 19A0.25 0.25 0 0 0 19 19.25L19 19.75A0.25 0.25 0 0 0 19.25 20L20.75 20A0.25 0.25 0 0 1 21 20.25L21 20.75A0.25 0.25 0 0 1 20.75 21L20.25 21A0.25 0.25 0 0 0 20 21.25L20 21.75A0.25 0.25 0 0 1 19.75 22L18.25 22A0.25 0.25 0 0 1 18 21.75L18 21.25A0.25 0.25 0 0 0 17.75 21L17.25 21A0.25 0.25 0 0 1 17 20.75L17 19.25A0.25 0.25 0 0 0 16.75 19L16.25 19A0.25 0.25 0 0 0 16 19.25L16 19.75A0.25 0.25 0 0 1 15.75 20L15.25 20A0.25 0.25 0 0 0 15 20.25L15 20.75A0.25 0.25 0 0 0 15.25 21L16.75 21A0.25 0.25 0 0 1 17 21.25L17 21.75A0.25 0.25 0 0 1 16.75 22L14.25 22A0.25 0.25 0 0 1 14 21.75L14 21.25A0.25 0.25 0 0 0 13.75 21L13.25 21A0.25 0.25 0 0 1 13 20.75L13 20.25A0.25 0.25 0 0 1 13.25 20L13.75 20A0.25 0.25 0 0 0 14 19.75L14 19.25A0.25 0.25 0 0 0 13.75 19L13.25 19A0.25 0.25 0 0 1 13 18.75L13 18.25A0.25 0.25 0 0 1 13.25 18L14.75 18A0.25 0.25 0 0 0 15 17.75L15 17.25A0.25 0.25 0 0 1 15.25 17L15.75 17A0.25 0.25 0 0 0 16 16.75L16 16.25A0.25 0.25 0 0 1 16.25 16L16.75 16A0.25 0.25 0 0 0 17 15.75L17 14.25A0.25 0.25 0 0 0 16.75 14L16.25 14A0.25 0.25 0 0 1 16 13.75L16 12.25A0.25 0.25 0 0 0 15.75 12L15.25 12A0.25 0.25 0 0 0 15 12.25L15 15.75A0.25 0.25 0 0 1 14.75 16L14.25 16A0.25 0.25 0 0 0 14 16.25L14 16.75A0.25 0.25 0 0 1 13.75 17L13.25 17A0.25 0.25 0 0 0 13 17.25L13 17.75A0.25 0.25 0 0 1 12.75 18L11.25 18A0.25 0.25 0 0 1 11 17.75L11 16.25A0.25 0.25 0 0 1 11.25 16L12.75 16A0.25 0.25 0 0 0 13 15.75L13 15.25A0.25 0.25 0 0 1 13.25 15L13.75 15A0.25 0.25 0 0 0 14 14.75L14 13.25A0.25 0.25 0 0 0 13.75 13L12.25 13A0.25 0.25 0 0 1 12 12.75L12 12.25A0.25 0.25 0 0 1 12.25 12L12.75 12A0.25 0.25 0 0 0 13 11.75L13 11.25A0.25 0.25 0 0 1 13.25 11L13.75 11A0.25 0.25 0 0 0 14 10.75L14 10.25A0.25 0.25 0 0 1 14.25 10L14.75 10A0.25 0.25 0 0 0 15 9.75L15 9.25A0.25 0.25 0 0 0 14.75 9L14.25 9A0.25 0.25 0 0 1 14 8.75L14 8.25A0.25 0.25 0 0 0 13.75 8L13.25 8A0.25 0.25 0 0 1 13 7.75L13 7.25A0.25 0.25 0 0 1 13.25 7L13.75 7A0.25 0.25 0 0 0 14 6.75L14 6.25A0.25 0.25 0 0 0 13.75 6L13.25 6A0.25 0.25 0 0 1 13 5.75L13 5.25A0.25 0.25 0 0 0 12.75 5L12.25 5A0.25 0.25 0 0 0 12 5.25L12 5.75A0.25 0.25 0 0 1 11.75 6L11.25 6A0.25 0.25 0 0 0 11 6.25L11 6.75A0.25 0.25 0 0 0 11.25 7L11.75 7A0.25 0.25 0 0 1 12 7.25L12 7.75A0.25 0.25 0 0 1 11.75 8L10.25 8A0.25 0.25 0 0 0 10 8.25L10 8.75A0.25 0.25 0 0 0 10.25 9L10.75 9A0.25 0.25 0 0 1 11 9.25L11 10.75A0.25 0.25 0 0 1 10.75 11L10.25 11A0.25 0.25 0 0 0 10 11.25L10 12.75A0.25 0.25 0 0 1 9.75 13L9.25 13A0.25 0.25 0 0 1 9 12.75L9 12.25A0.25 0.25 0 0 0 8.75 12L7.25 12A0.25 0.25 0 0 1 7 11.75L7 11.25A0.25 0.25 0 0 1 7.25 11L7.75 11A0.25 0.25 0 0 0 8 10.75L8 10.25A0.25 0.25 0 0 1 8.25 10L8.75 10A0.25 0.25 0 0 0 9 9.75L9 9.25A0.25 0.25 0 0 0 8.75 9L6.25 9A0.25 0.25 0 0 0 6 9.25L6 9.75A0.25 0.25 0 0 1 5.75 10L4.25 10A0.25 0.25 0 0 0 4 10.25L4 10.75A0.25 0.25 0 0 1 3.75 11L3.25 11A0.25 0.25 0 0 0 3 11.25L3 13.75A0.25 0.25 0 0 0 3.25 14L3.75 14A0.25 0.25 0 0 1 4 14.25L4 14.75A0.25 0.25 0 0 1 3.75 15L3.25 15A0.25 0.25 0 0 0 3 15.25L3 15.75A0.25 0.25 0 0 0 3.25 16L4.75 16A0.25 0.25 0 0 1 5 16.25L5 17.75A0.25 0.25 0 0 0 5.25 18L7.75 18A0.25 0.25 0 0 1 8 18.25L8 19.75A0.25 0.25 0 0 0 8.25 20L8.75 20A0.25 0.25 0 0 1 9 20.25L9 20.75A0.25 0.25 0 0 1 8.75 21L8.25 21A0.25 0.25 0 0 0 8 21.25L8 21.75A0.25 0.25 0 0 0 8.25 22L9.75 22A0.25 0.25 0 0 0 10 21.75L10 21.25A0.25 0.25 0 0 1 10.25 21L10.75 21A0.25 0.25 0 0 1 11 21.25L11 21.75A0.25 0.25 0 0 0 11.25 22L11.75 22A0.25 0.25 0 0 1 12 22.25L12 22.75A0.25 0.25 0 0 1 11.75 23L10.25 23A0.25 0.25 0 0 0 10 23.25L10 23.75A0.25 0.25 0 0 1 9.75 24L9.25 24A0.25 0.25 0 0 0 9 24.25L9 25.75A0.25 0.25 0 0 0 9.25 26L9.75 26A0.25 0.25 0 0 0 10 25.75L10 24.25A0.25 0.25 0 0 1 10.25 24L10.75 24A0.25 0.25 0 0 1 11 24.25L11 25.75A0.25 0.25 0 0 0 11.25 26L11.75 26A0.25 0.25 0 0 0 12 25.75L12 25.25A0.25 0.25 0 0 1 12.25 25L12.75 25A0.25 0.25 0 0 0 13 24.75L13 24.25A0.25 0.25 0 0 1 13.25 24L13.75 24A0.25 0.25 0 0 0 14 23.75L14 23.25A0.25 0.25 0 0 1 14.25 23L14.75 23A0.25 0.25 0 0 1 15 23.25L15 24.75A0.25 0.25 0 0 0 15.25 25L16.75 25A0.25 0.25 0 0 0 17 24.75L17 24.25A0.25 0.25 0 0 1 17.25 24L18.75 24A0.25 0.25 0 0 0 19 23.75L19 23.25A0.25 0.25 0 0 1 19.25 23L19.75 23A0.25 0.25 0 0 0 20 22.75L20 22.25A0.25 0.25 0 0 1 20.25 22L20.75 22A0.25 0.25 0 0 1 21 22.25L21 24.75A0.25 0.25 0 0 0 21.25 25L21.75 25A0.25 0.25 0 0 1 22 25.25L22 25.75A0.25 0.25 0 0 0 22.25 26L22.75 26A0.25 0.25 0 0 1 23 26.25L23 26.75A0.25 0.25 0 0 1 22.75 27L21.25 27A0.25 0.25 0 0 1 21 26.75L21 26.25A0.25 0.25 0 0 0 20.75 26L20.25 26A0.25 0.25 0 0 0 20 26.25L20 26.75A0.25 0.25 0 0 0 20.25 27L20.75 27A0.25 0.25 0 0 1 21 27.25L21 27.75A0.25 0.25 0 0 1 20.75 28L19.25 28A0.25 0.25 0 0 1 19 27.75L19 27.25A0.25 0.25 0 0 0 18.75 27L17.25 27A0.25 0.25 0 0 1 17 26.75L17 26.25A0.25 0.25 0 0 0 16.75 26L16.25 26A0.25 0.25 0 0 0 16 26.25L16 26.75A0.25 0.25 0 0 0 16.25 27L16.75 27A0.25 0.25 0 0 1 17 27.25L17 29.75A0.25 0.25 0 0 0 17.25 30L17.75 30A0.25 0.25 0 0 0 18 29.75L18 28.25A0.25 0.25 0 0 1 18.25 28L18.75 28A0.25 0.25 0 0 1 19 28.25L19 29.75A0.25 0.25 0 0 0 19.25 30L19.75 30A0.25 0.25 0 0 0 20 29.75L20 29.25A0.25 0.25 0 0 1 20.25 29L20.75 29A0.25 0.25 0 0 1 21 29.25L21 29.75A0.25 0.25 0 0 0 21.25 30L22.75 30A0.25 0.25 0 0 0 23 29.75L23 29.25A0.25 0.25 0 0 0 22.75 29L21.25 29A0.25 0.25 0 0 1 21 28.75L21 28.25A0.25 0.25 0 0 1 21.25 28L22.75 28A0.25 0.25 0 0 0 23 27.75L23 27.25A0.25 0.25 0 0 1 23.25 27L23.75 27A0.25 0.25 0 0 0 24 26.75L24 26.25A0.25 0.25 0 0 0 23.75 26L23.25 26A0.25 0.25 0 0 1 23 25.75L23 24.25A0.25 0.25 0 0 1 23.25 24L23.75 24A0.25 0.25 0 0 0 24 23.75L24 23.25A0.25 0.25 0 0 0 23.75 23L22.25 23A0.25 0.25 0 0 1 22 22.75L22 22.25A0.25 0.25 0 0 0 21.75 22L21.25 22A0.25 0.25 0 0 1 21 21.75L21 21.25A0.25 0.25 0 0 1 21.25 21L21.75 21A0.25 0.25 0 0 0 22 20.75L22 20.25A0.25 0.25 0 0 1 22.25 20L22.75 20A0.25 0.25 0 0 1 23 20.25L23 21.75A0.25 0.25 0 0 0 23.25 22L23.75 22A0.25 0.25 0 0 0 24 21.75L24 20.25A0.25 0.25 0 0 1 24.25 20L24.75 20A0.25 0.25 0 0 1 25 20.25L25 20.75A0.25 0.25 0 0 0 25.25 21L25.75 21A0.25 0.25 0 0 1 26 21.25L26 21.75A0.25 0.25 0 0 0 26.25 22L26.75 22A0.25 0.25 0 0 1 27 22.25L27 22.75A0.25 0.25 0 0 1 26.75 23L25.25 23A0.25 0.25 0 0 0 25 23.25L25 23.75A0.25 0.25 0 0 0 25.25 24L28.75 24A0.25 0.25 0 0 0 29 23.75L29 23.25A0.25 0.25 0 0 0 28.75 23L28.25 23A0.25 0.25 0 0 1 28 22.75L28 22.25A0.25 0.25 0 0 0 27.75 22L27.25 22A0.25 0.25 0 0 1 27 21.75L27 21.25A0.25 0.25 0 0 0 26.75 21L26.25 21A0.25 0.25 0 0 1 26 20.75L26 19.25A0.25 0.25 0 0 0 25.75 19L24.25 19A0.25 0.25 0 0 0 24 19.25L24 19.75A0.25 0.25 0 0 1 23.75 20L23.25 20A0.25 0.25 0 0 1 23 19.75L23 17.25A0.25 0.25 0 0 1 23.25 17L23.75 17A0.25 0.25 0 0 1 24 17.25L24 17.75A0.25 0.25 0 0 0 24.25 18L25.75 18A0.25 0.25 0 0 0 26 17.75L26 17.25A0.25 0.25 0 0 0 25.75 17L24.25 17A0.25 0.25 0 0 1 24 16.75L24 16.25A0.25 0.25 0 0 0 23.75 16L22.25 16A0.25 0.25 0 0 1 22 15.75L22 15.25A0.25 0.25 0 0 1 22.25 15L22.75 15A0.25 0.25 0 0 0 23 14.75L23 14.25A0.25 0.25 0 0 0 22.75 14L21.25 14A0.25 0.25 0 0 1 21 13.75L21 12.25A0.25 0.25 0 0 1 21.25 12L21.75 12A0.25 0.25 0 0 1 22 12.25L22 12.75A0.25 0.25 0 0 0 22.25 13L22.75 13A0.25 0.25 0 0 0 23 12.75L23 12.25A0.25 0.25 0 0 1 23.25 12L23.75 12A0.25 0.25 0 0 1 24 12.25L24 12.75A0.25 0.25 0 0 0 24.25 13L24.75 13A0.25 0.25 0 0 1 25 13.25L25 13.75A0.25 0.25 0 0 1 24.75 14L24.25 14A0.25 0.25 0 0 0 24 14.25L24 14.75A0.25 0.25 0 0 0 24.25 15L24.75 15A0.25 0.25 0 0 0 25 14.75L25 14.25A0.25 0.25 0 0 1 25.25 14L25.75 14A0.25 0.25 0 0 0 26 13.75L26 12.25A0.25 0.25 0 0 1 26.25 12L26.75 12A0.25 0.25 0 0 1 27 12.25L27 12.75A0.25 0.25 0 0 0 27.25 13L27.75 13A0.25 0.25 0 0 0 28 12.75L28 12.25A0.25 0.25 0 0 0 27.75 12L27.25 12A0.25 0.25 0 0 1 27 11.75L27 10.25A0.25 0.25 0 0 0 26.75 10L25.25 10A0.25 0.25 0 0 0 25 10.25L25 10.75A0.25 0.25 0 0 1 24.75 11L23.25 11A0.25 0.25 0 0 1 23 10.75L23 10.25A0.25 0.25 0 0 1 23.25 10L23.75 10A0.25 0.25 0 0 0 24 9.75L24 9.25A0.25 0.25 0 0 0 23.75 9L23.25 9A0.25 0.25 0 0 1 23 8.75L23 8.25A0.25 0.25 0 0 0 22.75 8L22.25 8A0.25 0.25 0 0 0 22 8.25L22 8.75A0.25 0.25 0 0 1 21.75 9L21.25 9A0.25 0.25 0 0 1 21 8.75L21 8.25A0.25 0.25 0 0 0 20.75 8L20.25 8A0.25 0.25 0 0 1 20 7.75L20 5.25A0.25 0.25 0 0 0 19.75 5L18.25 5A0.25 0.25 0 0 1 18 4.75L18 4.25A0.25 0.25 0 0 1 18.25 4L20.75 4A0.25 0.25 0 0 0 21 3.75L21 2.25A0.25 0.25 0 0 0 20.75 2L20.25 2A0.25 0.25 0 0 0 20 2.25L20 2.75A0.25 0.25 0 0 1 19.75 3L19.25 3A0.25 0.25 0 0 1 19 2.75L19 1.25A0.25 0.25 0 0 0 18.75 1L18.25 1A0.25 0.25 0 0 0 18 1.25L18 1.75A0.25 0.25 0 0 1 17.75 2L17.25 2A0.25 0.25 0 0 1 17 1.75L17 1.25A0.25 0.25 0 0 0 16.75 1L16.25 1A0.25 0.25 0 0 0 16 1.25ZM16 2.25L16 2.75A0.25 0.25 0 0 0 16.25 3L16.75 3A0.25 0.25 0 0 1 17 3.25L17 3.75A0.25 0.25 0 0 0 17.25 4L17.75 4A0.25 0.25 0 0 0 18 3.75L18 3.25A0.25 0.25 0 0 0 17.75 3L17.25 3A0.25 0.25 0 0 1 17 2.75L17 2.25A0.25 0.25 0 0 0 16.75 2L16.25 2A0.25 0.25 0 0 0 16 2.25ZM17 5.25L17 5.75A0.25 0.25 0 0 0 17.25 6L17.75 6A0.25 0.25 0 0 0 18 5.75L18 5.25A0.25 0.25 0 0 0 17.75 5L17.25 5A0.25 0.25 0 0 0 17 5.25ZM12 6.25L12 6.75A0.25 0.25 0 0 0 12.25 7L12.75 7A0.25 0.25 0 0 0 13 6.75L13 6.25A0.25 0.25 0 0 0 12.75 6L12.25 6A0.25 0.25 0 0 0 12 6.25ZM0 9.25L0 9.75A0.25 0.25 0 0 0 0.25 10L0.75 10A0.25 0.25 0 0 0 1 9.75L1 9.25A0.25 0.25 0 0 0 0.75 9L0.25 9A0.25 0.25 0 0 0 0 9.25ZM12 9.25L12 10.75A0.25 0.25 0 0 0 12.25 11L12.75 11A0.25 0.25 0 0 0 13 10.75L13 10.25A0.25 0.25 0 0 1 13.25 10L13.75 10A0.25 0.25 0 0 0 14 9.75L14 9.25A0.25 0.25 0 0 0 13.75 9L12.25 9A0.25 0.25 0 0 0 12 9.25ZM20 9.25L20 9.75A0.25 0.25 0 0 0 20.25 10L20.75 10A0.25 0.25 0 0 0 21 9.75L21 9.25A0.25 0.25 0 0 0 20.75 9L20.25 9A0.25 0.25 0 0 0 20 9.25ZM22 9.25L22 9.75A0.25 0.25 0 0 0 22.25 10L22.75 10A0.25 0.25 0 0 0 23 9.75L23 9.25A0.25 0.25 0 0 0 22.75 9L22.25 9A0.25 0.25 0 0 0 22 9.25ZM28 9.25L28 9.75A0.25 0.25 0 0 0 28.25 10L29.75 10A0.25 0.25 0 0 0 30 9.75L30 9.25A0.25 0.25 0 0 0 29.75 9L28.25 9A0.25 0.25 0 0 0 28 9.25ZM31 9.25L31 10.75A0.25 0.25 0 0 0 31.25 11L31.75 11A0.25 0.25 0 0 0 32 10.75L32 9.25A0.25 0.25 0 0 0 31.75 9L31.25 9A0.25 0.25 0 0 0 31 9.25ZM6 10.25L6 10.75A0.25 0.25 0 0 0 6.25 11L6.75 11A0.25 0.25 0 0 0 7 10.75L7 10.25A0.25 0.25 0 0 0 6.75 10L6.25 10A0.25 0.25 0 0 0 6 10.25ZM17 10.25L17 11.75A0.25 0.25 0 0 0 17.25 12L17.75 12A0.25 0.25 0 0 1 18 12.25L18 13.75A0.25 0.25 0 0 0 18.25 14L18.75 14A0.25 0.25 0 0 0 19 13.75L19 12.25A0.25 0.25 0 0 0 18.75 12L18.25 12A0.25 0.25 0 0 1 18 11.75L18 10.25A0.25 0.25 0 0 0 17.75 10L17.25 10A0.25 0.25 0 0 0 17 10.25ZM0 11.25L0 11.75A0.25 0.25 0 0 0 0.25 12L0.75 12A0.25 0.25 0 0 0 1 11.75L1 11.25A0.25 0.25 0 0 0 0.75 11L0.25 11A0.25 0.25 0 0 0 0 11.25ZM22 11.25L22 11.75A0.25 0.25 0 0 0 22.25 12L22.75 12A0.25 0.25 0 0 0 23 11.75L23 11.25A0.25 0.25 0 0 0 22.75 11L22.25 11A0.25 0.25 0 0 0 22 11.25ZM5 12.25L5 12.75A0.25 0.25 0 0 1 4.75 13L4.25 13A0.25 0.25 0 0 0 4 13.25L4 13.75A0.25 0.25 0 0 0 4.25 14L4.75 14A0.25 0.25 0 0 1 5 14.25L5 15.75A0.25 0.25 0 0 0 5.25 16L5.75 16A0.25 0.25 0 0 1 6 16.25L6 16.75A0.25 0.25 0 0 0 6.25 17L7.75 17A0.25 0.25 0 0 0 8 16.75L8 16.25A0.25 0.25 0 0 1 8.25 16L8.75 16A0.25 0.25 0 0 1 9 16.25L9 16.75A0.25 0.25 0 0 0 9.25 17L9.75 17A0.25 0.25 0 0 0 10 16.75L10 16.25A0.25 0.25 0 0 1 10.25 16L10.75 16A0.25 0.25 0 0 0 11 15.75L11 15.25A0.25 0.25 0 0 1 11.25 15L11.75 15A0.25 0.25 0 0 0 12 14.75L12 14.25A0.25 0.25 0 0 0 11.75 14L9.25 14A0.25 0.25 0 0 0 9 14.25L9 14.75A0.25 0.25 0 0 1 8.75 15L8.25 15A0.25 0.25 0 0 1 8 14.75L8 14.25A0.25 0.25 0 0 0 7.75 14L5.25 14A0.25 0.25 0 0 1 5 13.75L5 13.25A0.25 0.25 0 0 1 5.25 13L6.75 13A0.25 0.25 0 0 0 7 12.75L7 12.25A0.25 0.25 0 0 0 6.75 12L5.25 12A0.25 0.25 0 0 0 5 12.25ZM0 13.25L0 13.75A0.25 0.25 0 0 0 0.25 14L0.75 14A0.25 0.25 0 0 0 1 13.75L1 13.25A0.25 0.25 0 0 0 0.75 13L0.25 13A0.25 0.25 0 0 0 0 13.25ZM30 13.25L30 13.75A0.25 0.25 0 0 1 29.75 14L29.25 14A0.25 0.25 0 0 0 29 14.25L29 14.75A0.25 0.25 0 0 1 28.75 15L28.25 15A0.25 0.25 0 0 0 28 15.25L28 15.75A0.25 0.25 0 0 0 28.25 16L29.75 16A0.25 0.25 0 0 0 30 15.75L30 14.25A0.25 0.25 0 0 1 30.25 14L30.75 14A0.25 0.25 0 0 0 31 13.75L31 13.25A0.25 0.25 0 0 0 30.75 13L30.25 13A0.25 0.25 0 0 0 30 13.25ZM6 15.25L6 15.75A0.25 0.25 0 0 0 6.25 16L6.75 16A0.25 0.25 0 0 0 7 15.75L7 15.25A0.25 0.25 0 0 0 6.75 15L6.25 15A0.25 0.25 0 0 0 6 15.25ZM9 15.25L9 15.75A0.25 0.25 0 0 0 9.25 16L9.75 16A0.25 0.25 0 0 0 10 15.75L10 15.25A0.25 0.25 0 0 0 9.75 15L9.25 15A0.25 0.25 0 0 0 9 15.25ZM20 16.25L20 16.75A0.25 0.25 0 0 0 20.25 17L20.75 17A0.25 0.25 0 0 0 21 16.75L21 16.25A0.25 0.25 0 0 0 20.75 16L20.25 16A0.25 0.25 0 0 0 20 16.25ZM10 18.25L10 19.75A0.25 0.25 0 0 0 10.25 20L12.75 20A0.25 0.25 0 0 0 13 19.75L13 19.25A0.25 0.25 0 0 0 12.75 19L11.25 19A0.25 0.25 0 0 1 11 18.75L11 18.25A0.25 0.25 0 0 0 10.75 18L10.25 18A0.25 0.25 0 0 0 10 18.25ZM12 21.25L12 21.75A0.25 0.25 0 0 0 12.25 22L12.75 22A0.25 0.25 0 0 1 13 22.25L13 22.75A0.25 0.25 0 0 1 12.75 23L12.25 23A0.25 0.25 0 0 0 12 23.25L12 23.75A0.25 0.25 0 0 0 12.25 24L12.75 24A0.25 0.25 0 0 0 13 23.75L13 23.25A0.25 0.25 0 0 1 13.25 23L13.75 23A0.25 0.25 0 0 0 14 22.75L14 22.25A0.25 0.25 0 0 0 13.75 22L13.25 22A0.25 0.25 0 0 1 13 21.75L13 21.25A0.25 0.25 0 0 0 12.75 21L12.25 21A0.25 0.25 0 0 0 12 21.25ZM2 22.25L2 22.75A0.25 0.25 0 0 0 2.25 23L2.75 23A0.25 0.25 0 0 1 3 23.25L3 23.75A0.25 0.25 0 0 0 3.25 24L3.75 24A0.25 0.25 0 0 0 4 23.75L4 23.25A0.25 0.25 0 0 0 3.75 23L3.25 23A0.25 0.25 0 0 1 3 22.75L3 22.25A0.25 0.25 0 0 0 2.75 22L2.25 22A0.25 0.25 0 0 0 2 22.25ZM17 22.25L17 22.75A0.25 0.25 0 0 0 17.25 23L17.75 23A0.25 0.25 0 0 0 18 22.75L18 22.25A0.25 0.25 0 0 0 17.75 22L17.25 22A0.25 0.25 0 0 0 17 22.25ZM25 25.25L25 27.75A0.25 0.25 0 0 0 25.25 28L27.75 28A0.25 0.25 0 0 0 28 27.75L28 25.25A0.25 0.25 0 0 0 27.75 25L25.25 25A0.25 0.25 0 0 0 25 25.25ZM26 26.25L26 26.75A0.25 0.25 0 0 0 26.25 27L26.75 27A0.25 0.25 0 0 0 27 26.75L27 26.25A0.25 0.25 0 0 0 26.75 26L26.25 26A0.25 0.25 0 0 0 26 26.25ZM10 28.25L10 28.75A0.25 0.25 0 0 0 10.25 29L11.75 29A0.25 0.25 0 0 0 12 28.75L12 28.25A0.25 0.25 0 0 0 11.75 28L10.25 28A0.25 0.25 0 0 0 10 28.25ZM8 30.25L8 30.75A0.25 0.25 0 0 0 8.25 31L8.75 31A0.25 0.25 0 0 0 9 30.75L9 30.25A0.25 0.25 0 0 0 8.75 30L8.25 30A0.25 0.25 0 0 0 8 30.25ZM24 31.25L24 32.75A0.25 0.25 0 0 0 24.25 33L26.75 33A0.25 0.25 0 0 0 27 32.75L27 31.25A0.25 0.25 0 0 0 26.75 31L26.25 31A0.25 0.25 0 0 0 26 31.25L26 31.75A0.25 0.25 0 0 1 25.75 32L25.25 32A0.25 0.25 0 0 1 25 31.75L25 31.25A0.25 0.25 0 0 0 24.75 31L24.25 31A0.25 0.25 0 0 0 24 31.25ZM9 32.25L9 32.75A0.25 0.25 0 0 0 9.25 33L9.75 33A0.25 0.25 0 0 0 10 32.75L10 32.25A0.25 0.25 0 0 0 9.75 32L9.25 32A0.25 0.25 0 0 0 9 32.25ZM32 32.25L32 32.75A0.25 0.25 0 0 0 32.25 33L32.75 33A0.25 0.25 0 0 0 33 32.75L33 32.25A0.25 0.25 0 0 0 32.75 32L32.25 32A0.25 0.25 0 0 0 32 32.25ZM0 0.25L0 6.75A0.25 0.25 0 0 0 0.25 7L6.75 7A0.25 0.25 0 0 0 7 6.75L7 0.25A0.25 0.25 0 0 0 6.75 0L0.25 0A0.25 0.25 0 0 0 0 0.25ZM1 1.25L1 5.75A0.25 0.25 0 0 0 1.25 6L5.75 6A0.25 0.25 0 0 0 6 5.75L6 1.25A0.25 0.25 0 0 0 5.75 1L1.25 1A0.25 0.25 0 0 0 1 1.25ZM2 2.25L2 4.75A0.25 0.25 0 0 0 2.25 5L4.75 5A0.25 0.25 0 0 0 5 4.75L5 2.25A0.25 0.25 0 0 0 4.75 2L2.25 2A0.25 0.25 0 0 0 2 2.25ZM26 0.25L26 6.75A0.25 0.25 0 0 0 26.25 7L32.75 7A0.25 0.25 0 0 0 33 6.75L33 0.25A0.25 0.25 0 0 0 32.75 0L26.25 0A0.25 0.25 0 0 0 26 0.25ZM27 1.25L27 5.75A0.25 0.25 0 0 0 27.25 6L31.75 6A0.25 0.25 0 0 0 32 5.75L32 1.25A0.25 0.25 0 0 0 31.75 1L27.25 1A0.25 0.25 0 0 0 27 1.25ZM28 2.25L28 4.75A0.25 0.25 0 0 0 28.25 5L30.75 5A0.25 0.25 0 0 0 31 4.75L31 2.25A0.25 0.25 0 0 0 30.75 2L28.25 2A0.25 0.25 0 0 0 28 2.25ZM0 26.25L0 32.75A0.25 0.25 0 0 0 0.25 33L6.75 33A0.25 0.25 0 0 0 7 32.75L7 26.25A0.25 0.25 0 0 0 6.75 26L0.25 26A0.25 0.25 0 0 0 0 26.25ZM1 27.25L1 31.75A0.25 0.25 0 0 0 1.25 32L5.75 32A0.25 0.25 0 0 0 6 31.75L6 27.25A0.25 0.25 0 0 0 5.75 27L1.25 27A0.25 0.25 0 0 0 1 27.25ZM2 28.25L2 30.75A0.25 0.25 0 0 0 2.25 31L4.75 31A0.25 0.25 0 0 0 5 30.75L5 28.25A0.25 0.25 0 0 0 4.75 28L2.25 28A0.25 0.25 0 0 0 2 28.25Z" fill="#000000"/></g></g></svg>
