<?xml version="1.0" encoding="UTF-8"?>
<svg xmlns="http://www.w3.org/2000/svg" version="1.1" width="500" height="500" viewBox="0 0 500 500"><rect x="0" y="0" width="500" height="500" fill="#ffffff"/><g transform="scale(15.152)"><g transform="translate(0,0)"><path fill-rule="evenodd" d="M8 0.25L8 0.75A0.25 0.25 0 0 0 8.25 1L8.75 1A0.25 0.25 0 0 1 9 1.25L9 1.75A0.25 0.25 0 0 1 8.75 2L8.25 2A0.25 0.25 0 0 0 8 2.25L8 2.75A0.25 0.25 0 0 0 8.25 3L8.75 3A0.25 0.25 0 0 1 9 3.25L9 3.75A0.25 0.25 0 0 1 8.75 4L8.25 4A0.25 0.25 0 0 0 8 4.25L8 4.75A0.25 0.25 0 0 0 8.25 5L8.75 5A0.25 0.25 0 0 1 9 5.25L9 5.75A0.25 0.25 0 0 1 8.75 6L8.25 6A0.25 0.25 0 0 0 8 6.25L8 7.75A0.25 0.25 0 0 0 8.25 8L8.75 8A0.25 0.25 0 0 0 9 7.75L9 6.25A0.25 0.25 0 0 1 9.25 6L9.75 6A0.25 0.25 0 0 1 10 6.25L10 7.75A0.25 0.25 0 0 0 10.25 8L11.75 8A0.25 0.25 0 0 1 12 8.25L12 8.75A0.25 0.25 0 0 1 11.75 9L10.25 9A0.25 0.25 0 0 0 10 9.25L10 9.75A0.25 0.25 0 0 1 9.75 10L9.25 10A0.25 0.25 0 0 1 9 9.75L9 9.25A0.25 0.25 0 0 0 8.75 9L8.25 9A0.25 0.25 0 0 0 8 9.25L8 9.75A0.25 0.25 0 0 1 7.75 10L6.25 10A0.25 0.25 0 0 1 6 9.75L6 9.25A0.25 0.25 0 0 1 6.25 9L6.75 9A0.25 0.25 0 0 0 7 8.75L7 8.25A0.25 0.25 0 0 0 6.75 8L5.25 8A0.25 0.25 0 0 0 5 8.25L5 9.75A0.25 0.25 0 0 1 4.75 10L4.25 10A0.25 0.25 0 0 1 4 9.75L4 9.25A0.25 0.25 0 0 0 3.75 9L2.25 9A0.25 0.25 0 0 0 2 9.25L2 9.75A0.25 0.25 0 0 1 1.75 10L1.25 10A0.25 0.25 0 0 0 1 10.25L1 10.75A0.25 0.25 0 0 0 1.25 11L1.75 11A0.25 0.25 0 0 1 2 11.25L2 13.75A0.25 0.25 0 0 1 1.75 14L0.25 14A0.25 0.25 0 0 0 0 14.25L0 14.75A0.25 0.25 0 0 0 0.25 15L1.75 15A0.25 0.25 0 0 0 2 14.75L2 14.25A0.25 0.25 0 0 1 2.25 14L2.75 14A0.25 0.25 0 0 1 3 14.25L3 16.75A0.25 0.25 0 0 1 2.75 17L2.25 17A0.25 0.25 0 0 1 2 16.75L2 16.25A0.25 0.25 0 0 0 1.75 16L1.25 16A0.25 0.25 0 0 0 1 16.25L1 17.75A0.25 0.25 0 0 1 0.75 18L0.25 18A0.25 0.25 0 0 0 0 18.25L0 18.75A0.25 0.25 0 0 0 0.25 19L0.75 19A0.25 0.25 0 0 0 1 18.75L1 18.25A0.25 0.25 0 0 1 1.25 18L1.75 18A0.25 0.25 0 0 1 2 18.25L2 19.75A0.25 0.25 0 0 0 2.25 20L2.75 20A0.25 0.25 0 0 0 3 19.75L3 19.25A0.25 0.25 0 0 1 3.25 19L3.75 19A0.25 0.25 0 0 0 4 18.75L4 18.25A0.25 0.25 0 0 1 4.25 18L5.75 18A0.25 0.25 0 0 1 6 18.25L6 18.75A0.25 0.25 0 0 0 6.25 19L6.75 19A0.25 0.25 0 0 0 7 18.75L7 18.25A0.25 0.25 0 0 1 7.25 18L7.75 18A0.25 0.25 0 0 1 8 18.25L8 19.75A0.25 0.25 0 0 1 7.75 20L6.25 20A0.25 0.25 0 0 0 6 20.25L6 20.75A0.25 0.25 0 0 1 5.75 21L5.25 21A0.25 0.25 0 0 1 5 20.75L5 20.25A0.25 0.25 0 0 0 4.75 20L4.25 20A0.25 0.25 0 0 0 4 20.25L4 20.75A0.25 0.25 0 0 0 4.25 21L4.75 21A0.25 0.25 0 0 1 5 21.25L5 22.75A0.25 0.25 0 0 1 4.75 23L4.25 23A0.25 0.25 0 0 1 4 22.75L4 22.25A0.25 0.25 0 0 0 3.75 22L2.25 22A0.25 0.25 0 0 1 2 21.75L2 21.25A0.25 0.25 0 0 0 1.75 21L1.25 21A0.25 0.25 0 0 1 1 20.75L1 20.25A0.25 0.25 0 0 0 0.75 20L0.25 20A0.25 0.25 0 0 0 0 20.25L0 24.75A0.25 0.25 0 0 0 0.25 25L4.75 25A0.25 0.25 0 0 0 5 24.75L5 23.25A0.25 0.25 0 0 1 5.25 23L6.75 23A0.25 0.25 0 0 0 7 22.75L7 22.25A0.25 0.25 0 0 1 7.25 22L8.75 22A0.25 0.25 0 0 1 9 22.25L9 22.75A0.25 0.25 0 0 0 9.25 23L11.75 23A0.25 0.25 0 0 1 12 23.25L12 24.75A0.25 0.25 0 0 0 12.25 25L12.75 25A0.25 0.25 0 0 1 13 25.25L13 25.75A0.25 0.25 0 0 0 13.25 26L13.75 26A0.25 0.25 0 0 1 14 26.25L14 26.75A0.25 0.25 0 0 0 14.25 27L14.75 27A0.25 0.25 0 0 1 15 27.25L15 28.75A0.25 0.25 0 0 1 14.75 29L14.25 29A0.25 0.25 0 0 1 14 28.75L14 28.25A0.25 0.25 0 0 0 13.75 28L13.25 28A0.25 0.25 0 0 1 13 27.75L13 27.25A0.25 0.25 0 0 0 12.75 27L12.25 27A0.25 0.25 0 0 1 12 26.75L12 26.25A0.25 0.25 0 0 0 11.75 26L10.25 26A0.25 0.25 0 0 0 10 26.25L10 26.75A0.25 0.25 0 0 1 9.75 27L8.25 27A0.25 0.25 0 0 0 8 27.25L8 27.75A0.25 0.25 0 0 0 8.25 28L8.75 28A0.25 0.25 0 0 1 9 28.25L9 28.75A0.25 0.25 0 0 0 9.25 29L9.75 29A0.25 0.25 0 0 1 10 29.25L10 30.75A0.25 0.25 0 0 0 10.25 31L11.75 31A0.25 0.25 0 0 0 12 30.75L12 29.25A0.25 0.25 0 0 1 12.25 29L13.75 29A0.25 0.25 0 0 1 14 29.25L14 30.75A0.25 0.25 0 0 1 13.75 31L13.25 31A0.25 0.25 0 0 0 13 31.25L13 31.75A0.25 0.25 0 0 1 12.75 32L9.25 32A0.25 0.25 0 0 0 9 32.25L9 32.75A0.25 0.25 0 0 0 9.25 33L12.75 33A0.25 0.25 0 0 0 13 32.75L13 32.25A0.25 0.25 0 0 1 13.25 32L13.75 32A0.25 0.25 0 0 1 14 32.25L14 32.75A0.25 0.25 0 0 0 14.25 33L14.75 33A0.25 0.25 0 0 0 15 32.75L15 32.25A0.25 0.25 0 0 0 14.75 32L14.25 32A0.25 0.25 0 0 1 14 31.75L14 31.25A0.25 0.25 0 0 1 14.25 31L14.75 31A0.25 0.25 0 0 0 15 30.75L15 29.25A0.25 0.25 0 0 1 15.25 29L15.75 29A0.25 0.25 0 0 1 16 29.25L16 32.75A0.25 0.25 0 0 0 16.25 33L18.75 33A0.25 0.25 0 0 0 19 32.75L19 32.25A0.25 0.25 0 0 0 18.75 32L17.25 32A0.25 0.25 0 0 1 17 31.75L17 31.25A0.25 0.25 0 0 1 17.25 31L21.75 31A0.25 0.25 0 0 1 22 31.25L22 31.75A0.25 0.25 0 0 0 22.25 32L22.75 32A0.25 0.25 0 0 1 23 32.25L23 32.75A0.25 0.25 0 0 0 23.25 33L24.75 33A0.25 0.25 0 0 0 25 32.75L25 32.25A0.25 0.25 0 0 0 24.75 32L23.25 32A0.25 0.25 0 0 1 23 31.75L23 30.25A0.25 0.25 0 0 1 23.25 30L23.75 30A0.25 0.25 0 0 0 24 29.75L24 29.25A0.25 0.25 0 0 1 24.25 29L26.75 29A0.25 0.25 0 0 1 27 29.25L27 29.75A0.25 0.25 0 0 0 27.25 30L27.75 30A0.25 0.25 0 0 1 28 30.25L28 30.75A0.25 0.25 0 0 0 28.25 31L29.75 31A0.25 0.25 0 0 1 30 31.25L30 31.75A0.25 0.25 0 0 1 29.75 32L29.25 32A0.25 0.25 0 0 0 29 32.25L29 32.75A0.25 0.25 0 0 0 29.25 33L29.75 33A0.25 0.25 0 0 0 30 32.75L30 32.25A0.25 0.25 0 0 1 30.25 32L30.75 32A0.25 0.25 0 0 1 31 32.25L31 32.75A0.25 0.25 0 0 0 31.25 33L31.75 33A0.25 0.25 0 0 0 32 32.75L32 32.25A0.25 0.25 0 0 0 31.75 32L31.25 32A0.25 0.25 0 0 1 31 31.75L31 31.25A0.25 0.25 0 0 1 31.25 31L32.75 31A0.25 0.25 0 0 0 33 30.75L33 27.25A0.25 0.25 0 0 0 32.75 27L32.25 27A0.25 0.25 0 0 1 32 26.75L32 26.25A0.25 0.25 0 0 1 32.25 26L32.75 26A0.25 0.25 0 0 0 33 25.75L33 25.25A0.25 0.25 0 0 0 32.75 25L32.25 25A0.25 0.25 0 0 1 32 24.75L32 24.25A0.25 0.25 0 0 1 32.25 24L32.75 24A0.25 0.25 0 0 0 33 23.75L33 23.25A0.25 0.25 0 0 0 32.75 23L32.25 23A0.25 0.25 0 0 0 32 23.25L32 23.75A0.25 0.25 0 0 1 31.75 24L31.25 24A0.25 0.25 0 0 1 31 23.75L31 23.25A0.25 0.25 0 0 0 30.75 23L30.25 23A0.25 0.25 0 0 1 30 22.75L30 22.25A0.25 0.25 0 0 1 30.25 22L31.75 22A0.25 0.25 0 0 0 32 21.75L32 21.25A0.25 0.25 0 0 1 32.25 21L32.75 21A0.25 0.25 0 0 0 33 20.75L33 20.25A0.25 0.25 0 0 0 32.75 20L32.25 20A0.25 0.25 0 0 1 32 19.75L32 19.25A0.25 0.25 0 0 1 32.25 19L32.75 19A0.25 0.25 0 0 0 33 18.75L33 18.25A0.25 0.25 0 0 0 32.75 18L32.25 18A0.25 0.25 0 0 0 32 18.25L32 18.75A0.25 0.25 0 0 1 31.75 19L31.25 19A0.25 0.25 0 0 1 31 18.75L31 18.25A0.25 0.25 0 0 0 30.75 18L27.25 18A0.25 0.25 0 0 1 27 17.75L27 17.25A0.25 0.25 0 0 0 26.75 17L26.25 17A0.25 0.25 0 0 0 26 17.25L26 17.75A0.25 0.25 0 0 0 26.25 18L26.75 18A0.25 0.25 0 0 1 27 18.25L27 18.75A0.25 0.25 0 0 1 26.75 19L26.25 19A0.25 0.25 0 0 0 26 19.25L26 19.75A0.25 0.25 0 0 1 25.75 20L25.25 20A0.25 0.25 0 0 1 25 19.75L25 16.25A0.25 0.25 0 0 0 24.75 16L24.25 16A0.25 0.25 0 0 1 24 15.75L24 15.25A0.25 0.25 0 0 0 23.75 15L23.25 15A0.25 0.25 0 0 1 23 14.75L23 14.25A0.25 0.25 0 0 1 23.25 14L23.75 14A0.25 0.25 0 0 0 24 13.75L24 12.25A0.25 0.25 0 0 1 24.25 12L24.75 12A0.25 0.25 0 0 0 25 11.75L25 11.25A0.25 0.25 0 0 1 25.25 11L26.75 11A0.25 0.25 0 0 1 27 11.25L27 11.75A0.25 0.25 0 0 1 26.75 12L26.25 12A0.25 0.25 0 0 0 26 12.25L26 13.75A0.25 0.25 0 0 0 26.25 14L26.75 14A0.25 0.25 0 0 1 27 14.25L27 14.75A0.25 0.25 0 0 1 26.75 15L26.25 15A0.25 0.25 0 0 0 26 15.25L26 15.75A0.25 0.25 0 0 0 26.25 16L26.75 16A0.25 0.25 0 0 0 27 15.75L27 15.25A0.25 0.25 0 0 1 27.25 15L27.75 15A0.25 0.25 0 0 1 28 15.25L28 16.75A0.25 0.25 0 0 0 28.25 17L29.75 17A0.25 0.25 0 0 0 30 16.75L30 16.25A0.25 0.25 0 0 1 30.25 16L30.75 16A0.25 0.25 0 0 0 31 15.75L31 15.25A0.25 0.25 0 0 1 31.25 15L31.75 15A0.25 0.25 0 0 0 32 14.75L32 14.25A0.25 0.25 0 0 1 32.25 14L32.75 14A0.25 0.25 0 0 0 33 13.75L33 13.25A0.25 0.25 0 0 0 32.75 13L32.25 13A0.25 0.25 0 0 0 32 13.25L32 13.75A0.25 0.25 0 0 1 31.75 14L31.25 14A0.25 0.25 0 0 1 31 13.75L31 13.25A0.25 0.25 0 0 0 30.75 13L29.25 13A0.25 0.25 0 0 1 29 12.75L29 12.25A0.25 0.25 0 0 0 28.75 12L28.25 12A0.25 0.25 0 0 1 28 11.75L28 10.25A0.25 0.25 0 0 1 28.25 10L28.75 10A0.25 0.25 0 0 0 29 9.75L29 8.25A0.25 0.25 0 0 0 28.75 8L28.25 8A0.25 0.25 0 0 0 28 8.25L28 8.75A0.25 0.25 0 0 1 27.75 9L27.25 9A0.25 0.25 0 0 1 27 8.75L27 8.25A0.25 0.25 0 0 0 26.75 8L26.25 8A0.25 0.25 0 0 0 26 8.25L26 8.75A0.25 0.25 0 0 1 25.75 9L25.25 9A0.25 0.25 0 0 1 25 8.75L25 4.25A0.25 0.25 0 0 0 24.75 4L24.25 4A0.25 0.25 0 0 1 24 3.75L24 2.25A0.25 0.25 0 0 0 23.75 2L22.25 2A0.25 0.25 0 0 1 22 1.75L22 1.25A0.25 0.25 0 0 1 22.25 1L22.75 1A0.25 0.25 0 0 0 23 0.75L23 0.25A0.25 0.25 0 0 0 22.75 0L21.25 0A0.25 0.25 0 0 0 21 0.25L21 0.75A0.25 0.25 0 0 1 20.75 1L19.25 1A0.25 0.25 0 0 1 19 0.75L19 0.25A0.25 0.25 0 0 0 18.75 0L18.25 0A0.25 0.25 0 0 0 18 0.25L18 0.75A0.25 0.25 0 0 1 17.75 1L17.25 1A0.25 0.25 0 0 1 17 0.75L17 0.25A0.25 0.25 0 0 0 16.75 0L15.25 0A0.25 0.25 0 0 0 15 0.25L15 0.75A0.25 0.25 0 0 1 14.75 1L14.25 1A0.25 0.25 0 0 1 14 0.75L14 0.25A0.25 0.25 0 0 0 13.75 0L10.25 0A0.25 0.25 0 0 0 10 0.25L10 0.75A0.25 0.25 0 0 1 9.75 1L9.25 1A0.25 0.25 0 0 1 9 0.75L9 0.25A0.25 0.25 0 0 0 8.75 0L8.25 0A0.25 0.25 0 0 0 8 0.25ZM24 0.25L24 0.75A0.25 0.25 0 0 0 24.25 1L24.75 1A0.25 0.25 0 0 0 25 0.75L25 0.25A0.25 0.25 0 0 0 24.75 0L24.25 0A0.25 0.25 0 0 0 24 0.25ZM10 1.25L10 1.75A0.25 0.25 0 0 0 10.25 2L10.75 2A0.25 0.25 0 0 1 11 2.25L11 2.75A0.25 0.25 0 0 1 10.75 3L10.25 3A0.25 0.25 0 0 0 10 3.25L10 3.75A0.25 0.25 0 0 1 9.75 4L9.25 4A0.25 0.25 0 0 0 9 4.25L9 4.75A0.25 0.25 0 0 0 9.25 5L9.75 5A0.25 0.25 0 0 1 10 5.25L10 5.75A0.25 0.25 0 0 0 10.25 6L10.75 6A0.25 0.25 0 0 1 11 6.25L11 6.75A0.25 0.25 0 0 0 11.25 7L11.75 7A0.25 0.25 0 0 0 12 6.75L12 5.25A0.25 0.25 0 0 1 12.25 5L12.75 5A0.25 0.25 0 0 1 13 5.25L13 6.75A0.25 0.25 0 0 0 13.25 7L13.75 7A0.25 0.25 0 0 0 14 6.75L14 5.25A0.25 0.25 0 0 1 14.25 5L14.75 5A0.25 0.25 0 0 1 15 5.25L15 7.75A0.25 0.25 0 0 0 15.25 8L15.75 8A0.25 0.25 0 0 0 16 7.75L16 5.25A0.25 0.25 0 0 1 16.25 5L17.75 5A0.25 0.25 0 0 1 18 5.25L18 5.75A0.25 0.25 0 0 1 17.75 6L17.25 6A0.25 0.25 0 0 0 17 6.25L17 7.75A0.25 0.25 0 0 0 17.25 8L17.75 8A0.25 0.25 0 0 1 18 8.25L18 8.75A0.25 0.25 0 0 1 17.75 9L16.25 9A0.25 0.25 0 0 0 16 9.25L16 9.75A0.25 0.25 0 0 1 15.75 10L15.25 10A0.25 0.25 0 0 1 15 9.75L15 9.25A0.25 0.25 0 0 0 14.75 9L14.25 9A0.25 0.25 0 0 1 14 8.75L14 8.25A0.25 0.25 0 0 0 13.75 8L13.25 8A0.25 0.25 0 0 0 13 8.25L13 8.75A0.25 0.25 0 0 1 12.75 9L12.25 9A0.25 0.25 0 0 0 12 9.25L12 9.75A0.25 0.25 0 0 1 11.75 10L10.25 10A0.25 0.25 0 0 0 10 10.25L10 11.75A0.25 0.25 0 0 0 10.25 12L10.75 12A0.25 0.25 0 0 0 11 11.75L11 11.25A0.25 0.25 0 0 1 11.25 11L11.75 11A0.25 0.25 0 0 0 12 10.75L12 10.25A0.25 0.25 0 0 1 12.25 10L12.75 10A0.25 0.25 0 0 0 13 9.75L13 9.25A0.25 0.25 0 0 1 13.25 9L13.75 9A0.25 0.25 0 0 1 14 9.25L14 10.75A0.25 0.25 0 0 1 13.75 11L13.25 11A0.25 0.25 0 0 0 13 11.25L13 13.75A0.25 0.25 0 0 1 12.75 14L12.25 14A0.25 0.25 0 0 1 12 13.75L12 13.25A0.25 0.25 0 0 0 11.75 13L11.25 13A0.25 0.25 0 0 0 11 13.25L11 13.75A0.25 0.25 0 0 1 10.75 14L10.25 14A0.25 0.25 0 0 1 10 13.75L10 13.25A0.25 0.25 0 0 0 9.75 13L9.25 13A0.25 0.25 0 0 0 9 13.25L9 13.75A0.25 0.25 0 0 0 9.25 14L9.75 14A0.25 0.25 0 0 1 10 14.25L10 14.75A0.25 0.25 0 0 1 9.75 15L8.25 15A0.25 0.25 0 0 1 8 14.75L8 12.25A0.25 0.25 0 0 0 7.75 12L7.25 12A0.25 0.25 0 0 1 7 11.75L7 11.25A0.25 0.25 0 0 0 6.75 11L3.25 11A0.25 0.25 0 0 0 3 11.25L3 11.75A0.25 0.25 0 0 0 3.25 12L3.75 12A0.25 0.25 0 0 1 4 12.25L4 12.75A0.25 0.25 0 0 1 3.75 13L3.25 13A0.25 0.25 0 0 0 3 13.25L3 13.75A0.25 0.25 0 0 0 3.25 14L3.75 14A0.25 0.25 0 0 1 4 14.25L4 15.75A0.25 0.25 0 0 0 4.25 16L4.75 16A0.25 0.25 0 0 0 5 15.75L5 14.25A0.25 0.25 0 0 1 5.25 14L6.75 14A0.25 0.25 0 0 1 7 14.25L7 14.75A0.25 0.25 0 0 1 6.75 15L6.25 15A0.25 0.25 0 0 0 6 15.25L6 15.75A0.25 0.25 0 0 0 6.25 16L6.75 16A0.25 0.25 0 0 0 7 15.75L7 15.25A0.25 0.25 0 0 1 7.25 15L7.75 15A0.25 0.25 0 0 1 8 15.25L8 17.75A0.25 0.25 0 0 0 8.25 18L8.75 18A0.25 0.25 0 0 1 9 18.25L9 19.75A0.25 0.25 0 0 1 8.75 20L8.25 20A0.25 0.25 0 0 0 8 20.25L8 20.75A0.25 0.25 0 0 0 8.25 21L9.75 21A0.25 0.25 0 0 1 10 21.25L10 21.75A0.25 0.25 0 0 0 10.25 22L10.75 22A0.25 0.25 0 0 0 11 21.75L11 21.25A0.25 0.25 0 0 0 10.75 21L10.25 21A0.25 0.25 0 0 1 10 20.75L10 18.25A0.25 0.25 0 0 1 10.25 18L10.75 18A0.25 0.25 0 0 1 11 18.25L11 18.75A0.25 0.25 0 0 0 11.25 19L11.75 19A0.25 0.25 0 0 1 12 19.25L12 22.75A0.25 0.25 0 0 0 12.25 23L12.75 23A0.25 0.25 0 0 1 13 23.25L13 24.75A0.25 0.25 0 0 0 13.25 25L13.75 25A0.25 0.25 0 0 0 14 24.75L14 23.25A0.25 0.25 0 0 1 14.25 23L14.75 23A0.25 0.25 0 0 0 15 22.75L15 22.25A0.25 0.25 0 0 1 15.25 22L15.75 22A0.25 0.25 0 0 1 16 22.25L16 22.75A0.25 0.25 0 0 0 16.25 23L16.75 23A0.25 0.25 0 0 1 17 23.25L17 23.75A0.25 0.25 0 0 1 16.75 24L15.25 24A0.25 0.25 0 0 0 15 24.25L15 26.75A0.25 0.25 0 0 0 15.25 27L15.75 27A0.25 0.25 0 0 1 16 27.25L16 28.75A0.25 0.25 0 0 0 16.25 29L16.75 29A0.25 0.25 0 0 1 17 29.25L17 29.75A0.25 0.25 0 0 0 17.25 30L17.75 30A0.25 0.25 0 0 0 18 29.75L18 29.25A0.25 0.25 0 0 1 18.25 29L18.75 29A0.25 0.25 0 0 1 19 29.25L19 29.75A0.25 0.25 0 0 0 19.25 30L19.75 30A0.25 0.25 0 0 0 20 29.75L20 29.25A0.25 0.25 0 0 0 19.75 29L19.25 29A0.25 0.25 0 0 1 19 28.75L19 27.25A0.25 0.25 0 0 0 18.75 27L18.25 27A0.25 0.25 0 0 0 18 27.25L18 28.75A0.25 0.25 0 0 1 17.75 29L17.25 29A0.25 0.25 0 0 1 17 28.75L17 26.25A0.25 0.25 0 0 0 16.75 26L16.25 26A0.25 0.25 0 0 1 16 25.75L16 25.25A0.25 0.25 0 0 1 16.25 25L17.75 25A0.25 0.25 0 0 1 18 25.25L18 25.75A0.25 0.25 0 0 0 18.25 26L18.75 26A0.25 0.25 0 0 0 19 25.75L19 25.25A0.25 0.25 0 0 1 19.25 25L19.75 25A0.25 0.25 0 0 1 20 25.25L20 25.75A0.25 0.25 0 0 0 20.25 26L20.75 26A0.25 0.25 0 0 1 21 26.25L21 27.75A0.25 0.25 0 0 0 21.25 28L21.75 28A0.25 0.25 0 0 1 22 28.25L22 28.75A0.25 0.25 0 0 1 21.75 29L21.25 29A0.25 0.25 0 0 0 21 29.25L21 29.75A0.25 0.25 0 0 0 21.25 30L22.75 30A0.25 0.25 0 0 0 23 29.75L23 29.25A0.25 0.25 0 0 1 23.25 29L23.75 29A0.25 0.25 0 0 0 24 28.75L24 28.25A0.25 0.25 0 0 0 23.75 28L23.25 28A0.25 0.25 0 0 1 23 27.75L23 27.25A0.25 0.25 0 0 1 23.25 27L23.75 27A0.25 0.25 0 0 0 24 26.75L24 26.25A0.25 0.25 0 0 0 23.75 26L23.25 26A0.25 0.25 0 0 1 23 25.75L23 24.25A0.25 0.25 0 0 0 22.75 24L22.25 24A0.25 0.25 0 0 1 22 23.75L22 23.25A0.25 0.25 0 0 1 22.25 23L24.75 23A0.25 0.25 0 0 1 25 23.25L25 23.75A0.25 0.25 0 0 0 25.25 24L28.75 24A0.25 0.25 0 0 0 29 23.75L29 22.25A0.25 0.25 0 0 1 29.25 22L29.75 22A0.25 0.25 0 0 0 30 21.75L30 21.25A0.25 0.25 0 0 1 30.25 21L30.75 21A0.25 0.25 0 0 0 31 20.75L31 20.25A0.25 0.25 0 0 0 30.75 20L30.25 20A0.25 0.25 0 0 0 30 20.25L30 20.75A0.25 0.25 0 0 1 29.75 21L29.25 21A0.25 0.25 0 0 0 29 21.25L29 21.75A0.25 0.25 0 0 1 28.75 22L27.25 22A0.25 0.25 0 0 1 27 21.75L27 20.25A0.25 0.25 0 0 1 27.25 20L28.75 20A0.25 0.25 0 0 0 29 19.75L29 19.25A0.25 0.25 0 0 0 28.75 19L27.25 19A0.25 0.25 0 0 0 27 19.25L27 19.75A0.25 0.25 0 0 1 26.75 20L26.25 20A0.25 0.25 0 0 0 26 20.25L26 21.75A0.25 0.25 0 0 1 25.75 22L25.25 22A0.25 0.25 0 0 1 25 21.75L25 21.25A0.25 0.25 0 0 0 24.75 21L23.25 21A0.25 0.25 0 0 1 23 20.75L23 17.25A0.25 0.25 0 0 0 22.75 17L22.25 17A0.25 0.25 0 0 1 22 16.75L22 16.25A0.25 0.25 0 0 1 22.25 16L22.75 16A0.25 0.25 0 0 0 23 15.75L23 15.25A0.25 0.25 0 0 0 22.75 15L22.25 15A0.25 0.25 0 0 1 22 14.75L22 14.25A0.25 0.25 0 0 0 21.75 14L21.25 14A0.25 0.25 0 0 1 21 13.75L21 12.25A0.25 0.25 0 0 1 21.25 12L21.75 12A0.25 0.25 0 0 1 22 12.25L22 12.75A0.25 0.25 0 0 0 22.25 13L22.75 13A0.25 0.25 0 0 0 23 12.75L23 12.25A0.25 0.25 0 0 0 22.75 12L22.25 12A0.25 0.25 0 0 1 22 11.75L22 11.25A0.25 0.25 0 0 1 22.25 11L24.75 11A0.25 0.25 0 0 0 25 10.75L25 9.25A0.25 0.25 0 0 0 24.75 9L24.25 9A0.25 0.25 0 0 0 24 9.25L24 9.75A0.25 0.25 0 0 1 23.75 10L23.25 10A0.25 0.25 0 0 1 23 9.75L23 9.25A0.25 0.25 0 0 0 22.75 9L22.25 9A0.25 0.25 0 0 1 22 8.75L22 8.25A0.25 0.25 0 0 1 22.25 8L22.75 8A0.25 0.25 0 0 0 23 7.75L23 7.25A0.25 0.25 0 0 1 23.25 7L23.75 7A0.25 0.25 0 0 0 24 6.75L24 5.25A0.25 0.25 0 0 0 23.75 5L22.25 5A0.25 0.25 0 0 1 22 4.75L22 4.25A0.25 0.25 0 0 1 22.25 4L22.75 4A0.25 0.25 0 0 0 23 3.75L23 3.25A0.25 0.25 0 0 0 22.75 3L22.25 3A0.25 0.25 0 0 0 22 3.25L22 3.75A0.25 0.25 0 0 1 21.75 4L21.25 4A0.25 0.25 0 0 1 21 3.75L21 3.25A0.25 0.25 0 0 0 20.75 3L20.25 3A0.25 0.25 0 0 1 20 2.75L20 2.25A0.25 0.25 0 0 0 19.75 2L18.25 2A0.25 0.25 0 0 0 18 2.25L18 2.75A0.25 0.25 0 0 0 18.25 3L18.75 3A0.25 0.25 0 0 1 19 3.25L19 4.75A0.25 0.25 0 0 1 18.75 5L18.25 5A0.25 0.25 0 0 1 18 4.75L18 4.25A0.25 0.25 0 0 0 17.75 4L17.25 4A0.25 0.25 0 0 1 17 3.75L17 1.25A0.25 0.25 0 0 0 16.75 1L16.25 1A0.25 0.25 0 0 0 16 1.25L16 1.75A0.25 0.25 0 0 1 15.75 2L15.25 2A0.25 0.25 0 0 0 15 2.25L15 2.75A0.25 0.25 0 0 1 14.75 3L14.25 3A0.25 0.25 0 0 1 14 2.75L14 2.25A0.25 0.25 0 0 0 13.75 2L13.25 2A0.25 0.25 0 0 1 13 1.75L13 1.25A0.25 0.25 0 0 0 12.75 1L12.25 1A0.25 0.25 0 0 0 12 1.25L12 1.75A0.25 0.25 0 0 1 11.75 2L11.25 2A0.25 0.25 0 0 1 11 1.75L11 1.25A0.25 0.25 0 0 0 10.75 1L10.25 1A0.25 0.25 0 0 0 10 1.25ZM15 3.25L15 3.75A0.25 0.25 0 0 0 15.25 4L15.75 4A0.25 0.25 0 0 0 16 3.75L16 3.25A0.25 0.25 0 0 0 15.75 3L15.25 3A0.25 0.25 0 0 0 15 3.25ZM10 4.25L10 4.75A0.25 0.25 0 0 0 10.25 5L10.75 5A0.25 0.25 0 0 0 11 4.75L11 4.25A0.25 0.25 0 0 0 10.75 4L10.25 4A0.25 0.25 0 0 0 10 4.25ZM13 4.25L13 4.75A0.25 0.25 0 0 0 13.25 5L13.75 5A0.25 0.25 0 0 0 14 4.75L14 4.25A0.25 0.25 0 0 0 13.75 4L13.25 4A0.25 0.25 0 0 0 13 4.25ZM19 5.25L19 5.75A0.25 0.25 0 0 1 18.75 6L18.25 6A0.25 0.25 0 0 0 18 6.25L18 7.75A0.25 0.25 0 0 0 18.25 8L18.75 8A0.25 0.25 0 0 1 19 8.25L19 8.75A0.25 0.25 0 0 0 19.25 9L19.75 9A0.25 0.25 0 0 1 20 9.25L20 9.75A0.25 0.25 0 0 0 20.25 10L20.75 10A0.25 0.25 0 0 0 21 9.75L21 9.25A0.25 0.25 0 0 0 20.75 9L20.25 9A0.25 0.25 0 0 1 20 8.75L20 8.25A0.25 0.25 0 0 1 20.25 8L20.75 8A0.25 0.25 0 0 0 21 7.75L21 6.25A0.25 0.25 0 0 1 21.25 6L21.75 6A0.25 0.25 0 0 1 22 6.25L22 6.75A0.25 0.25 0 0 0 22.25 7L22.75 7A0.25 0.25 0 0 0 23 6.75L23 6.25A0.25 0.25 0 0 0 22.75 6L22.25 6A0.25 0.25 0 0 1 22 5.75L22 5.25A0.25 0.25 0 0 0 21.75 5L21.25 5A0.25 0.25 0 0 0 21 5.25L21 5.75A0.25 0.25 0 0 1 20.75 6L20.25 6A0.25 0.25 0 0 1 20 5.75L20 5.25A0.25 0.25 0 0 0 19.75 5L19.25 5A0.25 0.25 0 0 0 19 5.25ZM19 6.25L19 7.75A0.25 0.25 0 0 0 19.25 8L19.75 8A0.25 0.25 0 0 0 20 7.75L20 6.25A0.25 0.25 0 0 0 19.75 6L19.25 6A0.25 0.25 0 0 0 19 6.25ZM30 8.25L30 8.75A0.25 0.25 0 0 0 30.25 9L30.75 9A0.25 0.25 0 0 0 31 8.75L31 8.25A0.25 0.25 0 0 0 30.75 8L30.25 8A0.25 0.25 0 0 0 30 8.25ZM32 8.25L32 8.75A0.25 0.25 0 0 0 32.25 9L32.75 9A0.25 0.25 0 0 0 33 8.75L33 8.25A0.25 0.25 0 0 0 32.75 8L32.25 8A0.25 0.25 0 0 0 32 8.25ZM26 9.25L26 9.75A0.25 0.25 0 0 0 26.25 10L26.75 10A0.25 0.25 0 0 0 27 9.75L27 9.25A0.25 0.25 0 0 0 26.75 9L26.25 9A0.25 0.25 0 0 0 26 9.25ZM8 10.25L8 10.75A0.25 0.25 0 0 0 8.25 11L8.75 11A0.25 0.25 0 0 0 9 10.75L9 10.25A0.25 0.25 0 0 0 8.75 10L8.25 10A0.25 0.25 0 0 0 8 10.25ZM18 10.25L18 10.75A0.25 0.25 0 0 1 17.75 11L16.25 11A0.25 0.25 0 0 0 16 11.25L16 15.75A0.25 0.25 0 0 0 16.25 16L17.75 16A0.25 0.25 0 0 1 18 16.25L18 16.75A0.25 0.25 0 0 1 17.75 17L15.25 17A0.25 0.25 0 0 1 15 16.75L15 16.25A0.25 0.25 0 0 0 14.75 16L14.25 16A0.25 0.25 0 0 1 14 15.75L14 14.25A0.25 0.25 0 0 1 14.25 14L14.75 14A0.25 0.25 0 0 0 15 13.75L15 11.25A0.25 0.25 0 0 0 14.75 11L14.25 11A0.25 0.25 0 0 0 14 11.25L14 13.75A0.25 0.25 0 0 1 13.75 14L13.25 14A0.25 0.25 0 0 0 13 14.25L13 14.75A0.25 0.25 0 0 1 12.75 15L12.25 15A0.25 0.25 0 0 0 12 15.25L12 16.75A0.25 0.25 0 0 1 11.75 17L11.25 17A0.25 0.25 0 0 1 11 16.75L11 16.25A0.25 0.25 0 0 0 10.75 16L9.25 16A0.25 0.25 0 0 0 9 16.25L9 16.75A0.25 0.25 0 0 0 9.25 17L10.75 17A0.25 0.25 0 0 1 11 17.25L11 17.75A0.25 0.25 0 0 0 11.25 18L11.75 18A0.25 0.25 0 0 0 12 17.75L12 17.25A0.25 0.25 0 0 1 12.25 17L12.75 17A0.25 0.25 0 0 0 13 16.75L13 16.25A0.25 0.25 0 0 1 13.25 16L13.75 16A0.25 0.25 0 0 1 14 16.25L14 16.75A0.25 0.25 0 0 0 14.25 17L14.75 17A0.25 0.25 0 0 1 15 17.25L15 17.75A0.25 0.25 0 0 1 14.75 18L13.25 18A0.25 0.25 0 0 0 13 18.25L13 18.75A0.25 0.25 0 0 0 13.25 19L13.75 19A0.25 0.25 0 0 1 14 19.25L14 19.75A0.25 0.25 0 0 0 14.25 20L15.75 20A0.25 0.25 0 0 1 16 20.25L16 20.75A0.25 0.25 0 0 0 16.25 21L16.75 21A0.25 0.25 0 0 0 17 20.75L17 20.25A0.25 0.25 0 0 1 17.25 20L17.75 20A0.25 0.25 0 0 1 18 20.25L18 20.75A0.25 0.25 0 0 0 18.25 21L18.75 21A0.25 0.25 0 0 0 19 20.75L19 20.25A0.25 0.25 0 0 0 18.75 20L18.25 20A0.25 0.25 0 0 1 18 19.75L18 19.25A0.25 0.25 0 0 1 18.25 19L21.75 19A0.25 0.25 0 0 0 22 18.75L22 18.25A0.25 0.25 0 0 0 21.75 18L18.25 18A0.25 0.25 0 0 1 18 17.75L18 17.25A0.25 0.25 0 0 1 18.25 17L19.75 17A0.25 0.25 0 0 0 20 16.75L20 16.25A0.25 0.25 0 0 1 20.25 16L20.75 16A0.25 0.25 0 0 0 21 15.75L21 15.25A0.25 0.25 0 0 0 20.75 15L19.25 15A0.25 0.25 0 0 1 19 14.75L19 14.25A0.25 0.25 0 0 1 19.25 14L19.75 14A0.25 0.25 0 0 0 20 13.75L20 12.25A0.25 0.25 0 0 1 20.25 12L20.75 12A0.25 0.25 0 0 0 21 11.75L21 11.25A0.25 0.25 0 0 0 20.75 11L19.25 11A0.25 0.25 0 0 1 19 10.75L19 10.25A0.25 0.25 0 0 0 18.75 10L18.25 10A0.25 0.25 0 0 0 18 10.25ZM30 10.25L30 11.75A0.25 0.25 0 0 0 30.25 12L32.75 12A0.25 0.25 0 0 0 33 11.75L33 11.25A0.25 0.25 0 0 0 32.75 11L32.25 11A0.25 0.25 0 0 1 32 10.75L32 10.25A0.25 0.25 0 0 0 31.75 10L30.25 10A0.25 0.25 0 0 0 30 10.25ZM18 11.25L18 11.75A0.25 0.25 0 0 1 17.75 12L17.25 12A0.25 0.25 0 0 0 17 12.25L17 12.75A0.25 0.25 0 0 0 17.25 13L17.75 13A0.25 0.25 0 0 1 18 13.25L18 13.75A0.25 0.25 0 0 1 17.75 14L17.25 14A0.25 0.25 0 0 0 17 14.25L17 14.75A0.25 0.25 0 0 0 17.25 15L17.75 15A0.25 0.25 0 0 1 18 15.25L18 15.75A0.25 0.25 0 0 0 18.25 16L18.75 16A0.25 0.25 0 0 0 19 15.75L19 15.25A0.25 0.25 0 0 0 18.75 15L18.25 15A0.25 0.25 0 0 1 18 14.75L18 14.25A0.25 0.25 0 0 1 18.25 14L18.75 14A0.25 0.25 0 0 0 19 13.75L19 13.25A0.25 0.25 0 0 0 18.75 13L18.25 13A0.25 0.25 0 0 1 18 12.75L18 12.25A0.25 0.25 0 0 1 18.25 12L18.75 12A0.25 0.25 0 0 0 19 11.75L19 11.25A0.25 0.25 0 0 0 18.75 11L18.25 11A0.25 0.25 0 0 0 18 11.25ZM5 12.25L5 12.75A0.25 0.25 0 0 0 5.25 13L6.75 13A0.25 0.25 0 0 0 7 12.75L7 12.25A0.25 0.25 0 0 0 6.75 12L5.25 12A0.25 0.25 0 0 0 5 12.25ZM28 13.25L28 13.75A0.25 0.25 0 0 0 28.25 14L28.75 14A0.25 0.25 0 0 0 29 13.75L29 13.25A0.25 0.25 0 0 0 28.75 13L28.25 13A0.25 0.25 0 0 0 28 13.25ZM30 14.25L30 14.75A0.25 0.25 0 0 0 30.25 15L30.75 15A0.25 0.25 0 0 0 31 14.75L31 14.25A0.25 0.25 0 0 0 30.75 14L30.25 14A0.25 0.25 0 0 0 30 14.25ZM6 17.25L6 17.75A0.25 0.25 0 0 0 6.25 18L6.75 18A0.25 0.25 0 0 0 7 17.75L7 17.25A0.25 0.25 0 0 0 6.75 17L6.25 17A0.25 0.25 0 0 0 6 17.25ZM16 19.25L16 19.75A0.25 0.25 0 0 0 16.25 20L16.75 20A0.25 0.25 0 0 0 17 19.75L17 19.25A0.25 0.25 0 0 0 16.75 19L16.25 19A0.25 0.25 0 0 0 16 19.25ZM20 20.25L20 20.75A0.25 0.25 0 0 0 20.25 21L20.75 21A0.25 0.25 0 0 0 21 20.75L21 20.25A0.25 0.25 0 0 0 20.75 20L20.25 20A0.25 0.25 0 0 0 20 20.25ZM6 21.25L6 21.75A0.25 0.25 0 0 0 6.25 22L6.75 22A0.25 0.25 0 0 0 7 21.75L7 21.25A0.25 0.25 0 0 0 6.75 21L6.25 21A0.25 0.25 0 0 0 6 21.25ZM13 21.25L13 21.75A0.25 0.25 0 0 0 13.25 22L13.75 22A0.25 0.25 0 0 0 14 21.75L14 21.25A0.25 0.25 0 0 0 13.75 21L13.25 21A0.25 0.25 0 0 0 13 21.25ZM1 22.25L1 23.75A0.25 0.25 0 0 0 1.25 24L1.75 24A0.25 0.25 0 0 0 2 23.75L2 22.25A0.25 0.25 0 0 0 1.75 22L1.25 22A0.25 0.25 0 0 0 1 22.25ZM18 22.25L18 22.75A0.25 0.25 0 0 0 18.25 23L21.75 23A0.25 0.25 0 0 0 22 22.75L22 22.25A0.25 0.25 0 0 0 21.75 22L18.25 22A0.25 0.25 0 0 0 18 22.25ZM3 23.25L3 23.75A0.25 0.25 0 0 0 3.25 24L3.75 24A0.25 0.25 0 0 0 4 23.75L4 23.25A0.25 0.25 0 0 0 3.75 23L3.25 23A0.25 0.25 0 0 0 3 23.25ZM6 24.25L6 24.75A0.25 0.25 0 0 0 6.25 25L7.75 25A0.25 0.25 0 0 1 8 25.25L8 25.75A0.25 0.25 0 0 0 8.25 26L8.75 26A0.25 0.25 0 0 0 9 25.75L9 25.25A0.25 0.25 0 0 1 9.25 25L9.75 25A0.25 0.25 0 0 0 10 24.75L10 24.25A0.25 0.25 0 0 0 9.75 24L6.25 24A0.25 0.25 0 0 0 6 24.25ZM18 24.25L18 24.75A0.25 0.25 0 0 0 18.25 25L18.75 25A0.25 0.25 0 0 0 19 24.75L19 24.25A0.25 0.25 0 0 0 18.75 24L18.25 24A0.25 0.25 0 0 0 18 24.25ZM20 24.25L20 24.75A0.25 0.25 0 0 0 20.25 25L21.75 25A0.25 0.25 0 0 0 22 24.75L22 24.25A0.25 0.25 0 0 0 21.75 24L20.25 24A0.25 0.25 0 0 0 20 24.25ZM30 24.25L30 24.75A0.25 0.25 0 0 1 29.75 25L29.25 25A0.25 0.25 0 0 0 29 25.25L29 27.75A0.25 0.25 0 0 0 29.25 28L29.75 28A0.25 0.25 0 0 1 30 28.25L30 28.75A0.25 0.25 0 0 1 29.75 29L29.25 29A0.25 0.25 0 0 0 29 29.25L29 29.75A0.25 0.25 0 0 0 29.25 30L29.75 30A0.25 0.25 0 0 1 30 30.25L30 30.75A0.25 0.25 0 0 0 30.25 31L30.75 31A0.25 0.25 0 0 0 31 30.75L31 30.25A0.25 0.25 0 0 1 31.25 30L31.75 30A0.25 0.25 0 0 0 32 29.75L32 29.25A0.25 0.25 0 0 0 31.75 29L31.25 29A0.25 0.25 0 0 1 31 28.75L31 28.25A0.25 0.25 0 0 1 31.25 28L31.75 28A0.25 0.25 0 0 0 32 27.75L32 27.25A0.25 0.25 0 0 0 31.75 27L31.25 27A0.25 0.25 0 0 0 31 27.25L31 27.75A0.25 0.25 0 0 1 30.75 28L30.25 28A0.25 0.25 0 0 1 30 27.75L30 25.25A0.25 0.25 0 0 1 30.25 25L30.75 25A0.25 0.25 0 0 1 31 25.25L31 25.75A0.25 0.25 0 0 0 31.25 26L31.75 26A0.25 0.25 0 0 0 32 25.75L32 25.25A0.25 0.25 0 0 0 31.75 25L31.25 25A0.25 0.25 0 0 1 31 24.75L31 24.25A0.25 0.25 0 0 0 30.75 24L30.25 24A0.25 0.25 0 0 0 30 24.25ZM25 25.25L25 27.75A0.25 0.25 0 0 0 25.25 28L27.75 28A0.25 0.25 0 0 0 28 27.75L28 25.25A0.25 0.25 0 0 0 27.75 25L25.25 25A0.25 0.25 0 0 0 25 25.25ZM26 26.25L26 26.75A0.25 0.25 0 0 0 26.25 27L26.75 27A0.25 0.25 0 0 0 27 26.75L27 26.25A0.25 0.25 0 0 0 26.75 26L26.25 26A0.25 0.25 0 0 0 26 26.25ZM10 27.25L10 28.75A0.25 0.25 0 0 0 10.25 29L11.75 29A0.25 0.25 0 0 0 12 28.75L12 28.25A0.25 0.25 0 0 0 11.75 28L11.25 28A0.25 0.25 0 0 1 11 27.75L11 27.25A0.25 0.25 0 0 0 10.75 27L10.25 27A0.25 0.25 0 0 0 10 27.25ZM26 31.25L26 31.75A0.25 0.25 0 0 0 26.25 32L26.75 32A0.25 0.25 0 0 0 27 31.75L27 31.25A0.25 0.25 0 0 0 26.75 31L26.25 31A0.25 0.25 0 0 0 26 31.25ZM0 0.25L0 6.75A0.25 0.25 0 0 0 0.25 7L6.75 7A0.25 0.25 0 0 0 7 6.75L7 0.25A0.25 0.25 0 0 0 6.75 0L0.25 0A0.25 0.25 0 0 0 0 0.25ZM1 1.25L1 5.75A0.25 0.25 0 0 0 1.25 6L5.75 6A0.25 0.25 0 0 0 6 5.75L6 1.25A0.25 0.25 0 0 0 5.75 1L1.25 1A0.25 0.25 0 0 0 1 1.25ZM2 2.25L2 4.75A0.25 0.25 0 0 0 2.25 5L4.75 5A0.25 0.25 0 0 0 5 4.75L5 2.25A0.25 0.25 0 0 0 4.75 2L2.25 2A0.25 0.25 0 0 0 2 2.25ZM26 0.25L26 6.75A0.25 0.25 0 0 0 26.25 7L32.75 7A0.25 0.25 0 0 0 33 6.75L33 0.25A0.25 0.25 0 0 0 32.75 0L26.25 0A0.25 0.25 0 0 0 26 0.25ZM27 1.25L27 5.75A0.25 0.25 0 0 0 27.25 6L31.75 6A0.25 0.25 0 0 0 32 5.75L32 1.25A0.25 0.25 0 0 0 31.75 1L27.25 1A0.25 0.25 0 0 0 27 1.25ZM28 2.25L28 4.75A0.25 0.25 0 0 0 28.25 5L30.75 5A0.25 0.25 0 0 0 31 4.75L31 2.25A0.25 0.25 0 0 0 30.75 2L28.25 2A0.25 0.25 0 0 0 28 2.25ZM0 26.25L0 32.75A0.25 0.25 0 0 0 0.25 33L6.75 33A0.25 0.25 0 0 0 7 32.75L7 26.25A0.25 0.25 0 0 0 6.75 26L0.25 26A0.25 0.25 0 0 0 0 26.25ZM1 27.25L1 31.75A0.25 0.25 0 0 0 1.25 32L5.75 32A0.25 0.25 0 0 0 6 31.75L6 27.25A0.25 0.25 0 0 0 5.75 27L1.25 27A0.25 0.25 0 0 0 1 27.25ZM2 28.25L2 30.75A0.25 0.25 0 0 0 2.25 31L4.75 31A0.25 0.25 0 0 0 5 30.75L5 28.25A0.25 0.25 0 0 0 4.75 28L2.25 28A0.25 0.25 0 0 0 2 28.25Z" fill="#000000"/></g></g></svg>
