<?xml version="1.0" encoding="UTF-8"?>
<svg xmlns="http://www.w3.org/2000/svg" version="1.1" width="500" height="500" viewBox="0 0 500 500"><rect x="0" y="0" width="500" height="500" fill="#ffffff"/><g transform="scale(15.152)"><g transform="translate(0,0)"><path fill-rule="evenodd" d="M8 0.25L8 0.75A0.25 0.25 0 0 0 8.25 1L10.75 1A0.25 0.25 0 0 0 11 0.75L11 0.25A0.25 0.25 0 0 0 10.75 0L8.25 0A0.25 0.25 0 0 0 8 0.25ZM12 0.25L12 1.75A0.25 0.25 0 0 0 12.25 2L12.75 2A0.25 0.25 0 0 0 13 1.75L13 0.25A0.25 0.25 0 0 0 12.75 0L12.25 0A0.25 0.25 0 0 0 12 0.25ZM16 0.25L16 0.75A0.25 0.25 0 0 0 16.25 1L19.75 1A0.25 0.25 0 0 1 20 1.25L20 1.75A0.25 0.25 0 0 0 20.25 2L20.75 2A0.25 0.25 0 0 0 21 1.75L21 1.25A0.25 0.25 0 0 0 20.75 1L20.25 1A0.25 0.25 0 0 1 20 0.75L20 0.25A0.25 0.25 0 0 0 19.75 0L16.25 0A0.25 0.25 0 0 0 16 0.25ZM22 0.25L22 0.75A0.25 0.25 0 0 0 22.25 1L22.75 1A0.25 0.25 0 0 1 23 1.25L23 2.75A0.25 0.25 0 0 1 22.75 3L22.25 3A0.25 0.25 0 0 0 22 3.25L22 3.75A0.25 0.25 0 0 0 22.25 4L22.75 4A0.25 0.25 0 0 1 23 4.25L23 5.75A0.25 0.25 0 0 1 22.75 6L22.25 6A0.25 0.25 0 0 0 22 6.25L22 6.75A0.25 0.25 0 0 1 21.75 7L21.25 7A0.25 0.25 0 0 1 21 6.75L21 6.25A0.25 0.25 0 0 0 20.75 6L20.25 6A0.25 0.25 0 0 1 20 5.75L20 5.25A0.25 0.25 0 0 0 19.75 5L19.25 5A0.25 0.25 0 0 1 19 4.75L19 4.25A0.25 0.25 0 0 1 19.25 4L20.75 4A0.25 0.25 0 0 0 21 3.75L21 3.25A0.25 0.25 0 0 0 20.75 3L19.25 3A0.25 0.25 0 0 0 19 3.25L19 3.75A0.25 0.25 0 0 1 18.75 4L17.25 4A0.25 0.25 0 0 1 17 3.75L17 3.25A0.25 0.25 0 0 1 17.25 3L17.75 3A0.25 0.25 0 0 0 18 2.75L18 2.25A0.25 0.25 0 0 0 17.75 2L15.25 2A0.25 0.25 0 0 1 15 1.75L15 1.25A0.25 0.25 0 0 0 14.75 1L14.25 1A0.25 0.25 0 0 0 14 1.25L14 1.75A0.25 0.25 0 0 0 14.25 2L14.75 2A0.25 0.25 0 0 1 15 2.25L15 2.75A0.25 0.25 0 0 1 14.75 3L13.25 3A0.25 0.25 0 0 0 13 3.25L13 3.75A0.25 0.25 0 0 1 12.75 4L12.25 4A0.25 0.25 0 0 1 12 3.75L12 3.25A0.25 0.25 0 0 0 11.75 3L10.25 3A0.25 0.25 0 0 0 10 3.25L10 3.75A0.25 0.25 0 0 1 9.75 4L9.25 4A0.25 0.25 0 0 1 9 3.75L9 3.25A0.25 0.25 0 0 0 8.75 3L8.25 3A0.25 0.25 0 0 0 8 3.25L8 3.75A0.25 0.25 0 0 0 8.25 4L8.75 4A0.25 0.25 0 0 1 9 4.25L9 4.75A0.25 0.25 0 0 0 9.25 5L9.75 5A0.25 0.25 0 0 1 10 5.25L10 6.75A0.25 0.25 0 0 1 9.75 7L9.25 7A0.25 0.25 0 0 1 9 6.75L9 6.25A0.25 0.25 0 0 0 8.75 6L8.25 6A0.25 0.25 0 0 0 8 6.25L8 6.75A0.25 0.25 0 0 0 8.25 7L8.75 7A0.25 0.25 0 0 1 9 7.25L9 7.75A0.25 0.25 0 0 1 8.75 8L8.25 8A0.25 0.25 0 0 0 8 8.25L8 8.75A0.25 0.25 0 0 1 7.75 9L7.25 9A0.25 0.25 0 0 1 7 8.75L7 8.25A0.25 0.25 0 0 0 6.75 8L4.25 8A0.25 0.25 0 0 0 4 8.25L4 9.75A0.25 0.25 0 0 0 4.25 10L4.75 10A0.25 0.25 0 0 1 5 10.25L5 11.75A0.25 0.25 0 0 0 5.25 12L5.75 12A0.25 0.25 0 0 1 6 12.25L6 12.75A0.25 0.25 0 0 1 5.75 13L4.25 13A0.25 0.25 0 0 0 4 13.25L4 13.75A0.25 0.25 0 0 0 4.25 14L5.75 14A0.25 0.25 0 0 1 6 14.25L6 14.75A0.25 0.25 0 0 1 5.75 15L5.25 15A0.25 0.25 0 0 0 5 15.25L5 15.75A0.25 0.25 0 0 0 5.25 16L5.75 16A0.25 0.25 0 0 1 6 16.25L6 16.75A0.25 0.25 0 0 1 5.75 17L5.25 17A0.25 0.25 0 0 0 5 17.25L5 17.75A0.25 0.25 0 0 1 4.75 18L4.25 18A0.25 0.25 0 0 1 4 17.75L4 17.25A0.25 0.25 0 0 0 3.75 17L3.25 17A0.25 0.25 0 0 1 3 16.75L3 14.25A0.25 0.25 0 0 0 2.75 14L2.25 14A0.25 0.25 0 0 1 2 13.75L2 13.25A0.25 0.25 0 0 1 2.25 13L2.75 13A0.25 0.25 0 0 0 3 12.75L3 12.25A0.25 0.25 0 0 1 3.25 12L3.75 12A0.25 0.25 0 0 0 4 11.75L4 11.25A0.25 0.25 0 0 0 3.75 11L2.25 11A0.25 0.25 0 0 1 2 10.75L2 9.25A0.25 0.25 0 0 1 2.25 9L2.75 9A0.25 0.25 0 0 0 3 8.75L3 8.25A0.25 0.25 0 0 0 2.75 8L2.25 8A0.25 0.25 0 0 0 2 8.25L2 8.75A0.25 0.25 0 0 1 1.75 9L0.25 9A0.25 0.25 0 0 0 0 9.25L0 9.75A0.25 0.25 0 0 0 0.25 10L0.75 10A0.25 0.25 0 0 1 1 10.25L1 10.75A0.25 0.25 0 0 1 0.75 11L0.25 11A0.25 0.25 0 0 0 0 11.25L0 11.75A0.25 0.25 0 0 0 0.25 12L0.75 12A0.25 0.25 0 0 1 1 12.25L1 12.75A0.25 0.25 0 0 1 0.75 13L0.25 13A0.25 0.25 0 0 0 0 13.25L0 14.75A0.25 0.25 0 0 0 0.25 15L0.75 15A0.25 0.25 0 0 0 1 14.75L1 14.25A0.25 0.25 0 0 1 1.25 14L1.75 14A0.25 0.25 0 0 1 2 14.25L2 15.75A0.25 0.25 0 0 1 1.75 16L0.25 16A0.25 0.25 0 0 0 0 16.25L0 19.75A0.25 0.25 0 0 0 0.25 20L0.75 20A0.25 0.25 0 0 0 1 19.75L1 17.25A0.25 0.25 0 0 1 1.25 17L2.75 17A0.25 0.25 0 0 1 3 17.25L3 18.75A0.25 0.25 0 0 0 3.25 19L4.75 19A0.25 0.25 0 0 0 5 18.75L5 18.25A0.25 0.25 0 0 1 5.25 18L5.75 18A0.25 0.25 0 0 1 6 18.25L6 18.75A0.25 0.25 0 0 0 6.25 19L8.75 19A0.25 0.25 0 0 1 9 19.25L9 19.75A0.25 0.25 0 0 1 8.75 20L8.25 20A0.25 0.25 0 0 0 8 20.25L8 20.75A0.25 0.25 0 0 0 8.25 21L9.75 21A0.25 0.25 0 0 1 10 21.25L10 21.75A0.25 0.25 0 0 1 9.75 22L8.25 22A0.25 0.25 0 0 0 8 22.25L8 22.75A0.25 0.25 0 0 1 7.75 23L7.25 23A0.25 0.25 0 0 1 7 22.75L7 22.25A0.25 0.25 0 0 0 6.75 22L6.25 22A0.25 0.25 0 0 1 6 21.75L6 21.25A0.25 0.25 0 0 1 6.25 21L6.75 21A0.25 0.25 0 0 0 7 20.75L7 20.25A0.25 0.25 0 0 0 6.75 20L6.25 20A0.25 0.25 0 0 0 6 20.25L6 20.75A0.25 0.25 0 0 1 5.75 21L5.25 21A0.25 0.25 0 0 1 5 20.75L5 20.25A0.25 0.25 0 0 0 4.75 20L2.25 20A0.25 0.25 0 0 0 2 20.25L2 20.75A0.25 0.25 0 0 1 1.75 21L1.25 21A0.25 0.25 0 0 0 1 21.25L1 21.75A0.25 0.25 0 0 1 0.75 22L0.25 22A0.25 0.25 0 0 0 0 22.25L0 22.75A0.25 0.25 0 0 0 0.25 23L0.75 23A0.25 0.25 0 0 1 1 23.25L1 23.75A0.25 0.25 0 0 1 0.75 24L0.25 24A0.25 0.25 0 0 0 0 24.25L0 24.75A0.25 0.25 0 0 0 0.25 25L0.75 25A0.25 0.25 0 0 0 1 24.75L1 24.25A0.25 0.25 0 0 1 1.25 24L1.75 24A0.25 0.25 0 0 1 2 24.25L2 24.75A0.25 0.25 0 0 0 2.25 25L2.75 25A0.25 0.25 0 0 0 3 24.75L3 24.25A0.25 0.25 0 0 1 3.25 24L3.75 24A0.25 0.25 0 0 1 4 24.25L4 24.75A0.25 0.25 0 0 0 4.25 25L6.75 25A0.25 0.25 0 0 0 7 24.75L7 24.25A0.25 0.25 0 0 1 7.25 24L7.75 24A0.25 0.25 0 0 1 8 24.25L8 25.75A0.25 0.25 0 0 0 8.25 26L8.75 26A0.25 0.25 0 0 1 9 26.25L9 26.75A0.25 0.25 0 0 1 8.75 27L8.25 27A0.25 0.25 0 0 0 8 27.25L8 28.75A0.25 0.25 0 0 0 8.25 29L8.75 29A0.25 0.25 0 0 1 9 29.25L9 29.75A0.25 0.25 0 0 1 8.75 30L8.25 30A0.25 0.25 0 0 0 8 30.25L8 30.75A0.25 0.25 0 0 0 8.25 31L8.75 31A0.25 0.25 0 0 1 9 31.25L9 31.75A0.25 0.25 0 0 0 9.25 32L9.75 32A0.25 0.25 0 0 0 10 31.75L10 31.25A0.25 0.25 0 0 1 10.25 31L10.75 31A0.25 0.25 0 0 1 11 31.25L11 32.75A0.25 0.25 0 0 0 11.25 33L12.75 33A0.25 0.25 0 0 0 13 32.75L13 31.25A0.25 0.25 0 0 1 13.25 31L14.75 31A0.25 0.25 0 0 1 15 31.25L15 32.75A0.25 0.25 0 0 0 15.25 33L15.75 33A0.25 0.25 0 0 0 16 32.75L16 32.25A0.25 0.25 0 0 1 16.25 32L16.75 32A0.25 0.25 0 0 1 17 32.25L17 32.75A0.25 0.25 0 0 0 17.25 33L18.75 33A0.25 0.25 0 0 0 19 32.75L19 32.25A0.25 0.25 0 0 1 19.25 32L19.75 32A0.25 0.25 0 0 1 20 32.25L20 32.75A0.25 0.25 0 0 0 20.25 33L24.75 33A0.25 0.25 0 0 0 25 32.75L25 32.25A0.25 0.25 0 0 1 25.25 32L25.75 32A0.25 0.25 0 0 1 26 32.25L26 32.75A0.25 0.25 0 0 0 26.25 33L32.75 33A0.25 0.25 0 0 0 33 32.75L33 32.25A0.25 0.25 0 0 0 32.75 32L32.25 32A0.25 0.25 0 0 1 32 31.75L32 31.25A0.25 0.25 0 0 1 32.25 31L32.75 31A0.25 0.25 0 0 0 33 30.75L33 29.25A0.25 0.25 0 0 0 32.75 29L32.25 29A0.25 0.25 0 0 1 32 28.75L32 27.25A0.25 0.25 0 0 1 32.25 27L32.75 27A0.25 0.25 0 0 0 33 26.75L33 25.25A0.25 0.25 0 0 0 32.75 25L31.25 25A0.25 0.25 0 0 0 31 25.25L31 25.75A0.25 0.25 0 0 1 30.75 26L30.25 26A0.25 0.25 0 0 1 30 25.75L30 25.25A0.25 0.25 0 0 0 29.75 25L29.25 25A0.25 0.25 0 0 1 29 24.75L29 24.25A0.25 0.25 0 0 0 28.75 24L28.25 24A0.25 0.25 0 0 1 28 23.75L28 23.25A0.25 0.25 0 0 1 28.25 23L29.75 23A0.25 0.25 0 0 0 30 22.75L30 20.25A0.25 0.25 0 0 0 29.75 20L29.25 20A0.25 0.25 0 0 0 29 20.25L29 21.75A0.25 0.25 0 0 1 28.75 22L27.25 22A0.25 0.25 0 0 1 27 21.75L27 20.25A0.25 0.25 0 0 1 27.25 20L27.75 20A0.25 0.25 0 0 0 28 19.75L28 19.25A0.25 0.25 0 0 1 28.25 19L28.75 19A0.25 0.25 0 0 0 29 18.75L29 18.25A0.25 0.25 0 0 1 29.25 18L29.75 18A0.25 0.25 0 0 1 30 18.25L30 18.75A0.25 0.25 0 0 0 30.25 19L30.75 19A0.25 0.25 0 0 1 31 19.25L31 19.75A0.25 0.25 0 0 0 31.25 20L31.75 20A0.25 0.25 0 0 1 32 20.25L32 22.75A0.25 0.25 0 0 1 31.75 23L31.25 23A0.25 0.25 0 0 0 31 23.25L31 23.75A0.25 0.25 0 0 0 31.25 24L32.75 24A0.25 0.25 0 0 0 33 23.75L33 13.25A0.25 0.25 0 0 0 32.75 13L32.25 13A0.25 0.25 0 0 1 32 12.75L32 12.25A0.25 0.25 0 0 1 32.25 12L32.75 12A0.25 0.25 0 0 0 33 11.75L33 8.25A0.25 0.25 0 0 0 32.75 8L32.25 8A0.25 0.25 0 0 0 32 8.25L32 8.75A0.25 0.25 0 0 1 31.75 9L30.25 9A0.25 0.25 0 0 1 30 8.75L30 8.25A0.25 0.25 0 0 0 29.75 8L29.25 8A0.25 0.25 0 0 0 29 8.25L29 9.75A0.25 0.25 0 0 1 28.75 10L28.25 10A0.25 0.25 0 0 0 28 10.25L28 10.75A0.25 0.25 0 0 0 28.25 11L28.75 11A0.25 0.25 0 0 1 29 11.25L29 13.75A0.25 0.25 0 0 1 28.75 14L28.25 14A0.25 0.25 0 0 1 28 13.75L28 12.25A0.25 0.25 0 0 0 27.75 12L26.25 12A0.25 0.25 0 0 1 26 11.75L26 10.25A0.25 0.25 0 0 1 26.25 10L26.75 10A0.25 0.25 0 0 0 27 9.75L27 9.25A0.25 0.25 0 0 0 26.75 9L26.25 9A0.25 0.25 0 0 1 26 8.75L26 8.25A0.25 0.25 0 0 0 25.75 8L24.25 8A0.25 0.25 0 0 1 24 7.75L24 7.25A0.25 0.25 0 0 1 24.25 7L24.75 7A0.25 0.25 0 0 0 25 6.75L25 3.25A0.25 0.25 0 0 0 24.75 3L24.25 3A0.25 0.25 0 0 1 24 2.75L24 2.25A0.25 0.25 0 0 1 24.25 2L24.75 2A0.25 0.25 0 0 0 25 1.75L25 0.25A0.25 0.25 0 0 0 24.75 0L22.25 0A0.25 0.25 0 0 0 22 0.25ZM15 3.25L15 3.75A0.25 0.25 0 0 0 15.25 4L15.75 4A0.25 0.25 0 0 1 16 4.25L16 4.75A0.25 0.25 0 0 1 15.75 5L14.25 5A0.25 0.25 0 0 1 14 4.75L14 4.25A0.25 0.25 0 0 0 13.75 4L13.25 4A0.25 0.25 0 0 0 13 4.25L13 4.75A0.25 0.25 0 0 0 13.25 5L13.75 5A0.25 0.25 0 0 1 14 5.25L14 5.75A0.25 0.25 0 0 1 13.75 6L13.25 6A0.25 0.25 0 0 0 13 6.25L13 6.75A0.25 0.25 0 0 1 12.75 7L12.25 7A0.25 0.25 0 0 1 12 6.75L12 6.25A0.25 0.25 0 0 0 11.75 6L11.25 6A0.25 0.25 0 0 0 11 6.25L11 7.75A0.25 0.25 0 0 0 11.25 8L13.75 8A0.25 0.25 0 0 0 14 7.75L14 6.25A0.25 0.25 0 0 1 14.25 6L14.75 6A0.25 0.25 0 0 1 15 6.25L15 6.75A0.25 0.25 0 0 0 15.25 7L15.75 7A0.25 0.25 0 0 1 16 7.25L16 7.75A0.25 0.25 0 0 0 16.25 8L17.75 8A0.25 0.25 0 0 1 18 8.25L18 9.75A0.25 0.25 0 0 1 17.75 10L17.25 10A0.25 0.25 0 0 1 17 9.75L17 9.25A0.25 0.25 0 0 0 16.75 9L16.25 9A0.25 0.25 0 0 0 16 9.25L16 10.75A0.25 0.25 0 0 1 15.75 11L14.25 11A0.25 0.25 0 0 1 14 10.75L14 10.25A0.25 0.25 0 0 1 14.25 10L14.75 10A0.25 0.25 0 0 0 15 9.75L15 9.25A0.25 0.25 0 0 0 14.75 9L12.25 9A0.25 0.25 0 0 0 12 9.25L12 9.75A0.25 0.25 0 0 1 11.75 10L11.25 10A0.25 0.25 0 0 0 11 10.25L11 11.75A0.25 0.25 0 0 1 10.75 12L10.25 12A0.25 0.25 0 0 1 10 11.75L10 10.25A0.25 0.25 0 0 0 9.75 10L9.25 10A0.25 0.25 0 0 1 9 9.75L9 9.25A0.25 0.25 0 0 1 9.25 9L9.75 9A0.25 0.25 0 0 0 10 8.75L10 8.25A0.25 0.25 0 0 0 9.75 8L9.25 8A0.25 0.25 0 0 0 9 8.25L9 8.75A0.25 0.25 0 0 1 8.75 9L8.25 9A0.25 0.25 0 0 0 8 9.25L8 9.75A0.25 0.25 0 0 0 8.25 10L8.75 10A0.25 0.25 0 0 1 9 10.25L9 11.75A0.25 0.25 0 0 1 8.75 12L8.25 12A0.25 0.25 0 0 1 8 11.75L8 11.25A0.25 0.25 0 0 0 7.75 11L6.25 11A0.25 0.25 0 0 0 6 11.25L6 11.75A0.25 0.25 0 0 0 6.25 12L7.75 12A0.25 0.25 0 0 1 8 12.25L8 12.75A0.25 0.25 0 0 1 7.75 13L6.25 13A0.25 0.25 0 0 0 6 13.25L6 13.75A0.25 0.25 0 0 0 6.25 14L6.75 14A0.25 0.25 0 0 1 7 14.25L7 14.75A0.25 0.25 0 0 1 6.75 15L6.25 15A0.25 0.25 0 0 0 6 15.25L6 15.75A0.25 0.25 0 0 0 6.25 16L6.75 16A0.25 0.25 0 0 0 7 15.75L7 15.25A0.25 0.25 0 0 1 7.25 15L7.75 15A0.25 0.25 0 0 0 8 14.75L8 13.25A0.25 0.25 0 0 1 8.25 13L8.75 13A0.25 0.25 0 0 0 9 12.75L9 12.25A0.25 0.25 0 0 1 9.25 12L9.75 12A0.25 0.25 0 0 1 10 12.25L10 13.75A0.25 0.25 0 0 1 9.75 14L9.25 14A0.25 0.25 0 0 0 9 14.25L9 14.75A0.25 0.25 0 0 0 9.25 15L9.75 15A0.25 0.25 0 0 0 10 14.75L10 14.25A0.25 0.25 0 0 1 10.25 14L10.75 14A0.25 0.25 0 0 1 11 14.25L11 14.75A0.25 0.25 0 0 0 11.25 15L11.75 15A0.25 0.25 0 0 1 12 15.25L12 15.75A0.25 0.25 0 0 1 11.75 16L9.25 16A0.25 0.25 0 0 0 9 16.25L9 16.75A0.25 0.25 0 0 1 8.75 17L8.25 17A0.25 0.25 0 0 0 8 17.25L8 17.75A0.25 0.25 0 0 0 8.25 18L8.75 18A0.25 0.25 0 0 0 9 17.75L9 17.25A0.25 0.25 0 0 1 9.25 17L9.75 17A0.25 0.25 0 0 1 10 17.25L10 17.75A0.25 0.25 0 0 0 10.25 18L11.75 18A0.25 0.25 0 0 1 12 18.25L12 18.75A0.25 0.25 0 0 1 11.75 19L11.25 19A0.25 0.25 0 0 0 11 19.25L11 19.75A0.25 0.25 0 0 1 10.75 20L10.25 20A0.25 0.25 0 0 0 10 20.25L10 20.75A0.25 0.25 0 0 0 10.25 21L10.75 21A0.25 0.25 0 0 1 11 21.25L11 22.75A0.25 0.25 0 0 1 10.75 23L10.25 23A0.25 0.25 0 0 0 10 23.25L10 23.75A0.25 0.25 0 0 0 10.25 24L10.75 24A0.25 0.25 0 0 0 11 23.75L11 23.25A0.25 0.25 0 0 1 11.25 23L11.75 23A0.25 0.25 0 0 1 12 23.25L12 23.75A0.25 0.25 0 0 0 12.25 24L12.75 24A0.25 0.25 0 0 1 13 24.25L13 24.75A0.25 0.25 0 0 1 12.75 25L11.25 25A0.25 0.25 0 0 0 11 25.25L11 26.75A0.25 0.25 0 0 0 11.25 27L12.75 27A0.25 0.25 0 0 0 13 26.75L13 26.25A0.25 0.25 0 0 1 13.25 26L14.75 26A0.25 0.25 0 0 0 15 25.75L15 23.25A0.25 0.25 0 0 1 15.25 23L15.75 23A0.25 0.25 0 0 0 16 22.75L16 22.25A0.25 0.25 0 0 1 16.25 22L16.75 22A0.25 0.25 0 0 1 17 22.25L17 22.75A0.25 0.25 0 0 0 17.25 23L17.75 23A0.25 0.25 0 0 1 18 23.25L18 23.75A0.25 0.25 0 0 1 17.75 24L17.25 24A0.25 0.25 0 0 0 17 24.25L17 24.75A0.25 0.25 0 0 0 17.25 25L17.75 25A0.25 0.25 0 0 0 18 24.75L18 24.25A0.25 0.25 0 0 1 18.25 24L18.75 24A0.25 0.25 0 0 1 19 24.25L19 24.75A0.25 0.25 0 0 0 19.25 25L19.75 25A0.25 0.25 0 0 1 20 25.25L20 25.75A0.25 0.25 0 0 1 19.75 26L19.25 26A0.25 0.25 0 0 0 19 26.25L19 26.75A0.25 0.25 0 0 0 19.25 27L19.75 27A0.25 0.25 0 0 1 20 27.25L20 27.75A0.25 0.25 0 0 1 19.75 28L18.25 28A0.25 0.25 0 0 0 18 28.25L18 29.75A0.25 0.25 0 0 1 17.75 30L17.25 30A0.25 0.25 0 0 0 17 30.25L17 30.75A0.25 0.25 0 0 0 17.25 31L17.75 31A0.25 0.25 0 0 0 18 30.75L18 30.25A0.25 0.25 0 0 1 18.25 30L18.75 30A0.25 0.25 0 0 1 19 30.25L19 30.75A0.25 0.25 0 0 0 19.25 31L19.75 31A0.25 0.25 0 0 1 20 31.25L20 31.75A0.25 0.25 0 0 0 20.25 32L20.75 32A0.25 0.25 0 0 0 21 31.75L21 31.25A0.25 0.25 0 0 1 21.25 31L21.75 31A0.25 0.25 0 0 0 22 30.75L22 30.25A0.25 0.25 0 0 1 22.25 30L23.75 30A0.25 0.25 0 0 1 24 30.25L24 30.75A0.25 0.25 0 0 0 24.25 31L24.75 31A0.25 0.25 0 0 0 25 30.75L25 30.25A0.25 0.25 0 0 0 24.75 30L24.25 30A0.25 0.25 0 0 1 24 29.75L24 27.25A0.25 0.25 0 0 0 23.75 27L23.25 27A0.25 0.25 0 0 0 23 27.25L23 28.75A0.25 0.25 0 0 1 22.75 29L22.25 29A0.25 0.25 0 0 1 22 28.75L22 28.25A0.25 0.25 0 0 0 21.75 28L21.25 28A0.25 0.25 0 0 1 21 27.75L21 27.25A0.25 0.25 0 0 1 21.25 27L21.75 27A0.25 0.25 0 0 0 22 26.75L22 26.25A0.25 0.25 0 0 0 21.75 26L21.25 26A0.25 0.25 0 0 1 21 25.75L21 24.25A0.25 0.25 0 0 0 20.75 24L20.25 24A0.25 0.25 0 0 1 20 23.75L20 23.25A0.25 0.25 0 0 0 19.75 23L19.25 23A0.25 0.25 0 0 1 19 22.75L19 22.25A0.25 0.25 0 0 0 18.75 22L17.25 22A0.25 0.25 0 0 1 17 21.75L17 21.25A0.25 0.25 0 0 1 17.25 21L17.75 21A0.25 0.25 0 0 0 18 20.75L18 14.25A0.25 0.25 0 0 1 18.25 14L18.75 14A0.25 0.25 0 0 1 19 14.25L19 15.75A0.25 0.25 0 0 0 19.25 16L20.75 16A0.25 0.25 0 0 0 21 15.75L21 15.25A0.25 0.25 0 0 0 20.75 15L20.25 15A0.25 0.25 0 0 1 20 14.75L20 14.25A0.25 0.25 0 0 1 20.25 14L21.75 14A0.25 0.25 0 0 1 22 14.25L22 14.75A0.25 0.25 0 0 0 22.25 15L22.75 15A0.25 0.25 0 0 1 23 15.25L23 15.75A0.25 0.25 0 0 1 22.75 16L22.25 16A0.25 0.25 0 0 0 22 16.25L22 17.75A0.25 0.25 0 0 1 21.75 18L21.25 18A0.25 0.25 0 0 1 21 17.75L21 17.25A0.25 0.25 0 0 0 20.75 17L20.25 17A0.25 0.25 0 0 0 20 17.25L20 17.75A0.25 0.25 0 0 1 19.75 18L19.25 18A0.25 0.25 0 0 0 19 18.25L19 18.75A0.25 0.25 0 0 0 19.25 19L19.75 19A0.25 0.25 0 0 1 20 19.25L20 19.75A0.25 0.25 0 0 1 19.75 20L19.25 20A0.25 0.25 0 0 0 19 20.25L19 20.75A0.25 0.25 0 0 0 19.25 21L19.75 21A0.25 0.25 0 0 1 20 21.25L20 21.75A0.25 0.25 0 0 0 20.25 22L20.75 22A0.25 0.25 0 0 1 21 22.25L21 22.75A0.25 0.25 0 0 0 21.25 23L21.75 23A0.25 0.25 0 0 1 22 23.25L22 24.75A0.25 0.25 0 0 0 22.25 25L22.75 25A0.25 0.25 0 0 1 23 25.25L23 25.75A0.25 0.25 0 0 0 23.25 26L23.75 26A0.25 0.25 0 0 0 24 25.75L24 24.25A0.25 0.25 0 0 1 24.25 24L24.75 24A0.25 0.25 0 0 0 25 23.75L25 23.25A0.25 0.25 0 0 1 25.25 23L25.75 23A0.25 0.25 0 0 1 26 23.25L26 23.75A0.25 0.25 0 0 0 26.25 24L26.75 24A0.25 0.25 0 0 0 27 23.75L27 23.25A0.25 0.25 0 0 0 26.75 23L26.25 23A0.25 0.25 0 0 1 26 22.75L26 20.25A0.25 0.25 0 0 1 26.25 20L26.75 20A0.25 0.25 0 0 0 27 19.75L27 19.25A0.25 0.25 0 0 1 27.25 19L27.75 19A0.25 0.25 0 0 0 28 18.75L28 18.25A0.25 0.25 0 0 1 28.25 18L28.75 18A0.25 0.25 0 0 0 29 17.75L29 16.25A0.25 0.25 0 0 1 29.25 16L29.75 16A0.25 0.25 0 0 1 30 16.25L30 16.75A0.25 0.25 0 0 0 30.25 17L30.75 17A0.25 0.25 0 0 1 31 17.25L31 17.75A0.25 0.25 0 0 0 31.25 18L31.75 18A0.25 0.25 0 0 0 32 17.75L32 16.25A0.25 0.25 0 0 0 31.75 16L31.25 16A0.25 0.25 0 0 1 31 15.75L31 12.25A0.25 0.25 0 0 1 31.25 12L31.75 12A0.25 0.25 0 0 0 32 11.75L32 11.25A0.25 0.25 0 0 0 31.75 11L30.25 11A0.25 0.25 0 0 1 30 10.75L30 10.25A0.25 0.25 0 0 0 29.75 10L29.25 10A0.25 0.25 0 0 0 29 10.25L29 10.75A0.25 0.25 0 0 0 29.25 11L29.75 11A0.25 0.25 0 0 1 30 11.25L30 14.75A0.25 0.25 0 0 1 29.75 15L29.25 15A0.25 0.25 0 0 0 29 15.25L29 15.75A0.25 0.25 0 0 1 28.75 16L28.25 16A0.25 0.25 0 0 0 28 16.25L28 17.75A0.25 0.25 0 0 1 27.75 18L27.25 18A0.25 0.25 0 0 0 27 18.25L27 18.75A0.25 0.25 0 0 1 26.75 19L26.25 19A0.25 0.25 0 0 1 26 18.75L26 18.25A0.25 0.25 0 0 0 25.75 18L25.25 18A0.25 0.25 0 0 1 25 17.75L25 17.25A0.25 0.25 0 0 1 25.25 17L25.75 17A0.25 0.25 0 0 0 26 16.75L26 16.25A0.25 0.25 0 0 1 26.25 16L26.75 16A0.25 0.25 0 0 0 27 15.75L27 15.25A0.25 0.25 0 0 1 27.25 15L27.75 15A0.25 0.25 0 0 0 28 14.75L28 14.25A0.25 0.25 0 0 0 27.75 14L27.25 14A0.25 0.25 0 0 0 27 14.25L27 14.75A0.25 0.25 0 0 1 26.75 15L26.25 15A0.25 0.25 0 0 1 26 14.75L26 14.25A0.25 0.25 0 0 0 25.75 14L24.25 14A0.25 0.25 0 0 1 24 13.75L24 13.25A0.25 0.25 0 0 1 24.25 13L24.75 13A0.25 0.25 0 0 0 25 12.75L25 12.25A0.25 0.25 0 0 0 24.75 12L24.25 12A0.25 0.25 0 0 1 24 11.75L24 9.25A0.25 0.25 0 0 0 23.75 9L23.25 9A0.25 0.25 0 0 1 23 8.75L23 7.25A0.25 0.25 0 0 1 23.25 7L23.75 7A0.25 0.25 0 0 0 24 6.75L24 6.25A0.25 0.25 0 0 0 23.75 6L23.25 6A0.25 0.25 0 0 0 23 6.25L23 6.75A0.25 0.25 0 0 1 22.75 7L22.25 7A0.25 0.25 0 0 0 22 7.25L22 8.75A0.25 0.25 0 0 0 22.25 9L22.75 9A0.25 0.25 0 0 1 23 9.25L23 10.75A0.25 0.25 0 0 1 22.75 11L22.25 11A0.25 0.25 0 0 0 22 11.25L22 11.75A0.25 0.25 0 0 1 21.75 12L21.25 12A0.25 0.25 0 0 1 21 11.75L21 11.25A0.25 0.25 0 0 0 20.75 11L20.25 11A0.25 0.25 0 0 1 20 10.75L20 10.25A0.25 0.25 0 0 1 20.25 10L20.75 10A0.25 0.25 0 0 0 21 9.75L21 9.25A0.25 0.25 0 0 0 20.75 9L20.25 9A0.25 0.25 0 0 1 20 8.75L20 8.25A0.25 0.25 0 0 1 20.25 8L20.75 8A0.25 0.25 0 0 0 21 7.75L21 7.25A0.25 0.25 0 0 0 20.75 7L20.25 7A0.25 0.25 0 0 1 20 6.75L20 6.25A0.25 0.25 0 0 0 19.75 6L19.25 6A0.25 0.25 0 0 1 19 5.75L19 5.25A0.25 0.25 0 0 0 18.75 5L18.25 5A0.25 0.25 0 0 0 18 5.25L18 5.75A0.25 0.25 0 0 1 17.75 6L17.25 6A0.25 0.25 0 0 1 17 5.75L17 4.25A0.25 0.25 0 0 0 16.75 4L16.25 4A0.25 0.25 0 0 1 16 3.75L16 3.25A0.25 0.25 0 0 0 15.75 3L15.25 3A0.25 0.25 0 0 0 15 3.25ZM23 3.25L23 3.75A0.25 0.25 0 0 0 23.25 4L23.75 4A0.25 0.25 0 0 0 24 3.75L24 3.25A0.25 0.25 0 0 0 23.75 3L23.25 3A0.25 0.25 0 0 0 23 3.25ZM10 4.25L10 4.75A0.25 0.25 0 0 0 10.25 5L11.75 5A0.25 0.25 0 0 0 12 4.75L12 4.25A0.25 0.25 0 0 0 11.75 4L10.25 4A0.25 0.25 0 0 0 10 4.25ZM16 6.25L16 6.75A0.25 0.25 0 0 0 16.25 7L16.75 7A0.25 0.25 0 0 0 17 6.75L17 6.25A0.25 0.25 0 0 0 16.75 6L16.25 6A0.25 0.25 0 0 0 16 6.25ZM18 6.25L18 6.75A0.25 0.25 0 0 0 18.25 7L18.75 7A0.25 0.25 0 0 0 19 6.75L19 6.25A0.25 0.25 0 0 0 18.75 6L18.25 6A0.25 0.25 0 0 0 18 6.25ZM5 9.25L5 9.75A0.25 0.25 0 0 0 5.25 10L6.75 10A0.25 0.25 0 0 0 7 9.75L7 9.25A0.25 0.25 0 0 0 6.75 9L5.25 9A0.25 0.25 0 0 0 5 9.25ZM19 9.25L19 9.75A0.25 0.25 0 0 0 19.25 10L19.75 10A0.25 0.25 0 0 0 20 9.75L20 9.25A0.25 0.25 0 0 0 19.75 9L19.25 9A0.25 0.25 0 0 0 19 9.25ZM25 9.25L25 9.75A0.25 0.25 0 0 0 25.25 10L25.75 10A0.25 0.25 0 0 0 26 9.75L26 9.25A0.25 0.25 0 0 0 25.75 9L25.25 9A0.25 0.25 0 0 0 25 9.25ZM17 11.25L17 11.75A0.25 0.25 0 0 1 16.75 12L16.25 12A0.25 0.25 0 0 0 16 12.25L16 12.75A0.25 0.25 0 0 1 15.75 13L15.25 13A0.25 0.25 0 0 0 15 13.25L15 13.75A0.25 0.25 0 0 1 14.75 14L14.25 14A0.25 0.25 0 0 1 14 13.75L14 12.25A0.25 0.25 0 0 0 13.75 12L12.25 12A0.25 0.25 0 0 0 12 12.25L12 12.75A0.25 0.25 0 0 1 11.75 13L11.25 13A0.25 0.25 0 0 0 11 13.25L11 13.75A0.25 0.25 0 0 0 11.25 14L11.75 14A0.25 0.25 0 0 0 12 13.75L12 13.25A0.25 0.25 0 0 1 12.25 13L12.75 13A0.25 0.25 0 0 1 13 13.25L13 14.75A0.25 0.25 0 0 0 13.25 15L13.75 15A0.25 0.25 0 0 1 14 15.25L14 15.75A0.25 0.25 0 0 0 14.25 16L14.75 16A0.25 0.25 0 0 1 15 16.25L15 16.75A0.25 0.25 0 0 0 15.25 17L15.75 17A0.25 0.25 0 0 1 16 17.25L16 18.75A0.25 0.25 0 0 0 16.25 19L16.75 19A0.25 0.25 0 0 0 17 18.75L17 16.25A0.25 0.25 0 0 0 16.75 16L16.25 16A0.25 0.25 0 0 1 16 15.75L16 14.25A0.25 0.25 0 0 1 16.25 14L16.75 14A0.25 0.25 0 0 0 17 13.75L17 13.25A0.25 0.25 0 0 1 17.25 13L19.75 13A0.25 0.25 0 0 0 20 12.75L20 11.25A0.25 0.25 0 0 0 19.75 11L17.25 11A0.25 0.25 0 0 0 17 11.25ZM24 15.25L24 15.75A0.25 0.25 0 0 1 23.75 16L23.25 16A0.25 0.25 0 0 0 23 16.25L23 16.75A0.25 0.25 0 0 0 23.25 17L24.75 17A0.25 0.25 0 0 0 25 16.75L25 16.25A0.25 0.25 0 0 1 25.25 16L25.75 16A0.25 0.25 0 0 0 26 15.75L26 15.25A0.25 0.25 0 0 0 25.75 15L24.25 15A0.25 0.25 0 0 0 24 15.25ZM12 16.25L12 17.75A0.25 0.25 0 0 0 12.25 18L13.75 18A0.25 0.25 0 0 1 14 18.25L14 18.75A0.25 0.25 0 0 1 13.75 19L12.25 19A0.25 0.25 0 0 0 12 19.25L12 19.75A0.25 0.25 0 0 1 11.75 20L11.25 20A0.25 0.25 0 0 0 11 20.25L11 20.75A0.25 0.25 0 0 0 11.25 21L11.75 21A0.25 0.25 0 0 0 12 20.75L12 20.25A0.25 0.25 0 0 1 12.25 20L13.75 20A0.25 0.25 0 0 1 14 20.25L14 22.75A0.25 0.25 0 0 1 13.75 23L13.25 23A0.25 0.25 0 0 1 13 22.75L13 22.25A0.25 0.25 0 0 0 12.75 22L12.25 22A0.25 0.25 0 0 0 12 22.25L12 22.75A0.25 0.25 0 0 0 12.25 23L12.75 23A0.25 0.25 0 0 1 13 23.25L13 23.75A0.25 0.25 0 0 0 13.25 24L13.75 24A0.25 0.25 0 0 0 14 23.75L14 23.25A0.25 0.25 0 0 1 14.25 23L14.75 23A0.25 0.25 0 0 0 15 22.75L15 22.25A0.25 0.25 0 0 1 15.25 22L15.75 22A0.25 0.25 0 0 0 16 21.75L16 21.25A0.25 0.25 0 0 1 16.25 21L16.75 21A0.25 0.25 0 0 0 17 20.75L17 20.25A0.25 0.25 0 0 0 16.75 20L15.25 20A0.25 0.25 0 0 1 15 19.75L15 18.25A0.25 0.25 0 0 0 14.75 18L14.25 18A0.25 0.25 0 0 1 14 17.75L14 17.25A0.25 0.25 0 0 0 13.75 17L13.25 17A0.25 0.25 0 0 1 13 16.75L13 16.25A0.25 0.25 0 0 0 12.75 16L12.25 16A0.25 0.25 0 0 0 12 16.25ZM6 17.25L6 17.75A0.25 0.25 0 0 0 6.25 18L6.75 18A0.25 0.25 0 0 0 7 17.75L7 17.25A0.25 0.25 0 0 0 6.75 17L6.25 17A0.25 0.25 0 0 0 6 17.25ZM20 18.25L20 18.75A0.25 0.25 0 0 0 20.25 19L20.75 19A0.25 0.25 0 0 1 21 19.25L21 19.75A0.25 0.25 0 0 1 20.75 20L20.25 20A0.25 0.25 0 0 0 20 20.25L20 20.75A0.25 0.25 0 0 0 20.25 21L21.75 21A0.25 0.25 0 0 1 22 21.25L22 22.75A0.25 0.25 0 0 0 22.25 23L22.75 23A0.25 0.25 0 0 1 23 23.25L23 23.75A0.25 0.25 0 0 0 23.25 24L23.75 24A0.25 0.25 0 0 0 24 23.75L24 23.25A0.25 0.25 0 0 1 24.25 23L24.75 23A0.25 0.25 0 0 0 25 22.75L25 21.25A0.25 0.25 0 0 0 24.75 21L24.25 21A0.25 0.25 0 0 1 24 20.75L24 20.25A0.25 0.25 0 0 0 23.75 20L22.25 20A0.25 0.25 0 0 1 22 19.75L22 19.25A0.25 0.25 0 0 0 21.75 19L21.25 19A0.25 0.25 0 0 1 21 18.75L21 18.25A0.25 0.25 0 0 0 20.75 18L20.25 18A0.25 0.25 0 0 0 20 18.25ZM24 18.25L24 18.75A0.25 0.25 0 0 0 24.25 19L24.75 19A0.25 0.25 0 0 0 25 18.75L25 18.25A0.25 0.25 0 0 0 24.75 18L24.25 18A0.25 0.25 0 0 0 24 18.25ZM1 22.25L1 22.75A0.25 0.25 0 0 0 1.25 23L3.75 23A0.25 0.25 0 0 0 4 22.75L4 22.25A0.25 0.25 0 0 0 3.75 22L1.25 22A0.25 0.25 0 0 0 1 22.25ZM23 22.25L23 22.75A0.25 0.25 0 0 0 23.25 23L23.75 23A0.25 0.25 0 0 0 24 22.75L24 22.25A0.25 0.25 0 0 0 23.75 22L23.25 22A0.25 0.25 0 0 0 23 22.25ZM6 23.25L6 23.75A0.25 0.25 0 0 0 6.25 24L6.75 24A0.25 0.25 0 0 0 7 23.75L7 23.25A0.25 0.25 0 0 0 6.75 23L6.25 23A0.25 0.25 0 0 0 6 23.25ZM8 23.25L8 23.75A0.25 0.25 0 0 0 8.25 24L8.75 24A0.25 0.25 0 0 0 9 23.75L9 23.25A0.25 0.25 0 0 0 8.75 23L8.25 23A0.25 0.25 0 0 0 8 23.25ZM25 25.25L25 27.75A0.25 0.25 0 0 0 25.25 28L27.75 28A0.25 0.25 0 0 0 28 27.75L28 25.25A0.25 0.25 0 0 0 27.75 25L25.25 25A0.25 0.25 0 0 0 25 25.25ZM16 26.25L16 27.75A0.25 0.25 0 0 1 15.75 28L15.25 28A0.25 0.25 0 0 0 15 28.25L15 28.75A0.25 0.25 0 0 0 15.25 29L15.75 29A0.25 0.25 0 0 0 16 28.75L16 28.25A0.25 0.25 0 0 1 16.25 28L16.75 28A0.25 0.25 0 0 0 17 27.75L17 27.25A0.25 0.25 0 0 1 17.25 27L17.75 27A0.25 0.25 0 0 0 18 26.75L18 26.25A0.25 0.25 0 0 0 17.75 26L16.25 26A0.25 0.25 0 0 0 16 26.25ZM26 26.25L26 26.75A0.25 0.25 0 0 0 26.25 27L26.75 27A0.25 0.25 0 0 0 27 26.75L27 26.25A0.25 0.25 0 0 0 26.75 26L26.25 26A0.25 0.25 0 0 0 26 26.25ZM29 26.25L29 26.75A0.25 0.25 0 0 0 29.25 27L29.75 27A0.25 0.25 0 0 1 30 27.25L30 28.75A0.25 0.25 0 0 1 29.75 29L29.25 29A0.25 0.25 0 0 0 29 29.25L29 30.75A0.25 0.25 0 0 1 28.75 31L28.25 31A0.25 0.25 0 0 0 28 31.25L28 31.75A0.25 0.25 0 0 0 28.25 32L30.75 32A0.25 0.25 0 0 0 31 31.75L31 31.25A0.25 0.25 0 0 1 31.25 31L31.75 31A0.25 0.25 0 0 0 32 30.75L32 30.25A0.25 0.25 0 0 0 31.75 30L31.25 30A0.25 0.25 0 0 1 31 29.75L31 27.25A0.25 0.25 0 0 0 30.75 27L30.25 27A0.25 0.25 0 0 1 30 26.75L30 26.25A0.25 0.25 0 0 0 29.75 26L29.25 26A0.25 0.25 0 0 0 29 26.25ZM9 27.25L9 27.75A0.25 0.25 0 0 0 9.25 28L9.75 28A0.25 0.25 0 0 0 10 27.75L10 27.25A0.25 0.25 0 0 0 9.75 27L9.25 27A0.25 0.25 0 0 0 9 27.25ZM13 28.25L13 28.75A0.25 0.25 0 0 0 13.25 29L13.75 29A0.25 0.25 0 0 0 14 28.75L14 28.25A0.25 0.25 0 0 0 13.75 28L13.25 28A0.25 0.25 0 0 0 13 28.25ZM10 29.25L10 29.75A0.25 0.25 0 0 0 10.25 30L10.75 30A0.25 0.25 0 0 1 11 30.25L11 30.75A0.25 0.25 0 0 0 11.25 31L12.75 31A0.25 0.25 0 0 0 13 30.75L13 30.25A0.25 0.25 0 0 0 12.75 30L12.25 30A0.25 0.25 0 0 1 12 29.75L12 29.25A0.25 0.25 0 0 0 11.75 29L10.25 29A0.25 0.25 0 0 0 10 29.25ZM19 29.25L19 29.75A0.25 0.25 0 0 0 19.25 30L19.75 30A0.25 0.25 0 0 1 20 30.25L20 30.75A0.25 0.25 0 0 0 20.25 31L20.75 31A0.25 0.25 0 0 0 21 30.75L21 30.25A0.25 0.25 0 0 1 21.25 30L21.75 30A0.25 0.25 0 0 0 22 29.75L22 29.25A0.25 0.25 0 0 0 21.75 29L19.25 29A0.25 0.25 0 0 0 19 29.25ZM26 29.25L26 30.75A0.25 0.25 0 0 0 26.25 31L26.75 31A0.25 0.25 0 0 0 27 30.75L27 30.25A0.25 0.25 0 0 1 27.25 30L27.75 30A0.25 0.25 0 0 0 28 29.75L28 29.25A0.25 0.25 0 0 0 27.75 29L26.25 29A0.25 0.25 0 0 0 26 29.25ZM0 0.25L0 6.75A0.25 0.25 0 0 0 0.25 7L6.75 7A0.25 0.25 0 0 0 7 6.75L7 0.25A0.25 0.25 0 0 0 6.75 0L0.25 0A0.25 0.25 0 0 0 0 0.25ZM1 1.25L1 5.75A0.25 0.25 0 0 0 1.25 6L5.75 6A0.25 0.25 0 0 0 6 5.75L6 1.25A0.25 0.25 0 0 0 5.75 1L1.25 1A0.25 0.25 0 0 0 1 1.25ZM2 2.25L2 4.75A0.25 0.25 0 0 0 2.25 5L4.75 5A0.25 0.25 0 0 0 5 4.75L5 2.25A0.25 0.25 0 0 0 4.75 2L2.25 2A0.25 0.25 0 0 0 2 2.25ZM26 0.25L26 6.75A0.25 0.25 0 0 0 26.25 7L32.75 7A0.25 0.25 0 0 0 33 6.75L33 0.25A0.25 0.25 0 0 0 32.75 0L26.25 0A0.25 0.25 0 0 0 26 0.25ZM27 1.25L27 5.75A0.25 0.25 0 0 0 27.25 6L31.75 6A0.25 0.25 0 0 0 32 5.75L32 1.25A0.25 0.25 0 0 0 31.75 1L27.25 1A0.25 0.25 0 0 0 27 1.25ZM28 2.25L28 4.75A0.25 0.25 0 0 0 28.25 5L30.75 5A0.25 0.25 0 0 0 31 4.75L31 2.25A0.25 0.25 0 0 0 30.75 2L28.25 2A0.25 0.25 0 0 0 28 2.25ZM0 26.25L0 32.75A0.25 0.25 0 0 0 0.25 33L6.75 33A0.25 0.25 0 0 0 7 32.75L7 26.25A0.25 0.25 0 0 0 6.75 26L0.25 26A0.25 0.25 0 0 0 0 26.25ZM1 27.25L1 31.75A0.25 0.25 0 0 0 1.25 32L5.75 32A0.25 0.25 0 0 0 6 31.75L6 27.25A0.25 0.25 0 0 0 5.75 27L1.25 27A0.25 0.25 0 0 0 1 27.25ZM2 28.25L2 30.75A0.25 0.25 0 0 0 2.25 31L4.75 31A0.25 0.25 0 0 0 5 30.75L5 28.25A0.25 0.25 0 0 0 4.75 28L2.25 28A0.25 0.25 0 0 0 2 28.25Z" fill="#000000"/></g></g></svg>
