<?xml version="1.0" encoding="UTF-8"?>
<svg xmlns="http://www.w3.org/2000/svg" version="1.1" width="500" height="500" viewBox="0 0 500 500"><rect x="0" y="0" width="500" height="500" fill="#ffffff"/><g transform="scale(15.152)"><g transform="translate(0,0)"><path fill-rule="evenodd" d="M8 0.25L8 1.75A0.25 0.25 0 0 0 8.25 2L8.75 2A0.25 0.25 0 0 0 9 1.75L9 1.25A0.25 0.25 0 0 1 9.25 1L9.75 1A0.25 0.25 0 0 1 10 1.25L10 1.75A0.25 0.25 0 0 0 10.25 2L10.75 2A0.25 0.25 0 0 1 11 2.25L11 2.75A0.25 0.25 0 0 1 10.75 3L10.25 3A0.25 0.25 0 0 0 10 3.25L10 4.75A0.25 0.25 0 0 0 10.25 5L10.75 5A0.25 0.25 0 0 0 11 4.75L11 4.25A0.25 0.25 0 0 1 11.25 4L11.75 4A0.25 0.25 0 0 1 12 4.25L12 7.75A0.25 0.25 0 0 0 12.25 8L12.75 8A0.25 0.25 0 0 1 13 8.25L13 9.75A0.25 0.25 0 0 1 12.75 10L11.25 10A0.25 0.25 0 0 0 11 10.25L11 10.75A0.25 0.25 0 0 1 10.75 11L10.25 11A0.25 0.25 0 0 1 10 10.75L10 8.25A0.25 0.25 0 0 0 9.75 8L9.25 8A0.25 0.25 0 0 0 9 8.25L9 9.75A0.25 0.25 0 0 1 8.75 10L8.25 10A0.25 0.25 0 0 1 8 9.75L8 9.25A0.25 0.25 0 0 0 7.75 9L7.25 9A0.25 0.25 0 0 1 7 8.75L7 8.25A0.25 0.25 0 0 0 6.75 8L6.25 8A0.25 0.25 0 0 0 6 8.25L6 8.75A0.25 0.25 0 0 0 6.25 9L6.75 9A0.25 0.25 0 0 1 7 9.25L7 9.75A0.25 0.25 0 0 1 6.75 10L5.25 10A0.25 0.25 0 0 1 5 9.75L5 9.25A0.25 0.25 0 0 0 4.75 9L4.25 9A0.25 0.25 0 0 1 4 8.75L4 8.25A0.25 0.25 0 0 0 3.75 8L3.25 8A0.25 0.25 0 0 0 3 8.25L3 8.75A0.25 0.25 0 0 0 3.25 9L3.75 9A0.25 0.25 0 0 1 4 9.25L4 10.75A0.25 0.25 0 0 1 3.75 11L3.25 11A0.25 0.25 0 0 0 3 11.25L3 11.75A0.25 0.25 0 0 1 2.75 12L2.25 12A0.25 0.25 0 0 1 2 11.75L2 11.25A0.25 0.25 0 0 0 1.75 11L0.25 11A0.25 0.25 0 0 0 0 11.25L0 11.75A0.25 0.25 0 0 0 0.25 12L0.75 12A0.25 0.25 0 0 1 1 12.25L1 12.75A0.25 0.25 0 0 0 1.25 13L1.75 13A0.25 0.25 0 0 1 2 13.25L2 13.75A0.25 0.25 0 0 0 2.25 14L2.75 14A0.25 0.25 0 0 1 3 14.25L3 14.75A0.25 0.25 0 0 1 2.75 15L1.25 15A0.25 0.25 0 0 1 1 14.75L1 14.25A0.25 0.25 0 0 0 0.75 14L0.25 14A0.25 0.25 0 0 0 0 14.25L0 15.75A0.25 0.25 0 0 0 0.25 16L0.75 16A0.25 0.25 0 0 1 1 16.25L1 16.75A0.25 0.25 0 0 1 0.75 17L0.25 17A0.25 0.25 0 0 0 0 17.25L0 17.75A0.25 0.25 0 0 0 0.25 18L1.75 18A0.25 0.25 0 0 0 2 17.75L2 16.25A0.25 0.25 0 0 1 2.25 16L2.75 16A0.25 0.25 0 0 0 3 15.75L3 15.25A0.25 0.25 0 0 1 3.25 15L4.75 15A0.25 0.25 0 0 1 5 15.25L5 15.75A0.25 0.25 0 0 0 5.25 16L5.75 16A0.25 0.25 0 0 1 6 16.25L6 16.75A0.25 0.25 0 0 0 6.25 17L6.75 17A0.25 0.25 0 0 1 7 17.25L7 17.75A0.25 0.25 0 0 1 6.75 18L5.25 18A0.25 0.25 0 0 1 5 17.75L5 17.25A0.25 0.25 0 0 0 4.75 17L4.25 17A0.25 0.25 0 0 0 4 17.25L4 17.75A0.25 0.25 0 0 1 3.75 18L3.25 18A0.25 0.25 0 0 0 3 18.25L3 18.75A0.25 0.25 0 0 1 2.75 19L2.25 19A0.25 0.25 0 0 0 2 19.25L2 19.75A0.25 0.25 0 0 1 1.75 20L1.25 20A0.25 0.25 0 0 0 1 20.25L1 21.75A0.25 0.25 0 0 1 0.75 22L0.25 22A0.25 0.25 0 0 0 0 22.25L0 22.75A0.25 0.25 0 0 0 0.25 23L0.75 23A0.25 0.25 0 0 1 1 23.25L1 23.75A0.25 0.25 0 0 1 0.75 24L0.25 24A0.25 0.25 0 0 0 0 24.25L0 24.75A0.25 0.25 0 0 0 0.25 25L0.75 25A0.25 0.25 0 0 0 1 24.75L1 24.25A0.25 0.25 0 0 1 1.25 24L1.75 24A0.25 0.25 0 0 1 2 24.25L2 24.75A0.25 0.25 0 0 0 2.25 25L2.75 25A0.25 0.25 0 0 0 3 24.75L3 24.25A0.25 0.25 0 0 1 3.25 24L3.75 24A0.25 0.25 0 0 1 4 24.25L4 24.75A0.25 0.25 0 0 0 4.25 25L6.75 25A0.25 0.25 0 0 0 7 24.75L7 24.25A0.25 0.25 0 0 1 7.25 24L7.75 24A0.25 0.25 0 0 1 8 24.25L8 25.75A0.25 0.25 0 0 0 8.25 26L8.75 26A0.25 0.25 0 0 0 9 25.75L9 25.25A0.25 0.25 0 0 1 9.25 25L11.75 25A0.25 0.25 0 0 1 12 25.25L12 26.75A0.25 0.25 0 0 1 11.75 27L11.25 27A0.25 0.25 0 0 1 11 26.75L11 26.25A0.25 0.25 0 0 0 10.75 26L10.25 26A0.25 0.25 0 0 0 10 26.25L10 26.75A0.25 0.25 0 0 1 9.75 27L9.25 27A0.25 0.25 0 0 0 9 27.25L9 28.75A0.25 0.25 0 0 1 8.75 29L8.25 29A0.25 0.25 0 0 0 8 29.25L8 29.75A0.25 0.25 0 0 0 8.25 30L8.75 30A0.25 0.25 0 0 1 9 30.25L9 31.75A0.25 0.25 0 0 0 9.25 32L11.75 32A0.25 0.25 0 0 1 12 32.25L12 32.75A0.25 0.25 0 0 0 12.25 33L12.75 33A0.25 0.25 0 0 0 13 32.75L13 32.25A0.25 0.25 0 0 1 13.25 32L13.75 32A0.25 0.25 0 0 1 14 32.25L14 32.75A0.25 0.25 0 0 0 14.25 33L15.75 33A0.25 0.25 0 0 0 16 32.75L16 31.25A0.25 0.25 0 0 1 16.25 31L16.75 31A0.25 0.25 0 0 1 17 31.25L17 31.75A0.25 0.25 0 0 0 17.25 32L17.75 32A0.25 0.25 0 0 1 18 32.25L18 32.75A0.25 0.25 0 0 0 18.25 33L18.75 33A0.25 0.25 0 0 0 19 32.75L19 30.25A0.25 0.25 0 0 1 19.25 30L19.75 30A0.25 0.25 0 0 1 20 30.25L20 30.75A0.25 0.25 0 0 0 20.25 31L20.75 31A0.25 0.25 0 0 1 21 31.25L21 32.75A0.25 0.25 0 0 0 21.25 33L22.75 33A0.25 0.25 0 0 0 23 32.75L23 32.25A0.25 0.25 0 0 1 23.25 32L23.75 32A0.25 0.25 0 0 1 24 32.25L24 32.75A0.25 0.25 0 0 0 24.25 33L24.75 33A0.25 0.25 0 0 0 25 32.75L25 31.25A0.25 0.25 0 0 1 25.25 31L25.75 31A0.25 0.25 0 0 1 26 31.25L26 31.75A0.25 0.25 0 0 0 26.25 32L26.75 32A0.25 0.25 0 0 1 27 32.25L27 32.75A0.25 0.25 0 0 0 27.25 33L31.75 33A0.25 0.25 0 0 0 32 32.75L32 32.25A0.25 0.25 0 0 0 31.75 32L29.25 32A0.25 0.25 0 0 1 29 31.75L29 29.25A0.25 0.25 0 0 1 29.25 29L29.75 29A0.25 0.25 0 0 1 30 29.25L30 30.75A0.25 0.25 0 0 0 30.25 31L30.75 31A0.25 0.25 0 0 0 31 30.75L31 30.25A0.25 0.25 0 0 1 31.25 30L31.75 30A0.25 0.25 0 0 1 32 30.25L32 30.75A0.25 0.25 0 0 0 32.25 31L32.75 31A0.25 0.25 0 0 0 33 30.75L33 30.25A0.25 0.25 0 0 0 32.75 30L32.25 30A0.25 0.25 0 0 1 32 29.75L32 29.25A0.25 0.25 0 0 0 31.75 29L30.25 29A0.25 0.25 0 0 1 30 28.75L30 27.25A0.25 0.25 0 0 1 30.25 27L30.75 27A0.25 0.25 0 0 1 31 27.25L31 27.75A0.25 0.25 0 0 0 31.25 28L31.75 28A0.25 0.25 0 0 0 32 27.75L32 26.25A0.25 0.25 0 0 1 32.25 26L32.75 26A0.25 0.25 0 0 0 33 25.75L33 25.25A0.25 0.25 0 0 0 32.75 25L32.25 25A0.25 0.25 0 0 0 32 25.25L32 25.75A0.25 0.25 0 0 1 31.75 26L30.25 26A0.25 0.25 0 0 1 30 25.75L30 25.25A0.25 0.25 0 0 0 29.75 25L29.25 25A0.25 0.25 0 0 1 29 24.75L29 24.25A0.25 0.25 0 0 1 29.25 24L29.75 24A0.25 0.25 0 0 0 30 23.75L30 21.25A0.25 0.25 0 0 0 29.75 21L29.25 21A0.25 0.25 0 0 0 29 21.25L29 23.75A0.25 0.25 0 0 1 28.75 24L28.25 24A0.25 0.25 0 0 1 28 23.75L28 22.25A0.25 0.25 0 0 0 27.75 22L27.25 22A0.25 0.25 0 0 1 27 21.75L27 21.25A0.25 0.25 0 0 0 26.75 21L26.25 21A0.25 0.25 0 0 1 26 20.75L26 19.25A0.25 0.25 0 0 1 26.25 19L26.75 19A0.25 0.25 0 0 1 27 19.25L27 19.75A0.25 0.25 0 0 0 27.25 20L28.75 20A0.25 0.25 0 0 0 29 19.75L29 18.25A0.25 0.25 0 0 0 28.75 18L28.25 18A0.25 0.25 0 0 1 28 17.75L28 17.25A0.25 0.25 0 0 1 28.25 17L28.75 17A0.25 0.25 0 0 0 29 16.75L29 15.25A0.25 0.25 0 0 0 28.75 15L28.25 15A0.25 0.25 0 0 1 28 14.75L28 14.25A0.25 0.25 0 0 1 28.25 14L29.75 14A0.25 0.25 0 0 1 30 14.25L30 14.75A0.25 0.25 0 0 0 30.25 15L30.75 15A0.25 0.25 0 0 1 31 15.25L31 16.75A0.25 0.25 0 0 1 30.75 17L30.25 17A0.25 0.25 0 0 0 30 17.25L30 18.75A0.25 0.25 0 0 0 30.25 19L32.75 19A0.25 0.25 0 0 0 33 18.75L33 15.25A0.25 0.25 0 0 0 32.75 15L32.25 15A0.25 0.25 0 0 1 32 14.75L32 14.25A0.25 0.25 0 0 1 32.25 14L32.75 14A0.25 0.25 0 0 0 33 13.75L33 13.25A0.25 0.25 0 0 0 32.75 13L32.25 13A0.25 0.25 0 0 1 32 12.75L32 12.25A0.25 0.25 0 0 0 31.75 12L31.25 12A0.25 0.25 0 0 0 31 12.25L31 12.75A0.25 0.25 0 0 0 31.25 13L31.75 13A0.25 0.25 0 0 1 32 13.25L32 13.75A0.25 0.25 0 0 1 31.75 14L30.25 14A0.25 0.25 0 0 1 30 13.75L30 12.25A0.25 0.25 0 0 0 29.75 12L29.25 12A0.25 0.25 0 0 0 29 12.25L29 12.75A0.25 0.25 0 0 1 28.75 13L28.25 13A0.25 0.25 0 0 0 28 13.25L28 13.75A0.25 0.25 0 0 1 27.75 14L27.25 14A0.25 0.25 0 0 1 27 13.75L27 11.25A0.25 0.25 0 0 0 26.75 11L25.25 11A0.25 0.25 0 0 1 25 10.75L25 6.25A0.25 0.25 0 0 0 24.75 6L24.25 6A0.25 0.25 0 0 0 24 6.25L24 6.75A0.25 0.25 0 0 1 23.75 7L23.25 7A0.25 0.25 0 0 1 23 6.75L23 6.25A0.25 0.25 0 0 0 22.75 6L22.25 6A0.25 0.25 0 0 1 22 5.75L22 5.25A0.25 0.25 0 0 1 22.25 5L22.75 5A0.25 0.25 0 0 0 23 4.75L23 3.25A0.25 0.25 0 0 0 22.75 3L22.25 3A0.25 0.25 0 0 0 22 3.25L22 3.75A0.25 0.25 0 0 1 21.75 4L21.25 4A0.25 0.25 0 0 1 21 3.75L21 1.25A0.25 0.25 0 0 0 20.75 1L20.25 1A0.25 0.25 0 0 1 20 0.75L20 0.25A0.25 0.25 0 0 0 19.75 0L16.25 0A0.25 0.25 0 0 0 16 0.25L16 1.75A0.25 0.25 0 0 1 15.75 2L15.25 2A0.25 0.25 0 0 1 15 1.75L15 1.25A0.25 0.25 0 0 0 14.75 1L13.25 1A0.25 0.25 0 0 1 13 0.75L13 0.25A0.25 0.25 0 0 0 12.75 0L12.25 0A0.25 0.25 0 0 0 12 0.25L12 1.75A0.25 0.25 0 0 1 11.75 2L11.25 2A0.25 0.25 0 0 1 11 1.75L11 0.25A0.25 0.25 0 0 0 10.75 0L8.25 0A0.25 0.25 0 0 0 8 0.25ZM22 0.25L22 1.75A0.25 0.25 0 0 0 22.25 2L24.75 2A0.25 0.25 0 0 0 25 1.75L25 0.25A0.25 0.25 0 0 0 24.75 0L22.25 0A0.25 0.25 0 0 0 22 0.25ZM17 1.25L17 4.75A0.25 0.25 0 0 1 16.75 5L16.25 5A0.25 0.25 0 0 1 16 4.75L16 3.25A0.25 0.25 0 0 0 15.75 3L15.25 3A0.25 0.25 0 0 0 15 3.25L15 4.75A0.25 0.25 0 0 1 14.75 5L14.25 5A0.25 0.25 0 0 1 14 4.75L14 4.25A0.25 0.25 0 0 0 13.75 4L13.25 4A0.25 0.25 0 0 0 13 4.25L13 4.75A0.25 0.25 0 0 0 13.25 5L13.75 5A0.25 0.25 0 0 1 14 5.25L14 5.75A0.25 0.25 0 0 1 13.75 6L13.25 6A0.25 0.25 0 0 0 13 6.25L13 6.75A0.25 0.25 0 0 0 13.25 7L13.75 7A0.25 0.25 0 0 1 14 7.25L14 9.75A0.25 0.25 0 0 1 13.75 10L13.25 10A0.25 0.25 0 0 0 13 10.25L13 10.75A0.25 0.25 0 0 0 13.25 11L14.75 11A0.25 0.25 0 0 1 15 11.25L15 11.75A0.25 0.25 0 0 1 14.75 12L14.25 12A0.25 0.25 0 0 0 14 12.25L14 12.75A0.25 0.25 0 0 1 13.75 13L12.25 13A0.25 0.25 0 0 1 12 12.75L12 12.25A0.25 0.25 0 0 0 11.75 12L11.25 12A0.25 0.25 0 0 0 11 12.25L11 12.75A0.25 0.25 0 0 1 10.75 13L10.25 13A0.25 0.25 0 0 1 10 12.75L10 11.25A0.25 0.25 0 0 0 9.75 11L8.25 11A0.25 0.25 0 0 1 8 10.75L8 10.25A0.25 0.25 0 0 0 7.75 10L7.25 10A0.25 0.25 0 0 0 7 10.25L7 10.75A0.25 0.25 0 0 1 6.75 11L4.25 11A0.25 0.25 0 0 0 4 11.25L4 12.75A0.25 0.25 0 0 1 3.75 13L3.25 13A0.25 0.25 0 0 0 3 13.25L3 13.75A0.25 0.25 0 0 0 3.25 14L3.75 14A0.25 0.25 0 0 0 4 13.75L4 13.25A0.25 0.25 0 0 1 4.25 13L5.75 13A0.25 0.25 0 0 1 6 13.25L6 13.75A0.25 0.25 0 0 1 5.75 14L5.25 14A0.25 0.25 0 0 0 5 14.25L5 14.75A0.25 0.25 0 0 0 5.25 15L5.75 15A0.25 0.25 0 0 1 6 15.25L6 15.75A0.25 0.25 0 0 0 6.25 16L6.75 16A0.25 0.25 0 0 0 7 15.75L7 15.25A0.25 0.25 0 0 0 6.75 15L6.25 15A0.25 0.25 0 0 1 6 14.75L6 14.25A0.25 0.25 0 0 1 6.25 14L7.75 14A0.25 0.25 0 0 1 8 14.25L8 14.75A0.25 0.25 0 0 0 8.25 15L9.75 15A0.25 0.25 0 0 0 10 14.75L10 14.25A0.25 0.25 0 0 1 10.25 14L10.75 14A0.25 0.25 0 0 0 11 13.75L11 13.25A0.25 0.25 0 0 1 11.25 13L11.75 13A0.25 0.25 0 0 1 12 13.25L12 15.75A0.25 0.25 0 0 1 11.75 16L11.25 16A0.25 0.25 0 0 0 11 16.25L11 16.75A0.25 0.25 0 0 1 10.75 17L10.25 17A0.25 0.25 0 0 1 10 16.75L10 16.25A0.25 0.25 0 0 0 9.75 16L8.25 16A0.25 0.25 0 0 0 8 16.25L8 18.75A0.25 0.25 0 0 1 7.75 19L6.25 19A0.25 0.25 0 0 0 6 19.25L6 19.75A0.25 0.25 0 0 0 6.25 20L6.75 20A0.25 0.25 0 0 1 7 20.25L7 20.75A0.25 0.25 0 0 1 6.75 21L5.25 21A0.25 0.25 0 0 1 5 20.75L5 20.25A0.25 0.25 0 0 0 4.75 20L4.25 20A0.25 0.25 0 0 0 4 20.25L4 20.75A0.25 0.25 0 0 0 4.25 21L4.75 21A0.25 0.25 0 0 1 5 21.25L5 21.75A0.25 0.25 0 0 1 4.75 22L2.25 22A0.25 0.25 0 0 0 2 22.25L2 23.75A0.25 0.25 0 0 0 2.25 24L2.75 24A0.25 0.25 0 0 0 3 23.75L3 23.25A0.25 0.25 0 0 1 3.25 23L4.75 23A0.25 0.25 0 0 1 5 23.25L5 23.75A0.25 0.25 0 0 0 5.25 24L6.75 24A0.25 0.25 0 0 0 7 23.75L7 23.25A0.25 0.25 0 0 0 6.75 23L5.25 23A0.25 0.25 0 0 1 5 22.75L5 22.25A0.25 0.25 0 0 1 5.25 22L8.75 22A0.25 0.25 0 0 1 9 22.25L9 22.75A0.25 0.25 0 0 0 9.25 23L9.75 23A0.25 0.25 0 0 1 10 23.25L10 23.75A0.25 0.25 0 0 0 10.25 24L10.75 24A0.25 0.25 0 0 0 11 23.75L11 22.25A0.25 0.25 0 0 0 10.75 22L10.25 22A0.25 0.25 0 0 1 10 21.75L10 21.25A0.25 0.25 0 0 1 10.25 21L14.75 21A0.25 0.25 0 0 1 15 21.25L15 21.75A0.25 0.25 0 0 0 15.25 22L15.75 22A0.25 0.25 0 0 1 16 22.25L16 22.75A0.25 0.25 0 0 0 16.25 23L16.75 23A0.25 0.25 0 0 0 17 22.75L17 22.25A0.25 0.25 0 0 1 17.25 22L17.75 22A0.25 0.25 0 0 1 18 22.25L18 24.75A0.25 0.25 0 0 1 17.75 25L17.25 25A0.25 0.25 0 0 1 17 24.75L17 24.25A0.25 0.25 0 0 0 16.75 24L16.25 24A0.25 0.25 0 0 0 16 24.25L16 24.75A0.25 0.25 0 0 0 16.25 25L16.75 25A0.25 0.25 0 0 1 17 25.25L17 25.75A0.25 0.25 0 0 1 16.75 26L16.25 26A0.25 0.25 0 0 0 16 26.25L16 26.75A0.25 0.25 0 0 0 16.25 27L16.75 27A0.25 0.25 0 0 0 17 26.75L17 26.25A0.25 0.25 0 0 1 17.25 26L17.75 26A0.25 0.25 0 0 1 18 26.25L18 26.75A0.25 0.25 0 0 0 18.25 27L18.75 27A0.25 0.25 0 0 0 19 26.75L19 26.25A0.25 0.25 0 0 0 18.75 26L18.25 26A0.25 0.25 0 0 1 18 25.75L18 25.25A0.25 0.25 0 0 1 18.25 25L18.75 25A0.25 0.25 0 0 0 19 24.75L19 23.25A0.25 0.25 0 0 1 19.25 23L19.75 23A0.25 0.25 0 0 0 20 22.75L20 22.25A0.25 0.25 0 0 1 20.25 22L20.75 22A0.25 0.25 0 0 1 21 22.25L21 22.75A0.25 0.25 0 0 0 21.25 23L22.75 23A0.25 0.25 0 0 1 23 23.25L23 23.75A0.25 0.25 0 0 1 22.75 24L21.25 24A0.25 0.25 0 0 0 21 24.25L21 24.75A0.25 0.25 0 0 1 20.75 25L20.25 25A0.25 0.25 0 0 0 20 25.25L20 26.75A0.25 0.25 0 0 0 20.25 27L20.75 27A0.25 0.25 0 0 0 21 26.75L21 25.25A0.25 0.25 0 0 1 21.25 25L22.75 25A0.25 0.25 0 0 1 23 25.25L23 25.75A0.25 0.25 0 0 1 22.75 26L22.25 26A0.25 0.25 0 0 0 22 26.25L22 27.75A0.25 0.25 0 0 1 21.75 28L18.25 28A0.25 0.25 0 0 0 18 28.25L18 28.75A0.25 0.25 0 0 1 17.75 29L17.25 29A0.25 0.25 0 0 1 17 28.75L17 28.25A0.25 0.25 0 0 0 16.75 28L15.25 28A0.25 0.25 0 0 1 15 27.75L15 25.25A0.25 0.25 0 0 0 14.75 25L14.25 25A0.25 0.25 0 0 1 14 24.75L14 24.25A0.25 0.25 0 0 1 14.25 24L14.75 24A0.25 0.25 0 0 0 15 23.75L15 23.25A0.25 0.25 0 0 0 14.75 23L14.25 23A0.25 0.25 0 0 1 14 22.75L14 22.25A0.25 0.25 0 0 0 13.75 22L13.25 22A0.25 0.25 0 0 0 13 22.25L13 22.75A0.25 0.25 0 0 1 12.75 23L12.25 23A0.25 0.25 0 0 0 12 23.25L12 24.75A0.25 0.25 0 0 0 12.25 25L13.75 25A0.25 0.25 0 0 1 14 25.25L14 26.75A0.25 0.25 0 0 1 13.75 27L13.25 27A0.25 0.25 0 0 0 13 27.25L13 27.75A0.25 0.25 0 0 0 13.25 28L14.75 28A0.25 0.25 0 0 1 15 28.25L15 28.75A0.25 0.25 0 0 1 14.75 29L14.25 29A0.25 0.25 0 0 0 14 29.25L14 29.75A0.25 0.25 0 0 0 14.25 30L14.75 30A0.25 0.25 0 0 0 15 29.75L15 29.25A0.25 0.25 0 0 1 15.25 29L16.75 29A0.25 0.25 0 0 1 17 29.25L17 30.75A0.25 0.25 0 0 0 17.25 31L17.75 31A0.25 0.25 0 0 0 18 30.75L18 29.25A0.25 0.25 0 0 1 18.25 29L19.75 29A0.25 0.25 0 0 1 20 29.25L20 29.75A0.25 0.25 0 0 0 20.25 30L20.75 30A0.25 0.25 0 0 1 21 30.25L21 30.75A0.25 0.25 0 0 0 21.25 31L21.75 31A0.25 0.25 0 0 1 22 31.25L22 31.75A0.25 0.25 0 0 0 22.25 32L22.75 32A0.25 0.25 0 0 0 23 31.75L23 31.25A0.25 0.25 0 0 0 22.75 31L22.25 31A0.25 0.25 0 0 1 22 30.75L22 30.25A0.25 0.25 0 0 1 22.25 30L22.75 30A0.25 0.25 0 0 0 23 29.75L23 29.25A0.25 0.25 0 0 1 23.25 29L23.75 29A0.25 0.25 0 0 0 24 28.75L24 27.25A0.25 0.25 0 0 0 23.75 27L23.25 27A0.25 0.25 0 0 1 23 26.75L23 26.25A0.25 0.25 0 0 1 23.25 26L23.75 26A0.25 0.25 0 0 0 24 25.75L24 25.25A0.25 0.25 0 0 0 23.75 25L23.25 25A0.25 0.25 0 0 1 23 24.75L23 24.25A0.25 0.25 0 0 1 23.25 24L24.75 24A0.25 0.25 0 0 0 25 23.75L25 22.25A0.25 0.25 0 0 0 24.75 22L24.25 22A0.25 0.25 0 0 1 24 21.75L24 20.25A0.25 0.25 0 0 1 24.25 20L24.75 20A0.25 0.25 0 0 0 25 19.75L25 19.25A0.25 0.25 0 0 0 24.75 19L24.25 19A0.25 0.25 0 0 1 24 18.75L24 18.25A0.25 0.25 0 0 1 24.25 18L24.75 18A0.25 0.25 0 0 0 25 17.75L25 17.25A0.25 0.25 0 0 0 24.75 17L24.25 17A0.25 0.25 0 0 0 24 17.25L24 17.75A0.25 0.25 0 0 1 23.75 18L23.25 18A0.25 0.25 0 0 1 23 17.75L23 17.25A0.25 0.25 0 0 0 22.75 17L22.25 17A0.25 0.25 0 0 0 22 17.25L22 17.75A0.25 0.25 0 0 1 21.75 18L21.25 18A0.25 0.25 0 0 0 21 18.25L21 18.75A0.25 0.25 0 0 1 20.75 19L20.25 19A0.25 0.25 0 0 1 20 18.75L20 18.25A0.25 0.25 0 0 0 19.75 18L19.25 18A0.25 0.25 0 0 0 19 18.25L19 20.75A0.25 0.25 0 0 0 19.25 21L19.75 21A0.25 0.25 0 0 1 20 21.25L20 21.75A0.25 0.25 0 0 1 19.75 22L18.25 22A0.25 0.25 0 0 1 18 21.75L18 21.25A0.25 0.25 0 0 0 17.75 21L17.25 21A0.25 0.25 0 0 1 17 20.75L17 20.25A0.25 0.25 0 0 1 17.25 20L17.75 20A0.25 0.25 0 0 0 18 19.75L18 18.25A0.25 0.25 0 0 0 17.75 18L17.25 18A0.25 0.25 0 0 0 17 18.25L17 19.75A0.25 0.25 0 0 1 16.75 20L16.25 20A0.25 0.25 0 0 1 16 19.75L16 17.25A0.25 0.25 0 0 1 16.25 17L17.75 17A0.25 0.25 0 0 0 18 16.75L18 15.25A0.25 0.25 0 0 0 17.75 15L17.25 15A0.25 0.25 0 0 1 17 14.75L17 14.25A0.25 0.25 0 0 1 17.25 14L17.75 14A0.25 0.25 0 0 0 18 13.75L18 12.25A0.25 0.25 0 0 1 18.25 12L18.75 12A0.25 0.25 0 0 0 19 11.75L19 10.25A0.25 0.25 0 0 0 18.75 10L18.25 10A0.25 0.25 0 0 1 18 9.75L18 9.25A0.25 0.25 0 0 1 18.25 9L19.75 9A0.25 0.25 0 0 0 20 8.75L20 8.25A0.25 0.25 0 0 0 19.75 8L19.25 8A0.25 0.25 0 0 1 19 7.75L19 7.25A0.25 0.25 0 0 1 19.25 7L19.75 7A0.25 0.25 0 0 0 20 6.75L20 6.25A0.25 0.25 0 0 1 20.25 6L20.75 6A0.25 0.25 0 0 1 21 6.25L21 6.75A0.25 0.25 0 0 0 21.25 7L21.75 7A0.25 0.25 0 0 1 22 7.25L22 7.75A0.25 0.25 0 0 0 22.25 8L22.75 8A0.25 0.25 0 0 1 23 8.25L23 8.75A0.25 0.25 0 0 0 23.25 9L23.75 9A0.25 0.25 0 0 0 24 8.75L24 8.25A0.25 0.25 0 0 0 23.75 8L23.25 8A0.25 0.25 0 0 1 23 7.75L23 7.25A0.25 0.25 0 0 0 22.75 7L22.25 7A0.25 0.25 0 0 1 22 6.75L22 6.25A0.25 0.25 0 0 0 21.75 6L21.25 6A0.25 0.25 0 0 1 21 5.75L21 5.25A0.25 0.25 0 0 0 20.75 5L19.25 5A0.25 0.25 0 0 0 19 5.25L19 6.75A0.25 0.25 0 0 1 18.75 7L18.25 7A0.25 0.25 0 0 1 18 6.75L18 6.25A0.25 0.25 0 0 0 17.75 6L17.25 6A0.25 0.25 0 0 1 17 5.75L17 5.25A0.25 0.25 0 0 1 17.25 5L17.75 5A0.25 0.25 0 0 0 18 4.75L18 4.25A0.25 0.25 0 0 1 18.25 4L18.75 4A0.25 0.25 0 0 0 19 3.75L19 3.25A0.25 0.25 0 0 1 19.25 3L19.75 3A0.25 0.25 0 0 0 20 2.75L20 2.25A0.25 0.25 0 0 0 19.75 2L19.25 2A0.25 0.25 0 0 1 19 1.75L19 1.25A0.25 0.25 0 0 0 18.75 1L17.25 1A0.25 0.25 0 0 0 17 1.25ZM12 2.25L12 2.75A0.25 0.25 0 0 0 12.25 3L13.75 3A0.25 0.25 0 0 0 14 2.75L14 2.25A0.25 0.25 0 0 0 13.75 2L12.25 2A0.25 0.25 0 0 0 12 2.25ZM8 3.25L8 6.75A0.25 0.25 0 0 0 8.25 7L8.75 7A0.25 0.25 0 0 0 9 6.75L9 3.25A0.25 0.25 0 0 0 8.75 3L8.25 3A0.25 0.25 0 0 0 8 3.25ZM15 5.25L15 5.75A0.25 0.25 0 0 1 14.75 6L14.25 6A0.25 0.25 0 0 0 14 6.25L14 6.75A0.25 0.25 0 0 0 14.25 7L14.75 7A0.25 0.25 0 0 0 15 6.75L15 6.25A0.25 0.25 0 0 1 15.25 6L15.75 6A0.25 0.25 0 0 1 16 6.25L16 6.75A0.25 0.25 0 0 0 16.25 7L16.75 7A0.25 0.25 0 0 0 17 6.75L17 6.25A0.25 0.25 0 0 0 16.75 6L16.25 6A0.25 0.25 0 0 1 16 5.75L16 5.25A0.25 0.25 0 0 0 15.75 5L15.25 5A0.25 0.25 0 0 0 15 5.25ZM10 6.25L10 6.75A0.25 0.25 0 0 0 10.25 7L10.75 7A0.25 0.25 0 0 0 11 6.75L11 6.25A0.25 0.25 0 0 0 10.75 6L10.25 6A0.25 0.25 0 0 0 10 6.25ZM15 8.25L15 9.75A0.25 0.25 0 0 0 15.25 10L15.75 10A0.25 0.25 0 0 0 16 9.75L16 9.25A0.25 0.25 0 0 1 16.25 9L16.75 9A0.25 0.25 0 0 0 17 8.75L17 8.25A0.25 0.25 0 0 0 16.75 8L15.25 8A0.25 0.25 0 0 0 15 8.25ZM27 8.25L27 8.75A0.25 0.25 0 0 1 26.75 9L26.25 9A0.25 0.25 0 0 0 26 9.25L26 9.75A0.25 0.25 0 0 0 26.25 10L26.75 10A0.25 0.25 0 0 0 27 9.75L27 9.25A0.25 0.25 0 0 1 27.25 9L28.75 9A0.25 0.25 0 0 1 29 9.25L29 9.75A0.25 0.25 0 0 0 29.25 10L29.75 10A0.25 0.25 0 0 1 30 10.25L30 10.75A0.25 0.25 0 0 0 30.25 11L30.75 11A0.25 0.25 0 0 0 31 10.75L31 10.25A0.25 0.25 0 0 1 31.25 10L31.75 10A0.25 0.25 0 0 1 32 10.25L32 10.75A0.25 0.25 0 0 0 32.25 11L32.75 11A0.25 0.25 0 0 0 33 10.75L33 8.25A0.25 0.25 0 0 0 32.75 8L31.25 8A0.25 0.25 0 0 0 31 8.25L31 8.75A0.25 0.25 0 0 1 30.75 9L30.25 9A0.25 0.25 0 0 1 30 8.75L30 8.25A0.25 0.25 0 0 0 29.75 8L27.25 8A0.25 0.25 0 0 0 27 8.25ZM0 9.25L0 9.75A0.25 0.25 0 0 0 0.25 10L1.75 10A0.25 0.25 0 0 0 2 9.75L2 9.25A0.25 0.25 0 0 0 1.75 9L0.25 9A0.25 0.25 0 0 0 0 9.25ZM21 9.25L21 10.75A0.25 0.25 0 0 1 20.75 11L20.25 11A0.25 0.25 0 0 0 20 11.25L20 13.75A0.25 0.25 0 0 1 19.75 14L19.25 14A0.25 0.25 0 0 0 19 14.25L19 16.75A0.25 0.25 0 0 0 19.25 17L19.75 17A0.25 0.25 0 0 0 20 16.75L20 16.25A0.25 0.25 0 0 1 20.25 16L20.75 16A0.25 0.25 0 0 0 21 15.75L21 14.25A0.25 0.25 0 0 1 21.25 14L21.75 14A0.25 0.25 0 0 1 22 14.25L22 14.75A0.25 0.25 0 0 0 22.25 15L22.75 15A0.25 0.25 0 0 1 23 15.25L23 15.75A0.25 0.25 0 0 0 23.25 16L23.75 16A0.25 0.25 0 0 0 24 15.75L24 15.25A0.25 0.25 0 0 1 24.25 15L25.75 15A0.25 0.25 0 0 1 26 15.25L26 15.75A0.25 0.25 0 0 0 26.25 16L27.75 16A0.25 0.25 0 0 0 28 15.75L28 15.25A0.25 0.25 0 0 0 27.75 15L27.25 15A0.25 0.25 0 0 1 27 14.75L27 14.25A0.25 0.25 0 0 0 26.75 14L26.25 14A0.25 0.25 0 0 1 26 13.75L26 13.25A0.25 0.25 0 0 0 25.75 13L25.25 13A0.25 0.25 0 0 1 25 12.75L25 12.25A0.25 0.25 0 0 0 24.75 12L22.25 12A0.25 0.25 0 0 0 22 12.25L22 12.75A0.25 0.25 0 0 1 21.75 13L21.25 13A0.25 0.25 0 0 1 21 12.75L21 11.25A0.25 0.25 0 0 1 21.25 11L21.75 11A0.25 0.25 0 0 0 22 10.75L22 9.25A0.25 0.25 0 0 0 21.75 9L21.25 9A0.25 0.25 0 0 0 21 9.25ZM23 10.25L23 10.75A0.25 0.25 0 0 0 23.25 11L23.75 11A0.25 0.25 0 0 0 24 10.75L24 10.25A0.25 0.25 0 0 0 23.75 10L23.25 10A0.25 0.25 0 0 0 23 10.25ZM17 11.25L17 11.75A0.25 0.25 0 0 1 16.75 12L16.25 12A0.25 0.25 0 0 0 16 12.25L16 12.75A0.25 0.25 0 0 1 15.75 13L14.25 13A0.25 0.25 0 0 0 14 13.25L14 13.75A0.25 0.25 0 0 1 13.75 14L13.25 14A0.25 0.25 0 0 0 13 14.25L13 14.75A0.25 0.25 0 0 0 13.25 15L13.75 15A0.25 0.25 0 0 1 14 15.25L14 15.75A0.25 0.25 0 0 1 13.75 16L12.25 16A0.25 0.25 0 0 0 12 16.25L12 16.75A0.25 0.25 0 0 1 11.75 17L11.25 17A0.25 0.25 0 0 0 11 17.25L11 17.75A0.25 0.25 0 0 1 10.75 18L10.25 18A0.25 0.25 0 0 1 10 17.75L10 17.25A0.25 0.25 0 0 0 9.75 17L9.25 17A0.25 0.25 0 0 0 9 17.25L9 18.75A0.25 0.25 0 0 1 8.75 19L8.25 19A0.25 0.25 0 0 0 8 19.25L8 19.75A0.25 0.25 0 0 0 8.25 20L8.75 20A0.25 0.25 0 0 1 9 20.25L9 20.75A0.25 0.25 0 0 0 9.25 21L9.75 21A0.25 0.25 0 0 0 10 20.75L10 19.25A0.25 0.25 0 0 1 10.25 19L11.75 19A0.25 0.25 0 0 1 12 19.25L12 19.75A0.25 0.25 0 0 0 12.25 20L12.75 20A0.25 0.25 0 0 0 13 19.75L13 19.25A0.25 0.25 0 0 0 12.75 19L12.25 19A0.25 0.25 0 0 1 12 18.75L12 18.25A0.25 0.25 0 0 1 12.25 18L13.75 18A0.25 0.25 0 0 1 14 18.25L14 19.75A0.25 0.25 0 0 0 14.25 20L14.75 20A0.25 0.25 0 0 1 15 20.25L15 20.75A0.25 0.25 0 0 0 15.25 21L15.75 21A0.25 0.25 0 0 0 16 20.75L16 20.25A0.25 0.25 0 0 0 15.75 20L15.25 20A0.25 0.25 0 0 1 15 19.75L15 17.25A0.25 0.25 0 0 1 15.25 17L15.75 17A0.25 0.25 0 0 0 16 16.75L16 13.25A0.25 0.25 0 0 1 16.25 13L16.75 13A0.25 0.25 0 0 0 17 12.75L17 12.25A0.25 0.25 0 0 1 17.25 12L17.75 12A0.25 0.25 0 0 0 18 11.75L18 11.25A0.25 0.25 0 0 0 17.75 11L17.25 11A0.25 0.25 0 0 0 17 11.25ZM6 12.25L6 12.75A0.25 0.25 0 0 0 6.25 13L7.75 13A0.25 0.25 0 0 0 8 12.75L8 12.25A0.25 0.25 0 0 0 7.75 12L6.25 12A0.25 0.25 0 0 0 6 12.25ZM9 13.25L9 13.75A0.25 0.25 0 0 0 9.25 14L9.75 14A0.25 0.25 0 0 0 10 13.75L10 13.25A0.25 0.25 0 0 0 9.75 13L9.25 13A0.25 0.25 0 0 0 9 13.25ZM22 13.25L22 13.75A0.25 0.25 0 0 0 22.25 14L22.75 14A0.25 0.25 0 0 1 23 14.25L23 14.75A0.25 0.25 0 0 0 23.25 15L23.75 15A0.25 0.25 0 0 0 24 14.75L24 14.25A0.25 0.25 0 0 1 24.25 14L24.75 14A0.25 0.25 0 0 0 25 13.75L25 13.25A0.25 0.25 0 0 0 24.75 13L24.25 13A0.25 0.25 0 0 0 24 13.25L24 13.75A0.25 0.25 0 0 1 23.75 14L23.25 14A0.25 0.25 0 0 1 23 13.75L23 13.25A0.25 0.25 0 0 0 22.75 13L22.25 13A0.25 0.25 0 0 0 22 13.25ZM14 14.25L14 14.75A0.25 0.25 0 0 0 14.25 15L14.75 15A0.25 0.25 0 0 0 15 14.75L15 14.25A0.25 0.25 0 0 0 14.75 14L14.25 14A0.25 0.25 0 0 0 14 14.25ZM14 16.25L14 16.75A0.25 0.25 0 0 0 14.25 17L14.75 17A0.25 0.25 0 0 0 15 16.75L15 16.25A0.25 0.25 0 0 0 14.75 16L14.25 16A0.25 0.25 0 0 0 14 16.25ZM26 17.25L26 17.75A0.25 0.25 0 0 0 26.25 18L26.75 18A0.25 0.25 0 0 1 27 18.25L27 18.75A0.25 0.25 0 0 0 27.25 19L27.75 19A0.25 0.25 0 0 0 28 18.75L28 18.25A0.25 0.25 0 0 0 27.75 18L27.25 18A0.25 0.25 0 0 1 27 17.75L27 17.25A0.25 0.25 0 0 0 26.75 17L26.25 17A0.25 0.25 0 0 0 26 17.25ZM4 18.25L4 18.75A0.25 0.25 0 0 0 4.25 19L4.75 19A0.25 0.25 0 0 0 5 18.75L5 18.25A0.25 0.25 0 0 0 4.75 18L4.25 18A0.25 0.25 0 0 0 4 18.25ZM21 19.25L21 19.75A0.25 0.25 0 0 1 20.75 20L20.25 20A0.25 0.25 0 0 0 20 20.25L20 20.75A0.25 0.25 0 0 0 20.25 21L21.75 21A0.25 0.25 0 0 1 22 21.25L22 21.75A0.25 0.25 0 0 0 22.25 22L22.75 22A0.25 0.25 0 0 0 23 21.75L23 19.25A0.25 0.25 0 0 0 22.75 19L21.25 19A0.25 0.25 0 0 0 21 19.25ZM2 20.25L2 20.75A0.25 0.25 0 0 0 2.25 21L2.75 21A0.25 0.25 0 0 0 3 20.75L3 20.25A0.25 0.25 0 0 0 2.75 20L2.25 20A0.25 0.25 0 0 0 2 20.25ZM31 20.25L31 20.75A0.25 0.25 0 0 0 31.25 21L31.75 21A0.25 0.25 0 0 1 32 21.25L32 21.75A0.25 0.25 0 0 1 31.75 22L31.25 22A0.25 0.25 0 0 0 31 22.25L31 23.75A0.25 0.25 0 0 0 31.25 24L31.75 24A0.25 0.25 0 0 0 32 23.75L32 23.25A0.25 0.25 0 0 1 32.25 23L32.75 23A0.25 0.25 0 0 0 33 22.75L33 20.25A0.25 0.25 0 0 0 32.75 20L31.25 20A0.25 0.25 0 0 0 31 20.25ZM25 25.25L25 27.75A0.25 0.25 0 0 0 25.25 28L27.75 28A0.25 0.25 0 0 0 28 27.75L28 25.25A0.25 0.25 0 0 0 27.75 25L25.25 25A0.25 0.25 0 0 0 25 25.25ZM26 26.25L26 26.75A0.25 0.25 0 0 0 26.25 27L26.75 27A0.25 0.25 0 0 0 27 26.75L27 26.25A0.25 0.25 0 0 0 26.75 26L26.25 26A0.25 0.25 0 0 0 26 26.25ZM10 27.25L10 29.75A0.25 0.25 0 0 0 10.25 30L10.75 30A0.25 0.25 0 0 1 11 30.25L11 30.75A0.25 0.25 0 0 0 11.25 31L12.75 31A0.25 0.25 0 0 0 13 30.75L13 30.25A0.25 0.25 0 0 0 12.75 30L11.25 30A0.25 0.25 0 0 1 11 29.75L11 29.25A0.25 0.25 0 0 1 11.25 29L11.75 29A0.25 0.25 0 0 0 12 28.75L12 28.25A0.25 0.25 0 0 0 11.75 28L11.25 28A0.25 0.25 0 0 1 11 27.75L11 27.25A0.25 0.25 0 0 0 10.75 27L10.25 27A0.25 0.25 0 0 0 10 27.25ZM21 29.25L21 29.75A0.25 0.25 0 0 0 21.25 30L21.75 30A0.25 0.25 0 0 0 22 29.75L22 29.25A0.25 0.25 0 0 0 21.75 29L21.25 29A0.25 0.25 0 0 0 21 29.25ZM27 29.25L27 29.75A0.25 0.25 0 0 1 26.75 30L26.25 30A0.25 0.25 0 0 0 26 30.25L26 30.75A0.25 0.25 0 0 0 26.25 31L26.75 31A0.25 0.25 0 0 0 27 30.75L27 30.25A0.25 0.25 0 0 1 27.25 30L27.75 30A0.25 0.25 0 0 0 28 29.75L28 29.25A0.25 0.25 0 0 0 27.75 29L27.25 29A0.25 0.25 0 0 0 27 29.25ZM24 30.25L24 30.75A0.25 0.25 0 0 0 24.25 31L24.75 31A0.25 0.25 0 0 0 25 30.75L25 30.25A0.25 0.25 0 0 0 24.75 30L24.25 30A0.25 0.25 0 0 0 24 30.25ZM14 31.25L14 31.75A0.25 0.25 0 0 0 14.25 32L14.75 32A0.25 0.25 0 0 0 15 31.75L15 31.25A0.25 0.25 0 0 0 14.75 31L14.25 31A0.25 0.25 0 0 0 14 31.25ZM0 0.25L0 6.75A0.25 0.25 0 0 0 0.25 7L6.75 7A0.25 0.25 0 0 0 7 6.75L7 0.25A0.25 0.25 0 0 0 6.75 0L0.25 0A0.25 0.25 0 0 0 0 0.25ZM1 1.25L1 5.75A0.25 0.25 0 0 0 1.25 6L5.75 6A0.25 0.25 0 0 0 6 5.75L6 1.25A0.25 0.25 0 0 0 5.75 1L1.25 1A0.25 0.25 0 0 0 1 1.25ZM2 2.25L2 4.75A0.25 0.25 0 0 0 2.25 5L4.75 5A0.25 0.25 0 0 0 5 4.75L5 2.25A0.25 0.25 0 0 0 4.75 2L2.25 2A0.25 0.25 0 0 0 2 2.25ZM26 0.25L26 6.75A0.25 0.25 0 0 0 26.25 7L32.75 7A0.25 0.25 0 0 0 33 6.75L33 0.25A0.25 0.25 0 0 0 32.75 0L26.25 0A0.25 0.25 0 0 0 26 0.25ZM27 1.25L27 5.75A0.25 0.25 0 0 0 27.25 6L31.75 6A0.25 0.25 0 0 0 32 5.75L32 1.25A0.25 0.25 0 0 0 31.75 1L27.25 1A0.25 0.25 0 0 0 27 1.25ZM28 2.25L28 4.75A0.25 0.25 0 0 0 28.25 5L30.75 5A0.25 0.25 0 0 0 31 4.75L31 2.25A0.25 0.25 0 0 0 30.75 2L28.25 2A0.25 0.25 0 0 0 28 2.25ZM0 26.25L0 32.75A0.25 0.25 0 0 0 0.25 33L6.75 33A0.25 0.25 0 0 0 7 32.75L7 26.25A0.25 0.25 0 0 0 6.75 26L0.25 26A0.25 0.25 0 0 0 0 26.25ZM1 27.25L1 31.75A0.25 0.25 0 0 0 1.25 32L5.75 32A0.25 0.25 0 0 0 6 31.75L6 27.25A0.25 0.25 0 0 0 5.75 27L1.25 27A0.25 0.25 0 0 0 1 27.25ZM2 28.25L2 30.75A0.25 0.25 0 0 0 2.25 31L4.75 31A0.25 0.25 0 0 0 5 30.75L5 28.25A0.25 0.25 0 0 0 4.75 28L2.25 28A0.25 0.25 0 0 0 2 28.25Z" fill="#000000"/></g></g></svg>
