<svg version="1.1" id="Layer_1" xmlns="http://www.w3.org/2000/svg" xmlns:xlink="http://www.w3.org/1999/xlink" x="0px" y="0px"
	 width="100%" viewBox="0 0 1200 415" enable-background="new 0 0 1200 415" xml:space="preserve">
<path fill="#000000" opacity="1.000000" stroke="none"
	d="
M767.000000,416.000000
	C511.333374,416.000000 256.166748,416.000000 1.000103,416.000000
	C1.000068,277.666748 1.000068,139.333481 1.000034,1.000158
	C400.999878,1.000106 800.999756,1.000106 1200.999756,1.000053
	C1200.999756,139.333176 1200.999756,277.666351 1200.999878,415.999756
	C1056.500000,416.000000 912.000000,416.000000 767.000000,416.000000
M548.766296,92.227852
	C553.790466,100.948700 558.773743,109.693741 563.895264,118.357018
	C564.477173,119.341331 565.836243,119.866211 566.834900,120.604126
	C567.000122,119.326439 567.733276,117.746834 567.240112,116.819237
	C563.568420,109.913261 559.883362,102.993828 555.759644,96.353653
	C549.953430,87.004265 543.765381,77.891975 537.469116,68.263115
	C544.658813,69.572144 546.115662,67.760216 546.277222,62.723579
	C546.277222,62.723579 546.210938,62.792652 546.761597,63.222160
	C546.850891,63.540695 546.862061,63.913662 547.040649,64.169945
	C555.039185,75.645325 563.131287,87.056679 571.009216,98.614067
	C573.012878,101.553566 574.341675,104.953140 575.980530,108.141312
	C576.590881,107.967682 577.201233,107.794060 577.811646,107.620430
	C577.587585,105.930115 577.835999,103.974472 577.060608,102.593765
	C572.918823,95.218704 568.857788,87.759949 564.130249,80.761566
	C557.679749,71.212715 550.653992,62.052475 543.637878,52.399555
	C550.269470,53.815861 551.796265,52.744873 552.273743,46.668758
	C552.379211,46.523434 552.484680,46.378105 553.129272,46.701427
	C554.122925,48.334686 555.051514,50.011890 556.120483,51.594303
	C565.391724,65.318993 574.651855,79.051605 584.029663,92.703331
	C585.039429,94.173332 586.775757,95.144264 588.174988,96.346703
	C588.851135,95.719894 589.527283,95.093086 590.203430,94.466278
	C582.329041,82.669472 574.454590,70.872658 567.030090,59.749882
	C568.335449,58.572472 569.713745,57.329277 571.092041,56.086082
	C570.781067,55.727551 570.470154,55.369022 570.159241,55.010494
	C567.777283,55.994816 565.090576,59.835831 564.691528,54.875645
	C565.911865,52.467480 567.132202,50.059315 568.284302,47.716820
	C568.284302,47.716820 568.218506,47.784950 568.768555,48.204525
	C569.366455,49.150043 569.890869,50.152649 570.573669,51.032249
	C577.643005,60.139008 584.649597,69.296684 591.855652,78.294327
	C596.958801,84.666183 602.345398,90.810814 607.597046,97.063942
	C609.465149,99.288254 611.454163,100.009720 614.432800,97.070053
	C612.481995,95.413589 610.656494,93.709343 608.674744,92.211861
	C604.174072,88.811066 603.060425,83.928589 604.202515,79.039726
	C605.025818,75.515480 607.211853,71.905464 609.814209,69.395561
	C610.887695,68.360207 614.642822,70.105278 616.835999,70.520882
	C616.443237,73.308655 616.135742,74.874969 616.014465,76.455582
	C615.399963,84.460716 619.820190,90.940399 623.231140,97.439362
	C627.597168,105.758057 631.591370,114.087761 632.946472,123.395531
	C634.802185,136.141800 636.286194,148.942184 638.002441,162.285934
	C638.903809,161.383057 639.877747,160.407593 639.876892,160.408432
	C645.360779,165.827301 650.863953,171.265198 656.908691,177.238235
	C650.613098,192.440292 642.866028,207.734116 625.410706,215.046249
	C622.064026,216.448212 618.396851,217.121231 614.840881,217.978378
	C610.461182,219.034042 608.058838,216.426575 606.060120,213.066528
	C605.900391,212.798019 604.897461,213.031128 604.312805,213.031128
	C603.932800,218.586182 606.661865,222.262512 611.645996,221.853317
	C617.037354,221.410706 622.824341,220.841309 627.587769,218.554520
	C647.896301,208.804916 657.634338,190.902481 662.822571,170.039856
	C663.503296,167.302536 662.903381,163.413513 659.017700,162.641251
	C656.876648,162.215714 654.472107,163.115952 652.186340,163.418488
	C652.180298,163.985916 652.174255,164.553345 652.168274,165.120773
	C654.413940,166.929520 660.884033,164.432510 658.174011,172.090012
	C654.159668,168.803741 650.488281,165.798203 646.698364,162.695633
	C656.220459,155.417877 665.742798,160.335571 672.132812,167.407898
	C673.432068,168.845917 675.583801,169.513718 677.342529,170.536591
	C677.873901,169.852768 678.405273,169.168930 678.936646,168.485107
	C675.199402,165.085236 671.821960,161.134232 667.645447,158.407059
	C660.302734,153.612305 652.397278,154.103394 643.440552,159.244888
	C641.487488,149.437317 639.199524,140.750778 638.136230,131.916870
	C636.732300,120.252739 634.312561,109.029373 628.331238,98.817520
	C623.982727,91.393463 621.624695,83.677025 621.814880,74.859619
	C621.973145,67.520302 614.459045,62.250233 606.043701,66.461250
	C601.569214,68.700256 597.149292,71.048256 592.459534,73.473877
	C585.588379,64.016380 579.260010,54.811554 572.401794,46.020012
	C566.739624,38.761604 563.342163,36.455524 554.514099,41.745117
	C554.240601,41.560017 553.934143,41.409477 553.698364,41.184811
	C546.688477,34.505058 542.281677,35.005806 536.949341,43.050041
	C536.657959,43.489647 536.024048,43.723957 535.518738,43.996746
	C528.927429,47.555309 527.540222,51.652706 530.551941,58.704750
	C521.486389,62.794159 519.345703,69.891701 524.545898,78.094460
	C527.274353,82.398346 529.738831,86.869576 532.128418,90.934959
	C530.237244,92.204414 528.593933,92.964790 527.398987,94.169807
	C522.569519,99.039696 524.374390,105.169708 525.399841,110.537682
	C528.539978,126.974655 532.309998,143.295502 536.053162,159.611481
	C538.267883,169.265167 542.278076,177.793274 550.984436,183.687195
	C555.115234,186.483627 558.859741,190.203796 561.906738,194.174973
	C568.351562,202.574509 569.559998,212.535782 569.032715,222.830948
	C568.913879,225.151505 569.208069,227.493225 569.312134,229.825195
	C569.810791,229.890579 570.309448,229.955978 570.808044,230.021362
	C571.532959,228.635300 572.821472,227.278000 572.893982,225.858627
	C573.498474,214.017960 572.995422,202.230576 565.520508,192.309052
	C563.267273,189.318237 561.591980,187.401596 565.300659,184.685730
	C564.737122,184.199570 564.520447,183.911407 564.232422,183.781921
	C563.078857,183.263382 561.944702,182.552475 560.729309,182.343750
	C547.837341,180.129761 542.782776,170.605835 540.099426,159.480453
	C536.212646,143.365372 532.861145,127.118378 529.481934,110.885902
	C528.738953,107.317207 528.505371,103.553696 528.719849,99.920204
	C528.800354,98.555077 531.067505,96.081512 531.906433,96.250786
	C533.774902,96.627769 535.944946,97.996109 536.946777,99.609512
	C538.513733,102.132889 539.215332,105.193649 540.292053,108.049316
	C538.608948,109.148537 537.193298,110.073120 535.777588,110.997704
	C535.947876,111.327003 536.118103,111.656311 536.288391,111.985611
	C537.752380,111.728836 539.216370,111.472061 540.540527,111.239822
	C541.045898,112.903694 541.586060,114.418205 541.955322,115.973312
	C542.317322,117.497849 542.505249,119.063698 542.772583,120.629066
	C541.416016,121.761726 540.061951,122.892319 538.707886,124.022903
	C538.889771,124.307816 539.071655,124.592728 539.253601,124.877647
	C540.708618,124.577568 542.163696,124.277496 543.540955,123.993477
	C548.837708,135.114944 549.142761,135.397095 552.767151,132.716446
	C553.848389,136.059799 554.905518,139.411209 556.015015,142.745163
	C561.874512,160.352814 570.609497,175.392548 589.079651,182.850327
	C593.117249,184.480637 596.673401,188.407944 599.341064,192.083282
	C604.045532,198.564804 607.849243,205.695816 612.139038,212.486084
	C613.093384,213.996674 614.499207,215.222031 615.697144,216.578720
	C616.247986,216.177963 616.798767,215.777191 617.349548,215.376434
	C614.305603,205.374832 607.995117,197.102310 602.654602,188.257629
	C602.793945,188.144363 602.933228,188.031113 603.787964,187.744324
	C605.639709,185.935608 605.631958,184.427902 603.000000,183.497009
	C601.343262,182.911041 599.608826,182.545685 597.949951,181.964951
	C581.248047,176.118149 568.441711,166.453690 562.765564,148.634644
	C559.238159,137.561188 554.514160,126.846535 549.932678,116.139679
	C547.222595,109.806366 543.743652,103.802048 540.157166,96.759750
	C545.571655,97.697151 548.008972,95.978477 548.276978,91.724518
	C548.276978,91.724518 548.210632,91.793541 548.766296,92.227852
M740.000000,247.350052
	C739.097412,251.927826 742.382263,250.990631 744.862000,250.990921
	C837.025818,251.001694 929.189575,251.000000 1021.353394,251.000000
	C1022.798340,251.000000 1024.243286,251.000000 1025.758789,251.000000
	C1025.758789,244.117920 1025.758789,237.712494 1025.758789,231.242523
	C930.447510,231.242523 835.377747,231.242523 740.000000,231.242523
	C740.000000,236.446243 740.000000,241.413437 740.000000,247.350052
M213.500000,233.000000
	C201.069595,233.000000 188.639191,233.000000 176.291687,233.000000
	C176.291687,239.985779 176.291687,246.392700 176.291687,252.712189
	C271.650116,252.712189 366.716614,252.712189 461.708313,252.712189
	C461.708313,246.014221 461.708313,239.607300 461.708313,233.000000
	C379.111206,233.000000 296.805603,233.000000 213.500000,233.000000
M913.054016,392.478760
	C910.718811,397.304840 907.633118,401.479980 901.993225,402.401306
	C900.035217,402.721191 897.858032,401.699219 895.780945,401.290070
	C896.222412,399.640656 896.972168,398.002228 897.031616,396.339142
	C897.116699,393.955994 897.555542,390.615051 896.252625,389.425781
	C894.950439,388.237152 891.103027,388.286804 889.403564,389.387482
	C885.088013,392.182495 884.883545,397.721954 888.234619,401.743408
	C891.812500,406.037079 901.869324,407.656219 907.821350,405.080963
	C917.945740,400.700470 923.017029,392.133820 925.907410,382.291229
	C930.958008,365.092987 935.396423,347.714935 940.108398,330.349518
	C930.853455,329.465820 931.250061,329.589630 928.913696,337.074402
	C926.441956,344.993164 923.718567,352.952942 919.969299,360.316528
	C916.832825,366.476624 913.764587,373.267578 906.440430,376.139008
	C903.148743,377.429565 901.168762,376.152374 901.846436,372.705933
	C902.429871,369.738251 903.464722,366.835815 904.530579,363.990906
	C907.670593,355.609009 913.074524,347.973145 912.098633,338.281525
	C911.726379,334.583862 911.987366,330.740845 907.979736,329.117737
	C903.905090,327.467529 897.817078,329.344421 895.599426,333.030823
	C892.968872,337.403595 890.850159,342.101990 888.766357,346.773773
	C888.238892,347.956421 888.687317,349.574371 888.687317,350.992310
	C889.210266,351.043732 889.733215,351.095154 890.256104,351.146545
	C895.159241,345.338531 894.816589,335.034760 904.786987,333.364136
	C904.874207,336.098541 904.483459,338.481720 903.660706,340.705017
	C900.611816,348.943512 897.104431,357.027222 894.407410,365.375183
	C892.915527,369.993103 893.416199,375.685455 897.455994,378.348297
	C900.247498,380.188293 905.626404,380.115143 908.904175,378.703217
	C913.142395,376.877625 916.438965,372.866119 920.671570,369.355774
	C918.264099,377.037140 915.931458,384.479584 913.054016,392.478760
M743.449280,380.000000
	C749.550781,380.419342 753.313477,376.788147 756.945190,372.459747
	C756.153992,376.607422 755.262329,380.744995 753.940979,384.740448
	C751.882751,390.964020 748.975037,396.807526 743.570679,400.826019
	C740.825378,402.867310 737.471863,404.315613 734.176575,401.963806
	C730.629211,399.432098 735.095520,397.657593 735.073730,395.452026
	C735.055115,393.581451 735.265442,390.970337 734.194885,390.030731
	C732.778687,388.787720 729.692566,387.859039 728.269043,388.603088
	C726.370789,389.595337 724.612061,392.169342 724.171082,394.343384
	C723.405151,398.118866 724.613770,401.790344 728.183228,403.999359
	C733.287659,407.158295 738.878784,406.744629 744.239868,405.162109
	C755.816040,401.744934 760.558044,391.761261 763.761414,381.752747
	C769.172913,364.844879 773.187683,347.489990 777.872620,330.013916
	C775.303894,330.013916 772.521423,329.325195 770.443420,330.238861
	C768.871582,330.929993 768.199280,333.666992 767.367493,335.083496
	C765.307129,333.157440 763.433350,330.172394 760.814087,329.204102
	C754.630676,326.918335 745.181091,331.188995 740.967957,336.860199
	C735.394104,344.362946 731.662476,352.717194 730.203186,361.805023
	C728.932129,369.720917 732.542969,381.006653 743.449280,380.000000
M569.997437,349.444641
	C571.715271,343.121887 573.433167,336.799133 575.227600,330.194550
	C572.028564,330.194550 569.237793,330.194550 566.445190,330.194550
	C565.826782,332.009369 565.219055,333.793030 564.510498,335.872375
	C560.601746,328.397400 552.562561,326.560272 545.402405,331.097321
	C532.598938,339.210297 526.347717,356.148560 528.064514,370.655548
	C528.725830,376.244507 533.669250,379.397095 539.355591,380.151825
	C545.952515,381.027435 549.665527,377.088715 553.863098,373.180450
	C553.469666,376.573547 553.075439,379.783234 551.919922,382.690369
	C548.759460,390.641632 546.652893,399.625580 536.912048,402.436981
	C535.114990,402.955597 532.799622,401.678253 530.723450,401.229858
	C531.203613,399.581085 531.955261,397.955292 532.097107,396.277924
	C532.287109,394.032318 532.801086,390.387878 531.752258,389.773224
	C529.822205,388.642090 526.215637,388.268341 524.443237,389.383514
	C519.934509,392.220215 519.966187,397.887329 523.529053,402.094818
	C528.475647,407.936371 535.079346,406.757538 540.915894,405.358398
	C551.618042,402.792938 556.667236,393.971466 559.889526,384.422424
	C563.679871,373.190247 566.641663,361.678467 569.997437,349.444641
M659.965149,303.198029
	C659.226929,302.465698 658.497009,301.105621 657.749146,301.095673
	C647.268494,300.956299 636.785339,301.001099 626.347229,301.001099
	C626.017334,302.451904 625.752197,303.617859 625.437805,305.000580
	C627.947754,305.000580 630.272339,304.980316 632.596375,305.005890
	C635.308655,305.035736 636.121155,305.524811 635.171631,308.845947
	C629.613342,328.287842 624.248108,347.793945 619.367004,367.415009
	C617.889282,373.355408 615.142822,375.571167 609.261597,375.142700
	C607.783020,375.034973 606.175964,376.690582 604.627930,377.535858
	C604.884949,378.023773 605.141968,378.511719 605.398987,378.999634
	C626.381348,378.999634 647.363953,379.040558 668.345215,378.891418
	C669.525208,378.883026 671.404175,377.535950 671.755859,376.429810
	C674.604187,367.471008 677.165039,358.420776 679.813538,349.398438
	C679.501099,349.038422 679.188660,348.678406 678.876160,348.318359
	C677.421692,349.542633 675.554565,350.509705 674.598083,352.044373
	C672.575073,355.290161 671.149109,358.901276 669.257629,362.237488
	C666.071228,367.857880 661.793701,372.812836 655.224121,373.744751
	C647.600830,374.826111 639.796265,374.670654 632.065796,374.900543
	C631.137573,374.928162 630.181091,374.009491 629.374878,373.599213
	C629.833069,371.877167 630.230347,370.321686 630.660889,368.775421
	C636.084656,349.295380 641.794617,329.887634 646.735352,310.285980
	C647.916443,305.600220 650.164062,305.083832 653.862427,304.951874
	C655.755127,304.884338 657.629944,304.316101 659.965149,303.198029
M301.031799,310.786011
	C302.096161,305.768036 305.518158,304.426758 310.122162,305.008484
	C312.985352,305.370300 314.810944,304.547241 314.827179,301.000214
	C304.390442,301.000214 294.075256,300.895508 283.767426,301.124512
	C282.381714,301.155304 281.033356,302.868256 278.827728,304.376740
	C283.981110,305.026215 287.534515,305.474060 291.017975,305.913055
	C285.162231,327.167267 279.492981,347.397430 274.051636,367.688751
	C272.222870,374.508453 272.067139,374.924652 264.916870,374.996826
	C262.423126,375.022003 259.555115,374.515808 260.148682,378.802307
	C281.929321,378.802307 303.712433,378.802307 325.674988,378.802307
	C328.704437,368.993896 331.742584,359.157288 334.886292,348.978912
	C332.962769,349.066162 331.521240,349.131531 330.788879,349.164764
	C329.027832,352.690552 327.531799,355.695160 326.027557,358.695587
	C322.022522,366.684265 316.769470,373.321716 307.132965,374.333008
	C301.728699,374.900146 296.255798,374.902771 290.811340,374.974976
	C283.321442,375.074280 283.544617,375.062317 285.591187,367.782288
	C290.844666,349.094727 295.879669,330.345703 301.031799,310.786011
M505.416016,375.882080
	C503.569031,369.914429 507.076752,365.181458 509.364532,360.349609
	C513.102722,352.454346 516.066772,344.510956 514.986023,335.596100
	C514.513611,331.699524 513.172791,329.079224 508.336212,328.860901
	C502.130737,328.580688 498.158417,331.384094 494.988251,336.145935
	C492.842651,339.368805 490.708038,342.599030 488.000000,346.683380
	C488.000000,342.962677 487.897766,340.461243 488.024200,337.971405
	C488.208496,334.341339 487.799805,330.827301 484.158905,329.158264
	C480.519226,327.489777 474.736725,329.547699 472.386841,333.251465
	C470.070770,336.901947 468.007751,340.744537 466.197815,344.670715
	C465.346039,346.518494 465.347565,348.759674 464.962402,350.822571
	C465.571259,351.093964 466.180145,351.365387 466.789001,351.636780
	C467.858215,349.954590 468.998413,348.312744 469.982025,346.581909
	C472.114990,342.828674 474.048889,338.954681 476.351807,335.311890
	C476.824799,334.563721 478.560486,334.390381 479.703125,334.417572
	C480.072052,334.426300 480.832886,336.013245 480.685333,336.727692
	C479.779785,341.112213 478.748535,345.475616 477.602905,349.804718
	C475.066071,359.390869 472.436768,368.952545 469.768829,378.806030
	C472.966827,378.806030 475.753784,378.806030 478.652039,378.806030
	C482.441437,365.272919 488.095123,352.572235 496.077942,341.027008
	C498.738342,337.179382 501.643677,333.092896 507.992035,332.222900
	C507.770020,334.841614 507.990540,337.123718 507.321991,339.105957
	C505.947449,343.181305 503.823242,347.008026 502.506104,351.097595
	C500.452850,357.472534 497.798462,363.897980 497.262146,370.454437
	C496.617767,378.331879 504.624512,383.420380 510.046509,379.234161
	C516.466309,374.277466 520.342712,367.471741 521.512268,358.956787
	C519.776733,359.418213 518.058838,360.132965 517.313721,361.413605
	C515.315674,364.847870 514.054932,368.739288 511.858765,372.018799
	C510.668182,373.796661 508.165405,374.695770 505.416016,375.882080
M815.235718,379.763184
	C822.550415,381.448181 827.064941,378.066742 830.044189,371.706970
	C831.946350,367.646454 834.024841,363.668518 836.025818,359.650482
	C832.258545,357.784546 832.513550,357.914551 830.916138,361.048218
	C828.659973,365.473969 826.079651,369.747925 823.380493,373.920258
	C822.963013,374.565491 821.172607,374.322540 820.017151,374.490356
	C819.936584,373.533417 819.712585,372.562012 819.807312,371.622742
	C819.969421,370.014679 820.221252,368.398315 820.626282,366.834869
	C823.763062,354.727203 826.945557,342.631348 830.191223,330.236694
	C827.120422,330.236694 824.349792,330.236694 821.530762,330.236694
	C821.086060,331.434113 820.622253,332.682831 820.158508,333.931580
	C819.124329,333.144592 818.139465,332.279144 817.043823,331.589874
	C815.562744,330.658051 814.084351,329.389984 812.452209,329.086304
	C804.197388,327.550629 797.512207,331.043610 792.569153,337.115234
	C785.978882,345.210022 782.723145,354.713165 782.947998,365.375244
	C783.182495,376.497620 787.084351,380.674744 798.063965,379.829865
	C800.636414,379.631958 803.193115,377.514069 805.486877,375.896301
	C807.760986,374.292419 809.694092,372.205048 811.113953,370.926544
	C812.190308,373.397552 813.438354,376.262756 815.235718,379.763184
M402.407715,378.096466
	C403.944397,377.232605 405.675262,376.594788 406.986542,375.468475
	C416.271332,367.493042 420.788635,356.822021 422.798248,345.169830
	C423.477325,341.232178 422.093384,336.842102 421.205170,332.755981
	C420.166168,327.976227 415.971436,328.471893 412.804108,329.227539
	C410.936310,329.673126 408.183990,332.495514 408.345123,333.974976
	C408.605225,336.362640 410.544617,339.976990 412.475647,340.503723
	C417.861389,341.972870 418.269165,344.794098 417.048218,349.362213
	C414.032684,360.644653 409.335083,370.710266 398.025970,375.869659
	C396.186462,376.708862 392.785156,376.718140 391.560059,375.565369
	C390.385803,374.460449 390.427246,371.110596 391.106079,369.153839
	C394.089813,360.553436 397.702728,352.170929 400.673462,343.566498
	C402.394440,338.581818 399.908264,330.801727 396.753418,329.234344
	C393.254211,327.495850 386.609436,329.577118 383.729034,333.895508
	C381.157745,337.750519 379.022766,341.942474 377.142639,346.184082
	C376.589111,347.432800 377.558868,349.356720 377.830536,350.971222
	C378.886627,349.832794 380.212372,348.845123 380.948608,347.527893
	C383.213287,343.476013 385.010101,339.141388 387.519562,335.259827
	C388.324615,334.014648 390.780792,333.836975 392.481537,333.170898
	C392.664368,334.726471 393.279022,336.385559 392.936279,337.815125
	C392.307709,340.437134 391.125366,342.927948 390.154663,345.466064
	C386.892609,353.995422 381.961487,361.991760 382.899963,371.778168
	C383.297516,375.923676 385.023743,379.211945 388.765289,379.683960
	C393.015930,380.220154 397.476959,379.088470 402.407715,378.096466
M696.001770,361.861725
	C696.485413,357.033417 698.708313,355.454468 703.929749,354.595703
	C709.774902,353.634399 715.606689,350.242371 720.507385,346.635254
	C724.392883,343.775299 725.171875,338.696442 723.249939,333.741852
	C721.341248,328.821442 717.230713,329.066803 713.030701,328.955139
	C704.341187,328.724091 698.457764,333.204498 693.654663,339.820770
	C686.711060,349.385712 684.320679,359.857697 688.183105,371.140930
	C689.667847,375.478302 692.917969,379.142365 697.881042,379.947845
	C710.442383,381.986511 719.219849,373.844147 721.794495,361.594238
	C719.867554,362.481567 718.255493,363.712402 717.017212,365.245117
	C714.782898,368.010651 713.174744,371.419556 710.555542,373.698151
	C707.903870,376.004944 704.679810,378.056854 700.505188,376.143280
	C696.448059,374.283661 695.855652,371.070648 695.991211,367.272919
	C696.044678,365.775970 696.000061,364.275513 696.001770,361.861725
M857.376099,344.098328
	C859.806335,340.691650 861.820496,336.829346 864.842041,334.070129
	C866.356384,332.687256 870.520142,332.179108 872.050232,333.276611
	C874.925476,335.338898 871.356873,337.133698 870.545410,339.177063
	C869.672913,341.374207 870.248413,344.146362 870.192139,346.667633
	C872.829102,346.584656 876.288147,347.542816 877.952698,346.228363
	C883.494568,341.852356 881.524292,331.188660 874.789001,329.524994
	C869.701355,328.268402 864.112488,327.890411 859.198608,331.256287
	C847.633789,339.177826 841.902649,349.956635 843.009583,364.086578
	C844.010132,376.858948 852.041016,382.592743 864.354980,379.140076
	C872.885071,376.748383 875.783325,369.512115 878.517456,361.931000
	C876.517822,362.508118 874.846497,363.545441 873.626160,364.969299
	C871.313232,367.668152 869.572632,370.921478 867.016418,373.331451
	C863.924438,376.246429 860.159119,378.645294 855.691956,375.886383
	C851.520203,373.309967 851.432678,368.881073 852.153992,364.900299
	C853.380249,358.133026 855.361694,351.502625 857.376099,344.098328
M355.262115,379.999969
	C362.448608,378.695099 369.648499,369.093170 370.920624,357.631287
	C368.640747,359.548645 366.944733,360.411163 366.097198,361.793823
	C363.586060,365.890472 361.583038,370.304169 358.982117,374.336365
	C358.319855,375.363098 356.175354,375.433685 354.711884,375.943604
	C354.469757,374.575867 353.746735,373.076813 354.077454,371.865448
	C354.998077,368.493195 356.277527,365.209534 357.557007,361.946442
	C360.599030,354.188477 365.456635,346.823578 363.869324,337.989258
	C363.328094,334.977051 362.003448,331.004303 359.736847,329.656677
	C356.166901,327.533997 351.358551,328.487305 348.717438,332.029358
	C345.387878,336.494690 342.819275,341.566223 340.297913,346.565643
	C339.733734,347.684357 340.728821,349.589508 341.229919,352.378754
	C347.051025,345.270020 347.081177,335.266510 356.743805,333.266693
	C356.876617,335.994934 356.538940,338.382843 355.721863,340.593536
	C352.681976,348.818481 349.161499,356.879547 346.439087,365.204132
	C343.827484,373.189911 347.741638,379.865540 355.262115,379.999969
M446.033264,360.651947
	C449.961823,352.587280 454.166931,344.521790 451.895569,335.124176
	C451.372559,332.960297 449.880707,329.821747 448.252533,329.404785
	C445.509003,328.702118 441.571747,328.812042 439.427917,330.363983
	C433.810150,334.430756 430.466217,340.505890 428.501434,347.159119
	C428.156158,348.328217 429.030518,349.857452 429.341644,351.220367
	C429.837097,351.164398 430.332581,351.108459 430.828064,351.052490
	C432.543365,347.467072 434.139801,343.818573 436.000824,340.310455
	C439.084686,334.497162 440.138947,333.631439 445.070129,332.550293
	C444.801880,334.947296 444.933258,337.212097 444.259735,339.204834
	C441.096863,348.563080 437.625092,357.816772 434.450897,367.171356
	C433.185394,370.900879 435.529938,378.122009 438.108856,379.606659
	C440.638702,381.063019 448.519623,379.798218 450.313843,377.015686
	C453.824554,371.571045 456.814362,365.790588 460.071198,360.058655
	C455.655762,357.891663 454.824768,359.910980 453.954102,362.519806
	C451.206635,370.752380 447.784698,374.903290 442.906067,376.361053
	C441.475525,372.106415 441.475525,372.106415 446.033264,360.651947
M666.970093,218.340088
	C673.643555,206.409958 680.099731,194.408630 679.236816,179.816711
	C677.700378,180.625900 676.531494,181.721207 676.085938,183.057693
	C675.581238,184.571396 675.958740,186.362106 675.551208,187.927902
	C670.802063,206.174957 662.020813,221.979462 647.330566,234.176605
	C638.395264,241.595520 626.242432,245.653488 615.319397,237.978760
	C614.328369,237.282440 612.423828,237.886154 610.943542,237.886154
	C619.046875,247.029221 629.970093,248.472427 641.585632,242.703751
	C652.271545,237.396774 659.621216,228.341919 666.970093,218.340088
M598.536438,244.047928
	C587.722168,248.901596 576.519287,250.527252 564.851318,247.989578
	C556.526184,246.178940 549.768616,237.427200 551.076599,229.576431
	C552.433594,221.431396 556.114502,214.467606 562.995544,209.430084
	C565.293518,207.747803 566.244995,205.684357 562.929688,203.888458
	C551.541260,213.962952 547.753418,220.055817 547.757751,232.183762
	C547.760986,241.171021 554.606384,248.903488 561.780640,251.069733
	C574.539612,254.922272 586.785461,252.748032 598.910706,248.533783
	C601.780090,247.536499 601.794373,245.788940 598.536438,244.047928
M561.964050,222.342834
	C561.485962,221.149994 561.007874,219.957153 560.425781,218.504913
	C553.930847,224.698105 555.814209,232.480255 561.560669,235.687912
	C564.806030,237.499496 568.772827,238.636749 572.489929,238.867996
	C583.133606,239.530151 592.171997,234.928467 600.524658,228.876343
	C601.799805,227.952408 602.490662,226.222031 603.451721,224.864655
	C603.117676,224.426590 602.783691,223.988510 602.449646,223.550446
	C600.866821,224.302658 599.123657,224.833435 597.727722,225.843872
	C589.988403,231.445938 581.690125,235.391190 571.859802,234.990479
	C563.207703,234.637787 558.614075,229.273193 561.964050,222.342834
M371.027191,312.451691
	C372.520142,309.315033 373.395172,305.392151 369.974670,303.902100
	C367.472290,302.812012 363.387665,303.700623 360.722931,305.083923
	C357.837921,306.581573 358.203491,309.676239 360.593323,312.099030
	C363.607574,315.154907 366.984192,314.348938 371.027191,312.451691
M459.975616,311.062683
	C459.983734,310.065369 460.340027,308.884094 459.929871,308.107758
	C458.977295,306.304718 457.872681,303.517548 456.437469,303.252411
	C453.318542,302.676270 448.974548,301.705139 448.018097,306.555603
	C447.634216,308.502380 448.202911,311.736938 449.547638,312.704773
	C452.742554,315.004181 456.535278,315.068298 459.975616,311.062683
M593.965088,128.600677
	C595.243591,130.516983 596.522095,132.433289 597.800598,134.349594
	C598.424805,133.918900 599.048950,133.488190 599.673157,133.057480
	C597.242004,129.222534 594.810913,125.387596 592.379822,121.552658
	C591.776306,121.884651 591.172791,122.216644 590.569214,122.548637
	C591.541199,124.364243 592.513245,126.179848 593.965088,128.600677
M580.507751,135.998871
	C582.034119,138.083115 583.560486,140.167358 585.086792,142.251602
	C585.624878,141.927963 586.162964,141.604340 586.701050,141.280716
	C584.997986,138.149155 583.294922,135.017609 581.591858,131.886047
	C581.074036,131.940445 580.556274,131.994827 580.038452,132.049225
	C580.038452,133.175262 580.038452,134.301315 580.507751,135.998871
M608.421997,124.877235
	C610.795837,119.614967 605.346619,118.254692 604.320435,114.688316
	C603.646301,115.069221 602.972107,115.450134 602.297974,115.831039
	C604.170898,118.677315 606.043823,121.523590 608.421997,124.877235
z"/>
<path fill="#FFFFFF" opacity="1.000000" stroke="none"
	d="
M740.000000,246.865356
	C740.000000,241.413437 740.000000,236.446243 740.000000,231.242523
	C835.377747,231.242523 930.447510,231.242523 1025.758789,231.242523
	C1025.758789,237.712494 1025.758789,244.117920 1025.758789,251.000000
	C1024.243286,251.000000 1022.798340,251.000000 1021.353394,251.000000
	C929.189575,251.000000 837.025818,251.001694 744.862000,250.990921
	C742.382263,250.990631 739.097412,251.927826 740.000000,246.865356
z"/>
<path fill="#FFFFFF" opacity="1.000000" stroke="none"
	d="
M214.000000,233.000000
	C296.805603,233.000000 379.111206,233.000000 461.708313,233.000000
	C461.708313,239.607300 461.708313,246.014221 461.708313,252.712189
	C366.716614,252.712189 271.650116,252.712189 176.291687,252.712189
	C176.291687,246.392700 176.291687,239.985779 176.291687,233.000000
	C188.639191,233.000000 201.069595,233.000000 214.000000,233.000000
z"/>
<path fill="#FFFFFF" opacity="1.000000" stroke="none"
	d="
M548.346069,91.658165
	C548.008972,95.978477 545.571655,97.697151 540.157166,96.759750
	C543.743652,103.802048 547.222595,109.806366 549.932678,116.139679
	C554.514160,126.846535 559.238159,137.561188 562.765564,148.634644
	C568.441711,166.453690 581.248047,176.118149 597.949951,181.964951
	C599.608826,182.545685 601.343262,182.911041 603.000000,183.497009
	C605.631958,184.427902 605.639709,185.935608 603.333618,187.550690
	C602.339661,187.316605 601.800049,187.276138 601.260376,187.235672
	C601.575256,187.675232 601.890137,188.114792 602.205017,188.554352
	C607.995117,197.102310 614.305603,205.374832 617.349548,215.376434
	C616.798767,215.777191 616.247986,216.177963 615.697144,216.578720
	C614.499207,215.222031 613.093384,213.996674 612.139038,212.486084
	C607.849243,205.695816 604.045532,198.564804 599.341064,192.083282
	C596.673401,188.407944 593.117249,184.480637 589.079651,182.850327
	C570.609497,175.392548 561.874512,160.352814 556.015015,142.745163
	C554.905518,139.411209 553.848389,136.059799 552.770020,132.715546
	C549.142761,135.397095 548.837708,135.114944 543.540955,123.993477
	C542.163696,124.277496 540.708618,124.577568 539.253601,124.877647
	C539.071655,124.592728 538.889771,124.307816 538.707886,124.022903
	C540.061951,122.892319 541.416016,121.761726 542.772583,120.629066
	C542.505249,119.063698 542.317322,117.497849 541.955322,115.973312
	C541.586060,114.418205 541.045898,112.903694 540.540527,111.239822
	C539.216370,111.472061 537.752380,111.728836 536.288391,111.985611
	C536.118103,111.656311 535.947876,111.327003 535.777588,110.997704
	C537.193298,110.073120 538.608948,109.148537 540.292053,108.049316
	C539.215332,105.193649 538.513733,102.132889 536.946777,99.609512
	C535.944946,97.996109 533.774902,96.627769 531.906433,96.250786
	C531.067505,96.081512 528.800354,98.555077 528.719849,99.920204
	C528.505371,103.553696 528.738953,107.317207 529.481934,110.885902
	C532.861145,127.118378 536.212646,143.365372 540.099426,159.480453
	C542.782776,170.605835 547.837341,180.129761 560.729309,182.343750
	C561.944702,182.552475 563.078857,183.263382 564.232422,183.781921
	C564.520447,183.911407 564.737122,184.199570 565.300659,184.685730
	C561.591980,187.401596 563.267273,189.318237 565.520508,192.309052
	C572.995422,202.230576 573.498474,214.017960 572.893982,225.858627
	C572.821472,227.278000 571.532959,228.635300 570.808044,230.021362
	C570.309448,229.955978 569.810791,229.890579 569.312134,229.825195
	C569.208069,227.493225 568.913879,225.151505 569.032715,222.830948
	C569.559998,212.535782 568.351562,202.574509 561.906738,194.174973
	C558.859741,190.203796 555.115234,186.483627 550.984436,183.687195
	C542.278076,177.793274 538.267883,169.265167 536.053162,159.611481
	C532.309998,143.295502 528.539978,126.974655 525.399841,110.537682
	C524.374390,105.169708 522.569519,99.039696 527.398987,94.169807
	C528.593933,92.964790 530.237244,92.204414 532.128418,90.934959
	C529.738831,86.869576 527.274353,82.398346 524.545898,78.094460
	C519.345703,69.891701 521.486389,62.794159 530.551941,58.704750
	C527.540222,51.652706 528.927429,47.555309 535.518738,43.996746
	C536.024048,43.723957 536.657959,43.489647 536.949341,43.050041
	C542.281677,35.005806 546.688477,34.505058 553.698364,41.184811
	C553.934143,41.409477 554.240601,41.560017 554.516113,41.742172
	C563.342163,36.455524 566.739624,38.761604 572.401794,46.020012
	C579.260010,54.811554 585.588379,64.016380 592.459534,73.473877
	C597.149292,71.048256 601.569214,68.700256 606.043701,66.461250
	C614.459045,62.250233 621.973145,67.520302 621.814880,74.859619
	C621.624695,83.677025 623.982727,91.393463 628.331238,98.817520
	C634.312561,109.029373 636.732300,120.252739 638.136230,131.916870
	C639.199524,140.750778 641.487488,149.437317 643.440552,159.244888
	C652.397278,154.103394 660.302734,153.612305 667.645447,158.407059
	C671.821960,161.134232 675.199402,165.085236 678.936646,168.485107
	C678.405273,169.168930 677.873901,169.852768 677.342529,170.536591
	C675.583801,169.513718 673.432068,168.845917 672.132812,167.407898
	C665.742798,160.335571 656.220459,155.417877 646.698364,162.695633
	C650.488281,165.798203 654.159668,168.803741 658.174011,172.090012
	C660.884033,164.432510 654.413940,166.929520 652.168274,165.120773
	C652.174255,164.553345 652.180298,163.985916 652.186340,163.418488
	C654.472107,163.115952 656.876648,162.215714 659.017700,162.641251
	C662.903381,163.413513 663.503296,167.302536 662.822571,170.039856
	C657.634338,190.902481 647.896301,208.804916 627.587769,218.554520
	C622.824341,220.841309 617.037354,221.410706 611.645996,221.853317
	C606.661865,222.262512 603.932800,218.586182 604.312805,213.031128
	C604.897461,213.031128 605.900391,212.798019 606.060120,213.066528
	C608.058838,216.426575 610.461182,219.034042 614.840881,217.978378
	C618.396851,217.121231 622.064026,216.448212 625.410706,215.046249
	C642.866028,207.734116 650.613098,192.440292 656.908691,177.238235
	C650.863953,171.265198 645.360779,165.827301 639.876892,160.408432
	C639.877747,160.407593 638.903809,161.383057 638.002441,162.285934
	C636.286194,148.942184 634.802185,136.141800 632.946472,123.395531
	C631.591370,114.087761 627.597168,105.758057 623.231140,97.439362
	C619.820190,90.940399 615.399963,84.460716 616.014465,76.455582
	C616.135742,74.874969 616.443237,73.308655 616.835999,70.520882
	C614.642822,70.105278 610.887695,68.360207 609.814209,69.395561
	C607.211853,71.905464 605.025818,75.515480 604.202515,79.039726
	C603.060425,83.928589 604.174072,88.811066 608.674744,92.211861
	C610.656494,93.709343 612.481995,95.413589 614.432800,97.070053
	C611.454163,100.009720 609.465149,99.288254 607.597046,97.063942
	C602.345398,90.810814 596.958801,84.666183 591.855652,78.294327
	C584.649597,69.296684 577.643005,60.139008 570.573669,51.032249
	C569.890869,50.152649 569.366455,49.150043 568.280518,47.719284
	C567.528381,46.841602 567.243042,46.461643 567.003601,46.054729
	C565.149048,42.903236 561.932495,41.857086 559.243408,43.538963
	C555.692566,45.759808 559.107300,48.428833 560.362183,50.438519
	C560.807373,51.151394 563.492920,50.917679 564.922058,50.430603
	C566.229492,49.985016 567.221497,48.614231 568.352539,47.651150
	C567.132202,50.059315 565.911865,52.467480 564.691528,54.875645
	C565.090576,59.835831 567.777283,55.994816 570.159241,55.010494
	C570.470154,55.369022 570.781067,55.727551 571.092041,56.086082
	C569.713745,57.329277 568.335449,58.572472 567.030090,59.749882
	C574.454590,70.872658 582.329041,82.669472 590.203430,94.466278
	C589.527283,95.093086 588.851135,95.719894 588.174988,96.346703
	C586.775757,95.144264 585.039429,94.173332 584.029663,92.703331
	C574.651855,79.051605 565.391724,65.318993 556.120483,51.594303
	C555.051514,50.011890 554.122925,48.334686 552.633240,46.205231
	C548.229370,39.658268 544.893921,39.373158 540.026672,44.689964
	C540.506287,46.010448 540.989319,47.340218 541.207520,47.940975
	C542.321045,47.940975 543.655090,47.605770 543.914856,47.992432
	C546.771240,52.242931 548.949097,52.669506 550.492493,47.136417
	C550.531982,46.994854 551.427002,47.091908 551.922974,47.077675
	C551.796265,52.744873 550.269470,53.815861 543.637878,52.399555
	C550.653992,62.052475 557.679749,71.212715 564.130249,80.761566
	C568.857788,87.759949 572.918823,95.218704 577.060608,102.593765
	C577.835999,103.974472 577.587585,105.930115 577.811646,107.620430
	C577.201233,107.794060 576.590881,107.967682 575.980530,108.141312
	C574.341675,104.953140 573.012878,101.553566 571.009216,98.614067
	C563.131287,87.056679 555.039185,75.645325 547.040649,64.169945
	C546.862061,63.913662 546.850891,63.540695 546.285706,62.738014
	C543.702942,60.556129 541.681091,57.694267 539.461975,57.532085
	C537.713196,57.404278 535.721252,60.602261 533.447754,62.678913
	C536.150696,63.527973 538.162231,63.549217 538.644653,64.418800
	C540.567505,67.884705 542.051636,66.813072 543.894775,64.482826
	C544.505310,63.710854 545.517517,63.256542 546.346069,62.656998
	C546.115662,67.760216 544.658813,69.572144 537.469116,68.263115
	C543.765381,77.891975 549.953430,87.004265 555.759644,96.353653
	C559.883362,102.993828 563.568420,109.913261 567.240112,116.819237
	C567.733276,117.746834 567.000122,119.326439 566.834961,120.604126
	C565.836243,119.866211 564.477173,119.341331 563.895264,118.357018
	C558.773743,109.693741 553.790466,100.948700 548.288391,91.741272
	C545.728455,89.542534 543.646362,87.830368 541.564270,86.118210
	C540.124207,87.969963 538.684143,89.821701 537.244019,91.673439
	C537.602966,91.967621 537.961914,92.261803 538.320862,92.555992
	C538.862061,91.988403 539.403259,91.420815 539.964600,90.832077
	C541.344604,92.454887 542.534424,93.854126 543.633972,95.147232
	C545.463135,93.792854 546.904602,92.725510 548.346069,91.658165
M531.954102,66.505341
	C531.394836,65.296165 530.835571,64.086983 530.238098,62.795235
	C525.626038,66.562225 524.699829,69.725029 526.985596,73.881866
	C529.379883,78.236038 531.935913,82.501289 534.219666,86.456345
	C536.854370,84.848076 539.124512,83.462357 541.482300,82.023109
	C540.661682,80.691872 539.499268,78.806297 538.294556,76.852112
	C536.781250,77.243103 535.488953,77.576988 534.196655,77.910866
	C533.788879,77.415604 533.381104,76.920341 532.973267,76.425072
	C534.035278,75.612587 535.097229,74.800095 536.246887,73.920540
	C535.139038,72.176918 533.583313,69.728279 531.954102,66.505341
M533.002502,53.420464
	C534.928406,53.615730 536.854309,53.810997 539.700806,54.099602
	C537.987061,50.995892 537.112366,49.411846 535.615906,46.701660
	C534.448364,49.338493 533.724304,50.973835 533.002502,53.420464
z"/>
<path fill="#FFFFFF" opacity="1.000000" stroke="none"
	d="
M913.326416,392.200409
	C915.931458,384.479584 918.264099,377.037140 920.671570,369.355774
	C916.438965,372.866119 913.142395,376.877625 908.904175,378.703217
	C905.626404,380.115143 900.247498,380.188293 897.455994,378.348297
	C893.416199,375.685455 892.915527,369.993103 894.407410,365.375183
	C897.104431,357.027222 900.611816,348.943512 903.660706,340.705017
	C904.483459,338.481720 904.874207,336.098541 904.786987,333.364136
	C894.816589,335.034760 895.159241,345.338531 890.256104,351.146545
	C889.733215,351.095154 889.210266,351.043732 888.687317,350.992310
	C888.687317,349.574371 888.238892,347.956421 888.766357,346.773773
	C890.850159,342.101990 892.968872,337.403595 895.599426,333.030823
	C897.817078,329.344421 903.905090,327.467529 907.979736,329.117737
	C911.987366,330.740845 911.726379,334.583862 912.098633,338.281525
	C913.074524,347.973145 907.670593,355.609009 904.530579,363.990906
	C903.464722,366.835815 902.429871,369.738251 901.846436,372.705933
	C901.168762,376.152374 903.148743,377.429565 906.440430,376.139008
	C913.764587,373.267578 916.832825,366.476624 919.969299,360.316528
	C923.718567,352.952942 926.441956,344.993164 928.913696,337.074402
	C931.250061,329.589630 930.853455,329.465820 940.108398,330.349518
	C935.396423,347.714935 930.958008,365.092987 925.907410,382.291229
	C923.017029,392.133820 917.945740,400.700470 907.821350,405.080963
	C901.869324,407.656219 891.812500,406.037079 888.234619,401.743408
	C884.883545,397.721954 885.088013,392.182495 889.403564,389.387482
	C891.103027,388.286804 894.950439,388.237152 896.252625,389.425781
	C897.555542,390.615051 897.116699,393.955994 897.031616,396.339142
	C896.972168,398.002228 896.222412,399.640656 895.780945,401.290070
	C897.858032,401.699219 900.035217,402.721191 901.993225,402.401306
	C907.633118,401.479980 910.718811,397.304840 913.326416,392.200409
z"/>
<path fill="#FFFFFF" opacity="1.000000" stroke="none"
	d="
M743.014221,380.000000
	C732.542969,381.006653 728.932129,369.720917 730.203186,361.805023
	C731.662476,352.717194 735.394104,344.362946 740.967957,336.860199
	C745.181091,331.188995 754.630676,326.918335 760.814087,329.204102
	C763.433350,330.172394 765.307129,333.157440 767.367493,335.083496
	C768.199280,333.666992 768.871582,330.929993 770.443420,330.238861
	C772.521423,329.325195 775.303894,330.013916 777.872620,330.013916
	C773.187683,347.489990 769.172913,364.844879 763.761414,381.752747
	C760.558044,391.761261 755.816040,401.744934 744.239868,405.162109
	C738.878784,406.744629 733.287659,407.158295 728.183228,403.999359
	C724.613770,401.790344 723.405151,398.118866 724.171082,394.343384
	C724.612061,392.169342 726.370789,389.595337 728.269043,388.603088
	C729.692566,387.859039 732.778687,388.787720 734.194885,390.030731
	C735.265442,390.970337 735.055115,393.581451 735.073730,395.452026
	C735.095520,397.657593 730.629211,399.432098 734.176575,401.963806
	C737.471863,404.315613 740.825378,402.867310 743.570679,400.826019
	C748.975037,396.807526 751.882751,390.964020 753.940979,384.740448
	C755.262329,380.744995 756.153992,376.607422 756.945190,372.459747
	C753.313477,376.788147 749.550781,380.419342 743.014221,380.000000
M741.001892,358.724579
	C740.667908,362.454376 739.929382,366.208496 740.151855,369.904785
	C740.285095,372.116974 741.430664,375.402313 743.021057,376.073792
	C744.610901,376.744995 747.894226,375.351013 749.447998,373.844330
	C759.167664,364.418915 763.113281,352.472992 762.771851,339.227234
	C762.708862,336.786133 760.133667,333.448792 757.849060,332.376312
	C756.413635,331.702454 752.260559,333.889618 751.225464,335.814362
	C747.398804,342.929962 744.361938,350.470337 741.001892,358.724579
z"/>
<path fill="#FFFFFF" opacity="1.000000" stroke="none"
	d="
M569.980103,349.866272
	C566.641663,361.678467 563.679871,373.190247 559.889526,384.422424
	C556.667236,393.971466 551.618042,402.792938 540.915894,405.358398
	C535.079346,406.757538 528.475647,407.936371 523.529053,402.094818
	C519.966187,397.887329 519.934509,392.220215 524.443237,389.383514
	C526.215637,388.268341 529.822205,388.642090 531.752258,389.773224
	C532.801086,390.387878 532.287109,394.032318 532.097107,396.277924
	C531.955261,397.955292 531.203613,399.581085 530.723450,401.229858
	C532.799622,401.678253 535.114990,402.955597 536.912048,402.436981
	C546.652893,399.625580 548.759460,390.641632 551.919922,382.690369
	C553.075439,379.783234 553.469666,376.573547 553.863098,373.180450
	C549.665527,377.088715 545.952515,381.027435 539.355591,380.151825
	C533.669250,379.397095 528.725830,376.244507 528.064514,370.655548
	C526.347717,356.148560 532.598938,339.210297 545.402405,331.097321
	C552.562561,326.560272 560.601746,328.397400 564.510498,335.872375
	C565.219055,333.793030 565.826782,332.009369 566.445190,330.194550
	C569.237793,330.194550 572.028564,330.194550 575.227600,330.194550
	C573.433167,336.799133 571.715271,343.121887 569.980103,349.866272
M551.559204,368.952454
	C554.387878,361.197998 557.439331,353.513763 559.916931,345.648712
	C560.717102,343.108643 560.461548,339.997772 559.894165,337.316193
	C558.809448,332.189697 553.907837,329.899109 549.968689,334.661011
	C547.129761,338.092987 544.121582,341.831177 542.770447,345.951416
	C540.241028,353.664520 538.222290,361.672913 537.200500,369.712189
	C536.375549,376.202606 540.320801,378.329956 545.714661,374.933685
	C547.802002,373.619385 549.269348,371.320465 551.559204,368.952454
z"/>
<path fill="#FFFFFF" opacity="1.000000" stroke="none"
	d="
M659.739014,303.586060
	C657.629944,304.316101 655.755127,304.884338 653.862427,304.951874
	C650.164062,305.083832 647.916443,305.600220 646.735352,310.285980
	C641.794617,329.887634 636.084656,349.295380 630.660889,368.775421
	C630.230347,370.321686 629.833069,371.877167 629.374878,373.599213
	C630.181091,374.009491 631.137573,374.928162 632.065796,374.900543
	C639.796265,374.670654 647.600830,374.826111 655.224121,373.744751
	C661.793701,372.812836 666.071228,367.857880 669.257629,362.237488
	C671.149109,358.901276 672.575073,355.290161 674.598083,352.044373
	C675.554565,350.509705 677.421692,349.542633 678.876160,348.318359
	C679.188660,348.678406 679.501099,349.038422 679.813538,349.398438
	C677.165039,358.420776 674.604187,367.471008 671.755859,376.429810
	C671.404175,377.535950 669.525208,378.883026 668.345215,378.891418
	C647.363953,379.040558 626.381348,378.999634 605.398987,378.999634
	C605.141968,378.511719 604.884949,378.023773 604.627930,377.535858
	C606.175964,376.690582 607.783020,375.034973 609.261597,375.142700
	C615.142822,375.571167 617.889282,373.355408 619.367004,367.415009
	C624.248108,347.793945 629.613342,328.287842 635.171631,308.845947
	C636.121155,305.524811 635.308655,305.035736 632.596375,305.005890
	C630.272339,304.980316 627.947754,305.000580 625.437805,305.000580
	C625.752197,303.617859 626.017334,302.451904 626.347229,301.001099
	C636.785339,301.001099 647.268494,300.956299 657.749146,301.095673
	C658.497009,301.105621 659.226929,302.465698 659.739014,303.586060
z"/>
<path fill="#FFFFFF" opacity="1.000000" stroke="none"
	d="
M301.016907,311.203613
	C295.879669,330.345703 290.844666,349.094727 285.591187,367.782288
	C283.544617,375.062317 283.321442,375.074280 290.811340,374.974976
	C296.255798,374.902771 301.728699,374.900146 307.132965,374.333008
	C316.769470,373.321716 322.022522,366.684265 326.027557,358.695587
	C327.531799,355.695160 329.027832,352.690552 330.788879,349.164764
	C331.521240,349.131531 332.962769,349.066162 334.886292,348.978912
	C331.742584,359.157288 328.704437,368.993896 325.674988,378.802307
	C303.712433,378.802307 281.929321,378.802307 260.148682,378.802307
	C259.555115,374.515808 262.423126,375.022003 264.916870,374.996826
	C272.067139,374.924652 272.222870,374.508453 274.051636,367.688751
	C279.492981,347.397430 285.162231,327.167267 291.017975,305.913055
	C287.534515,305.474060 283.981110,305.026215 278.827728,304.376740
	C281.033356,302.868256 282.381714,301.155304 283.767426,301.124512
	C294.075256,300.895508 304.390442,301.000214 314.827179,301.000214
	C314.810944,304.547241 312.985352,305.370300 310.122162,305.008484
	C305.518158,304.426758 302.096161,305.768036 301.016907,311.203613
z"/>
<path fill="#FFFFFF" opacity="1.000000" stroke="none"
	d="
M505.835297,375.936707
	C508.165405,374.695770 510.668182,373.796661 511.858765,372.018799
	C514.054932,368.739288 515.315674,364.847870 517.313721,361.413605
	C518.058838,360.132965 519.776733,359.418213 521.512268,358.956787
	C520.342712,367.471741 516.466309,374.277466 510.046509,379.234161
	C504.624512,383.420380 496.617767,378.331879 497.262146,370.454437
	C497.798462,363.897980 500.452850,357.472534 502.506104,351.097595
	C503.823242,347.008026 505.947449,343.181305 507.321991,339.105957
	C507.990540,337.123718 507.770020,334.841614 507.992035,332.222900
	C501.643677,333.092896 498.738342,337.179382 496.077942,341.027008
	C488.095123,352.572235 482.441437,365.272919 478.652039,378.806030
	C475.753784,378.806030 472.966827,378.806030 469.768829,378.806030
	C472.436768,368.952545 475.066071,359.390869 477.602905,349.804718
	C478.748535,345.475616 479.779785,341.112213 480.685333,336.727692
	C480.832886,336.013245 480.072052,334.426300 479.703125,334.417572
	C478.560486,334.390381 476.824799,334.563721 476.351807,335.311890
	C474.048889,338.954681 472.114990,342.828674 469.982025,346.581909
	C468.998413,348.312744 467.858215,349.954590 466.789001,351.636780
	C466.180145,351.365387 465.571259,351.093964 464.962402,350.822571
	C465.347565,348.759674 465.346039,346.518494 466.197815,344.670715
	C468.007751,340.744537 470.070770,336.901947 472.386841,333.251465
	C474.736725,329.547699 480.519226,327.489777 484.158905,329.158264
	C487.799805,330.827301 488.208496,334.341339 488.024200,337.971405
	C487.897766,340.461243 488.000000,342.962677 488.000000,346.683380
	C490.708038,342.599030 492.842651,339.368805 494.988251,336.145935
	C498.158417,331.384094 502.130737,328.580688 508.336212,328.860901
	C513.172791,329.079224 514.513611,331.699524 514.986023,335.596100
	C516.066772,344.510956 513.102722,352.454346 509.364532,360.349609
	C507.076752,365.181458 503.569031,369.914429 505.835297,375.936707
z"/>
<path fill="#FFFFFF" opacity="1.000000" stroke="none"
	d="
M814.961060,379.445557
	C813.438354,376.262756 812.190308,373.397552 811.113953,370.926544
	C809.694092,372.205048 807.760986,374.292419 805.486877,375.896301
	C803.193115,377.514069 800.636414,379.631958 798.063965,379.829865
	C787.084351,380.674744 783.182495,376.497620 782.947998,365.375244
	C782.723145,354.713165 785.978882,345.210022 792.569153,337.115234
	C797.512207,331.043610 804.197388,327.550629 812.452209,329.086304
	C814.084351,329.389984 815.562744,330.658051 817.043823,331.589874
	C818.139465,332.279144 819.124329,333.144592 820.158508,333.931580
	C820.622253,332.682831 821.086060,331.434113 821.530762,330.236694
	C824.349792,330.236694 827.120422,330.236694 830.191223,330.236694
	C826.945557,342.631348 823.763062,354.727203 820.626282,366.834869
	C820.221252,368.398315 819.969421,370.014679 819.807312,371.622742
	C819.712585,372.562012 819.936584,373.533417 820.017151,374.490356
	C821.172607,374.322540 822.963013,374.565491 823.380493,373.920258
	C826.079651,369.747925 828.659973,365.473969 830.916138,361.048218
	C832.513550,357.914551 832.258545,357.784546 836.025818,359.650482
	C834.024841,363.668518 831.946350,367.646454 830.044189,371.706970
	C827.064941,378.066742 822.550415,381.448181 814.961060,379.445557
M814.998108,348.337189
	C815.252197,347.418152 815.519836,346.502625 815.758179,345.579529
	C817.154846,340.169159 815.262451,334.701874 811.436279,332.846588
	C806.822083,330.609222 804.575989,334.429047 802.734924,336.976410
	C795.881104,346.459534 792.942871,357.504028 792.208069,369.004120
	C792.044128,371.570190 794.507019,374.304108 795.760498,376.960724
	C798.160828,375.825195 800.693237,374.895935 802.911194,373.475586
	C804.207642,372.645355 805.316345,371.174164 805.968323,369.744568
	C809.070435,362.942413 811.986816,356.055542 814.998108,348.337189
z"/>
<path fill="#FFFFFF" opacity="1.000000" stroke="none"
	d="
M402.127136,378.389160
	C397.476959,379.088470 393.015930,380.220154 388.765289,379.683960
	C385.023743,379.211945 383.297516,375.923676 382.899963,371.778168
	C381.961487,361.991760 386.892609,353.995422 390.154663,345.466064
	C391.125366,342.927948 392.307709,340.437134 392.936279,337.815125
	C393.279022,336.385559 392.664368,334.726471 392.481537,333.170898
	C390.780792,333.836975 388.324615,334.014648 387.519562,335.259827
	C385.010101,339.141388 383.213287,343.476013 380.948608,347.527893
	C380.212372,348.845123 378.886627,349.832794 377.830536,350.971222
	C377.558868,349.356720 376.589111,347.432800 377.142639,346.184082
	C379.022766,341.942474 381.157745,337.750519 383.729034,333.895508
	C386.609436,329.577118 393.254211,327.495850 396.753418,329.234344
	C399.908264,330.801727 402.394440,338.581818 400.673462,343.566498
	C397.702728,352.170929 394.089813,360.553436 391.106079,369.153839
	C390.427246,371.110596 390.385803,374.460449 391.560059,375.565369
	C392.785156,376.718140 396.186462,376.708862 398.025970,375.869659
	C409.335083,370.710266 414.032684,360.644653 417.048218,349.362213
	C418.269165,344.794098 417.861389,341.972870 412.475647,340.503723
	C410.544617,339.976990 408.605225,336.362640 408.345123,333.974976
	C408.183990,332.495514 410.936310,329.673126 412.804108,329.227539
	C415.971436,328.471893 420.166168,327.976227 421.205170,332.755981
	C422.093384,336.842102 423.477325,341.232178 422.798248,345.169830
	C420.788635,356.822021 416.271332,367.493042 406.986542,375.468475
	C405.675262,376.594788 403.944397,377.232605 402.127136,378.389160
z"/>
<path fill="#FFFFFF" opacity="1.000000" stroke="none"
	d="
M696.000916,362.319214
	C696.000061,364.275513 696.044678,365.775970 695.991211,367.272919
	C695.855652,371.070648 696.448059,374.283661 700.505188,376.143280
	C704.679810,378.056854 707.903870,376.004944 710.555542,373.698151
	C713.174744,371.419556 714.782898,368.010651 717.017212,365.245117
	C718.255493,363.712402 719.867554,362.481567 721.794495,361.594238
	C719.219849,373.844147 710.442383,381.986511 697.881042,379.947845
	C692.917969,379.142365 689.667847,375.478302 688.183105,371.140930
	C684.320679,359.857697 686.711060,349.385712 693.654663,339.820770
	C698.457764,333.204498 704.341187,328.724091 713.030701,328.955139
	C717.230713,329.066803 721.341248,328.821442 723.249939,333.741852
	C725.171875,338.696442 724.392883,343.775299 720.507385,346.635254
	C715.606689,350.242371 709.774902,353.634399 703.929749,354.595703
	C698.708313,355.454468 696.485413,357.033417 696.000916,362.319214
M706.026123,335.461182
	C703.107056,340.661896 700.187988,345.862579 697.268982,351.063293
	C705.129883,351.169800 712.363647,350.914032 715.499329,343.656525
	C716.782471,340.686951 717.003479,335.783386 715.354797,333.361206
	C712.757141,329.544952 709.478149,333.691498 706.026123,335.461182
z"/>
<path fill="#FFFFFF" opacity="1.000000" stroke="none"
	d="
M857.200928,344.456512
	C855.361694,351.502625 853.380249,358.133026 852.153992,364.900299
	C851.432678,368.881073 851.520203,373.309967 855.691956,375.886383
	C860.159119,378.645294 863.924438,376.246429 867.016418,373.331451
	C869.572632,370.921478 871.313232,367.668152 873.626160,364.969299
	C874.846497,363.545441 876.517822,362.508118 878.517456,361.931000
	C875.783325,369.512115 872.885071,376.748383 864.354980,379.140076
	C852.041016,382.592743 844.010132,376.858948 843.009583,364.086578
	C841.902649,349.956635 847.633789,339.177826 859.198608,331.256287
	C864.112488,327.890411 869.701355,328.268402 874.789001,329.524994
	C881.524292,331.188660 883.494568,341.852356 877.952698,346.228363
	C876.288147,347.542816 872.829102,346.584656 870.192139,346.667633
	C870.248413,344.146362 869.672913,341.374207 870.545410,339.177063
	C871.356873,337.133698 874.925476,335.338898 872.050232,333.276611
	C870.520142,332.179108 866.356384,332.687256 864.842041,334.070129
	C861.820496,336.829346 859.806335,340.691650 857.200928,344.456512
z"/>
<path fill="#FFFFFF" opacity="1.000000" stroke="none"
	d="
M354.843384,380.000000
	C347.741638,379.865540 343.827484,373.189911 346.439087,365.204132
	C349.161499,356.879547 352.681976,348.818481 355.721863,340.593536
	C356.538940,338.382843 356.876617,335.994934 356.743805,333.266693
	C347.081177,335.266510 347.051025,345.270020 341.229919,352.378754
	C340.728821,349.589508 339.733734,347.684357 340.297913,346.565643
	C342.819275,341.566223 345.387878,336.494690 348.717438,332.029358
	C351.358551,328.487305 356.166901,327.533997 359.736847,329.656677
	C362.003448,331.004303 363.328094,334.977051 363.869324,337.989258
	C365.456635,346.823578 360.599030,354.188477 357.557007,361.946442
	C356.277527,365.209534 354.998077,368.493195 354.077454,371.865448
	C353.746735,373.076813 354.469757,374.575867 354.711884,375.943604
	C356.175354,375.433685 358.319855,375.363098 358.982117,374.336365
	C361.583038,370.304169 363.586060,365.890472 366.097198,361.793823
	C366.944733,360.411163 368.640747,359.548645 370.920624,357.631287
	C369.648499,369.093170 362.448608,378.695099 354.843384,380.000000
z"/>
<path fill="#FFFFFF" opacity="1.000000" stroke="none"
	d="
M445.996033,361.047729
	C441.475525,372.106415 441.475525,372.106415 442.906067,376.361053
	C447.784698,374.903290 451.206635,370.752380 453.954102,362.519806
	C454.824768,359.910980 455.655762,357.891663 460.071198,360.058655
	C456.814362,365.790588 453.824554,371.571045 450.313843,377.015686
	C448.519623,379.798218 440.638702,381.063019 438.108856,379.606659
	C435.529938,378.122009 433.185394,370.900879 434.450897,367.171356
	C437.625092,357.816772 441.096863,348.563080 444.259735,339.204834
	C444.933258,337.212097 444.801880,334.947296 445.070129,332.550293
	C440.138947,333.631439 439.084686,334.497162 436.000824,340.310455
	C434.139801,343.818573 432.543365,347.467072 430.828064,351.052490
	C430.332581,351.108459 429.837097,351.164398 429.341644,351.220367
	C429.030518,349.857452 428.156158,348.328217 428.501434,347.159119
	C430.466217,340.505890 433.810150,334.430756 439.427917,330.363983
	C441.571747,328.812042 445.509003,328.702118 448.252533,329.404785
	C449.880707,329.821747 451.372559,332.960297 451.895569,335.124176
	C454.166931,344.521790 449.961823,352.587280 445.996033,361.047729
z"/>
<path fill="#FFFFFF" opacity="1.000000" stroke="none"
	d="
M666.760437,218.649475
	C659.621216,228.341919 652.271545,237.396774 641.585632,242.703751
	C629.970093,248.472427 619.046875,247.029221 610.943542,237.886154
	C612.423828,237.886154 614.328369,237.282440 615.319397,237.978760
	C626.242432,245.653488 638.395264,241.595520 647.330566,234.176605
	C662.020813,221.979462 670.802063,206.174957 675.551208,187.927902
	C675.958740,186.362106 675.581238,184.571396 676.085938,183.057693
	C676.531494,181.721207 677.700378,180.625900 679.236816,179.816711
	C680.099731,194.408630 673.643555,206.409958 666.760437,218.649475
z"/>
<path fill="#FFFFFF" opacity="1.000000" stroke="none"
	d="
M598.937866,244.044266
	C601.794373,245.788940 601.780090,247.536499 598.910706,248.533783
	C586.785461,252.748032 574.539612,254.922272 561.780640,251.069733
	C554.606384,248.903488 547.760986,241.171021 547.757751,232.183762
	C547.753418,220.055817 551.541260,213.962952 562.929688,203.888458
	C566.244995,205.684357 565.293518,207.747803 562.995544,209.430084
	C556.114502,214.467606 552.433594,221.431396 551.076599,229.576431
	C549.768616,237.427200 556.526184,246.178940 564.851318,247.989578
	C576.519287,250.527252 587.722168,248.901596 598.937866,244.044266
z"/>
<path fill="#FFFFFF" opacity="1.000000" stroke="none"
	d="
M561.736084,222.669250
	C558.614075,229.273193 563.207703,234.637787 571.859802,234.990479
	C581.690125,235.391190 589.988403,231.445938 597.727722,225.843872
	C599.123657,224.833435 600.866821,224.302658 602.449646,223.550446
	C602.783691,223.988510 603.117676,224.426590 603.451721,224.864655
	C602.490662,226.222031 601.799805,227.952408 600.524658,228.876343
	C592.171997,234.928467 583.133606,239.530151 572.489929,238.867996
	C568.772827,238.636749 564.806030,237.499496 561.560669,235.687912
	C555.814209,232.480255 553.930847,224.698105 560.425781,218.504913
	C561.007874,219.957153 561.485962,221.149994 561.736084,222.669250
z"/>
<path fill="#FFFFFF" opacity="1.000000" stroke="none"
	d="
M370.720734,312.751770
	C366.984192,314.348938 363.607574,315.154907 360.593323,312.099030
	C358.203491,309.676239 357.837921,306.581573 360.722931,305.083923
	C363.387665,303.700623 367.472290,302.812012 369.974670,303.902100
	C373.395172,305.392151 372.520142,309.315033 370.720734,312.751770
z"/>
<path fill="#FFFFFF" opacity="1.000000" stroke="none"
	d="
M459.820496,311.462585
	C456.535278,315.068298 452.742554,315.004181 449.547638,312.704773
	C448.202911,311.736938 447.634216,308.502380 448.018097,306.555603
	C448.974548,301.705139 453.318542,302.676270 456.437469,303.252411
	C457.872681,303.517548 458.977295,306.304718 459.929871,308.107758
	C460.340027,308.884094 459.983734,310.065369 459.820496,311.462585
z"/>
<path fill="#FFFFFF" opacity="1.000000" stroke="none"
	d="
M593.725159,128.298065
	C592.513245,126.179848 591.541199,124.364243 590.569214,122.548637
	C591.172791,122.216644 591.776306,121.884651 592.379822,121.552658
	C594.810913,125.387596 597.242004,129.222534 599.673157,133.057480
	C599.048950,133.488190 598.424805,133.918900 597.800598,134.349594
	C596.522095,132.433289 595.243591,130.516983 593.725159,128.298065
z"/>
<path fill="#FFFFFF" opacity="1.000000" stroke="none"
	d="
M580.273071,135.713104
	C580.038452,134.301315 580.038452,133.175262 580.038452,132.049225
	C580.556274,131.994827 581.074036,131.940445 581.591858,131.886047
	C583.294922,135.017609 584.997986,138.149155 586.701050,141.280716
	C586.162964,141.604340 585.624878,141.927963 585.086792,142.251602
	C583.560486,140.167358 582.034119,138.083115 580.273071,135.713104
z"/>
<path fill="#FFFFFF" opacity="1.000000" stroke="none"
	d="
M608.169373,124.623550
	C606.043823,121.523590 604.170898,118.677315 602.297974,115.831039
	C602.972107,115.450134 603.646301,115.069221 604.320435,114.688316
	C605.346619,118.254692 610.795837,119.614967 608.169373,124.623550
z"/>
<path fill="#000000" opacity="1.000000" stroke="none"
	d="
M531.990845,66.892487
	C533.583313,69.728279 535.139038,72.176918 536.246887,73.920540
	C535.097229,74.800095 534.035278,75.612587 532.973267,76.425072
	C533.381104,76.920341 533.788879,77.415604 534.196655,77.910866
	C535.488953,77.576988 536.781250,77.243103 538.294556,76.852112
	C539.499268,78.806297 540.661682,80.691872 541.482300,82.023109
	C539.124512,83.462357 536.854370,84.848076 534.219666,86.456345
	C531.935913,82.501289 529.379883,78.236038 526.985596,73.881866
	C524.699829,69.725029 525.626038,66.562225 530.238098,62.795235
	C530.835571,64.086983 531.394836,65.296165 531.990845,66.892487
z"/>
<path fill="#000000" opacity="1.000000" stroke="none"
	d="
M552.098389,46.873215
	C551.427002,47.091908 550.531982,46.994854 550.492493,47.136417
	C548.949097,52.669506 546.771240,52.242931 543.914856,47.992432
	C543.655090,47.605770 542.321045,47.940975 541.207520,47.940975
	C540.989319,47.340218 540.506287,46.010448 540.026672,44.689964
	C544.893921,39.373158 548.229370,39.658268 552.363708,45.970901
	C552.484680,46.378105 552.379211,46.523434 552.098389,46.873215
z"/>
<path fill="#000000" opacity="1.000000" stroke="none"
	d="
M546.311646,62.690285
	C545.517517,63.256542 544.505310,63.710854 543.894775,64.482826
	C542.051636,66.813072 540.567505,67.884705 538.644653,64.418800
	C538.162231,63.549217 536.150696,63.527973 533.447754,62.678913
	C535.721252,60.602261 537.713196,57.404278 539.461975,57.532085
	C541.681091,57.694267 543.702942,60.556129 546.010376,62.523262
	C546.210938,62.792652 546.277222,62.723579 546.311646,62.690285
z"/>
<path fill="#000000" opacity="1.000000" stroke="none"
	d="
M568.318420,47.683983
	C567.221497,48.614231 566.229492,49.985016 564.922058,50.430603
	C563.492920,50.917679 560.807373,51.151394 560.362183,50.438519
	C559.107300,48.428833 555.692566,45.759808 559.243408,43.538963
	C561.932495,41.857086 565.149048,42.903236 567.003601,46.054729
	C567.243042,46.461643 567.528381,46.841602 568.005493,47.509499
	C568.218506,47.784950 568.284302,47.716820 568.318420,47.683983
z"/>
<path fill="#000000" opacity="1.000000" stroke="none"
	d="
M548.311523,91.691345
	C546.904602,92.725510 545.463135,93.792854 543.633972,95.147232
	C542.534424,93.854126 541.344604,92.454887 539.964600,90.832077
	C539.403259,91.420815 538.862061,91.988403 538.320862,92.555992
	C537.961914,92.261803 537.602966,91.967621 537.244019,91.673439
	C538.684143,89.821701 540.124207,87.969963 541.564270,86.118210
	C543.646362,87.830368 545.728455,89.542534 548.010559,91.524117
	C548.210632,91.793541 548.276978,91.724518 548.311523,91.691345
z"/>
<path fill="#000000" opacity="1.000000" stroke="none"
	d="
M533.001343,53.014816
	C533.724304,50.973835 534.448364,49.338493 535.615906,46.701660
	C537.112366,49.411846 537.987061,50.995892 539.700806,54.099602
	C536.854309,53.810997 534.928406,53.615730 533.001343,53.014816
z"/>
<path fill="#000000" opacity="1.000000" stroke="none"
	d="
M602.429810,188.406006
	C601.890137,188.114792 601.575256,187.675232 601.260376,187.235672
	C601.800049,187.276138 602.339661,187.316605 602.975952,187.637451
	C602.933228,188.031113 602.793945,188.144363 602.429810,188.406006
z"/>
<path fill="#000000" opacity="1.000000" stroke="none"
	d="
M741.015015,358.287842
	C744.361938,350.470337 747.398804,342.929962 751.225464,335.814362
	C752.260559,333.889618 756.413635,331.702454 757.849060,332.376312
	C760.133667,333.448792 762.708862,336.786133 762.771851,339.227234
	C763.113281,352.472992 759.167664,364.418915 749.447998,373.844330
	C747.894226,375.351013 744.610901,376.744995 743.021057,376.073792
	C741.430664,375.402313 740.285095,372.116974 740.151855,369.904785
	C739.929382,366.208496 740.667908,362.454376 741.015015,358.287842
z"/>
<path fill="#000000" opacity="1.000000" stroke="none"
	d="
M551.289185,369.211273
	C549.269348,371.320465 547.802002,373.619385 545.714661,374.933685
	C540.320801,378.329956 536.375549,376.202606 537.200500,369.712189
	C538.222290,361.672913 540.241028,353.664520 542.770447,345.951416
	C544.121582,341.831177 547.129761,338.092987 549.968689,334.661011
	C553.907837,329.899109 558.809448,332.189697 559.894165,337.316193
	C560.461548,339.997772 560.717102,343.108643 559.916931,345.648712
	C557.439331,353.513763 554.387878,361.197998 551.289185,369.211273
z"/>
<path fill="#000000" opacity="1.000000" stroke="none"
	d="
M814.983704,348.768005
	C811.986816,356.055542 809.070435,362.942413 805.968323,369.744568
	C805.316345,371.174164 804.207642,372.645355 802.911194,373.475586
	C800.693237,374.895935 798.160828,375.825195 795.760498,376.960754
	C794.507019,374.304108 792.044128,371.570190 792.208069,369.004120
	C792.942871,357.504028 795.881104,346.459534 802.734924,336.976410
	C804.575989,334.429047 806.822083,330.609222 811.436279,332.846588
	C815.262451,334.701874 817.154846,340.169159 815.758179,345.579529
	C815.519836,346.502625 815.252197,347.418152 814.983704,348.768005
z"/>
<path fill="#000000" opacity="1.000000" stroke="none"
	d="
M706.304321,335.204285
	C709.478149,333.691498 712.757141,329.544952 715.354797,333.361206
	C717.003479,335.783386 716.782471,340.686951 715.499329,343.656525
	C712.363647,350.914032 705.129883,351.169800 697.268982,351.063293
	C700.187988,345.862579 703.107056,340.661896 706.304321,335.204285
z"/>
</svg>
