<svg width="147" height="45" viewBox="0 0 147 45" fill="none" xmlns="http://www.w3.org/2000/svg">
<path d="M91.1558 34.6266C82.6175 40.9283 70.2428 44.2791 59.5863 44.2791C44.6484 44.2791 31.2002 38.757 21.0212 29.5657C20.2212 28.8433 20.9355 27.8597 21.8946 28.4188C32.8776 34.8103 46.4564 38.659 60.4842 38.659C69.9448 38.659 80.3483 36.6959 89.9192 32.6349C91.3599 32.0227 92.568 33.5859 91.1558 34.6266Z" fill="#FE9B00"/>
<path d="M94.709 30.5725C93.6152 29.1726 87.489 29.9114 84.7381 30.2379C83.9055 30.3358 83.7749 29.6093 84.5259 29.0828C89.4113 25.6504 97.419 26.6422 98.3496 27.789C99.2883 28.9481 98.1047 36.9762 93.5254 40.8087C92.8193 41.3964 92.1499 41.0821 92.4642 40.3067C93.4968 37.7313 95.8028 31.9684 94.709 30.5725Z" fill="#FE9B00"/>
<path d="M84.9313 4.83559V1.5011C84.9313 0.995008 85.315 0.65625 85.7762 0.65625H100.722C101.2 0.65625 101.583 1.00317 101.583 1.49702V4.35808C101.579 4.83968 101.175 5.46413 100.457 6.45591L92.7145 17.5124C95.5878 17.443 98.6285 17.8756 101.241 19.3449C101.832 19.6714 101.992 20.1612 102.036 20.6428V24.2018C102.036 24.6916 101.502 25.2589 100.934 24.965C96.3347 22.557 90.229 22.2917 85.1395 24.9936C84.6211 25.2711 84.0742 24.712 84.0742 24.2222V20.8387C84.0742 20.2959 84.0824 19.3735 84.6293 18.545L93.6002 5.67637H85.7884C85.319 5.67637 84.9354 5.33352 84.9313 4.83559Z" fill="white"/>
<path d="M30.4057 25.6678H25.8591C25.4264 25.6393 25.0795 25.3127 25.0469 24.9005L25.051 1.55905C25.051 1.09377 25.4428 0.718286 25.9285 0.718286H30.1649C30.6098 0.742774 30.9649 1.07745 30.9935 1.50191V4.55071H31.0792C32.1811 1.60394 34.2627 0.228516 37.0625 0.228516C39.9072 0.228516 41.6908 1.60394 42.9642 4.55071C44.0662 1.60394 46.5721 0.228516 49.2454 0.228516C51.1555 0.228516 53.237 1.01622 54.5104 2.78346C55.9552 4.74661 55.6573 7.59543 55.6573 10.1014L55.6532 24.8311C55.6532 25.2964 55.2614 25.6719 54.7757 25.6719H50.2331C49.776 25.6433 49.4169 25.2801 49.4169 24.8352V12.4604C49.4169 11.4768 49.5026 9.02391 49.2903 8.08928C48.9516 6.51794 47.9312 6.07715 46.617 6.07715C45.5151 6.07715 44.3682 6.81588 43.8988 7.99132C43.4335 9.17084 43.4744 11.134 43.4744 12.4604V24.8311C43.4744 25.2964 43.0825 25.6719 42.5969 25.6719H38.0543C37.5972 25.6433 37.238 25.2801 37.238 24.8352L37.2339 12.4604C37.2339 9.85651 37.6584 6.02817 34.4341 6.02817C31.1649 6.02817 31.2914 9.76264 31.2914 12.4604V24.8311C31.2832 25.2923 30.8873 25.6678 30.4057 25.6678Z" fill="white"/>
<path d="M114.455 0.226562C107.876 0.226562 104.223 5.8752 104.223 13.1442C104.223 20.3641 107.831 26.1597 114.455 26.1597C120.822 26.1597 124.854 20.5111 124.854 13.389C124.854 6.02214 121.201 0.226562 114.455 0.226562ZM114.455 21.3478C110.888 21.3478 110.932 15.2583 110.932 12.4095C110.932 9.5607 111.145 4.99362 114.5 4.99362C115.94 4.99362 116.961 5.63032 117.471 7.25472C118.067 9.11991 118.148 11.479 118.148 13.4421C118.148 16.4338 117.977 21.3478 114.455 21.3478Z" fill="white"/>
<path d="M133.601 25.6678H129.071C128.613 25.6393 128.254 25.276 128.254 24.8311L128.246 1.48151C128.283 1.05296 128.662 0.718286 129.12 0.718286H133.34C133.736 0.738693 134.062 1.00806 134.148 1.37131V4.94252H134.233C135.507 1.75088 137.29 0.228516 140.429 0.228516C142.466 0.228516 144.461 0.967246 145.735 2.97937C146.927 4.84049 146.927 7.98724 146.927 10.2443V24.9291C146.874 25.3413 146.506 25.6637 146.053 25.6637H141.494C141.074 25.6352 140.735 25.3291 140.686 24.9291V12.2564C140.686 9.70143 140.984 5.97103 137.841 5.97103C136.735 5.97103 135.719 6.70977 135.209 7.83623C134.572 9.26064 134.487 10.685 134.487 12.2564V24.823C134.478 25.2923 134.087 25.6678 133.601 25.6678Z" fill="white"/>
<path d="M81.114 21.3906C80.2814 20.2437 79.3958 19.3091 79.3958 17.1745V10.0892C79.3958 7.08529 79.608 4.33036 77.3959 2.26109C75.6531 0.591805 72.7594 0 70.5473 0C66.221 0 61.3928 1.61623 60.3765 6.96285C60.2704 7.53016 60.6826 7.8281 61.054 7.91381L65.4619 8.39134C65.8741 8.37093 66.1721 7.96687 66.2537 7.55465C66.6333 5.71395 68.176 4.8242 69.9106 4.8242C70.8453 4.8242 71.9105 5.16704 72.4615 6.00373C73.0982 6.93837 73.0125 8.21992 73.0125 9.30149V9.89329C70.3759 10.1871 66.9271 10.3871 64.462 11.4687C61.6132 12.7013 59.6133 15.2113 59.6133 18.9009C59.6133 23.6272 62.5927 25.9903 66.421 25.9903C69.6535 25.9903 71.4207 25.2271 73.9186 22.6844C74.743 23.8802 75.0164 24.4598 76.5266 25.7128C76.8653 25.8964 77.2979 25.876 77.6 25.6066L77.6122 25.6189C78.5224 24.8108 80.1712 23.3782 81.0977 22.5987C81.4691 22.2966 81.4038 21.8028 81.114 21.3906ZM73.0166 14.5216C73.0166 16.2929 73.0574 17.7704 72.1676 19.3458C71.4452 20.6273 70.2943 21.4151 69.0209 21.4151C67.2781 21.4151 66.2578 20.0845 66.2578 18.1173C66.2578 14.244 69.731 13.538 73.0206 13.538V14.5216H73.0166Z" fill="white"/>
<path d="M21.4967 21.3906C20.6641 20.2437 19.7784 19.3091 19.7784 17.1745V10.0892C19.7784 7.08529 19.9907 4.33036 17.7785 2.26109C16.0358 0.591805 13.1462 0 10.934 0C6.60777 0 1.7754 1.61623 0.763219 6.96285C0.657103 7.53016 1.06932 7.8281 1.44073 7.91381L5.84863 8.39134C6.26085 8.37093 6.55879 7.96687 6.64042 7.55465C7.01999 5.71395 8.56276 4.8242 10.2973 4.8242C11.232 4.8242 12.2972 5.16704 12.8482 6.00373C13.4849 6.93837 13.3992 8.21992 13.3992 9.30149V9.89329C10.7626 10.1871 7.31793 10.3871 4.84869 11.4687C1.99988 12.7013 0 15.2113 0 18.9009C0 23.6272 2.97942 25.9903 6.80776 25.9903C10.0402 25.9903 11.8075 25.2271 14.3053 22.6844C15.1297 23.8802 15.4032 24.4598 16.9133 25.7128C17.252 25.8964 17.6847 25.876 17.9867 25.6066L17.9989 25.6189C18.905 24.8108 20.558 23.3782 21.4844 22.5987C21.8518 22.2966 21.7865 21.8028 21.4967 21.3906ZM13.3992 14.5216C13.3992 16.2929 13.44 17.7704 12.5503 19.3458C11.8279 20.6273 10.6769 21.4151 9.40352 21.4151C7.66077 21.4151 6.64042 20.0845 6.64042 18.1173C6.64042 14.244 10.1137 13.538 13.4033 13.538V14.5216H13.3992Z" fill="white"/>
</svg>
