<svg viewBox="0 0 20 20" fill="none" xmlns="http://www.w3.org/2000/svg">
<path d="M19.75 2.5V6C19.75 6.414 19.414 6.75 19 6.75C18.586 6.75 18.25 6.414 18.25 6V2.5C18.25 1.911 18.089 1.75 17.5 1.75H14C13.586 1.75 13.25 1.414 13.25 1C13.25 0.586 13.586 0.25 14 0.25H17.5C18.909 0.25 19.75 1.091 19.75 2.5ZM1 6.75C1.414 6.75 1.75 6.414 1.75 6V2.5C1.75 1.911 1.911 1.75 2.5 1.75H6C6.414 1.75 6.75 1.414 6.75 1C6.75 0.586 6.414 0.25 6 0.25H2.5C1.091 0.25 0.25 1.091 0.25 2.5V6C0.25 6.414 0.586 6.75 1 6.75ZM6 18.25H2.5C1.911 18.25 1.75 18.089 1.75 17.5V14C1.75 13.586 1.414 13.25 1 13.25C0.586 13.25 0.25 13.586 0.25 14V17.5C0.25 18.909 1.091 19.75 2.5 19.75H6C6.414 19.75 6.75 19.414 6.75 19C6.75 18.586 6.414 18.25 6 18.25ZM19 13.25C18.586 13.25 18.25 13.586 18.25 14V17.5C18.25 18.089 18.089 18.25 17.5 18.25H14C13.586 18.25 13.25 18.586 13.25 19C13.25 19.414 13.586 19.75 14 19.75H17.5C18.909 19.75 19.75 18.909 19.75 17.5V14C19.75 13.586 19.414 13.25 19 13.25ZM10.25 8.25V5.75C10.25 4.839 10.839 4.25 11.75 4.25H14.25C15.161 4.25 15.75 4.839 15.75 5.75V8.25C15.75 9.161 15.161 9.75 14.25 9.75H11.75C10.839 9.75 10.25 9.161 10.25 8.25ZM11.75 8.25H14.2419L14.25 5.758L11.7581 5.75L11.75 8.25ZM9.75 5.75V8.25C9.75 9.161 9.161 9.75 8.25 9.75H5.75C4.839 9.75 4.25 9.161 4.25 8.25V5.75C4.25 4.839 4.839 4.25 5.75 4.25H8.25C9.161 4.25 9.75 4.839 9.75 5.75ZM8.25 5.758L5.75806 5.75L5.75 8.25H8.2419L8.25 5.758ZM14.25 15.75H11.75C10.839 15.75 10.25 15.161 10.25 14.25V11.75C10.25 10.839 10.839 10.25 11.75 10.25H14.25C15.161 10.25 15.75 10.839 15.75 11.75V14.25C15.75 15.161 15.161 15.75 14.25 15.75ZM14.2419 14.25L14.25 11.758L11.7581 11.75L11.75 14.25H14.2419ZM9.75 11.75V14.25C9.75 15.161 9.161 15.75 8.25 15.75H5.75C4.839 15.75 4.25 15.161 4.25 14.25V11.75C4.25 10.839 4.839 10.25 5.75 10.25H8.25C9.161 10.25 9.75 10.839 9.75 11.75ZM8.25 11.758L5.75806 11.75L5.75 14.25H8.2419L8.25 11.758Z" fill="black"/>
</svg>
